<svg xmlns="http://www.w3.org/2000/svg" width="46" height="45" fill="none"><rect width="45" height="45" x=".117" fill="#FFC6F9" rx="22.5"/><path fill="#C64027" d="m14.144 21.17 4.348.368s4.99-2.25 5.74-7.333c.436-2.945 2.54-1.577 2.852.371.506 3.164-1.556 5.97-1.556 5.97s5.965-.022 6.249 1.879c.298 1.994-3.465 1.498-3.465 1.498s4.226-.262 3.771 2.197c-.323 1.749-3.939.842-3.939.842s3.292-.025 3.164 1.671c-.151 1.988-3.697 1.068-3.697 1.068s3.05-.087 2.221 1.983c-.83 2.071-10.835-.345-11.955-1.265s-4.76-1.056-4.76-1.056z"/></svg>