<svg xmlns="http://www.w3.org/2000/svg" width="45" height="45" fill="none"><rect width="45" height="45" x=".008" fill="#6F4BF0" rx="22.5"/><path fill="#000" d="M37.335 23.386c-.134-.338-.262-.68-.413-1.01-.582-1.272-1.196-2.527-1.993-3.684-.167-.242-.325-.491-.483-.74a21.4 21.4 0 0 0-3.01-3.706.34.34 0 0 0-.264-.107.9.9 0 0 0-.657.304 5.6 5.6 0 0 0-.504.703c-.552.9-.97 1.864-1.328 2.854-.345.956-.527 1.95-.69 2.948-.007.04-.022.079-.039.141-.146-.224-.271-.423-.404-.618-.157-.23-.304-.467-.482-.677a8 8 0 0 0-.684-.71 5 5 0 0 0-.65-.515c-.363-.242-.773-.391-1.189-.515a9.6 9.6 0 0 0-3.306-.381 7.2 7.2 0 0 0-2.179.456c-1.55.589-2.73 1.594-3.498 3.072-.018.035-.043.066-.066.1-.013-.015-.023-.023-.028-.033q-.083-.19-.162-.382c-.41-1.002-.877-1.974-1.463-2.887-.477-.741-1.057-1.402-1.619-2.077a1 1 0 0 0-.074-.072c-.147-.124-.293-.135-.465-.047a1.5 1.5 0 0 0-.476.37c-.215.257-.437.51-.635.78-.802 1.091-1.411 2.288-1.905 3.547a14.7 14.7 0 0 0-.988 4.412 16.2 16.2 0 0 0 .138 3.458q.016.13.061.252c.046.12.154.18.262.142.194-.068.375-.157.455-.368.06-.163.135-.32.183-.486.19-.66.374-1.323.56-1.985l.053-.207c.036.026.043.046.047.066.096.577.252 1.139.444 1.69a.9.9 0 0 0 .165.3.24.24 0 0 0 .409-.085c.06-.168.117-.338.157-.512.132-.586.238-1.177.287-1.778 0-.018.01-.035.017-.053.13.255.233.51.326.77.043.117.13.205.244.216a.255.255 0 0 0 .267-.18c.075-.212.14-.428.208-.642l.043-.141c.054.146.092.253.133.36s.089.213.13.32c.043.113.117.185.24.2.13.015.23-.041.285-.154.058-.118.098-.244.146-.367.013-.033.024-.066.047-.13.03.094.047.155.07.214.063.167.115.34.197.498.117.228.347.231.468.008.077-.141.141-.293.186-.447a7.8 7.8 0 0 0 .286-1.688c.014-.217.021-.434.033-.687.153.216.276.405.415.582.08.103.11.204.103.334a7.1 7.1 0 0 0 .14 1.913c.174.82.479 1.58 1.024 2.229a5.4 5.4 0 0 0 1.73 1.393c1.592.795 3.276 1.063 5.035.837 1.099-.14 2.146-.46 3.114-1.007.932-.528 1.672-1.248 2.17-2.205a7.6 7.6 0 0 0 .765-2.434c.024-.168.063-.322.152-.471.14-.237.258-.487.394-.747.014.087.024.165.04.24q.103.465.212.928c.016.066.049.13.085.189.079.128.217.15.348.155.125.004.19-.095.232-.203.033-.086.07-.173.087-.263q.114-.595.217-1.192c.025-.145.034-.292.05-.439a.24.24 0 0 1 .079.113 5.4 5.4 0 0 0 .828 1.514c.067.088.147.16.26.142.262-.04.353-.084.39-.334.01-.063.026-.126.025-.189-.005-.317-.007-.635-.025-.952-.013-.215-.05-.428-.076-.65.024.01.038.012.044.02q.041.056.08.113c.334.488.698.95 1.118 1.366.092.091.197.144.329.1.113-.04.166-.129.153-.298-.022-.27-.055-.54-.087-.809-.01-.087-.03-.173-.045-.26a.3.3 0 0 1 .115.092c.152.182.3.367.457.544.076.086.162.169.258.228.16.097.347.013.399-.166.067-.235.1-.473.067-.718-.02-.153-.03-.307-.044-.462.02.002.034 0 .04.006q.059.051.114.106c.53.496 1.116.893 1.833 1.072.162.04.297.02.41-.106a.38.38 0 0 0 .072-.42m-16.44-5.094c-.116.035-.232.066-.345.107-.227.083-.46.156-.676.262-.189.092-.364.044-.548.011a4.5 4.5 0 0 1 1.568-.38m-2.352.733c.17.01.34.032.51.049l.007.04-.233.167c-.141-.229-.36-.068-.557-.12.085-.079.166-.142.273-.136m-.96.592a.14.14 0 0 1 .08-.026c.245-.002.49-.001.771-.001-.117.11-.213.204-.315.29-.027.023-.075.029-.113.03q-.345.002-.69 0l-.018-.052c.095-.08.188-.163.285-.241m-.553.695c.216.004.433.001.69.001-.075.097-.124.172-.186.235a.18.18 0 0 1-.121.042c-.234-.012-.467-.03-.716-.047.07-.172.178-.233.333-.23m-.519.66c.228-.01.456-.003.726-.003-.052.093-.073.148-.11.19-.026.031-.073.065-.11.063-.244-.01-.488-.03-.734-.047.014-.158.116-.2.228-.204m-.473.61.83.06-.187.453-.838-.046zm.056 1.213-.114-.282h.547l-.078.282zm-1.605-.152c-.082-.152-.164-.306-.26-.45a1.8 1.8 0 0 0-.239-.271c-.067-.067-.156-.074-.242-.034a.22.22 0 0 0-.13.226c.005.11.02.218.028.328.038.583.055 1.166-.011 1.748-.028.246-.076.49-.117.735-.005.028-.02.053-.038.1-.022-.062-.04-.103-.05-.146a11 11 0 0 1-.318-2.034 5 5 0 0 0-.039-.432c-.02-.144-.083-.2-.21-.208-.16-.01-.228.041-.24.2-.023.306-.032.612-.06.917-.035.402-.083.804-.126 1.206q-.006.042-.018.084l-.026.007q-.027-.062-.05-.125a8.4 8.4 0 0 1-.445-2.042c-.024-.291-.107-.578-.168-.865a.5.5 0 0 0-.07-.158.16.16 0 0 0-.193-.074.15.15 0 0 0-.116.155c0 .254-.016.51.01.761.081.773.084 1.546.078 2.32 0 .093-.012.185-.02.277-.002.014-.01.028-.025.066-.03-.07-.056-.12-.074-.172a8.2 8.2 0 0 1-.49-2.227 1 1 0 0 0-.033-.186.16.16 0 0 0-.155-.118c-.076-.003-.143.032-.163.105a1.6 1.6 0 0 0-.07.354q-.027.736-.032 1.473a10 10 0 0 1-.203 1.892c-.005.027-.012.053-.027.115-.025-.07-.042-.104-.05-.14a8 8 0 0 1-.199-1.753q-.002-.85.027-1.699c.01-.282.058-.562.084-.844q.016-.165.01-.329c-.006-.155-.071-.223-.203-.229-.155-.008-.249.057-.272.205a8 8 0 0 0-.06.516c-.09 1.033-.27 2.05-.51 3.057-.188.785-.418 1.561-.63 2.341a.15.15 0 0 1-.058.087c-.005-.026-.014-.051-.015-.077-.035-.965-.047-1.93.069-2.891.159-1.32.492-2.597.976-3.835.48-1.23 1.102-2.378 1.92-3.417.157-.199.334-.382.504-.57.026-.03.061-.052.088-.075.018.006.033.005.038.012.36.466.734.923 1.078 1.4.591.822 1.004 1.739 1.375 2.676.303.768.6 1.538.9 2.308.029.075.051.153.08.229a.47.47 0 0 0 .22.259v.712a8 8 0 0 0-.265-.337 7 7 0 0 1-.765-1.133m.918 2.936c.27-.043.525.008.798-.004l.055.35h-.792zm.158.803h.793c.037.121.07.228.11.352-.143.031-.269.012-.392.016-.127.004-.254.001-.403.001zm.37 1.004c-.036-.056-.059-.121-.101-.214.282-.005.537.009.804.008l.12.267c-.258 0-.493.002-.727-.003-.033 0-.076-.03-.095-.058m.467.726c-.047-.07-.1-.135-.178-.236.267 0 .485-.003.703.002a.18.18 0 0 1 .118.052c.06.067.108.145.176.24-.068.006-.11.012-.152.014-.15.008-.3.006-.448.023-.1.012-.165-.015-.219-.095m.774.708c-.084-.008-.16-.094-.24-.144l.017-.049c.198-.005.396-.016.594-.011.1.002.142.095.219.188-.218.009-.406.032-.59.016m1.39.639c-.188.096-.362.057-.533-.05-.082-.05-.17-.09-.256-.135l.017-.038c.155 0 .31-.012.463.004.135.015.226.123.34.198zm.641.397c.101-.062.16.003.22.066zm8.907-4.977a6.9 6.9 0 0 1-.786 2.515c-.353.664-.873 1.197-1.501 1.606a6.2 6.2 0 0 1-1.958.862c-.224.053-.448.109-.674.155a4.44 4.44 0 0 1-2.423-.184 9 9 0 0 1-1.838-.887c-1.124-.721-1.817-1.738-2.092-3.04-.385-1.826.147-4.18 1.655-5.704a5.5 5.5 0 0 1 3.033-1.592 8.4 8.4 0 0 1 1.724-.142c.249.015.497.023.744.044.39.033.75.17 1.107.326.328.143.617.335.884.567.127.11.248.222.301.392.022.07.07.134.112.195.203.288.413.57.613.861.497.724.915 1.486 1.063 2.367.091.551.094 1.105.036 1.66m8.23-1.859c-.844-.417-1.44-1.096-1.923-1.875-.34-.55-.637-1.126-.95-1.692-.205-.37-.396-.745-.607-1.11a8 8 0 0 0-.42-.636.6.6 0 0 0-.198-.16.17.17 0 0 0-.217.055c-.048.071-.04.141.01.21.399.564.677 1.194.978 1.811.365.748.727 1.497 1.166 2.205a.5.5 0 0 1 .057.144c.068.323.105.65.1.98 0 .021-.007.042-.015.09-.054-.057-.093-.096-.129-.137a8.2 8.2 0 0 1-.925-1.338c-.33-.583-.654-1.17-.984-1.753-.056-.1-.117-.2-.187-.291-.068-.089-.164-.109-.245-.069q-.128.06-.08.24.023.091.064.178c.18.387.35.78.55 1.158.266.506.443 1.04.566 1.595l.15.677c.009.043.012.088.024.173-.06-.066-.095-.1-.126-.14-.537-.678-.996-1.402-1.296-2.22-.087-.239-.189-.472-.29-.705a1 1 0 0 0-.131-.224c-.074-.091-.202-.094-.271-.006-.083.105-.153.219-.106.365.033.105.059.212.09.317.22.719.41 1.445.51 2.191.041.297.059.598.084.897.006.068 0 .136 0 .204l-.038.014c-.033-.058-.069-.116-.1-.176a9.8 9.8 0 0 1-.904-2.647l-.016-.085c-.036-.16-.114-.21-.31-.194-.123.01-.19.075-.19.222 0 .202.007.405.031.605a6.9 6.9 0 0 1-.112 2.207.6.6 0 0 1-.077.218q-.04-.193-.074-.388c-.097-.6-.158-1.202-.125-1.811a1 1 0 0 0 0-.122c-.01-.113-.06-.172-.164-.193s-.192.007-.236.1a2 2 0 0 0-.1.293c-.108.396-.211.792-.318 1.188a.35.35 0 0 1-.09.167q-.02-.14-.036-.281a3.9 3.9 0 0 0-.229-.959.96.96 0 0 1-.045-.525c.087-.489.169-.979.264-1.466.28-1.433.784-2.788 1.425-4.095.225-.458.489-.892.8-1.296.04-.052.095-.094.149-.147.047.043.081.072.113.105 1.026 1.048 1.922 2.2 2.73 3.423.29.44.584.875.87 1.315.682 1.046 1.211 2.167 1.64 3.337.011.03.018.063.035.12-.063-.028-.104-.044-.142-.063"/><path fill="#FFB600" d="M23.252 18.469c.248.014.496.023.744.044.39.033.749.169 1.106.325.328.144.617.335.884.567.127.11.249.223.302.393.021.07.069.133.112.194.203.288.413.571.612.862.498.724.916 1.485 1.063 2.367.092.55.094 1.105.036 1.659a6.9 6.9 0 0 1-.786 2.515c-.352.664-.872 1.196-1.5 1.605a6.2 6.2 0 0 1-1.958.862c-.225.054-.449.11-.675.156a4.43 4.43 0 0 1-2.423-.185 9 9 0 0 1-1.837-.886c-1.125-.722-1.818-1.739-2.092-3.04-.386-1.827.146-4.18 1.655-5.704a5.5 5.5 0 0 1 3.032-1.593 8.4 8.4 0 0 1 1.725-.141m.097 8.96c.021.147.036.284.062.42.017.09.038.183.08.262a.34.34 0 0 0 .363.183.32.32 0 0 0 .293-.258.9.9 0 0 0 .008-.29c-.018-.188-.047-.375-.071-.562l.197-.11c.576-.337.966-.824 1.124-1.474.167-.686-.12-1.306-.722-1.602a2.2 2.2 0 0 0-.441-.149c-.156-.039-.317-.058-.48-.086l-.36-2.332q.042.002.082.008c.24.045.47.117.688.228.134.068.264.144.4.208.118.057.208.041.267-.033.053-.068.06-.164-.015-.256a1.8 1.8 0 0 0-.3-.307c-.329-.251-.708-.385-1.114-.45-.067-.01-.133-.026-.194-.038-.021-.065-.036-.115-.053-.163-.044-.12-.085-.24-.134-.357a.186.186 0 0 0-.193-.12c-.085.005-.158.07-.174.168-.012.073-.007.15-.003.224.004.073.016.146.025.222l-.828.1q-.03-.079-.062-.158c-.036-.085-.068-.172-.114-.252a.21.21 0 0 0-.234-.11c-.103.021-.159.097-.173.194-.01.072-.002.15.006.223.012.103.031.205.047.311-.043.028-.08.054-.12.077a3 3 0 0 0-.677.562c-.26.287-.423.618-.469 1.004-.066.56.103 1.025.548 1.382.264.212.571.32.901.374l.212.038.158 2.159c-.123-.04-.23-.064-.327-.108a1.44 1.44 0 0 1-.576-.46c-.108-.147-.26-.186-.374-.112s-.142.233-.06.39c.048.091.104.181.172.259.287.33.632.572 1.057.693l.16.048c.008.11.011.219.025.326q.036.3.088.6c.02.119.098.197.217.219.127.023.228-.027.297-.134a.6.6 0 0 0 .061-.142c.063-.189.084-.383.078-.581-.001-.06.004-.121.006-.183zm-3.91-7.48c-.064.04-.136.074-.2.122-.372.28-.681.62-.948 1.002a8 8 0 0 0-.893 1.736c-.094.246-.15.51-.198.769-.075.406-.049.818-.034 1.227.027.72.128 1.425.413 2.095.214.503.543.924.92 1.309.197.201.426.37.636.56.333.301.728.486 1.147.625q.214.07.435.113a.17.17 0 0 0 .133-.043c.05-.05.019-.109-.026-.152-.05-.048-.11-.087-.154-.14a1 1 0 0 1-.141-.21c-.06-.119-.102-.245-.161-.363a3.6 3.6 0 0 1-.328-.891c-.052-.255-.1-.51-.154-.764a1.55 1.55 0 0 0-.874-1.117c-.12-.06-.239-.118-.353-.184a.88.88 0 0 1-.447-.666 2.5 2.5 0 0 1-.03-.38 6.5 6.5 0 0 1 .246-1.64c.266-.983.661-1.919 1.101-2.836a.2.2 0 0 0 .014-.125c-.005-.02-.057-.027-.104-.047"/><path fill="#00B882" d="M31.554 24.169q-.052-.088-.1-.177a9.8 9.8 0 0 1-.905-2.646l-.015-.086c-.036-.16-.114-.21-.31-.193-.123.01-.19.074-.19.221 0 .202.007.405.03.606a6.9 6.9 0 0 1-.111 2.206c-.015.072-.03.144-.077.219q-.04-.194-.074-.388c-.097-.6-.158-1.203-.125-1.812a1 1 0 0 0 0-.122c-.01-.113-.06-.172-.164-.193s-.192.007-.236.1a2 2 0 0 0-.1.293q-.16.595-.317 1.189a.35.35 0 0 1-.091.167q-.02-.141-.036-.282a3.9 3.9 0 0 0-.229-.958.96.96 0 0 1-.045-.526c.087-.489.169-.979.264-1.466.28-1.432.784-2.788 1.425-4.095a7.6 7.6 0 0 1 .8-1.295c.04-.053.095-.095.148-.148.048.044.082.073.114.105 1.026 1.048 1.922 2.2 2.73 3.424.29.438.584.874.87 1.315.682 1.046 1.211 2.166 1.64 3.337.011.03.018.062.035.12-.063-.029-.103-.045-.142-.064-.844-.416-1.44-1.095-1.923-1.875-.34-.55-.637-1.126-.95-1.692-.204-.369-.396-.745-.606-1.11a8 8 0 0 0-.42-.635.6.6 0 0 0-.199-.16.17.17 0 0 0-.216.054c-.048.071-.04.142.008.21.4.564.678 1.194.98 1.811.365.748.726 1.497 1.165 2.205a.5.5 0 0 1 .057.144c.068.323.105.65.1.98 0 .021-.007.042-.015.09-.053-.057-.093-.096-.128-.137a8.2 8.2 0 0 1-.925-1.338c-.33-.583-.655-1.17-.984-1.753-.057-.1-.118-.2-.188-.29-.068-.09-.164-.11-.245-.07q-.126.062-.08.24.023.091.064.179c.181.387.35.78.55 1.157.267.506.443 1.04.566 1.595l.15.677c.01.043.013.088.024.173-.06-.066-.095-.1-.126-.14-.537-.678-.996-1.402-1.296-2.22-.087-.239-.189-.472-.29-.705a1 1 0 0 0-.13-.223c-.074-.092-.203-.095-.272-.007-.083.105-.153.22-.106.366.033.104.059.21.09.316.22.719.41 1.445.511 2.191.04.298.058.598.083.897.006.068.001.137.001.205zM16.057 23.279c-.191.275-.626.222-.76-.137-.028-.076-.05-.154-.079-.229-.3-.77-.597-1.54-.9-2.308-.37-.937-.783-1.854-1.375-2.675-.344-.478-.717-.935-1.077-1.4-.006-.008-.02-.007-.038-.012-.028.022-.062.044-.089.074-.17.189-.347.372-.504.57-.818 1.039-1.44 2.188-1.92 3.418a15.7 15.7 0 0 0-.976 3.834c-.115.961-.104 1.926-.069 2.891.001.026.01.052.016.078a.15.15 0 0 0 .058-.087c.212-.78.441-1.556.629-2.342.24-1.006.42-2.024.511-3.056.015-.173.032-.346.06-.517.022-.148.117-.212.272-.205.131.007.196.074.202.23q.006.165-.01.328c-.026.282-.074.563-.084.845q-.028.849-.027 1.698c0 .591.07 1.176.2 1.753.008.037.024.071.05.14l.027-.114c.124-.625.198-1.255.202-1.893q.006-.736.033-1.473a1.6 1.6 0 0 1 .07-.353c.02-.073.086-.109.162-.106a.16.16 0 0 1 .155.118 1 1 0 0 1 .034.187c.052.766.23 1.505.489 2.226.019.052.044.102.075.172.014-.038.022-.052.024-.066.008-.092.02-.184.02-.276.007-.775.004-1.548-.077-2.32-.026-.252-.01-.508-.01-.762 0-.077.041-.133.115-.155a.16.16 0 0 1 .194.074c.03.05.058.103.07.158.06.287.144.574.168.865.058.702.215 1.38.444 2.042q.024.064.05.125l.027-.007c.006-.028.015-.056.018-.084.043-.402.09-.803.126-1.206.027-.305.037-.611.06-.916.012-.16.08-.211.239-.2.127.008.19.064.21.207s.03.288.039.432c.04.689.15 1.366.318 2.034.011.043.029.084.05.146.018-.047.034-.072.038-.1.04-.244.09-.488.117-.735.066-.582.05-1.165.011-1.748-.007-.11-.022-.218-.028-.328a.22.22 0 0 1 .13-.226c.086-.04.175-.032.243.034.086.084.172.172.239.271.096.144.177.298.26.45q.324.605.764 1.133.172.208.33.424c.082.112.161.227.225.35.172.136.371-.38.381-.444.043-.262.138-.882 0-.909-.05-.01-.094.027-.132.082"/><path fill="#FFB600" d="m16.038 21.583.831.06-.188.453-.837-.047zM15.563 26.383h.793c.037.12.07.228.11.352-.143.03-.269.012-.392.016-.127.004-.254 0-.403 0zM16.205 25.575l.055.35h-.792l-.062-.346c.271-.043.526.008.799-.004M16.127 24.714l.055.352h-.792l-.062-.347c.271-.043.526.008.799-.005M17.297 19.858q.141-.122.285-.241a.14.14 0 0 1 .08-.026c.245-.002.49-.001.771-.001-.118.11-.213.204-.315.29-.027.023-.075.029-.113.03q-.345.002-.69 0zM16.227 27.876c.266 0 .484-.003.702.002a.18.18 0 0 1 .118.052c.06.067.108.145.176.24-.068.006-.11.012-.152.015-.15.007-.3.005-.448.023-.1.011-.165-.016-.219-.096-.047-.07-.1-.135-.177-.236M16.636 27.181l.12.266c-.258 0-.493.003-.727-.002-.033 0-.076-.03-.095-.058-.037-.056-.06-.122-.102-.214.282-.005.537.009.804.008M16.695 20.543c.07-.172.178-.233.333-.23.216.003.433 0 .69 0-.075.098-.124.173-.186.236a.18.18 0 0 1-.121.041c-.234-.011-.467-.03-.716-.047M20.893 18.291c-.115.036-.232.067-.344.108-.228.082-.46.155-.677.261-.189.093-.364.044-.548.012a4.5 4.5 0 0 1 1.568-.381M17.239 20.969c-.052.093-.073.148-.11.19-.026.031-.074.065-.11.063-.245-.01-.488-.03-.734-.047.013-.158.116-.2.228-.204.228-.008.456-.002.726-.002M17.794 29.236c.155 0 .31-.012.464.004.134.014.225.122.339.198l-.03.02c-.189.097-.363.057-.534-.048-.082-.05-.17-.091-.256-.136zM16.449 22.795h-.355l-.114-.282h.547zM16.95 28.627c.199-.005.397-.016.595-.012.1.003.142.096.219.189-.218.008-.406.032-.59.015-.084-.007-.16-.093-.24-.143q.007-.024.017-.05M19.06 19.114l-.234.167c-.141-.229-.36-.068-.556-.12.084-.079.165-.142.272-.136.17.01.34.032.51.049zM19.207 29.856c.1-.062.16.004.22.067z"/><path fill="#000" d="m23.35 27.43-.646.053c-.002.062-.007.122-.006.183a1.7 1.7 0 0 1-.078.58.6.6 0 0 1-.062.143c-.068.107-.17.157-.296.134a.255.255 0 0 1-.218-.22 14 14 0 0 1-.088-.598c-.013-.108-.017-.217-.025-.327l-.16-.048a2.2 2.2 0 0 1-1.057-.693 1.3 1.3 0 0 1-.171-.26c-.082-.156-.053-.315.06-.39.113-.073.266-.034.374.114.151.207.347.354.576.459.097.044.203.068.327.108l-.159-2.159c-.078-.014-.144-.027-.211-.038-.33-.053-.638-.162-.902-.374-.444-.357-.614-.823-.547-1.382.046-.386.21-.717.469-1.004q.296-.332.677-.562c.04-.023.077-.049.12-.077-.016-.106-.035-.208-.047-.31-.008-.075-.017-.151-.006-.224.014-.097.07-.172.173-.193a.21.21 0 0 1 .234.11c.045.08.077.167.114.251q.032.079.062.159l.827-.1c-.009-.076-.02-.15-.025-.223-.004-.074-.008-.15.004-.224.016-.098.089-.163.174-.167a.185.185 0 0 1 .193.12c.049.116.09.236.133.356.018.048.032.098.053.164.062.012.128.027.195.037.405.065.785.199 1.113.45.113.086.211.195.3.307.075.092.069.188.015.256-.058.075-.148.09-.267.034-.136-.065-.266-.14-.4-.209a2.5 2.5 0 0 0-.688-.228q-.04-.006-.082-.008l.36 2.332c.163.029.324.047.48.087.15.037.303.08.442.148.602.296.888.917.721 1.603-.158.65-.547 1.136-1.124 1.473l-.196.11c.024.187.053.374.07.562a.9.9 0 0 1-.008.29.32.32 0 0 1-.292.258.34.34 0 0 1-.363-.183 1 1 0 0 1-.08-.262c-.026-.135-.041-.273-.062-.419m-.327-3.67-.225-2.378a2.5 2.5 0 0 0-.776.098l.334 2.326zm.288 2.95c-.04-.751-.126-1.49-.216-2.242l-.666.047.22 2.263c.235.024.442-.001.662-.069m-1.686-2.92c.034-.23-.145-1.884-.218-2.02-.284.17-.57.537-.656.84-.177.634.22 1.172.874 1.18m2.425 2.588c.36-.206.666-.723.691-1.122a.6.6 0 0 0-.302-.58c-.173-.111-.367-.15-.586-.162zM19.442 19.95c.047.019.099.027.104.046a.2.2 0 0 1-.014.125c-.44.917-.836 1.852-1.102 2.836a6.5 6.5 0 0 0-.245 1.64c-.002.127.012.254.03.38a.88.88 0 0 0 .447.666q.173.097.353.183c.471.233.765.604.874 1.118.054.254.102.51.154.764.064.313.184.606.327.89.06.119.102.245.162.364.037.075.087.146.141.21.044.053.104.091.154.14.044.043.075.101.025.151a.17.17 0 0 1-.132.044 4 4 0 0 1-.435-.113c-.42-.14-.814-.324-1.147-.625-.21-.19-.44-.36-.637-.56-.376-.385-.705-.806-.919-1.309-.285-.67-.387-1.375-.413-2.095-.015-.41-.04-.821.034-1.227.048-.26.104-.523.198-.769.232-.61.517-1.197.893-1.736.267-.382.576-.722.948-1.002.064-.048.136-.083.2-.122m.172 6.907c-.02.006-.036.005-.041.012q-.43.563-.86 1.128c-.052.069-.01.1.055.13l.848-1.099c.044-.058.03-.115-.002-.17m-.494-.69c-.05-.074-.086-.05-.117-.008l-.864 1.17c-.037.05-.016.08.04.113zm-.6 1.762c.066-.08.103-.122.137-.168l.783-1.032c.021-.028.05-.053.06-.084.008-.03-.004-.066-.008-.1l-.04-.012q-.478.633-.952 1.268c-.012.016.008.057.02.129m-.298-5.05-.028-.014c-.02.018-.043.033-.06.054-.223.257-.442.517-.667.772-.08.09-.1.183-.076.297.02-.007.035-.007.041-.014q.357-.445.707-.897c.042-.055.056-.13.083-.197m.085 4.777.052.014.995-1.323-.078-.065c-.036.046-.069.084-.099.125l-.68.919c-.058.079-.12.155-.174.236-.017.024-.011.062-.016.094m.682.664.704-.837c.067-.08.049-.151-.007-.243-.072.093-.136.174-.198.256l-.525.685c-.038.05-.075.096.026.139m-.125-2.311c-.098-.053-.104-.057-.152.01q-.37.52-.738 1.041c-.032.046-.03.085.03.122zm-.779-2.475-.046-.02c-.212.265-.427.528-.633.797-.03.04-.02.112-.03.18.035-.012.049-.013.055-.02.188-.234.38-.465.56-.705.048-.064.063-.154.094-.232m1.13 5.021.564-.696c.046-.058.037-.111-.017-.178l-.643.776zm-.823-6.227-.032-.031q-.034.026-.065.055-.367.378-.735.753c-.075.076-.091.167-.107.306zm-.7.31.023.017q.413-.404.823-.81c.032-.032.044-.083.066-.125l-.036-.027c-.253.24-.509.477-.756.723-.057.057-.08.147-.12.221m.314 2.438-.032-.01q-.23.34-.46.683c-.039.06-.024.118.032.185.156-.248.31-.49.458-.735.018-.03.002-.081.002-.123m.577.785c-.066-.063-.096-.012-.125.029q-.244.346-.487.693c-.05.07-.102.14-.144.215-.013.022.002.06.006.122zm-.613-1.217-.046-.013-.467.633c-.046.063-.024.123.013.2.16-.23.313-.445.458-.664.028-.043.029-.104.042-.156m1.936 3.438-.052-.018-.48.593c.04.03.064.05.099.078.143-.177.284-.344.416-.518.024-.032.012-.09.017-.135m-2.517-3.129.049.02q.262-.364.52-.73c.014-.019.005-.054.007-.082-.197.207-.37.42-.537.64-.029.039-.026.101-.039.152m.737.462c-.164.178-.497.734-.507.853l.538-.706c.05-.065.004-.101-.03-.147m.228.29-.028-.02c-.011.003-.027.002-.032.008q-.293.404-.584.812c-.01.015.001.046.002.07l.028.008zm.775-5.273a2.9 2.9 0 0 0-.58.669c.217-.203.512-.338.58-.669m-1.062 1.406.03.03q.352-.319.705-.642c.015-.014.016-.045.024-.068a6 6 0 0 0-.759.68m1.957 6.562-.036-.008-.355.446c.053.059.09.07.13.02.087-.113.177-.225.259-.343.018-.026.002-.076.002-.115m.118.264-.244.317c.104.035.117.04.139-.01.04-.088.187-.141.105-.307m.213.514-.075-.219-.111.15z"/><path fill="#FFB600" d="m23.024 23.76-.667.046-.334-2.325c.24-.072.493-.104.777-.099zM23.31 26.71c-.219.067-.426.093-.66.069l-.22-2.264.665-.046c.09.75.176 1.49.216 2.24M21.627 23.79c-.654-.008-1.051-.545-.874-1.18.085-.303.372-.67.656-.84.073.137.252 1.79.218 2.02M24.052 26.377l-.197-1.863c.22.012.413.05.587.16.211.135.318.322.301.581-.024.4-.33.917-.69 1.122M19.613 26.856c.031.057.046.113 0 .171l-.847 1.1c-.065-.03-.107-.062-.055-.13l.86-1.129c.005-.007.02-.006.042-.012M19.12 26.166l-.94 1.276c-.056-.033-.077-.064-.04-.114l.863-1.17c.032-.041.067-.065.117.008M18.52 27.93c-.012-.072-.032-.113-.02-.13q.474-.634.952-1.267l.04.012c.003.034.016.07.007.1s-.038.056-.059.084l-.783 1.032c-.034.046-.072.089-.137.168M18.223 22.88c-.027.067-.041.143-.083.198-.232.302-.47.598-.707.896-.006.007-.02.008-.04.014a.32.32 0 0 1 .075-.297c.225-.254.444-.515.666-.772q.028-.029.061-.054zM18.305 27.655c.004-.031 0-.07.015-.094.055-.081.117-.157.175-.236l.68-.919q.045-.059.099-.125l.078.066-.996 1.322zM18.987 28.319c-.101-.043-.064-.089-.026-.138q.263-.342.525-.686l.198-.256c.056.092.074.164.007.243zM18.864 26.009l-.861 1.172c-.06-.037-.061-.076-.029-.121q.367-.521.738-1.041c.048-.067.054-.063.152-.01M18.084 23.534c-.03.078-.046.167-.094.232-.18.24-.372.47-.56.704-.006.007-.02.008-.055.021.01-.068 0-.14.03-.18.206-.27.42-.532.633-.797zM19.217 28.555l-.096-.099.643-.775c.054.066.064.12.017.177zM18.392 22.328l-.939 1.083c.016-.139.032-.23.107-.306q.368-.376.735-.753.031-.029.065-.055zM17.691 22.638c.04-.075.064-.165.121-.222.247-.246.503-.483.756-.723l.036.027c-.022.042-.035.094-.066.126q-.41.406-.823.81zM18.006 25.076c0 .041.016.092-.002.122-.148.246-.302.487-.458.736-.057-.067-.071-.126-.031-.186q.228-.341.46-.682zM18.581 25.861l-.75 1.059c-.003-.062-.018-.1-.006-.123.043-.074.095-.144.145-.215l.487-.693c.03-.04.058-.091.124-.028M17.969 24.644c-.014.052-.015.113-.043.156-.145.219-.297.433-.458.664-.036-.077-.058-.137-.012-.2q.231-.317.467-.633zM19.907 28.081c-.005.046.006.104-.018.135-.132.174-.272.341-.416.518l-.098-.078.48-.593zM17.39 24.953c.013-.051.01-.113.04-.152.166-.22.34-.434.536-.64-.002.027.007.063-.007.082q-.258.367-.52.729zM18.128 25.414c.035.046.08.082.03.147l-.537.706c.01-.118.343-.675.507-.853M18.351 25.705l-.613.878-.028-.009c-.002-.023-.013-.054-.002-.07q.29-.406.584-.811c.005-.007.02-.006.031-.008zM19.127 20.432c-.068.33-.363.466-.58.668.155-.255.354-.473.58-.668M18.07 21.837a6 6 0 0 1 .759-.68c-.008.023-.009.054-.024.069q-.352.322-.706.643zM20.024 28.4c0 .04.016.089-.003.115-.08.118-.171.23-.26.344-.037.05-.075.038-.128-.02l.355-.446zM20.142 28.663c.082.166-.065.219-.105.308-.022.05-.035.044-.139.009zM20.354 29.178l-.186-.068.111-.151z"/></svg>