<svg width="47" height="45" viewBox="0 0 47 45" fill="none" xmlns="http://www.w3.org/2000/svg">
<path d="M39.8971 39.1371L46.1175 16.6371L29.7419 0L7.14618 5.8629L0.925781 28.3632L17.3014 45L39.8971 39.1371Z" fill="#4E8B5C"/>
<path d="M26.363 38.3153C29.0606 34.9319 28.5046 30.0024 25.1212 27.3049C21.7379 24.6074 16.8083 25.1634 14.1108 28.5467C11.4133 31.9301 11.9693 36.8596 15.3527 39.5571C18.736 42.2546 23.6655 41.6986 26.363 38.3153Z" fill="#C64027"/>
<path d="M24.8262 37.6872C27.1811 35.1589 27.0405 31.2002 24.5121 28.8453C21.9838 26.4904 18.0251 26.631 15.6702 29.1593C13.3153 31.6877 13.4559 35.6463 15.9842 38.0013C18.5126 40.3562 22.4713 40.2156 24.8262 37.6872Z" fill="#E2BE47"/>
<path d="M18.5787 37.3515L18.8408 36.4029C18.1799 36.1879 17.5806 35.8288 17.2617 35.504L17.8843 34.4188C18.2402 34.7645 18.7714 35.137 19.4205 35.3166C19.99 35.4739 20.4399 35.3618 20.5507 34.9624C20.6555 34.5829 20.4022 34.2553 19.7321 33.8011C18.7628 33.1457 18.172 32.4451 18.4401 31.4765C18.6829 30.598 19.4926 30.0799 20.6192 30.1654L20.8813 29.2168L21.8601 29.4875L21.617 30.3663C22.2779 30.5813 22.6888 30.8451 22.9739 31.0961L22.3723 32.1446C22.1432 31.9631 21.747 31.6063 21.0284 31.4074C20.3793 31.2278 20.0922 31.4493 20.0149 31.7291C19.9238 32.0588 20.2155 32.3648 20.976 32.9193C22.0482 33.6674 22.3759 34.3493 22.1275 35.2478C21.8817 36.1368 21.0429 36.7217 19.8389 36.6041L19.5575 37.6225L18.5787 37.3515Z" fill="#C64027"/>
<path d="M24.3549 7.67372C24.2801 7.80251 24.2017 7.96407 24.1195 8.15841C24.0415 8.35036 23.9597 8.5626 23.874 8.79513C23.7893 9.02436 23.7051 9.26442 23.6215 9.51531C23.5412 9.76711 23.4623 10.014 23.3847 10.2558C23.2058 10.8256 23.0256 11.4323 22.844 12.076C22.7508 12.4132 22.6379 12.7378 22.5054 13.0499C22.377 13.3596 22.2273 13.6438 22.0561 13.9025C21.8882 14.1621 21.6982 14.3925 21.486 14.5936C21.2738 14.7947 21.0399 14.9524 20.7841 15.0667C20.5316 15.1819 20.2565 15.25 19.9589 15.2709C19.6605 15.2951 19.3393 15.2597 18.9955 15.1646C18.6748 15.076 18.4063 14.9661 18.1899 14.8351C17.9734 14.7041 17.8044 14.556 17.6829 14.3907C17.5637 14.2296 17.4894 14.0543 17.46 13.8647C17.433 13.6793 17.4478 13.4841 17.5045 13.2791C17.5603 13.0775 17.6453 12.9053 17.7595 12.7625C17.8737 12.6197 18.003 12.506 18.1474 12.4214C18.2908 12.34 18.4402 12.2888 18.5955 12.2677C18.7541 12.2475 18.9062 12.2575 19.0516 12.2977C19.24 12.3498 19.4023 12.4516 19.5383 12.6031C19.6743 12.7546 19.7538 12.9563 19.7767 13.2082C19.7443 13.1707 19.7001 13.1443 19.6439 13.1287C19.5678 13.1077 19.4885 13.1178 19.406 13.159C19.3225 13.2036 19.2688 13.2688 19.2451 13.3547C19.2314 13.4043 19.2282 13.4479 19.2356 13.4856C19.2454 13.5274 19.2624 13.5624 19.2867 13.5904C19.3109 13.6185 19.3387 13.6404 19.3699 13.6562C19.4035 13.6761 19.4352 13.6902 19.465 13.6985C19.5013 13.7085 19.5527 13.7156 19.6192 13.7198C19.6881 13.7281 19.7678 13.7164 19.8585 13.6845C19.9491 13.6526 20.0476 13.5927 20.1538 13.5046C20.26 13.4165 20.371 13.2853 20.4868 13.1109C20.6026 12.9366 20.7194 12.7073 20.8371 12.4231C20.9581 12.1399 21.0767 11.7884 21.1928 11.3685C21.0453 11.6445 20.8987 11.853 20.7529 11.9942C20.6071 12.1354 20.4661 12.2334 20.33 12.2883C20.1947 12.3398 20.0648 12.3591 19.9404 12.346C19.8192 12.3338 19.7073 12.3136 19.6049 12.2853C19.5255 12.2633 19.4283 12.2222 19.3133 12.1619C19.1993 12.0984 19.0824 12.0127 18.9627 11.9049C18.8473 11.7947 18.7354 11.6587 18.6271 11.4971C18.523 11.3331 18.4408 11.1414 18.3805 10.9218C18.3211 10.699 18.2916 10.4453 18.292 10.1608C18.2967 9.8738 18.3488 9.55016 18.4484 9.18983C18.602 8.63446 18.788 8.18057 19.0064 7.82818C19.2281 7.4767 19.4607 7.20829 19.7041 7.02294C19.9518 6.8352 20.1988 6.72025 20.4454 6.6781C20.6928 6.63265 20.9206 6.63871 21.1289 6.6963C21.2777 6.73743 21.4063 6.7997 21.5149 6.88311C21.6245 6.96321 21.7178 7.05664 21.7951 7.1634C21.8723 7.27017 21.9352 7.38365 21.9838 7.50384C22.0334 7.62073 22.0742 7.73699 22.1063 7.85262C22.1266 7.70168 22.1421 7.54937 22.1525 7.39569C22.1663 7.24292 22.1756 7.08713 22.1804 6.92832C22.2529 6.98753 22.3463 7.04893 22.4604 7.1125C22.5588 7.1682 22.6847 7.2279 22.8379 7.29161C22.992 7.35202 23.1814 7.4133 23.4062 7.47545C23.6707 7.54858 23.9869 7.61467 24.3549 7.67372ZM21.5542 9.57888C21.5798 9.48632 21.6038 9.37375 21.6262 9.24116C21.6496 9.10528 21.6595 8.9728 21.6561 8.84374C21.6535 8.71137 21.6311 8.59307 21.5887 8.48884C21.5497 8.38552 21.4789 8.31969 21.3764 8.29135C21.3004 8.27033 21.2186 8.29576 21.1311 8.36765C21.0446 8.43623 20.9608 8.52694 20.8798 8.63976C20.803 8.75019 20.7331 8.86787 20.6701 8.99278C20.6103 9.11862 20.5677 9.22781 20.5421 9.32038C20.4982 9.47905 20.4617 9.64332 20.4325 9.81318C20.4034 9.98304 20.3882 10.1408 20.3871 10.2864C20.3902 10.4296 20.408 10.5519 20.4404 10.6534C20.4761 10.7558 20.5337 10.818 20.613 10.8399C20.699 10.8637 20.7805 10.8649 20.8576 10.8435C20.9389 10.8197 21.0123 10.7795 21.0777 10.7229C21.1474 10.6639 21.2067 10.5913 21.2554 10.5051C21.3074 10.4199 21.3481 10.3243 21.3773 10.2185L21.5542 9.57888ZM28.7455 10.0568C28.677 10.3047 28.5739 10.536 28.4363 10.7506C28.3019 10.9661 28.1204 11.1401 27.8916 11.2725C27.6628 11.405 27.3813 11.4837 27.047 11.5087C26.716 11.5346 26.3174 11.4831 25.8513 11.3542C25.8197 11.5199 25.8153 11.6645 25.8381 11.7883C25.8641 11.9129 25.906 12.0188 25.9637 12.1059C26.0215 12.1931 26.0888 12.265 26.1656 12.3219C26.2424 12.3787 26.3153 12.4238 26.3844 12.4571C26.4535 12.4904 26.5128 12.514 26.5624 12.5277C26.612 12.5414 26.6368 12.5482 26.6368 12.5482C26.8481 12.5818 27.0462 12.5796 27.231 12.5417C27.3096 12.5279 27.3888 12.5053 27.4686 12.474C27.5494 12.4394 27.6258 12.3947 27.6979 12.3399C27.7742 12.2827 27.8412 12.214 27.8989 12.1339C27.9609 12.0514 28.0116 11.9516 28.0512 11.8344C28.0777 12.073 28.0814 12.2911 28.0624 12.4887C28.0476 12.6839 28.0178 12.8625 27.973 13.0245C27.8907 13.322 27.7603 13.5813 27.5817 13.8024C27.4074 14.021 27.2009 14.1952 26.9622 14.325C26.7235 14.4547 26.4598 14.533 26.1712 14.56C25.885 14.5912 25.5899 14.5647 25.2858 14.4806C24.9882 14.3983 24.7148 14.2676 24.4655 14.0883C24.2194 13.91 24.0196 13.6803 23.8659 13.3994C23.7165 13.1161 23.6267 12.7781 23.5965 12.3855C23.5696 11.9937 23.6265 11.5433 23.7673 11.0342C23.92 10.4821 24.1346 10.0148 24.4112 9.63225C24.6878 9.24967 24.9997 8.95161 25.347 8.73805C25.6952 8.52118 26.0651 8.38681 26.4566 8.33494C26.8524 8.28068 27.2437 8.30703 27.6305 8.41397C27.8222 8.46699 27.9997 8.53921 28.163 8.63063C28.3297 8.72297 28.4654 8.837 28.5702 8.97274C28.6783 9.10939 28.7501 9.26802 28.7856 9.44864C28.822 9.62595 28.8086 9.82865 28.7455 10.0568ZM26.0577 10.5306C26.1512 10.5529 26.2637 10.5644 26.3951 10.5651C26.5275 10.5626 26.6569 10.545 26.7833 10.5124C26.9098 10.4797 27.0222 10.4272 27.1205 10.3547C27.2221 10.2832 27.2894 10.1879 27.3223 10.0689C27.3433 9.99286 27.3338 9.92439 27.2937 9.86348C27.2536 9.80258 27.1922 9.7607 27.1096 9.73785C26.9939 9.70585 26.8806 9.71012 26.7698 9.75064C26.6622 9.79208 26.5617 9.85324 26.4682 9.93413C26.3779 10.0159 26.2965 10.1109 26.224 10.2189C26.1514 10.3269 26.096 10.4308 26.0577 10.5306ZM33.5234 9.86193C33.4558 10.0034 33.3957 10.1433 33.3432 10.2818C33.294 10.4212 33.2488 10.5653 33.2077 10.7141C33.1684 10.8562 33.1336 11.0014 33.1032 11.1496C33.0772 11.2954 33.0572 11.4447 33.0435 11.5975C32.9076 11.4709 32.7444 11.36 32.5537 11.2645C32.3663 11.17 32.1717 11.0824 31.9698 11.0017L31.8519 11.4281C31.7486 11.8017 31.6506 12.182 31.5578 12.5691C31.4659 12.953 31.385 13.3292 31.3151 13.6977C31.2461 14.063 31.1905 14.4123 31.1481 14.7458C31.109 15.0802 31.0899 15.3809 31.0907 15.648C31.0355 15.6292 30.9707 15.6059 30.8965 15.5783C30.8313 15.5567 30.7545 15.5319 30.6662 15.504C30.5779 15.476 30.4758 15.446 30.3601 15.414C30.1453 15.3546 29.8946 15.2959 29.6081 15.2381C29.3225 15.1769 29.0093 15.1259 28.6683 15.085C28.9589 14.4714 29.2234 13.8239 29.4616 13.1425C29.7041 12.4587 29.9172 11.7846 30.1009 11.1201L30.2641 10.53C30.0347 10.4844 29.8042 10.4491 29.5727 10.4243C29.3454 10.397 29.1273 10.3812 28.9186 10.3768C28.9419 10.3441 28.9667 10.2994 28.9931 10.2426C29.0194 10.1859 29.0429 10.1265 29.0636 10.0646C29.0876 10.0037 29.1078 9.94342 29.1243 9.88391C29.144 9.82532 29.1594 9.77619 29.1704 9.73652C29.217 9.56793 29.2565 9.39916 29.289 9.23021C29.3215 9.06127 29.3511 8.88975 29.3779 8.71567C29.5183 8.82567 29.6916 8.93231 29.8979 9.03562C30.1052 9.13562 30.3184 9.22661 30.5377 9.3086C30.5974 9.01552 30.6479 8.743 30.6891 8.49106C30.7303 8.23912 30.7601 8.00895 30.7786 7.80055C31.0335 7.92087 31.2728 8.02083 31.4963 8.10043C31.7199 8.18003 31.9242 8.24543 32.1093 8.29661C32.2283 8.32952 32.3346 8.35712 32.428 8.37941C32.5257 8.3993 32.6085 8.41509 32.6765 8.42676C32.7577 8.44208 32.8294 8.45302 32.8916 8.45955C32.8114 8.60817 32.7251 8.79784 32.6329 9.02854C32.5448 9.25685 32.449 9.51326 32.3454 9.79778C32.57 9.83496 32.7837 9.86023 32.9864 9.87358C33.1924 9.88784 33.3714 9.88396 33.5234 9.86193Z" fill="#E2BE47"/>
<path d="M13.66 15.1431C13.5853 15.2719 13.5077 15.4302 13.4273 15.6179C13.3502 15.8065 13.2707 16.0105 13.1887 16.2298C13.1067 16.4491 13.0253 16.6793 12.9444 16.9202C12.8669 17.1621 12.7911 17.3974 12.7172 17.6261C12.5466 18.166 12.376 18.738 12.2054 19.3421C12.1121 19.6793 11.9988 20.0056 11.8653 20.321C11.7352 20.6373 11.5836 20.9281 11.4106 21.1934C11.24 21.4629 11.0477 21.7015 10.8336 21.9093C10.622 22.1212 10.3874 22.2876 10.1298 22.4085C9.87455 22.5337 9.59557 22.6096 9.29285 22.6362C8.99344 22.6637 8.67184 22.6299 8.32804 22.5349C8.00737 22.4462 7.73883 22.3364 7.5224 22.2054C7.30597 22.0743 7.13698 21.9262 7.01543 21.7609C6.89627 21.5999 6.82198 21.4245 6.79257 21.2349C6.76646 21.0462 6.78129 20.851 6.83704 20.6494C6.8928 20.4477 6.97825 20.2738 7.09337 20.1277C7.20758 19.985 7.33643 19.8729 7.4799 19.7916C7.62338 19.7103 7.77442 19.6595 7.93302 19.6393C8.09253 19.6158 8.24502 19.6242 8.39047 19.6644C8.5756 19.7156 8.73618 19.8169 8.87222 19.9684C9.00826 20.1199 9.08772 20.3216 9.11059 20.5734C9.09533 20.5514 9.07539 20.5335 9.05077 20.5195C9.02854 20.5098 9.00421 20.5013 8.97776 20.494C8.9414 20.4839 8.9011 20.4817 8.85686 20.4873C8.81592 20.4937 8.77647 20.5077 8.73849 20.5293C8.70051 20.5508 8.66657 20.577 8.63668 20.6079C8.60919 20.643 8.5895 20.682 8.57761 20.725C8.5639 20.7746 8.56239 20.8186 8.57309 20.8572C8.58287 20.899 8.59824 20.9335 8.6192 20.9607C8.64347 20.9887 8.67122 21.0106 8.70245 21.0264C8.73607 21.0464 8.76775 21.0605 8.79751 21.0687C8.84379 21.0815 8.90438 21.0876 8.97929 21.0869C9.05419 21.0863 9.13669 21.0646 9.22679 21.0219C9.32019 20.9801 9.41879 20.9131 9.5226 20.8208C9.62971 20.7294 9.73741 20.5973 9.84572 20.4244C9.95641 20.2557 10.0653 20.0421 10.1724 19.7835C10.2828 19.5257 10.388 19.2097 10.488 18.8352C10.3381 19.0428 10.195 19.2061 10.059 19.3251C9.92708 19.4416 9.79729 19.5249 9.66957 19.575C9.54515 19.626 9.42143 19.6488 9.29842 19.6432C9.17871 19.6386 9.05439 19.6184 8.92547 19.5828C8.76348 19.538 8.601 19.4628 8.43803 19.3573C8.27928 19.2493 8.14563 19.102 8.03709 18.9155C7.93277 18.7265 7.86787 18.4915 7.84238 18.2104C7.8169 17.9294 7.85855 17.5921 7.96732 17.1987C7.98195 17.1459 7.992 17.1095 7.99749 17.0897C8.00719 17.0674 8.01341 17.0514 8.01616 17.0414C8.01981 17.0282 8.02558 17.0138 8.03346 16.9982C8.04133 16.9826 8.05167 16.9516 8.06447 16.9053C8.07818 16.8558 8.09737 16.7863 8.12205 16.6971C8.15004 16.6087 8.18643 16.4836 8.23122 16.3216C8.28332 16.1332 8.33897 15.919 8.39817 15.6792C8.45738 15.4393 8.50694 15.2022 8.54687 14.9677C8.59011 14.7341 8.61749 14.5192 8.62901 14.3231C8.64144 14.1237 8.62859 13.9707 8.59046 13.8641C8.84543 13.9844 9.08799 14.0853 9.31813 14.1667C9.55158 14.2491 9.76582 14.3172 9.96086 14.3711C10.0898 14.4068 10.2059 14.4371 10.3093 14.4622C10.417 14.4848 10.5097 14.5033 10.5876 14.5177C10.6753 14.5349 10.7553 14.5481 10.8275 14.5574C10.7855 14.6063 10.726 14.7055 10.6491 14.855C10.5755 15.0055 10.4931 15.1873 10.4022 15.4006C10.3112 15.6139 10.2192 15.85 10.1262 16.109C10.0342 16.3646 9.95112 16.6263 9.87708 16.8941C9.82132 17.0958 9.78867 17.2718 9.77912 17.4222C9.76956 17.5725 9.77678 17.7009 9.80077 17.8071C9.82899 17.911 9.87021 17.9936 9.92444 18.0548C9.98198 18.117 10.0504 18.1591 10.1298 18.181C10.2554 18.2157 10.3687 18.1919 10.4698 18.1096C10.5742 18.0281 10.6743 17.917 10.7701 17.7762C10.8202 17.5695 10.8749 17.3266 10.9342 17.0476C10.9936 16.7687 11.0495 16.4763 11.102 16.1706C11.1578 15.8658 11.2042 15.5565 11.2411 15.2429C11.2822 14.9269 11.3058 14.6292 11.3119 14.3497C11.4043 14.4144 11.5175 14.4813 11.6514 14.5504C11.7664 14.6106 11.9088 14.6749 12.0785 14.7432C12.2492 14.8082 12.4535 14.8736 12.6915 14.9394C12.9725 15.0171 13.2953 15.085 13.66 15.1431ZM17.9878 19.3557C17.9348 19.5474 17.8614 19.7549 17.7677 19.978C17.6749 20.1979 17.5613 20.4156 17.427 20.6311C17.2936 20.8433 17.1367 21.0437 16.9565 21.2323C16.7771 21.4176 16.5749 21.5698 16.3498 21.6891C16.1279 21.8092 15.8805 21.8867 15.6076 21.9215C15.3346 21.9564 15.0362 21.929 14.7122 21.8394C14.3882 21.7498 14.1172 21.6233 13.8991 21.4598C13.6842 21.2972 13.5112 21.1123 13.3798 20.9052C13.2527 20.6957 13.1618 20.4713 13.107 20.2319C13.0531 19.9893 13.0251 19.7431 13.0229 19.4934C13.0208 19.2437 13.039 18.9979 13.0774 18.7559C13.1201 18.5114 13.1707 18.2834 13.2292 18.0719C13.3325 17.6983 13.4831 17.3467 13.6809 17.0171C13.8798 16.6842 14.1188 16.4052 14.3982 16.1799C14.6808 15.9556 14.998 15.7996 15.3497 15.7117C15.7046 15.6249 16.0887 15.6385 16.502 15.7528C16.7796 15.8296 17.0173 15.9416 17.2151 16.0888C17.4137 16.2327 17.5789 16.4011 17.7105 16.5941C17.8422 16.7871 17.9406 16.9975 18.0057 17.2255C18.0741 17.4543 18.1178 17.6888 18.1368 17.929C18.1558 18.1691 18.151 18.4115 18.1225 18.6563C18.0939 18.901 18.0491 19.1342 17.9878 19.3557ZM16.2169 19.0421C16.238 18.9661 16.2607 18.871 16.2852 18.7568C16.3139 18.6401 16.3373 18.5167 16.3555 18.3865C16.3737 18.2564 16.3853 18.1243 16.3903 17.9905C16.3986 17.8576 16.3933 17.7351 16.3744 17.6231C16.3556 17.5112 16.3201 17.4142 16.2681 17.3322C16.2193 17.2511 16.1487 17.1977 16.0561 17.1721C15.9669 17.1475 15.8809 17.1557 15.7984 17.197C15.7158 17.2382 15.6365 17.2999 15.5604 17.382C15.4876 17.4651 15.4178 17.5632 15.3509 17.6764C15.2882 17.7872 15.2301 17.901 15.1764 18.0178C15.127 18.1322 15.0818 18.2443 15.0408 18.3539C15.004 18.4612 14.9751 18.5529 14.9541 18.6289C14.9239 18.738 14.8956 18.8725 14.8692 19.0324C14.8427 19.1924 14.833 19.3498 14.84 19.5048C14.8469 19.6597 14.8759 19.7994 14.9269 19.9238C14.9822 20.0458 15.0759 20.1251 15.2081 20.1617C15.3337 20.1964 15.4507 20.1789 15.5589 20.1092C15.6705 20.0404 15.7693 19.9468 15.8555 19.8283C15.9425 19.7064 16.0165 19.5739 16.0775 19.4306C16.1385 19.2873 16.1849 19.1578 16.2169 19.0421ZM23.6523 17.8847C23.5814 18.0253 23.5053 18.191 23.424 18.3821C23.346 18.574 23.2651 18.783 23.1813 19.0089C23.1017 19.2324 23.0222 19.4684 22.9428 19.7169C22.8643 19.9621 22.7908 20.2087 22.7223 20.4566C22.6994 20.5393 22.6782 20.6224 22.6587 20.7059C22.64 20.7862 22.6202 20.8643 22.5992 20.9403C22.5544 21.1023 22.4938 21.2831 22.4172 21.4825C22.344 21.6829 22.2496 21.8828 22.134 22.0821C22.0226 22.2791 21.8907 22.4668 21.7381 22.6452C21.5856 22.8237 21.408 22.9703 21.2055 23.0851C21.0062 23.2008 20.781 23.2755 20.5297 23.3092C20.2774 23.3462 19.9976 23.3222 19.6902 23.2372C19.4257 23.1641 19.2006 23.0645 19.0148 22.9384C18.8324 22.8132 18.6816 22.6701 18.5624 22.5091C18.4475 22.3456 18.3616 22.1671 18.3048 21.9734C18.2481 21.7798 18.2143 21.5801 18.2036 21.3743C18.1938 21.1652 18.2028 20.9524 18.2307 20.7359C18.2618 20.5203 18.3057 20.3101 18.3624 20.1051C18.3761 20.0555 18.3843 20.0258 18.3871 20.0159C18.394 20.0035 18.398 19.9957 18.3989 19.9924C18.3998 19.9891 18.4028 19.9846 18.408 19.9789C18.414 19.9699 18.423 19.9439 18.4349 19.901C18.4467 19.858 18.4655 19.7902 18.4911 19.6977C18.52 19.606 18.5577 19.4759 18.6044 19.3073C18.6592 19.1089 18.7176 18.8849 18.7795 18.6351C18.8424 18.3821 18.8952 18.1333 18.9378 17.8889C18.9847 17.6421 19.0153 17.4157 19.0296 17.2097C19.0438 17.0037 19.0319 16.8473 18.9938 16.7407C19.2487 16.861 19.4913 16.9619 19.7214 17.0434C19.9549 17.1257 20.1691 17.1938 20.3642 17.2478C20.4931 17.2834 20.6092 17.3138 20.7126 17.3388C20.8203 17.3614 20.913 17.3799 20.9909 17.3944C21.0786 17.4115 21.1586 17.4247 21.2308 17.434C21.0751 17.7397 20.9087 18.0905 20.7316 18.4863C20.5588 18.8798 20.3988 19.3426 20.2516 19.8749C20.2178 19.9972 20.1875 20.1258 20.1609 20.2608C20.1376 20.3967 20.1252 20.5249 20.1239 20.6456C20.1235 20.7629 20.138 20.8648 20.1675 20.9512C20.2012 21.0352 20.2577 21.0882 20.337 21.1102C20.4362 21.1376 20.523 21.126 20.5975 21.0754C20.672 21.0249 20.7371 20.9503 20.7928 20.8519C20.8527 20.751 20.9026 20.6349 20.9425 20.5036C20.9856 20.3732 21.0255 20.2419 21.0621 20.1096C21.1776 19.679 21.2754 19.2737 21.3556 18.8937C21.3895 18.7323 21.4207 18.5683 21.4489 18.4018C21.4805 18.2361 21.506 18.0795 21.5255 17.9318C21.5459 17.7809 21.5584 17.6456 21.563 17.5259C21.5685 17.4029 21.5639 17.3037 21.5492 17.2285C21.8041 17.3488 22.0434 17.4487 22.2669 17.5283C22.4904 17.6079 22.6915 17.6724 22.87 17.7218C22.989 17.7547 23.0952 17.7823 23.1887 17.8046C23.2864 17.8245 23.3692 17.8403 23.4372 17.8519C23.5183 17.8673 23.59 17.8782 23.6523 17.8847ZM26.3695 19.9492C26.267 19.9208 26.1663 19.925 26.0672 19.9616C25.969 19.995 25.8722 20.0554 25.7768 20.1429C25.6857 20.228 25.5952 20.3365 25.5054 20.4682C25.4189 20.6009 25.3365 20.7507 25.2584 20.9177C25.1807 21.1987 25.1087 21.4848 25.0424 21.776C24.9761 22.0673 24.9189 22.3575 24.871 22.6468C24.823 22.936 24.7852 23.2209 24.7574 23.5014C24.733 23.7829 24.7221 24.0539 24.7248 24.3144C24.6728 24.2965 24.613 24.2746 24.5454 24.2488C24.4868 24.2291 24.415 24.2056 24.33 24.1786C24.2483 24.1524 24.1528 24.1243 24.0438 24.0941C23.8388 24.0374 23.598 23.9815 23.3215 23.9264C23.0491 23.8689 22.7425 23.8197 22.4015 23.7788C22.4924 23.6046 22.5897 23.3878 22.6935 23.1282C22.7973 22.8687 22.9025 22.5846 23.0092 22.2761C23.1158 21.9675 23.2212 21.6443 23.3253 21.3066C23.4336 20.9664 23.5339 20.6294 23.6262 20.2955C23.6947 20.0476 23.7586 19.8037 23.8178 19.5639C23.877 19.324 23.9293 19.0965 23.9746 18.8813C24.0231 18.667 24.0622 18.4678 24.0917 18.2838C24.1212 18.0998 24.1406 17.9397 24.1498 17.8035C24.4048 17.9238 24.6386 18.024 24.8513 18.1042C25.0682 18.182 25.2643 18.2451 25.4395 18.2935C25.5519 18.3246 25.6515 18.3504 25.7384 18.3708C25.8262 18.388 25.9024 18.4019 25.967 18.4127C26.0392 18.422 26.1047 18.4294 26.1637 18.435C26.0783 18.5894 25.9978 18.7646 25.9222 18.9608C26.1517 18.8 26.381 18.698 26.6101 18.6545C26.8424 18.612 27.0479 18.6155 27.2264 18.6648C27.5239 18.7471 27.7601 18.8711 27.9349 19.0369C28.1106 19.1993 28.237 19.3855 28.3142 19.5955C28.3923 19.8021 28.4288 20.0239 28.4238 20.261C28.4187 20.498 28.3847 20.7306 28.3216 20.9587C28.2603 21.1802 28.1691 21.388 28.0478 21.5822C27.9264 21.7764 27.783 21.9413 27.6173 22.077C27.4526 22.2094 27.2685 22.3026 27.065 22.3567C26.8614 22.4107 26.6489 22.4071 26.4274 22.3458C26.2324 22.2919 26.0746 22.2127 25.954 22.1082C25.8368 22.0046 25.7481 21.8876 25.6881 21.7571C25.6281 21.6266 25.594 21.4926 25.5858 21.3551C25.5817 21.2153 25.5971 21.0825 25.6318 20.9569C25.6684 20.8246 25.7222 20.7007 25.7933 20.5852C25.8677 20.4705 25.9555 20.372 26.0565 20.2897C26.0596 20.3688 26.0721 20.4327 26.0942 20.4816C26.1205 20.528 26.1496 20.5645 26.1814 20.5911C26.2155 20.6219 26.2553 20.6453 26.3007 20.6614C26.423 20.6952 26.5217 20.6923 26.5967 20.6525C26.6751 20.6137 26.7248 20.5563 26.7458 20.4802C26.7558 20.4439 26.7606 20.4007 26.7602 20.3508C26.7598 20.3008 26.7469 20.251 26.7215 20.2013C26.6994 20.1525 26.6606 20.1062 26.6051 20.0624C26.5505 20.0152 26.472 19.9775 26.3695 19.9492ZM32.7888 21.7135C32.7522 21.8457 32.6929 21.9574 32.6107 22.0486C32.5286 22.1397 32.4324 22.211 32.3221 22.2623C32.2127 22.3104 32.0926 22.3394 31.9617 22.3495C31.8317 22.3563 31.7006 22.3414 31.5684 22.3048C31.4163 22.2628 31.2908 22.2085 31.1917 22.1419C31.096 22.0763 31.0179 22.0049 30.9574 21.9277C30.9011 21.8481 30.8611 21.7676 30.8373 21.6863C30.8145 21.6017 30.7989 21.5227 30.7908 21.4493C30.7859 21.3767 30.788 21.3115 30.7969 21.2534C30.8058 21.1954 30.8144 21.1515 30.8226 21.1218C30.8368 21.1862 30.8652 21.2314 30.9079 21.2574C30.9505 21.2835 30.985 21.3001 31.0115 21.3074C31.0875 21.3285 31.1475 21.3237 31.1916 21.2932C31.2356 21.2627 31.2636 21.2259 31.2754 21.1829C31.2827 21.1565 31.2844 21.1249 31.2803 21.0882C31.2762 21.0515 31.2613 21.0153 31.2355 20.9797C31.2107 20.9409 31.1746 20.9042 31.1272 20.8697C31.0798 20.8353 31.0164 20.8071 30.9371 20.7851C30.8875 20.7714 30.8318 20.7667 30.7702 20.771C30.7085 20.7753 30.6485 20.7925 30.5904 20.8227C30.5364 20.8505 30.4859 20.8917 30.4388 20.9463C30.3926 20.9975 30.3585 21.0628 30.3366 21.1422C30.2954 21.2909 30.2987 21.4271 30.3464 21.5506C30.3941 21.6741 30.4681 21.7924 30.5685 21.9056C30.6731 22.0163 30.794 22.1263 30.9311 22.2353C31.0715 22.3453 31.2142 22.4595 31.3594 22.578C31.5055 22.6931 31.6439 22.8168 31.7746 22.949C31.9095 23.0788 32.0208 23.2234 32.1083 23.3829C32.1992 23.5432 32.2585 23.7215 32.286 23.9178C32.3136 24.114 32.2941 24.3328 32.2273 24.5741C32.1423 24.8815 32.0027 25.1419 31.8085 25.3551C31.6144 25.5683 31.3868 25.7349 31.1259 25.8549C30.8692 25.9725 30.5892 26.0392 30.2859 26.055C29.9817 26.074 29.6759 26.0411 29.3685 25.9561C29.0875 25.8784 28.8319 25.7668 28.6016 25.6213C28.3714 25.4758 28.1808 25.3092 28.0299 25.1216C27.8789 24.9339 27.7729 24.732 27.7117 24.5158C27.6537 24.3005 27.6545 24.0854 27.7139 23.8706C27.7587 23.7086 27.824 23.5754 27.9098 23.471C27.9965 23.3633 28.0971 23.2826 28.2116 23.2289C28.3294 23.176 28.4566 23.1471 28.5932 23.1422C28.7331 23.1382 28.8774 23.1567 29.0262 23.1979C29.1353 23.228 29.2412 23.2698 29.3439 23.3231C29.4466 23.3764 29.5394 23.4394 29.6225 23.5122C29.7056 23.585 29.776 23.665 29.8338 23.7521C29.8915 23.8393 29.9316 23.9322 29.9542 24.0309C29.9295 24.017 29.9045 24.0048 29.8789 23.9941C29.8567 23.9844 29.8324 23.9759 29.8059 23.9686C29.7332 23.9485 29.6699 23.9523 29.6159 23.9801C29.5662 24.0055 29.5294 24.0612 29.5057 24.1471C29.4801 24.2397 29.4966 24.3279 29.5553 24.4117C29.6139 24.4956 29.6896 24.5503 29.7821 24.5759C29.835 24.5905 29.8878 24.5926 29.9405 24.5823C29.9932 24.572 30.0411 24.5532 30.0842 24.5259C30.1282 24.4954 30.1649 24.4593 30.1942 24.4176C30.2268 24.3768 30.25 24.3316 30.2637 24.282C30.2875 24.1961 30.2833 24.0953 30.2512 23.9796C30.2225 23.8649 30.1643 23.7599 30.0768 23.6645C29.9042 23.478 29.7381 23.3129 29.5786 23.1691C29.4191 23.0254 29.273 22.8907 29.1405 22.7651C29.008 22.6395 28.8904 22.518 28.7876 22.4006C28.6881 22.2842 28.6105 22.1595 28.5547 22.0266C28.4999 21.8905 28.4698 21.7416 28.4647 21.5801C28.4605 21.4152 28.4881 21.2253 28.5475 21.0104C28.6179 20.7559 28.7323 20.5349 28.8909 20.3474C29.0537 20.1576 29.2513 20.0094 29.4836 19.9028C29.7159 19.7962 29.9816 19.7363 30.2806 19.7229C30.5806 19.7062 30.9042 19.7458 31.2513 19.8418C31.605 19.9396 31.8911 20.0632 32.1096 20.2126C32.3313 20.3629 32.4988 20.523 32.6119 20.6931C32.7283 20.8641 32.7976 21.038 32.8199 21.215C32.8421 21.3919 32.8317 21.5581 32.7888 21.7135ZM36.8403 19.8019C36.6269 20.0845 36.422 20.3944 36.2256 20.7315C36.0334 21.0663 35.8529 21.4167 35.6841 21.7828C35.5152 22.1489 35.3594 22.5257 35.2167 22.9133C35.0772 23.3017 34.954 23.6894 34.8471 24.0761C34.8124 24.2018 34.7797 24.3262 34.7492 24.4494C34.722 24.5735 34.6948 24.6977 34.6676 24.8218C34.5124 24.7398 34.3572 24.6702 34.2022 24.6131C34.0514 24.5536 33.8967 24.5019 33.738 24.458C33.6421 24.4315 33.5437 24.4079 33.4427 24.3871C33.3459 24.3638 33.2473 24.3473 33.1469 24.3373C33.1873 24.2168 33.227 24.0925 33.2659 23.9645C33.3058 23.8332 33.3431 23.7047 33.3778 23.5791C33.4939 23.1593 33.5923 22.7328 33.6729 22.2996C33.7578 21.864 33.8226 21.4495 33.8673 21.0562C33.9162 20.6605 33.9439 20.2963 33.9505 19.9637C33.958 19.6277 33.9446 19.3482 33.9102 19.1251C34.0213 19.1737 34.1598 19.2262 34.3256 19.2827C34.4957 19.3369 34.6783 19.3909 34.8733 19.4448C35.0452 19.4924 35.2213 19.5375 35.4017 19.5802C35.5853 19.6239 35.7633 19.6624 35.9355 19.6958C36.1111 19.7301 36.2764 19.7563 36.4316 19.7743C36.5868 19.7923 36.723 19.8015 36.8403 19.8019ZM32.4362 25.614C32.4755 25.4719 32.539 25.3453 32.6266 25.2343C32.7184 25.1209 32.8239 25.0291 32.943 24.9588C33.0653 24.8894 33.1967 24.8457 33.3369 24.8275C33.4814 24.807 33.6263 24.8168 33.7718 24.857C33.9139 24.8963 34.04 24.9615 34.1501 25.0524C34.2644 25.1409 34.3563 25.2464 34.4256 25.3688C34.495 25.4911 34.5383 25.6241 34.5555 25.7677C34.577 25.9088 34.5681 26.0505 34.5288 26.1926C34.4885 26.3381 34.4225 26.4675 34.3307 26.5809C34.243 26.6919 34.138 26.7821 34.0157 26.8514C33.8942 26.9175 33.7617 26.9591 33.6181 26.9764C33.477 26.9978 33.3353 26.9889 33.1932 26.9496C33.0477 26.9094 32.9183 26.8433 32.8049 26.7515C32.6939 26.6639 32.6033 26.5605 32.533 26.4414C32.467 26.32 32.4232 26.1887 32.4017 26.0475C32.3845 25.904 32.396 25.7595 32.4362 25.614Z" fill="#E2BE47"/>
</svg>
