<svg width="45" height="45" viewBox="0 0 45 45" fill="none" xmlns="http://www.w3.org/2000/svg">
<rect x="0.0078125" width="45" height="45" rx="22.5" fill="#6F4BF0"/>
<path d="M37.3345 23.3864C37.2014 23.048 37.0732 22.7069 36.9221 22.3764C36.3404 21.104 35.7263 19.8486 34.9294 18.6921C34.7622 18.4495 34.6041 18.2006 34.4458 17.9521C33.5847 16.601 32.5735 15.3722 31.4358 14.2458C31.3613 14.1721 31.276 14.1343 31.1718 14.1391C30.9114 14.1512 30.6796 14.2485 30.5146 14.4427C30.3284 14.6617 30.1612 14.9003 30.0107 15.1456C29.4586 16.0455 29.0419 17.0101 28.6835 18.0005C28.3379 18.9557 28.1558 19.95 27.9922 20.9483C27.9857 20.9882 27.9714 21.0268 27.9544 21.0891C27.8083 20.8652 27.6826 20.6655 27.5497 20.4706C27.3935 20.2417 27.246 20.0044 27.0676 19.7938C26.8558 19.5435 26.6246 19.3074 26.384 19.0845C26.1815 18.897 25.9639 18.7212 25.7342 18.5686C25.3708 18.3272 24.9615 18.1779 24.5452 18.0542C23.4659 17.7335 22.3632 17.6096 21.2389 17.673C20.4894 17.7152 19.7645 17.8618 19.0603 18.129C17.5091 18.7178 16.3292 19.7226 15.5619 21.2009C15.5439 21.2356 15.5192 21.2667 15.496 21.3018C15.4827 21.286 15.4727 21.2784 15.4684 21.2684C15.4139 21.141 15.3588 21.0138 15.3064 20.8856C14.8969 19.8837 14.4285 18.9117 13.8425 17.9993C13.3661 17.2578 12.7864 16.5969 12.224 15.9224C12.2019 15.896 12.1764 15.8717 12.15 15.8495C12.0031 15.726 11.8567 15.7146 11.6851 15.8034C11.503 15.8975 11.3407 16.0171 11.2093 16.1736C10.9939 16.4301 10.7723 16.6826 10.5742 16.9521C9.77177 18.044 9.16252 19.2409 8.66943 20.4997C8.11309 21.9198 7.78052 23.391 7.68055 24.9123C7.60448 26.069 7.64815 27.2228 7.81866 28.3704C7.83135 28.4556 7.84924 28.5421 7.88015 28.622C7.92632 28.7416 8.03432 28.8016 8.14225 28.7638C8.33564 28.696 8.51701 28.6072 8.5966 28.3956C8.65762 28.2335 8.73193 28.0753 8.77993 27.9095C8.97075 27.2495 9.15374 26.5872 9.33923 25.9255C9.35847 25.8569 9.37507 25.7876 9.39289 25.7185C9.4288 25.7436 9.43636 25.7635 9.43974 25.784C9.53586 26.3611 9.69158 26.923 9.88402 27.4744C9.92122 27.581 9.97481 27.6906 10.0492 27.7733C10.176 27.9142 10.3942 27.8651 10.4578 27.6888C10.5182 27.521 10.5755 27.3507 10.6146 27.1771C10.7468 26.5907 10.8527 25.9995 10.9015 25.3994C10.9029 25.3814 10.9127 25.3641 10.9185 25.3465C11.0493 25.6012 11.1518 25.8565 11.2454 26.1151C11.2879 26.2326 11.3752 26.3211 11.4893 26.3319C11.6028 26.3427 11.7115 26.2778 11.756 26.1518C11.8308 25.94 11.8951 25.7244 11.9636 25.5103C11.9746 25.476 11.9846 25.4414 12.0066 25.3689C12.0606 25.5151 12.0987 25.6225 12.1401 25.7287C12.182 25.8363 12.229 25.9419 12.2704 26.0497C12.3132 26.1618 12.3871 26.2339 12.5092 26.2482C12.6396 26.2636 12.7391 26.2077 12.7946 26.0947C12.8526 25.9769 12.8935 25.8506 12.9414 25.7277C12.9542 25.6951 12.9652 25.6617 12.9881 25.5972C13.0184 25.6922 13.0347 25.7533 13.0571 25.8121C13.1205 25.9791 13.1732 26.1521 13.2546 26.3101C13.372 26.5384 13.6018 26.5411 13.7231 26.3177C13.7996 26.1766 13.864 26.0254 13.9093 25.8715C14.071 25.3207 14.1566 24.7555 14.1948 24.1833C14.2093 23.9664 14.2161 23.749 14.2281 23.496C14.3807 23.7125 14.5043 23.9013 14.6425 24.0785C14.7222 24.1808 14.7539 24.2824 14.7463 24.4116C14.7081 25.055 14.7513 25.6932 14.8858 26.3246C15.0603 27.1446 15.3649 27.9053 15.9099 28.5537C16.3949 29.1307 16.9633 29.6088 17.64 29.9468C19.2319 30.7416 20.916 31.0098 22.6755 30.7841C23.7737 30.6433 24.821 30.3244 25.7894 29.7766C26.7215 29.2493 27.4613 28.5285 27.9588 27.5723C28.3575 26.8061 28.601 25.9901 28.7239 25.1375C28.748 24.9702 28.7871 24.8158 28.8758 24.6668C29.0164 24.4304 29.1342 24.1804 29.2699 23.9203C29.2843 24.0071 29.2936 24.0846 29.3105 24.1603C29.3792 24.47 29.448 24.7796 29.5223 25.0879C29.5382 25.1539 29.5708 25.2183 29.6066 25.2766C29.6858 25.4054 29.8243 25.4277 29.9552 25.4322C30.0804 25.4363 30.1459 25.3366 30.1871 25.229C30.2202 25.1429 30.2569 25.0562 30.2742 24.9663C30.3504 24.5695 30.4227 24.1719 30.4908 23.7738C30.5156 23.629 30.5246 23.4817 30.5408 23.3355C30.5844 23.3706 30.6061 23.4082 30.62 23.4485C30.8105 23.9999 31.0937 24.5004 31.4478 24.9625C31.5151 25.0502 31.5949 25.1218 31.7082 25.1044C31.9704 25.0642 32.0607 25.0201 32.098 24.7699C32.1074 24.7071 32.1235 24.6439 32.1226 24.5811C32.1176 24.2638 32.1156 23.9462 32.0976 23.6294C32.0854 23.4144 32.0487 23.2007 32.022 22.9789C32.0463 22.9896 32.0602 22.9913 32.0661 22.9991C32.094 23.0358 32.1203 23.0738 32.1463 23.112C32.4798 23.5995 32.844 24.0618 33.2643 24.4783C33.3561 24.5694 33.4615 24.622 33.5926 24.5773C33.7061 24.5387 33.759 24.4493 33.7457 24.2802C33.7244 24.0101 33.6906 23.7408 33.6591 23.4715C33.6489 23.3844 33.6292 23.2984 33.6139 23.2119C33.6691 23.2358 33.7005 23.2683 33.7293 23.3028C33.8813 23.4846 34.0286 23.6705 34.1859 23.8475C34.2618 23.9329 34.3476 24.0159 34.4443 24.0749C34.6044 24.1724 34.7908 24.0884 34.8426 23.9086C34.91 23.6739 34.9433 23.4363 34.9102 23.1911C34.8895 23.0383 34.8803 22.8839 34.8657 22.7285C34.8853 22.731 34.8998 22.7285 34.9067 22.7345C34.9455 22.7689 34.9822 22.8056 35.0201 22.841C35.5502 23.3366 36.1365 23.7344 36.8531 23.9127C37.015 23.953 37.1495 23.9326 37.2624 23.8067C37.3745 23.6819 37.3938 23.537 37.3345 23.3864ZM20.8942 18.2915C20.7793 18.327 20.6629 18.358 20.5501 18.3991C20.323 18.4818 20.0904 18.5549 19.8741 18.6606C19.685 18.753 19.51 18.7046 19.3259 18.6722C19.8235 18.4484 20.3458 18.3279 20.8942 18.2915ZM18.5429 19.0247C18.7134 19.0342 18.8831 19.0569 19.0532 19.0739C19.0555 19.0874 19.0578 19.1007 19.0601 19.1142C18.9862 19.1671 18.9123 19.22 18.8266 19.2814C18.6858 19.0521 18.4673 19.2128 18.2705 19.1608C18.3549 19.0822 18.4358 19.0188 18.5429 19.0247ZM17.5829 19.617C17.6034 19.6004 17.6359 19.5913 17.6629 19.5911C17.9082 19.5892 18.1536 19.59 18.4341 19.59C18.3166 19.6997 18.2211 19.7942 18.1188 19.8806C18.0919 19.9034 18.044 19.9088 18.0056 19.9092C17.7759 19.9118 17.5461 19.9105 17.3163 19.9105C17.3102 19.893 17.3042 19.8755 17.2981 19.8579C17.3927 19.7773 17.4861 19.6951 17.5829 19.617ZM17.0302 20.3122C17.2464 20.3158 17.4627 20.3131 17.7194 20.3131C17.6448 20.4101 17.596 20.4854 17.5343 20.5483C17.5071 20.576 17.4534 20.5921 17.4128 20.5901C17.1794 20.5785 16.9462 20.5599 16.6972 20.5425C16.7661 20.3706 16.8755 20.3097 17.0302 20.3122ZM16.5112 20.9714C16.739 20.9629 16.9674 20.9689 17.2371 20.9689C17.1849 21.0625 17.1638 21.1175 17.1277 21.1594C17.101 21.1903 17.0537 21.2237 17.0171 21.2221C16.7727 21.2115 16.5287 21.1916 16.2834 21.1747C16.2966 21.0173 16.3989 20.9756 16.5112 20.9714ZM16.0376 21.5826C16.3238 21.6032 16.5858 21.6221 16.8688 21.6424C16.8048 21.7964 16.7461 21.9374 16.6805 22.0954C16.4078 22.0802 16.14 22.0653 15.8435 22.0488C15.912 21.8843 15.9725 21.739 16.0376 21.5826ZM16.0939 22.7946C16.0614 22.7139 16.0261 22.626 15.9804 22.5127C16.1713 22.5127 16.3388 22.5127 16.5268 22.5127C16.5025 22.6007 16.4765 22.6948 16.4489 22.7946C16.3266 22.7946 16.2192 22.7946 16.0939 22.7946ZM14.489 22.6431C14.4066 22.4907 14.3252 22.3368 14.2291 22.1931C14.1626 22.0937 14.0763 22.006 13.9903 21.9218C13.9227 21.8554 13.8337 21.8478 13.7481 21.8881C13.655 21.932 13.6123 22.0125 13.6177 22.1137C13.6235 22.2232 13.6385 22.3322 13.6457 22.4416C13.6838 23.0246 13.7007 23.6081 13.6348 24.19C13.6069 24.4363 13.5585 24.6805 13.5178 24.9254C13.5132 24.9526 13.498 24.978 13.4797 25.0247C13.4583 24.9626 13.4407 24.9215 13.4299 24.8787C13.2609 24.2105 13.151 23.5331 13.1116 22.8446C13.1034 22.7004 13.0934 22.5559 13.0733 22.4131C13.0531 22.2692 12.9897 22.2139 12.8623 22.2051C12.7039 22.1943 12.6353 22.2462 12.6232 22.4053C12.6001 22.7106 12.5906 23.017 12.5634 23.3219C12.5276 23.7244 12.4805 24.126 12.4375 24.5278C12.4344 24.5561 12.4256 24.5838 12.4194 24.6117C12.4105 24.6141 12.4015 24.6164 12.3926 24.6188C12.3759 24.5773 12.3574 24.5363 12.3428 24.494C12.114 23.8309 11.9567 23.1537 11.8983 22.4516C11.8741 22.1606 11.7912 21.8741 11.7304 21.5866C11.7187 21.5315 11.6898 21.4782 11.6606 21.4291C11.6172 21.3561 11.5479 21.3296 11.4668 21.3546C11.3932 21.3772 11.3511 21.4328 11.3513 21.51C11.3517 21.7639 11.3351 22.02 11.3615 22.2714C11.4423 23.0435 11.4454 23.8171 11.4393 24.5915C11.4385 24.6837 11.4265 24.7758 11.4183 24.8678C11.417 24.8822 11.4084 24.896 11.3941 24.9341C11.3634 24.8635 11.3383 24.8138 11.3196 24.7618C11.0599 24.0409 10.8824 23.3019 10.83 22.5353C10.8258 22.4726 10.8148 22.409 10.7969 22.3488C10.775 22.2754 10.717 22.2342 10.6415 22.231C10.5659 22.2279 10.4992 22.2631 10.4788 22.3363C10.4466 22.452 10.4136 22.5714 10.4094 22.6902C10.3922 23.181 10.38 23.672 10.3766 24.1631C10.3723 24.8011 10.2988 25.4308 10.1741 26.0555C10.1689 26.0819 10.1617 26.1079 10.1467 26.1696C10.1221 26.1009 10.1054 26.0663 10.0973 26.0298C9.96806 25.4527 9.8984 24.8679 9.89806 24.2768C9.89773 23.7106 9.90488 23.1441 9.92473 22.5783C9.93465 22.2962 9.98257 22.0156 10.0089 21.7339C10.0191 21.6249 10.0237 21.5145 10.0191 21.4052C10.0126 21.2496 9.94788 21.1824 9.81612 21.176C9.66107 21.1684 9.56698 21.2325 9.54369 21.3808C9.51676 21.5519 9.49981 21.7247 9.48469 21.8973C9.39424 22.9295 9.21382 23.9476 8.97352 24.9535C8.7858 25.7394 8.5561 26.5151 8.34455 27.2952C8.33632 27.3255 8.32214 27.3543 8.28616 27.3823C8.2809 27.3565 8.27192 27.3308 8.27098 27.3048C8.23574 26.3398 8.22413 25.3749 8.33983 24.4137C8.49872 23.0936 8.83244 21.8174 9.31561 20.5792C9.79526 19.3499 10.4176 18.2007 11.2358 17.1624C11.3927 16.9632 11.5704 16.7803 11.74 16.5912C11.7663 16.5619 11.801 16.5398 11.8284 16.5172C11.846 16.5225 11.8607 16.5222 11.8661 16.5291C12.2267 16.9949 12.5995 17.452 12.9436 17.9297C13.5353 18.751 13.9484 19.6679 14.3186 20.6046C14.6221 21.3726 14.9194 22.143 15.2187 22.9127C15.2479 22.988 15.27 23.066 15.2981 23.1418C15.3436 23.2643 15.4247 23.3503 15.5189 23.4006V24.1133C15.4333 23.9987 15.3456 23.8856 15.254 23.7758C14.9603 23.4241 14.7069 23.0459 14.489 22.6431ZM15.4067 25.5793C15.6776 25.536 15.9325 25.5869 16.2053 25.5747C16.2248 25.7 16.2406 25.8013 16.26 25.9259C16.1214 25.9259 15.9928 25.9259 15.8641 25.9259C15.7381 25.9259 15.612 25.9259 15.4683 25.9259C15.4472 25.8067 15.4287 25.7028 15.4067 25.5793ZM15.5645 26.3822C15.8414 26.3822 16.0935 26.3822 16.3577 26.3822C16.3953 26.5031 16.4286 26.61 16.4674 26.7344C16.3251 26.765 16.1993 26.7463 16.0757 26.7503C15.949 26.7544 15.8221 26.7512 15.6728 26.7512C15.6365 26.6278 15.6006 26.5055 15.5645 26.3822ZM15.9358 27.3862C15.8992 27.3299 15.8765 27.2645 15.8339 27.1724C16.1159 27.1666 16.3708 27.1809 16.6381 27.1801C16.6807 27.2751 16.7153 27.3521 16.7577 27.4466C16.4999 27.4466 16.2653 27.4489 16.0308 27.444C15.998 27.4433 15.9545 27.4148 15.9358 27.3862ZM16.4023 28.1116C16.3553 28.0416 16.3012 27.9766 16.2245 27.8755C16.4911 27.8755 16.7092 27.8728 16.9273 27.8778C16.9676 27.8788 17.0183 27.9006 17.0448 27.9301C17.105 27.9972 17.153 28.075 17.2213 28.1696C17.1531 28.1763 17.1108 28.1823 17.0685 28.1844C16.9191 28.1918 16.7688 28.1898 16.6207 28.2073C16.5216 28.219 16.4562 28.1917 16.4023 28.1116ZM17.1759 28.8197C17.0923 28.8123 17.0155 28.7264 16.9357 28.676C16.9414 28.6597 16.947 28.6434 16.9527 28.6271C17.1508 28.6223 17.3491 28.6109 17.547 28.6157C17.6473 28.6181 17.689 28.7112 17.766 28.804C17.5481 28.8125 17.3603 28.8359 17.1759 28.8197ZM18.5661 29.459C18.378 29.5553 18.2038 29.5156 18.0329 29.4099C17.951 29.3592 17.8627 29.3189 17.7773 29.274C17.7829 29.2614 17.7886 29.2488 17.7943 29.2362C17.9489 29.2362 18.1048 29.2236 18.2575 29.24C18.3923 29.2545 18.483 29.3625 18.5968 29.4377C18.575 29.453 18.5709 29.4566 18.5661 29.459ZM19.2071 29.8557C19.308 29.7935 19.3667 29.8595 19.4267 29.9224C19.3535 29.9002 19.2803 29.8779 19.2071 29.8557ZM28.1137 24.8793C28.0206 25.7698 27.7453 26.609 27.3278 27.3945C26.9752 28.0583 26.4552 28.591 25.8268 28.9995C25.2241 29.3914 24.5743 29.6939 23.8692 29.8617C23.6447 29.9152 23.4206 29.971 23.1946 30.0175C22.3698 30.1873 21.5585 30.1134 20.7719 29.8325C20.1298 29.6032 19.5113 29.3169 18.9341 28.9463C17.8099 28.2247 17.1166 27.2078 16.842 25.9059C16.4568 24.0797 16.989 21.7258 18.4974 20.2024C19.3408 19.3506 20.3463 18.8144 21.5299 18.6099C22.1011 18.5113 22.6738 18.4478 23.2545 18.4682C23.5026 18.4825 23.751 18.4913 23.9985 18.5123C24.3888 18.5454 24.7474 18.6815 25.1049 18.8378C25.4331 18.9813 25.7219 19.1731 25.9889 19.4049C26.1156 19.5149 26.2374 19.6272 26.2903 19.7973C26.312 19.8671 26.3593 19.9306 26.4024 19.9917C26.6054 20.2797 26.8153 20.5628 27.0147 20.8532C27.5123 21.5774 27.9303 22.3388 28.0775 23.2204C28.1693 23.7713 28.1717 24.3254 28.1137 24.8793ZM36.3438 23.0201C35.4997 22.6034 34.9047 21.9245 34.421 21.1446C34.0805 20.5954 33.7837 20.0189 33.4705 19.4528C33.2664 19.0839 33.0745 18.7079 32.8643 18.3426C32.7379 18.1228 32.5918 17.9137 32.4439 17.7074C32.3959 17.6404 32.3203 17.5856 32.246 17.5472C32.1642 17.5048 32.0734 17.5372 32.0294 17.6021C31.9814 17.673 31.9898 17.7434 32.0381 17.8114C32.4378 18.3756 32.7158 19.0062 33.0173 19.6232C33.3825 20.3707 33.7437 21.1199 34.1831 21.8281C34.2099 21.8713 34.2297 21.9218 34.2401 21.9716C34.3078 22.2948 34.3449 22.6215 34.34 22.9523C34.3397 22.9731 34.3332 22.9939 34.3248 23.0418C34.2714 22.985 34.2323 22.9463 34.1964 22.9048C33.8396 22.4923 33.5395 22.0402 33.2712 21.5667C32.9409 20.9837 32.6165 20.3973 32.2874 19.8135C32.2308 19.7132 32.1696 19.6143 32.0998 19.5229C32.0318 19.434 31.9358 19.4141 31.8545 19.4543C31.7715 19.4954 31.7425 19.5746 31.7741 19.6934C31.7903 19.7545 31.812 19.8151 31.8387 19.8724C32.0198 20.2594 32.1894 20.6526 32.3886 21.0302C32.6554 21.5359 32.8321 22.0699 32.955 22.6249C33.0049 22.8505 33.0556 23.0759 33.1046 23.3017C33.114 23.3452 33.1173 23.3902 33.1291 23.4752C33.0693 23.4091 33.0338 23.3741 33.0031 23.3353C32.466 22.6565 32.0065 21.9328 31.7071 21.1145C31.6199 20.876 31.5181 20.6427 31.4173 20.4095C31.3832 20.3307 31.3394 20.2533 31.286 20.1865C31.2125 20.0947 31.0842 20.0916 31.0145 20.1801C30.9318 20.285 30.8622 20.3989 30.9086 20.5453C30.9417 20.6499 30.9676 20.7566 30.9996 20.8616C31.2189 21.5807 31.4088 22.307 31.5099 23.0531C31.5502 23.3503 31.5677 23.6507 31.5931 23.9499C31.5988 24.0176 31.5939 24.0862 31.5939 24.1544C31.5808 24.159 31.5678 24.1637 31.5547 24.1684C31.5216 24.1095 31.486 24.0519 31.4557 23.9916C31.0327 23.1511 30.7209 22.2723 30.5506 21.3452C30.5454 21.3168 30.541 21.2882 30.5347 21.2601C30.499 21.0993 30.4206 21.0505 30.2247 21.0664C30.1015 21.0764 30.0353 21.1412 30.0356 21.2883C30.0359 21.49 30.0424 21.6931 30.066 21.8933C30.1534 22.6357 30.1026 23.3698 29.9538 24.0996C29.9391 24.1717 29.9243 24.2439 29.8769 24.3185C29.8522 24.1892 29.8246 24.0604 29.8034 23.9305C29.7056 23.3305 29.6452 22.7277 29.6783 22.1185C29.6804 22.0782 29.6816 22.0374 29.6782 21.9972C29.6687 21.8841 29.6174 21.825 29.5143 21.8037C29.4104 21.7822 29.3222 21.8107 29.2783 21.9031C29.2341 21.9961 29.2051 22.0972 29.178 22.1971C29.0705 22.5927 28.9668 22.9893 28.8605 23.3853C28.8448 23.4437 28.8222 23.5004 28.7695 23.5523C28.7574 23.4585 28.7438 23.3648 28.7336 23.2708C28.6978 22.9417 28.6224 22.6207 28.5053 22.3124C28.4386 22.1369 28.4278 21.9658 28.4597 21.7868C28.547 21.298 28.6286 20.8081 28.7239 20.3209C29.004 18.8884 29.5082 17.533 30.1493 16.226C30.3739 15.7683 30.6379 15.3344 30.9493 14.9304C30.9897 14.8779 31.0437 14.8359 31.0976 14.7829C31.1448 14.8264 31.1793 14.8555 31.2109 14.8877C32.2373 15.936 33.133 17.0885 33.9406 18.3115C34.2303 18.7502 34.525 19.1856 34.8118 19.6263C35.4927 20.6723 36.0223 21.793 36.4508 22.9631C36.4621 22.9939 36.4694 23.0261 36.486 23.0828C36.4225 23.055 36.3824 23.0392 36.3438 23.0201Z" fill="black"/>
<path d="M23.2519 18.4686C23.4999 18.4829 23.7484 18.4917 23.9958 18.5127C24.3862 18.5459 24.7448 18.6819 25.1023 18.8383C25.4305 18.9818 25.7193 19.1735 25.9863 19.4053C26.113 19.5154 26.2348 19.6276 26.2877 19.7978C26.3094 19.8676 26.3567 19.9311 26.3998 19.9922C26.6028 20.2801 26.8127 20.5632 27.0121 20.8536C27.5096 21.5779 27.9277 22.3392 28.0749 23.2208C28.1668 23.7717 28.1692 24.3257 28.1113 24.8796C28.0182 25.7702 27.7428 26.6094 27.3254 27.395C26.9727 28.0588 26.4528 28.5914 25.8244 29C25.2216 29.3919 24.5719 29.6944 23.8668 29.8622C23.6423 29.9156 23.4182 29.9714 23.1922 30.0179C22.3674 30.1877 21.5561 30.1139 20.7694 29.8329C20.1273 29.6036 19.5089 29.3174 18.9316 28.9468C17.8074 28.2251 17.1141 27.2082 16.8395 25.9063C16.4543 24.0801 16.9865 21.7262 18.4949 20.2028C19.3383 19.351 20.3438 18.8148 21.5274 18.6104C22.0986 18.5118 22.6712 18.4483 23.2519 18.4686ZM23.3492 27.4299C23.3701 27.576 23.3848 27.7134 23.4109 27.8487C23.4282 27.9383 23.4486 28.0319 23.4915 28.1108C23.5669 28.2496 23.6947 28.3133 23.8544 28.2937C24.0087 28.2748 24.1118 28.1826 24.1466 28.036C24.1686 27.9437 24.1638 27.8421 24.1548 27.7462C24.1371 27.5578 24.1082 27.3707 24.0839 27.1835C24.1607 27.1406 24.2214 27.1081 24.2807 27.0734C24.8574 26.7366 25.2466 26.2502 25.4047 25.6004C25.5716 24.9145 25.2856 24.2935 24.6831 23.9984C24.5447 23.9305 24.392 23.8871 24.2416 23.8493C24.0858 23.8102 23.9248 23.7915 23.762 23.7633C23.642 22.9872 23.5226 22.2143 23.4015 21.4309C23.4296 21.4334 23.4571 21.4337 23.4837 21.4388C23.7233 21.4841 23.9543 21.5559 24.172 21.667C24.3057 21.7352 24.4358 21.8107 24.5711 21.8755C24.6897 21.9324 24.7797 21.9164 24.8387 21.8417C24.8922 21.774 24.8983 21.6779 24.8241 21.5855C24.7346 21.4741 24.6362 21.3648 24.5233 21.2785C24.195 21.0278 23.8156 20.8942 23.4101 20.8292C23.3433 20.8184 23.2771 20.8034 23.2157 20.7913C23.1948 20.7262 23.1805 20.6762 23.1628 20.6276C23.1195 20.5082 23.078 20.388 23.029 20.271C22.9948 20.1892 22.9264 20.1467 22.8361 20.1516C22.7512 20.1562 22.678 20.2212 22.6621 20.3191C22.6503 20.3922 22.6548 20.4687 22.6587 20.5433C22.6625 20.6165 22.6749 20.6894 22.6837 20.765C22.4008 20.7994 22.1333 20.8319 21.856 20.8657C21.8353 20.8125 21.8161 20.7592 21.7939 20.7072C21.7577 20.6224 21.7256 20.5351 21.6805 20.4552C21.631 20.3675 21.5495 20.3249 21.4464 20.3456C21.3427 20.3665 21.287 20.4417 21.273 20.5387C21.2624 20.6115 21.2711 20.6882 21.2794 20.7623C21.2909 20.8649 21.31 20.9666 21.3264 21.0731C21.2831 21.1009 21.2456 21.1266 21.2067 21.1498C20.9513 21.3018 20.7278 21.4921 20.5289 21.7121C20.2698 21.9986 20.106 22.3296 20.0601 22.7158C19.9936 23.2753 20.1634 23.741 20.6076 24.0979C20.8717 24.3101 21.1791 24.4186 21.5091 24.4722C21.5762 24.4831 21.6428 24.496 21.7205 24.51C21.7732 25.2276 21.825 25.9338 21.8791 26.669C21.7557 26.6289 21.6493 26.6051 21.5524 26.5608C21.3235 26.4561 21.1274 26.3084 20.9762 26.1017C20.8684 25.9542 20.7151 25.9145 20.6021 25.9887C20.4894 26.0629 20.4603 26.2222 20.5423 26.3787C20.5902 26.4701 20.6462 26.5605 20.7137 26.638C21.0005 26.9673 21.3463 27.21 21.7708 27.3308C21.8202 27.3449 21.8691 27.3605 21.9303 27.379C21.9385 27.4889 21.942 27.5979 21.9558 27.7055C21.9814 27.9057 22.0093 28.1058 22.0437 28.3047C22.0643 28.4237 22.1416 28.502 22.2613 28.524C22.3876 28.5471 22.489 28.4969 22.5576 28.3898C22.5852 28.3468 22.6033 28.2966 22.6194 28.2477C22.6816 28.0592 22.7025 27.8648 22.6974 27.6668C22.6959 27.6064 22.7009 27.5458 22.703 27.4841C22.9232 27.4656 23.1233 27.4488 23.3492 27.4299ZM19.4392 19.9492C19.3748 19.9881 19.3026 20.0234 19.2397 20.0708C18.8673 20.3514 18.558 20.6912 18.2914 21.0733C17.9154 21.6122 17.63 22.1983 17.3977 22.8092C17.3042 23.0551 17.2479 23.3181 17.2001 23.578C17.1254 23.9837 17.1513 24.3959 17.1663 24.8054C17.1926 25.5249 17.2943 26.2296 17.5794 26.9002C17.7932 27.4033 18.1219 27.8239 18.4984 28.2085C18.6957 28.41 18.9253 28.5796 19.135 28.7693C19.4677 29.0704 19.8629 29.255 20.2823 29.3942C20.4242 29.4412 20.5704 29.4775 20.7169 29.5069C20.7577 29.5151 20.8198 29.4937 20.8497 29.4636C20.8995 29.4136 20.8686 29.3552 20.8241 29.3119C20.7745 29.2636 20.7144 29.225 20.6705 29.1724C20.6164 29.1076 20.5665 29.0368 20.5286 28.9616C20.4692 28.8435 20.4269 28.7169 20.3676 28.5988C20.2244 28.3139 20.1043 28.0211 20.04 27.7077C19.9878 27.4534 19.9404 27.198 19.8864 26.944C19.7772 26.4297 19.4831 26.0589 19.012 25.8266C18.8929 25.7679 18.7735 25.7092 18.6588 25.6427C18.4025 25.4941 18.2541 25.2686 18.212 24.9767C18.194 24.8514 18.1807 24.7239 18.1818 24.5976C18.187 24.0397 18.2828 23.4933 18.4276 22.9574C18.6936 21.9735 19.0893 21.0385 19.5291 20.1211C19.5467 20.0845 19.5525 20.0345 19.5429 19.996C19.5379 19.9766 19.486 19.969 19.4392 19.9492Z" fill="#FFB600"/>
<path d="M31.5537 24.1686C31.5206 24.1097 31.485 24.0522 31.4546 23.9919C31.0316 23.1513 30.7199 22.2725 30.5495 21.3455C30.5443 21.3171 30.5399 21.2884 30.5337 21.2603C30.498 21.0996 30.4196 21.0507 30.2237 21.0666C30.1005 21.0766 30.0343 21.1414 30.0346 21.2885C30.0349 21.4903 30.0414 21.6934 30.0649 21.8936C30.1524 22.6359 30.1015 23.3701 29.9528 24.0998C29.938 24.172 29.9233 24.2442 29.8759 24.3188C29.8512 24.1895 29.8236 24.0607 29.8024 23.9308C29.7046 23.3308 29.6441 22.728 29.6772 22.1188C29.6794 22.0785 29.6805 22.0377 29.6772 21.9975C29.6677 21.8844 29.6163 21.8253 29.5133 21.804C29.4093 21.7825 29.3212 21.811 29.2773 21.9034C29.2331 21.9964 29.2041 22.0975 29.1769 22.1974C29.0695 22.593 28.9658 22.9897 28.8595 23.3856C28.8437 23.4441 28.8211 23.5007 28.7685 23.5526C28.7564 23.4588 28.7428 23.3652 28.7326 23.2711C28.6969 22.942 28.6213 22.621 28.5043 22.3128C28.4376 22.1372 28.4267 21.9661 28.4586 21.7871C28.5459 21.2983 28.6275 20.8084 28.7228 20.3212C29.003 18.8888 29.5072 17.5334 30.1483 16.2263C30.3728 15.7686 30.6369 15.3347 30.9482 14.9307C30.9887 14.8782 31.0426 14.8362 31.0965 14.7832C31.1437 14.8267 31.1783 14.8558 31.2098 14.888C32.2362 15.9363 33.1319 17.0888 33.9395 18.3118C34.2292 18.7505 34.524 19.186 34.8108 19.6266C35.4917 20.6726 36.0212 21.7933 36.4498 22.9635C36.461 22.9942 36.4684 23.0264 36.4849 23.0831C36.4218 23.0553 36.3816 23.0394 36.343 23.0203C35.4989 22.6037 34.9039 21.9247 34.4202 21.1448C34.0797 20.5956 33.783 20.0191 33.4698 19.4531C33.2657 19.0841 33.0738 18.7082 32.8636 18.3428C32.7371 18.123 32.591 17.9139 32.4431 17.7076C32.3951 17.6407 32.3196 17.5859 32.2453 17.5474C32.1635 17.5051 32.0727 17.5374 32.0287 17.6023C31.9806 17.6733 31.989 17.7436 32.0373 17.8117C32.437 18.3759 32.7151 19.0065 33.0165 19.6234C33.3818 20.371 33.7429 21.1202 34.1824 21.8284C34.2092 21.8715 34.229 21.9221 34.2393 21.9718C34.307 22.2951 34.3441 22.6218 34.3392 22.9526C34.3389 22.9734 34.3324 22.9941 34.3241 23.042C34.2706 22.9852 34.2315 22.9465 34.1956 22.9051C33.8388 22.4926 33.5387 22.0404 33.2705 21.567C32.9401 20.984 32.6157 20.3975 32.2866 19.8138C32.2301 19.7134 32.1688 19.6145 32.099 19.5232C32.031 19.4342 31.935 19.4143 31.8538 19.4545C31.7707 19.4956 31.7418 19.5748 31.7733 19.6937C31.7895 19.7548 31.8112 19.8153 31.838 19.8726C32.019 20.2597 32.1886 20.6529 32.3878 21.0304C32.6546 21.5362 32.8313 22.0702 32.9541 22.6251C33.0041 22.8507 33.0548 23.0761 33.1038 23.3019C33.1132 23.3454 33.1166 23.3904 33.1284 23.4754C33.0686 23.4094 33.0331 23.3743 33.0023 23.3356C32.4652 22.6567 32.0057 21.9331 31.7063 21.1148C31.6191 20.8763 31.5173 20.6429 31.4165 20.4097C31.3824 20.331 31.3386 20.2535 31.2852 20.1868C31.2117 20.095 31.0834 20.0918 31.0137 20.1803C30.931 20.2852 30.8614 20.3991 30.9078 20.5455C30.941 20.6501 30.9668 20.7569 30.9988 20.8618C31.2181 21.5809 31.408 22.3073 31.5092 23.0533C31.5495 23.3506 31.567 23.6509 31.5923 23.9502C31.5981 24.0179 31.5931 24.0865 31.5931 24.1546C31.5798 24.1594 31.5668 24.1639 31.5537 24.1686Z" fill="#00B882"/>
<path d="M16.0569 23.2789C15.8658 23.554 15.4307 23.5008 15.2976 23.1422C15.2694 23.0664 15.2474 22.9883 15.2181 22.9131C14.9189 22.1434 14.6215 21.373 14.318 20.605C13.9478 19.6683 13.5347 18.7514 12.943 17.93C12.5989 17.4523 12.2261 16.9953 11.8655 16.5295C11.8602 16.5225 11.8455 16.5228 11.8279 16.5176C11.8004 16.5403 11.7658 16.5622 11.7394 16.5916C11.5698 16.7806 11.3921 16.9636 11.2352 17.1627C10.417 18.201 9.79475 19.3502 9.31503 20.5795C8.83187 21.8177 8.49815 23.0939 8.33925 24.4141C8.22356 25.3752 8.23517 26.34 8.2704 27.3052C8.27135 27.3311 8.28039 27.3568 8.28559 27.3826C8.32157 27.3546 8.33574 27.3259 8.34398 27.2956C8.55559 26.5155 8.78522 25.7397 8.97294 24.9539C9.21324 23.948 9.39367 22.9297 9.48412 21.8976C9.49924 21.725 9.51625 21.5521 9.54311 21.3812C9.5664 21.2329 9.6605 21.1687 9.81554 21.1763C9.9473 21.1827 10.0121 21.2499 10.0185 21.4056C10.023 21.5149 10.0185 21.6252 10.0083 21.7342C9.982 22.0159 9.93407 22.2966 9.92415 22.5787C9.90424 23.1445 9.89715 23.711 9.89749 24.2772C9.89783 24.8682 9.96755 25.453 10.0967 26.0302C10.1048 26.0667 10.1215 26.1012 10.1462 26.1699C10.1611 26.1082 10.1683 26.0823 10.1736 26.0559C10.2982 25.4312 10.3717 24.8015 10.3761 24.1634C10.3794 23.6724 10.3916 23.1812 10.4088 22.6905C10.413 22.5717 10.446 22.4523 10.4782 22.3366C10.4986 22.2635 10.5653 22.2283 10.6409 22.2314C10.7165 22.2346 10.7744 22.2757 10.7963 22.3492C10.8143 22.4093 10.8252 22.4729 10.8295 22.5356C10.8818 23.3023 11.0593 24.0413 11.319 24.7622C11.3377 24.8141 11.3628 24.8638 11.3936 24.9344C11.4078 24.8963 11.4164 24.8825 11.4177 24.8681C11.4259 24.7761 11.438 24.6839 11.4387 24.5918C11.4449 23.8174 11.4417 23.0438 11.3609 22.2718C11.3346 22.0203 11.351 21.7643 11.3507 21.5104C11.3506 21.4331 11.3925 21.3775 11.4662 21.3549C11.5474 21.33 11.6166 21.3565 11.66 21.4294C11.6892 21.4786 11.7181 21.5318 11.7298 21.5869C11.7907 21.8744 11.8736 22.1609 11.8977 22.452C11.9561 23.154 12.1134 23.8312 12.3423 24.4944C12.3569 24.5366 12.3753 24.5776 12.392 24.6191C12.4009 24.6168 12.4099 24.6144 12.4188 24.612C12.425 24.5841 12.4339 24.5564 12.4369 24.5281C12.4799 24.1262 12.527 23.7248 12.5629 23.3223C12.59 23.0174 12.5995 22.711 12.6227 22.4057C12.6347 22.2466 12.7033 22.1946 12.8617 22.2055C12.9892 22.2142 13.0526 22.2695 13.0728 22.4134C13.0928 22.5563 13.1027 22.7008 13.111 22.8449C13.1504 23.5335 13.2603 24.2108 13.4293 24.879C13.4401 24.9218 13.4576 24.9629 13.4791 25.0251C13.4974 24.9783 13.5127 24.9529 13.5172 24.9257C13.5579 24.6808 13.6063 24.4367 13.6342 24.1903C13.7001 23.6085 13.6832 23.025 13.6451 22.442C13.6379 22.3325 13.6229 22.2236 13.6171 22.1141C13.6117 22.0128 13.6544 21.9324 13.7475 21.8885C13.8331 21.8481 13.9221 21.8557 13.9897 21.9221C14.0757 22.0063 14.162 22.094 14.2285 22.1935C14.3246 22.3372 14.406 22.491 14.4884 22.6434C14.7063 23.0462 14.9597 23.4245 15.2533 23.7763C15.368 23.9138 15.4781 24.0554 15.5833 24.2002C15.6646 24.3121 15.7443 24.4272 15.8079 24.5495C15.9799 24.6865 16.1791 24.1701 16.1895 24.1065C16.2324 23.8444 16.3272 23.2242 16.1892 23.1971C16.1398 23.1872 16.0949 23.224 16.0569 23.2789Z" fill="#00B882"/>
<path d="M16.0379 21.583C16.3241 21.6036 16.586 21.6225 16.8691 21.6428C16.8051 21.7968 16.7464 21.9378 16.6807 22.0957C16.408 22.0805 16.1403 22.0656 15.8438 22.0492C15.9123 21.8847 15.9728 21.7393 16.0379 21.583Z" fill="#FFB600"/>
<path d="M15.5625 26.3828C15.8394 26.3828 16.0915 26.3828 16.3557 26.3828C16.3934 26.5037 16.4266 26.6106 16.4654 26.735C16.3231 26.7655 16.1973 26.7468 16.0737 26.7509C15.947 26.755 15.8201 26.7518 15.6708 26.7518C15.6345 26.6284 15.5986 26.5061 15.5625 26.3828Z" fill="#FFB600"/>
<path d="M16.2049 25.5747C16.2244 25.7 16.2401 25.8013 16.2596 25.9259C16.121 25.9259 15.9924 25.9259 15.8637 25.9259C15.7377 25.9259 15.6116 25.9259 15.4679 25.9259C15.4467 25.8067 15.4282 25.7028 15.4062 25.5793C15.6771 25.536 15.932 25.587 16.2049 25.5747Z" fill="#FFB600"/>
<path d="M16.1268 24.7143C16.1463 24.8396 16.162 24.9409 16.1815 25.0655C16.0429 25.0655 15.9142 25.0655 15.7856 25.0655C15.6595 25.0655 15.5335 25.0655 15.3898 25.0655C15.3686 24.9464 15.3501 24.8424 15.3281 24.719C15.599 24.6757 15.8539 24.7266 16.1268 24.7143Z" fill="#FFB600"/>
<path d="M17.2969 19.858C17.3915 19.7773 17.485 19.6951 17.5817 19.617C17.6022 19.6004 17.6347 19.5914 17.6618 19.5912C17.9071 19.5892 18.1524 19.59 18.433 19.59C18.3154 19.6997 18.2199 19.7942 18.1177 19.8807C18.0907 19.9034 18.0429 19.9089 18.0045 19.9093C17.7747 19.9118 17.5449 19.9105 17.3151 19.9105C17.309 19.8931 17.303 19.8755 17.2969 19.858Z" fill="#FFB600"/>
<path d="M16.2266 27.8757C16.4931 27.8757 16.7113 27.8731 16.9294 27.8781C16.9697 27.879 17.0204 27.9008 17.0469 27.9304C17.107 27.9974 17.1551 28.0752 17.2233 28.1699C17.1552 28.1765 17.1129 28.1825 17.0705 28.1846C16.9212 28.1921 16.7708 28.19 16.6228 28.2075C16.5238 28.2192 16.4583 28.1919 16.4044 28.1118C16.3574 28.0419 16.3032 27.9768 16.2266 27.8757Z" fill="#FFB600"/>
<path d="M16.6363 27.181C16.6789 27.276 16.7134 27.3529 16.7558 27.4474C16.4981 27.4474 16.2634 27.4497 16.0289 27.4448C15.9961 27.4441 15.9526 27.4156 15.934 27.3869C15.8973 27.3307 15.8746 27.2653 15.832 27.1732C16.114 27.1675 16.3689 27.1817 16.6363 27.181Z" fill="#FFB600"/>
<path d="M16.6953 20.5429C16.7642 20.371 16.8735 20.31 17.0283 20.3126C17.2445 20.3162 17.4608 20.3135 17.7175 20.3135C17.6429 20.4105 17.5941 20.4858 17.5324 20.5486C17.5052 20.5764 17.4515 20.5925 17.4109 20.5905C17.1774 20.5789 16.9443 20.5602 16.6953 20.5429Z" fill="#FFB600"/>
<path d="M20.8925 18.291C20.7777 18.3266 20.6613 18.3576 20.5485 18.3987C20.3214 18.4814 20.0888 18.5544 19.8725 18.6601C19.6833 18.7525 19.5084 18.7041 19.3242 18.6718C19.8219 18.448 20.3441 18.3274 20.8925 18.291Z" fill="#FFB600"/>
<path d="M17.2389 20.9688C17.1866 21.0625 17.1656 21.1175 17.1294 21.1594C17.1027 21.1902 17.0555 21.2237 17.0188 21.2221C16.7744 21.2114 16.5305 21.1916 16.2852 21.1747C16.2982 21.0173 16.4006 20.9756 16.5128 20.9714C16.7407 20.9628 16.9691 20.9688 17.2389 20.9688Z" fill="#FFB600"/>
<path d="M17.7944 29.2361C17.9489 29.2361 18.1049 29.2235 18.2576 29.2399C18.3923 29.2544 18.4831 29.3624 18.5969 29.4376C18.575 29.4528 18.5709 29.4565 18.5662 29.4588C18.3781 29.5552 18.2039 29.5154 18.033 29.4097C17.9511 29.3591 17.8628 29.3188 17.7773 29.2738C17.783 29.2613 17.7887 29.2487 17.7944 29.2361Z" fill="#FFB600"/>
<path d="M16.449 22.7946C16.3266 22.7946 16.2193 22.7946 16.0939 22.7946C16.0615 22.7139 16.0261 22.626 15.9805 22.5127C16.1714 22.5127 16.3388 22.5127 16.5269 22.5127C16.5025 22.6009 16.4765 22.6949 16.449 22.7946Z" fill="#FFB600"/>
<path d="M16.9506 28.6268C17.1487 28.6221 17.347 28.6106 17.5449 28.6154C17.6452 28.6178 17.687 28.7109 17.7639 28.8037C17.546 28.8122 17.3582 28.8356 17.1738 28.8193C17.0902 28.812 17.0134 28.726 16.9336 28.6757C16.9393 28.6595 16.9449 28.6431 16.9506 28.6268Z" fill="#FFB600"/>
<path d="M19.0591 19.1142C18.9852 19.1672 18.9113 19.2201 18.8257 19.2814C18.6848 19.0521 18.4664 19.2129 18.2695 19.1609C18.354 19.0822 18.4349 19.0189 18.542 19.0248C18.7124 19.0343 18.8822 19.0569 19.0522 19.074C19.0545 19.0874 19.0569 19.1008 19.0591 19.1142Z" fill="#FFB600"/>
<path d="M19.207 29.856C19.3079 29.7939 19.3666 29.8598 19.4266 29.9227C19.3534 29.9005 19.2802 29.8782 19.207 29.856Z" fill="#FFB600"/>
<path d="M23.35 27.4292C23.1241 27.4481 22.924 27.4649 22.7037 27.4833C22.7016 27.5449 22.6966 27.6055 22.6981 27.666C22.7032 27.8639 22.6822 28.0583 22.6201 28.2469C22.6039 28.2958 22.5858 28.3459 22.5583 28.3889C22.4897 28.4961 22.3883 28.5463 22.262 28.5231C22.1422 28.5012 22.0649 28.4228 22.0444 28.3038C22.0099 28.105 21.9821 27.9049 21.9565 27.7047C21.9427 27.597 21.9392 27.488 21.931 27.3782C21.8697 27.3596 21.8209 27.344 21.7715 27.33C21.3469 27.2092 21.0012 26.9664 20.7144 26.6372C20.6468 26.5596 20.5909 26.4693 20.543 26.3779C20.4609 26.2214 20.4901 26.0621 20.6028 25.9879C20.7158 25.9137 20.8691 25.9534 20.9769 26.1009C21.1281 26.3076 21.3241 26.4553 21.5531 26.56C21.65 26.6043 21.7563 26.6281 21.8798 26.6682C21.8258 25.933 21.7739 25.2268 21.7212 24.5092C21.6435 24.4952 21.5769 24.4823 21.5098 24.4714C21.1798 24.4177 20.8724 24.3093 20.6083 24.0971C20.1641 23.7402 19.9943 23.2745 20.0608 22.715C20.1067 22.3287 20.2705 21.9978 20.5296 21.7112C20.7285 21.4913 20.952 21.301 21.2074 21.149C21.2463 21.1258 21.2838 21.1001 21.3271 21.0722C21.3106 20.9657 21.2916 20.864 21.2801 20.7614C21.2719 20.6874 21.2631 20.6107 21.2736 20.5379C21.2877 20.441 21.3434 20.3657 21.4471 20.3448C21.5502 20.324 21.6317 20.3667 21.6812 20.4544C21.7263 20.5342 21.7584 20.6216 21.7946 20.7064C21.8168 20.7583 21.836 20.8117 21.8567 20.8649C22.134 20.8311 22.4015 20.7986 22.6844 20.7641C22.6755 20.6885 22.6632 20.6157 22.6594 20.5425C22.6554 20.4679 22.6509 20.3914 22.6628 20.3183C22.6787 20.2203 22.7518 20.1554 22.8368 20.1508C22.9271 20.1458 22.9954 20.1884 23.0297 20.2702C23.0787 20.3872 23.1202 20.5074 23.1635 20.6267C23.1812 20.6754 23.1955 20.7253 23.2164 20.7905C23.2778 20.8026 23.3439 20.8177 23.4108 20.8283C23.8163 20.8933 24.1957 21.0269 24.524 21.2777C24.6368 21.364 24.7354 21.4733 24.8248 21.5847C24.8989 21.6771 24.8928 21.7731 24.8394 21.8408C24.7805 21.9156 24.6905 21.9316 24.5718 21.8747C24.4365 21.8098 24.3064 21.7343 24.1727 21.6662C23.955 21.5551 23.724 21.4832 23.4843 21.4379C23.4577 21.4329 23.4303 21.4326 23.4022 21.43C23.5233 22.2136 23.6427 22.9864 23.7626 23.7624C23.9254 23.7907 24.0864 23.8094 24.2423 23.8485C24.3927 23.8863 24.5453 23.9297 24.6838 23.9975C25.2864 24.2926 25.5724 24.9136 25.4054 25.5996C25.2472 26.2493 24.8581 26.7358 24.2814 27.0726C24.222 27.1072 24.1614 27.1397 24.0846 27.1827C24.1088 27.3698 24.1378 27.5571 24.1555 27.7453C24.1645 27.8413 24.1692 27.9429 24.1473 28.0352C24.1125 28.1817 24.0094 28.2739 23.8551 28.2929C23.6953 28.3125 23.5676 28.2487 23.4922 28.11C23.4493 28.0311 23.4289 27.9374 23.4116 27.8479C23.3856 27.7127 23.3709 27.5752 23.35 27.4292ZM23.0228 23.7593C22.947 22.9558 22.8731 22.173 22.7984 21.3818C22.5148 21.3765 22.2625 21.4082 22.0223 21.4805C22.1345 22.263 22.2445 23.0295 22.3559 23.8059C22.5762 23.7905 22.7872 23.7758 23.0228 23.7593ZM23.3106 26.7093C23.2706 25.9586 23.1846 25.2194 23.095 24.4683C22.8612 24.4846 22.6509 24.4993 22.4294 24.5148C22.504 25.2802 22.5767 26.0277 22.6498 26.7783C22.8837 26.8025 23.0911 26.7768 23.3106 26.7093ZM21.6249 23.7902C21.6587 23.5597 21.4801 21.9062 21.4068 21.77C21.1226 21.94 20.8361 22.3069 20.7514 22.6094C20.5736 23.2444 20.971 23.7817 21.6249 23.7902ZM24.0497 26.3777C24.4098 26.1722 24.7162 25.6547 24.741 25.2555C24.7571 24.996 24.6507 24.8095 24.4392 24.6752C24.2659 24.565 24.0721 24.5263 23.853 24.514C23.919 25.14 23.9835 25.7508 24.0497 26.3777Z" fill="black"/>
<path d="M19.4421 19.9492C19.489 19.969 19.5409 19.9766 19.5457 19.9959C19.5553 20.0345 19.5495 20.0844 19.532 20.121C19.0923 21.0384 18.6964 21.9734 18.4305 22.9574C18.2857 23.4932 18.1899 24.0397 18.1847 24.5975C18.1834 24.7238 18.1968 24.8513 18.2149 24.9766C18.2569 25.2686 18.4054 25.494 18.6617 25.6426C18.7764 25.7091 18.8958 25.7678 19.0148 25.8265C19.486 26.0588 19.78 26.4296 19.8893 26.9439C19.9432 27.1979 19.9907 27.4533 20.0429 27.7076C20.1071 28.021 20.2273 28.3138 20.3704 28.5987C20.4298 28.7168 20.4721 28.8434 20.5315 28.9615C20.5694 29.0367 20.6192 29.1076 20.6734 29.1723C20.7173 29.2248 20.7773 29.2635 20.8269 29.3118C20.8714 29.3551 20.9023 29.4135 20.8525 29.4635C20.8226 29.4936 20.7606 29.515 20.7198 29.5068C20.5732 29.4775 20.4271 29.4412 20.2852 29.3941C19.8658 29.2549 19.4706 29.0703 19.1379 28.7692C18.9282 28.5795 18.6985 28.4099 18.5013 28.2085C18.1249 27.8238 17.7961 27.4032 17.5822 26.9001C17.2972 26.2296 17.1954 25.5249 17.1691 24.8053C17.1541 24.3958 17.1283 23.9837 17.2029 23.578C17.2507 23.318 17.307 23.055 17.4006 22.8091C17.6328 22.1982 17.9182 21.6121 18.2943 21.0732C18.5609 20.6911 18.8702 20.3513 19.2425 20.0707C19.3056 20.0233 19.3776 19.988 19.4421 19.9492ZM19.6144 26.8571C19.5934 26.8628 19.5783 26.862 19.573 26.8689C19.2856 27.2445 18.9986 27.6204 18.7127 27.997C18.6606 28.0657 18.7033 28.0974 18.7683 28.1267C19.0532 27.7574 19.3347 27.3929 19.6155 27.028C19.6603 26.9698 19.6462 26.9134 19.6144 26.8571ZM19.1196 26.1664C19.0697 26.0933 19.0338 26.1171 19.0028 26.159C18.7143 26.5486 18.4264 26.9386 18.1386 27.3287C18.1021 27.3781 18.1232 27.4097 18.1791 27.4419C18.4956 27.0128 18.8089 26.5877 19.1196 26.1664ZM18.5202 27.9295C18.5855 27.8496 18.6229 27.8066 18.6573 27.7614C18.9187 27.4174 19.1795 27.0731 19.4404 26.7288C19.4613 26.7013 19.4904 26.6759 19.4994 26.6448C19.508 26.6148 19.4956 26.5787 19.4923 26.5453C19.479 26.5413 19.4656 26.5372 19.4522 26.5332C19.134 26.9552 18.8152 27.3768 18.4999 27.8008C18.4877 27.8172 18.5078 27.8575 18.5202 27.9295ZM18.2222 22.8797C18.2129 22.8748 18.2037 22.8698 18.1944 22.8649C18.174 22.8826 18.151 22.8982 18.1335 22.9185C17.9112 23.176 17.692 23.4363 17.4667 23.6911C17.3874 23.7808 17.3676 23.8744 17.3914 23.9881C17.4118 23.9811 17.4263 23.9809 17.432 23.9736C17.6689 23.6758 17.9074 23.3792 18.139 23.0773C18.1811 23.0224 18.1952 22.9461 18.2222 22.8797ZM18.3071 27.6561C18.3242 27.6606 18.3415 27.6652 18.3586 27.6697C18.6894 27.2303 19.0201 26.791 19.354 26.3475C19.3253 26.3234 19.3043 26.3056 19.2764 26.2821C19.24 26.3278 19.2073 26.3664 19.1772 26.407C18.9505 26.7131 18.7244 27.0197 18.4978 27.3259C18.4394 27.4047 18.377 27.4808 18.3226 27.5622C18.3065 27.5862 18.3117 27.6244 18.3071 27.6561ZM18.9893 28.3195C19.2263 28.0374 19.4587 27.7594 19.6928 27.483C19.7598 27.4039 19.7419 27.3318 19.6857 27.2399C19.6137 27.3329 19.5504 27.414 19.4879 27.4956C19.3129 27.7241 19.1387 27.9533 18.9631 28.1814C18.9251 28.2309 18.8877 28.2766 18.9893 28.3195ZM18.8639 26.009C18.766 25.956 18.7604 25.9521 18.7123 26.0192C18.4645 26.365 18.2199 26.713 17.9741 27.0602C17.9419 27.1056 17.9433 27.1447 18.0031 27.1816C18.2871 26.7947 18.5715 26.4073 18.8639 26.009ZM18.085 23.5341C18.0695 23.5275 18.0541 23.5208 18.0387 23.5142C17.8269 23.7792 17.6123 24.0419 17.4064 24.3115C17.3757 24.3516 17.3863 24.4234 17.3761 24.4918C17.4108 24.4785 17.4247 24.4777 17.4307 24.4704C17.6188 24.2367 17.8103 24.0055 17.9909 23.7661C18.0394 23.7018 18.0544 23.6122 18.085 23.5341ZM19.2148 28.5551C19.4234 28.2976 19.601 28.0783 19.7785 27.859C19.8254 27.801 19.816 27.7478 19.7616 27.6811C19.5489 27.9379 19.3438 28.1856 19.1191 28.4569C19.1494 28.4881 19.1758 28.5151 19.2148 28.5551ZM18.3923 22.3276C18.3815 22.3174 18.3707 22.3071 18.3599 22.2969C18.3383 22.3153 18.3151 22.3321 18.2953 22.3524C18.0501 22.6032 17.8065 22.8556 17.5599 23.1051C17.4854 23.1806 17.469 23.2723 17.4533 23.4114C17.7832 23.0307 18.0877 22.6791 18.3923 22.3276ZM17.6918 22.6374C17.6995 22.6433 17.7072 22.6493 17.715 22.6552C17.9897 22.3858 18.2655 22.1173 18.5378 21.8454C18.5697 21.8134 18.5824 21.7622 18.604 21.7199C18.592 21.711 18.5801 21.7021 18.5681 21.6932C18.3153 21.9332 18.059 22.1696 17.8123 22.4157C17.7552 22.4727 17.7311 22.5627 17.6918 22.6374ZM18.0063 25.0764C17.9957 25.0731 17.985 25.0698 17.9744 25.0665C17.821 25.2937 17.6666 25.5204 17.5148 25.7486C17.475 25.8084 17.4895 25.8674 17.5464 25.9343C17.7022 25.6855 17.8562 25.444 18.0038 25.1986C18.022 25.1683 18.0063 25.1176 18.0063 25.0764ZM18.5826 25.8615C18.5165 25.7979 18.4873 25.8487 18.4582 25.8898C18.2954 26.1205 18.1332 26.3517 17.9712 26.5829C17.9215 26.6537 17.8694 26.7231 17.8266 26.7979C17.8137 26.8204 17.8287 26.8588 17.833 26.9203C18.0955 26.5496 18.335 26.2113 18.5826 25.8615ZM17.97 24.644C17.9548 24.6397 17.9395 24.6354 17.9242 24.6311C17.7684 24.8421 17.612 25.0526 17.4571 25.2643C17.411 25.3271 17.4333 25.3873 17.4698 25.4646C17.6301 25.2334 17.7825 25.019 17.9277 24.7999C17.956 24.7573 17.9566 24.6964 17.97 24.644ZM19.9062 28.082C19.8888 28.0758 19.8714 28.0696 19.854 28.0635C19.6962 28.2589 19.5384 28.4542 19.3744 28.6573C19.4131 28.6879 19.4381 28.7077 19.4728 28.7351C19.6163 28.5581 19.7567 28.3906 19.8887 28.2168C19.9125 28.1854 19.9012 28.1276 19.9062 28.082ZM17.3893 24.9531C17.4054 24.9595 17.4216 24.966 17.4378 24.9724C17.6118 24.7299 17.7866 24.4881 17.9582 24.2439C17.972 24.2243 17.9631 24.1887 17.9647 24.1605C17.7684 24.3677 17.5947 24.5819 17.4285 24.8017C17.3994 24.84 17.4016 24.902 17.3893 24.9531ZM18.1261 25.4147C17.9624 25.5928 17.6295 26.1494 17.6195 26.2676C17.8022 26.0274 17.9788 25.7941 18.1568 25.5618C18.2065 25.4968 18.1611 25.4606 18.1261 25.4147ZM18.3538 25.7056C18.3444 25.6987 18.335 25.6919 18.3257 25.6851C18.3149 25.6877 18.2992 25.6865 18.2943 25.6933C18.0985 25.9631 17.9031 26.2333 17.7103 26.5053C17.6996 26.5203 17.711 26.5511 17.7122 26.5745C17.7215 26.5774 17.7309 26.5803 17.7402 26.5831C17.9448 26.2906 18.1493 25.9981 18.3538 25.7056ZM19.1288 20.4322C18.9035 20.6273 18.7047 20.8453 18.5492 21.1006C18.7659 20.8981 19.0609 20.7631 19.1288 20.4322ZM18.0675 21.8375C18.0773 21.848 18.087 21.8585 18.0967 21.8689C18.3321 21.655 18.5679 21.4416 18.8018 21.2261C18.8175 21.2116 18.8183 21.1808 18.826 21.1577C18.5492 21.3666 18.2983 21.5917 18.0675 21.8375ZM20.0243 28.4004C20.0123 28.3978 20.0003 28.3952 19.9883 28.3925C19.8692 28.542 19.75 28.6915 19.6331 28.8384C19.6857 28.897 19.7239 28.9086 19.7622 28.8589C19.8501 28.7452 19.9405 28.6332 20.0217 28.5149C20.0398 28.4886 20.0243 28.4392 20.0243 28.4004ZM20.1422 28.6639C20.0515 28.7817 19.9771 28.8784 19.8985 28.9806C20.0024 29.0159 20.0145 29.0214 20.0369 28.9717C20.0773 28.8825 20.2238 28.8297 20.1422 28.6639ZM20.3548 29.1784C20.3225 29.0839 20.3052 29.0332 20.2798 28.9591C20.237 29.017 20.2086 29.0553 20.1685 29.1098C20.2279 29.1316 20.2709 29.1474 20.3548 29.1784Z" fill="black"/>
<path d="M23.024 23.7599C22.7883 23.7764 22.5773 23.7911 22.357 23.8065C22.2456 23.0302 22.1357 22.2636 22.0234 21.4811C22.2636 21.4087 22.516 21.3771 22.7996 21.3824C22.8742 22.1736 22.9481 22.9564 23.024 23.7599Z" fill="#FFB600"/>
<path d="M23.3108 26.7097C23.0914 26.7772 22.8839 26.803 22.6501 26.7788C22.577 26.0281 22.5042 25.2806 22.4297 24.5153C22.6512 24.4998 22.8614 24.4851 23.0952 24.4688C23.1849 25.2197 23.2708 25.959 23.3108 26.7097Z" fill="#FFB600"/>
<path d="M21.6269 23.7906C20.9731 23.7821 20.5756 23.2448 20.7534 22.6099C20.8381 22.3073 21.1246 21.9405 21.4088 21.7705C21.4821 21.9066 21.6606 23.5601 21.6269 23.7906Z" fill="#FFB600"/>
<path d="M24.0522 26.3774C23.986 25.7505 23.9216 25.1397 23.8555 24.5137C24.0745 24.526 24.2682 24.5647 24.4416 24.6748C24.6531 24.8091 24.7596 24.9956 24.7434 25.2552C24.7187 25.6544 24.4121 26.1719 24.0522 26.3774Z" fill="#FFB600"/>
<path d="M19.6126 26.8564C19.6444 26.9127 19.6585 26.9691 19.6136 27.0274C19.3328 27.3923 19.0513 27.7568 18.7664 28.1261C18.7014 28.0968 18.6586 28.0651 18.7108 27.9964C18.9968 27.6197 19.2837 27.2438 19.5711 26.8683C19.5764 26.8614 19.5916 26.8621 19.6126 26.8564Z" fill="#FFB600"/>
<path d="M19.1202 26.1661C18.8095 26.5875 18.4961 27.0125 18.1797 27.4416C18.1238 27.4094 18.1028 27.3778 18.1393 27.3284C18.4271 26.9383 18.715 26.5483 19.0035 26.1587C19.0345 26.1169 19.0704 26.0931 19.1202 26.1661Z" fill="#FFB600"/>
<path d="M18.5202 27.9294C18.5078 27.8575 18.4877 27.8171 18.4999 27.8008C18.8152 27.3768 19.134 26.9552 19.4522 26.5332C19.4655 26.5372 19.4789 26.5412 19.4923 26.5452C19.4955 26.5786 19.508 26.6147 19.4993 26.6448C19.4904 26.6758 19.4613 26.7013 19.4404 26.7288C19.1795 27.0731 18.9186 27.4174 18.6573 27.7614C18.6229 27.8067 18.5855 27.8496 18.5202 27.9294Z" fill="#FFB600"/>
<path d="M18.2231 22.8801C18.1961 22.9465 18.1819 23.0228 18.1398 23.0777C17.9082 23.3795 17.6697 23.6762 17.4328 23.974C17.4271 23.9812 17.4126 23.9815 17.3922 23.9884C17.3685 23.8748 17.3883 23.7811 17.4675 23.6914C17.6928 23.4366 17.912 23.1763 18.1343 22.9188C18.1518 22.8986 18.1748 22.883 18.1952 22.8652C18.2046 22.8702 18.2138 22.8751 18.2231 22.8801Z" fill="#FFB600"/>
<path d="M18.3047 27.6552C18.3092 27.6236 18.3041 27.5853 18.3201 27.5614C18.3746 27.4799 18.437 27.4039 18.4954 27.3251C18.722 27.0189 18.9481 26.7123 19.1748 26.4062C19.2049 26.3656 19.2376 26.3269 19.274 26.2812C19.3019 26.3047 19.3229 26.3226 19.3515 26.3467C19.0178 26.7901 18.687 27.2295 18.3562 27.6689C18.339 27.6643 18.3219 27.6597 18.3047 27.6552Z" fill="#FFB600"/>
<path d="M18.9874 28.3189C18.8859 28.2759 18.9231 28.2303 18.9613 28.1807C19.1368 27.9527 19.311 27.7235 19.486 27.4949C19.5485 27.4133 19.6118 27.3323 19.6838 27.2393C19.7401 27.3311 19.758 27.4032 19.6909 27.4823C19.4568 27.7588 19.2244 28.0368 18.9874 28.3189Z" fill="#FFB600"/>
<path d="M18.8639 26.0087C18.5715 26.407 18.287 26.7944 18.003 27.1814C17.9433 27.1444 17.9419 27.1054 17.974 27.06C18.2199 26.7128 18.4645 26.3647 18.7123 26.0189C18.7603 25.9518 18.7659 25.9558 18.8639 26.0087Z" fill="#FFB600"/>
<path d="M18.0838 23.5337C18.0534 23.6117 18.0383 23.7013 17.9897 23.7656C17.8092 24.0051 17.6177 24.2362 17.4295 24.4699C17.4237 24.4772 17.4098 24.4781 17.375 24.4913C17.3852 24.4228 17.3746 24.3511 17.4053 24.311C17.6111 24.0415 17.8258 23.7786 18.0375 23.5137C18.0529 23.5204 18.0684 23.527 18.0838 23.5337Z" fill="#FFB600"/>
<path d="M19.2169 28.5547C19.1779 28.5146 19.1515 28.4876 19.1211 28.4564C19.3459 28.1851 19.5509 27.9374 19.7636 27.6807C19.818 27.7473 19.8275 27.8005 19.7805 27.8585C19.603 28.0778 19.4254 28.2971 19.2169 28.5547Z" fill="#FFB600"/>
<path d="M18.3921 22.3277C18.0875 22.6792 17.783 23.0307 17.4531 23.4114C17.4688 23.2723 17.4851 23.1807 17.5598 23.1051C17.8063 22.8556 18.0499 22.6032 18.2951 22.3524C18.3149 22.3321 18.3381 22.3153 18.3597 22.2969C18.3705 22.3072 18.3813 22.3175 18.3921 22.3277Z" fill="#FFB600"/>
<path d="M17.6914 22.6375C17.7307 22.5628 17.7549 22.4728 17.812 22.4159C18.0586 22.1698 18.315 21.9333 18.5678 21.6934C18.5797 21.7023 18.5917 21.7112 18.6036 21.72C18.582 21.7623 18.5694 21.8136 18.5375 21.8455C18.2652 22.1175 17.9894 22.3859 17.7146 22.6554C17.7069 22.6494 17.6991 22.6435 17.6914 22.6375Z" fill="#FFB600"/>
<path d="M18.0062 25.0763C18.0062 25.1175 18.0219 25.1682 18.0037 25.1984C17.8561 25.4439 17.7021 25.6854 17.5463 25.9342C17.4894 25.8673 17.4749 25.8083 17.5147 25.7485C17.6665 25.5202 17.8209 25.2936 17.9743 25.0664C17.9849 25.0696 17.9956 25.073 18.0062 25.0763Z" fill="#FFB600"/>
<path d="M18.5814 25.8612C18.3338 26.2109 18.0942 26.5492 17.8318 26.9198C17.8275 26.8583 17.8126 26.8199 17.8254 26.7975C17.8682 26.7227 17.9204 26.6533 17.97 26.5825C18.132 26.3512 18.2942 26.1201 18.457 25.8894C18.4861 25.8483 18.5153 25.7975 18.5814 25.8612Z" fill="#FFB600"/>
<path d="M17.9685 24.6439C17.9552 24.6963 17.9545 24.7572 17.9263 24.7997C17.781 25.0188 17.6287 25.2332 17.4683 25.4644C17.4318 25.3871 17.4096 25.327 17.4556 25.2641C17.6105 25.0524 17.7669 24.8419 17.9228 24.6309C17.938 24.6352 17.9533 24.6396 17.9685 24.6439Z" fill="#FFB600"/>
<path d="M19.9068 28.081C19.9019 28.1266 19.913 28.1845 19.8893 28.2158C19.7573 28.3897 19.6169 28.5571 19.4733 28.7341C19.4387 28.7067 19.4137 28.6869 19.375 28.6564C19.539 28.4533 19.6968 28.2579 19.8546 28.0625C19.8719 28.0687 19.8893 28.0749 19.9068 28.081Z" fill="#FFB600"/>
<path d="M17.3906 24.9528C17.4029 24.9017 17.4008 24.8397 17.4298 24.8013C17.596 24.5815 17.7697 24.3674 17.966 24.1602C17.9644 24.1883 17.9733 24.2239 17.9595 24.2435C17.7879 24.4877 17.6131 24.7295 17.4391 24.972C17.423 24.9656 17.4068 24.9592 17.3906 24.9528Z" fill="#FFB600"/>
<path d="M18.1277 25.4141C18.1626 25.46 18.2081 25.4962 18.1583 25.5612C17.9804 25.7935 17.8037 26.0268 17.6211 26.2669C17.631 26.1488 17.9639 25.5921 18.1277 25.4141Z" fill="#FFB600"/>
<path d="M18.3512 25.705C18.1466 25.9976 17.9421 26.2901 17.7376 26.5826C17.7283 26.5797 17.7189 26.5769 17.7096 26.574C17.7084 26.5506 17.6969 26.5198 17.7077 26.5048C17.9005 26.2328 18.0959 25.9626 18.2917 25.6927C18.2966 25.686 18.3123 25.6871 18.3231 25.6846C18.3324 25.6915 18.3418 25.6982 18.3512 25.705Z" fill="#FFB600"/>
<path d="M19.1266 20.4316C19.0587 20.7626 18.7637 20.8976 18.5469 21.1001C18.7025 20.8448 18.9013 20.6268 19.1266 20.4316Z" fill="#FFB600"/>
<path d="M18.0703 21.8371C18.3011 21.5912 18.5521 21.3661 18.8287 21.1572C18.821 21.1804 18.8202 21.2112 18.8045 21.2257C18.5706 21.4412 18.3348 21.6546 18.0994 21.8685C18.0898 21.8581 18.08 21.8476 18.0703 21.8371Z" fill="#FFB600"/>
<path d="M20.0241 28.4005C20.0241 28.4392 20.0396 28.4886 20.0215 28.515C19.9403 28.6333 19.8498 28.7453 19.7619 28.859C19.7236 28.9086 19.6855 28.8971 19.6328 28.8385C19.7498 28.6917 19.8689 28.5421 19.9881 28.3926C20.0001 28.3952 20.0122 28.3978 20.0241 28.4005Z" fill="#FFB600"/>
<path d="M20.1421 28.6631C20.2237 28.8289 20.0772 28.8817 20.0369 28.971C20.0145 29.0206 20.0023 29.0151 19.8984 28.9798C19.977 28.8777 20.0515 28.7809 20.1421 28.6631Z" fill="#FFB600"/>
<path d="M20.3543 29.1783C20.2704 29.1474 20.2274 29.1316 20.168 29.1097C20.2082 29.0553 20.2365 29.017 20.2793 28.959C20.3047 29.0331 20.322 29.0839 20.3543 29.1783Z" fill="#FFB600"/>
</svg>
