<svg xmlns="http://www.w3.org/2000/svg" width="46" height="45" fill="none"><rect width="45" height="45" x=".117" fill="#3C5AA4" rx="22.5"/><path fill="#E2BE47" d="m33.334 19.552-20.217 2.526 1.854 14.834 20.217-2.526z"/><path fill="#4E8B5C" d="M28.486 8.292c-1.673-1.218-4.545 3.46-5.24 4.406a.81.81 0 0 0-.641-.448 2.2 2.2 0 0 0-1.055.131.81.81 0 0 0-.492.517c-.938-.774-4.707-4.5-6.013-2.927-1.514 1.822.655 5.246.655 5.246s-.814 3.503 1.63 3.034c2.268-.435 4.183-1.642 4.449-1.815a.8.8 0 0 0 .29.09c.382.04.692 0 1.053-.132a.8.8 0 0 0 .319-.216c.607.195 2.76.826 4.866.701 2.486-.147.834-3.342.834-3.342s1.26-3.852-.655-5.245"/><path fill="#E2BE47" d="M34.884 19.356 10.67 22.382l-.624-4.996 24.827-2.877z"/><path fill="#4E8B5C" d="m24.455 15.062-3.834.479 2.536 20.29 3.833-.479z"/><path stroke="#333331" stroke-linecap="round" stroke-linejoin="round" stroke-miterlimit="10" stroke-width=".254" d="M21.388 15.174s-.778-1.498-.395-2.102M23.242 12.697s.658 1.146.393 2.197"/><path stroke="#333331" stroke-linecap="round" stroke-linejoin="round" stroke-miterlimit="10" stroke-width=".254" d="M20.898 13.701s-4.59.461.278 1M23.578 13.239s5.39-.867.123.985"/><path stroke="#333331" stroke-miterlimit="10" stroke-width=".254" d="m10.3 22.28 24.213-3.025"/></svg>