<svg xmlns="http://www.w3.org/2000/svg" width="44" height="45" fill="none"><path fill="#FBFF00" d="m43.867 27.626-4.733 3.262.343 5.738-5.682.876-2.182 5.32-5.501-1.668L21.839 45l-4.23-3.898-5.518 1.617-2.123-5.343-5.67-.947.406-5.736L0 27.388l2.854-4.99L.06 17.374l4.733-3.262-.343-5.738 5.682-.876 2.182-5.32 5.501 1.667L22.088 0l4.23 3.897 5.518-1.616 2.124 5.343 5.67.947-.407 5.735 4.704 3.307-2.854 4.99z"/><path fill="#4E8B5C" d="M33.168 22.052a3.126 3.126 0 0 1-3.347 2.89l-15.98-1.169a3.127 3.127 0 0 1-2.891-3.346l.48-6.561a3.127 3.127 0 0 1 3.346-2.89l15.98 1.168a3.127 3.127 0 0 1 2.89 3.346z"/><path fill="#E2BE47" d="M18.304 18.386a.683.683 0 0 1-.73.631l-3.488-.255a.68.68 0 0 1-.631-.73l.105-1.432a.683.683 0 0 1 .73-.631l3.488.255a.68.68 0 0 1 .631.73z"/><path stroke="#333331" stroke-miterlimit="10" stroke-width=".301" d="m15.962 16.09-.204 2.794M13.578 17.321l4.78.35"/><path fill="#E2BE47" stroke="#333331" stroke-miterlimit="10" stroke-width=".301" d="m14.95 16.992-.063.86 1.868.137.063-.86z"/><path stroke="#333331" stroke-miterlimit="10" stroke-width=".903" d="m13.168 20.154 10.22.748"/><path fill="#ECEEE5" d="M30.637 15.902a1.91 1.91 0 1 1-3.812-.28 1.91 1.91 0 0 1 3.812.28"/><path fill="#3971FA" d="M12.21 31.333q-.02.257-.082.564-.061.301-.178.61a3.3 3.3 0 0 1-.296.587q-.18.28-.436.488a1.8 1.8 0 0 1-.588.322 2 2 0 0 1-.772.082 2.1 2.1 0 0 1-.751-.184 1.8 1.8 0 0 1-.533-.382 2 2 0 0 1-.344-.523 3 3 0 0 1-.195-.61 4 4 0 0 1-.079-.633q-.007-.32.013-.604.037-.5.204-.968.168-.472.466-.829.302-.356.725-.556.429-.2.982-.16a1.84 1.84 0 0 1 1.163.508q.216.21.357.484.144.273.229.573t.11.617q.027.318.005.614m-1.55.034q.006-.102.009-.253a3 3 0 0 0-.04-.666 1.4 1.4 0 0 0-.076-.308.7.7 0 0 0-.139-.228.3.3 0 0 0-.206-.1.3.3 0 0 0-.214.065.7.7 0 0 0-.17.197q-.071.123-.127.284-.052.156-.09.318a6 6 0 0 0-.058.307q-.02.146-.027.247a3 3 0 0 0-.004.356q.007.21.055.404t.144.34q.1.14.278.153a.36.36 0 0 0 .288-.103.9.9 0 0 0 .203-.288q.08-.176.12-.373a3 3 0 0 0 .053-.352m5.576-4.245q-.076.31-.13.613-.048.3-.07.59l-.013.182a2 2 0 0 0-.004.182.7.7 0 0 0-.246-.285.65.65 0 0 0-.308-.11.5.5 0 0 0-.211.028.5.5 0 0 0-.187.12.7.7 0 0 0-.14.212 1 1 0 0 0-.067.306l1.11.037q-.064.2-.097.411a7 7 0 0 0-.064.934q-.276-.055-.526-.1a4 4 0 0 0-.529-.07 45 45 0 0 0-.113 1.303q-.051.7-.066 1.388-.01.688.066 1.348a5 5 0 0 0-1.023-.177 5.8 5.8 0 0 0-1.096.022q.134-.43.228-.93t.16-1.021q.067-.52.12-1.032l.092-.963q-.143-.002-.312.004a4 4 0 0 0-.312.013 9 9 0 0 0 .063-.374 5 5 0 0 0 .056-.707 3 3 0 0 0-.014-.353l.67.085q.032-.46.176-.832.147-.376.402-.634.255-.261.615-.386a2.04 2.04 0 0 1 1.094-.054q.114.026.217.07.105.038.212.086.108.044.247.094m3.433.25q-.076.311-.13.614a7 7 0 0 0-.083.772 2 2 0 0 0-.004.182.7.7 0 0 0-.246-.285.65.65 0 0 0-.308-.111.52.52 0 0 0-.398.149.7.7 0 0 0-.14.212 1 1 0 0 0-.066.306l1.109.037q-.064.2-.097.411a7 7 0 0 0-.064.934q-.277-.055-.526-.1a4 4 0 0 0-.529-.07 45 45 0 0 0-.113 1.303 27 27 0 0 0-.066 1.388q-.01.688.066 1.348a5 5 0 0 0-1.023-.177 5.7 5.7 0 0 0-1.096.022q.134-.431.228-.931t.16-1.02q.068-.52.12-1.032l.092-.963q-.142-.002-.312.004-.168 0-.312.013.036-.195.063-.374a5 5 0 0 0 .056-.707 3 3 0 0 0-.014-.353l.67.085q.033-.46.176-.832.149-.376.402-.634.255-.261.616-.386a2.04 2.04 0 0 1 1.093-.054q.114.026.218.07.104.038.211.086.108.044.247.094m3.607 3.231a2.2 2.2 0 0 1-.145.639 1.3 1.3 0 0 1-.372.533 1.7 1.7 0 0 1-.675.342q-.413.117-1.037.071.002.219.062.37a.731.731 0 0 0 .367.396 1.2 1.2 0 0 0 .37.106l.067.005a1.4 1.4 0 0 0 .69-.203 1 1 0 0 0 .172-.152q.082-.09.135-.208a.9.9 0 0 0 .078-.279q.095.296.12.552.03.25.015.468a1.8 1.8 0 0 1-.2.724 1.7 1.7 0 0 1-.436.546q-.27.224-.629.332-.355.112-.762.082a2.2 2.2 0 0 1-.76-.193 1.8 1.8 0 0 1-.623-.482 2.2 2.2 0 0 1-.399-.812q-.132-.49-.083-1.171a3.8 3.8 0 0 1 .308-1.294q.255-.555.64-.914.388-.363.871-.528.487-.169 1.006-.131.255.019.487.093.234.075.402.221.172.146.262.366.09.216.069.521m-2.193.854a1.3 1.3 0 0 0 .61-.138.8.8 0 0 0 .259-.19.44.44 0 0 0 .122-.276.2.2 0 0 0-.059-.169.27.27 0 0 0-.176-.075.47.47 0 0 0-.286.068.9.9 0 0 0-.224.206 1.3 1.3 0 0 0-.158.282q-.065.156-.088.292m4.968-.549a.4.4 0 0 0-.253.062.7.7 0 0 0-.215.202 1.7 1.7 0 0 0-.175.32q-.075.191-.133.422-.027.376-.038.763a13 13 0 0 0 .05 1.507q.04.363.11.693l-.163-.026a12 12 0 0 0-.45-.046 9 9 0 0 0-.64-.02 9 9 0 0 0-.803.03 6 6 0 0 0 .138-.599q.066-.355.123-.774t.104-.873a24 24 0 0 0 .122-1.556 18 18 0 0 0 .016-1.129 5 5 0 0 0-.032-.416q.354.088.644.136a7 7 0 0 0 .795.076q.116 0 .2-.003.095-.007.17-.014a4 4 0 0 0-.115.485q.25-.262.53-.375.285-.113.523-.095.398.03.662.195.264.162.415.408.15.242.205.545.053.3.031.607a2 2 0 0 1-.127.573 1.7 1.7 0 0 1-.28.491q-.176.21-.42.33-.245.12-.54.098a.912.912 0 0 1-.724-.373.96.96 0 0 1-.184-.667q.014-.177.074-.342.066-.164.173-.294a.5.5 0 0 0 .064.156.34.34 0 0 0 .205.117q.164.012.249-.057a.23.23 0 0 0 .097-.171.4.4 0 0 0-.01-.112.33.33 0 0 0-.18-.218.5.5 0 0 0-.218-.056m4.697-2.192a8 8 0 0 0-.363.89q-.16.474-.28.98-.123.507-.205 1.035a14 14 0 0 0-.137 1.378l-.006.328a3 3 0 0 0-.429-.098 4 4 0 0 0-.938-.055 12 12 0 0 0 .067-.68q.041-.562.034-1.132a14 14 0 0 0-.045-1.084 9 9 0 0 0-.114-.938 4 4 0 0 0-.176-.702q.153.033.378.063a13 13 0 0 0 1.431.078q.231 0 .433-.017.2-.016.35-.046m-2.744 5.657a.9.9 0 0 1 .097-.353q.088-.166.221-.286a.9.9 0 0 1 .311-.177.91.91 0 0 1 .726.053.91.91 0 0 1 .463.536.912.912 0 0 1-.053.726.9.9 0 0 1-.22.282 1 1 0 0 1-.316.172.91.91 0 0 1-.726-.053 1 1 0 0 1-.282-.216 1 1 0 0 1-.177-.311 1 1 0 0 1-.044-.373"/></svg>