<svg width="45" height="45" viewBox="0 0 45 45" fill="none" xmlns="http://www.w3.org/2000/svg">
<rect x="0.117188" width="44.8893" height="45" rx="22.4447" fill="#C64027"/>
<path d="M41.6427 20.1151L25.6678 22.8191L40.7884 28.6367L25.2265 24.1235L36.3263 35.9282L24.2501 25.1268L29.1266 40.5767L22.9484 25.596L20.6471 41.6362L21.5714 25.4615L12.5244 38.9026L20.378 24.7293L6.40542 32.9333L19.6292 23.5739L3.48047 24.8843L19.4553 22.1807L4.33481 16.3631L19.8966 20.876L8.79657 9.07157L20.8731 19.873L15.9963 4.42314L22.1744 19.4037L24.4758 3.36328L23.5515 19.5383L32.5988 6.09718L24.7449 20.2702L38.7174 12.0661L25.4936 21.4259L41.6427 20.1151Z" fill="#E48CDB"/>
</svg>
