<svg xmlns="http://www.w3.org/2000/svg" width="47" height="45" fill="none"><path fill="#4E8B5C" d="m39.897 39.137 6.22-22.5L29.743 0 7.146 5.863l-6.22 22.5L17.3 45z"/><path fill="#C64027" d="M26.363 38.315a7.835 7.835 0 1 0-12.252-9.768 7.835 7.835 0 0 0 12.252 9.768"/><path fill="#E2BE47" d="M24.826 37.687a6.256 6.256 0 1 0-9.156-8.528 6.256 6.256 0 0 0 9.156 8.528"/><path fill="#C64027" d="m18.579 37.352.262-.95c-.661-.214-1.26-.573-1.58-.898l.623-1.085c.356.346.887.718 1.537.898.569.157 1.019.045 1.13-.355.105-.38-.149-.707-.819-1.16-.97-.656-1.56-1.357-1.292-2.325.243-.879 1.053-1.397 2.18-1.312l.261-.948.98.27-.244.88c.66.214 1.072.478 1.357.73l-.602 1.048c-.229-.182-.625-.539-1.344-.738-.649-.18-.936.042-1.013.322-.091.33.2.636.961 1.19 1.072.748 1.4 1.43 1.152 2.329-.246.889-1.085 1.474-2.29 1.356l-.28 1.019z"/><path fill="#E2BE47" d="M24.355 7.674q-.112.193-.236.484-.117.288-.245.637-.128.345-.252.72l-.237.74q-.27.855-.541 1.821a8 8 0 0 1-.339.974q-.192.465-.449.852a3.8 3.8 0 0 1-.57.692 2.5 2.5 0 0 1-.702.473 2.4 2.4 0 0 1-.825.204 2.8 2.8 0 0 1-.963-.106 3.2 3.2 0 0 1-.806-.33 1.7 1.7 0 0 1-.507-.444 1.2 1.2 0 0 1-.223-.526 1.4 1.4 0 0 1 .044-.586q.084-.302.255-.517.172-.213.388-.34a1.2 1.2 0 0 1 .449-.154q.237-.03.456.03.282.078.486.305t.239.605a.26.26 0 0 0-.133-.08.33.33 0 0 0-.238.031.3.3 0 0 0-.16.196.3.3 0 0 0-.01.13.24.24 0 0 0 .05.105.3.3 0 0 0 .084.066.4.4 0 0 0 .095.042q.055.015.154.022a.54.54 0 0 0 .24-.036 1 1 0 0 0 .295-.18 1.8 1.8 0 0 0 .333-.393q.173-.261.35-.688.182-.425.356-1.055a2.6 2.6 0 0 1-.44.626q-.219.212-.423.294a.84.84 0 0 1-.39.058 2 2 0 0 1-.335-.06 1.6 1.6 0 0 1-.292-.124 2 2 0 0 1-.35-.257 2.4 2.4 0 0 1-.336-.408 2.1 2.1 0 0 1-.246-.575 3 3 0 0 1-.089-.761q.008-.43.156-.971.231-.834.558-1.362.333-.527.698-.805.372-.282.741-.345.372-.068.684.018.223.062.386.187.165.12.28.28t.189.34q.074.177.122.35.03-.227.046-.457.021-.23.028-.468.11.089.28.184.149.084.378.18.23.09.568.183.396.11.949.199m-2.8 1.905q.038-.139.071-.338.036-.204.03-.397a1 1 0 0 0-.067-.355.3.3 0 0 0-.213-.198q-.113-.03-.245.077-.13.102-.251.272-.115.165-.21.353-.09.189-.128.327-.066.239-.11.493-.043.255-.045.473.005.216.053.367.054.154.173.187a.45.45 0 0 0 .245.004.6.6 0 0 0 .22-.121.8.8 0 0 0 .177-.218q.078-.127.122-.287zm7.19.478q-.102.372-.309.694-.201.323-.544.522a1.96 1.96 0 0 1-.845.236q-.497.039-1.196-.155-.047.249-.013.434.039.187.126.318.087.13.202.216t.218.135a1 1 0 0 0 .253.091q.317.051.594-.006.118-.021.238-.068.12-.053.229-.134a1.059 1.059 0 0 0 .353-.505q.04.357.011.654a3 3 0 0 1-.089.535 2.1 2.1 0 0 1-.391.778q-.262.328-.62.523-.357.195-.79.235a2.4 2.4 0 0 1-.886-.08 2.6 2.6 0 0 1-.82-.392 2.05 2.05 0 0 1-.6-.689 2.6 2.6 0 0 1-.27-1.013q-.04-.588.171-1.352.23-.828.644-1.402.416-.573.936-.894a2.8 2.8 0 0 1 1.11-.403 2.9 2.9 0 0 1 1.174.079q.287.08.532.217.25.138.407.342.162.204.216.476.054.266-.04.608m-2.687.474a1.5 1.5 0 0 0 .725-.019 1 1 0 0 0 .337-.157.5.5 0 0 0 .202-.286.24.24 0 0 0-.028-.206.3.3 0 0 0-.184-.125.54.54 0 0 0-.34.013 1 1 0 0 0-.302.183q-.135.123-.244.285a1.6 1.6 0 0 0-.166.312m7.465-.67a6 6 0 0 0-.18.42 6.5 6.5 0 0 0-.24.869 5 5 0 0 0-.06.447 2 2 0 0 0-.49-.332 7 7 0 0 0-.583-.263l-.118.426q-.155.56-.294 1.141-.138.576-.243 1.129a18 18 0 0 0-.167 1.048q-.059.501-.057.902l-.195-.07-.23-.074a11.067 11.067 0 0 0-1.058-.266 10 10 0 0 0-.94-.153q.435-.92.794-1.943.363-1.024.639-2.022l.163-.59q-.345-.068-.691-.106a7 7 0 0 0-.654-.047 1 1 0 0 0 .074-.134q.04-.086.07-.178.037-.092.061-.181.03-.088.046-.147a7 7 0 0 0 .119-.507 14 14 0 0 0 .089-.514q.21.165.52.32.31.15.64.273.09-.44.151-.818.062-.378.09-.69a8 8 0 0 0 1.33.496q.18.05.319.082a8 8 0 0 0 .464.08q-.12.224-.26.57-.13.342-.287.769.338.055.641.076.309.021.537-.012M13.66 15.143a5 5 0 0 0-.233.475 22 22 0 0 0-.483 1.302l-.227.706q-.255.81-.512 1.716a8 8 0 0 1-.34.979q-.195.474-.454.872-.256.404-.577.716a2.48 2.48 0 0 1-1.541.727q-.45.042-.965-.101a3.2 3.2 0 0 1-.806-.33 1.7 1.7 0 0 1-.507-.444 1.2 1.2 0 0 1-.222-.526 1.4 1.4 0 0 1 .044-.586q.084-.302.256-.521.172-.215.387-.336.214-.123.453-.153.24-.035.457.025a1 1 0 0 1 .482.304q.204.228.239.605a.2.2 0 0 0-.06-.053 1 1 0 0 0-.073-.026.3.3 0 0 0-.24.035.5.5 0 0 0-.101.079.3.3 0 0 0-.06.117.25.25 0 0 0-.004.132q.015.063.046.104.036.042.083.065.051.03.096.043a.596.596 0 0 0 .43-.047q.138-.063.295-.201.16-.138.323-.397a4 4 0 0 0 .326-.64 7 7 0 0 0 .316-.949q-.225.312-.429.49-.198.175-.39.25a.9.9 0 0 1-.37.068 1.6 1.6 0 0 1-.374-.06 1.8 1.8 0 0 1-.487-.226 1.3 1.3 0 0 1-.4-.441 1.8 1.8 0 0 1-.196-.706q-.037-.42.125-1.011l.03-.11.02-.048a.2.2 0 0 1 .016-.043 1 1 0 0 0 .031-.093l.058-.208q.041-.132.11-.375.077-.283.166-.643t.149-.711a5 5 0 0 0 .082-.645q.019-.3-.039-.459.383.18.728.303a10 10 0 0 0 .991.295q.161.034.279.056.13.025.24.04a1.8 1.8 0 0 0-.179.297q-.11.225-.247.546-.136.32-.276.708-.138.383-.249.785a2.7 2.7 0 0 0-.098.528q-.014.226.022.385.043.156.123.248a.43.43 0 0 0 .206.126q.188.052.34-.071a1.5 1.5 0 0 0 .3-.334 27 27 0 0 0 .332-1.605q.083-.457.14-.928.06-.474.07-.893.139.096.34.2.172.09.427.193.255.097.612.196.422.117.969.204m4.328 4.213q-.08.287-.22.622-.14.33-.341.653-.2.319-.47.601-.27.279-.607.457-.334.18-.742.233a2.3 2.3 0 0 1-.896-.083 2.4 2.4 0 0 1-.813-.38 2.1 2.1 0 0 1-.52-.554 2.3 2.3 0 0 1-.272-.673 3.5 3.5 0 0 1-.084-.739q-.003-.375.054-.737.065-.367.152-.684.156-.56.452-1.055.299-.5.717-.837.424-.336.952-.468.532-.13 1.152.04a2.13 2.13 0 0 1 1.209.842q.197.29.295.631.102.345.13.704.03.36-.014.727a5 5 0 0 1-.134.7m-1.771-.314q.032-.114.068-.285a3.7 3.7 0 0 0 .105-.767 1.6 1.6 0 0 0-.016-.367.8.8 0 0 0-.106-.29.35.35 0 0 0-.212-.16.35.35 0 0 0-.258.024.8.8 0 0 0-.238.185 2 2 0 0 0-.21.294q-.093.166-.174.342-.074.171-.135.336a5 5 0 0 0-.087.275q-.045.163-.085.403a2.3 2.3 0 0 0-.029.473q.01.232.087.419a.42.42 0 0 0 .281.238.42.42 0 0 0 .35-.053q.169-.103.297-.28.132-.184.223-.398a3 3 0 0 0 .139-.389m7.435-1.157q-.106.21-.228.497-.117.288-.243.627a23 23 0 0 0-.459 1.448 6 6 0 0 0-.063.249 5.958 5.958 0 0 1-.241.777q-.11.3-.284.6a3.6 3.6 0 0 1-.396.562 2 2 0 0 1-.532.44q-.3.174-.676.224a2 2 0 0 1-.84-.072 2.3 2.3 0 0 1-.675-.299 1.9 1.9 0 0 1-.453-.429 1.8 1.8 0 0 1-.257-.536 2.6 2.6 0 0 1-.101-.599q-.015-.314.027-.638.046-.324.131-.63l.025-.09.012-.024q0-.004.009-.013a.4.4 0 0 0 .027-.078l.056-.203q.044-.138.113-.39.083-.299.175-.673.094-.38.159-.746.07-.37.092-.68.021-.308-.036-.468.382.18.727.302a10 10 0 0 0 .992.296l.278.055q.132.026.24.04-.233.458-.5 1.052a10 10 0 0 0-.48 1.389q-.05.183-.09.386a2.4 2.4 0 0 0-.037.385q0 .176.044.305a.25.25 0 0 0 .169.16.3.3 0 0 0 .26-.036.65.65 0 0 0 .196-.223q.09-.151.15-.348.064-.195.12-.394.172-.646.293-1.216.051-.243.093-.492.047-.25.076-.47.03-.226.038-.406.008-.184-.014-.297.382.18.718.3a9 9 0 0 0 .922.276 8 8 0 0 0 .463.08m2.717 2.064a.5.5 0 0 0-.302.013.8.8 0 0 0-.29.18 2 2 0 0 0-.272.326 4 4 0 0 0-.247.45q-.116.42-.216.858-.099.437-.171.87-.072.435-.114.855a8 8 0 0 0-.032.813l-.18-.065q-.087-.03-.215-.07a8 8 0 0 0-.286-.085 10 10 0 0 0-.723-.168 11 11 0 0 0-.92-.147q.137-.261.293-.65.155-.39.315-.853t.316-.97a27 27 0 0 0 .493-1.742 20 20 0 0 0 .274-1.28q.045-.276.058-.48.383.18.701.3a8 8 0 0 0 .887.267l.229.042.197.022q-.128.231-.242.526.345-.242.688-.306.348-.065.616.01.447.123.709.372.264.244.38.559.116.31.109.665t-.102.698q-.093.332-.274.623a2 2 0 0 1-.43.495 1.5 1.5 0 0 1-.553.28 1.2 1.2 0 0 1-.638-.011 1.2 1.2 0 0 1-.473-.238 1.1 1.1 0 0 1-.266-.35 1.11 1.11 0 0 1-.056-.801q.054-.198.161-.372.112-.172.264-.295a.5.5 0 0 0 .037.192.4.4 0 0 0 .207.18q.182.05.296-.01a.27.27 0 0 0 .149-.172.5.5 0 0 0 .014-.13q0-.075-.039-.149a.4.4 0 0 0-.116-.139.6.6 0 0 0-.236-.113m6.42 1.764a.8.8 0 0 1-.178.336.9.9 0 0 1-.289.213 1.1 1.1 0 0 1-.754.043 1.3 1.3 0 0 1-.376-.163 1 1 0 0 1-.235-.214.8.8 0 0 1-.12-.242 2 2 0 0 1-.046-.237 1 1 0 0 1 .006-.196q.013-.087.026-.131.02.097.085.135a.4.4 0 0 0 .104.05q.113.032.18-.014a.2.2 0 0 0 .083-.11.3.3 0 0 0 .005-.095.23.23 0 0 0-.045-.108.4.4 0 0 0-.108-.11.6.6 0 0 0-.19-.085.5.5 0 0 0-.347.038.51.51 0 0 0-.253.32.64.64 0 0 0 .01.408q.07.184.221.355.157.165.363.33.21.164.428.342.22.173.416.371.203.195.333.434.136.24.178.535.042.294-.059.656a1.9 1.9 0 0 1-.418.781q-.292.32-.683.5a2.3 2.3 0 0 1-.84.2 2.8 2.8 0 0 1-.918-.099 2.9 2.9 0 0 1-.766-.335 2.3 2.3 0 0 1-.572-.5 1.7 1.7 0 0 1-.318-.605 1.2 1.2 0 0 1 .002-.645 1.1 1.1 0 0 1 .196-.4.85.85 0 0 1 .302-.242 1 1 0 0 1 .381-.087q.21-.006.433.056.164.045.318.125t.278.19.212.24.12.278a.7.7 0 0 0-.148-.062.26.26 0 0 0-.19.011q-.075.038-.11.167a.3.3 0 0 0 .05.265.4.4 0 0 0 .226.164.34.34 0 0 0 .159.006q.078-.015.143-.056a.4.4 0 0 0 .11-.108.4.4 0 0 0 .07-.136.57.57 0 0 0-.013-.302.7.7 0 0 0-.174-.316 8 8 0 0 0-.498-.495 24 24 0 0 1-.439-.404 6 6 0 0 1-.352-.364 1.4 1.4 0 0 1-.233-.374 1.3 1.3 0 0 1-.09-.447 2 2 0 0 1 .082-.57q.105-.381.344-.663.244-.285.593-.444.348-.16.797-.18.45-.025.97.119.53.147.859.37.332.225.502.481.175.256.208.522.033.265-.031.498m4.051-1.911a9 9 0 0 0-.614.93q-.289.502-.542 1.05-.254.55-.467 1.131a16 16 0 0 0-.468 1.536l-.081.373a4 4 0 0 0-.466-.209 4.6 4.6 0 0 0-1.055-.276 14 14 0 0 0 .23-.758q.175-.63.296-1.28.128-.653.194-1.243.074-.594.084-1.092a5 5 0 0 0-.04-.839q.166.073.415.158a15 15 0 0 0 1.61.413q.262.051.496.078t.408.028m-4.404 5.812q.06-.213.19-.38.138-.17.317-.275a1.1 1.1 0 0 1 .394-.131 1.06 1.06 0 0 1 .813.224 1.05 1.05 0 0 1 .406.716q.032.21-.027.425-.06.217-.198.388a1.1 1.1 0 0 1-.315.27 1.1 1.1 0 0 1-.398.125 1.057 1.057 0 0 1-.813-.225 1.1 1.1 0 0 1-.272-.31 1.2 1.2 0 0 1-.131-.393 1.1 1.1 0 0 1 .034-.434"/></svg>