<svg xmlns="http://www.w3.org/2000/svg" width="45" height="45" fill="none"><rect width="44.889" height="45" x=".117" fill="#C64027" rx="22.445"/><path fill="#E48CDB" d="M41.643 20.115 25.668 22.82l15.12 5.818-15.561-4.514 11.1 11.805L24.25 25.127l4.877 15.45-6.179-14.981-2.3 16.04.923-16.175-9.047 13.442 7.854-14.174-13.973 8.204 13.224-9.36L3.48 24.885l15.975-2.703-15.12-5.818 15.562 4.513-11.1-11.804 12.076 10.801-4.877-15.45 6.178 14.98 2.302-16.04-.924 16.175 9.047-13.44-7.854 14.172 13.972-8.204-13.223 9.36z"/></svg>