<svg xmlns="http://www.w3.org/2000/svg" width="32" height="32" fill="none"><g clip-path="url(#a)"><path fill="#000" d="M17.732.691a.89.89 0 0 0-.805-.67C16.661.004 16.4 0 16.127 0 6.842 0-.61 7.784.04 17.138.593 25.084 7.128 31.5 15.144 31.973s15.386-5.282 16.842-13.01a.88.88 0 0 0-.395-.89C21.674 11.617 18.644 4.265 17.732.691m-.343 21.963v1.952c0 .229-.154.387-.39.387h-1.578c-.231 0-.39-.153-.39-.387v-1.952c-1.553-.26-2.773-1.027-3.598-1.978-.154-.178-.128-.462.051-.747l.908-1.26c.205-.31.44-.26.645-.102 1.061.798 1.943 1.23 2.927 1.23.856 0 1.425-.336 1.425-1.053 0-.615-.39-.9-1.323-1.286l-1.604-.64c-1.63-.641-2.773-1.719-2.773-3.468 0-2.028 1.476-3.34 3.342-3.696V7.392c0-.229.154-.386.39-.386h1.578c.23 0 .39.152.39.386V9.68a5.4 5.4 0 0 1 2.977 1.8c.154.178.103.386-.025.538l-1.138 1.363c-.18.203-.364.178-.594 0-.83-.691-1.553-1.052-2.307-1.052-.83 0-1.214.462-1.214 1.001 0 .615.517.95 1.214 1.205l1.789.691c1.604.64 2.875 1.744 2.85 3.671-.026 2.13-1.553 3.39-3.547 3.752z"/></g><defs><clipPath id="a"><path fill="#fff" d="M0 0h32v32H0z"/></clipPath></defs></svg>