<svg xmlns="http://www.w3.org/2000/svg" width="32" height="30" fill="none"><g clip-path="url(#a)"><path fill="#000" d="M2.168 1.208a1.786 1.786 0 0 1 2.528 0l4.54 4.55L12.2 2.789a4.015 4.015 0 0 1 5.682 0l8.45 8.465a4.025 4.025 0 0 1 0 5.694L15.705 27.6a5.35 5.35 0 0 1-7.579 0L1.57 21.033a5.377 5.377 0 0 1 0-7.593L6.71 8.24 2.169 3.74a1.794 1.794 0 0 1 0-2.533m9.826 12.373-2.757-2.758-5.14 5.15a1.8 1.8 0 0 0-.468.816h17.81l2.365-2.364a.457.457 0 0 0 0-.638l-8.445-8.465a.454.454 0 0 0-.636 0L11.764 8.29l2.753 2.763c.697.699.697 1.829 0 2.528a1.78 1.78 0 0 1-2.523 0m12.868 12.156c0-1.407 1.82-4.45 2.855-6.078a.844.844 0 0 1 1.428 0C30.184 21.287 32 24.326 32 25.737c0 1.975-1.6 3.579-3.572 3.579a3.577 3.577 0 0 1-3.571-3.579z"/></g><defs><clipPath id="a"><path fill="#fff" d="M0 .684h32v28.632H0z"/></clipPath></defs></svg>