<svg xmlns="http://www.w3.org/2000/svg" width="32" height="34" fill="none"><path fill="#000" d="M14.448 14.69c-.257.717-.171 1.542-.19 2.295-.02.753-.057 1.526-.11 2.285-.059.849 1.148 1.095 1.55.418a67 67 0 0 1 4.586-6.806c1.674-2.167 3.436-4.19 5.251-6.195 1.056-1.168 2.138-2.305 3.13-3.525.297-.362.356-.871 0-1.223a.863.863 0 0 0-1.223 0c-2.002 1.927-3.83 4.064-5.629 6.181s-3.574 4.364-5.152 6.698a38 38 0 0 0-2.397 4.031l1.548.418c.004-.782-.01-1.568-.04-2.35-.029-.784-.019-1.625-.36-2.355-.208-.444-.823-.26-.96.125z"/><path fill="#000" fill-rule="evenodd" d="M22.973 10.73a9.35 9.35 0 0 1 2.403 6.272 9.38 9.38 0 0 1-9.38 9.38 9.38 9.38 0 0 1-9.382-9.38 9.38 9.38 0 0 1 9.381-9.381c1.577 0 3.063.389 4.368 1.076q.442-.533.885-1.056.445-.524.895-1.05l-.167.08a2.11 2.11 0 0 1-2.897-1.2l-1.088-3.065c-.668-1.875-3.314-1.875-3.982 0L12.921 5.47a2.11 2.11 0 0 1-2.897 1.2L7.088 5.273c-1.796-.855-3.67 1.02-2.815 2.815l1.397 2.936a2.11 2.11 0 0 1-1.2 2.897l-3.064 1.088c-1.875.668-1.875 3.314 0 3.982l3.064 1.088a2.11 2.11 0 0 1 1.2 2.897l-1.397 2.937c-.855 1.795 1.02 3.669 2.815 2.814l2.936-1.397a2.11 2.11 0 0 1 2.897 1.2l1.088 3.064c.668 1.874 3.314 1.874 3.982 0l1.088-3.064a2.11 2.11 0 0 1 2.897-1.2l2.937 1.397c1.795.855 3.669-1.02 2.814-2.814l-1.397-2.937a2.11 2.11 0 0 1 1.2-2.897l3.064-1.088c1.874-.668 1.874-3.314 0-3.982l-3.064-1.088a2.11 2.11 0 0 1-1.2-2.897l1.397-2.936c.41-.862.192-1.741-.344-2.329l-.533.583q-.387.423-.767.841a131 131 0 0 0-3.11 3.547m-.519-.533a132 132 0 0 1 3.08-3.51q.39-.43.781-.856l.482-.528a2.06 2.06 0 0 0-1.884-.03l-1.108.527a204 204 0 0 0-2.793 3.273q.777.494 1.442 1.124" clip-rule="evenodd"/></svg>