<svg xmlns="http://www.w3.org/2000/svg" width="36" height="30" fill="none"><path fill="#F7DE61" d="M21.205 23.367c7.692-3.187 12.328-9.63 10.356-14.392-1.973-4.76-9.808-6.036-17.5-2.849C6.369 9.314 1.732 15.757 3.705 20.518s9.808 6.036 17.5 2.849"/><path fill="#B27E09" d="M32.01 11.01c-.117 1.425-1.202 2.982-2.248 4.54-3.792 5.648-12.542 9.502-19.505 8.592-3.065-.401-5.28-1.66-6.477-3.424-.053.065.668 3.612 3.676 4.979 3.358 1.526 9.803 1.787 15.63-1.156 8.037-4.06 8.64-8.276 8.925-9.152.545-1.682.055-4.35 0-4.378"/><path fill="#E9B522" d="M20.62 21.954c6.431-2.665 10.307-8.052 8.658-12.032s-8.2-5.047-14.631-2.383c-6.432 2.665-10.308 8.053-8.658 12.033 1.649 3.98 8.2 5.047 14.63 2.382"/><path fill="#F7DE61" d="M10.756 24.994c-6.963-.91-9.543-6.246-5.751-11.893S17.547 3.599 24.51 4.51c6.963.91 9.543 6.245 5.751 11.892-3.792 5.648-12.542 9.502-19.505 8.592M23.382 6.189c-5.821-.761-13.137 2.46-16.307 7.182s-1.013 9.183 4.808 9.943c5.822.762 13.138-2.46 16.308-7.183 3.17-4.721 1.013-9.182-4.809-9.942"/><path fill="#CE9811" d="M18.495 18.936q-1.272.55-2.777.536l-.887 1.32-1.496-.195.87-1.297q-.942-.188-1.618-.548-.675-.36-1.019-.87l1.397-1.034q.732.976 2.158 1.252l1.661-2.474q-.846-.33-1.358-.663-.51-.332-.642-.873-.13-.541.388-1.315a3.9 3.9 0 0 1 1.183-1.12 6.2 6.2 0 0 1 1.698-.735 6.7 6.7 0 0 1 1.935-.232l.887-1.32 1.496.195-.879 1.308q.795.194 1.375.542t.839.796l-1.397 1.033q-.591-.853-1.742-1.159l-1.733 2.581q.846.332 1.336.647.49.316.619.838.128.521-.375 1.271-.647.964-1.919 1.515m-1.474-5.278q.18.3.706.564l1.541-2.296a3.3 3.3 0 0 0-1.27.287 2.1 2.1 0 0 0-.878.727q-.28.415-.099.718m.639 4.276a2.05 2.05 0 0 0 .83-.714q.247-.368.077-.636-.171-.27-.683-.504l-1.43 2.13q.687-.027 1.206-.276"/><path fill="#FFF2BD" d="M5.775 13.202c3.721-5.543 12.22-9.358 19.116-8.637a15 15 0 0 0-.381-.055C17.547 3.6 8.796 7.454 5.005 13.1c-3.792 5.648-1.212 10.983 5.751 11.894q.194.024.389.045c-6.675-1.053-9.092-6.295-5.37-11.837"/><path fill="#CE9811" d="M23.384 6.189a13 13 0 0 0-.34-.04c5.568.886 7.583 5.264 4.474 9.895s-10.204 7.818-15.967 7.222q.164.026.334.049c5.821.76 13.137-2.462 16.307-7.183 3.17-4.722 1.013-9.182-4.808-9.943"/><path fill="#F7DE61" d="M16.925 13.346q.18.302.706.564l1.542-2.296a3.3 3.3 0 0 0-1.27.287 2.1 2.1 0 0 0-.878.727q-.28.416-.1.718m.64 4.276a2.05 2.05 0 0 0 .83-.714q.247-.368.076-.637-.171-.267-.683-.503l-1.43 2.13q.688-.027 1.206-.276m.834 1.002q-1.272.55-2.777.536l-.887 1.32-1.496-.195.871-1.297q-.943-.188-1.618-.548t-1.02-.87l1.397-1.034q.732.976 2.158 1.252l1.662-2.474q-.848-.33-1.358-.663-.511-.332-.643-.873-.13-.541.388-1.315a3.9 3.9 0 0 1 1.183-1.12 6.2 6.2 0 0 1 1.699-.735 6.7 6.7 0 0 1 1.935-.232l.886-1.32 1.496.195-.878 1.308q.795.195 1.375.542t.838.796l-1.396 1.034q-.593-.854-1.743-1.16l-1.733 2.581q.846.332 1.337.647.489.316.618.838.128.522-.375 1.271-.647.964-1.919 1.515"/></svg>