<svg xmlns="http://www.w3.org/2000/svg" width="88" height="83" fill="none"><path fill="#fff" d="M79.885 36.12a32.34 32.34 0 0 1-2.547 17.652 33.14 33.14 0 0 1-11.555 13.78 33.7 33.7 0 0 1-17.126 5.813 33.4 33.4 0 0 1-17.604-3.884L15.53 75.797l4.698-15.711a32.16 32.16 0 0 1-4.96-28.19 32.85 32.85 0 0 1 7.274-12.89 33.5 33.5 0 0 1 12.248-8.482 33.7 33.7 0 0 1 14.74-2.357 33.3 33.3 0 0 1 14.247 4.246 32.6 32.6 0 0 1 10.867 9.988 32.14 32.14 0 0 1 5.286 13.708z"/><path fill="#263238" d="M79.885 36.12a32.6 32.6 0 0 1-2.526 17.657 37 37 0 0 1-2.09 4.032 37 37 0 0 1-2.709 3.678 33.8 33.8 0 0 1-14.875 10.35c-1.475.521-2.988.928-4.525 1.218a29 29 0 0 1-4.571.642 33.56 33.56 0 0 1-17.85-3.791l.424.021-15.42 6.402-1.123.468.34-1.16 4.603-15.703.133.537a32.53 32.53 0 0 1-6.294-21.275c.459-7.613 3.572-14.856 8.811-20.503a33.6 33.6 0 0 1 12.477-8.474 33.55 33.55 0 0 1 14.861-2.3 33.1 33.1 0 0 1 14.305 4.426 32.74 32.74 0 0 1 10.798 10.052 32.3 32.3 0 0 1 5.23 13.722m0 0a31.8 31.8 0 0 0-5.252-13.674 32.2 32.2 0 0 0-10.86-9.931A32.9 32.9 0 0 0 49.54 8.372a33.3 33.3 0 0 0-14.672 2.5 32.8 32.8 0 0 0-12.012 8.469 33.6 33.6 0 0 0-7.079 12.723 31.7 31.7 0 0 0-.751 14.432 32.2 32.2 0 0 0 5.681 13.25l.192.252-.09.292-4.693 15.662-.783-.693 15.578-6.219.212-.053.204.108a32.86 32.86 0 0 0 17.348 3.979 26 26 0 0 0 4.496-.56 30 30 0 0 0 4.41-1.094 33 33 0 0 0 8.133-3.994 30.9 30.9 0 0 0 6.741-6.04 28.9 28.9 0 0 0 4.832-7.639 32.6 32.6 0 0 0 2.598-17.628"/><path fill="#FF81AE" d="M62.176 43.342A43.2 43.2 0 0 1 51.5 58.239a43.1 43.1 0 0 1-16.367-8.195c-6.312-5.02-8.487-14.77-2.187-18.562 7.002-4.205 13.42 6.044 13.42 6.044s.976-12.16 9.06-11.616c7.33.494 9.972 10.049 6.75 17.432"/></svg>