<svg xmlns="http://www.w3.org/2000/svg" width="51" height="52" fill="none"><path fill="#E9B522" d="M39.867 32.254c3.51-8.623-.209-18.286-8.307-21.583s-17.508 1.023-21.018 9.646.208 18.287 8.306 21.583c8.098 3.297 17.509-1.022 21.02-9.646"/><path fill="#F7DE61" d="M12.163 41.483c-7.704-7.163-8.12-19.81-.926-28.19S30.55 3.92 38.254 11.084s8.12 19.81.926 28.19c-7.193 8.382-19.313 9.372-27.017 2.209m23.952-27.907c-6.44-5.99-16.574-5.16-22.588 1.846s-5.667 17.58.774 23.57c6.442 5.988 16.575 5.16 22.589-1.847s5.666-17.58-.775-23.57"/><path fill="#FFF2BD" d="M12.089 14.085c7.06-8.226 18.865-9.332 26.584-2.597a18 18 0 0 0-.42-.404C30.55 3.921 18.43 4.912 11.238 13.293c-7.194 8.38-6.778 21.027.926 28.19q.214.2.432.388c-7.296-7.226-7.567-19.56-.506-27.786"/><path fill="#CE9811" d="M36.117 13.576a15 15 0 0 0-.38-.34c6.085 6.044 6.305 16.344.408 23.216-5.898 6.87-15.756 7.8-22.21 2.186q.181.18.367.354c6.442 5.989 16.575 5.16 22.589-1.847s5.667-17.58-.774-23.57"/><path fill="#CE9811" d="M27.086 35.19q-1.616.704-3.664.169l-.934 2.407-2.073-.9.917-2.365a10 10 0 0 1-2.311-1.663 7.7 7.7 0 0 1-1.563-2.124l1.685-1.65q1.195 2.243 3.19 3.287l1.75-4.511q-1.218-.96-1.98-1.811a4.64 4.64 0 0 1-1.052-2.003q-.288-1.153.258-2.562.454-1.172 1.378-1.898a4.7 4.7 0 0 1 2.157-.939q1.234-.21 2.582.172l.934-2.408 2.073.9-.926 2.387a9.2 9.2 0 0 1 1.98 1.57q.859.906 1.301 1.909l-1.685 1.65q-.978-1.946-2.605-2.957l-1.826 4.706q1.218.96 1.948 1.772t1.012 1.922q.28 1.111-.249 2.477-.682 1.758-2.297 2.462m-3.084-11.302q.306.679 1.075 1.392l1.624-4.186q-.95-.183-1.666.163-.718.348-1.045 1.194-.295.759.012 1.437m1.744 8.97q.653-.337.982-1.183.26-.672-.027-1.278t-1.031-1.26l-1.507 3.883q.93.175 1.583-.162"/><path fill="#F7DE61" d="M23.81 23.218q.307.678 1.075 1.392l1.624-4.186q-.95-.185-1.666.163-.717.348-1.045 1.194-.294.759.012 1.437m1.744 8.97q.654-.338.982-1.183.26-.673-.026-1.279-.288-.606-1.031-1.26l-1.507 3.883q.93.176 1.582-.161m1.34 2.33q-1.616.705-3.663.17l-.935 2.408-2.073-.9.918-2.365a10 10 0 0 1-2.311-1.664 7.7 7.7 0 0 1-1.563-2.123l1.685-1.65q1.195 2.242 3.19 3.286l1.75-4.511q-1.219-.96-1.98-1.811a4.65 4.65 0 0 1-1.052-2.003q-.29-1.152.258-2.562.454-1.17 1.378-1.898a4.7 4.7 0 0 1 2.157-.938q1.233-.21 2.582.171l.934-2.407 2.072.9-.925 2.386a9.2 9.2 0 0 1 1.98 1.57q.858.905 1.3 1.91l-1.684 1.65q-.98-1.946-2.605-2.958l-1.827 4.707q1.218.96 1.949 1.772.73.81 1.011 1.922.282 1.11-.248 2.477-.683 1.757-2.298 2.462"/></svg>