<svg xmlns="http://www.w3.org/2000/svg" width="45" height="46" fill="none"><path fill="#E9B522" d="M34.288 17.04C30.924 9.929 22.784 6.725 16.106 9.884s-9.364 11.485-6 18.596c3.364 7.11 11.505 10.314 18.182 7.156 6.678-3.16 9.364-11.485 6-18.596"/><path fill="#F7DE61" d="M24.21 39.56c-8.86.705-16.971-6.26-18.08-15.525-1.11-9.266 5.196-17.377 14.056-18.082s16.97 6.259 18.08 15.524c1.11 9.266-5.196 17.378-14.056 18.083M20.515 8.707c-7.407.59-12.68 7.372-11.752 15.118s7.71 13.57 15.117 12.98 12.68-7.371 11.752-15.118-7.709-13.57-15.116-12.98"/><path fill="#FFF2BD" d="M7.11 23.957C6.02 14.863 12.074 6.88 20.676 5.922q-.245.012-.491.03c-8.86.706-15.166 8.817-14.057 18.083 1.11 9.265 9.22 16.23 18.08 15.525q.247-.02.49-.048c-8.667.416-16.501-6.461-17.59-15.555"/><path fill="#CE9811" d="M20.516 8.707q-.216.018-.428.042c7.238-.336 13.777 5.41 14.687 13.006.91 7.597-4.143 14.265-11.324 15.076q.213-.008.43-.026c7.407-.59 12.679-7.371 11.752-15.118-.928-7.747-7.71-13.57-15.117-12.98"/><path fill="#CE9811" d="M28.815 26.674q-.484 1.409-1.988 2.378l.966 1.957-1.745.776-.948-1.922a8.5 8.5 0 0 1-2.356.489 6.5 6.5 0 0 1-2.215-.24l-.064-1.992q2.079.537 3.868-.108l-1.81-3.667q-1.293.21-2.258.199a3.9 3.9 0 0 1-1.848-.49q-.882-.478-1.447-1.623a3.7 3.7 0 0 1-.395-1.942q.075-.99.648-1.88.574-.888 1.581-1.509l-.965-1.957 1.745-.776.956 1.94a7.7 7.7 0 0 1 2.108-.336 5.7 5.7 0 0 1 1.932.28l.065 1.991q-1.77-.502-3.329-.067l1.887 3.826q1.294-.21 2.216-.201a3.8 3.8 0 0 1 1.775.468q.852.459 1.4 1.57.705 1.428.22 2.836m-8.798-4.535q.598.197 1.48.126l-1.678-3.402q-.657.486-.85 1.13-.193.645.146 1.333.305.616.902.813m6.581 4.038q.163-.6-.176-1.287-.27-.546-.811-.714-.542-.167-1.373-.078l1.557 3.156q.64-.479.803-1.077"/><path fill="#F7DE61" d="M19.49 21.875q.598.197 1.48.126L19.292 18.6q-.657.486-.85 1.13-.194.645.146 1.333.304.617.902.813m6.58 4.038q.164-.6-.175-1.287-.27-.546-.811-.714-.543-.167-1.373-.077l1.556 3.155q.64-.479.804-1.077m2.217.497q-.484 1.409-1.987 2.378l.965 1.957-1.744.776-.948-1.922a8.5 8.5 0 0 1-2.356.49 6.5 6.5 0 0 1-2.215-.24l-.065-1.993q2.08.537 3.868-.108l-1.808-3.667q-1.294.21-2.26.2a3.9 3.9 0 0 1-1.847-.49q-.882-.478-1.448-1.624a3.7 3.7 0 0 1-.395-1.942q.075-.99.648-1.879t1.582-1.51l-.966-1.956 1.745-.776.957 1.939a7.7 7.7 0 0 1 2.108-.336 5.7 5.7 0 0 1 1.932.28l.065 1.992q-1.77-.502-3.33-.067l1.888 3.825q1.294-.21 2.216-.201a3.8 3.8 0 0 1 1.775.468q.852.46 1.4 1.57.705 1.428.22 2.836"/></svg>