<svg xmlns="http://www.w3.org/2000/svg" width="140" height="104" fill="none"><path fill="#fff" d="M26.691 103.152a10.2 10.2 0 0 1-9.356-6.13L.855 59.18a10.13 10.13 0 0 1-.143-7.804 10.13 10.13 0 0 1 5.183-5.512 3.62 3.62 0 0 1 1.337-4.033l6.842-4.91-1.382-8.516a3.614 3.614 0 0 1 6.22-3.036l5.025 5.425 7.56-3.242a3.6 3.6 0 0 1 2.723-.051c.316-2.479 1.513-4.449 3.567-5.698 1.28-.777 2.552-1.28 3.8-1.505.537-1.875 1.818-3.724 4.192-5.167 1.638-.996 3.339-1.501 5.054-1.501h.062c.642-1.61 1.804-3 3.428-4.01 1.369-.85 2.826-1.281 4.33-1.281a7.9 7.9 0 0 1 2.431.384c.864-.957 2.013-1.686 3.396-2.105a5.7 5.7 0 0 1 1.642-.243c1.357 0 5.2 0 9.352 9.183L109.247.85a10.191 10.191 0 0 1 13.421 5.288l16.484 37.836c2.246 5.155-.123 11.178-5.28 13.425l-19.426 8.456-.227.101a3.614 3.614 0 0 1-.198 6.063l-6.136 3.7.989 6.382a3.616 3.616 0 0 1-5.982 3.25l-.639-.572a3.615 3.615 0 0 1-1.875 4.386c-4.193 2.007-9.072 4.053-14.502 6.082-7.414 2.772-14.043 4.825-19.704 6.103q-.402.09-.798.09a3.62 3.62 0 0 1-3.41-2.42l-3.132-8.943-7.991 3.479-20.073 8.746c-1.3.565-2.67.851-4.077.851"/><path fill="#FF92DF" d="M98.858 85.322c-3.515 1.683-8.177 3.704-14.206 5.957-8.754 3.272-15.08 5.025-19.235 5.963L60.9 84.348l32.095-13.915z"/><path fill="#A278FF" d="M109.708 21.731 93.102 11.263l-1.46.635-63.55 27.674-7.618 3.316 12.008 54.16 16.958-7.39 2.629-1.143 60.711-26.438.264-.118 3.772-1.643s-5.055-39.48-7.108-38.585"/><path fill="#2C1845" d="m52.068 88.515-2.628 1.143-20.076 8.747a6.587 6.587 0 0 1-8.673-3.408L4.211 57.154a6.58 6.58 0 0 1 3.41-8.667l11.953-5.208 8.517-3.707c.162.444.293.89.403 1.343.887 3.738.408 7.645.058 11.47-.355 3.836-.553 7.814.835 11.403 2.049 5.266 7.072 8.646 11.482 12.189 2.543 2.045 4.964 4.238 7.157 6.661 1.595 1.76 3.098 3.71 4.042 5.877M132.469 53.503l-19.425 8.456-.264.117a6 6 0 0 1-.4-.388c-3.785-3.935-4.655-9.844-4.454-15.306.081-2.022.276-4.05.058-6.06a14.92 14.92 0 0 0-4.142-8.777c-1.66-1.699-3.7-2.97-5.429-4.59-4.293-4.04-5.965-9.98-5.311-15.692l17.631-7.68a6.58 6.58 0 0 1 8.659 3.412l16.487 37.842a6.584 6.584 0 0 1-3.41 8.666"/><path fill="#2C1845" d="m108.269 52.078-61.507 26.87-1.756.773-14.784-31.645 62.157-26.353.586 1.116z" opacity=".28"/><path fill="#FFE6DE" d="M108.267 52.077 46.761 78.948 32.519 48.463 92.964 22.84z"/><path fill="#2C1845" d="M53.827 52.673q.138.339.028.676a2 2 0 0 1-.34.62 20 20 0 0 0-.402.568q-.204.3-.346.624a2.2 2.2 0 0 0-.175.664q-.033.339.112.693.126.309.377.499.249.19.562.344.313.157.675.309.364.15.707.38t.653.565q.31.338.527.867.15.369.186.895.034.526-.037 1.106a7 7 0 0 1-.251 1.168q-.18.59-.443 1.1a4.3 4.3 0 0 1-.617.906 2.1 2.1 0 0 1-.765.564q-.456.186-.912.08-.456-.105-.66-.605a1.36 1.36 0 0 1-.096-.691 3.5 3.5 0 0 1 .171-.715 6 6 0 0 1 .312-.728q.184-.369.318-.714a3.3 3.3 0 0 0 .183-.685 1.2 1.2 0 0 0-.077-.648q-.174-.426-.66-.752a20 20 0 0 0-1.05-.652 11 11 0 0 1-1.07-.704 2.1 2.1 0 0 1-.717-.892q-.26-.633-.208-1.47a5.8 5.8 0 0 1 .344-1.636q.292-.798.797-1.452t1.153-.919a1.43 1.43 0 0 1 1.009-.052q.495.157.712.687M62.332 49.514q.15.368-.012.787a3.2 3.2 0 0 1-.475.813 5.4 5.4 0 0 1-.678.716q-.366.322-.621.495.346 1.182.742 2.333.394 1.154.859 2.286.247.604.517 1.18.271.577.512 1.164.108.266.187.603.078.339.067.669a1.45 1.45 0 0 1-.152.612.87.87 0 0 1-.466.414q-.383.157-.699.036a1.55 1.55 0 0 1-.566-.376 2.9 2.9 0 0 1-.438-.586 5 5 0 0 1-.3-.607 108 108 0 0 1-1.518-3.537q-.307-.75-.595-1.474a170 170 0 0 0-.595-1.474 6.4 6.4 0 0 1-.83.408q-.177.072-.478.154a2.7 2.7 0 0 1-.606.093 1.5 1.5 0 0 1-.564-.078.6.6 0 0 1-.37-.356q-.18-.441.03-.913t.647-.936a8 8 0 0 1 1.023-.9q.585-.436 1.187-.795.6-.358 1.119-.622t.814-.385a9 9 0 0 1 .604-.222 2.3 2.3 0 0 1 .648-.12q.32-.01.59.12.266.13.417.498M73.582 54.098q.12.294.238.727t.123.868q.007.435-.138.796-.144.358-.556.528-.545.223-.98-.063-.436-.285-.778-.788a7 7 0 0 1-.602-1.069q-.255-.564-.41-.896-.986.61-1.962 1.164.11.351.219.89.108.54.1 1.085-.009.544-.186 1.012-.178.468-.634.655a.71.71 0 0 1-.657-.032 2 2 0 0 1-.552-.486 3.5 3.5 0 0 1-.424-.677q-.175-.367-.278-.616a11 11 0 0 1-.546-1.71 33 33 0 0 1-.532-2.849q-.088-.634-.124-1.332t.006-1.411.217-1.335q.175-.62.525-1.11.35-.486.924-.72.559-.23 1.074-.148.515.08.992.366a4.3 4.3 0 0 1 .898.723q.42.438.78.918t.666.955l.543.843q.583.878 1.116 1.802t.938 1.91m-4.305-2.412a14 14 0 0 0-.26-.572 7 7 0 0 0-.426-.77 3 3 0 0 0-.524-.627q-.284-.255-.55-.145-.147.06-.197.313a2.3 2.3 0 0 0-.03.597q.02.344.09.744.07.401.149.764.08.362.162.647l.116.408q.853-.436 1.645-.932zM80.946 44.586q.415 1.015.276 2.016a5.5 5.5 0 0 1-.665 1.94q.38.257.823.625a9.5 9.5 0 0 1 1.607 1.721q.34.47.52.913.194.47.119.94-.075.467-.619.69-.456.188-.968-.117a5.4 5.4 0 0 1-1.02-.812 19 19 0 0 1-.98-1.05 9 9 0 0 0-.82-.85q-.228.197-.433.41t-.428.424q.118.33.313.91.195.583.3 1.194.105.61.022 1.123-.08.515-.523.696a.92.92 0 0 1-.913-.09 2.8 2.8 0 0 1-.76-.788 7 7 0 0 1-.581-1.06q-.246-.56-.378-.883-.285-.69-.529-1.373a34 34 0 0 0-.529-1.373q-.258-.633-.54-1.256a39 39 0 0 1-.7-1.647 5 5 0 0 1-.17-.479q-.078-.251-.14-.485a1.1 1.1 0 0 1-.04-.395q.019-.369.427-.862.408-.494.945-.964.538-.469 1.083-.839.545-.368.839-.49.75-.306 1.439-.262.688.045 1.266.366.579.32 1.027.868.446.546.73 1.239m-2.638 1.32q-.156-.382-.414-.508t-.655.036a2 2 0 0 0-.554.348 4 4 0 0 0-.455.46q.534 1.14.991 2.293.266-.23.524-.524.256-.295.433-.642.176-.347.231-.713a1.4 1.4 0 0 0-.1-.75M88.39 38.837q.15.368-.012.786-.164.42-.474.814a5.4 5.4 0 0 1-.678.715q-.366.322-.621.496.345 1.181.74 2.333t.86 2.286q.247.604.518 1.18.27.577.511 1.164.11.265.187.603.078.338.068.669-.011.33-.153.612a.87.87 0 0 1-.466.414q-.383.156-.698.036-.316-.12-.567-.377a2.9 2.9 0 0 1-.437-.585 6 6 0 0 1-.3-.607 115 115 0 0 1-2.114-5.01q-.287-.725-.596-1.475-.193.114-.4.215-.208.104-.428.193a4 4 0 0 1-.48.153 2.8 2.8 0 0 1-.605.094 1.5 1.5 0 0 1-.565-.078.6.6 0 0 1-.37-.356q-.18-.441.03-.914t.648-.935a8 8 0 0 1 1.023-.9q.586-.436 1.186-.795.6-.358 1.12-.623.519-.262.813-.384.28-.114.605-.223.325-.107.647-.119.32-.01.59.12.267.13.418.498"/><path fill="#FFAD9F" d="M110.691 16.925a2.58 2.58 0 1 1-1.966-4.773 2.58 2.58 0 0 1 1.966 4.773M114.717 26.699a2.581 2.581 0 1 1-1.965-4.774 2.581 2.581 0 0 1 1.965 4.774M107.101 24.04a2.58 2.58 0 1 1-1.966-4.773 2.58 2.58 0 0 1 1.966 4.773M118.115 19.504a2.58 2.58 0 1 1-1.966-4.773 2.58 2.58 0 0 1 1.966 4.772"/><path fill="#2C1845" d="M129.59 38.65a8.648 8.648 0 1 1-15.887 6.837 8.648 8.648 0 0 1 15.887-6.837"/><path fill="#FFE6DE" d="M128.688 39.037a8.648 8.648 0 1 1-15.888 6.837 8.648 8.648 0 0 1 15.888-6.837"/><path fill="#FF92DF" d="M123.509 47.585c.213-.563 3.46-9.31.038-10.008-2.214-.452-2.83 1.67-2.992 3.177-1.205-.918-3.169-1.93-4.363-.011-1.845 2.965 6.739 6.618 7.295 6.851l.011.02.005-.013.013.005z"/><path fill="#FFAD9F" d="m34.292 84.075-5.985 2.996a1.62 1.62 0 1 1-1.451-2.899l5.985-2.996a1.621 1.621 0 0 1 1.451 2.899M32.044 79.586l-5.985 2.996a1.621 1.621 0 1 1-1.451-2.9l5.985-2.995a1.62 1.62 0 1 1 1.451 2.898M36.491 88.47l-5.985 2.996a1.62 1.62 0 1 1-1.451-2.9l5.985-2.996a1.62 1.62 0 1 1 1.451 2.9M19.279 61.22a2.58 2.58 0 1 1-1.966-4.773 2.58 2.58 0 0 1 1.966 4.772M23.305 70.993a2.58 2.58 0 1 1-1.965-4.772 2.58 2.58 0 0 1 1.965 4.772M15.69 68.334a2.58 2.58 0 1 1-1.966-4.772 2.58 2.58 0 0 1 1.965 4.772"/><path fill="#F4C46C" d="m18.043 37.97-1.74-10.726 6.757 7.294 9.904-4.245-4.562 8.437 5.628 6.872-9.759-1.947-3.97 9.63-2.163-9.597-8.756.498zM95.444 67.382l3.946-10.125 2.119 9.715 10.687 1.37-8.213 4.953 1.36 8.778-7.418-6.632-8.311 6.281 3.009-9.366-7.797-4.015z"/><path fill="#FF92DF" d="M39.635 34.943s-4.161-8.06.072-10.632c4.233-2.573 6.156.095 6.156.095s-1.979-4.276 1.979-6.53c3.957-2.255 7.11.922 7.11.922s-2.305-5.228 2.057-6.835c3.539-1.303 6.105 2.428 6.105 2.428s-1.168-3.797 2.455-4.893c3.623-1.097 7.695 8.223 9.497 15.02s-.36 9.936-3.853 10.366c0 0 2.094 5.044-1.732 6.632s-5.605-.731-5.605-.731.943 3.248-1.903 4.256c-4.008 1.419-7.311-2.878-7.311-2.878s-1.567 3.317-4.55 2.516c-2.983-.8-8.013-11.166-8.013-11.166l-1.768 1.142"/><path fill="#FFE6DE" d="M75.477 30.044c-.935 1.686-3.017 2.65-4.908 2.273a14 14 0 0 1-1.375-5.052c-.067-.87-.012-1.85.622-2.447.69-.65 1.846-.566 2.637-.042.792.524 1.292 1.381 1.71 2.233.488.994.975 1.98 1.314 3.035M71.552 38.086c-.994 1.794-3.21 2.82-5.22 2.417a14.9 14.9 0 0 1-1.463-5.373c-.071-.924-.013-1.967.662-2.603.735-.692 1.963-.602 2.805-.045s1.374 1.47 1.818 2.376c.52 1.057 1.038 2.107 1.398 3.228M63.732 41.328c-.872 1.856-3.013 3.028-5.047 2.761a14.9 14.9 0 0 1-1.818-5.264c-.133-.917-.144-1.962.487-2.64.687-.74 1.919-.732 2.796-.233.877.5 1.468 1.375 1.973 2.249.588 1.02 1.175 2.033 1.61 3.127M54.379 41.216c-.732 1.56-2.531 2.544-4.24 2.32a12.5 12.5 0 0 1-1.528-4.423c-.111-.77-.12-1.648.41-2.219.576-.621 1.611-.614 2.348-.194s1.234 1.154 1.658 1.889c.494.857.988 1.707 1.352 2.627"/><path stroke="#2C1845" stroke-linecap="round" stroke-linejoin="round" stroke-miterlimit="10" stroke-width="2.023" d="M41.14 32.348s6.249 13.581 10.674 12.288c3.976-1.162 2.864-3.907.813-9.173-2.05-5.266-6.173-12.254-8.993-12.17"/><path stroke="#2C1845" stroke-linecap="round" stroke-linejoin="round" stroke-miterlimit="10" stroke-width="2.023" d="M45.72 24.058s-2.11-3.61 2.122-6.183c4.234-2.572 7.285.85 7.839 2.183.553 1.334 8.196 20.726 8.196 20.726s.705 3.173-2.474 4.357c-3.178 1.184-6.216-2.041-6.741-2.979"/><path stroke="#2C1845" stroke-linecap="round" stroke-linejoin="round" stroke-miterlimit="10" stroke-width="2.023" d="M54.775 18.532s-1.975-3.938 1.645-6.189 6.584 1.617 7.06 2.439c.478.821 7.734 20.101 7.734 20.101s2.365 4.388-1.597 6.304c-4.088 1.978-5.752-.499-5.752-.499"/></svg>