<svg xmlns="http://www.w3.org/2000/svg" width="100" height="95" fill="none"><path fill="#845EF9" d="M41.815 23.22a.95.95 0 0 1-.812-1.073L42.835 8.92a.951.951 0 1 1 1.885.26l-1.832 13.23a.95.95 0 0 1-1.073.811"/><path fill="#0A1640" d="M41.948 23.453q-.082 0-.163-.012a1.17 1.17 0 0 1-.776-.455c-.19-.25-.27-.558-.227-.87l1.832-13.228a1.17 1.17 0 0 1 2.1-.548c.19.25.27.56.226.87L43.11 22.438a1.17 1.17 0 0 1-.455.776 1.16 1.16 0 0 1-.706.239M43.776 8.32a.724.724 0 0 0-.72.629l-1.831 13.228a.72.72 0 0 0 .14.54.72.72 0 0 0 .481.281.72.72 0 0 0 .54-.14.72.72 0 0 0 .282-.481L44.5 9.149a.72.72 0 0 0-.141-.539.72.72 0 0 0-.583-.289"/><path fill="#845EF9" d="M70.48 27.19a.95.95 0 0 1-.813-1.073L71.5 12.889a.951.951 0 1 1 1.885.26l-1.832 13.229a.95.95 0 0 1-1.073.812"/><path fill="#0A1640" d="M70.61 27.422q-.079 0-.161-.011a1.16 1.16 0 0 1-.775-.455c-.19-.25-.27-.559-.227-.87l1.832-13.228a1.172 1.172 0 0 1 2.1-.548c.19.25.27.56.227.87l-1.832 13.228a1.18 1.18 0 0 1-1.163 1.014m1.83-15.131c-.158 0-.31.05-.438.148a.72.72 0 0 0-.282.48l-1.832 13.229a.724.724 0 0 0 .622.822c.4.054.766-.224.82-.622l1.833-13.228a.72.72 0 0 0-.141-.54.72.72 0 0 0-.582-.289"/><path fill="#3C1DA1" d="m34.506 4.265-.636 4.592 42.14 5.838.636-4.593z"/><path fill="#0A1640" d="m76.65 10.09-.637 4.592L52.2 11.384a18 18 0 0 0 5.051-3.981z" opacity=".25"/><path fill="#fff" d="M39.182 6.47c1.133.062 2.26.168 3.385.29 1.125.119 2.247.263 3.367.413 1.12.158 2.239.321 3.355.51a64 64 0 0 1 3.336.635.218.218 0 0 1-.06.431 64 64 0 0 1-3.383-.296 122 122 0 0 1-3.367-.42c-1.119-.161-2.238-.327-3.353-.518a65 65 0 0 1-3.336-.64.206.206 0 0 1 .056-.406" opacity=".5"/><path fill="#0A1640" d="M76.014 14.905q-.015 0-.03-.002L33.84 9.067a.223.223 0 0 1-.19-.252l.636-4.592a.223.223 0 0 1 .251-.19L76.68 9.867c.122.017.208.13.19.252l-.636 4.592a.22.22 0 0 1-.22.193m-41.89-6.25 41.7 5.776.575-4.15-41.7-5.775z"/><path fill="#D811AD" d="m88.995 11.018-.848 6.126a.893.893 0 0 1-1.047.756l-18.033-3.303a.89.89 0 0 1-.725-1l.63-4.548a.89.89 0 0 1 .97-.765l14.136 1.333 4.115.389a.894.894 0 0 1 .802 1.012"/><path fill="#0A1640" d="m88.995 11.018-.848 6.126a.893.893 0 0 1-1.047.756l-18.033-3.303a.89.89 0 0 1-.725-1l.244-1.755c1.948.455 3.923.794 5.91 1.018 1.574.174 3.177.276 4.735-.002 1.56-.277 3.09-.967 4.131-2.16.285-.326.526-.691.716-1.082l4.115.39a.895.895 0 0 1 .802 1.012" opacity=".25"/><path fill="#FF8CDB" d="M70.756 10.087c.816-.013 1.627.018 2.437.065.81.044 1.617.114 2.424.189.806.083 1.612.171 2.415.286.804.111 1.606.238 2.403.41a.219.219 0 0 1-.043.433 33 33 0 0 1-2.436-.071 63 63 0 0 1-2.425-.196 64 64 0 0 1-2.414-.293 34 34 0 0 1-2.402-.416.206.206 0 0 1 .04-.407"/><path fill="#0A1640" d="M87.266 18.139a1 1 0 0 1-.205-.02l-18.033-3.302a1.113 1.113 0 0 1-.905-1.25l.63-4.549a1.114 1.114 0 0 1 1.211-.956l18.252 1.721c.306.029.58.178.771.419.19.241.273.542.231.846l-.849 6.126a1.1 1.1 0 0 1-.451.752c-.194.14-.42.213-.652.213m-17.41-9.636a.67.67 0 0 0-.661.577l-.63 4.548c-.05.356.189.685.543.75L87.14 17.68a.66.66 0 0 0 .514-.116.66.66 0 0 0 .271-.451l.848-6.127a.667.667 0 0 0-.601-.76L69.92 8.507z"/><path fill="#FFCE00" d="m89.676 9.93-.332 2.392-.838 6.054a1.16 1.16 0 0 1-2.295-.32l.588-4.247.582-4.196a1.157 1.157 0 0 1 1.306-.988c.635.086 1.075.671.989 1.305"/><path fill="#E38921" d="m89.344 12.322-.838 6.054a1.159 1.159 0 0 1-2.295-.32l.588-4.247a12.5 12.5 0 0 0 2.545-1.487" opacity=".5"/><path fill="#0A1640" d="M87.362 19.597q-.096 0-.193-.013a1.383 1.383 0 0 1-1.178-1.557l1.17-8.444a1.383 1.383 0 0 1 1.557-1.18 1.383 1.383 0 0 1 1.18 1.558l-1.17 8.446c-.098.69-.69 1.19-1.366 1.19m1.161-10.762a.935.935 0 0 0-.92.808l-1.17 8.444a.936.936 0 0 0 1.853.258L89.454 9.9a.936.936 0 0 0-.932-1.065"/><path fill="#D811AD" d="m36.26 4.682-.586 4.23a2.314 2.314 0 0 1-2.61 1.974L19.873 9.06a2.31 2.31 0 0 1-1.974-2.609l.586-4.23A2.313 2.313 0 0 1 21.094.245L34.285 2.07a2.315 2.315 0 0 1 1.975 2.611"/><path fill="#FF8CDB" d="M20.075 1.634c.895.03 1.785.103 2.672.192.887.086 1.771.198 2.655.314.882.126 1.764.256 2.642.412.878.153 1.754.323 2.624.536a.219.219 0 0 1-.06.43 40 40 0 0 1-2.671-.198 75 75 0 0 1-5.295-.74 40 40 0 0 1-2.623-.541.205.205 0 0 1 .056-.405"/><path fill="#0A1640" d="m36.26 4.682-.586 4.231a2.314 2.314 0 0 1-2.61 1.973L19.873 9.06a2.31 2.31 0 0 1-1.974-2.608l.053-.38c2.5.525 5.05.856 7.597.839 2.801-.015 6.012-.128 7.672-2.794.41-.656.61-1.365.718-2.093l.346.049a2.313 2.313 0 0 1 1.975 2.61" opacity=".25"/><path fill="#0A1640" d="M33.384 11.131q-.174 0-.35-.024L19.841 9.28a2.52 2.52 0 0 1-1.675-.982 2.52 2.52 0 0 1-.49-1.877l.587-4.23a2.54 2.54 0 0 1 2.86-2.167l13.191 1.827a2.54 2.54 0 0 1 2.166 2.862l-.586 4.231a2.54 2.54 0 0 1-2.512 2.187M20.774.445c-1.027 0-1.924.76-2.07 1.806l-.585 4.23a2.08 2.08 0 0 0 .403 1.548c.337.445.827.733 1.38.809l13.191 1.827a2.093 2.093 0 0 0 2.36-1.783l.585-4.231a2.094 2.094 0 0 0-1.785-2.359L21.062.465a2 2 0 0 0-.288-.02"/><path fill="#3C1DA1" d="M31.433 20.976 29.71 33.42l6.037.836 1.723-12.443z"/><path fill="#0A1640" d="m36.994 25.267-1.244 8.976-6.037-.836.65-4.693a9.7 9.7 0 0 0 4.173-1.322 9.6 9.6 0 0 0 2.457-2.125" opacity=".25"/><path fill="#0A1640" d="m35.75 34.467-.03-.002-6.037-.836a.22.22 0 0 1-.19-.252l1.723-12.443a.223.223 0 0 1 .25-.19l6.038.836a.22.22 0 0 1 .19.251l-1.723 12.443a.22.22 0 0 1-.22.193m-5.785-1.25 5.595.775 1.662-12.001-5.596-.775z"/><path fill="#845EF9" d="m39.592 19.854-2.331 16.839-1.938-.269a1.71 1.71 0 0 1-1.459-1.928l1.863-13.451a1.71 1.71 0 0 1 1.928-1.459z"/><path fill="#0A1640" d="m38.453 28.085-1.192 8.607-1.938-.268a1.71 1.71 0 0 1-1.459-1.928l.656-4.735a7.9 7.9 0 0 0 2.398-.689 7.3 7.3 0 0 0 1.535-.988" opacity=".25"/><path fill="#0A1640" d="M37.261 36.915q-.015 0-.03-.002l-1.938-.268a1.935 1.935 0 0 1-1.65-2.179l1.863-13.452a1.937 1.937 0 0 1 2.18-1.65l1.937.27c.122.016.207.129.19.25l-2.331 16.838a.22.22 0 0 1-.221.193m.159-17.123c-.73 0-1.369.54-1.472 1.283l-1.862 13.452a1.49 1.49 0 0 0 1.268 1.676l1.717.238 2.27-16.396-1.716-.238a2 2 0 0 0-.205-.015"/><path fill="#D811AD" d="m45.876 20.276-2.454 17.718a1.263 1.263 0 0 1-1.424 1.078l-4.427-.613a1.263 1.263 0 0 1-1.078-1.425l2.454-17.717a1.263 1.263 0 0 1 1.424-1.078l4.427.613a1.263 1.263 0 0 1 1.078 1.424"/><path fill="#0A1640" d="m45.876 20.276-2.454 17.718a1.263 1.263 0 0 1-1.424 1.078l-4.427-.613a1.263 1.263 0 0 1-1.078-1.424l.788-5.686c1.242-1.105 2.3-2.574 3.096-4.357.873-1.95 1.143-3.193 1.945-8.483l2.476.343a1.263 1.263 0 0 1 1.078 1.424" opacity=".25"/><path fill="#0A1640" d="M42.171 39.307q-.101 0-.204-.014l-4.427-.613a1.48 1.48 0 0 1-.981-.576 1.48 1.48 0 0 1-.287-1.1l2.454-17.718c.054-.393.259-.742.575-.981.316-.24.706-.342 1.1-.287l4.426.612c.812.113 1.381.865 1.269 1.676l-2.454 17.718a1.49 1.49 0 0 1-1.47 1.283M40.196 18.45c-.225 0-.443.072-.625.21a1.03 1.03 0 0 0-.403.686l-2.454 17.719c-.038.275.033.548.2.77.168.221.412.364.687.402l4.426.613a1.04 1.04 0 0 0 1.173-.887l2.454-17.718a1.04 1.04 0 0 0-.888-1.173l-4.426-.612a1 1 0 0 0-.144-.01"/><path fill="#D811AD" d="m32.69 19.548-2.155 15.565c-.079.564-.581.973-1.148.933l-8.187-.577-3.33-.234a1.08 1.08 0 0 1-.996-1.227L19.243 16.9a1.08 1.08 0 0 1 1.292-.913l3.269.679 8.034 1.672c.558.115.93.645.852 1.209"/><path fill="#0A1640" d="m32.356 21.963-1.821 13.15c-.079.564-.581.972-1.148.932L21.2 35.47l-3.33-.235a1.08 1.08 0 0 1-.996-1.227l.556-4.013c1.518.158 3.06.095 4.556-.2q1.126-.222 2.205-.617c3.489-1.28 6.437-3.93 8.165-7.214" opacity=".25"/><path fill="#00D4FC" d="m23.805 16.666-1.819 13.128-.785 5.675-3.331-.236a1.08 1.08 0 0 1-.996-1.226l.555-4.012 1.814-13.096a1.08 1.08 0 0 1 1.294-.912z"/><path fill="#3C1DA1" d="M21.63 17.508c-.206 2.782-.546 5.546-.919 8.306-.386 2.757-.805 5.51-1.36 8.245a.218.218 0 0 1-.43-.06c.21-2.782.554-5.545.932-8.304.39-2.757.815-5.51 1.372-8.243a.205.205 0 0 1 .405.056" opacity=".45"/><path fill="#FF8CDB" d="M24.973 18.673c.557.014 1.105.072 1.651.145.546.07 1.087.165 1.627.266.538.11 1.075.224 1.608.363.532.137 1.062.29 1.583.486a.22.22 0 0 1 .129.284.22.22 0 0 1-.213.142 15 15 0 0 1-1.65-.15 29 29 0 0 1-1.625-.274 30 30 0 0 1-1.607-.37 16 16 0 0 1-1.582-.491.208.208 0 0 1 .08-.402"/><path fill="#3C1DA1" d="m21.986 29.794-.785 5.675-3.331-.236a1.08 1.08 0 0 1-.996-1.226l.555-4.012a15.4 15.4 0 0 0 4.557-.201" opacity=".25"/><path fill="#0A1640" d="m31.884 18.12-8.027-1.67-.006-.002-3.269-.679a1.29 1.29 0 0 0-1.22.387c-.018.019-.031.042-.048.062q-.061.07-.114.15c-.027.045-.046.095-.068.143-.016.033-.035.063-.047.097-.018.05-.026.103-.038.155-.008.036-.021.07-.026.106l-.247 1.784-2.122 15.324c-.008.056-.006.113-.006.17 0 .032-.006.065-.004.097.003.038.013.074.02.111.007.05.011.102.025.15a1.3 1.3 0 0 0 1.166.952l11.516.811q.047.004.092.004a1.31 1.31 0 0 0 1.293-1.128l2.156-15.565a1.31 1.31 0 0 0-1.026-1.459M17.885 35.01a.859.859 0 0 1-.768-.625 1 1 0 0 1-.022-.131q-.004-.02-.007-.04 0-.036.003-.076 0-.05.004-.1l2.37-17.107c.003-.03.013-.056.02-.085q.007-.045.02-.089a1 1 0 0 1 .061-.127l.015-.03q.09-.151.24-.256a.85.85 0 0 1 .669-.138l3.066.637-2.547 18.389zM32.47 19.518l-2.155 15.566a.866.866 0 0 1-.912.74l-7.947-.56 2.539-18.328 7.8 1.622a.86.86 0 0 1 .675.96"/><path fill="#D811AD" d="m86.174 31.796-1.66 11.98a1.017 1.017 0 0 1-1.147.87l-3.985-.553a1.017 1.017 0 0 1-.866-1.148l1.659-11.98a1.017 1.017 0 0 1 1.146-.87l3.984.552c.558.078.946.591.87 1.149"/><path fill="#0A1640" d="m84.95 40.637-.435 3.14a1.017 1.017 0 0 1-1.148.869l-3.985-.552a1.017 1.017 0 0 1-.866-1.148l1.284-9.27c.64 1.726 1.487 3.354 2.665 4.764a11 11 0 0 0 2.484 2.197" opacity=".25"/><path fill="#FF8CDB" d="M84.505 32.229c.032.444.021.883-.005 1.32-.024.437-.073.87-.128 1.303-.062.432-.13.863-.224 1.29a10 10 0 0 1-.349 1.273.222.222 0 0 1-.43-.06 10 10 0 0 1 .01-1.32c.025-.436.077-.869.134-1.302.065-.43.136-.861.232-1.289.093-.427.202-.852.354-1.272a.21.21 0 0 1 .406.056"/><path fill="#0A1640" d="M83.508 44.878q-.085 0-.172-.012l-3.984-.551a1.24 1.24 0 0 1-1.057-1.4l1.66-11.98a1.237 1.237 0 0 1 1.397-1.06l3.984.551a1.243 1.243 0 0 1 1.06 1.4l-1.66 11.981a1.24 1.24 0 0 1-1.228 1.071M81.18 30.31a.79.79 0 0 0-.784.687l-1.66 11.98a.795.795 0 0 0 .676.897l3.984.552a.795.795 0 0 0 .897-.678l1.66-11.981a.796.796 0 0 0-.679-.897l-3.984-.552a1 1 0 0 0-.11-.008"/><path fill="#3C1DA1" d="M82.828 23.804 79.942 44.64a2.38 2.38 0 0 1-2.684 2.032l-33.579-4.65a2.38 2.38 0 0 1-2.028-2.684l2.885-20.837a2.38 2.38 0 0 1 2.682-2.031l33.579 4.65a2.38 2.38 0 0 1 2.03 2.683"/><path fill="#0A1640" d="M79.942 44.641a2.38 2.38 0 0 1-2.684 2.032l-33.579-4.65a2.38 2.38 0 0 1-2.028-2.684l2.885-20.837a2.38 2.38 0 0 1 2.682-2.031.687.687 0 0 1 .586.773l-2.718 19.632a1.85 1.85 0 0 0 1.58 2.089l32.373 4.483c.579.08.983.614.903 1.193" opacity=".25"/><path fill="#0A1640" d="M77.586 46.918q-.177 0-.359-.025l-33.579-4.65a2.605 2.605 0 0 1-2.219-2.935l2.886-20.837a2.59 2.59 0 0 1 1.007-1.72 2.6 2.6 0 0 1 1.926-.502l33.579 4.65a2.606 2.606 0 0 1 2.221 2.935l-2.885 20.838a2.61 2.61 0 0 1-2.577 2.246M46.888 16.67c-.467 0-.918.151-1.296.438-.46.347-.756.854-.835 1.424L41.87 39.37a2.16 2.16 0 0 0 1.839 2.432l33.578 4.65a2.16 2.16 0 0 0 2.433-1.841l2.885-20.838a2.16 2.16 0 0 0-1.84-2.433l-33.579-4.65q-.15-.02-.3-.02"/><path fill="#00D4FC" d="M73.278 23.39 71.32 37.53a.91.91 0 0 1-1.027.777l-22.874-3.168a.91.91 0 0 1-.776-1.027l1.957-14.14a.91.91 0 0 1 1.028-.779L72.5 22.361a.914.914 0 0 1 .778 1.03"/><g fill="#3C1DA1" opacity=".25"><path d="M64.81 21.296 52.656 35.864l4.831.67 12.16-14.569zM56.694 20.172l-9.737 11.671-.314 2.27a.91.91 0 0 0 .776 1.026l.492.069L60.07 20.64zM72.886 22.51 60.8 36.992l2.505.347 9.64-11.552.332-2.397a.91.91 0 0 0-.391-.88"/></g><path fill="#fff" d="M56.986 22.12c2.327.144 4.637.42 6.941.73 2.303.323 4.6.68 6.88 1.171a.218.218 0 0 1-.06.431c-2.327-.147-4.635-.428-6.939-.743-2.302-.328-4.6-.689-6.879-1.183a.206.206 0 0 1-.157-.245.21.21 0 0 1 .214-.161"/><path fill="#D811AD" d="M51.488 29.102c-.525.521-.43 1.367.494 1.943 1.474.918 3.563.52 4.046-.35.994-1.788-2.999-3.126-4.54-1.593M68.02 31.39c-1.067-1.893-5.274-1.69-4.803.3.229.968 2.13 1.92 3.798 1.436 1.047-.302 1.367-1.09 1.004-1.735"/><path fill="#3C1DA1" d="M71.32 37.53a.91.91 0 0 1-1.027.777l-22.874-3.168a.91.91 0 0 1-.776-1.027l1.957-14.14c.07-.499.53-.848 1.03-.778l.067.009a1.89 1.89 0 0 1 1.614 2.133l-1.323 9.56a1.555 1.555 0 0 0 1.327 1.753l18.221 2.523a2.09 2.09 0 0 1 1.784 2.358" opacity=".25"/><path fill="#0A1640" d="M73.014 22.326a1.1 1.1 0 0 0-.481-.185L49.66 18.973a1.135 1.135 0 0 0-1.28.97l-1.957 14.14c-.086.618.348 1.192.968 1.278l22.873 3.168q.078.01.156.01c.557 0 1.044-.412 1.123-.978L73.5 23.42a1.13 1.13 0 0 0-.486-1.095m.044 1.034L71.1 37.5a.69.69 0 0 1-.775.586L47.451 34.92a.69.69 0 0 1-.587-.775l1.957-14.14a.69.69 0 0 1 .776-.588l22.873 3.167a.685.685 0 0 1 .586.777"/><path fill="#0A1640" d="M62.502 27.626a.22.22 0 0 0-.25.193c-.15 1.158-1.01 2.364-2.326 2.314a1.82 1.82 0 0 1-1.37-.697c-.467-.575-.676-1.417-.545-2.2a.223.223 0 0 0-.44-.073c-.152.904.093 1.883.64 2.554a2.25 2.25 0 0 0 1.698.862l.097.002c1.519 0 2.516-1.378 2.688-2.704a.223.223 0 0 0-.192-.25M67.57 26.196a.224.224 0 0 0-.25.192c-.116.888-.698 1.821-1.582 1.797-.323-.008-.6-.149-.822-.418-.352-.426-.512-1.119-.406-1.764a.223.223 0 0 0-.184-.256.22.22 0 0 0-.256.184c-.126.767.071 1.599.503 2.12a1.52 1.52 0 0 0 1.197.58c1.109 0 1.854-1.118 1.993-2.185a.223.223 0 0 0-.192-.25M56.586 24.675a.224.224 0 0 0-.25.192c-.117.888-.716 1.815-1.583 1.797-.323-.009-.6-.15-.822-.418-.353-.427-.512-1.12-.406-1.765a.223.223 0 1 0-.44-.072c-.127.766.07 1.599.502 2.12a1.52 1.52 0 0 0 1.197.58c1.11 0 1.854-1.118 1.994-2.185a.223.223 0 0 0-.192-.25"/><path fill="#FFCE00" d="m71.729 41.3-.22 1.579a.7.7 0 0 1-.788.596l-25.117-3.478a.7.7 0 0 1-.596-.789l.218-1.578a.697.697 0 0 1 .788-.595l25.117 3.479c.383.054.65.404.597.786"/><path fill="#D811AD" d="m49.077 37.473-.41 2.961 3.95.547.41-2.96zM56.595 38.515l-.41 2.96 3.95.548.41-2.961zM64.112 39.556l-.41 2.961 3.95.547.41-2.96z"/><path fill="#0A1640" d="m71.162 40.293-25.118-3.478a.925.925 0 0 0-1.04.785l-.218 1.578a.92.92 0 0 0 .178.684.92.92 0 0 0 .61.356l25.116 3.479a.924.924 0 0 0 1.04-.787l.219-1.58a.92.92 0 0 0-.787-1.037m-5.348 2.278-1.857-.257.348-2.52 2.675.37.833.116-.348 2.52zM58.58 41.57l-2.14-.296.349-2.52 1.754.243 1.754.243-.349 2.52zm-9.658-1.337.35-2.52.706.098 2.801.388-.348 2.52-2.835-.393zm4.3-1.973 3.124.433-.348 2.52-3.126-.433zm7.516 1.041 3.126.433-.35 2.52-3.125-.433zm-15.418.292a.47.47 0 0 1-.092-.353l.219-1.578a.47.47 0 0 1 .47-.409 1 1 0 0 1 .067.005l2.845.394-.349 2.52-2.845-.395a.47.47 0 0 1-.315-.184m25.968 3.257a.476.476 0 0 1-.537.406l-2.845-.395.35-2.52 2.845.395c.26.036.442.276.406.535z"/><path fill="#A7D640" d="M79.278 30.779a2.02 2.02 0 1 1-4-.554 2.02 2.02 0 0 1 4 .554"/><path fill="#fff" d="M75.917 30.424c-.015-.26.053-.48.179-.696a1.356 1.356 0 0 1 1.298-.639c.122.005.234.05.345.08.106.047.207.1.299.168a.232.232 0 0 1-.067.407l-.043.014c-.098.031-.187.04-.273.056-.082.023-.165.03-.236.054-.15.03-.269.084-.386.133-.116.052-.227.12-.346.21-.118.087-.241.212-.376.322l-.051.042a.21.21 0 0 1-.343-.151" opacity=".5"/><path fill="#0A1640" d="M79.279 30.779a2.02 2.02 0 0 1-3.864.5c.866.073 1.734-.064 2.401-.596.476-.38.796-.921.991-1.5.366.424.554.997.471 1.596" opacity=".25"/><path fill="#0A1640" d="M77.283 32.745q-.155 0-.311-.022a2.25 2.25 0 0 1-1.764-1.36 2.23 2.23 0 0 1-.15-1.169 2.247 2.247 0 0 1 2.528-1.912 2.24 2.24 0 0 1 1.913 2.527 2.23 2.23 0 0 1-.868 1.48 2.23 2.23 0 0 1-1.348.456m-.006-4.039a1.8 1.8 0 0 0-1.657 2.486 1.8 1.8 0 0 0 1.412 1.09c.476.066.947-.058 1.33-.348a1.797 1.797 0 0 0-1.084-3.228"/><path fill="#D811AD" d="M80.03 25.343a2.02 2.02 0 1 1-4-.554 2.02 2.02 0 0 1 4 .554"/><path fill="#FF8CDB" d="M76.67 24.987c-.015-.259.053-.48.179-.695a1.356 1.356 0 0 1 1.298-.639c.122.005.233.05.345.08.106.047.207.1.299.168a.232.232 0 0 1-.067.407l-.043.014c-.099.031-.187.04-.273.056-.082.023-.165.029-.236.054-.15.03-.268.084-.386.133-.116.052-.227.12-.346.21-.118.087-.241.212-.376.322l-.051.042a.21.21 0 0 1-.343-.152"/><path fill="#0A1640" d="M80.03 25.343a2.02 2.02 0 0 1-3.863.5c.866.074 1.734-.064 2.401-.596.476-.38.796-.921.992-1.5.365.424.553.997.47 1.596" opacity=".25"/><path fill="#0A1640" d="M78.036 27.308a2.253 2.253 0 0 1-2.075-1.38 2.241 2.241 0 1 1 2.075 1.38m-.006-4.038a1.798 1.798 0 0 0-1.657 2.486 1.8 1.8 0 0 0 1.412 1.089c.475.066.947-.058 1.33-.348a1.797 1.797 0 0 0-1.085-3.227"/><path fill="#A7D640" d="M94.554 43.118 82.611 70.894a1.022 1.022 0 1 1-1.862-.843l13.004-27.295a.44.44 0 0 1 .801.362"/><path fill="#0A1640" d="M81.67 71.735a1.25 1.25 0 0 1-1.155-.784 1.24 1.24 0 0 1 .013-.953l.02-.044L93.552 42.66a.66.66 0 0 1 .884-.313.66.66 0 0 1 .323.86L82.817 70.982a1.25 1.25 0 0 1-1.147.753m12.48-29.007a.217.217 0 0 0-.196.124l-13.016 27.32a.8.8 0 0 0-.008.614c.079.198.23.354.427.438a.8.8 0 0 0 .611.009.8.8 0 0 0 .438-.427L94.35 43.031a.217.217 0 0 0-.199-.303"/><path fill="#D811AD" d="m95.581 43.265-1.814 4.004a1.434 1.434 0 0 1-2.614-1.184l1.814-4.004a1.43 1.43 0 0 1 1.898-.715c.446.202.74.603.819 1.05.053.277.022.574-.103.849"/><path fill="#0A1640" d="m95.581 43.265-1.814 4.004a1.434 1.434 0 0 1-2.614-1.184l.152-.337c.492-.006 1.01-.124 1.578-.382 1.2-.549 1.928-1.712 2.663-2.75q.072-.098.137-.2c.054.277.023.574-.102.85" opacity=".25"/><path fill="#0A1640" d="M92.46 48.335c-.233 0-.467-.05-.686-.15a1.65 1.65 0 0 1-.867-.925 1.65 1.65 0 0 1 .041-1.267l1.814-4.005c.183-.404.512-.712.925-.868a1.65 1.65 0 0 1 1.269.042c.499.227.852.68.946 1.215a1.6 1.6 0 0 1-.119.98L93.97 47.36a1.662 1.662 0 0 1-1.51.974m1.811-6.875a1.21 1.21 0 0 0-1.102.712l-1.814 4.005a1.2 1.2 0 0 0-.03.926c.114.303.339.543.633.677.296.134.626.145.929.03a1.2 1.2 0 0 0 .676-.632l1.814-4.005a1.17 1.17 0 0 0 .086-.714 1.214 1.214 0 0 0-1.192-.999"/><path fill="#845EF9" d="m88.245 64.996-9.109 20.107a1.675 1.675 0 0 1-2.217.834L59.373 77.99a1.675 1.675 0 0 1-.834-2.218l9.108-20.107a1.675 1.675 0 0 1 2.218-.834l17.546 7.948a1.675 1.675 0 0 1 .834 2.218"/><path fill="#0A1640" d="M79.136 85.103a1.676 1.676 0 0 1-2.217.834L59.373 77.99a1.676 1.676 0 0 1-.835-2.218l9.11-20.107a1.676 1.676 0 0 1 2.217-.835 1.72 1.72 0 0 1 .858 2.28l-7.485 16.523a1.604 1.604 0 0 0 .799 2.122l13.961 6.325a2.284 2.284 0 0 1 1.138 3.024" opacity=".25"/><path fill="#FFCE00" d="m78.335 79.349-1.083 2.391-1.636 3.606-14.941-6.768 2.719-5.998c.126-.28.342-.49.6-.614.327-.161.718-.179 1.075-.015l12.634 5.722c.637.29.92 1.039.632 1.676"/><path fill="#00D4FC" d="m85.695 65.088-2.756 6.083a.82.82 0 0 1-1.085.409L66.912 64.81a.82.82 0 0 1-.408-1.085l2.756-6.084a.82.82 0 0 1 1.085-.408l14.942 6.768q.09.041.165.1c.29.228.403.634.243.986"/><g fill="#3C1DA1" opacity=".25"><path d="m77.186 60.333-7.828 5.586-2.228-1.01 7.828-5.586zM81.701 62.378l-7.828 5.587-2.747-1.245 7.828-5.586zM85.452 64.103l-7.805 5.571-1.55-.702 7.83-5.585 1.36.616q.09.04.165.1"/></g><path fill="#3C1DA1" d="M82.94 71.171a.82.82 0 0 1-1.086.408l-14.942-6.768a.82.82 0 0 1-.408-1.085l2.756-6.084a.82.82 0 0 1 1.085-.409 1.42 1.42 0 0 1 .707 1.877l-1.413 3.12a1.105 1.105 0 0 0 .55 1.462l11.978 5.426a1.55 1.55 0 0 1 .772 2.053" opacity=".25"/><path fill="#fff" d="M83.144 65.61c-.754-.24-1.49-.52-2.22-.812a59 59 0 0 1-2.17-.926 59 59 0 0 1-2.129-1.014 31 31 0 0 1-2.077-1.128.22.22 0 0 1 .179-.397c.754.24 1.49.522 2.218.818a58 58 0 0 1 4.293 1.952c.702.356 1.397.725 2.075 1.134a.206.206 0 0 1-.169.373"/><path fill="#E38921" d="m77.252 81.74-1.636 3.606-14.941-6.768 2.719-5.998c.126-.28.342-.49.6-.614l-.756 1.665a1.6 1.6 0 0 0 .8 2.121z" opacity=".5"/><path fill="#D811AD" d="M77.004 74.245c-.171-.511-.876-1.103-1.825-1.182-.612-.05-1.186.345-.981.942.497 1.449 3.267 1.612 2.806.24M70.137 72.167c.584-.24.503-.932.061-1.36-.685-.662-1.594-.8-2.091-.593-1.335.559.614 2.534 2.03 1.953M75.916 78.504l-10.293-4.663a.82.82 0 1 0-.677 1.494l10.293 4.663a.82.82 0 0 0 .677-1.494M74.586 81.44l-10.293-4.664a.82.82 0 1 0-.677 1.494l10.293 4.663a.82.82 0 1 0 .677-1.494"/><path fill="#0A1640" d="M88.496 63.635a1.89 1.89 0 0 0-.994-1.06l-17.545-7.949a1.9 1.9 0 0 0-2.513.946L58.335 75.68c-.21.462-.226.978-.047 1.453.178.474.531.85.993 1.06l17.546 7.949a1.9 1.9 0 0 0 2.513-.946l9.108-20.107c.21-.462.226-.978.048-1.453M60.97 78.467l2.627-5.794a1.02 1.02 0 0 1 .495-.507c.279-.137.6-.142.885-.011l12.634 5.722c.523.238.757.857.52 1.38l-2.626 5.794zm27.072-13.563L78.933 85.01c-.16.353-.448.623-.81.76a1.44 1.44 0 0 1-1.112-.036l-1.1-.499 2.627-5.794a1.495 1.495 0 0 0-.743-1.97L65.162 71.75a1.47 1.47 0 0 0-1.265.016c-.313.15-.564.408-.706.724l-2.627 5.794-1.098-.498a1.44 1.44 0 0 1-.76-.81 1.45 1.45 0 0 1 .036-1.112l9.109-20.107a1.455 1.455 0 0 1 1.922-.724l17.546 7.949c.73.33 1.053 1.192.723 1.922"/><path fill="#0A1640" d="M70.881 68.011a.923.923 0 0 0-1.225.465c-.205.436.008 1.021.485 1.226a.916.916 0 0 0 1.223-.481c.215-.47.005-.995-.483-1.21M76.813 70.698c-.575-.246-1.05.086-1.237.458-.207.412.017 1.034.447 1.216 1.198.505 1.885-1.207.79-1.674M74.561 70.592a.223.223 0 0 0-.282.142c-.318.96-.875 1.373-1.29 1.44-.27.042-.503-.048-.655-.254-.299-.406-.228-1.153.19-2a.224.224 0 0 0-.401-.197c-.5 1.014-.554 1.911-.148 2.462.21.286.534.444.89.444q.096 0 .193-.015c.706-.112 1.32-.762 1.644-1.74a.223.223 0 0 0-.14-.282M85.593 63.93a1 1 0 0 0-.215-.13L70.436 57.03a1.044 1.044 0 0 0-1.38.52L66.3 63.634a1.044 1.044 0 0 0 .52 1.38l14.941 6.77q.212.093.429.092c.397 0 .778-.228.952-.612l2.756-6.084c.2-.44.072-.955-.305-1.25m-.102 1.066-2.755 6.083a.6.6 0 0 1-.791.297l-14.941-6.769a.6.6 0 0 1-.313-.334.6.6 0 0 1 .015-.456l2.756-6.084a.59.59 0 0 1 .545-.35.6.6 0 0 1 .245.053l14.942 6.77q.066.028.12.072c.219.171.291.466.177.718M76.007 78.301l-10.293-4.663a1.045 1.045 0 0 0-1.406 1.317c.098.261.292.468.545.583l10.293 4.663a1.042 1.042 0 1 0 .861-1.9m.113 1.197a.595.595 0 0 1-.79.298l-10.293-4.663a.598.598 0 0 1 .493-1.088l10.293 4.663a.595.595 0 0 1 .297.79M74.678 81.237l-10.293-4.663a1.03 1.03 0 0 0-.798-.026 1.044 1.044 0 0 0-.063 1.926l10.293 4.663a1.04 1.04 0 0 0 .798.026c.26-.099.468-.292.583-.546a1.04 1.04 0 0 0-.52-1.38m.114 1.196a.595.595 0 0 1-.79.297l-10.294-4.663a.599.599 0 0 1 .036-1.102.6.6 0 0 1 .457.014l10.293 4.664c.3.136.433.49.298.79M61.003 89.459c-3.016-.779-5.148-2.085-6.915-4.238-1.815-2.21-2.929-4.499-4.005-6.713-1.592-3.27-2.967-6.096-6.203-7.875-4.624-2.54-9.632-1.055-14.474.38-.627.187-1.25.372-1.867.547-7.114 2.012-9.947.254-11.46-1.244-4.007-3.968-5.071-10.018-6.01-15.356q-.139-.796-.278-1.566c-.387-2.122-1.044-4.29-2.936-4.201l-.03-.743c2.81-.114 3.428 3.337 3.697 4.811q.14.774.28 1.57c.919 5.23 1.961 11.156 5.8 14.958 2.85 2.821 7.234 2.046 10.735 1.056.614-.174 1.234-.358 1.857-.543 4.99-1.48 10.148-3.01 15.044-.32 3.443 1.893 4.934 4.958 6.513 8.202 1.058 2.175 2.152 4.424 3.911 6.566 1.66 2.023 3.673 3.253 6.527 3.99z"/><path fill="#00D4FC" d="m11.733 55.246-1.634.62a1.17 1.17 0 0 1-1.51-.679L6.714 50.24l3.823-1.45 1.877 4.947a1.17 1.17 0 0 1-.68 1.509"/><path fill="#3C1DA1" d="m10.74 55.622-.641.243a1.17 1.17 0 0 1-1.51-.678L6.714 50.24l3.626-1.376a11.44 11.44 0 0 0 .4 6.758" opacity=".25"/><path fill="#0A1640" d="M9.683 56.166c-.194 0-.388-.042-.57-.124a1.39 1.39 0 0 1-.731-.776l-1.877-4.947a.224.224 0 0 1 .129-.288l3.823-1.45a.224.224 0 0 1 .288.13l1.876 4.946c.133.348.121.727-.032 1.066-.152.34-.428.6-.777.731l-1.633.62q-.244.091-.496.092M7 50.37l1.798 4.738a.943.943 0 0 0 1.221.549l1.634-.62a.943.943 0 0 0 .55-1.221l-1.797-4.738z"/><path fill="#00D4FC" d="M9.826 44.795 4.593 46.78a.583.583 0 0 1-.752-.34l-2.04-5.373a.583.583 0 0 1 .338-.752l5.234-1.986a.584.584 0 0 1 .753.339l2.039 5.374a.584.584 0 0 1-.339.752"/><path fill="#3C1DA1" d="M9.107 45.067 4.593 46.78a.58.58 0 0 1-.752-.338l-2.04-5.375a.584.584 0 0 1 .34-.753l.094-.036c.719-.272 1.52.06 1.848.755q.075.16.155.317c.724 1.418 1.826 2.701 3.285 3.337a4.7 4.7 0 0 0 1.584.38" opacity=".25"/><path fill="#0A1640" d="M4.385 47.041a.803.803 0 0 1-.753-.521l-2.039-5.374a.8.8 0 0 1 .467-1.04l5.233-1.986a.8.8 0 0 1 .617.02.8.8 0 0 1 .423.449l2.04 5.374c.076.201.07.42-.019.617a.8.8 0 0 1-.45.423l-5.233 1.986a.8.8 0 0 1-.286.052m3.195-8.527a.4.4 0 0 0-.128.023l-5.233 1.986a.36.36 0 0 0-.208.465l2.039 5.374a.36.36 0 0 0 .464.21l5.233-1.986a.36.36 0 0 0 .21-.465l-2.04-5.374a.36.36 0 0 0-.337-.233"/><path fill="#3C1DA1" d="m3.01 41.996.295.779a.236.236 0 0 0 .304.137l1.31-.497a.236.236 0 0 0 .137-.304l-.296-.78a.236.236 0 0 0-.304-.136l-1.31.497a.236.236 0 0 0-.137.304"/><path fill="#0A1640" d="M3.526 43.15a.46.46 0 0 1-.43-.296l-.295-.779a.46.46 0 0 1 .266-.592l1.31-.497a.46.46 0 0 1 .592.266l.296.78a.455.455 0 0 1-.267.591l-1.31.497a.5.5 0 0 1-.162.03m1.026-1.74-1.326.49-.008.016.296.78 1.326-.49z"/><path fill="#3C1DA1" d="m6.086 40.828.296.78a.236.236 0 0 0 .304.136l1.31-.497a.236.236 0 0 0 .136-.304l-.295-.78a.236.236 0 0 0-.305-.136l-1.31.497a.236.236 0 0 0-.136.304"/><path fill="#0A1640" d="M6.603 41.982a.46.46 0 0 1-.43-.296l-.296-.779a.455.455 0 0 1 .266-.591l1.31-.498a.456.456 0 0 1 .591.267l.296.78a.46.46 0 0 1-.266.59l-1.31.498a.5.5 0 0 1-.162.03m1.025-1.74-1.327.49-.007.017.296.78 1.327-.49z"/><path fill="#3C1DA1" d="m10.71 51.53-2.31.877a.89.89 0 0 1-.737-.048L4.42 50.623a.9.9 0 0 1-.413-.47l-1.48-3.903a.89.89 0 0 1 .515-1.15l6.829-2.59a.89.89 0 0 1 1.15.516l1.48 3.904a.9.9 0 0 1 .004.625l-1.263 3.415-.013.036a.9.9 0 0 1-.52.525"/><path fill="#D811AD" d="m11.492 44.27-8.494 3.223-.472-1.243a.89.89 0 0 1 .516-1.15l6.829-2.59a.89.89 0 0 1 1.15.516z"/><path fill="#fff" d="M11.51 46.288c-.018.3-.081.583-.153.862q-.113.417-.271.814a8 8 0 0 1-.36.78 4.5 4.5 0 0 1-.479.731.229.229 0 0 1-.404-.162 4.5 4.5 0 0 1 .16-.86 7.718 7.718 0 0 1 .644-1.589c.14-.252.29-.5.484-.73a.216.216 0 0 1 .38.154" opacity=".5"/><path fill="#0A1640" d="m10.714 51.53-2.314.877a.89.89 0 0 1-.737-.047L4.42 50.622a.9.9 0 0 1-.413-.47l-1.48-3.903a.89.89 0 0 1 .516-1.15l.196-.074a2.49 2.49 0 0 1 3.082 1.178c.499.94 1.157 1.804 1.914 2.545.896.877 1.916 1.603 3.007 2.221l-.013.037a.88.88 0 0 1-.515.522" opacity=".25"/><path fill="#0A1640" d="m12.71 46.851-1.01-2.66-.471-1.244a1.116 1.116 0 0 0-1.437-.647l-6.829 2.591a1.116 1.116 0 0 0-.645 1.438l.471 1.242 1.01 2.661c.095.252.278.461.515.588l3.243 1.735a1.11 1.11 0 0 0 .921.06l2.31-.876c.301-.115.538-.353.65-.657l1.275-3.45c.094-.25.093-.528-.003-.78M3.122 45.31l6.828-2.591a.67.67 0 0 1 .862.387l.392 1.035-8.077 3.065-.392-1.035a.67.67 0 0 1 .387-.861m9.174 2.169-1.262 3.416-.013.035a.67.67 0 0 1-.39.393l-2.31.876a.66.66 0 0 1-.551-.036l-3.244-1.736a.67.67 0 0 1-.31-.353l-.93-2.451 8.078-3.065.93 2.452a.67.67 0 0 1 .002.469"/><path fill="#D811AD" d="m58.757 87.775-.421 1.338a.94.94 0 0 0 .614 1.178L63 91.566l.986-3.131-4.052-1.275a.94.94 0 0 0-1.178.615"/><path fill="#0A1640" d="m58.5 88.588-.164.526a.94.94 0 0 0 .614 1.177L63 91.567l.935-2.97a9.2 9.2 0 0 1-5.435-.009" opacity=".25"/><path fill="#0A1640" d="M63.002 91.79a.2.2 0 0 1-.067-.011l-4.052-1.276a1.15 1.15 0 0 1-.681-.571 1.15 1.15 0 0 1-.078-.887l.42-1.338c.094-.296.297-.538.573-.683.276-.143.59-.171.886-.078l4.052 1.275a.223.223 0 0 1 .146.28l-.985 3.131a.225.225 0 0 1-.214.157m-3.35-4.45a.71.71 0 0 0-.682.502l-.421 1.338a.713.713 0 0 0 .468.899l3.84 1.208.85-2.706-3.839-1.208a.7.7 0 0 0-.216-.034"/><path fill="#00D4FC" d="m66.492 89.51-.821 2.61a.67.67 0 0 0 .437.839l4.424 1.392a.67.67 0 0 0 .84-.437l.82-2.61a.67.67 0 0 0-.437-.84l-4.423-1.392a.67.67 0 0 0-.84.438"/><path fill="#3C1DA1" d="m66.492 89.51-.821 2.61a.67.67 0 0 0 .437.839l4.424 1.392a.67.67 0 0 0 .84-.437l.269-.854a8 8 0 0 1-1.178-.638 8.23 8.23 0 0 1-2.85-3.261l-.282-.089a.67.67 0 0 0-.84.438" opacity=".25"/><path fill="#0A1640" d="M70.734 94.606a.9.9 0 0 1-.27-.042l-4.423-1.392a.894.894 0 0 1-.584-1.12l.822-2.61a.88.88 0 0 1 .44-.523.89.89 0 0 1 .68-.06l4.424 1.392c.47.148.73.65.583 1.12l-.822 2.61a.89.89 0 0 1-.439.523.9.9 0 0 1-.411.102m-3.604-5.343a.443.443 0 0 0-.426.313l-.821 2.61a.45.45 0 0 0 .292.56l4.424 1.392a.443.443 0 0 0 .56-.292l.822-2.61a.443.443 0 0 0-.292-.56l-4.425-1.392a.5.5 0 0 0-.134-.02"/><path fill="#3C1DA1" d="m61.782 88.422-.595 1.892a.71.71 0 0 0 .072.588l1.542 2.52c.09.147.23.256.396.309l3.197 1.006a.716.716 0 0 0 .898-.467l1.76-5.593a.716.716 0 0 0-.468-.898l-3.197-1.006a.7.7 0 0 0-.501.026l-2.679 1.17-.029.013a.71.71 0 0 0-.396.44"/><path fill="#D811AD" d="m67.566 87.458-2.19 6.959 1.018.32a.716.716 0 0 0 .898-.467l1.76-5.593a.716.716 0 0 0-.468-.898z"/><path fill="#fff" d="M66.105 87.871a3 3 0 0 1-.548.453q-.29.192-.602.34a5 5 0 0 1-.641.251 3 3 0 0 1-.696.137.234.234 0 0 1-.185-.394c.168-.18.357-.32.55-.448a4.9 4.9 0 0 1 1.25-.579c.222-.064.45-.119.698-.131a.221.221 0 0 1 .174.371" opacity=".5"/><path fill="#0A1640" d="m61.782 88.422-.595 1.892a.71.71 0 0 0 .072.588l1.542 2.52c.09.147.23.256.396.309l3.197 1.006a.715.715 0 0 0 .898-.467l.642-2.04c-1.406-.257-2.742-.984-3.808-1.953-.744-.678-1.373-1.463-1.92-2.308l-.028.012a.72.72 0 0 0-.396.441" opacity=".25"/><path fill="#0A1640" d="m68.652 87.566-1.018-.32-2.18-.687a.94.94 0 0 0-.657.035l-2.678 1.17-.03.012a.94.94 0 0 0-.52.58l-.595 1.891a.94.94 0 0 0 .095.772l1.542 2.519a.94.94 0 0 0 .519.405l2.18.686 1.019.32q.14.045.28.044a.94.94 0 0 0 .896-.656l1.76-5.594a.94.94 0 0 0-.613-1.177m-5.66 5.739-1.542-2.52a.49.49 0 0 1-.05-.404l.595-1.892a.5.5 0 0 1 .273-.303l2.708-1.183a.5.5 0 0 1 .344-.018l1.967.619-2.056 6.533-1.966-.62a.5.5 0 0 1-.273-.212m5.848-4.696-1.76 5.594a.493.493 0 0 1-.618.321l-.805-.254 2.055-6.532.806.253c.259.082.403.36.322.618"/><path fill="#E38921" d="m14.582 80.53-2.214-.275a.43.43 0 0 1-.33-.23l-1.03-1.98a.433.433 0 0 0-.776.016l-.945 2.021c-.06.13-.18.22-.32.244l-2.202.367a.432.432 0 0 0-.224.743l1.63 1.523a.43.43 0 0 1 .133.38l-.332 2.207a.432.432 0 0 0 .638.443l1.952-1.08a.43.43 0 0 1 .403-.008l1.996.996c.321.16.687-.117.618-.469l-.423-2.19a.43.43 0 0 1 .117-.386l1.565-1.59a.432.432 0 0 0-.256-.733M6.724 4.276a.38.38 0 0 1 .02.352L5.937 6.41a.38.38 0 0 0 .431.526l1.905-.443a.38.38 0 0 1 .342.089L10.059 7.9a.38.38 0 0 0 .634-.248l.167-1.948a.38.38 0 0 1 .19-.297l1.7-.967a.38.38 0 0 0-.039-.68L10.91 3a.38.38 0 0 1-.224-.273L10.291.81a.38.38 0 0 0-.658-.172l-1.28 1.478a.38.38 0 0 1-.329.129L6.08 2.029a.38.38 0 0 0-.366.572zM99.85 31.647l-1.431-.935a.33.33 0 0 1-.15-.27l-.041-1.708a.331.331 0 0 0-.54-.25l-1.33 1.071a.33.33 0 0 1-.303.06l-1.638-.49a.332.332 0 0 0-.404.436l.607 1.597a.33.33 0 0 1-.037.306l-.97 1.407a.331.331 0 0 0 .288.52l1.707-.085a.33.33 0 0 1 .28.13l1.037 1.358c.167.218.512.15.584-.115l.447-1.65a.33.33 0 0 1 .21-.225l1.612-.567a.33.33 0 0 0 .072-.59M7.786 29.364l-.774-2.093a.43.43 0 0 1 .053-.4l1.285-1.823a.433.433 0 0 0-.37-.681l-2.23.089a.43.43 0 0 1-.364-.173L4.05 22.497a.433.433 0 0 0-.763.142l-.604 2.148a.43.43 0 0 1-.277.293l-2.112.72a.433.433 0 0 0-.1.77l1.856 1.237c.119.08.19.211.192.354l.033 2.231c.005.36.42.556.7.334l1.752-1.383a.43.43 0 0 1 .396-.074l2.132.659a.433.433 0 0 0 .532-.564M94.543 77.011l-1.9-.458a.38.38 0 0 1-.266-.232l-.7-1.826a.38.38 0 0 0-.678-.062l-1.023 1.666a.38.38 0 0 1-.304.18l-1.952.103a.38.38 0 0 0-.27.625l1.27 1.487a.38.38 0 0 1 .078.345l-.507 1.889a.38.38 0 0 0 .511.449l1.807-.748a.38.38 0 0 1 .351.033l1.64 1.065a.38.38 0 0 0 .585-.347l-.152-1.95a.38.38 0 0 1 .14-.324l1.52-1.23a.38.38 0 0 0-.15-.665M41.682 83.409l-1.564-.69a.33.33 0 0 1-.191-.242l-.319-1.679a.332.332 0 0 0-.572-.159l-1.14 1.274a.33.33 0 0 1-.289.108l-1.695-.216a.332.332 0 0 0-.328.495l.86 1.477a.33.33 0 0 1 .012.308l-.73 1.546a.331.331 0 0 0 .37.465l1.67-.36a.33.33 0 0 1 .298.081l1.244 1.172c.2.188.53.065.557-.208l.173-1.7a.33.33 0 0 1 .17-.258l1.499-.821a.33.33 0 0 0-.025-.593"/></svg>