<svg width="152" height="126" viewBox="0 0 152 126" fill="none" xmlns="http://www.w3.org/2000/svg">
<path d="M114.008 99.2841C111.804 98.9895 111.667 97.5893 109.628 97.4384C108.633 97.3648 107.808 97.7109 107.108 98.3741C105.823 99.5928 105.827 100.855 105.504 102.264C104.984 104.537 103.365 107.946 101.143 108.618C97.9897 109.571 96.6691 104.029 98.9028 98.7357C100.283 95.4655 99.0734 92.2677 96.1471 93.9516C94.9637 94.6326 93.8017 96.1735 93.5242 96.7792C92.3857 99.2629 89.358 102.234 86.7878 101.6C84.2148 100.966 84.5962 97.1351 86.0076 94.6508C86.808 93.2418 86.1315 92.423 84.5748 93.1633C80.9306 94.8969 81.2313 98.2986 77.6624 99.9587C75.0053 101.195 72.5641 99.4528 71.6756 96.6089C71.4964 96.0354 71.4415 95.0816 70.4083 95.1358C68.4306 95.2397 65.7651 98.4528 64.5817 100.054C63.4138 101.634 63.0804 102.986 61.8588 103.342C59.9462 103.899 58.8361 100.868 59.669 98.3766C59.7611 98.1014 60.1701 96.5271 60.8212 95.2188C62.9592 90.9223 62.7464 91.9343 63.05 91.2564C64.0104 89.1112 64.5187 89.0154 65.8875 85.1596C67.5459 80.4884 71.6874 75.8595 76.8837 74.2977C79.7089 73.4485 82.364 73.8488 85.1928 72.293C86.241 71.7166 87.2148 71.06 87.9498 70.0753C88.83 68.8972 90.037 68.1405 91.3886 67.5918C93.2143 66.8502 95.1312 66.6056 97.0776 66.5322C99.756 66.4311 102.404 66.7265 105.027 67.2367C106.016 67.4293 106.952 67.3316 107.88 66.9863C107.941 66.9634 108 66.9314 108.062 66.9092C108.404 66.7864 108.492 66.8093 108.627 67.1361C108.85 67.6743 109.172 68.1382 109.581 68.5514C109.944 68.9181 110.38 69.1577 110.833 69.3927C112.118 70.059 112.972 71.0593 113.136 72.5528C113.167 72.8375 113.201 73.1218 113.233 73.406C113.361 74.5703 113.822 75.6185 114.398 76.6152C115.383 78.3207 116.714 79.7092 118.356 80.8011C119.609 81.6336 120.262 82.8442 120.503 84.2996C120.564 84.6683 120.577 85.0419 120.568 85.4195C120.543 86.4229 120.743 87.3906 121.104 88.3264C121.84 90.2325 122.78 91.1285 123.743 92.0722C124.088 92.4106 124.092 92.421 123.854 92.8569C121.884 96.4655 117.874 99.8006 114.008 99.2841Z" fill="#FFCE00"/>
<path opacity="0.5" d="M117.363 98.8373C115.527 99.5516 113.372 99.5982 111.828 98.3623C109.185 96.2463 106.215 97.9435 105.718 101.181C105.387 103.334 104.779 104.772 103.54 106.66C102.2 108.705 99.818 109.676 98.5324 107.431C97.2979 105.276 97.7708 101.908 98.5992 99.5167C98.8306 98.8491 100.169 96.018 99.0181 94.2488C97.9764 92.6481 95.6428 93.8358 94.3378 95.6038C92.8845 97.5718 93.2604 97.8451 91.5511 99.5828C90.8197 100.326 90.0022 100.958 89.0277 101.362C85.2289 102.937 83.6099 98.9067 86.019 94.6312C86.2508 94.2195 86.4581 93.7738 86.283 93.3192C86.1587 92.9965 85.9807 92.8691 85.6276 92.8764C84.4405 92.8994 82.9861 94.1563 82.166 95.028C81.692 95.5322 81.3459 96.1179 81.0096 96.7135C78.2946 101.517 73.3521 101.561 71.7046 96.7126C71.5044 96.1231 71.4663 94.9625 70.2515 95.1507C69.2739 95.3024 68.2251 96.1055 67.484 96.759C65.0996 98.8617 63.561 101.667 63.1794 102.243C61.5152 104.755 59.0435 102.975 59.4417 99.3812C59.4817 99.0186 59.5496 98.9314 59.8865 98.9524C61.6564 99.0614 62.628 96.2803 64.9091 93.8935C66.6886 92.0313 69.3641 91.4074 71.971 92.4805C73.9084 93.2779 74.3033 94.7652 77.0901 92.0753C80.4691 88.8136 84.4089 88.5535 86.9845 90.0645C88.4509 90.9249 89.2051 92.8029 89.7269 93.3971C90.7661 94.5815 92.2168 92.6553 93.2841 91.4862C94.5649 90.0829 96.4543 89.8665 98.1332 90.6741C100.649 91.8847 101.323 94.0527 102.217 95.8352C102.52 96.4391 103.176 96.5092 103.661 96.113C104.711 95.2572 104.963 94.389 106.287 92.9843C108.673 90.4522 112.085 90.4612 115.316 91.7028C117.922 92.7037 120.078 93.87 122.142 92.9786C123.802 92.2619 123.391 92.3236 123.753 92.2171C123.87 92.183 124.035 92.3262 124.012 92.4472C123.992 92.5528 123.958 92.6601 123.908 92.7543C122.463 95.4509 120.154 97.7518 117.363 98.8373Z" fill="#E38921"/>
<path d="M116.6 62.0761C116.952 62.2262 117.327 62.5751 117.719 62.8926C124.036 68.0082 134.458 85.5378 133.786 93.1318C133.773 93.2762 133.587 93.3415 133.479 93.2469C133.364 93.1459 133.256 93.0343 133.158 92.9166C130.968 90.2975 126.771 89.3089 124.705 91.6085C124.245 92.1216 124.202 92.0468 123.972 91.8681C123.143 91.2232 122.481 90.4257 121.967 89.5191C120.877 87.5976 120.849 86.419 120.846 85.1648C120.842 83.4949 120.082 81.6755 118.678 80.6903C115.779 78.6564 113.736 76.161 113.41 72.6193C113.176 70.0694 111.106 69.2379 110.257 68.6998C107.002 66.636 109.042 61.5646 113.455 61.2473C114.551 61.169 115.544 61.4776 116.6 62.0761Z" fill="#D811AD"/>
<path d="M101.722 84.5923C101.002 83.785 101.648 82.7804 102.649 82.454C104.201 81.9484 105.706 82.4175 106.316 83.1116C107.951 84.9747 103.467 86.552 101.722 84.5923Z" fill="#D811AD"/>
<path d="M94.0878 84.3753C94.8518 83.61 94.2649 82.5707 93.2833 82.1874C91.7623 81.5941 90.2332 81.9766 89.585 82.6352C87.8463 84.402 92.2342 86.2318 94.0878 84.3753Z" fill="#D811AD"/>
<path d="M81.0445 84.194C79.5742 84.4925 78.1075 84.4261 76.6514 84.1005C74.6925 83.664 73.3374 82.584 72.8017 81.3316C72.1414 79.804 72.6812 78.0184 74.7985 76.8004C76.9238 75.5717 79.4009 75.2649 81.6139 75.6697C82.2543 75.7887 82.8298 75.9548 83.3406 76.1675C87.7735 77.988 87.3488 82.9223 81.0445 84.194Z" fill="#FF8CDB"/>
<path d="M113.988 88.1979C113.868 88.064 113.799 87.9938 113.723 87.9748C113.635 87.9511 113.549 87.9956 113.38 88.0899C111.637 89.0499 109.241 87.9915 109.151 85.7127C109.143 85.5139 109.178 85.3001 109.245 85.0914C109.489 84.3268 110.187 83.5828 111.073 83.5505C111.917 83.5187 111.587 83.3079 111.362 82.872C111.058 82.2811 111.046 81.4956 111.517 80.9897C113.455 78.9045 117.387 81.326 118.305 83.9771C119.504 87.4298 115.902 90.3234 113.988 88.1979Z" fill="#FF8CDB"/>
<path d="M111.622 98.5709C112.13 98.8782 112.618 99.2218 113.202 99.3865C116.256 100.247 119.599 98.4023 121.77 96.1656C123.087 94.8092 123.768 93.7231 124.549 92.3253C126.222 89.3305 131.17 90.6236 133.176 93.3714C133.787 94.2083 133.709 94.1073 133.496 94.9374C132.537 98.6702 130.415 101.394 126.751 102.488C122.174 103.854 116.331 103.804 111.585 103.419C110.836 103.358 106.478 102.928 106.001 102.812C105.807 102.765 105.724 102.671 105.765 102.483C105.947 101.645 105.981 100.772 106.332 99.9748C107.355 97.6529 109.501 97.306 110.704 98.0432C111.006 98.2264 111.316 98.395 111.622 98.5709Z" fill="#FF8CDB"/>
<path d="M99.1576 95.3755C99.3839 97.1248 98.6707 98.4796 98.3446 99.3947C97.6794 101.263 97.998 101.562 97.2473 101.409C96.9825 101.355 91.9445 100.344 91.7092 100.215C91.5027 100.101 91.7122 99.8439 91.8724 99.6707C93.7564 97.6391 93.8017 96.5098 94.9291 95.3117C96.0104 94.163 96.6974 93.9194 97.3414 93.7962C97.6778 93.7318 99.0104 94.2381 99.1576 95.3755Z" fill="#FF8CDB"/>
<path d="M85.5212 93.1612C86.196 93.1387 86.1928 93.8408 85.8409 94.4128C84.726 96.2252 84.73 97.7944 84.5948 98.2668C84.5146 98.5467 84.2612 98.4719 83.9753 98.3974C81.3288 97.7101 80.8054 97.7004 81.0076 97.29C82.1359 95.0018 84.3496 93.1999 85.5212 93.1612Z" fill="#FF8CDB"/>
<path d="M111.885 65.9608C113.495 64.9064 115.891 64.2269 117.602 64.7048C118.328 64.9078 118.394 65.5668 117.894 65.7632C116.856 66.1703 115.563 66.0048 113.169 67.5307C112.61 67.887 112.45 68.0515 112.008 68.1398C111.631 68.2153 111.307 68.1303 111.075 67.8048C110.535 67.0481 111.107 66.4696 111.885 65.9608Z" fill="#FF8CDB"/>
<path d="M117.627 71.6986C122.213 70.0018 122.716 71.5144 121.964 71.946C121.319 72.3164 119.089 72.8318 117.295 74.0921C116.865 74.3942 116.163 74.7392 115.678 74.3483C114.558 73.445 116.288 72.1941 117.627 71.6986Z" fill="#FF8CDB"/>
<path d="M128.855 83.6786C129.638 83.884 129.694 84.4868 129.281 84.7327C128.488 85.2054 127.457 85.1533 125.851 85.7744C125.312 85.983 124.224 86.775 123.456 86.0741C122.012 84.754 126.144 82.9672 128.855 83.6786Z" fill="#FF8CDB"/>
<path d="M123.366 77.0327C123.869 76.9628 125.63 76.4533 125.89 77.2006C126.162 77.983 124.452 78.2182 122.487 79.2803C121.92 79.5868 121.342 80.1143 120.705 80.2464C119.73 80.4483 118.886 79.3623 120.152 78.324C121.022 77.61 122.262 77.1864 123.366 77.0327Z" fill="#FF8CDB"/>
<path d="M68.9295 87.4108C70.0529 87.3413 70.483 88.1178 70.6881 87.812C70.7833 87.6704 70.8776 87.5265 70.9545 87.3744C71.5566 86.1823 73.2636 85.6672 74.5252 86.2592C76.006 86.9542 76.349 87.9483 76.094 88.8739C75.7871 89.9878 74.1877 90.3155 73.433 89.3576C73.1016 88.9373 73.0024 88.5522 72.7543 88.9089C72.56 89.1888 72.412 89.4974 72.1639 89.7447C71.6088 90.2985 70.7676 90.4429 70.0647 90.0809C69.7362 89.9117 69.4497 89.6239 68.9753 89.9975C68.7317 90.1892 68.6813 90.281 68.2902 90.9689C67.9349 91.5933 66.8867 91.8276 66.4256 90.9714C66.0508 90.2742 66.9255 87.5346 68.9295 87.4108Z" fill="#845EF9"/>
<path d="M99.1617 72.6015C100.146 72.8326 100.315 73.6113 100.57 73.4018C100.689 73.3046 100.807 73.2054 100.912 73.0947C101.739 72.2254 103.34 72.224 104.271 73.0597C105.365 74.0406 105.403 74.9838 104.944 75.7139C104.392 76.5922 102.932 76.4601 102.531 75.4412C102.355 74.9941 102.369 74.637 102.063 74.8797C101.823 75.0702 101.617 75.2973 101.339 75.4458C100.718 75.7782 99.9581 75.6851 99.4472 75.1919C99.2081 74.9614 99.0367 74.64 98.532 74.8386C98.2729 74.9406 98.2061 75.0066 97.6914 75.4963C97.2241 75.941 96.2628 75.8714 96.0875 75.0162C95.9455 74.3185 97.4062 72.189 99.1617 72.6015Z" fill="#845EF9"/>
<path d="M92.1557 90.2407C91.3078 90.0014 91.191 89.3164 90.9601 89.489C90.8534 89.5689 90.7461 89.6507 90.6502 89.7433C89.8965 90.4683 88.5022 90.407 87.7229 89.6431C86.8085 88.7462 86.8126 87.9226 87.2407 87.3051C87.7559 86.5614 89.0224 86.7333 89.3323 87.6367C89.4685 88.0331 89.4421 88.3436 89.7175 88.144C89.9334 87.9876 90.1226 87.7975 90.37 87.6794C90.9237 87.4143 91.5822 87.5248 92.008 87.9743C92.2069 88.1842 92.3442 88.4711 92.7913 88.3177C93.0208 88.2391 93.082 88.1842 93.5491 87.7774C93.9733 87.4082 94.8083 87.5063 94.9273 88.2583C95.0239 88.87 93.6686 90.6681 92.1557 90.2407Z" fill="#845EF9"/>
<path d="M106.687 90.2268C107.48 90.6122 107.474 91.3068 107.732 91.1777C107.851 91.1178 107.971 91.056 108.082 90.982C108.952 90.4015 110.314 90.7076 110.946 91.5971C111.688 92.6411 111.538 93.4511 111.009 93.9837C110.37 94.6248 109.154 94.2321 109.008 93.2884C108.944 92.8741 109.025 92.5731 108.719 92.7212C108.478 92.8369 108.258 92.9906 107.994 93.0637C107.403 93.2273 106.774 93.002 106.434 92.4845C106.275 92.2426 106.191 91.9363 105.723 92.0082C105.483 92.045 105.414 92.0884 104.882 92.4063C104.399 92.6951 103.595 92.451 103.61 91.6897C103.622 91.0695 105.274 89.5393 106.687 90.2268Z" fill="#845EF9"/>
<path d="M75.3336 79.0555C74.0435 79.0024 73.7739 77.3871 75.1504 77.1202C75.5556 77.0418 75.9225 77.1453 76.2706 77.3255C77.1001 77.7541 76.7225 79.113 75.3336 79.0555Z" fill="#D811AD"/>
<path d="M77.9928 82.931C76.7029 82.8774 76.433 81.2626 77.8096 80.9957C78.2147 80.9173 78.5817 81.0208 78.9298 81.201C79.7588 81.6294 79.3817 82.9885 77.9928 82.931Z" fill="#D811AD"/>
<path d="M82.6217 78.8935C81.3318 78.8399 81.0619 77.2252 82.4385 76.9582C82.8436 76.8798 83.2106 76.9833 83.5588 77.163C84.3875 77.5924 84.0106 78.951 82.6217 78.8935Z" fill="#D811AD"/>
<path d="M84.0722 80.8828C83.028 80.8395 82.8097 79.5325 83.9239 79.3167C84.2519 79.2531 84.5491 79.3369 84.8308 79.4825C85.5016 79.829 85.196 80.929 84.0722 80.8828Z" fill="#D811AD"/>
<path d="M79.663 80.1738C78.6188 80.1306 78.4005 78.8235 79.5147 78.6077C79.8427 78.5442 80.14 78.628 80.4216 78.7735C81.0928 79.1207 80.7873 80.2202 79.663 80.1738Z" fill="#D811AD"/>
<path d="M78.5748 77.4696C77.741 77.435 77.5665 76.3911 78.4567 76.2187C78.7185 76.1679 78.9558 76.2351 79.1811 76.3513C79.7165 76.6283 79.4726 77.5066 78.5748 77.4696Z" fill="#D811AD"/>
<path d="M82.1647 82.5052C81.3309 82.4707 81.1563 81.4267 82.0466 81.2544C82.3083 81.2035 82.5457 81.2707 82.771 81.3869C83.3064 81.664 83.0624 82.5423 82.1647 82.5052Z" fill="#D811AD"/>
<path d="M74.4794 81.6148C73.4352 81.5715 73.2169 80.2644 74.3311 80.0486C74.6591 79.9851 74.9564 80.0689 75.238 80.2144C75.9087 80.5614 75.6031 81.6614 74.4794 81.6148Z" fill="#D811AD"/>
<path d="M115.483 87.3849C115.348 87.4146 115.207 87.2846 115.249 87.1526C115.282 87.0492 115.333 86.9505 115.381 86.8531C115.563 86.4915 115.241 86.0395 114.789 86.0535C114.332 86.0679 113.991 86.4254 113.988 86.9296C113.985 87.3478 114.267 87.7536 113.805 87.9174C113.189 88.1358 112.814 86.5128 113.566 85.8252C114.531 84.9433 115.844 85.4116 116.02 86.211C116.097 86.5533 115.872 87.2993 115.483 87.3849Z" fill="#D811AD"/>
<path d="M111.712 83.758C111.503 83.5483 111.627 83.1807 111.96 83.2262C112.253 83.2661 112.512 83.4295 112.932 83.3608C113.594 83.2516 113.683 82.2796 112.993 82.1616C112.63 82.0997 112.29 82.1849 112.32 81.9289C112.358 81.6082 113.088 81.522 113.489 81.7072C114.358 82.1084 114.46 83.1496 113.655 83.8155C113.05 84.315 112.128 84.174 111.712 83.758Z" fill="#D811AD"/>
<g opacity="0.5">
<path d="M129.177 101.424C124.925 103.967 116.661 103.806 111.734 103.428C110.731 103.351 106.915 102.964 106.084 102.826C105.638 102.752 105.691 102.71 106.04 100.938C106.156 100.351 105.81 100.707 113.493 101.253C117.347 101.527 122.125 101.016 124.715 98.1522C126.411 96.2766 127.79 94.804 129.91 93.9574C130.816 93.5958 131.751 93.3535 132.739 93.3713C133.294 93.381 133.731 93.8679 133.622 94.42C132.95 97.8145 130.974 100.349 129.177 101.424Z" fill="#D811AD"/>
<path d="M97.8319 101.15C97.7416 101.318 97.6447 101.364 97.5295 101.366C96.7578 101.381 92.0947 100.377 91.7787 100.254C91.2435 100.045 92.1992 99.4914 92.7035 98.6677C92.9241 98.3073 93.221 98.2559 93.6091 98.359C98.0917 99.5523 98.2824 99.3237 98.1564 99.875C98.0527 100.325 97.9297 100.769 97.8319 101.15Z" fill="#D811AD"/>
<path d="M84.8187 96.9539C84.6296 98.3608 84.6482 98.5259 84.1833 98.4445C83.874 98.3902 83.8849 98.3896 81.4379 97.7369C81.0721 97.6394 80.8897 97.5528 81.0248 97.2381C81.4377 96.2731 84.9279 96.1419 84.8187 96.9539Z" fill="#D811AD"/>
<path d="M113.683 87.6841C113.719 87.8106 113.734 87.901 113.724 87.975C113.636 87.9513 113.55 87.9959 113.381 88.0901C111.637 89.0501 109.242 87.9917 109.152 85.713C109.144 85.5141 109.179 85.3004 109.246 85.0916C109.309 85.1503 109.382 85.2503 109.472 85.3557C109.845 85.7909 110.48 86.1711 111.075 86.0933C112.11 85.9555 113.195 84.5115 114.546 85.4367C114.938 85.706 114.402 85.9315 114.206 86.0799C113.619 86.5238 113.477 86.9524 113.683 87.6841Z" fill="#D811AD"/>
<path d="M81.0448 84.1945C79.5744 84.4931 78.1078 84.4266 76.6516 84.1011C74.6927 83.6646 73.3377 82.5846 72.802 81.3321C73.1427 81.0025 73.926 80.9315 74.3917 80.9865C76.9467 81.287 79.1392 83.2846 82.5485 82.0865C84.7096 81.3258 86.275 79.5256 83.3412 76.1687C87.7738 77.9886 87.3491 82.9229 81.0448 84.1945Z" fill="#D811AD"/>
</g>
<path opacity="0.75" d="M106.119 70.5561C104.103 71.134 100.615 70.9616 98.4971 70.81C96.0892 70.6372 92.3185 71.6021 90.1414 72.4979C89.2366 72.87 88.8599 72.3956 89.1283 71.86C89.2504 71.6161 89.454 71.447 89.6448 71.2646C90.6974 70.2603 91.938 69.5673 93.2818 69.0336C98.2731 67.0513 101.434 69.0007 104.244 69.106C106.485 69.1899 106.913 68.5908 107.646 68.4581C107.849 68.4214 108.028 68.6269 107.991 68.8354C107.912 69.2807 107.191 70.2488 106.119 70.5561Z" fill="white"/>
<path d="M87.7598 75.112C87.6876 75.8387 88.3403 76.4989 89.2174 76.5859C90.0946 76.6728 90.8644 76.1543 90.9362 75.4274C91.0084 74.7006 90.3557 74.0404 89.4785 73.9535C88.6019 73.8667 87.832 74.3852 87.7598 75.112Z" fill="#E38921"/>
<path d="M98.1787 88.3188C98.0904 89.2099 98.8903 90.0184 99.965 90.1253C101.04 90.232 101.983 89.5962 102.072 88.7053C102.161 87.8144 101.361 87.0059 100.286 86.8988C99.2104 86.7922 98.267 87.4277 98.1787 88.3188Z" fill="#E38921"/>
<path d="M79.403 87.0117C79.3388 87.6589 79.9198 88.2463 80.7007 88.3241C81.4817 88.4018 82.1666 87.9398 82.2308 87.2927C82.295 86.6456 81.7141 86.0581 80.9331 85.9804C80.1522 85.9027 79.4672 86.3646 79.403 87.0117Z" fill="#E38921"/>
<path d="M108.173 76.3525C108.109 76.9997 108.69 77.5871 109.471 77.6648C110.252 77.7426 110.937 77.2808 111.001 76.6335C111.065 75.9864 110.484 75.3989 109.704 75.3212C108.923 75.2436 108.238 75.7055 108.173 76.3525Z" fill="#E38921"/>
<path d="M94.0761 78.9083C94.0524 79.8385 93.3425 80.4876 92.4618 80.4792C91.5718 80.4708 90.8483 79.6868 90.8824 78.8626C90.9193 77.9715 91.6164 77.3014 92.5114 77.3164C93.4243 77.3316 94.1032 78.0223 94.0761 78.9083Z" fill="#0A1640"/>
<path d="M103.525 80.8016C102.725 80.8001 101.96 79.9652 102.014 79.1763C102.064 78.4653 102.595 77.6255 103.665 77.6325C105.705 77.6456 105.753 80.8065 103.525 80.8016Z" fill="#0A1640"/>
<path d="M97.3823 83.4139C97.243 83.3694 97.1066 83.3077 96.9763 83.2301C95.9535 82.619 95.4357 81.1483 95.5554 79.1959C95.5701 78.9572 95.7756 78.7754 96.0144 78.7901C96.2531 78.8048 96.4349 79.0104 96.4202 79.2491C96.3228 80.843 96.6968 82.0534 97.4211 82.4865C97.7817 82.7014 98.1891 82.69 98.5711 82.4542C99.1705 82.083 99.7646 81.0784 99.633 79.3718C99.6143 79.1331 99.7934 78.9249 100.031 78.9065C100.27 78.8884 100.478 79.0669 100.497 79.3054C100.633 81.0836 100.084 82.536 99.0264 83.1904C98.51 83.5106 97.9204 83.586 97.3823 83.4139Z" fill="#0A1640"/>
<path d="M118.594 62.9614C123.786 67.5314 130.709 78.7775 133.344 87.0494C134.463 90.5651 134.77 92.7611 133.692 96.101C132.687 99.2174 130.652 101.654 127.5 102.762C122.619 104.478 116.201 104.249 111.188 103.884C105.501 103.469 105.845 102.932 105.546 103.921C105.218 105.007 104.608 105.961 104.007 106.909C102.194 109.77 98.8618 110.303 97.686 106.734C97.1479 105.101 97.259 103.901 97.4007 102.218C97.4428 101.717 97.2822 102.105 91.5249 100.734C91.0157 100.613 90.9529 100.846 90.0741 101.387C88.8787 102.123 87.1146 102.549 85.9303 101.818C84.8806 101.171 84.6741 100.324 84.4343 99.2822C84.3609 98.9623 84.3415 99.0311 82.2178 98.4674C80.9388 98.1277 80.7941 98.0116 80.5347 98.3056C77.7875 101.424 75.0124 101.376 73.0898 99.7778C71.8279 98.7291 71.4388 97.4938 70.9997 96.1736C70.8374 95.6857 70.5988 95.5534 70.0951 95.683C69.859 95.7435 69.6415 95.844 69.43 95.9689C67.4357 97.1476 66.0628 98.8738 64.6839 100.775C64.0253 101.683 63.1964 104.2 61.0321 103.881C59.5908 103.668 57.9262 101.221 59.6733 96.6304C60.5474 94.3343 61.7715 92.0983 63.034 89.9947C65.5341 85.8295 64.8433 85.775 66.0589 83.4083C69.187 77.3182 74.0077 74.1079 78.516 73.3902C79.9614 73.1601 81.3905 73.098 83.0093 72.6502C84.4739 72.2445 86.4428 71.2174 87.3405 69.9987C89.8462 66.5964 94.6749 65.9 98.886 66.0328C104.913 66.223 105.813 67.3854 107.779 66.4829C108.654 66.0811 107.597 65.1823 108.943 63.2513C110.185 61.4689 112.213 60.6914 113.937 60.7325C115.907 60.7797 117.267 61.7927 118.594 62.9614ZM59.9774 98.1862C58.7692 101.741 60.8638 104.174 62.3928 102.783C62.8332 102.383 63.4267 101.488 63.6113 101.151C64.816 98.9614 68.8613 94.1338 71.0911 95.0242C71.7036 95.2689 71.5958 95.617 71.8863 96.525C72.7049 99.0846 74.7081 100.775 77.3013 99.8532C78.7512 99.3375 80.1385 97.8245 80.7551 96.6211C81.3961 95.3701 82.8239 93.7899 84.3373 93.0131C86.2625 92.0249 87.2124 93.2331 86.1389 94.958C85.362 96.2066 84.8866 98.2373 85.2438 99.6577C85.6363 101.22 87.1084 101.823 88.646 101.265C90.1817 100.707 92.0511 99.1576 93.2086 96.9501C96.4516 90.7642 101.607 93.0049 99.0557 99.0093C96.6119 104.76 98.7603 110.565 102.166 107.807C103.629 106.623 104.582 104.647 105.104 102.886C105.649 101.046 105.396 99.5653 107.049 98.0952C108.244 97.0329 109.935 96.9102 111.096 97.6552C111.393 97.845 112.88 98.7789 113.479 98.9303C117.442 99.9332 121.646 96.3654 123.693 92.7368C124.029 92.1403 123.024 92.2784 121.591 89.8556C119.694 86.6486 120.732 85.2681 120.087 83.5068C119.079 80.7525 117.843 81.3704 115.524 78.6088C114.042 76.8436 113.017 74.8861 112.909 72.5303C112.89 72.1045 112.751 71.7082 112.547 71.3374C111.34 69.1451 109.779 69.8077 108.648 67.7104C108.167 66.8191 108.265 67.2709 106.831 67.5068C106.33 67.589 105.824 67.6254 105.321 67.5249C99.9101 66.442 91.4306 65.8403 88.1092 70.261C86.8224 71.9736 84.4242 73.1176 82.4392 73.5366C79.3202 74.1949 74.6239 73.7518 69.6344 79.3719C67.7953 81.443 66.3798 84.0862 65.9337 85.717C64.8066 89.8381 62.0636 92.0489 59.9774 98.1862ZM116.406 62.2922C115.766 61.8513 115.049 61.5819 114.268 61.4951C109.903 61.0093 106.706 66.3956 110.746 68.7673C111.202 69.0348 111.704 69.2378 112.096 69.597C113.008 70.4309 113.583 71.4418 113.654 72.7049C113.785 75.0452 115.343 78.1359 118.484 80.2463C119.674 81.046 120.438 82.1286 120.832 83.493C121.3 85.1089 120.853 86.0978 121.37 87.6072C121.923 89.225 122.726 90.4621 123.991 91.5929C124.226 91.8032 124.294 91.6827 124.717 91.2566C126.451 89.5081 130.411 89.6404 133.12 92.5333C133.225 92.646 133.325 92.7634 133.434 92.873C133.503 92.9429 133.593 92.9179 133.602 92.8077C133.62 92.588 133.664 92.3634 133.637 92.1486C133.529 91.3191 133.491 90.4805 133.301 89.6608C131.35 81.2189 123.813 68.7817 118.604 63.9871C117.924 63.3606 117.263 62.7065 116.406 62.2922ZM133.339 94.6325C133.43 94.2713 133.377 93.9935 133.16 93.7111C130.643 90.4222 126.648 90.0673 124.957 92.0817C124.508 92.6175 124.012 93.9534 122.706 95.4951C120.157 98.5061 115.972 100.872 112.52 99.3832C111.526 98.9544 111.753 98.8853 110.786 98.3092C109.627 97.6191 108.071 97.8271 107.095 99.1427C106.382 100.105 106.202 101.233 106.035 102.37C105.999 102.617 106.296 102.625 106.477 102.646C106.985 102.704 113.135 103.546 118.539 103.398C126.337 103.184 131.509 101.897 133.339 94.6325ZM96.6466 94.2543C94.3599 95.4607 93.6811 98.0406 92.5977 99.1974C92.0119 99.823 91.8098 100.021 92.0436 100.087C92.5512 100.229 92.3709 100.186 96.9589 101.12C97.2694 101.184 97.4948 101.245 97.6033 100.996C97.7232 100.72 97.9639 99.6801 98.2557 98.9861C99.9161 95.0361 98.3339 93.3641 96.6466 94.2543ZM81.4117 97.0843C81.1864 97.5094 81.0514 97.3933 84.1205 98.1952C84.339 98.2522 84.3834 98.2146 84.4131 97.9724C84.5786 96.6232 84.9811 95.3535 85.6668 94.1763C86.1646 93.3217 85.5537 93.1874 84.6917 93.657C83.2067 94.4654 82.2025 95.5931 81.4117 97.0843Z" fill="#0A1640"/>
<path d="M35.5936 48.0379C35.5052 48.0348 35.416 48.0232 35.3264 48.0028C34.5491 47.8271 34.0623 47.0546 34.238 46.2772L42.1459 11.3309C42.4456 10.0067 43.2959 8.86419 44.4785 8.19677C45.6611 7.52935 47.0784 7.39203 48.3665 7.82048L62.4194 12.4883C63.1753 12.7393 63.5848 13.5559 63.3337 14.3122C63.0825 15.0686 62.2679 15.4782 61.5097 15.2265L47.4568 10.5587C46.9327 10.3844 46.3779 10.438 45.896 10.7097C45.4142 10.9813 45.0818 11.4281 44.9595 11.9678L37.0516 46.9142C36.8958 47.6019 36.2733 48.0627 35.5936 48.0379Z" fill="white"/>
<path d="M41.876 12.5254L41.2468 15.3066C41.8767 15.8968 42.7215 16.4623 43.8482 16.8833L44.3448 14.6884C42.8851 14.0638 42.191 13.1367 41.876 12.5254Z" fill="#D811AD"/>
<path d="M43.1984 19.7508C41.8332 19.2325 41.0784 18.4549 40.6738 17.8345L40.0755 20.4791C40.7277 21.0365 41.5846 21.5576 42.7037 21.9381L43.1984 19.7508Z" fill="#D811AD"/>
<path d="M51.7692 8.95089L49.6582 8.24951C49.4485 9.01445 49.3239 10.0382 49.5457 11.2524L52.12 12.1077C51.5479 10.7537 51.5972 9.66678 51.7692 8.95089Z" fill="#D811AD"/>
<path d="M56.9385 10.6675L54.8145 9.96191C54.6338 10.7628 54.5635 11.7999 54.8413 13.0109L57.5117 13.8979C56.8513 12.5522 56.809 11.4447 56.9385 10.6675Z" fill="#D811AD"/>
<path d="M62 12.3488L59.877 11.6436C59.6947 12.443 59.622 13.4797 59.8968 14.6903L61.5096 15.2262C61.8123 15.3267 62.1229 15.3176 62.4046 15.2269C61.9034 14.0384 61.8799 13.0551 62 12.3488Z" fill="#D811AD"/>
<path d="M62.6928 11.6662C59.875 10.7305 69.9716 14.0836 48.5799 6.97864C45.4079 5.96409 42.0367 7.88621 41.3011 11.1398L33.3932 46.0861C33.1268 47.2628 33.7918 48.4272 34.9403 48.7945C35.0041 48.8149 35.0689 48.8326 35.1354 48.8477C35.2758 48.8792 35.4193 48.8979 35.5618 48.9034C36.6705 48.9442 37.652 48.1878 37.8971 47.105C46.3369 10.3787 45.5403 11.9055 46.3226 11.4639C47.1037 11.024 46.7111 11.354 61.2372 16.0484L61.2419 16.0499L61.2619 16.0563C62.4612 16.4399 63.7596 15.7797 64.1567 14.5847C64.5569 13.3769 63.9006 12.0679 62.6928 11.6662ZM46.2 10.5768C44.667 9.47683 44.8134 8.20014 44.8219 8.13815C44.8273 8.10034 44.8201 8.06516 44.8163 8.029C45.1693 7.86458 45.5379 7.74314 45.9161 7.66844C45.7986 8.24151 45.7564 9.29833 46.5304 10.493C46.4189 10.5123 46.3085 10.538 46.2 10.5768ZM43.9623 8.5391C44.0195 9.14391 44.2999 10.1653 45.4343 11.0858C45.4039 11.1182 45.3721 11.1486 45.3447 11.183C43.5379 10.6513 43.2105 9.38026 43.1863 9.26979C43.417 8.99949 43.6758 8.75407 43.9623 8.5391ZM37.0517 46.9142C36.8959 47.6019 36.273 48.0626 35.5937 48.038C35.5053 48.0349 35.4161 48.0233 35.3265 48.0028C35.2848 47.9936 35.2438 47.982 35.2042 47.9694C34.4993 47.7439 34.0717 47.0124 34.2381 46.2773C42.5988 9.63555 41.9973 11.2546 42.6042 10.1231C42.9212 10.7135 43.5887 11.5299 44.959 11.9728L37.0517 46.9142ZM61.5251 15.2319C61.5199 15.2303 61.5148 15.2286 61.5097 15.227L47.6858 10.635C47.6683 10.5868 47.6453 10.5399 47.6101 10.4988C46.3096 8.97708 46.7937 7.68667 46.8387 7.57629C48.272 7.57351 47.9144 7.76367 62.4194 12.4888C63.1752 12.7398 63.5848 13.5564 63.3336 14.3127C63.0838 15.0633 62.2785 15.4729 61.5251 15.2319Z" fill="#0A1640"/>
<path d="M62.0747 34.5262L60.9763 43.8854L60.5852 47.244L60.5391 47.6016L57.3412 74.8986L57.2568 75.5994L56.9041 78.6144L55.7671 88.3242C55.6075 89.6676 54.5961 90.6605 53.4245 90.6175L25.3476 89.5866C24.8206 89.5675 24.345 89.3409 23.9661 88.9712C23.5092 88.5292 23.2111 87.873 23.1794 87.1274L22.757 77.3604L22.6264 74.3275L22.618 74.1548L22.5937 73.6221L21.4021 46.164L21.3863 45.8041L21.3778 45.6314L21.2424 42.4259L20.8326 33.0111C20.8205 32.7392 20.845 32.4763 20.898 32.2288C20.9854 32.2429 21.0771 32.2501 21.1684 32.2537L61.7955 33.7451C61.8868 33.7487 61.9789 33.7483 62.0674 33.7366C62.1013 33.9919 62.1066 34.2561 62.0747 34.5262Z" fill="#FF8CDB"/>
<path d="M53.288 90.6057L52.1172 93.6383C51.6228 94.9142 50.3797 95.7338 49.0137 95.6836L29.3243 94.9606C29.068 94.951 28.8163 94.9126 28.5734 94.8452C27.5393 94.5504 26.7033 93.7535 26.3793 92.6935L25.4344 89.583L53.288 90.6057Z" fill="#845EF9"/>
<path d="M64.1935 31.5171C64.15 32.7034 63.2207 33.6481 62.0663 33.7375C61.978 33.7488 61.8864 33.7493 61.7945 33.746L21.1673 32.2546C21.076 32.251 20.9842 32.2443 20.8969 32.2297C20.3684 32.148 19.9013 31.8886 19.5558 31.5172C19.154 31.0811 18.9154 30.4927 18.9387 29.8561C18.9858 28.5785 20.0599 27.5805 21.3377 27.6272L61.9649 29.1187C62.6019 29.1421 63.1709 29.4233 63.5764 29.856C63.9778 30.292 64.217 30.88 64.1935 31.5171Z" fill="#845EF9"/>
<path d="M61.6828 29.108L21.6196 27.6371L23.3082 24.2863C23.6759 23.559 24.4327 23.1103 25.2489 23.1402L58.3931 24.3569C59.2094 24.3869 59.9318 24.8901 60.245 25.6421L61.6828 29.108Z" fill="#845EF9"/>
<path d="M60.6054 47.0724L60.5845 47.2439L60.5384 47.6016L57.3405 74.8986L57.277 75.4278L22.6176 74.1554L22.5931 73.6232L21.4016 46.1651L21.3853 45.805L21.3768 45.6323L60.6054 47.0724Z" fill="#FFCE00"/>
<path d="M44.2459 58.1791C43.5604 57.3261 44.1944 56.2737 45.1652 55.936C46.6695 55.4126 48.1176 55.9143 48.6986 56.6476C50.2573 58.615 45.9091 60.2483 44.2459 58.1791Z" fill="#D811AD"/>
<path d="M36.8785 57.9083C37.6249 57.1081 37.0696 56.0116 36.1261 55.6041C34.6641 54.9721 33.1833 55.3659 32.5502 56.0545C30.8507 57.9027 35.0678 59.8504 36.8785 57.9083Z" fill="#D811AD"/>
<path d="M60.9762 43.8854L60.5832 47.2434L60.5402 47.6009L21.4029 46.1643L21.386 45.8045L21.2404 42.4268L60.9762 43.8854Z" fill="white"/>
<path d="M57.339 74.8993L57.2566 75.5986L56.9027 78.6143L22.7568 77.3612L22.6245 74.3272L22.5938 73.6236L57.339 74.8993Z" fill="white"/>
<path d="M30.3602 63.6159L31.2654 65.6336C31.3182 65.7512 31.4253 65.8353 31.552 65.8583L33.7272 66.2561C34.046 66.3145 34.1597 66.7134 33.9192 66.9308L32.2801 68.4152C32.1846 68.5017 32.1381 68.6296 32.1548 68.7572L32.4485 70.9492C32.4916 71.2706 32.1476 71.5016 31.8662 71.3407L29.9479 70.2408C29.8364 70.1769 29.7003 70.1719 29.5839 70.2276L27.5903 71.1841C27.2979 71.3243 26.9719 71.0685 27.038 70.7512L27.4915 68.5866C27.518 68.4605 27.4806 68.33 27.3919 68.2364L25.8659 66.6358C25.6421 66.4009 25.7847 66.0115 26.107 65.977L28.3056 65.7393C28.4339 65.7254 28.5465 65.6494 28.6079 65.5361L29.6586 63.5902C29.8131 63.3048 30.2274 63.3197 30.3602 63.6159Z" fill="#E38921"/>
<path d="M51.0283 64.3745L51.9334 66.3922C51.9862 66.5098 52.0934 66.5938 52.22 66.6169L54.3952 67.0147C54.714 67.073 54.8278 67.472 54.5872 67.6894L52.9481 69.1738C52.8527 69.2603 52.8061 69.3882 52.8228 69.5158L53.1166 71.7078C53.1596 72.0292 52.8154 72.2606 52.5342 72.0993L50.6161 70.9989C50.5046 70.935 50.3685 70.93 50.2521 70.9857L48.2585 71.9423C47.9661 72.0824 47.6401 71.8266 47.7062 71.5093L48.1595 69.3452C48.186 69.2191 48.1488 69.0881 48.06 68.995L46.534 67.3944C46.3102 67.1595 46.4526 66.7706 46.775 66.7356L48.9737 66.4979C49.1019 66.484 49.2145 66.408 49.276 66.2946L50.3267 64.3488C50.4811 64.0634 50.8953 64.0787 51.0283 64.3745Z" fill="#E38921"/>
<path d="M40.8056 60.957L41.7108 62.9747C41.7635 63.0923 41.8707 63.1764 41.9974 63.1994L44.1726 63.5973C44.4913 63.6556 44.6051 64.0546 44.3646 64.2719L42.7255 65.7563C42.63 65.8429 42.583 65.9706 42.6001 66.0983L42.8939 68.2903C42.9369 68.6117 42.5929 68.8427 42.3117 68.6814L40.3934 67.5815C40.2819 67.5175 40.1458 67.5125 40.0294 67.5683L38.0358 68.5248C37.7434 68.665 37.417 68.409 37.4835 68.0919L37.937 65.9273C37.9635 65.8012 37.9261 65.6706 37.8374 65.577L36.3114 63.9765C36.0877 63.7416 36.23 63.3527 36.5525 63.3176L38.7512 63.08C38.8794 63.066 38.992 62.9901 39.0535 62.8767L40.1042 60.9309C40.2585 60.6459 40.6726 60.6613 40.8056 60.957Z" fill="#E38921"/>
<path opacity="0.5" d="M55.7658 88.3245C55.6062 89.6679 54.5948 90.6607 53.4232 90.6177L25.3462 89.5868C24.8192 89.5677 24.3437 89.3411 23.9648 88.9714C27.0494 78.0427 36.3812 83.5029 45.9417 78.2118C53.8561 73.8282 56.3422 46.1602 56.4422 33.5492C62.1766 33.7557 61.881 33.7613 62.0664 33.7374C62.1524 34.3741 62.5003 30.8055 55.7658 88.3245Z" fill="#D811AD"/>
<g opacity="0.25">
<path d="M64.1943 31.517C64.1472 32.7947 63.073 33.7926 61.7952 33.746L22.6178 32.3078C22.8246 31.4721 23.7396 29.3098 27.8361 27.8657C30.9667 26.7633 35.9593 26.0778 43.92 26.7329C51.5624 27.3618 55.7973 26.1499 58.0888 24.3456L58.3927 24.3571C59.209 24.387 59.9314 24.8903 60.2446 25.6422L61.6828 29.1083L61.9645 29.1188C62.6016 29.1423 63.1706 29.4234 63.5761 29.8561C63.9785 30.2919 64.2178 30.88 64.1943 31.517Z" fill="#0A1640"/>
<path d="M53.2884 90.6054L52.1176 93.6381C51.6233 94.9139 50.3802 95.7335 49.0142 95.6833L29.3248 94.9603C29.0685 94.9507 28.8168 94.9124 28.5738 94.8449C30.4476 93.5388 33.3043 93.1049 35.2113 92.7934C40.4446 91.9445 46.5345 93.1286 50.6742 90.5124C50.6742 90.5124 50.6778 90.5125 50.6779 90.509L53.2884 90.6054Z" fill="#0A1640"/>
</g>
<path d="M35.4084 51.1518C34.5445 51.1297 33.866 51.7719 33.8231 52.6318C33.7838 53.4276 34.4758 54.1898 35.3352 54.2053C36.1855 54.2205 36.8761 53.5996 36.9064 52.7018C36.9401 51.8466 36.2902 51.1745 35.4084 51.1518Z" fill="#0A1640"/>
<path d="M46.1754 51.5464C45.1418 51.5311 44.6228 52.3379 44.5693 53.0239C44.5102 53.7851 45.2423 54.597 46.0148 54.6048C48.1656 54.6276 48.1449 51.5754 46.1754 51.5464Z" fill="#0A1640"/>
<path d="M42.6477 52.67C42.4096 52.6919 42.2347 52.9031 42.2565 53.1417C42.3497 54.1493 42.0402 54.9548 41.4063 55.3519C40.9618 55.6304 40.4414 55.6406 40.0193 55.3864C39.4001 55.0117 39.096 54.1384 39.1843 52.9905C39.2026 52.7519 39.0232 52.542 38.7857 52.5251C38.5472 52.5063 38.339 52.6852 38.3202 52.9237C38.2059 54.4099 38.6618 55.5778 39.5711 56.128C39.7152 56.2152 39.8669 56.2837 40.023 56.3336C40.6259 56.5265 41.2977 56.4429 41.8667 56.0867C42.7742 55.5182 43.2422 54.3875 43.1193 53.0617C43.0979 52.8232 42.8854 52.6479 42.6477 52.67Z" fill="#0A1640"/>
<path d="M56.1965 88.3751L62.5045 34.5777C62.5236 34.4184 62.5292 34.2579 62.5263 34.0968C63.7048 33.8148 64.5811 32.7818 64.6264 31.5339C64.6537 30.8046 64.3938 30.1046 63.8926 29.5601C63.3897 29.0239 62.7108 28.7138 61.9806 28.6862L61.9766 28.6859L60.6443 25.4761C60.2671 24.5697 59.3885 23.9605 58.4091 23.9251L25.2649 22.7084C24.2841 22.6726 23.3647 23.2156 22.921 24.0922L21.3575 27.1949L21.3535 27.1947C20.6194 27.1679 19.9197 27.4284 19.3814 27.928C18.8431 28.4276 18.5324 29.1068 18.5056 29.8409C18.4788 30.5704 18.7392 31.2705 19.239 31.813C19.5608 32.1588 19.9676 32.4158 20.4117 32.5589C20.3976 32.7156 20.3922 32.8736 20.3992 33.0315L22.7459 87.1467C22.7809 87.9734 23.1152 88.7522 23.6627 89.2821C23.9658 89.5773 24.3118 89.7882 24.6841 89.9072C24.8215 89.9512 24.964 89.9778 25.108 89.9966L25.9656 92.8198C26.3171 93.9703 27.2002 94.8623 28.3431 95.2279C28.3809 95.24 28.4192 95.2517 28.4579 95.2625C28.7319 95.3389 29.0182 95.3832 29.3091 95.3936L48.9985 96.1166C50.5464 96.1731 51.9623 95.2403 52.5219 93.7943L53.5856 91.0386C54.9097 90.9901 56.0174 89.8842 56.1965 88.3751ZM23.6951 24.482C23.9859 23.9069 24.59 23.55 25.2332 23.5734L58.3774 24.7901C58.5292 24.7955 58.6775 24.8219 58.8186 24.867C59.2752 25.0131 59.6558 25.3536 59.8453 25.8081L61.025 28.6502L22.3112 27.2288L23.6951 24.482ZM19.3719 29.872C19.3904 29.3694 19.6033 28.9044 19.9716 28.5621C20.3395 28.2196 20.8192 28.0412 21.3216 28.0602L21.6029 28.0705C21.6033 28.0707 21.6033 28.0707 21.6033 28.0707L41.6349 28.8061L61.9483 29.5515C62.1224 29.5579 62.292 29.588 62.4542 29.6399C62.758 29.737 63.0336 29.911 63.2577 30.1496C63.6003 30.5221 63.7791 31.002 63.7606 31.5014C63.7258 32.4564 62.983 33.2326 62.0113 33.308C61.9459 33.3164 61.8783 33.3158 61.8104 33.3131L21.1828 31.8215C21.1097 31.8186 21.0368 31.8138 20.9627 31.8014C20.5504 31.7384 20.1605 31.5315 19.8743 31.2237C19.5326 30.8515 19.3538 30.3716 19.3719 29.872ZM49.0305 95.2506L29.3411 94.5276C29.1183 94.5195 28.8989 94.4858 28.6929 94.4281C27.7704 94.1685 27.0711 93.4724 26.7948 92.5668L26.0283 90.0449L52.6626 91.0227L51.7134 93.4812C51.2875 94.5833 50.2091 95.2943 49.0305 95.2506ZM53.44 90.1851L53.3353 90.1815C53.3245 90.18 53.3154 90.173 53.3048 90.1727L25.4512 89.15C25.4405 89.1497 25.4313 89.156 25.4204 89.1561L25.3635 89.1544C24.9626 89.1407 24.5843 88.9699 24.2667 88.6608C23.8761 88.2826 23.6373 87.7173 23.6118 87.1098L21.2654 32.9937C21.2611 32.8932 21.2625 32.7925 21.2695 32.692L38.8162 33.3363L61.6631 34.175C61.6627 34.2756 61.6564 34.3758 61.6446 34.4752L55.337 88.2732C55.2026 89.3982 54.3872 90.22 53.44 90.1851Z" fill="#0A1640"/>
<path d="M82.4615 43.2505C82.8128 45.521 80.1518 45.8747 78.4871 46.3777C78.3963 46.4077 78.321 46.4458 78.2292 46.4375C77.2661 43.8414 76.5174 41.2476 75.5942 38.6247L75.6022 38.6093C77.2555 37.5044 79.9705 36.6656 80.8168 39.2125C81.0285 39.8498 80.9863 40.5584 80.8491 41.1719C80.8263 41.293 80.8753 41.3277 80.985 41.3926C81.6596 41.8251 82.3188 42.2116 82.4615 43.2505ZM79.3309 39.6818C79.126 39.4842 78.8917 39.4237 78.6339 39.446C78.3077 39.4911 77.9202 39.5819 77.7347 39.7829C77.8864 40.1242 77.9354 40.6889 78.2494 41.1781C78.7229 41.0835 79.3678 40.9329 79.4546 40.3982C79.497 40.1822 79.536 39.8788 79.3309 39.6818ZM80.298 42.7825C80.1469 42.6304 79.8894 42.5393 79.6805 42.5582C79.3697 42.5729 79.0589 42.7015 78.7628 42.7619C78.7973 43.2434 78.9556 44.0618 79.3263 44.3432L79.3533 44.3472C79.7741 44.207 80.3579 44.1015 80.5439 43.6356C80.6389 43.3512 80.4872 43.0099 80.298 42.7825Z" fill="#0A1640"/>
<path d="M88.2101 42.1835C88.3467 42.6813 88.4599 43.2459 88.4254 43.7408C86.8255 44.0508 85.1458 44.511 83.604 44.686C83.0561 41.9608 82.3883 39.3693 82 36.6478C83.8025 36.1874 86.8357 35.5295 86.8494 35.5991C87.0423 36.1343 87.0741 36.7156 87.185 37.2683L87.1876 37.2794C86.2333 37.7035 85.1531 37.7375 84.1376 38.0398L84.1024 38.047L84.0929 38.0609C84.1966 38.5168 84.1905 39.032 84.3812 39.433L84.3951 39.4426C84.8718 39.383 85.363 39.273 85.8471 39.187L85.8495 39.199C86.0381 39.7108 86.074 40.2538 86.2013 40.8271C85.7458 41.0533 84.944 41.0793 84.8066 41.2423C84.8161 41.7169 84.9905 42.3422 85.1011 42.7109L85.115 42.7205C86.1487 42.5123 87.1432 42.4103 88.2044 42.1596L88.2101 42.1835Z" fill="#0A1640"/>
<path d="M93.5244 37.63C92.9714 37.7725 92.3059 37.8766 91.732 37.768C91.8505 36.8804 90.2705 36.6883 90.2143 37.5948C90.187 37.7058 90.2201 37.8109 90.2414 37.9178C90.4046 38.289 90.7222 38.3464 91.06 38.3661C91.917 38.3906 92.7089 38.8051 93.2319 39.447C93.8534 40.1162 93.9506 41.1421 93.6386 41.9986C93.3383 43.0099 92.4311 43.5194 91.4484 43.5651C90.0479 43.6467 88.4561 42.8782 88.424 41.3533L88.4215 41.3181L88.4182 41.2816C88.9725 41.1513 89.7084 41.174 90.2443 41.1169C90.3895 42.1273 92.1351 42.0041 91.8504 40.9095C91.6911 40.1534 90.7383 40.1249 90.0593 40.0495C89.7317 40.0172 89.4563 39.8844 89.2134 39.7122C87.6268 38.4379 88.1731 36.2029 89.6482 35.4416C90.398 35.0548 91.5178 35.0689 92.3113 35.3514C93.1086 35.6814 93.6628 36.4169 93.5368 37.6298L93.5244 37.63Z" fill="#0A1640"/>
<path d="M99.7499 37.048C99.4531 36.9756 99.0449 36.9817 98.2903 36.9853L98.2654 36.9845L98.2533 36.9837C98.2535 36.9961 98.2406 37.0074 98.24 37.019C98.1825 37.2451 98.1567 38.1192 98.0282 43.3542L98.0274 43.3663L98.0268 43.3779C97.4362 43.4484 96.6393 43.3065 96.0599 43.3774C96.0298 43.2322 96.2507 41.4673 96.2496 36.9941L96.2386 36.9818C95.8757 36.7739 94.9976 36.8443 94.8088 36.7762C94.7535 36.6537 94.7499 35.647 94.8419 34.8952C94.8417 34.8828 94.8302 34.8817 94.8309 34.8701C96.4595 34.9278 98.2456 34.9444 99.8778 35.1948C99.8906 35.7232 99.8585 36.4772 99.7499 37.048Z" fill="#0A1640"/>
<path d="M76.9538 57.5892C77.6547 59.7768 75.0832 60.5424 73.5182 61.2991C73.4329 61.3427 73.364 61.3926 73.2734 61.3995C71.9151 58.9857 70.7705 56.5427 69.4493 54.0965L69.4543 54.0807C70.9134 52.7303 73.463 51.4775 74.6976 53.8605C75.0067 54.4565 75.0746 55.1628 75.0352 55.7902C75.0318 55.9134 75.0856 55.9393 75.2042 55.986C75.9386 56.3072 76.6501 56.5861 76.9538 57.5892ZM73.3031 54.5546C73.0709 54.3926 72.8299 54.3689 72.5782 54.4317C72.2638 54.5268 71.8959 54.6767 71.7439 54.9044C71.9468 55.2174 72.0827 55.7672 72.4698 56.2013C72.9232 56.0345 73.5359 55.7842 73.5384 55.2431C73.5457 55.0231 73.5359 54.718 73.3031 54.5546ZM74.7447 57.4661C74.5714 57.3398 74.3024 57.2897 74.0994 57.3413C73.7942 57.4045 73.5084 57.5801 73.226 57.686C73.3345 58.1562 73.6195 58.9397 74.0297 59.1587L74.0561 59.1579C74.4495 58.954 75.0092 58.7586 75.121 58.2695C75.1696 57.9743 74.9669 57.6609 74.7447 57.4661Z" fill="#0A1640"/>
<path d="M82.2891 55.4894C82.5306 56.5245 82.1723 57.5259 81.1316 58.0261C79.9064 58.6193 78.151 58.6418 77.5836 57.2795C76.8525 55.3005 76.1828 53.2482 75.4183 51.2821L75.4027 51.2746L75.4143 51.2705C75.8751 51.1 76.5247 50.7839 77.0202 50.7411L77.0248 50.7523C77.6153 52.5913 78.3294 54.4227 79.1662 56.2352C79.6498 56.8876 80.636 56.4074 80.5284 55.6678C79.9425 53.8401 79.2174 51.9482 78.6175 50.1883C79.0214 50.0016 79.8336 49.5352 80.2721 49.6159C81.0714 51.5053 81.7877 53.4775 82.2891 55.4894Z" fill="#0A1640"/>
<path d="M87.188 50.3461C87.3273 50.5719 87.3962 50.8143 87.4661 51.0565C87.6036 51.7989 87.7913 52.5431 87.8187 53.2878C87.8213 53.2989 87.81 53.302 87.8125 53.3135C87.7148 54.3095 87.3353 55.26 86.9132 56.1347C85.8946 56.4113 84.8338 56.6611 83.8535 56.892L83.8448 56.9062C82.927 54.5249 82.4705 51.6409 81.7758 48.9489C81.7845 48.9347 81.7897 48.9086 81.7996 48.8938C82.6332 48.4635 83.6927 48.3622 84.5831 48.1154C85.1144 48.1261 85.6979 48.4068 86.0848 48.7965C86.5464 49.2416 86.903 49.7614 87.188 50.3461ZM85.9445 51.7593C85.7393 51.3028 85.4621 50.7529 84.8922 50.6898C84.6162 50.7176 84.2874 50.784 84.0214 50.9074L83.9977 50.9126L83.9865 50.9153L83.9969 50.9617C84.2532 51.7884 84.4258 52.9411 84.7316 53.9778C84.942 54.0877 85.2695 53.9613 85.5413 53.8613C85.6251 53.8532 85.6604 53.7957 85.7343 53.7413C85.8649 53.6125 85.9482 53.445 86.0081 53.2834C86.1809 52.8122 86.2078 52.3011 85.9445 51.7593Z" fill="#0A1640"/>
<path d="M93.346 49.5911C93.4576 49.8317 93.4966 50.0804 93.5371 50.3296C93.5851 51.0835 93.6815 51.8452 93.6194 52.587C93.6208 52.5987 93.6079 52.6003 93.6093 52.612C93.3923 53.5893 92.9021 54.4874 92.3775 55.3057C91.3335 55.4577 90.249 55.5776 89.2488 55.6891L89.2383 55.7027C88.6133 53.2281 88.5067 50.3097 88.1402 47.5537C88.1507 47.5401 88.1595 47.5157 88.1696 47.5019C89.0495 47.1753 90.1136 47.2013 91.027 47.0641C91.554 47.1377 92.0996 47.4873 92.4364 47.9196C92.8416 48.4175 93.1325 48.9758 93.346 49.5911ZM91.943 50.8449C91.7928 50.367 91.5832 49.7874 91.0263 49.6565C90.749 49.6515 90.4139 49.6763 90.1342 49.7671L90.1112 49.7701L90.099 49.7713L90.1047 49.8193C90.26 50.6697 90.2922 51.8361 90.4713 52.901C90.6668 53.0365 91.0072 52.9502 91.2897 52.8824C91.3742 52.8848 91.4162 52.8324 91.4959 52.7871C91.6403 52.6745 91.7435 52.5186 91.8224 52.3651C92.049 51.9183 92.138 51.4137 91.943 50.8449Z" fill="#0A1640"/>
<path d="M96.6223 46.7505L96.623 46.798C96.6766 49.5418 96.5636 52.3967 96.7722 55.1135C96.5146 55.3824 94.9279 55.1615 94.5938 55.2637C94.7663 52.3719 94.2902 49.4447 94.5254 46.7552L94.5248 46.7314C94.6081 46.718 94.9077 46.7481 95.0166 46.7464C95.3042 46.7527 95.6157 46.7825 96.3345 46.7561L96.6223 46.7505Z" fill="#0A1640"/>
<path d="M102.54 53.8973C102.537 54.4141 102.495 54.9873 102.329 55.4565C100.705 55.3245 98.9625 55.3164 97.4312 55.0716C97.6358 52.2994 97.688 49.6234 98.046 46.8982C99.905 46.9392 103.003 47.1195 102.998 47.1914C103.041 47.7589 102.914 48.327 102.873 48.8885L102.871 48.8998C101.84 49.0525 100.789 48.7944 99.7306 48.8124L99.6945 48.8096L99.6816 48.8209C99.6596 49.2879 99.5145 49.7818 99.5902 50.2195L99.6009 50.2326C100.077 50.3037 100.579 50.3288 101.068 50.3769L101.068 50.389C101.112 50.9333 101 51.465 100.969 52.0518C100.469 52.1467 99.6903 51.9571 99.5139 52.0768C99.396 52.5368 99.396 53.1855 99.4033 53.5704L99.414 53.5836C100.466 53.6611 101.451 53.8298 102.541 53.8741L102.54 53.8973Z" fill="#0A1640"/>
<path d="M108.89 50.9423C108.318 50.9304 107.65 50.8518 107.126 50.5933C107.479 49.7699 106.009 49.1591 105.71 50.0173C105.654 50.117 105.658 50.2271 105.65 50.3353C105.708 50.737 105.998 50.8781 106.319 50.9879C107.136 51.2412 107.788 51.8543 108.119 52.6134C108.537 53.4256 108.355 54.4404 107.823 55.1807C107.261 56.0745 106.25 56.3203 105.292 56.1005C103.921 55.8018 102.595 54.6328 102.975 53.1555L102.982 53.1203L102.988 53.0853C103.556 53.1084 104.26 53.3281 104.792 53.4177C104.659 54.4296 106.374 54.7815 106.395 53.6505C106.445 52.8787 105.535 52.5955 104.9 52.3398C104.593 52.2197 104.364 52.0175 104.176 51.7863C102.991 50.132 104.119 48.1261 105.745 47.7905C106.572 47.6191 107.646 47.9338 108.334 48.4196C109.013 48.9526 109.35 49.8097 108.901 50.9444L108.89 50.9423Z" fill="#0A1640"/>
<path d="M117.944 34.43C117.51 33.5315 117.103 32.7795 117.048 32.109C116.994 31.4445 117.858 31.1437 118.207 31.6466C118.777 32.4689 119.186 34.0455 119.444 34.032C119.699 34.0189 119.697 33.6767 119.769 33.4614C120.169 32.2653 120.314 31.5033 120.718 30.7676C121.024 30.2093 121.97 30.6038 121.926 31.1576C121.882 31.6921 121.64 32.2307 120.854 34.8157C120.594 35.6723 121.484 35.2477 122.611 34.9333C123.25 34.7547 124.142 34.7754 124.218 35.4316C124.282 35.9732 123.772 36.1272 123.249 36.29C120.491 37.1469 120.585 36.6871 123.527 38.6162C124.068 38.9704 124.702 39.4531 124.301 39.986C123.893 40.5293 123.284 40.0519 121.987 39.2899C121.817 39.1897 121.677 39.0325 121.501 38.9469C121.112 38.7578 120.798 38.4244 120.353 38.3455C120.122 38.8259 120.477 39.2346 120.525 39.6819C120.602 40.3983 121.034 40.8606 120.659 41.5287C120.513 41.7887 120.173 41.8734 119.949 41.6851C118.853 40.7657 119.235 38.5839 118.327 39.5732C117.153 40.8516 116.929 41.1906 116.336 41.62C115.777 42.0251 115.141 41.4391 115.469 40.8378C116.013 39.8412 117.64 38.3794 117.499 38.1142C117.351 37.8374 114.918 38.9221 114.175 38.7121C113.638 38.5604 113.547 38.0229 113.923 37.7101C114.495 37.235 114.865 37.2262 116.694 36.6621C116.836 36.6181 117.03 36.5921 117.024 36.3924C117.019 36.214 116.844 36.1446 116.706 36.0769C116.005 35.7341 114.415 34.9843 114.346 34.9385C113.693 34.5051 114.162 33.3806 114.955 33.7281C117.709 34.9351 118.347 35.5448 117.923 34.4421C117.93 34.4371 117.937 34.4338 117.944 34.43Z" fill="#845EF9"/>
<path d="M135.602 40.8791C135.173 39.9227 134.524 38.7079 135.277 38.4374C135.802 38.2489 135.987 38.7352 136.231 39.3045C136.372 39.6307 136.669 40.5938 136.834 40.5897C137.061 40.5841 136.969 40.437 137.621 38.6594C137.811 38.139 138.05 37.5484 138.548 37.7903C139.227 38.121 138.954 38.3146 137.966 41.2613C137.734 41.9538 138.47 41.6284 139.395 41.3975C139.921 41.2668 140.648 41.304 140.695 41.841C140.735 42.285 140.313 42.3987 139.885 42.5186C137.616 43.1539 137.703 42.7806 140.058 44.422C140.491 44.7236 140.997 45.1319 140.658 45.5567C140.073 46.291 138.248 44.2867 137.475 44.1273C137.276 44.5134 137.555 44.8556 137.584 45.2213C137.631 45.8077 137.973 46.193 137.651 46.7305C137.316 47.2906 136.756 46.659 136.568 46.0225C136.083 44.3819 136.371 44.5441 134.648 46.2738C134.303 46.62 133.844 47.0155 133.5 46.6739C133.13 46.3059 133.523 45.857 133.898 45.4257C135.561 43.5116 135.88 43.6067 133.101 44.2654C131.874 44.5561 131.52 43.4511 133.119 43.0472C135.494 42.4463 135.295 42.5724 133.083 41.4346C132.876 41.3276 132.131 41.0785 132.507 40.4325C132.645 40.1947 132.894 40.1019 133.179 40.2366C135.395 41.2839 135.902 41.7984 135.583 40.8874C135.59 40.8845 135.596 40.8818 135.602 40.8791Z" fill="#845EF9"/>
<path d="M134.733 60.2992C133.877 59.9351 133.13 59.6566 132.681 59.2201C132.235 58.7868 132.657 58.0457 133.21 58.185C134.114 58.4126 135.369 59.2679 135.542 59.1003C135.712 58.9349 135.5 58.6958 135.419 58.5008C134.966 57.4161 134.6 56.7917 134.433 56.0283C134.305 55.4486 135.211 55.1449 135.52 55.5614C135.817 55.963 135.976 56.4843 137.011 58.7857C137.354 59.5465 137.718 58.7026 138.316 57.7905C138.655 57.2729 139.294 56.7407 139.75 57.1537C140.127 57.4958 139.862 57.9178 139.596 58.351C138.186 60.6442 137.97 60.2633 141.218 59.8128C141.815 59.7299 142.556 59.6799 142.602 60.2995C142.65 60.9481 141.868 60.9814 140.55 61.2303C140.369 61.2649 140.175 61.2402 139.999 61.2881C139.61 61.3937 139.185 61.352 138.824 61.5702C138.956 62.0486 139.456 62.1182 139.764 62.4026C140.258 62.8584 140.845 62.9176 140.992 63.6163C141.049 63.8884 140.862 64.1568 140.589 64.1619C139.258 64.1887 138.186 62.4228 138.155 63.6743C138.108 65.5995 138.248 66.8172 137.466 66.7891C136.87 66.7679 136.852 66.0862 136.831 65.4341C136.741 62.5312 137.091 62.358 135.263 65.0794C134.484 66.239 133.286 65.6543 134.333 64.0439C135.86 61.6953 135.787 61.9582 133.052 62.719C132.875 62.7685 132.7 62.8389 132.518 62.863C131.795 62.9597 131.433 61.8821 132.203 61.6401C134.866 60.8015 135.704 60.8398 134.724 60.3205C134.727 60.3132 134.729 60.3064 134.733 60.2992Z" fill="#845EF9"/>
</svg>
