<svg width="130" height="117" viewBox="0 0 130 117" fill="none" xmlns="http://www.w3.org/2000/svg">
<path d="M49.6979 10.0125C49.1413 11.2663 51.3457 10.9011 51.3307 15.1082C51.3307 15.1362 51.3292 15.1646 51.325 15.1925C51.0788 16.7944 50.8766 15.9316 47.7955 15.7098C44.9471 15.5044 42.7122 17.2056 42.3429 16.3682C42.1252 15.8747 41.9498 15.3534 41.9715 14.8181C42.0222 13.5674 42.1965 12.338 43.0241 11.317C43.4627 10.7754 43.0267 10.4734 42.826 9.84132C42.42 8.56119 42.6502 7.3545 43.4555 6.32626C43.9355 5.71335 44.1046 5.10975 44.0203 4.37271C43.8501 2.89086 44.4196 1.54711 44.9487 1.04644C46.3064 -0.238865 47.9155 1.84813 47.9543 3.67083C47.9734 4.57287 47.9977 5.16872 48.7487 5.88094C49.4827 6.5766 50.1846 8.91549 49.6979 10.0125Z" fill="#E38921"/>
<path d="M88.3951 42.055C85.7764 47.6762 79.4156 52.6566 72.2034 54.1472C70.9719 54.3996 69.7363 54.4224 68.4991 54.5005C68.0553 54.5315 67.7801 54.3624 67.5991 53.9227C65.4769 48.9155 61.8558 44.4674 61.5491 44.7006C61.0888 45.0482 65.735 48.2798 69.0318 58.4495C69.4052 59.6091 70.058 62.1094 70.1133 63.1371C70.1774 64.2248 69.7176 63.2157 65.6285 63.6714C64.4993 63.7981 63.2063 64.1095 61.8843 64.5372C59.8599 65.192 57.7568 66.122 56.0417 67.099C49.7 70.7061 50.9212 71.5456 49.5433 70.6855C46.0091 68.4852 41.8553 66.7215 37.6487 66.0279C35.6165 65.6917 33.5636 65.6074 31.5703 65.8494C30.3475 66.0015 29.46 66.5746 29.521 65.6544C30.347 52.969 35.9144 46.7535 35.7706 46.4313C35.4986 45.8116 32.343 51.1489 30.9465 56.0878C30.7763 56.6837 30.4686 56.8968 29.8913 56.9557C21.7766 57.8288 13.2491 53.5534 9.25563 47.8805C5.45351 42.4864 8.84754 37.4553 13.6753 39.9453C20.8678 43.6527 30.4375 44.1917 34.9032 41.035C35.5715 40.5654 33.6443 39.8873 32.2126 35.8912C30.8508 32.0612 31.2754 27.9555 33.5797 24.4854C34.0855 23.7246 33.4204 24.1596 31.8749 20.5302C31.0266 18.5321 29.8531 14.5009 31.9814 14.1652C33.2709 13.9594 35.316 14.7652 36.5123 15.3559C41.0505 17.5975 40.646 18.1266 41.4942 17.6565C44.2536 16.1374 48.4038 15.5328 52.2297 16.995C53.0899 17.3198 52.7801 16.7322 56.5941 14.2449C57.7511 13.4908 59.6664 12.3467 61.0515 12.3105C64.1968 12.2458 62.0141 20.0844 60.7267 22.1129C60.4107 22.612 61.125 22.5851 62.3746 24.8449C64.5925 28.8451 64.6359 33.8394 61.8238 38.4608C61.5817 38.8606 61.2574 39.1348 61.6965 39.3644C63.0501 40.0761 65.7221 40.4697 66.6215 40.4464C78.7654 40.148 81.6686 35.2809 84.5594 34.7151C87.2221 34.1932 88.8234 36.0464 89.023 38.2529C89.1399 39.5729 88.9501 40.8509 88.3951 42.055Z" fill="white"/>
<path d="M29.5007 42.8293C29.857 42.7894 29.9646 42.9648 29.8488 43.3573C29.1298 45.7924 27.6076 50.614 25.4348 51.1395C24.3553 51.4002 23.6943 50.2245 23.4817 49.249C23.0566 47.2986 23.206 46.6086 23.3167 43.8823C23.3374 43.3672 23.3245 42.8453 23.7952 42.941C25.6453 43.316 27.6433 43.0367 29.5007 42.8293Z" fill="#845EF9"/>
<path d="M16.0754 41.1111C16.1452 40.7698 16.5259 40.9865 16.8367 41.1184C20.6316 42.7285 22.0581 42.309 21.7617 43.0109C21.0557 44.6826 19.5186 48.5442 17.3017 48.8075C14.5454 49.1343 15.795 42.487 16.0754 41.1111Z" fill="#845EF9"/>
<path d="M67.2452 40.6094C66.8868 40.6114 66.8004 40.7982 66.9618 41.1747C67.9616 43.5089 70.0382 48.119 72.2577 48.3853C73.3604 48.5177 73.8786 47.2728 73.9759 46.2792C74.1698 44.2925 73.9402 43.6248 73.5109 40.9301C73.4297 40.4211 73.3816 39.9008 72.9254 40.0513C71.1311 40.6409 69.114 40.5975 67.2452 40.6094Z" fill="#845EF9"/>
<path d="M80.3771 37.33C80.2679 36.9995 79.9152 37.2586 79.6219 37.4262C76.0422 39.4702 74.5764 39.2204 74.9529 39.8825C75.8503 41.46 77.8292 45.1147 80.0616 45.1163C82.837 45.1178 80.8167 38.6634 80.3771 37.33Z" fill="#845EF9"/>
<path d="M41.255 22.8847C42.5175 22.9623 43.1522 24.0935 42.5067 25.099C41.3853 26.8456 38.2628 25.9265 38.9544 24.2295C39.2978 23.388 40.3302 22.7544 41.255 22.8847Z" fill="#845EF9"/>
<path d="M53.2336 22.1805C51.9886 22.4055 51.491 23.6034 52.2498 24.5261C53.5682 26.1295 56.5614 24.8509 55.6759 23.246C55.2368 22.451 54.1366 21.9426 53.2336 22.1805Z" fill="#845EF9"/>
<path d="M98.3015 92.1128C98.0067 96.4886 95.0533 101.257 92.2241 104.423C74.1264 124.662 35.8725 115.533 30.2916 87.613C29.6606 84.4424 29.7175 80.4132 30.1778 78.1012C30.302 77.4909 30.333 77.0978 30.9537 77.4392C37.3155 80.9563 45.798 80.1184 50.1065 76.5082C50.4479 76.2237 50.722 76.2289 51.0789 76.4616C55.4701 79.2598 62.4268 79.0064 67.1956 76.7099C70.4282 75.1479 71.1937 74.0462 71.5299 73.7928C72.373 73.1411 72.0523 75.6858 74.5143 79.0477C77.3487 82.9166 81.6365 85.4717 86.2243 85.1872C88.7639 85.032 90.4966 84.4062 93.1241 84.8458C93.2327 84.8562 93.3413 84.8769 93.4551 84.8976C95.8085 85.3579 97.7429 87.3906 98.1825 89.7595C98.3222 90.5198 98.3584 91.3111 98.3015 92.1128Z" fill="#845EF9"/>
<path d="M53.0499 77.0844C50.6816 76.2025 50.8393 75.4257 50.2207 75.9729C43.9106 81.5548 30.0671 79.9809 26.7206 72.628C26.2722 71.6427 26.2365 70.6077 26.5468 69.5702C27.9858 64.761 38.6504 64.507 49.432 71.0205C50.9128 71.9153 50.3433 70.8141 55.3961 67.8664C59.5887 65.4205 66.8754 62.5152 71.2883 64.5226C73.6231 65.5844 74.341 67.7252 73.8036 69.5536C72.7293 73.2073 69.0679 75.7437 65.4054 77.0503C61.6964 78.3733 57.0988 78.5926 53.0499 77.0844Z" fill="#D811AD"/>
<path d="M127.138 92.9456C126.026 99.4575 109.713 99.0334 98.3028 92.1129C98.3597 91.3112 98.3235 90.5198 98.1839 89.7595C97.7442 87.3906 95.8098 85.358 93.4564 84.8976C93.3427 84.8769 93.234 84.8562 93.1254 84.8459C90.5496 71.2894 96.6581 54.2727 103.982 57.733C109.128 60.1639 110.608 72.2825 106.992 79.834C106.103 81.696 107.53 80.2529 112.206 81.1167C116.788 81.9649 121.149 83.6149 124.438 86.8372C126.067 88.4303 127.521 90.6957 127.138 92.9456Z" fill="#D811AD"/>
<path d="M69.1212 66.2982C70.6403 66.2584 70.9289 67.1242 69.7693 67.523C67.4935 68.3056 65.0005 68.5704 59.9353 71.1048C55.5141 73.3169 54.7527 74.2785 53.7881 74.4693C53.1933 74.5872 52.584 74.0116 52.8405 73.363C53.1907 72.477 55.1825 71.2615 56.0028 70.7701C60.6687 67.9761 62.7599 67.3047 65.4251 66.6773C66.1968 66.4958 67.493 66.3406 69.1212 66.2982Z" fill="#FF8CDB"/>
<path d="M38.0264 69.1813C40.1569 69.6866 43.5597 70.93 46.3677 72.3979C49.1985 73.8772 47.8263 74.9954 47.0443 74.8801C46.6067 74.8154 44.8911 73.9858 42.5097 73.0232C37.036 70.8111 35.0633 70.8085 30.8262 70.0849C29.1126 69.7927 29.3386 68.8234 31.1499 68.6925C33.6657 68.5094 34.9976 68.4629 38.0264 69.1813Z" fill="#FF8CDB"/>
<path d="M60.5938 22.3212C60.4624 22.5374 60.2669 22.5064 60.1045 22.3476C57.7294 20.031 56.7395 17.5069 58.3211 14.4863C59.8283 11.608 61.9722 11.9969 62.3979 13.1762C63.2286 15.4794 61.891 20.1861 60.5938 22.3212Z" fill="#FF8CDB"/>
<path d="M34.1835 24.0234C34.0159 24.1863 33.9119 24.178 33.7738 23.9887C31.8487 21.3467 28.9745 14.345 32.2516 14.1371C32.8661 14.0983 33.39 14.2525 33.8814 14.6766C34.9826 15.6288 35.776 16.7522 36.1334 18.1746C36.5653 19.8949 35.8867 22.3667 34.1835 24.0234Z" fill="#FF8CDB"/>
<path d="M35.4366 73.1608C37.9876 73.7628 40.0135 74.3732 41.9262 75.5255C43.3853 76.4048 42.7667 77.9694 40.9109 77.1724C36.9841 75.4857 33.9517 74.9328 31.4917 73.8922C30.7852 73.5932 30.854 73.0713 31.1809 72.8893C31.4359 72.7475 34.6794 72.9818 35.4366 73.1608Z" fill="#FF8CDB"/>
<path d="M69.6918 70.7834C69.7931 71.1636 69.4631 71.357 69.0871 71.5986C68.4913 71.9808 67.8401 72.2555 67.1977 72.5446C59.3266 76.0829 60.4277 76.1238 59.5154 76.2536C58.4499 76.4052 58.0935 75.5098 58.6785 74.8488C60.6155 72.6579 69.3111 69.3595 69.6918 70.7834Z" fill="#FF8CDB"/>
<path d="M99.9352 89.5009C99.1961 87.6307 105.744 91.2461 111.675 92.115C117.882 93.0248 121.232 91.6195 122.253 91.6624C123.041 91.6955 123.482 92.6705 122.819 93.2736C122.697 93.3848 122.54 93.4603 122.394 93.5425C117.404 96.3469 105.645 93.9496 100.809 90.3983C100.513 90.1816 100.079 89.8646 99.9352 89.5009Z" fill="#FF8CDB"/>
<path d="M100.638 61.3215C101.606 60.6817 102.647 61.5403 102.102 62.507C101.757 63.1204 101.398 63.7287 101.011 64.3168C95.5408 72.6358 97.9148 83.5131 96.4557 83.9227C94.632 84.4348 93.7988 70.4806 99.1738 62.9373C99.6175 62.3141 100.147 61.771 100.638 61.3215Z" fill="#FF8CDB"/>
<path d="M100.263 81.0087C100.101 79.6189 101.774 75.8634 102.441 71.5647C103.233 66.454 102.176 63.7955 103.758 63.8886C104.684 63.9429 104.751 64.4353 104.967 65.7185C105.804 70.6937 103.999 76.5068 101.438 80.7232C101.011 81.4256 100.324 81.5394 100.263 81.0087Z" fill="#FF8CDB"/>
<path d="M120.866 88.3523C121.417 88.7315 121.479 89.0992 121.316 89.6599C121.105 90.3845 120.254 90.2588 119.569 89.9661C111.883 86.6822 107.28 87.7285 104.164 86.6838C103.834 86.5731 103.791 86.2534 104.053 86.0248C105.245 84.9842 114.876 84.2311 120.866 88.3523Z" fill="#FF8CDB"/>
<path d="M62.1325 60.7384C62.2096 62.0454 62.1242 63.3224 61.8853 64.5379C59.8608 65.1927 57.7578 66.1227 56.0427 67.0997C49.701 70.7068 50.9222 71.5463 49.5443 70.6861C46.0101 68.4859 41.8563 66.7221 37.6497 66.0285C37.2592 64.8301 37.0135 63.5526 36.9354 62.2202C36.4818 54.5063 41.7564 47.9179 48.7121 47.5088C55.6724 47.0992 61.6784 53.0245 62.1325 60.7384Z" fill="#FF8CDB"/>
<g opacity="0.25">
<path d="M30.2872 87.5921C30.0084 86.2158 29.7126 83.0767 29.9034 81.7025C29.9324 81.492 30.0524 81.419 30.2707 81.4816C34.0242 82.5585 36.752 85.8082 39.0604 88.7683C41.9196 92.4349 44.4711 96.3611 47.7404 99.6905C51.4298 103.448 56.3088 106.067 61.4293 107.244C66.9724 108.518 72.8367 107.606 77.8295 104.922C81.9341 102.715 85.1353 99.2762 88.1119 95.7596C93.2148 89.7308 96.1465 85.6499 97.2243 87.4276C99.226 90.727 98.2024 94.6853 96.4966 98.1461C83.2469 125.032 36.7313 119.426 30.2872 87.5921Z" fill="#3C1DA1"/>
<path d="M54.1103 73.8305C62.5628 74.4936 67.0823 69.7957 66.7689 65.1706C66.7223 64.4812 66.336 63.9981 67.0151 63.9096C67.2385 63.8807 67.4671 63.8543 67.6906 63.8708C69.5076 64.0089 71.1198 64.0426 72.539 65.303C77.1687 69.415 69.7455 78.3278 58.5383 78.1364C56.607 78.1033 54.7217 77.7459 52.9207 77.0321C50.4623 76.0572 50.8616 75.4262 50.1774 76.0075C45.6915 79.821 37.929 80.256 32.6196 77.824C32.4438 77.7433 32.4184 77.5339 32.5715 77.404C38.651 72.2489 46.1027 73.2021 54.1103 73.8305Z" fill="#3C1DA1"/>
<path d="M123.19 96.7312C120.861 97.5474 117.914 97.7005 117.194 97.5562C116.611 97.4398 118.639 95.6135 116.82 92.4145C113.387 86.3769 106.159 88.0605 103.832 81.1271C101.834 75.1723 103.863 67.4046 106.994 61.7508C107.092 61.5744 107.308 61.5926 107.391 61.785C109.52 66.7581 109.707 73.7344 106.885 80.0544C106.246 81.486 107.497 80.4206 111.53 81.0009C124.765 82.9053 130.556 92.3147 125.227 95.7113C124.729 96.0283 124.385 96.3128 123.19 96.7312Z" fill="#3C1DA1"/>
<path d="M49.5386 7.00008C50.0507 8.04177 50.0393 9.20862 49.7476 9.8717C49.6012 10.196 49.5723 10.4681 49.6969 10.7158C49.6545 10.6734 49.6121 10.6305 49.5692 10.5881C49.1181 10.1541 48.4773 10.242 47.5499 10.136C47.3182 10.1096 47.0917 10.0931 46.8667 10.0962C46.9008 9.57327 46.8155 8.97277 46.5739 8.2709C46.17 7.10301 46.0738 5.97701 46.1519 5.01135C46.4508 4.99376 46.802 4.9979 47.1992 5.02997C47.8628 5.08117 48.0149 5.10237 48.002 4.54688C48.0408 4.95497 48.1515 5.3041 48.5373 5.64702C48.9604 6.02252 49.2883 6.48389 49.5386 7.00008Z" fill="#3C1DA1"/>
</g>
<path d="M51.2946 15.4079C51.2868 15.4483 51.279 15.484 51.2708 15.5197C51.263 15.5554 51.2547 15.5859 51.2465 15.6164C51.2387 15.6521 51.2304 15.6826 51.217 15.7085C51.2056 15.7643 51.188 15.8103 51.1704 15.8512C51.1528 15.8921 51.1394 15.9231 51.1213 15.9541C51.1032 15.9852 51.0846 16.0116 51.0608 16.0328C50.7825 16.3193 50.1494 15.9464 47.8628 15.7152C47.4852 15.6774 47.1149 15.679 46.7564 15.7152C46.6664 15.7157 46.577 15.7255 46.4875 15.7359C46.3928 15.7462 46.2987 15.7571 46.2046 15.7726C46.1399 15.7814 46.0752 15.7902 46.0111 15.8041C45.8725 15.8274 45.7339 15.8553 45.5958 15.8884C45.5218 15.9029 45.4525 15.9221 45.3785 15.9412C44.8598 16.0571 44.3725 16.2055 43.92 16.3426C43.8165 16.369 43.7229 16.3995 43.6241 16.4253C43.4271 16.4817 43.2398 16.5329 43.0572 16.5738C42.9636 16.5945 42.8788 16.6043 42.8038 16.6089C42.779 16.6105 42.7536 16.612 42.7288 16.6084C42.5674 16.5877 42.4324 16.5107 42.3409 16.3959C42.33 16.3814 42.314 16.3622 42.3073 16.3379C42.2783 16.2743 42.2545 16.206 42.2349 16.1217C42.2343 16.1166 42.2343 16.1165 42.2343 16.1119C42.2292 16.1072 42.2281 16.0922 42.2224 16.0824C41.7109 14.1899 42.0399 12.4634 43.3278 10.9505C43.4824 10.771 43.666 10.65 43.8874 10.5921C44.8681 10.3241 45.8503 10.0862 46.8676 10.0966C47.0926 10.0935 47.3192 10.11 47.5509 10.1364C48.4783 10.2419 49.1191 10.1545 49.5701 10.5885C49.6126 10.6309 49.6555 10.6738 49.6979 10.7162C49.6979 10.7162 49.6984 10.7214 49.7031 10.7209C49.76 10.8377 49.8567 10.9521 49.9886 11.0643C50.031 11.102 50.0786 11.1439 50.121 11.1869C50.1215 11.192 50.1262 11.1915 50.1313 11.1962C50.3315 11.4496 50.5125 11.7145 50.6636 11.986C50.6915 12.0346 50.7142 12.0832 50.737 12.1318C50.7706 12.1949 50.8048 12.2581 50.8286 12.3268C50.8342 12.3367 50.8347 12.3465 50.8404 12.3563C51.0277 12.8208 51.173 13.3282 51.262 13.8185C51.2682 13.8433 51.2754 13.8728 51.2718 13.9028C51.2858 14.0523 51.2946 14.2018 51.2987 14.3569C51.3178 14.6957 51.3535 15.049 51.2946 15.4079Z" fill="#FFCE00"/>
<path d="M42.3408 16.3955C42.4324 16.5103 42.5674 16.5874 42.7287 16.6081C42.5389 16.6091 42.4246 16.5408 42.3408 16.3955Z" fill="#FFCE00"/>
<path d="M43.9189 16.343C44.2939 16.2297 44.6984 16.1118 45.1194 16.0078C44.6436 16.1382 44.2474 16.2499 43.9189 16.343Z" fill="#FFCE00"/>
<path d="M45.3782 15.9414C45.2892 15.9611 45.2075 15.9859 45.1201 16.0071C45.1294 16.0045 45.1372 16.0024 45.146 15.9999C45.2251 15.9807 45.3037 15.9559 45.3782 15.9414Z" fill="#FFCE00"/>
<path d="M49.9877 11.0641C49.8558 10.9519 49.759 10.8371 49.7021 10.7207C49.8563 10.8717 49.9902 11.0243 50.1201 11.1867C50.0776 11.1443 50.0301 11.1019 49.9877 11.0641Z" fill="#FFCE00"/>
<path d="M51.0602 16.0328L51.0607 16.038C50.9568 16.144 50.8228 16.1621 50.5756 16.1316C48.8134 15.8797 47.8638 15.6501 46.7559 15.7152C47.1143 15.679 47.4846 15.6775 47.8622 15.7152C50.1489 15.9459 50.7819 16.3194 51.0602 16.0328Z" fill="#FFCE00"/>
<path d="M51.2604 13.8181C51.1714 13.3278 51.0266 12.8204 50.8389 12.356C51.0561 12.8085 51.1942 13.2911 51.2604 13.8181Z" fill="#FFCE00"/>
<path d="M51.2168 15.7083C51.2302 15.6824 51.2385 15.6519 51.2463 15.6162C51.2421 15.6317 51.238 15.6467 51.2344 15.6669C51.2302 15.6824 51.2261 15.6927 51.2168 15.7083Z" fill="#FFCE00"/>
<path d="M48.0015 4.53202L48.0025 4.54701C48.0149 5.102 47.8634 5.08079 47.1998 5.0301C46.8025 4.99855 46.4513 4.9939 46.1524 5.01149C44.4383 5.072 44.1368 5.64094 44.0493 4.83459C43.7359 2.05451 45.0931 -0.143179 46.607 0.9042C47.0089 1.18092 47.297 1.5647 47.5029 2.00796C47.6291 2.28105 47.718 2.51588 47.7801 2.72277C48.0082 3.45516 47.9518 4.03445 48.0015 4.53202Z" fill="#FFCE00"/>
<path d="M47.9872 4.21743C47.9945 4.33743 48.0007 4.44191 48.0007 4.53191C47.9515 4.03434 48.0074 3.45505 47.7793 2.72266C47.9939 3.38574 47.9505 3.75866 47.9872 4.21743Z" fill="#FFCE00"/>
<g opacity="0.5">
<path d="M47.1988 5.02952C46.8015 4.99797 46.4503 4.99331 46.1514 5.01089C46.3065 2.88872 47.295 1.55377 47.6198 2.30581C47.6829 2.44701 47.7361 2.58925 47.7796 2.72217C48.0077 3.45456 47.9518 4.03386 48.001 4.53143L48.002 4.54643C48.0144 5.10193 47.8629 5.08072 47.1988 5.02952Z" fill="#E38921"/>
<path d="M51.303 15.3775C51.2984 15.3878 51.2989 15.3976 51.2947 15.408C51.2834 15.4638 51.2709 15.5197 51.259 15.5652C51.2306 15.6769 51.2058 15.7685 51.1747 15.8404C51.1571 15.8864 51.1349 15.933 51.1168 15.964C50.8551 16.37 50.3001 15.9567 47.8624 15.7147C47.2935 15.6578 46.7395 15.6904 46.2037 15.7721C46.139 15.7809 46.0744 15.7897 46.0102 15.8036C45.8716 15.8269 45.733 15.8549 45.5949 15.888C44.7891 16.0607 44.0479 16.3147 43.3972 16.4879C43.2788 16.52 43.1655 16.5515 43.0569 16.5733C43.0321 16.58 43.0078 16.5862 42.9829 16.5929C42.9188 16.6069 42.8593 16.6152 42.804 16.6084C42.7791 16.61 42.7538 16.6116 42.729 16.6079C42.5676 16.5872 42.4326 16.5102 42.3411 16.3953C42.325 16.3762 42.3136 16.3571 42.3074 16.3374C42.2635 16.2748 42.2397 16.2014 42.235 16.1212C42.219 16.0219 42.2278 15.9112 42.2707 15.7938C43.029 13.6163 46.6904 12.9651 46.8673 10.0961C47.0923 10.093 47.3188 10.1095 47.5505 10.1359C48.4779 10.2414 49.1188 10.154 49.5698 10.588C49.6122 10.6304 49.6551 10.6733 49.6975 10.7157C49.7601 10.8373 49.8568 10.9516 49.9882 11.0643C50.0306 11.1021 50.0782 11.144 50.1206 11.1869C50.1211 11.1921 50.1258 11.1915 50.131 11.1962C50.3286 11.4052 50.5096 11.6746 50.6632 11.986C50.6911 12.0346 50.7139 12.0832 50.7366 12.1319C50.9772 12.6486 51.1577 13.2486 51.2616 13.818C51.2678 13.8428 51.2751 13.8723 51.2715 13.9023C51.3697 14.4723 51.3858 15.002 51.303 15.3775Z" fill="#E38921"/>
</g>
<g opacity="0.25">
<path d="M59.8089 49.435C59.5033 47.6407 60.1477 43.6276 62.7747 44.2824C66.4806 45.2067 68.7709 48.5143 71.2898 49.3605C75.8351 50.8874 79.5995 46.0275 84.4645 46.9197C84.7118 46.9653 84.7862 47.1597 84.6254 47.3506C84.1325 47.9356 83.5459 48.4249 82.9604 48.91C78.7911 52.3615 73.577 54.5369 68.3147 54.4929C68.0018 54.4904 70.0402 61.7682 70.1172 63.1383C70.1441 63.6152 70.0345 63.7254 69.5157 63.654C67.829 63.4218 65.4664 63.5138 62.904 64.2364C55.7006 66.2676 50.9696 70.5802 50.4694 70.9164C50.1849 71.1072 49.9719 70.9552 49.5493 70.6924C41.2302 65.5207 35.488 66.2091 36.418 65.4814C42.0397 61.0824 49.6015 66.4977 56.1465 61.8189C60.2098 58.9142 60.6458 54.3476 59.8089 49.435Z" fill="#845EF9"/>
<path d="M20.88 55.9701C18.5545 55.2274 16.3765 54.1676 14.3583 52.7892C12.9711 51.8422 12.9385 51.7822 12.985 51.6192C13.0197 51.4977 13.1283 51.4579 13.2374 51.4222C18.4428 49.7283 23.3657 55.3329 28.0197 51.2479C30.0064 49.5043 31.4831 47.3563 34.3847 46.1594C34.8517 45.9665 35.084 45.876 35.4341 46.0053C36.3139 46.3291 33.4837 47.635 30.8655 56.327C30.7486 56.7149 30.5241 56.8929 30.146 56.9177C27.0908 57.1178 24.9474 57.2689 20.88 55.9701Z" fill="#845EF9"/>
</g>
<path d="M34.1662 84.6271C34.6612 85.4712 35.3548 86.1808 36.172 86.622C36.9851 87.0632 37.9161 87.2427 38.7706 87.0741C39.6235 86.8956 40.3703 86.4011 40.8969 85.7029C40.9331 85.6558 40.9636 85.632 41.0045 85.5658L41.1332 85.3491L41.3919 84.9136L41.5331 84.6793L41.7203 84.3871C41.7881 84.3048 41.8543 84.2164 41.923 84.1393C41.9939 84.0778 42.0637 83.9981 42.1362 83.9511C42.2815 83.8404 42.4237 83.7757 42.5939 83.7364C42.7791 83.6945 42.9834 83.7359 43.1158 83.7928C43.3971 83.8978 43.6956 84.1879 43.9433 84.6286L44.1321 84.9462C44.19 85.0372 44.2795 85.1867 44.3059 85.2203C44.3892 85.3429 44.4502 85.4231 44.52 85.5115C44.6576 85.6848 44.8035 85.8472 44.9628 85.9962C45.2783 86.2931 45.6372 86.5573 46.0293 86.757C46.4126 86.9587 46.8082 87.101 47.2039 87.1682C47.6001 87.2215 47.9942 87.2189 48.3759 87.1294C49.1332 86.9391 49.8418 86.4518 50.3269 85.7727L50.4185 85.6465C50.435 85.6222 50.4469 85.6119 50.4671 85.5767L50.5441 85.4215L50.854 84.7993L51.2088 84.1171C51.2383 84.0705 51.2683 83.9805 51.2972 83.9697L51.3852 83.9159L51.5605 83.8083C51.6867 83.7255 51.7581 83.6811 51.9696 83.6542C52.175 83.6299 52.3684 83.65 52.46 83.6971L52.8339 83.8699C52.8623 83.8704 52.9011 83.9247 52.9394 83.9748L53.0527 84.1207L53.2792 84.4124C53.393 84.6783 53.5099 84.8324 53.6258 85.0114L53.8001 85.2767C53.8265 85.315 53.8642 85.3781 53.8808 85.3967L53.9294 85.4489C54.0546 85.5932 54.1864 85.7298 54.3328 85.8513C54.622 86.0934 54.9364 86.3117 55.2793 86.4436C55.6181 86.5817 55.9724 86.681 56.3309 86.6851C56.5098 86.711 56.6883 86.6711 56.8682 86.667C57.0446 86.622 57.2272 86.6122 57.4005 86.5377C58.0946 86.3132 58.7996 85.8219 59.3209 85.2193C59.4502 85.0672 59.5728 84.9095 59.6835 84.7409C59.7378 84.656 59.7926 84.5707 59.8428 84.4812L59.9271 84.3276L59.9737 84.2376L60.0456 84.0845C60.2333 83.6831 60.4055 83.2192 60.6497 82.9854C60.7671 82.8582 60.8845 82.7806 61.0143 82.7154C61.1312 82.6513 61.3391 82.6058 61.4959 82.6311C61.7995 82.672 62.0757 82.8251 62.3612 83.1225C62.4331 83.185 62.4977 83.2787 62.5655 83.3588L62.7398 83.5792L63.0227 83.949C63.1143 84.0659 63.2156 84.2081 63.2984 84.3028L63.5156 84.5091C63.5886 84.5769 63.6568 84.6524 63.7329 84.7166L63.976 84.8852C64.623 85.3367 65.4159 85.5591 66.2238 85.4945C67.0302 85.4215 67.8251 85.0652 68.4794 84.5122C69.1373 83.9598 69.6525 83.2161 70.0068 82.3875C70.374 81.4068 71.0624 81.4782 70.7935 82.6683C70.4899 83.6366 69.9789 84.5702 69.2294 85.3222C68.4856 86.0727 67.4993 86.636 66.3986 86.8216C65.3006 87.0027 64.1172 86.7715 63.1525 86.1855L62.792 85.9631C62.6793 85.8803 62.5764 85.7862 62.4683 85.6972L62.1491 85.4236C62.0664 85.345 62.026 85.2907 61.9629 85.2234L61.7907 85.0321L61.74 84.9772L61.7183 84.956C61.6893 84.9296 61.6634 84.9043 61.6309 84.8945C61.5879 84.8836 61.5755 84.9524 61.5657 84.984L61.5388 85.0884L61.5357 85.0998L61.5021 85.1707L61.4198 85.3362C61.3578 85.4588 61.2885 85.5793 61.2181 85.6993C61.0759 85.9388 60.9135 86.1684 60.7407 86.3887C60.3885 86.8268 59.9897 87.2204 59.5408 87.5494C59.0835 87.8773 58.5922 88.1871 58.0274 88.3718C56.9226 88.7918 55.6124 88.7473 54.5216 88.2978C53.9651 88.0863 53.4701 87.7609 53.0232 87.3916C52.7982 87.2065 52.5939 87.0011 52.402 86.7839L52.3286 86.7037C52.3053 86.6779 52.3131 86.6851 52.3037 86.6737L52.2722 86.6329C52.252 86.6065 52.2231 86.5692 52.2319 86.5811L52.2313 86.5822L52.2303 86.5811L52.1744 86.6742L52.16 86.6986L52.0948 86.7891L51.9557 86.9804C51.2124 87.9957 50.0962 88.7752 48.8099 89.0633C48.1659 89.2009 47.4982 89.1931 46.8626 89.0814C46.2279 88.9568 45.6372 88.7163 45.105 88.4111C44.5759 88.1142 44.0949 87.7346 43.6671 87.2965C43.4535 87.0777 43.2585 86.8413 43.0816 86.5967C42.9942 86.4756 42.9042 86.3417 42.8447 86.2455C42.7966 86.1715 42.822 86.2051 42.8106 86.1849L42.8008 86.1596C42.7868 86.1249 42.7739 86.0836 42.7522 86.0417C42.7289 85.9832 42.6766 86.0127 42.656 86.0401L42.6146 86.0862L42.5939 86.1125L42.5256 86.2087L42.3632 86.4384L42.281 86.5542C42.2489 86.5967 42.1832 86.6634 42.1356 86.7167C41.3505 87.644 40.1976 88.3025 38.9795 88.4514C37.7584 88.5983 36.5429 88.2394 35.5788 87.5996C34.6064 86.9572 33.8771 86.0324 33.4131 85.0269C33.139 84.3612 33.2068 83.965 33.3795 83.9071C33.5652 83.8388 33.8523 84.0845 34.1662 84.6271Z" fill="#3C1DA1"/>
<path d="M40.2045 98.2963C40.8635 99.0199 41.6895 99.5697 42.5807 99.8324C43.4672 100.095 44.4153 100.078 45.2164 99.7362C46.014 99.385 46.6419 98.7463 47.0122 97.9539C47.0376 97.9001 47.0629 97.8706 47.0893 97.7977L47.17 97.5587L47.3329 97.0787L47.4224 96.8201L47.545 96.4953C47.5941 96.4012 47.6407 96.3008 47.6919 96.2108C47.7488 96.1358 47.8005 96.0438 47.8615 95.9827C47.981 95.8446 48.1067 95.7515 48.265 95.6781C48.4372 95.5984 48.6461 95.5969 48.7874 95.6253C49.0842 95.6698 49.4365 95.8917 49.7701 96.2713L50.0209 96.5429C50.0959 96.6199 50.2144 96.7477 50.2475 96.7751C50.3545 96.878 50.4306 96.9437 50.5169 97.0156C50.6876 97.1568 50.864 97.2851 51.0502 97.3979C51.4205 97.6229 51.8266 97.807 52.2512 97.9213C52.6681 98.0392 53.0845 98.0961 53.4858 98.0801C53.8846 98.0501 54.2694 97.9658 54.6242 97.7992C55.3256 97.4563 55.9178 96.833 56.2514 96.0681L56.3145 95.9258C56.3254 95.8989 56.3347 95.886 56.3476 95.8472L56.3906 95.6796L56.5649 95.0067L56.7707 94.2655C56.7898 94.2138 56.8007 94.1197 56.8271 94.1026L56.9016 94.0317L57.0511 93.89C57.1576 93.783 57.2181 93.7245 57.4193 93.6542C57.6153 93.588 57.8088 93.5678 57.9081 93.5947L58.3095 93.6862C58.3374 93.6811 58.387 93.7256 58.4346 93.7675L58.5758 93.8864L58.8582 94.1249C59.0248 94.3612 59.1706 94.4879 59.3211 94.639L59.5467 94.8624C59.5803 94.8945 59.6299 94.9483 59.6506 94.9628L59.7091 95.0036C59.8616 95.1184 60.0194 95.225 60.1875 95.3134C60.5206 95.4898 60.8733 95.6383 61.2359 95.6967C61.5959 95.7614 61.9631 95.7851 62.3149 95.7148C62.4954 95.7029 62.6619 95.6269 62.8372 95.5855C63.0002 95.5048 63.1771 95.4572 63.3307 95.3486C63.9632 94.985 64.5513 94.3586 64.9361 93.6609C65.0313 93.4851 65.1187 93.3056 65.1922 93.1173C65.2279 93.0227 65.2635 92.928 65.2946 92.8302L65.3447 92.6627L65.3722 92.5649L65.411 92.3999C65.5113 91.9685 65.5832 91.4787 65.774 91.1994C65.863 91.0505 65.9613 90.9501 66.0746 90.8596C66.1754 90.7727 66.3699 90.6848 66.5282 90.6776C66.8338 90.6543 67.1359 90.7469 67.4762 90.9791C67.5595 91.0251 67.6423 91.1037 67.725 91.1679L67.9412 91.3468L68.2945 91.6499C68.4083 91.7451 68.5371 91.8635 68.6379 91.9391L68.8929 92.0958C68.9783 92.147 69.061 92.2065 69.1484 92.2535L69.421 92.3684C70.1477 92.6761 70.9696 92.7289 71.7464 92.4987C72.5202 92.2597 73.2236 91.7467 73.7491 91.0701C74.2783 90.3931 74.6279 89.5588 74.8032 88.6754C74.9589 87.6399 75.6479 87.567 75.6313 88.7866C75.5351 89.7967 75.2284 90.8162 74.6512 91.7073C74.0796 92.5954 73.2309 93.3511 72.1933 93.7607C71.1568 94.1657 69.9506 94.1848 68.8857 93.8114L68.4864 93.6687C68.3586 93.6112 68.2386 93.5404 68.1145 93.4757L67.7452 93.2745C67.648 93.2145 67.5973 93.1701 67.5212 93.1173L67.3133 92.9658L67.2523 92.9223L67.2264 92.9063C67.1923 92.8866 67.1623 92.867 67.1281 92.8639C67.0842 92.8623 67.0857 92.9316 67.0831 92.9647L67.0785 93.0723L67.078 93.0842L67.0599 93.1607L67.0133 93.3397C66.9776 93.4726 66.9352 93.6045 66.8913 93.7364C66.8013 94.0002 66.6906 94.2583 66.5669 94.5102C66.3135 95.0119 66.0042 95.4795 65.6339 95.8943C65.2548 96.3096 64.8384 96.7146 64.3237 97.0125C63.3302 97.6523 62.0392 97.8804 60.8785 97.6668C60.2904 97.5753 59.7386 97.3596 59.225 97.0911C58.9663 96.9567 58.7243 96.7979 58.491 96.6251L58.4026 96.562C58.3741 96.5418 58.3834 96.5465 58.3715 96.5377L58.3322 96.5041C58.3069 96.4824 58.2712 96.4518 58.282 96.4617L58.2815 96.4627L58.28 96.4617L58.2448 96.5646L58.2355 96.591L58.1905 96.6929L58.0938 96.9091C57.5771 98.0563 56.6471 99.0504 55.4482 99.5986C54.8466 99.8666 54.1918 99.9974 53.5468 100.02C52.9003 100.029 52.2724 99.9162 51.6885 99.7279C51.1097 99.5469 50.5599 99.2754 50.0509 98.9356C49.7965 98.7659 49.5565 98.5751 49.333 98.3728C49.2223 98.273 49.1065 98.1602 49.0284 98.0785C48.9663 98.0159 48.9979 98.0439 48.9824 98.0268L48.9674 98.004C48.9467 97.973 48.9255 97.9352 48.8955 97.8985C48.8603 97.8463 48.8158 97.8856 48.8013 97.9166L48.7703 97.9699L48.7553 97.9999L48.7082 98.108L48.597 98.3666L48.5412 98.497C48.5184 98.5451 48.4682 98.6237 48.4325 98.6857C47.8563 99.7559 46.8653 100.639 45.7047 101.037C44.5409 101.434 43.2768 101.334 42.2015 100.908C41.1169 100.482 40.2118 99.7279 39.5497 98.8404C39.1437 98.2461 39.1277 97.8447 39.2844 97.7522C39.453 97.6503 39.7845 97.8308 40.2045 98.2963Z" fill="#3C1DA1"/>
<path d="M54.3691 107.415C55.1636 107.987 56.0848 108.355 57.0106 108.428C57.9323 108.502 58.8566 108.29 59.5698 107.79C60.2779 107.282 60.7605 106.528 60.9596 105.676C60.9736 105.618 60.9917 105.584 61.0031 105.506L61.0331 105.256L61.0931 104.753L61.1277 104.481L61.1805 104.138C61.2089 104.036 61.2343 103.928 61.2658 103.83C61.3056 103.745 61.3377 103.643 61.3848 103.571C61.4727 103.411 61.5767 103.294 61.7163 103.19C61.8684 103.077 62.0727 103.032 62.2165 103.031C62.516 103.013 62.9064 103.157 63.3114 103.46L63.6125 103.674C63.7019 103.734 63.8442 103.834 63.8819 103.854C64.0076 103.933 64.0955 103.982 64.1954 104.034C64.3914 104.137 64.5905 104.227 64.7964 104.299C65.205 104.443 65.64 104.539 66.0791 104.563C66.511 104.593 66.9304 104.563 67.3199 104.464C67.7037 104.352 68.0632 104.19 68.3761 103.954C68.9916 103.474 69.4426 102.742 69.6117 101.925L69.6443 101.772C69.6495 101.743 69.6562 101.729 69.6604 101.689L69.6681 101.516L69.6997 100.822L69.7483 100.054C69.7566 100 69.7473 99.9055 69.7695 99.8838L69.828 99.7989L69.9448 99.6293C70.0271 99.5026 70.0741 99.4327 70.2567 99.3226C70.4347 99.2176 70.6198 99.1576 70.7227 99.1638L71.1345 99.1705C71.1608 99.1596 71.2182 99.1933 71.2736 99.2238L71.436 99.3112L71.7613 99.486C71.9729 99.6831 72.142 99.7767 72.3204 99.8936L72.5868 100.066C72.6261 100.091 72.6861 100.133 72.7094 100.143L72.7751 100.171C72.9484 100.252 73.1242 100.323 73.3073 100.376C73.6694 100.48 74.0454 100.552 74.4121 100.534C74.7778 100.524 75.1419 100.471 75.4714 100.33C75.6457 100.281 75.7926 100.172 75.9555 100.095C76.0983 99.9825 76.2617 99.8998 76.3895 99.7617C76.9336 99.2755 77.3794 98.541 77.6122 97.7792C77.6691 97.5878 77.7172 97.3938 77.7503 97.1947C77.7658 97.0949 77.7813 96.9945 77.7911 96.8926L77.8061 96.7183L77.8123 96.617L77.8165 96.4478C77.8258 96.0046 77.7953 95.5106 77.9241 95.1987C77.9799 95.0348 78.056 94.9163 78.148 94.8041C78.2292 94.6981 78.4009 94.5724 78.5546 94.532C78.8489 94.4462 79.1633 94.4746 79.5445 94.6313C79.6356 94.6593 79.7328 94.7188 79.8269 94.7648L80.0757 94.8956L80.4838 95.1191C80.6152 95.1889 80.7652 95.2779 80.8795 95.3311L81.1614 95.432C81.2555 95.4646 81.3491 95.506 81.4443 95.5339L81.735 95.5898C82.5093 95.7413 83.3244 95.6234 84.0371 95.2375C84.7447 94.8444 85.3276 94.1969 85.7021 93.4267C86.0802 92.6555 86.2509 91.7664 86.2395 90.8659C86.1784 89.8206 86.8374 89.6075 87.0727 90.8044C87.187 91.813 87.097 92.8733 86.7158 93.8643C86.3393 94.8512 85.6654 95.7656 84.7338 96.3806C83.8028 96.9904 82.6272 97.2578 81.5079 97.1125L81.0879 97.0545C80.9514 97.0245 80.819 96.9806 80.684 96.9428L80.2811 96.8218C80.174 96.7835 80.115 96.7499 80.0297 96.7142L79.7943 96.6087L79.7261 96.5787L79.6976 96.5683C79.6604 96.5559 79.6263 96.5435 79.5926 96.5471C79.5492 96.5544 79.5652 96.6221 79.5694 96.6552L79.5869 96.7613L79.5885 96.7726L79.5864 96.8513L79.5781 97.0359C79.5704 97.173 79.5564 97.3111 79.5404 97.4492C79.5073 97.7259 79.4519 98.0016 79.3826 98.2731C79.2378 98.8162 79.032 99.3376 78.7552 99.8196C78.4697 100.304 78.146 100.786 77.7037 101.184C76.8632 102.015 75.6472 102.505 74.4674 102.535C73.8732 102.566 73.2887 102.469 72.7301 102.312C72.4498 102.234 72.1798 102.129 71.916 102.007L71.8162 101.964C71.7841 101.95 71.7944 101.953 71.781 101.947L71.736 101.922C71.7065 101.906 71.6657 101.884 71.6781 101.891L71.6775 101.892L71.676 101.892L71.6626 101.999L71.6589 102.027L71.6362 102.136L71.586 102.368C71.317 103.597 70.6121 104.762 69.5517 105.545C69.019 105.932 68.4051 106.194 67.7787 106.35C67.1477 106.492 66.5105 106.511 65.9001 106.447C65.2965 106.39 64.7028 106.237 64.1343 106.01C63.8504 105.896 63.5763 105.759 63.3156 105.607C63.1868 105.532 63.0502 105.445 62.9571 105.382C62.8832 105.333 62.9199 105.354 62.9013 105.34L62.8821 105.321C62.8552 105.295 62.8268 105.263 62.7901 105.233C62.7451 105.189 62.7094 105.237 62.7016 105.271L62.6825 105.33L62.6737 105.362L62.6499 105.478L62.594 105.754L62.5661 105.893C62.5537 105.945 62.5206 106.033 62.4989 106.1C62.156 107.267 61.3682 108.335 60.3146 108.964C59.2574 109.592 58.0006 109.755 56.8601 109.56C55.7108 109.366 54.6696 108.816 53.839 108.083C53.3192 107.586 53.2204 107.196 53.3554 107.073C53.5007 106.937 53.8623 107.046 54.3691 107.415Z" fill="#3C1DA1"/>
<path d="M62.5955 16.0356C62.4362 18.0998 61.3009 21.317 60.5499 22.3871C60.4087 22.5883 60.1413 22.4068 59.9804 22.2407C59.2941 21.5326 58.6274 20.808 58.1846 19.9117C57.1057 17.7264 57.4709 15.5747 58.8213 13.7107C58.8539 13.6651 58.8943 13.6248 58.9341 13.585C59.1068 13.4117 59.277 13.4091 59.4405 13.5932C59.8377 14.0417 60.1289 14.5506 60.3021 15.1263C60.7495 16.6175 60.6089 15.7387 62.0643 15.4025C62.5262 15.297 62.6028 15.3513 62.5955 16.0356Z" fill="#D811AD"/>
<path d="M36.2779 19.3956C36.28 20.0876 36.0669 21.0983 35.5921 22.0484C35.2368 22.7591 34.8002 23.4149 34.2318 23.9761C34.0078 24.1975 33.9225 24.2027 33.7647 23.9751C32.4624 22.1027 31.5164 20.07 31.0141 17.8387C31.0079 17.8113 30.995 17.7855 30.9898 17.7575C30.9252 17.4058 31.041 17.2569 31.3731 17.3034C31.7915 17.3624 32.2043 17.4384 32.5999 17.6096C33.0442 17.802 33.1084 17.7601 33.1922 17.2595C33.2625 16.841 33.3349 16.4252 33.4834 16.0269C33.5423 15.8686 33.607 15.7104 33.6866 15.5619C34.0016 14.9728 34.2468 14.9392 34.6921 15.4476C35.561 16.4422 36.1983 17.7611 36.2779 19.3956Z" fill="#D811AD"/>
<path d="M49.9989 31.9365C49.2572 33.0418 48.1959 33.8978 47.0057 33.3138C44.0984 31.8977 44.9213 28.9402 47.3285 29.8552C47.8199 30.0414 47.9549 29.6985 48.7467 29.5412C50.0036 29.2878 50.8136 30.7169 49.9989 31.9365Z" fill="#D811AD"/>
<g opacity="0.25">
<path d="M59.8089 49.435C59.5033 47.6407 60.1477 43.6276 62.7747 44.2824C66.4806 45.2067 68.7709 48.5143 71.2898 49.3605C75.8351 50.8874 79.5995 46.0275 84.4645 46.9197C84.7118 46.9653 84.7862 47.1597 84.6254 47.3506C84.1325 47.9356 83.5459 48.4249 82.9604 48.91C78.7911 52.3615 73.577 54.5369 68.3147 54.4929C68.0018 54.4904 70.0402 61.7682 70.1172 63.1383C70.1441 63.6152 70.0345 63.7254 69.5157 63.654C67.829 63.4218 65.4664 63.5138 62.904 64.2364C55.7006 66.2676 50.9696 70.5802 50.4694 70.9164C50.1849 71.1072 49.9719 70.9552 49.5493 70.6924C41.2302 65.5207 35.488 66.2091 36.418 65.4814C42.0397 61.0824 49.6015 66.4977 56.1465 61.8189C60.2098 58.9142 60.6458 54.3476 59.8089 49.435Z" fill="#845EF9"/>
<path d="M20.88 55.9701C18.5545 55.2274 16.3765 54.1676 14.3583 52.7892C12.9711 51.8422 12.9385 51.7822 12.985 51.6192C13.0197 51.4977 13.1283 51.4579 13.2374 51.4222C18.4428 49.7283 23.3657 55.3329 28.0197 51.2479C30.0064 49.5043 31.4831 47.3563 34.3847 46.1594C34.8517 45.9665 35.084 45.876 35.4341 46.0053C36.3139 46.3291 33.4837 47.635 30.8655 56.327C30.7486 56.7149 30.5241 56.8929 30.146 56.9177C27.0908 57.1178 24.9474 57.2689 20.88 55.9701Z" fill="#845EF9"/>
</g>
<path d="M55.1431 28.3286C55.02 26.2225 51.8499 26.5209 52.1044 28.5722C52.3552 30.5915 55.2548 30.2372 55.1431 28.3286Z" fill="#0A1640"/>
<path d="M43.049 29.1047C43.0609 27.0379 39.8779 27.1129 40.0026 29.219C40.1159 31.1276 43.0371 31.14 43.049 29.1047Z" fill="#0A1640"/>
<path d="M42.7052 33.8328C42.7036 33.8928 42.73 35.2784 43.6207 36.1174C44.0976 36.5601 44.7094 36.7592 45.4434 36.7163C46.7556 36.6392 47.4952 35.94 47.8904 35.1605C48.3688 35.8882 49.1855 36.4965 50.4977 36.4189C51.2311 36.376 51.8161 36.106 52.2377 35.6105C53.029 34.6727 52.8878 33.2943 52.8795 33.2343C52.8537 32.9752 52.6318 32.7782 52.3587 32.8144C52.0995 32.8397 51.9082 33.0761 51.9387 33.3347C51.9392 33.3445 52.0349 34.3805 51.5104 34.997C51.2627 35.2919 50.911 35.4429 50.4418 35.4703C48.5359 35.5825 48.284 33.6797 48.2612 33.4609C48.2602 33.4511 48.2597 33.4361 48.254 33.4262C47.9592 33.5188 47.6499 33.5369 47.324 33.4459C47.3204 33.4712 47.3168 33.4914 47.3183 33.5162C47.3214 33.7366 47.294 35.6555 45.388 35.7677C44.9194 35.7951 44.5522 35.6865 44.2714 35.4227C43.6781 34.8719 43.6522 33.8323 43.6517 33.8219C43.6512 33.5618 43.4386 33.3487 43.1733 33.3543C42.9023 33.3507 42.6995 33.5674 42.7052 33.8328Z" fill="#0A1640"/>
<path d="M125.997 87.548C123.093 84.0241 118.37 81.8052 113.876 80.7558C110.093 79.876 108.189 80.311 107.748 80.146C107.758 79.6763 108.873 78.0765 109.468 74.233C110.167 69.6747 109.867 64.4616 107.683 60.4583C106.314 57.9493 103.61 55.975 100.92 56.8398C95.0479 58.7241 90.6593 71.8191 92.4489 84.0194C89.8296 83.7696 87.1209 84.8093 84.3719 84.4896C79.6336 83.9346 74.7758 80.3709 72.8316 74.1084C72.5362 73.1686 72.5616 73.1588 73.161 72.339C75.2605 69.4751 75.2356 66.0361 72.1018 64.217C71.1723 63.6822 70.8423 63.752 70.7673 63.1872C70.4973 61.213 69.8627 58.9139 69.2177 57.1346C67.8481 53.3661 68.2428 56.7695 76.3047 53.5958C82.0775 51.3215 88.4306 45.8736 89.5447 40.5555C90.5543 35.7324 86.9404 31.8889 81.9275 35.2478C76.5096 38.8766 68.8427 40.9357 62.695 39.0711C61.9652 38.8513 62.9247 38.1613 63.6245 36.3572C65.4937 31.4943 64.6041 26.8154 62.4897 23.7969C60.8102 21.4027 61.3999 23.4271 62.8543 18.2838C63.1641 17.194 63.6441 14.6353 63.039 13.0257C61.4195 8.71725 53.4077 15.9444 52.6878 16.2744C52.2781 16.4642 51.8685 16.1746 51.9031 15.7344C51.913 15.6496 51.9383 15.5643 51.9481 15.4846C52.1281 13.845 51.808 12.3259 50.7885 11.0111C50.4637 10.5963 50.3587 10.2265 50.4885 9.70152C50.8687 8.11209 50.3587 6.72747 49.3092 5.55803C48.0296 4.13876 49.2792 3.77878 47.8646 1.34938C47.2698 0.329926 46.0756 -0.369881 45.0406 0.209928C43.761 0.929905 43.2013 2.79398 43.3363 4.12325C43.4165 4.89805 43.2313 5.51252 42.7813 6.16267C41.9217 7.41228 41.7019 8.80155 42.2869 10.2612C42.4519 10.6708 42.6117 10.7711 42.2517 11.3458C40.6876 13.8698 41.5922 16.0639 41.6621 16.5491C41.7117 16.8837 41.1671 17.3037 40.5625 16.8889C38.8634 15.7194 34.2399 13.23 32.0257 13.4954C28.357 13.935 30.7512 20.4075 32.8253 23.7162C33.0803 24.1264 32.8703 24.3809 32.6256 24.8009C29.6568 29.8841 30.6462 35.5467 33.1155 39.1456C33.9554 40.3704 34.3599 40.6352 33.8753 40.87C28.2023 43.6242 20.355 42.5044 14.8673 39.7905C13.9326 39.3307 12.9882 38.9061 11.9382 38.7157C9.88431 38.3408 7.7699 39.5252 7.16992 41.7943C5.26085 49.0064 17.9959 58.5979 29.1716 57.6782C30.8862 57.5381 29.7763 57.3736 29.1116 63.076C29.0118 63.9708 28.897 64.8656 28.957 65.7702C28.9766 66.095 28.867 66.305 28.5768 66.4498C25.5133 67.9591 24.5533 71.4431 27.3474 74.8568C28.9968 76.8709 29.7866 76.5611 29.6014 77.6059C25.6829 99.9572 49.0439 120.265 73.9348 115.302C88.0944 112.478 97.6858 101.382 98.8356 93.1252C109.437 99.1281 122.941 99.8579 126.835 95.1693C128.636 92.9959 127.811 89.7524 125.997 87.548ZM43.1077 11.7264C43.6177 10.9366 43.7377 11.0918 43.3829 10.3868C42.6531 8.9174 42.8331 7.5328 43.8525 6.28318C44.2027 5.85337 44.3775 5.43855 44.2922 4.89857C44.2022 4.27894 44.2922 3.65878 44.362 3.04432C44.6718 0.135446 47.5005 0.470091 47.7255 3.93394C47.7803 4.83857 47.7105 5.28856 48.2153 5.74837C49.4049 6.82782 49.9744 8.30242 49.4499 9.85668C49.3051 10.2865 49.0599 10.5917 49.6449 11.1363C50.2847 11.7363 50.6695 12.5209 50.8697 13.3655C51.0047 13.9355 51.3197 15.1246 50.8795 15.6346C50.3447 16.2496 48.5505 14.61 43.5122 16.1342C42.5677 16.4192 42.5077 16.3944 42.3577 15.3698C42.1731 14.0705 42.3877 12.8457 43.1077 11.7264ZM29.9774 63.542C30.5174 58.0791 32.6168 51.7767 35.9302 46.8884C36.24 46.4286 36.1702 46.2486 35.9555 46.0738C35.8004 45.9486 35.6255 45.959 35.4957 46.0986C34.4763 47.2132 33.7661 48.5425 32.9417 50.1671C30.3023 55.3704 31.2374 56.6448 29.4732 56.7296C20.6762 57.1646 13.0896 52.9161 9.24089 47.3482C8.25144 45.914 7.8361 44.3245 7.99126 42.6198C8.24108 39.8609 10.8003 39.0059 12.954 39.9659C15.8779 41.2755 18.3673 42.6001 23.4103 43.1944C27.0588 43.6242 31.4019 43.3392 34.6309 41.5698C35.1756 41.2698 35.5904 40.9998 35.2206 40.4252C34.8657 39.8805 32.5765 37.6063 31.9119 33.5725C31.3921 30.3838 32.022 27.3999 33.7961 24.6757C34.2859 23.9262 34.2859 24.3457 33.1015 22.3368C31.9269 20.3424 29.7576 14.8396 32.0422 14.4548C33.0518 14.2847 34.2063 14.715 35.1259 15.0894C37.2103 15.9392 38.6394 16.7787 40.2138 17.7687C41.8033 18.7633 40.9685 17.3435 45.9168 16.5842C47.7064 16.3091 50.0654 16.4891 52.2993 17.3389C53.0043 17.6037 52.9588 17.1589 55.6328 15.2544C56.7775 14.4398 57.9821 13.6598 59.2767 13.095C60.0965 12.7402 61.6357 12.1702 62.1307 13.2952C62.2755 13.6304 62.4307 15.3993 62.2305 16.5739C61.9455 18.2481 61.3461 20.3527 60.5061 21.862C59.9263 22.9068 61.1511 22.7666 62.5802 25.8705C63.31 27.4547 63.73 29.639 63.7248 30.6139C63.6798 37.5665 60.0515 38.8207 61.5509 39.6054C65.3592 41.5946 74.4158 41.38 82.723 35.8617C85.8315 33.7923 88.8107 35.2871 88.7455 39.0307C88.6504 44.7435 80.7286 52.0457 72.2114 53.8451C71.2271 54.0499 70.2222 54.2351 69.1976 54.2247C68.6431 54.2247 68.0679 54.2997 67.7431 53.5301C66.6135 50.8612 64.3346 47.0224 62.0604 44.6587C61.8856 44.4787 61.6409 44.204 61.3507 44.4538C60.5661 45.1387 62.7152 45.6135 66.074 52.1212C67.7333 55.33 69.3476 59.5035 69.8224 63.122C69.8425 63.2969 69.7122 63.3718 69.5477 63.362C69.0429 63.332 68.5329 63.332 68.0333 63.2519C66.4992 63.017 63.025 63.8368 61.5659 64.3215C57.1928 65.7811 53.6839 67.9353 50.6147 70.4392C49.8999 71.019 50.4549 70.569 46.3362 68.5648C43.0327 66.9552 39.1339 65.7459 35.67 65.4557C32.3613 65.1806 31.5565 65.5556 30.2169 65.8204C29.648 65.9357 29.8425 64.9065 29.9774 63.542ZM28.4382 67.6302C31.3921 65.7661 36.285 66.2357 39.664 67.1103C43.1377 68.0051 46.3864 69.4146 49.4003 71.3588C50.9545 72.3586 50.8847 70.6342 56.4573 67.5852C64.8741 62.9819 73.5262 62.942 73.6157 68.3098C73.7005 68.8446 73.5609 69.4146 73.3509 69.9794C70.8765 76.7271 58.5215 80.5054 50.9095 75.6021C49.8746 74.9375 49.9997 76.9868 44.872 78.4008C43.1724 78.8705 41.4335 79.0856 39.679 79.0355C28.3032 78.7013 23.8649 70.5142 28.4382 67.6302ZM97.8725 93.2607C96.9679 98.2188 92.9092 104.796 86.1868 109.274C66.3192 122.505 36.2452 111.949 30.8821 88.887C30.1973 85.9534 29.8223 80.8349 30.5521 77.8914C30.7373 77.1367 32.3717 79.3008 38.0493 79.8956C38.7491 79.9706 39.454 80.0053 40.1585 79.9505C40.4435 79.9303 41.0631 80.0404 41.3378 80.0006C44.302 79.561 47.5357 79.051 50.2847 76.7721C50.6995 76.4219 50.8945 76.7819 51.7138 77.1817C57.4819 80.0404 65.5884 79.0308 70.9468 74.7379C71.2168 74.518 71.3864 74.1379 71.8013 74.1182C73.6705 79.5512 76.7894 82.79 80.4881 84.4043C86.0058 86.8135 88.9648 84.5693 92.6087 85.0493C92.8337 85.0741 93.0638 85.1144 93.2935 85.1692C93.3783 85.1894 93.4631 85.2091 93.5433 85.2344C96.6622 86.0439 98.1016 88.5783 98.037 91.6268C98.0318 91.9516 98.0116 92.2816 97.9671 92.6162C97.9475 92.8262 97.9123 93.046 97.8725 93.2607ZM126.617 93.6709C124.442 99.1188 109.338 98.2643 98.9323 92.1714C99.1423 88.6729 97.7178 85.794 94.3388 84.4591C94.0093 84.3293 93.684 84.2294 93.3545 84.1591C91.4449 72.1735 96.3136 57.5841 102.231 57.5991C103.631 57.6043 104.745 58.2539 105.615 59.2682C106.489 60.298 107.219 61.4426 107.684 62.7419C110.898 71.7333 106.56 80.4004 106.545 80.4553C106.43 80.7899 106.68 81.1049 107.015 81.1499C107.065 81.1545 116.726 80.3554 123.879 86.693C124.908 87.6074 125.698 88.7174 126.328 89.9117C126.947 91.0915 127.131 92.3711 126.617 93.6709Z" fill="#0A1640"/>
<path d="M80.3261 24.1943C79.8198 24.1275 79.0594 24.1731 78.6545 24.17C78.6012 22.7248 78.6658 20.6601 78.5112 19.2398C78.2929 19.5801 77.8393 21.0847 77.7002 21.0837C77.4467 21.0697 76.9393 19.292 76.9264 19.3174C76.7759 20.9006 76.8405 22.5479 76.9316 24.1203C76.3859 24.2046 75.7021 24.1498 75.1575 24.1457C75.1446 24.1457 75.1321 24.1332 75.1192 24.1074C75.0577 23.8798 75.0685 22.3333 75.1668 15.4532C75.6245 15.3171 76.3326 15.4361 76.8912 15.402L76.9031 15.4015C77.2171 15.7583 77.4628 16.9262 77.7265 17.3209C77.7519 17.3462 77.7772 17.3586 77.8026 17.3591C77.9034 17.3979 78.2572 15.7785 78.5634 15.387C78.8039 15.4273 79.9072 15.3461 80.4394 15.3497C80.3644 16.9712 80.4932 18.5307 80.3939 20.1527L80.3261 24.1943Z" fill="#0A1640"/>
<path d="M86.1646 24.9828L86.1625 24.9957C85.6453 25.0237 85.0117 24.8933 84.4888 24.7025L84.4769 24.7009C84.3548 24.132 84.3383 23.0934 84.1841 22.571C83.7667 22.4474 83.7843 22.5006 83.4083 22.4463C83.1062 22.9403 82.9216 23.9504 82.5528 24.4609C82.5409 24.4589 82.5264 24.4702 82.5145 24.4682C82.3713 24.4858 81.9032 24.3539 80.7606 24.2013C80.7477 24.1992 80.7477 24.1992 80.7363 24.1852C80.8858 23.8609 82.1385 19.5488 83.9224 15.7105C84.166 15.7074 84.3559 15.8109 85.4741 15.8714C85.5294 16.5448 85.7803 19.5897 85.8589 20.4586L86.1646 24.9828ZM83.5345 20.9536C83.8205 21.0074 84.149 21.0426 84.4629 21.0881C84.5871 16.6891 84.2576 18.4337 83.5345 20.9536Z" fill="#0A1640"/>
<path d="M92.2092 21.9881L92.2335 21.9948L92.2429 22.0103C92.1125 22.9061 91.9082 23.9395 91.5177 24.78C91.2136 25.591 90.657 25.8652 89.9712 25.9335C89.1012 25.9547 88.0476 25.876 87.3499 25.3397C86.7742 24.8871 86.5901 24.3409 86.5772 23.5909C86.5761 23.3939 86.6056 23.0349 86.6537 22.6941C86.8286 21.627 86.9123 21.0591 87.2671 19.8555C87.4177 19.3311 87.5863 18.7864 87.8108 18.2816C88.0368 17.7649 88.3378 17.2668 88.9026 17.0615C89.3076 16.866 89.7534 16.865 90.2107 16.9198C92.0975 17.1655 93.4051 18.4766 92.6484 20.4141L92.6173 20.4845C92.5677 20.5238 92.473 20.486 92.2123 20.4302C91.7344 20.3055 91.5436 20.2812 91.0698 20.0924C91.0584 19.7356 90.9808 18.9814 90.5029 18.8563C90.2241 18.7699 89.9676 18.6504 89.7198 18.7952C89.6722 18.8221 89.5693 18.9654 89.4974 19.09C89.0588 19.8136 88.6114 21.3214 88.389 22.5725C88.3326 22.9377 88.2659 23.444 88.5069 23.7694C88.5685 23.8376 88.6564 23.8997 88.7604 23.954C88.9957 24.0549 89.2936 24.0673 89.5491 24.0425C89.755 24.0047 89.9221 23.9178 90.0441 23.7011C90.1171 23.5759 90.3379 23.0308 90.249 22.9687C90.0633 22.8803 89.4912 22.8094 89.349 22.7065C89.4255 22.1629 89.5502 21.986 89.6371 21.4062L89.6402 21.3943C89.6443 21.3824 89.6443 21.3824 89.6552 21.385C89.6552 21.385 89.6671 21.3881 89.6836 21.3793C90.1677 21.2309 91.8787 21.9017 92.2092 21.9881Z" fill="#0A1640"/>
<path d="M97.0001 18.9869L96.983 19.0345C96.0081 21.769 94.8293 24.5507 94.0178 27.3158C93.6614 27.4849 92.1749 26.6729 91.8066 26.6491C93.0594 23.8529 93.6847 20.7786 94.924 18.2069L94.9322 18.1826C95.0202 18.2007 95.3062 18.3429 95.4133 18.3817C95.6962 18.4955 95.9931 18.6419 96.7135 18.885L97.0001 18.9869Z" fill="#0A1640"/>
<path d="M99.0775 22.2167C98.9948 22.2762 97.92 24.3906 97.5331 25.4824C97.3743 25.9531 97.3148 26.5112 97.7069 26.8432C98.025 27.03 98.4181 27.0558 98.7098 26.8127C99.0449 26.5345 99.1261 26.0834 99.3796 25.7395C99.7918 25.9976 100.513 26.1869 100.894 26.5133C100.687 28.3416 98.8137 29.5768 97.1147 28.8439C95.9509 28.4942 94.7339 27.4665 95.1963 26.1171C95.6426 24.9838 96.1733 23.7906 97.3438 21.3146C97.4297 21.0338 97.6257 20.7886 97.8227 20.5998C98.145 20.26 98.5055 20.02 98.9146 19.886C99.1448 19.8379 99.3785 19.8467 99.6237 19.8892C102.049 20.1592 103.358 23.0954 101.646 24.8933C101.024 24.7619 100.525 24.4511 99.9842 24.0792C100.17 23.4254 100.792 22.5534 99.8751 22.1768C99.6641 22.1225 99.3992 22.03 99.2146 22.0987C99.1654 22.1174 99.1049 22.1872 99.0775 22.2167Z" fill="#0A1640"/>
<path d="M104.664 32.7212L104.657 32.732C104.169 32.5655 103.628 32.2086 103.214 31.8372L103.204 31.8305C103.301 31.2579 103.673 30.2871 103.724 29.7456C103.383 29.4746 103.379 29.5309 103.05 29.3406C102.587 29.6866 102.039 30.5556 101.508 30.8912C101.496 30.8845 101.479 30.8897 101.468 30.883C101.329 30.8462 100.944 30.5499 99.9399 29.9825C99.929 29.9763 99.929 29.9763 99.9238 29.9587C100.183 29.7135 102.951 26.1772 106.037 23.2803C106.264 23.3682 106.402 23.5358 107.417 24.007C107.217 24.653 106.317 27.5727 106.067 28.4086L104.664 32.7212ZM103.724 28.0015C103.97 28.1592 104.262 28.3139 104.535 28.4722C106.289 24.4358 105.333 25.9326 103.724 28.0015Z" fill="#0A1640"/>
<path d="M109.028 35.855C108.762 35.617 108.232 35.3775 104.955 32.9487L105.087 32.764C107.426 29.7641 108.15 28.6469 110.183 25.7251C110.543 25.811 111.535 26.4916 111.808 26.9375C110.48 28.681 109.125 30.7649 107.825 32.5131L107.817 32.5235C108.144 32.6337 110.08 34.3022 110.439 34.4977C110.387 34.5696 110.327 34.6519 110.266 34.7165C110.16 34.8427 110.039 34.9901 109.967 35.1107C109.31 36.1353 109.316 36.0613 109.028 35.855Z" fill="#0A1640"/>
<path d="M109.635 36.3845C109.548 36.3116 110.313 35.6294 110.613 35.2688L110.621 35.259C111.039 35.392 111.446 35.9123 111.825 36.2283C111.516 36.5805 111.14 36.9928 110.824 37.3729L110.756 37.3165C110.6 37.1867 110.539 37.1205 110.394 36.999L110.375 36.9829L109.635 36.3845ZM115.315 29.5556C115.681 29.8101 116.258 30.1256 116.53 30.5332C115.116 32.1748 113.561 33.9639 112.253 35.6945C111.88 35.4494 111.343 35.0035 110.956 34.6978L110.946 34.6896C112.402 32.9993 113.704 31.2148 115.286 29.5308L115.315 29.5556Z" fill="#0A1640"/>
<path d="M129.91 54.1043C129.387 54.7156 128.308 55.4744 127.365 57.9788C127.281 58.2033 127.192 58.4298 127.074 58.6367C126.909 58.9253 126.558 58.9439 126.364 58.6662C125.924 58.0388 125.899 57.0416 124.433 55.3182C123.572 54.307 122.734 53.9884 123.455 53.3765C125.25 51.8513 125.867 49.5646 126.193 48.9594C126.335 48.6982 126.669 48.6781 126.853 48.9077C127.049 49.1544 127.151 49.4534 127.269 49.742C128.143 51.8802 129.349 52.8573 129.841 53.3326C129.965 53.4526 130.091 53.8938 129.91 54.1043Z" fill="#E38921"/>
<path d="M116.624 50.7001C116.022 51.4041 114.78 52.2746 113.693 55.1627C113.596 55.4214 113.493 55.682 113.357 55.921C113.167 56.2536 112.763 56.2743 112.539 55.9546C112.032 55.2315 112.004 54.0838 110.315 52.0987C109.324 50.9339 108.359 50.5672 109.188 49.8622C111.256 48.1052 111.966 45.4715 112.343 44.7748C112.505 44.4738 112.891 44.4505 113.103 44.7153C113.329 44.9993 113.446 45.3438 113.582 45.6763C114.591 48.1435 115.985 49.271 116.545 49.8121C116.687 49.9491 116.831 50.4576 116.624 50.7001Z" fill="#E38921"/>
<path d="M123.699 67.9789C123.574 68.1258 123.446 68.2727 123.306 68.4051C121.332 70.2728 120.867 72.4369 120.432 73.1993C120.242 73.5318 119.838 73.553 119.614 73.2334C119.458 73.0105 119.339 72.7529 119.245 72.4958C117.777 68.4817 115.022 68.1951 116.263 67.1415C118.33 65.385 119.041 62.7508 119.417 62.0541C119.58 61.7531 119.965 61.7298 120.177 61.9946C120.404 62.2786 120.52 62.623 120.656 62.9556C121.666 65.4228 123.059 66.5503 123.619 67.0908C123.762 67.2279 123.908 67.7358 123.699 67.9789Z" fill="#E38921"/>
<path d="M6.72855 79.8108C6.20563 80.4222 5.12617 81.1809 4.18327 83.6854C4.09897 83.9098 4.01001 84.1364 3.89208 84.3433C3.72709 84.6319 3.37642 84.6505 3.18194 84.3727C2.7423 83.7454 2.71747 82.7481 1.25114 81.0248C0.390478 80.0136 -0.447437 79.695 0.273057 79.0831C2.06834 77.5578 2.68488 75.2711 3.01177 74.666C3.15297 74.4048 3.48761 74.3846 3.67123 74.6143C3.86777 74.861 3.96914 75.1599 4.08759 75.4486C4.9617 77.5868 6.16788 78.5638 6.65976 79.0391C6.78337 79.1586 6.90906 79.6003 6.72855 79.8108Z" fill="#E38921"/>
<path d="M17.8052 89.0311C17.2031 89.7351 15.9608 90.6056 14.8736 93.4938C14.7763 93.7524 14.6739 94.0131 14.5379 94.252C14.3481 94.5846 13.9436 94.6058 13.7196 94.2861C13.2127 93.5631 13.1843 92.4154 11.4956 90.4302C10.5046 89.2655 9.53942 88.8987 10.3691 88.1938C12.4369 86.4368 13.1471 83.803 13.5236 83.1063C13.686 82.8053 14.0719 82.782 14.2834 83.0469C14.5099 83.3308 14.6268 83.6753 14.7629 84.0079C15.772 86.475 17.1654 87.6026 17.7255 88.1436C17.8678 88.2801 18.0126 88.7886 17.8052 89.0311Z" fill="#E38921"/>
<path d="M20.3796 71.5175C20.254 71.6644 20.1267 71.8113 19.9866 71.9437C18.0123 73.8114 17.5478 75.9754 17.1123 76.7378C16.9225 77.0704 16.5186 77.0916 16.2941 76.772C16.1379 76.549 16.0194 76.2915 15.9253 76.0344C14.4574 72.0207 11.7027 71.7342 12.9435 70.6801C15.0109 68.9236 15.7215 66.2894 16.0981 65.5927C16.2605 65.2917 16.6463 65.2684 16.8579 65.5332C17.0844 65.8171 17.2013 66.1616 17.3373 66.4942C18.3464 68.9614 19.7398 70.0889 20.3 70.6294C20.4422 70.7665 20.5876 71.2744 20.3796 71.5175Z" fill="#E38921"/>
</svg>
