<svg width="130" height="140" viewBox="0 0 130 140" fill="none" xmlns="http://www.w3.org/2000/svg">
<path d="M98.6006 124.443C98.1124 124.705 97.6181 124.968 97.1299 125.238C93.0552 127.453 88.017 128.574 84.2058 128.329C83.1166 128.261 82.2217 127.797 81.5393 126.902C78.5918 123.059 77.1204 114.003 77.7342 110.548C77.9223 109.521 78.4601 108.815 79.4113 108.307C79.7929 108.107 80.1997 107.926 80.6254 107.763C82.0459 107.231 83.6544 106.956 85.1944 107.018C86.1708 107.061 87.1221 107.237 87.9858 107.582C89.6446 108.233 90.0886 109.96 90.4397 111.575C90.8776 113.565 90.79 115.555 95.7468 115.912C100.747 116.269 104.17 121.432 98.6006 124.443Z" fill="#845EF9"/>
<path d="M57.3121 129.6C56.7554 129.562 56.1979 129.525 55.6411 129.493C51.0096 129.199 46.1527 127.465 43.0551 125.231C42.1663 124.593 41.6591 123.716 41.5593 122.603C41.1084 117.777 44.6888 109.328 47.0483 106.731C47.7491 105.961 48.5815 105.648 49.6584 105.729C50.1086 105.761 50.5663 105.829 51.0225 105.93C52.5123 106.237 54.0142 106.862 55.2785 107.745C56.0668 108.295 56.7683 108.946 57.306 109.678C58.3578 111.112 57.8132 112.814 57.2558 114.366C56.5612 116.281 55.4286 117.921 59.434 120.863C63.4768 123.83 63.6269 130.019 57.3121 129.6Z" fill="#845EF9"/>
<path d="M85.1929 107.022C83.6515 106.954 82.0491 107.232 80.6232 107.762C80.596 105.657 80.3584 103.579 79.8763 101.59C79.6861 100.816 79.4621 100.055 79.1973 99.3083C81.1664 99.4237 82.9725 98.7311 84.1064 97.8892C84.3577 98.7787 84.5614 99.6817 84.7243 100.592C85.0978 102.737 85.2404 104.89 85.1929 107.022Z" fill="#FFCE00"/>
<path d="M84.9347 116.803L85.5451 117.407C85.6327 117.494 85.757 117.531 85.8778 117.509L86.7211 117.349C87.8415 117.135 88.7194 118.3 88.2075 119.318L87.8218 120.086C87.7668 120.196 87.7688 120.325 87.8279 120.433L88.2414 121.186C88.7901 122.186 87.9542 123.381 86.8271 123.208L85.9783 123.079C85.8568 123.06 85.7339 123.103 85.6497 123.192L85.0617 123.818C84.2808 124.649 82.8855 124.223 82.7014 123.097L82.5629 122.25C82.5432 122.128 82.4645 122.024 82.3531 121.972L81.5763 121.606C80.5449 121.12 80.5185 119.662 81.5322 119.139L82.2954 118.745C82.4047 118.688 82.4794 118.582 82.495 118.46L82.603 117.607C82.7456 116.476 84.124 116.001 84.9347 116.803Z" fill="#FFCE00"/>
<path d="M59.0987 99.6885C58.8474 100.544 58.5487 101.379 58.216 102.194C57.4147 104.156 56.4098 106.01 55.2759 107.741C54.013 106.859 52.5124 106.234 51.0186 105.929C52.071 104.17 52.9401 102.343 53.5784 100.463C53.8228 99.7293 54.0333 98.9959 54.1963 98.249C55.5339 99.383 57.2043 99.8922 59.0987 99.6885Z" fill="#FFCE00"/>
<path d="M101.45 29.7124C97.6592 26.0424 99.5102 20.1778 105.236 19.822C109.57 19.5531 113.826 22.866 114.306 25.2622C114.921 28.3387 108.247 28.0624 104.882 25.2174C104.594 24.9736 104.341 24.7027 104.224 24.8677C104.128 25.0035 104.396 25.269 104.576 25.4387C106.469 27.2347 108.238 26.976 110.306 28.7977C111.514 29.8624 111.943 31.2999 110.496 32.0311C109.759 32.4032 104.36 32.5282 101.45 29.7124Z" fill="#FFCE00"/>
<path d="M49.7611 116.027L49.956 116.863C49.9838 116.983 50.0693 117.081 50.1834 117.127L50.9826 117.44C52.0446 117.857 52.1675 119.31 51.1917 119.899L50.4564 120.343C50.3511 120.407 50.2839 120.518 50.2764 120.641L50.2255 121.499C50.1576 122.637 48.8139 123.204 47.9515 122.457L47.3024 121.895C47.2094 121.814 47.0824 121.785 46.9636 121.816L46.1325 122.032C45.0291 122.32 44.0751 121.217 44.5178 120.166L44.8519 119.375C44.8994 119.261 44.8886 119.132 44.8227 119.028L44.3603 118.305C43.7458 117.344 44.5002 116.096 45.6361 116.192L46.4917 116.265C46.6146 116.275 46.7341 116.225 46.8122 116.13L47.3574 115.466C48.0826 114.584 49.5024 114.916 49.7611 116.027Z" fill="#FFCE00"/>
<path d="M92.0238 130.828C93.1374 132.547 92.66 134.96 91.1846 136.238C86.4526 140.334 80.6437 133.676 84.9242 129.579C86.1348 128.42 86.879 128.872 88.0116 128.561C89.2331 128.226 91.0284 128.917 91.8255 130.461C91.8894 130.584 91.9573 130.705 92.0238 130.828Z" fill="#D811AD"/>
<path d="M97.5765 125.434C98.8129 124.765 99.2264 124.409 100.185 124.589C104.625 125.424 105.642 131.68 101.224 133.435C98.9793 134.327 95.5035 133.029 95.1857 130.366C94.6785 129.129 95.0139 127.982 95.5571 126.855C95.7934 126.365 96.0956 126.287 97.5982 125.474C97.5907 125.461 97.5833 125.447 97.5765 125.434Z" fill="#D811AD"/>
<path d="M48.2941 131.672C48.3213 133.72 46.6319 135.509 44.7029 135.804C38.5165 136.752 37.1449 128.023 42.9497 126.834C44.5915 126.498 44.9806 127.277 46.105 127.617C47.3177 127.983 48.4693 129.524 48.3213 131.256C48.3097 131.395 48.303 131.534 48.2941 131.672Z" fill="#D811AD"/>
<path d="M55.8663 130.064C57.2691 130.156 57.8083 130.075 58.5239 130.738C61.8375 133.808 59.3673 139.645 54.6937 138.778C52.3185 138.337 50.0677 135.388 51.2165 132.965C51.446 131.648 52.341 130.855 53.4002 130.191C53.8612 129.901 54.1586 129.996 55.8636 130.108C55.8643 130.094 55.865 130.079 55.8663 130.064Z" fill="#D811AD"/>
<path d="M74.3271 16.5248C74.1424 13.5514 77.7961 11.5239 80.7986 11.2489C81.627 11.1729 82.4479 10.9855 83.2824 11.2082C83.4148 11.2435 83.5533 11.1477 83.6145 11.0052C83.8446 10.4674 81.8212 9.96696 80.1875 7.20546C79.8806 6.6867 79.7584 6.11906 79.7509 5.50864C79.7312 3.95373 81.4294 3.43156 82.9198 3.3528C84.7518 3.25638 88.506 4.19002 91.7672 6.43615C93.9169 7.91774 91.4271 4.63814 92.2575 2.00565C93.8232 -2.95785 104.123 7.89736 104.294 14.9671C104.299 15.1735 104.338 15.4119 104.131 15.5355C103.438 15.9483 101.715 12.6524 96.7559 12.008C90.8886 11.2462 85.1225 15.7507 81.627 21.1515C81.4369 21.4455 81.1646 21.5718 80.8244 21.5249C78.3929 21.1936 76.5596 20.7155 74.9748 18.7179C74.4581 18.0674 74.2374 17.3036 74.3271 16.5248Z" fill="#D811AD"/>
<path d="M107.67 41.3893C107.008 43.4358 105.158 43.8636 103.87 42.7955C102.082 41.3153 102.473 39.173 101.658 40.127C101.086 40.7965 100.374 41.2901 99.6625 41.7899C99.1947 42.1185 98.6685 42.2835 98.1178 42.3813C94.5001 43.0263 95.2388 35.207 100.985 31.0094C102.013 30.2584 102.091 31.2552 104.731 32.2282C105.057 32.3484 105.384 32.4862 105.723 32.5419C106.322 32.641 106.532 33.0145 106.56 33.559C106.645 35.2409 107.131 36.4428 107.523 37.5943C107.762 38.2964 107.949 40.5276 107.67 41.3893Z" fill="#D811AD"/>
<path d="M99.2351 26.7771C100.016 29.7239 101.795 29.8258 100.722 30.6474C94.2987 35.5498 93.9932 43.9015 98.5153 42.7608C99.5882 42.4892 99.7715 42.1632 100.546 41.7083C100.817 41.5521 101.129 41.6472 101.17 42.2447C101.639 49.836 103.723 52.1038 104.334 58.1741C105.631 71.0004 98.3592 81.9731 86.5513 87.6088C83.8761 88.8853 81.873 89.4761 79.9718 89.9921C80.1687 90.0736 80.352 90.1822 80.5218 90.318C85.6415 88.8514 86.9316 87.5002 86.9044 88.4508C86.8365 91.5878 86.9384 94.4328 84.9625 97.0673C84.7588 97.3457 84.4668 97.6241 84.1069 97.8889C82.973 98.7309 81.1668 99.4234 79.1977 99.308C78.0027 99.2401 76.7466 98.8802 75.5515 98.079C73.6096 96.7821 72.1837 94.7248 71.8917 93.9982C71.7559 93.6519 71.8442 93.4007 72.1972 93.231C73.5281 92.5859 74.8725 91.9884 76.2645 91.5063C76.3391 91.3162 76.4342 91.1328 76.5496 90.9631C75.3817 91.3365 74.1392 91.8186 72.6997 92.5248C69.8343 93.9303 68.2319 94.6433 65.0813 97.0266C62.956 98.6358 60.9258 99.4981 59.0993 99.6882C57.2049 99.892 55.5345 99.3827 54.1969 98.2488C52.8661 97.1284 51.8679 95.397 51.3179 93.1427C50.3945 89.3674 48.8871 86.1829 45.5328 82.557C42.8236 79.6306 41.1329 75.2646 42.0156 71.0072C42.1989 70.1177 41.5539 70.6881 38.2607 71.4622C36.5632 71.8628 26.2017 73.7911 28.4967 69.2894C30.8392 64.7197 41.7033 60.7203 42.0428 60.2858C42.1514 60.15 42.0292 59.9667 41.9341 59.9802C41.1058 60.0957 31.7423 62.7981 26.4801 61.2228C22.5215 60.0413 26.1338 56.7686 29.7732 54.7791C34.5262 52.1785 39.0891 50.9903 40.6237 50.4606C40.7255 50.4267 40.9292 50.094 40.5829 50.0125C40.2774 49.9446 39.9718 49.8427 39.6663 49.8292C35.4225 49.6119 23.8795 47.928 20.9734 44.7706C20.403 44.1459 20.4641 43.304 21.1227 42.7472C23.506 40.7577 29.6646 40.4046 32.9306 40.2824C34.3565 40.2281 36.3324 40.5269 37.6632 40.0583C37.025 39.0874 28.7276 36.4053 22.053 30.4776C20.7764 29.3437 18.3117 27.3203 18.3253 25.4462C18.3456 23.4635 20.3011 23.0765 21.9036 22.9815C31.0497 22.4518 43.523 30.4097 50.313 36.5886C59.0314 44.5262 57.6462 46.4206 59.466 45.5718C62.053 44.37 64.7893 43.7725 67.6072 43.4262C72.6725 42.8151 76.5089 43.6299 76.6515 43.6367C77.5206 43.6774 77.1132 42.7336 77.0928 42.3398C76.8891 37.2812 76.8823 32.7794 79.4626 26.3697C84.2699 14.4396 95.1339 8.28106 102.908 15.4106C104.402 16.7822 105.434 18.371 105.611 18.8327C105.787 19.308 105.217 19.2741 104.178 19.4914C100.233 20.3266 98.3999 23.6197 99.2351 26.7771Z" fill="white"/>
<path d="M96.8222 125.181C94.5279 126.422 94.4233 126.656 93.9949 125.831C92.4434 122.846 92.1398 120.02 92.6973 116.937C92.9404 115.593 93.3383 115.569 94.1769 115.746C95.3733 115.999 98.6542 115.785 100.549 118.674C101.403 119.978 101.5 121.63 100.274 122.888C99.1016 124.091 98.2414 124.465 96.844 125.221C96.8372 125.208 96.8297 125.194 96.8222 125.181Z" fill="white"/>
<path d="M55.3622 129.448C52.7589 129.277 52.5464 129.419 52.6224 128.493C52.8988 125.14 54.1461 122.586 56.2605 120.274C57.1819 119.266 57.5316 119.457 58.1468 120.054C59.0247 120.905 61.9159 122.47 61.9811 125.924C62.0103 127.483 61.2125 128.933 59.5055 129.345C57.8725 129.739 56.9449 129.598 55.3595 129.493C55.3595 129.478 55.3608 129.463 55.3622 129.448Z" fill="white"/>
<path d="M93.2603 52.4095C93.3853 51.9628 93.6094 51.3673 94.1899 51.5384C94.8241 51.7251 95.0359 52.7592 95.1235 53.2943C95.3123 54.4425 95.996 57.9244 94.1281 58.1254C92.0218 58.3515 92.9718 53.4443 93.2603 52.4095Z" fill="#845EF9"/>
<path d="M98.5962 51.9805C99.2657 50.9898 100.655 52.7383 100.355 56.9223C100.25 58.3903 98.1976 58.8561 98.167 56.3193C98.1623 55.9601 98.1338 52.6649 98.5962 51.9805Z" fill="#845EF9"/>
<path d="M88.0132 52.084C88.6827 51.0934 90.0719 52.8418 89.7725 57.0258C89.6672 58.4938 87.6146 58.9596 87.584 56.4222C87.5793 56.0637 87.5508 52.7685 88.0132 52.084Z" fill="#845EF9"/>
<path d="M92.9756 62.9462C93.1413 62.5123 93.4204 61.9406 93.9826 62.1653C94.5964 62.4104 94.7111 63.4595 94.7485 64.0007C94.8293 65.1618 95.1864 68.6919 93.3076 68.7184C91.1898 68.7476 92.592 63.9497 92.9756 62.9462Z" fill="#845EF9"/>
<path d="M98.3287 63.0158C99.0872 62.0917 100.308 63.9623 99.6202 68.1002C99.3791 69.5519 97.2919 69.8248 97.4976 67.2956C97.5262 66.9377 97.8045 63.6541 98.3287 63.0158Z" fill="#845EF9"/>
<path d="M87.7819 62.1335C88.5403 61.2094 89.7611 63.08 89.0733 67.2178C88.8323 68.6695 86.745 68.9425 86.9508 66.4132C86.98 66.0554 87.2577 62.7717 87.7819 62.1335Z" fill="#845EF9"/>
<path d="M89.785 72.8149C90.0756 72.4529 90.5156 71.9939 90.9828 72.3796C91.492 72.8006 91.2802 73.8347 91.1505 74.3609C90.8728 75.4908 90.132 78.9612 88.3353 78.4112C86.3099 77.7919 89.1128 73.6534 89.785 72.8149Z" fill="#845EF9"/>
<path d="M94.8666 73.6025C95.8138 72.8732 96.5824 74.97 94.9807 78.8471C94.4191 80.2071 92.3238 80.0034 93.0937 77.5855C93.2024 77.2426 94.2121 74.1063 94.8666 73.6025Z" fill="#845EF9"/>
<path d="M84.7154 70.8248C85.666 70.1003 86.4245 72.2004 84.8044 76.0694C84.236 77.4267 82.142 77.2128 82.9235 74.799C83.0335 74.4574 84.0588 71.3252 84.7154 70.8248Z" fill="#845EF9"/>
<path d="M83.5996 81.6017C83.9609 81.3104 84.4891 80.956 84.8626 81.4327C85.27 81.9528 84.8422 82.9176 84.6025 83.4045C84.0892 84.4488 82.6232 87.6801 80.9862 86.7587C79.14 85.7192 82.7638 82.2766 83.5996 81.6017Z" fill="#845EF9"/>
<path d="M79.5183 78.289C80.638 77.8714 80.7541 80.1019 78.0795 83.3333C77.1412 84.4672 75.1999 83.6538 76.6489 81.5713C76.8539 81.2759 78.7443 78.5769 79.5183 78.289Z" fill="#845EF9"/>
<g opacity="0.25">
<path d="M74.328 16.454C74.1949 15.4633 74.7035 14.6342 75.2969 13.8432C75.6548 13.3665 75.8938 13.4188 76.2666 13.6544C82.0679 17.3231 85.6157 10.859 92.8471 10.4883C96.2238 10.3151 98.9208 12.2991 97.8133 12.1824C96.3297 12.0269 94.4074 11.4144 90.5799 13.0372C88.1348 14.0741 86.0897 15.6881 84.3236 17.6422C81.6531 20.5966 81.8378 21.8554 80.2503 21.4392C79.1102 21.1404 77.061 21.1758 75.0702 18.8427C74.6424 18.3423 74.2404 17.6123 74.328 16.454Z" fill="#3C1DA1"/>
<path d="M103.867 42.7891C102.215 41.3917 102.389 39.2311 101.72 40.052C101.14 40.7636 100.398 41.2756 99.6571 41.7943C99.1886 42.1223 98.6617 42.2852 98.111 42.383C97.2324 42.5392 96.5134 42.1494 96.1664 41.3475C95.704 40.2781 95.8296 39.6195 96.6967 38.8271C98.0594 37.5804 100.137 37.0094 101.859 36.8077C103.709 36.5911 105.196 35.4172 105.59 33.2946C105.66 32.9137 105.631 32.6326 105.924 32.6285C106.104 32.6258 106.276 32.7052 106.355 32.8729C106.442 33.0583 106.542 33.262 106.546 33.4596C106.576 34.9113 107.053 36.2557 107.523 37.6001C108.969 41.74 106.142 44.7134 103.867 42.7891Z" fill="#3C1DA1"/>
<path d="M83.9561 128.336C81.5721 128.201 80.4952 126.171 79.4638 123.68C78.0481 120.26 77.2849 114.912 77.2883 112.892C77.291 111.229 77.2183 110.589 77.8871 110.872C80.3173 111.898 80.76 113.264 81.8138 114.743C83.0279 116.446 84.7077 123.405 87.6804 123.51C91.5758 123.648 92.652 121.318 97.9666 120.08C98.8493 119.874 99.7625 119.868 100.662 120.058C102.202 120.383 100.425 122.704 99.8997 123.22C97.5856 125.491 90.2993 128.694 83.9561 128.336Z" fill="#3C1DA1"/>
<path d="M42.7913 125.267C40.8446 123.884 41.0144 121.592 41.4679 118.934C42.0906 115.285 44.2919 110.353 45.3708 108.644C46.2583 107.238 46.538 106.658 46.9536 107.253C48.4644 109.416 48.1113 110.807 48.2159 112.62C48.3367 114.708 46.0526 121.493 48.5133 123.165C51.7372 125.356 53.8889 123.957 59.0466 125.739C59.9028 126.035 60.6789 126.515 61.3403 127.156C62.4701 128.251 59.7311 129.27 59.0113 129.426C55.8431 130.117 47.9701 128.948 42.7913 125.267Z" fill="#3C1DA1"/>
</g>
<g opacity="0.25">
<path d="M36.1226 40.122C37.1452 40.2212 37.4888 40.321 37.6062 40.027C37.6945 39.8056 37.4867 39.7235 37.3394 39.663C29.9037 36.596 17.5771 28.8737 18.3769 24.7413C18.6886 23.132 19.9943 26.3105 27.8612 29.2852C45.2301 35.8531 41.8989 39.8314 44.2998 47.9292C45.7291 52.7501 47.8646 54.707 50.7463 56.4126C50.9255 56.5186 51.1163 56.6075 51.2915 56.7202C51.5142 56.8628 51.5095 57.0943 51.2766 57.2043C49.1316 58.2174 47.0186 58.7138 43.557 62.5651C43.0831 63.0927 42.7918 63.7248 42.5765 64.3916C42.3307 65.1541 42.4862 65.7611 43.1204 66.2418C43.7349 66.7076 44.4139 67.0594 45.226 67.0322C45.9559 67.0078 46.0788 67.5347 45.7706 67.8511C44.9992 68.6428 42.948 70.9514 42.0157 70.5617C41.4385 70.3206 35.6534 72.9911 29.9261 72.0494C28.7745 71.8599 27.8891 71.0505 28.2564 69.8976C29.7047 65.349 41.4711 60.7189 41.9553 60.3719C42.1264 60.2497 42.1427 59.9204 41.8487 59.9747C41.609 60.0195 41.3679 60.0596 41.1337 60.1241C34.0849 62.0714 23.4341 62.7131 24.913 58.9351C26.3348 55.3031 36.2632 51.8056 39.9991 50.6588C40.4486 50.5209 40.7079 50.5114 40.7826 50.2425C40.8139 50.1298 40.7093 50.0443 40.6102 50.0219C40.272 49.9445 39.9312 49.8406 39.5883 49.8256C35.2718 49.6362 24.6618 48.0107 21.0603 44.8818C20.3392 44.2551 20.5124 43.1137 21.2559 42.6337C24.1661 40.7528 30.3993 40.2476 33.5221 40.3101C34.3919 40.3278 35.242 40.0073 36.1226 40.122Z" fill="#845EF9"/>
<path d="M96.9054 59.1197C96.9054 53.4311 96.4959 50.2676 101.122 46.0924C101.863 45.4229 101.525 47.2949 103.056 52.0649C107.795 66.823 100.604 81.3658 85.7107 87.999C79.6003 90.7205 78.1276 89.7597 71.967 92.8824C69.511 94.127 68.0247 94.804 65.0955 97.0155C58.5913 101.925 53.067 99.7729 51.434 93.577C50.2994 89.2694 49.7039 89.6877 52.593 90.3171C58.552 91.6147 63.4944 85.7665 68.7682 83.8035C80.5394 79.4219 92.8904 84.5293 96.4749 67.0206C97.0941 63.995 96.9454 62.5786 96.9454 59.1204C96.9318 59.1197 96.9183 59.1197 96.9054 59.1197Z" fill="#845EF9"/>
<path d="M70.0829 79.2773C69.0623 79.2956 68.0907 78.326 68.1477 77.4012C68.5864 70.2608 71.0939 67.8626 70.0123 68.4452C66.9982 70.0686 68.8152 69.5587 63.2127 72.9028C61.5397 73.9016 59.8659 74.9018 58.0428 75.6202C56.5755 76.198 53.6959 77.3048 52.124 77.1581C51.244 77.0759 50.7985 76.7032 50.5602 75.8701C49.8004 73.2145 51.5719 75.4178 56.9286 71.9617C62.8787 68.1226 66.2289 62.6641 75.9427 64.6889C77.6184 65.0379 79.1998 64.0812 80.3378 62.8122C82.7415 60.1308 83.2202 58.1943 84.0078 58.6716C84.5089 58.9751 84.7065 59.4688 84.437 59.8952C83.7023 61.0583 82.8284 63.8938 81.4365 66.6641C79.5074 70.5039 76.0656 76.1023 72.143 78.5351C71.4782 78.9466 70.7469 79.1435 70.0829 79.2773Z" fill="#845EF9"/>
<path d="M72.0966 94.3925C71.808 93.9274 71.6613 93.4887 72.172 93.2388C74.0772 92.3059 76.0321 91.4945 78.0833 90.9384C86.1465 88.7513 78.5274 90.6193 80.2548 97.869C80.485 98.8338 81.2298 99.4979 80.3431 99.5576C76.8482 99.908 73.8708 97.2524 72.0966 94.3925Z" fill="#845EF9"/>
</g>
<path d="M108.084 32.4654C101.018 31.9425 97.8781 26.4257 100.254 22.5445C100.695 21.8227 101.504 20.7696 101.817 21.5518C102.595 23.4964 103.825 24.1496 104.037 24.6657C104.505 25.8098 106.45 26.7842 107.603 27.2058C108.957 27.7015 110.7 28.737 111.268 30.1045C111.591 30.8819 111.354 31.5548 110.618 31.967C109.831 32.4076 108.967 32.4762 108.084 32.4654Z" fill="#E38921"/>
<path opacity="0.75" d="M111.817 25.7234C110.616 26.4567 110.402 24.6451 107.138 23.0895C103.616 21.4097 108.158 20.4563 111.623 23.7726C112.489 24.6016 112.344 25.4015 111.817 25.7234Z" fill="white"/>
<path d="M87.0419 131.39C85.4543 132.295 86.2977 134.824 88.093 134.654C89.3348 134.537 90.0661 133.076 89.4319 132.002C88.977 131.232 87.8336 130.94 87.0419 131.39Z" fill="#0A1640"/>
<path d="M98.0402 130.288C98.4021 131.033 99.5544 131.477 100.369 130.927C101.174 130.592 101.539 129.408 101.048 128.61C99.8593 126.677 97.0821 128.319 98.0402 130.288Z" fill="#0A1640"/>
<path d="M111.356 28.2594C113.89 28.2716 115.855 26.8763 114.954 24.5731C114.003 22.1321 110.148 19.4283 107.256 19.0589C106.774 19.0026 106.518 18.7398 106.292 18.3704C105.316 16.7992 104.991 16.7306 105.072 15.9233C105.535 11.4731 101.048 3.93143 96.4353 0.908519C94.414 -0.41825 92.1542 -0.443374 91.4535 1.85369C90.9402 3.55595 91.6036 4.75779 91.372 5.03957C91.0468 5.42796 88.8869 3.16825 84.0558 2.59856C81.4518 2.28554 78.5484 3.27418 78.9483 6.13481C79.186 7.85608 80.9073 9.4205 81.4518 10.0214C82.1471 10.7914 79.2179 9.77765 75.8188 12.3185C72.0578 15.1289 72.5895 20.2105 78.6978 21.9691C79.7747 22.276 80.5881 22.0818 80.3002 22.7574C80.0307 23.3835 80.2317 22.6257 79.186 24.9981C75.8188 32.6396 76.2446 41.0389 76.2384 42.0153C76.2262 42.9727 75.6063 42.5347 74.0541 42.4593C68.8407 42.2027 64.178 42.6848 59.3279 44.7252C58.5579 45.0504 59.2213 45.0565 55.7666 40.9886C52.8 37.5026 48.6506 33.8727 45.0017 31.3C20.4612 14.0445 4.14478 23.6707 32.559 38.2781C36.984 40.5561 33.9923 38.5286 24.9053 40.3748C19.1657 41.5386 18.5899 44.3551 21.3065 46.1076C26.6951 49.5814 36.7715 50.2006 37.5041 50.4885C37.1789 50.9958 28.836 53.1108 25.018 57.3356C23.4474 59.0691 23.7727 60.5398 24.9616 61.3852C28.1285 63.6381 36.2772 61.8109 36.4714 62.0295C35.5826 62.7303 28.836 65.8095 27.4712 69.6466C27.0142 70.9299 27.8284 72.3945 29.6868 72.8012C32.5657 73.4334 36.1957 72.8073 39.0624 72.1066C40.5209 71.7501 41.1843 71.4181 41.0336 72.019C40.4768 74.2658 41.5096 79.4106 45.1395 83.3407C51.7591 90.5123 49.3154 94.1042 52.9942 98.1735C52.5841 100.016 51.6667 102.456 50.1967 104.983C48.9141 104.808 47.7306 104.952 46.8981 105.609C43.0489 108.62 40.7144 117.638 40.7083 121.594C40.7022 126.62 43.6559 125.543 41.6474 126.432C39.3313 127.453 38.086 129.975 38.5179 132.234C39.1751 135.689 42.9613 137.735 46.0405 136.208C47.8996 135.282 48.9759 133.818 49.1388 131.715C49.3833 128.623 47.1677 128.667 51.8677 129.875C52.1998 129.962 52.1495 129.994 51.5988 130.607C48.4191 134.199 50.9416 139.513 55.535 139.594C59.6029 139.669 61.9502 135.451 60.4483 132.14C59.7536 130.607 59.0088 130.35 59.5914 130.162C64.379 128.604 63.3028 122.776 59.6165 120.242C57.8389 119.022 56.4428 117.663 57.2447 115.679C58.4568 112.686 59.2899 110.294 56.5433 107.968C58.2388 105.306 59.4542 102.604 60.142 100.326C64.0022 99.5498 65.4152 97.248 69.9808 94.7622C71.3517 94.0112 70.932 94.3113 71.9709 95.6449C73.9237 98.1674 76.1203 99.632 78.2361 100.164C78.9938 102.442 79.3394 104.84 79.425 107.211C78.2483 107.749 77.3221 108.507 76.965 109.508C75.3123 114.108 78.1356 122.983 80.2385 126.338C82.9049 130.594 84.8387 128.109 83.6056 129.93C82.1913 132.027 82.4792 134.825 84.0504 136.509C86.4472 139.087 90.7406 138.799 92.5311 135.864C93.6141 134.093 93.7451 132.284 92.7626 130.413C91.3231 127.666 89.4702 128.886 94.0955 127.402C94.4208 127.296 94.3895 127.352 94.2585 128.166C93.4763 132.898 98.4459 136.058 102.376 133.68C105.856 131.578 105.593 126.752 102.563 124.75C101.162 123.823 100.392 124.005 100.78 123.536C104.009 119.668 99.9913 115.311 95.5221 115.124C93.369 115.036 91.4603 114.63 91.0848 112.527C90.471 109.095 89.9264 107.035 86.3909 106.374C86.4011 103.144 86.0147 100.423 85.3391 97.8754C87.0414 95.8662 88.0429 92.7184 87.7801 88.6437C87.7047 87.5546 88.5433 87.5926 89.9516 86.7038C95.0841 83.4867 99.1643 79.7943 102.231 73.9175C105.774 67.1207 106.155 59.1472 103.915 52.112C103.057 49.4334 101.968 44.8834 102.037 42.1042C102.375 42.1728 102.469 42.5109 102.688 42.7113C102.939 42.9489 103.164 43.2185 103.433 43.4371C105.129 44.8263 107.263 44.0944 108.046 42.5232C109.66 39.281 107.97 37.191 107.495 34.5558C107.25 33.229 107.489 33.2473 108.528 33.2541C111.006 33.2731 113.197 31.6204 111.763 29.2983C111.449 28.791 110.836 28.2526 111.356 28.2594ZM79.7618 21.0117C77.8905 20.5738 76.4822 20.0353 75.2933 18.5456C73.9977 16.9248 74.6299 14.6712 76.2819 13.4008C79.0672 11.2538 82.9348 11.5546 83.2851 11.5356C84.0551 11.4982 84.2425 10.7283 83.6735 10.3086C82.2028 9.23174 80.6628 7.91174 80.1624 6.15924C79.1487 2.57954 86.49 3.23003 91.2281 6.52251C92.2547 7.24225 92.5107 7.46769 92.8489 7.17368C93.0865 6.96726 93.2243 6.74183 92.9494 6.0282C92.4673 4.73877 92.2045 3.15535 92.7178 1.8476C93.7316 -0.749585 100.422 4.25737 103.183 11.6924C103.521 12.6064 103.877 13.5196 103.834 14.5211C103.796 15.4351 103.001 14.2394 101.455 13.3071C94.4391 9.05111 86.4282 13.3071 81.9346 20.1229C81.3513 21.0117 80.7321 21.2365 79.7618 21.0117ZM44.6316 135.439C40.4761 136.159 37.8097 130.689 41.183 128.028C42.0154 127.377 43.4169 126.752 44.4625 127.252C46.7155 128.322 46.7155 128.235 47.0285 128.598C49.1381 131.07 47.6864 134.914 44.6316 135.439ZM54.4581 138.312C52.8557 137.924 51.6226 136.484 51.4223 134.826C51.0971 132.198 53.075 130.463 54.0636 130.432C54.7956 130.407 55.5153 130.244 56.0911 130.382C57.1117 130.451 57.5931 130.382 58.2884 131.026C61.574 134.075 58.9144 139.394 54.4581 138.312ZM56.2419 115.104C54.9463 118.24 57.3995 119.874 59.1521 121.319C62.6693 124.217 62.1437 128.517 59.1711 129.036C54.6021 129.837 48.2242 128.11 44.1502 125.719C42.3977 124.686 42.103 124.161 41.9346 123.14C41.259 119.091 43.8813 111.531 46.2157 108.013C47.2043 106.516 47.9832 105.876 49.5326 106.085C51.5595 106.241 54.2911 107.406 55.8854 108.964C57.9597 110.923 57.3649 112.409 56.2419 115.104ZM55.6097 107.225C54.4391 106.393 52.9188 105.642 51.423 105.241C52.5148 103.302 53.4464 101.159 53.9828 99.1017C55.3632 100.143 56.8455 100.672 58.8329 100.516C58.3196 102.165 57.1694 104.758 55.6097 107.225ZM90.9273 135.965C87.7978 138.787 82.6217 135.583 84.068 131.527C84.4245 130.539 85.276 129.255 86.4275 129.124C88.9059 128.836 88.8557 128.754 89.3126 128.898C92.417 129.869 93.2305 133.893 90.9273 135.965ZM100.778 133.167C99.2138 133.687 97.405 133.13 96.3471 131.834C94.6761 129.775 95.427 127.259 96.2466 126.709C96.8536 126.296 97.3792 125.769 97.9359 125.582C98.8377 125.094 99.2064 124.787 100.133 124.963C104.54 125.788 105.123 131.709 100.778 133.167ZM89.9326 112.57C90.5022 115.918 93.4498 115.993 95.7027 116.281C100.221 116.863 102.068 120.782 99.8276 122.809C96.3851 125.913 90.0704 127.847 85.3452 127.991C83.317 128.054 82.7854 127.766 82.0969 126.996C79.368 123.923 77.5652 116.125 77.6657 111.906C77.716 109.509 78.4004 109.026 79.4495 108.502C81.4335 107.509 84.2004 107.109 86.3651 107.563C89.1286 108.151 89.4192 109.576 89.9326 112.57ZM80.6004 106.78C80.4754 104.267 80.0585 102.045 79.5425 100.378C81.3201 100.502 82.985 99.9708 84.3552 98.8443C84.7979 100.502 85.206 103.286 85.206 106.236C83.7733 106.154 82.084 106.33 80.6004 106.78ZM72.3763 94.1816C72.051 93.6622 71.9512 93.5997 74.8859 92.442C80.4924 90.2563 79.721 91.4262 85.8388 88.7931C86.177 88.6491 86.5898 88.4115 86.6211 88.7741C87.5479 99.7325 77.8022 102.941 72.3763 94.1816ZM103.845 57.0362C106.174 72.643 94.8567 86.0418 79.6925 89.6873C67.188 92.8209 64.4876 98.7194 59.2145 99.3067C55.8867 99.7168 52.8027 97.8421 51.6226 92.8854C49.0818 82.2271 41.4403 81.6887 42.2035 72.1691C42.2347 71.8126 42.4228 71.1112 42.3977 70.623C42.3291 69.2589 40.176 71.249 33.9047 71.8431C32.6282 71.9681 31.3259 72.0435 30.0616 71.6992C24.5977 70.2224 35.1751 63.4255 41.5272 61.0409C42.0718 60.8406 42.7419 60.421 42.4914 59.9083C42.122 59.1512 41.096 59.833 38.2103 60.4712C35.6505 61.0348 26.3997 62.2862 25.2672 59.9457C24.8727 59.1322 25.7051 58.2556 26.2436 57.6866C29.9047 53.8564 40.4883 50.9462 40.8509 50.752C41.5021 50.4016 41.333 49.7131 40.6384 49.5882C40.2751 49.5196 26.8255 48.7245 21.5809 44.8501C18.9708 42.9285 24.5413 41.4517 27.7835 41.0511C34.3929 40.2248 37.0465 40.7944 37.6657 40.5066C38.2225 40.2499 38.1478 39.7365 37.8097 39.5301C37.0838 39.0922 35 38.2034 33.1157 37.2521C29.536 35.4432 17.4566 28.5839 18.8146 24.791C20.6737 19.615 44.6384 27.0508 57.5313 45.0443C58.4513 46.3337 58.6265 46.3582 59.4841 45.9514C64.4469 43.6293 71.9573 42.9788 76.6574 43.9864C77.1836 44.0991 77.5272 43.7108 77.534 43.2164C77.5523 41.927 76.2194 34.4668 80.2941 25.3791C86.9348 10.5585 99.5459 9.52574 105.022 18.5259C105.516 19.3393 104.459 18.532 101.848 20.0027C98.7881 21.7179 97.5428 25.4042 99.808 28.9153C100.496 29.9854 100.885 30.092 100.365 30.4485C97.3927 32.4889 94.1627 37.8774 95.3211 41.4327C95.7407 42.7343 97.0363 43.429 98.3753 43.154C100.171 42.7846 100.848 41.5332 100.867 42.5904C100.96 47.598 103.113 52.1419 103.845 57.0362ZM107.338 41.1896C106.906 42.5415 105.955 43.4242 104.647 42.8355C103.163 42.1592 102.794 40.4821 102.569 39.9688C102.324 39.412 101.83 39.3305 101.429 39.8058C98.1559 43.617 94.8139 42.4593 96.8984 36.9078C97.9 34.2292 99.408 32.5643 101.285 31.2375C101.542 31.0501 101.793 31.0874 102.062 31.2504C105.51 33.4218 106.042 32.5269 106.129 33.485C106.442 37.0654 108.177 38.5856 107.338 41.1896ZM104.415 25.7742C106.963 27.9586 107.839 27.1071 110.048 29.0728C114.698 33.1971 102.544 33.5352 100.19 27.1078C98.3128 21.963 104.271 18.1518 109.891 21.1998C111.243 21.9257 112.495 22.8084 113.39 24.11C113.96 24.9425 114.385 26.0941 113.283 26.6325C112.325 27.1017 111.149 27.2334 110.104 27.0392C104.49 25.9874 104.959 23.8472 104.039 24.4855C103.551 24.823 103.964 25.3865 104.415 25.7742Z" fill="#0A1640"/>
<path d="M83.3601 59.6464C82.9473 65.4172 75.2046 77.7655 70.0849 78.9355C69.4093 79.0916 68.9401 78.8105 68.6957 78.1655C68.2136 76.9073 68.7711 74.6292 69.1527 73.3466C70.1101 70.1546 71.4368 68.3648 71.462 67.7638C71.4742 67.3693 71.1116 67.0882 70.7673 67.2505C70.0666 67.5887 61.9111 75.0176 54.0632 76.6133C48.7935 77.6895 51.0403 73.1212 54.6954 69.2027C58.457 65.166 59.5332 65.2475 59.8653 64.102C59.9902 63.6892 59.6772 63.3069 59.2521 63.3761C58.6071 63.476 50.7463 67.0753 45.1764 66.5308C41.4277 66.1614 42.967 62.9259 46.0714 60.6167C50.5772 57.2685 56.5171 55.4345 61.9491 54.2952C69.0338 52.8115 72.4825 52.9433 77.2959 52.9372C77.4643 52.9372 77.6463 52.9433 77.8154 52.9182C78.4604 52.8306 78.5351 52.0422 77.903 51.8542C75.6371 51.1908 59.2834 51.8664 48.1057 57.9502C39.6813 62.5315 39.7444 68.7966 48.2123 67.6953C53.6008 66.9939 55.7913 65.5985 56.3983 65.7866C56.16 66.5253 50.4149 70.8621 49.7332 75.1623C49.1445 78.8363 54.3144 77.8722 56.217 77.2841C59.1584 76.3702 63.1204 74.249 65.5051 72.5841C71.4572 68.4096 68.1898 69.9176 67.3513 76.1889C67.2447 76.984 67.3825 77.7099 67.5265 78.4547C67.5889 78.7616 67.7709 79.0305 67.9705 79.2743C71.7132 83.918 83.3669 68.7287 84.5558 59.8976C84.6 59.5846 84.6373 59.2777 84.4934 58.9776C84.255 58.4765 83.4416 58.545 83.3601 59.6464Z" fill="#0A1640"/>
<path d="M96.8985 22.0318C96.9739 19.2282 92.5801 19.2092 92.5298 21.9693C92.5047 23.0021 93.3684 23.9968 94.3821 24.1537C95.6281 24.3479 96.8605 23.29 96.8985 22.0318Z" fill="#0A1640"/>
<path d="M43.7781 129.496C41.9523 129.417 41.3194 132.007 42.93 132.819C44.0436 133.38 45.4403 132.534 45.4756 131.286C45.5001 130.393 44.688 129.536 43.7781 129.496Z" fill="#0A1640"/>
<path d="M53.6744 134.42C53.5847 135.243 54.3235 136.232 55.306 136.201C56.1656 136.345 57.1054 135.537 57.1142 134.601C57.1366 132.332 53.9113 132.242 53.6744 134.42Z" fill="#0A1640"/>
<path d="M91.3254 111.745C92.7737 111.874 93.1105 113.834 91.1489 114.269C90.1718 114.485 86.1813 115.165 85.3081 114.619C84.9788 114.413 84.9584 113.995 85.1424 113.698C85.7338 112.74 90.2051 111.647 91.3254 111.745Z" fill="#D811AD"/>
<path d="M90.4621 108.163C91.9104 108.292 92.2472 110.253 90.2856 110.687C89.3085 110.904 85.318 111.584 84.4448 111.038C84.1155 110.832 84.0951 110.414 84.2791 110.116C84.8706 109.158 89.3418 108.065 90.4621 108.163Z" fill="#D811AD"/>
<path d="M57.8638 115.148C59.0214 116.029 58.2623 117.867 56.3699 117.19C55.4275 116.854 51.6876 115.304 51.2394 114.377C51.0703 114.027 51.2761 113.662 51.5898 113.508C52.6008 113.012 56.9675 114.468 57.8638 115.148Z" fill="#D811AD"/>
<path d="M59.0405 111.658C60.1982 112.538 59.4391 114.376 57.5467 113.7C56.6043 113.363 52.8643 111.814 52.4162 110.886C52.2471 110.537 52.4528 110.172 52.7665 110.018C53.7783 109.522 58.1449 110.977 59.0405 111.658Z" fill="#D811AD"/>
<path d="M17.2349 11.061C16.8689 14.2285 13.1772 13.724 10.7647 13.7851C10.633 13.7926 10.5168 13.815 10.398 13.7715C10.0626 9.94061 10.0144 6.19457 9.74414 2.34463L9.75908 2.32698C12.378 1.45582 16.3209 1.33021 16.5172 5.05181C16.5661 5.98205 16.249 6.91566 15.8402 7.68701C15.7655 7.84046 15.8185 7.90362 15.9414 8.03127C16.6863 8.85762 17.425 9.6181 17.2349 11.061ZM14.3566 5.13261C14.1549 4.79311 13.8623 4.62606 13.5092 4.56088C13.0563 4.50181 12.5056 4.48076 12.1838 4.68175C12.2598 5.19372 12.1179 5.96778 12.359 6.73709C13.0271 6.7853 13.9451 6.81993 14.2595 6.13685C14.3953 5.86389 14.5576 5.47211 14.3566 5.13261ZM14.5114 9.63914C14.3641 9.38044 14.0531 9.16383 13.7665 9.11223C13.3456 9.01785 12.8818 9.07624 12.4642 9.04772C12.3325 9.70432 12.2429 10.8586 12.6367 11.3713L12.6706 11.3855C13.2851 11.353 14.1054 11.4269 14.5263 10.8708C14.7579 10.5252 14.6812 10.0133 14.5114 9.63914Z" fill="#0A1640"/>
<path d="M25.2779 12.0272C25.2521 12.7436 25.1686 13.538 24.9167 14.1803C22.6685 13.9264 20.2526 13.8381 18.1382 13.4314C18.5435 9.59301 18.7337 5.88361 19.3488 2.11719C21.927 2.2557 26.2183 2.64138 26.2081 2.74119C26.2421 3.53087 26.0424 4.31309 25.9603 5.08987L25.9589 5.10684C24.5194 5.27184 23.0732 4.86852 21.6031 4.84747L21.5542 4.8427L21.5352 4.85696C21.4843 5.50337 21.2623 6.18237 21.3485 6.79415L21.3628 6.81249C22.0194 6.93199 22.716 6.98836 23.3923 7.07663L23.3909 7.09291C23.4283 7.85 23.2497 8.58333 23.1805 9.39677C22.4831 9.50745 21.4117 9.21004 21.1597 9.36757C20.9757 10.0004 20.9472 10.9001 20.9411 11.4345L20.9554 11.4528C22.4118 11.6069 23.7705 11.884 25.2806 11.9933L25.2779 12.0272Z" fill="#0A1640"/>
<path d="M36.2435 17.2642C35.4735 17.1603 34.5317 16.774 33.994 16.6552L33.9784 16.6497C34.2194 15.1736 34.8699 13.6173 35.1286 12.1989L35.117 12.1785C34.5345 11.8709 33.9315 11.6808 33.2681 11.6265C32.6781 13.0442 32.454 14.5788 31.8252 15.8451C31.2067 15.9802 30.0843 15.1709 29.6382 15.2564C30.0795 13.4245 31.832 7.34946 32.9218 4.13574L32.9273 4.12012L32.9422 4.12555L32.9748 4.13574C33.5682 4.46302 34.4258 4.4569 34.9724 4.82289C34.7001 6.34113 34.1569 7.66925 33.9824 9.09719L33.9987 9.10264C34.4815 9.39529 35.1768 9.5114 35.7152 9.62955L35.7309 9.63497C36.3202 8.21654 36.6869 7.05952 37.1065 5.51683C37.7006 5.51275 38.7151 5.78299 39.333 6.03151L36.2435 17.2642Z" fill="#0A1640"/>
<path d="M43.1785 20.4577L43.1717 20.4727C42.5103 20.3219 41.7566 19.9281 41.1652 19.4976L41.1503 19.4908C41.2005 18.729 41.557 17.411 41.5495 16.6967C41.0668 16.3891 41.0708 16.4632 40.6152 16.2588C40.0557 16.7735 39.4582 17.9821 38.8091 18.4927C38.7935 18.4852 38.7711 18.494 38.7561 18.4873C38.5687 18.4567 38.0262 18.122 36.6383 17.517C36.6241 17.5102 36.6241 17.5102 36.6152 17.4878C36.9201 17.1327 40.0591 12.1399 43.6986 7.93896C44.0075 8.02316 44.2092 8.22347 45.5991 8.70284C45.4273 9.57332 44.6431 13.5075 44.4292 14.6339L43.1785 20.4577ZM41.3139 14.4214C41.6561 14.5939 42.0574 14.7555 42.437 14.9259C44.1834 9.41716 43.1377 11.501 41.3139 14.4214Z" fill="#0A1640"/>
<path d="M54.0859 17.3879C54.0105 17.5169 53.9351 17.6459 53.8537 17.7525C52.5595 19.4432 49.8964 19.7202 48.2471 18.3534C47.9803 18.9102 47.7549 19.1641 46.2013 21.9928L46.1932 22.0078C46.1789 21.9989 46.1558 22.0051 46.1415 21.9962C45.5271 21.8306 44.3137 21.104 43.708 20.6539C45.2188 17.8 47.6354 13.9535 49.3804 10.6963C52.1202 11.4459 55.8234 14.0105 54.094 17.3722L54.0859 17.3879ZM50.3575 13.9419C50.3432 13.9331 50.329 13.9256 50.3059 13.9311C49.9474 14.6467 49.3281 15.4778 49.1787 16.1616L49.2215 16.1867C49.8503 16.4956 50.6331 17.0674 51.361 16.8759C51.928 16.6301 52.2587 15.8981 51.9314 15.3026C51.6842 14.6392 51.067 14.1443 50.3575 13.9419Z" fill="#0A1640"/>
<path d="M61.0723 22.4611C60.9834 22.582 60.8951 22.7022 60.8021 22.8C59.3381 24.3454 56.6588 24.3399 55.163 22.8088C54.8391 23.3343 54.5885 23.5632 52.7464 26.214L52.7362 26.2276C52.7226 26.218 52.6995 26.2215 52.686 26.212C52.0911 25.9818 50.9626 25.1323 50.4072 24.6224C52.2086 21.9417 55.0163 18.3695 57.0934 15.314C59.7401 16.3481 63.1534 19.2868 61.0811 22.4482L61.0723 22.4611ZM57.7255 18.6431C57.7119 18.6336 57.6983 18.6241 57.6753 18.6275C57.2427 19.3004 56.5393 20.0636 56.32 20.7283L56.36 20.7575C56.9521 21.1303 57.6712 21.7821 58.4147 21.6674C59.0047 21.482 59.4108 20.7888 59.148 20.1627C58.9715 19.4756 58.4099 18.9195 57.7255 18.6431Z" fill="#0A1640"/>
<path d="M69.5889 25.6255C66.0004 27.7317 61.8361 28.8406 58.2184 30.8307C58.1314 30.7295 58.033 30.6399 57.9223 30.5381C57.5781 30.2244 57.115 29.8692 56.7334 29.5216C56.6349 29.4313 56.5371 29.3417 56.4502 29.2405L56.4258 29.2181C58.0669 28.2838 60.0252 27.3461 61.9148 26.4355L61.9366 26.4111C62.8912 24.6477 63.321 22.4505 64.2567 20.7598C64.5874 21.0619 65.0247 21.3247 65.3798 21.6506C65.5767 21.8292 65.7621 22.0213 65.8673 22.2753C65.3669 23.1465 64.6247 24.9458 64.3586 25.8292C65.229 25.542 66.8872 24.4651 67.7868 24.0706C68.1386 24.279 68.7259 24.7699 69.1564 25.1624C69.3519 25.3417 69.5129 25.5107 69.6005 25.6126L69.5889 25.6255Z" fill="#0A1640"/>
<path d="M62.1199 34.5512C62.0174 34.4412 63.1282 33.6821 63.5791 33.2632L63.5906 33.2509C64.1121 33.494 64.5555 34.2396 64.9969 34.7149C64.5345 35.1209 63.9756 35.5949 63.5017 36.0369L63.4223 35.9513C63.241 35.7565 63.1737 35.6594 63.0047 35.4774L62.9816 35.4529L62.1199 34.5512ZM70.6584 26.6123C71.0909 27.0041 71.7903 27.5127 72.0761 28.0878C69.959 29.9877 67.6361 32.0579 65.6433 34.0916C65.1985 33.7106 64.5752 33.0398 64.1216 32.5767L64.1094 32.5638C66.2876 30.6083 68.2825 28.5034 70.6244 26.5757L70.6584 26.6123Z" fill="#0A1640"/>
<path d="M122.275 61.6089C121.987 61.0657 121.767 60.6949 121.589 60.3045C120.999 59.0083 121.238 57.8058 122.256 56.775C123.072 55.9473 124.104 55.5073 125.171 55.1237C125.623 54.9608 126.095 54.8311 126.52 54.6131C127.721 53.9966 128.006 52.7574 127.221 51.652C126.844 51.121 126.33 50.7265 125.816 50.3368C125.15 49.8329 125.2 49.6367 125.352 49.2816C125.535 48.8565 126.042 48.7214 126.618 48.9957C127.912 49.6109 129.031 50.461 129.398 51.9202C129.943 54.0821 128.832 56.0118 126.662 56.7187C125.788 57.0039 124.937 57.3203 124.164 57.8126C123.237 58.404 123.123 58.8378 123.611 59.8292C123.847 60.3099 124.148 60.7588 124.399 61.2327C124.835 62.0563 125.086 62.9363 124.942 63.8686C124.726 65.2782 123.897 66.2118 122.535 66.6043C121.597 66.8745 120.707 67.2317 119.87 67.7226C118.895 68.2943 118.784 68.6976 119.418 69.6679C119.827 70.294 120.312 70.8738 120.795 71.4476C121.092 71.8007 121.223 72.1796 121.19 72.6291C121.155 73.1105 120.75 73.4106 120.298 73.287C119.929 73.1865 119.579 73.0276 119.322 72.7479C118.596 71.9589 117.845 71.1801 117.369 70.2043C116.572 68.5693 116.976 67.1726 118.48 66.1629C119.289 65.6197 120.174 65.2463 121.082 64.9149C121.232 64.8599 121.396 64.8443 121.549 64.7947C123.12 64.2896 123.373 63.6459 122.586 62.1453C122.463 61.9076 122.317 61.6808 122.275 61.6089Z" fill="#E38921"/>
<path d="M22.421 91.8868C21.8153 91.99 21.3943 92.0837 20.9679 92.1305C19.5522 92.2867 18.4848 91.6844 17.8228 90.3957C17.2911 89.3609 17.1954 88.2439 17.1641 87.1114C17.1506 86.6306 17.1743 86.1424 17.1003 85.6705C16.8891 84.337 15.8007 83.679 14.5058 84.0803C13.8832 84.2731 13.3482 84.6377 12.8179 85.0051C12.1321 85.4797 11.9609 85.3718 11.671 85.1151C11.324 84.8089 11.3539 84.2854 11.7939 83.8236C12.7819 82.7868 13.9389 81.989 15.4395 82.0949C17.6632 82.2524 19.1495 83.9099 19.1448 86.1913C19.1428 87.1114 19.1781 88.0185 19.4048 88.9059C19.6771 89.972 20.054 90.2151 21.1478 90.0616C21.6781 89.9869 22.1989 89.8416 22.7272 89.7513C23.6459 89.5945 24.5598 89.6305 25.4011 90.0575C26.6722 90.7033 27.301 91.7829 27.2487 93.1986C27.2127 94.1737 27.2745 95.1304 27.4795 96.0783C27.7179 97.183 28.0669 97.4145 29.1865 97.1151C29.909 96.9216 30.6111 96.6425 31.3071 96.3628C31.7355 96.1903 32.1361 96.1849 32.553 96.356C32.9991 96.54 33.158 97.0173 32.9 97.4084C32.6888 97.7275 32.4295 98.0107 32.0832 98.1675C31.1068 98.6102 30.1331 99.0808 29.0575 99.2281C27.2548 99.4753 26.0543 98.6557 25.5648 96.9121C25.3013 95.9737 25.2232 95.0163 25.1913 94.0501C25.1859 93.8898 25.2219 93.7289 25.2232 93.5687C25.2341 91.9187 24.7011 91.478 23.0294 91.7571C22.7632 91.8019 22.5025 91.8691 22.421 91.8868Z" fill="#E38921"/>
<path d="M4.06078 42.373C3.68461 41.8875 3.40418 41.5595 3.16178 41.2058C2.35784 40.0298 2.38772 38.8041 3.21271 37.6139C3.87541 36.6578 4.81583 36.0481 5.80106 35.4872C6.21932 35.2496 6.66135 35.0404 7.04227 34.7526C8.11985 33.9391 8.18843 32.6694 7.2256 31.7147C6.76253 31.2564 6.18877 30.9556 5.61569 30.6602C4.87422 30.2779 4.88916 30.0763 4.97879 29.7001C5.08607 29.2499 5.56137 29.0299 6.17655 29.201C7.55628 29.5853 8.80496 30.2311 9.41674 31.6054C10.3239 33.6417 9.56001 35.733 7.54474 36.8018C6.73197 37.2329 5.9484 37.6906 5.27144 38.3078C4.45867 39.0493 4.42133 39.4967 5.07181 40.3896C5.38755 40.8228 5.76032 41.2132 6.08896 41.6376C6.66 42.3743 7.05789 43.198 7.07622 44.1411C7.10406 45.567 6.44747 46.629 5.17366 47.2489C4.29639 47.676 3.48091 48.1805 2.7408 48.8072C1.87779 49.5371 1.83773 49.954 2.62876 50.8014C3.13937 51.348 3.71652 51.8362 4.29028 52.3183C4.64336 52.615 4.83756 52.9661 4.88237 53.4149C4.9299 53.8956 4.58361 54.2603 4.11646 54.2161C3.73554 54.1801 3.36344 54.0837 3.06197 53.8522C2.21186 53.199 1.33866 52.5607 0.702435 51.6807C-0.363598 50.2066 -0.20539 48.761 1.10305 47.5089C1.80717 46.8347 2.61518 46.3153 3.45239 45.8332C3.59091 45.7531 3.75047 45.7096 3.89239 45.6349C5.35292 44.8683 5.49143 44.1907 4.45935 42.8469C4.29707 42.6351 4.11442 42.4368 4.06078 42.373Z" fill="#E38921"/>
<path d="M118.825 118.249C118.85 117.636 118.846 117.204 118.889 116.777C119.031 115.36 119.843 114.442 121.241 114.062C122.363 113.758 123.476 113.896 124.59 114.101C125.063 114.188 125.536 114.313 126.013 114.339C127.361 114.41 128.231 113.483 128.109 112.133C128.05 111.484 127.805 110.885 127.556 110.289C127.235 109.519 127.376 109.375 127.687 109.145C128.059 108.869 128.564 109.007 128.925 109.534C129.733 110.716 130.273 112.013 129.857 113.46C129.239 115.602 127.308 116.711 125.078 116.231C124.179 116.037 123.285 115.882 122.369 115.92C121.27 115.964 120.953 116.282 120.876 117.384C120.839 117.919 120.873 118.458 120.851 118.994C120.813 119.926 120.588 120.812 119.995 121.546C119.098 122.655 117.912 123.044 116.538 122.699C115.592 122.461 114.644 122.322 113.673 122.325C112.543 122.328 112.244 122.621 112.304 123.778C112.342 124.525 112.469 125.27 112.598 126.009C112.678 126.464 112.6 126.857 112.345 127.229C112.072 127.628 111.572 127.683 111.243 127.349C110.975 127.076 110.752 126.763 110.671 126.392C110.441 125.345 110.184 124.295 110.264 123.211C110.398 121.397 111.45 120.394 113.256 120.278C114.229 120.215 115.182 120.338 116.133 120.508C116.291 120.536 116.441 120.605 116.598 120.639C118.209 120.993 118.751 120.564 118.827 118.871C118.837 118.602 118.825 118.333 118.825 118.249Z" fill="#E38921"/>
<path d="M118.435 9.37273C119.046 9.43723 119.476 9.46169 119.899 9.5323C121.305 9.76588 122.168 10.6357 122.456 12.0548C122.687 13.1948 122.477 14.2962 122.2 15.3948C122.082 15.8613 121.927 16.3244 121.87 16.799C121.711 18.14 122.581 19.0682 123.936 19.0336C124.587 19.0166 125.201 18.8109 125.811 18.601C126.6 18.3301 126.735 18.4809 126.945 18.8061C127.196 19.1952 127.025 19.6902 126.477 20.0154C125.244 20.7453 123.915 21.1996 122.498 20.6903C120.4 19.936 119.42 17.937 120.043 15.7424C120.294 14.857 120.507 13.975 120.529 13.059C120.556 11.9591 120.26 11.6229 119.164 11.4742C118.633 11.4023 118.094 11.4009 117.56 11.3446C116.633 11.2468 115.763 10.9643 115.069 10.3247C114.021 9.35847 113.709 8.14917 114.143 6.79999C114.441 5.87112 114.642 4.93342 114.701 3.96517C114.771 2.83735 114.498 2.51957 113.34 2.50463C112.592 2.49513 111.841 2.57321 111.095 2.65401C110.636 2.70358 110.249 2.60105 109.894 2.32266C109.514 2.02458 109.491 1.52145 109.846 1.21522C110.135 0.964667 110.462 0.763004 110.838 0.705968C111.898 0.544365 112.962 0.356273 114.038 0.505653C115.84 0.756884 116.774 1.87113 116.772 3.68203C116.772 4.65707 116.587 5.59952 116.356 6.5379C116.318 6.6934 116.239 6.83869 116.194 6.99282C115.737 8.57761 116.131 9.14662 117.815 9.33199C118.082 9.36187 118.351 9.3673 118.435 9.37273Z" fill="#E38921"/>
</svg>
