<svg xmlns="http://www.w3.org/2000/svg" width="136" height="150" fill="none"><path fill="#fff" d="M78.511 150a40.987 40.987 0 0 1-12.1-1.853c-8.843-2.74-15.816-8.17-19.192-14.814a74 74 0 0 1-4.182-.306c-4.271-.435-9.618-1.48-13.083-5.744-3.622-4.456-3.77-11.388-.363-16.855 1.755-2.816 2.046-3.344 2.046-3.344a3.967 3.967 0 0 1-6.963-2.962l.735-7.635-6.255-1.668a3.968 3.968 0 0 1-.17-7.62l1.698-.392.257-1.92c-4.862 1.599-9.153 3.16-14.943 5.265a3.965 3.965 0 0 1-5.082-2.46C-1.147 81.64.88 74.602 5.846 70.576c1.797-1.458 3.942-2.48 6.246-3.005a54.2 54.2 0 0 1 9.4-33.536c7.599-11.103 18.979-18.88 32.044-21.897a53.5 53.5 0 0 1 12.013-1.375 53.3 53.3 0 0 1 22.388 4.95l8.75-2.754 1.517-9.61a3.969 3.969 0 0 1 7.527-1.035l3.481 7.594 9.25-.811q.176-.015.348-.016a3.97 3.97 0 0 1 2.726 6.852l-5.881 5.562 2.631 6.81a3.97 3.97 0 0 1-.379 3.6c7.638 1.705 14.355 6.91 17.615 14.007a3.97 3.97 0 0 1-2.28 5.397c-8.859 3.14-17.564 5.932-26.019 8.617l.136 11.58a3.97 3.97 0 0 1-.844 2.494l-7.27 9.279 2.575 5.619 9.25-.811q.175-.016.349-.016a3.967 3.967 0 0 1 2.725 6.851l-5.881 5.563 2.632 6.81a3.969 3.969 0 0 1-5.654 4.884l-6.875-3.885-3.157 3.683c7.14 5.529 11.036 13.294 9.544 20.93C102.786 142.971 91.996 150 78.511 150"/><path stroke="#2C1845" stroke-miterlimit="10" stroke-width="2.824" d="M61.515 82.335c.454 7.921-3.83 15.933-10.67 19.954-2.99 1.759-7.033 2.688-9.77.557-2.028-1.578-2.664-4.706-1.374-6.928s4.363-3.216 6.69-2.128c2.328 1.087 3.536 4.126 2.548 6.497-.993 2.384-3.587 3.589-5.899 4.738-3.752 1.863-7.432 4.24-9.648 7.795s-2.598 8.523.044 11.774c2.364 2.908 6.398 3.769 10.127 4.148a71.9 71.9 0 0 0 22.163-1.195"/><path fill="#A278FF" d="M100.94 132.222c-1.969 10.075-15.122 15.981-29.374 13.194a37 37 0 0 1-3.094-.745c-.273-.074-.538-.157-.803-.24-11.589-3.59-19.406-12.358-18.513-21.094.025-.273.058-.546.108-.819.017-.132.041-.256.066-.388 1.688-8.628 11.573-14.195 23.327-13.865.273.009.555.017.836.034 1.704.082 3.45.298 5.212.636 14.252 2.788 24.203 13.211 22.235 23.287"/><path fill="#2C1845" d="M68.471 144.671c-.273-.074-.537-.157-.802-.24a67.5 67.5 0 0 0 5.054-18.339q.063-.41.1-.819a67.3 67.3 0 0 0-.166-17.007c.273.008.555.016.836.033 1.679 12.317-.091 24.99-5.022 36.372"/><path fill="#2C1845" d="m72.964 125.29-.092.819-.148-.017-23.568-2.755c.025-.273.058-.546.108-.818l23.559 2.754z"/><path fill="#FF92DF" d="M84.113 129.498s-5.914 2.746-4.647 5.491c1.267 2.746 15.207-5.491 15.207-5.491S82 118.938 79.888 121.05s4.225 8.448 4.225 8.448"/><path fill="#FF85AF" d="M61.667 46.308c13.96-3.405 20.11 11.602 20.976 13.825l31.389-7.25c-6.624-26.477-33.073-42.912-59.52-36.804S11.5 48.556 17.156 75.257l31.988-7.388c.209-3.248-1.436-18.156 12.522-21.561"/><path fill="#FFAD9F" d="M55.895 22.072C32.723 27.423 18.208 50.5 23.109 73.882l27.655-6.387c-6.543-7.622 3-18.252 10.903-20.077S83.5 50.09 80.426 60.645l27.656-6.387c-5.85-23.163-29.015-37.538-52.186-32.187"/><path fill="#F4C46C" d="M57.442 28.768c-19.512 4.506-31.748 23.897-27.72 43.587l21.042-4.86c-5.161-7.623 3-18.252 10.903-20.077s21.186 4.275 18.758 13.227l21.032-4.858c-5.013-19.462-24.504-31.525-44.015-27.019"/><path fill="#36DAD9" d="M59.253 36.613C44.038 40.127 34.462 55.2 37.509 70.557l13.255-3.062c-4.563-7.622 3-18.252 10.903-20.077s20.665 5.144 18.758 13.227l13.255-3.061c-3.996-15.138-19.212-24.485-34.427-20.97"/><path fill="#A278FF" d="M60.904 43.762C49.6 46.372 42.463 57.512 44.597 68.92l6.167-1.425c-1.34-7.963 3.678-15.671 11.58-17.497 7.903-1.825 15.792 2.903 18.08 10.647l6.167-1.424c-3.083-11.188-14.383-18.07-25.687-15.459"/><path fill="#FFE6DE" d="M61.668 67.708c-3.724-8.106-13.011-13.266-21.86-12.145-8.85 1.12-16.558 8.432-18.143 17.21-4.048-2.407-9.579-2.006-13.237.96s-5.193 8.295-3.674 12.752c19.39-6.872 37.524-11.904 56.914-18.777M131.999 47.643c-3.723-8.105-13.011-13.266-21.86-12.145-8.849 1.12-16.558 8.433-18.143 17.21-4.048-2.407-9.579-2.006-13.237.96s-5.193 8.295-3.674 12.753c19.39-6.873 37.524-11.905 56.914-18.778"/><path fill="#FF92DF" d="M67.71 54.45 50.532 42.34 33.917 65.152l1.127 14.925 38.86 29.287 29.569-37.735-.211-18.023-21.543-16.051z"/><path fill="#2C1845" d="M54.749 72.104a8 8 0 0 1-.188 1.452 5.6 5.6 0 0 1-.518 1.43 3.9 3.9 0 0 1-.907 1.147q-.557.48-1.353.615-.59.1-1.102-.057a3.2 3.2 0 0 1-.964-.49q-.45-.333-.818-.803a6.6 6.6 0 0 1-.645-.992 7 7 0 0 1-.458-1.054 6.5 6.5 0 0 1-.26-1.003 9 9 0 0 1-.115-1.446q-.002-.78.123-1.57a8.6 8.6 0 0 1 .393-1.537q.269-.751.704-1.363.436-.612 1.039-1.04a3.4 3.4 0 0 1 1.415-.565q.516-.087.993.037t.857.402.642.704q.261.427.346.928l.023.132q.045.267.088.661.044.395-.015.77-.059.374-.25.672-.194.297-.62.37-.519.087-.823-.105-.306-.19-.398-.737a6 6 0 0 1-.055-.416 6 6 0 0 0-.055-.415q-.052-.31-.184-.463-.132-.15-.456-.096a1.05 1.05 0 0 0-.625.347q-.256.286-.412.707a4.8 4.8 0 0 0-.236.935 9 9 0 0 0-.088 2.004q.033.465.088.79a7 7 0 0 0 .133.606q.087.342.237.644.149.3.379.49a.64.64 0 0 0 .538.136q.531-.09.8-.475.27-.388.3-.924a2.5 2.5 0 0 1-.422-.027 1.4 1.4 0 0 1-.401-.13 1 1 0 0 1-.325-.264.9.9 0 0 1-.177-.418q-.076-.457.19-.768.265-.31.664-.514.398-.204.834-.316.437-.11.702-.156.193-.032.567-.064.373-.034.75.002.379.034.675.167.295.13.342.413.095.56-.139 1.017t-.813.63M63.685 71.994q.05.296.068.718t-.066.823a1.9 1.9 0 0 1-.291.701q-.209.301-.621.371-.546.092-.886-.26a2.7 2.7 0 0 1-.551-.887 6.6 6.6 0 0 1-.33-1.104l-.192-.91q-1.034.357-2.044.663.028.345.016.863a4.8 4.8 0 0 1-.132 1.017q-.12.499-.38.891a1.03 1.03 0 0 1-.718.47.67.67 0 0 1-.597-.165 1.8 1.8 0 0 1-.406-.562 3.3 3.3 0 0 1-.248-.709q-.086-.373-.13-.624a10.5 10.5 0 0 1-.146-1.682 32 32 0 0 1 .102-2.727q.051-.6.162-1.249.11-.648.297-1.295.188-.645.477-1.18.29-.534.711-.91.423-.375.998-.471a1.87 1.87 0 0 1 1.017.087q.455.18.835.542.38.36.674.85.296.489.526 1.004.231.514.415 1.015.182.501.324.886.353.93.65 1.886.3.96.466 1.948m-3.453-3.106q-.03-.176-.12-.579a7 7 0 0 0-.233-.796 2.8 2.8 0 0 0-.35-.684q-.21-.291-.474-.246-.148.025-.247.246a2.2 2.2 0 0 0-.151.542 6 6 0 0 0-.072.703q-.019.383-.02.731-.002.35.014.628l.022.398q.872-.222 1.704-.514zM74.837 70.707q.02.392 0 .773a4 4 0 0 1-.088.691 1.3 1.3 0 0 1-.225.508.62.62 0 0 1-.392.241q-.236.04-.489-.29a5 5 0 0 1-.523-.897q-.27-.57-.538-1.299a37 37 0 0 1-.948-2.967 77 77 0 0 1-.334-1.264q.006.577.004 1.29 0 .713-.042 1.457-.042.742-.118 1.461t-.207 1.295a3.8 3.8 0 0 1-.328.943q-.195.367-.475.415-.251.042-.56-.256a4.5 4.5 0 0 1-.637-.81 12 12 0 0 1-.65-1.158q-.322-.644-.614-1.3a35 35 0 0 1-.909-2.237q.052.309.108.687.056.377.084.54l.075.488q.061.414.115.998.052.582.074 1.254.023.673-.053 1.261a3.7 3.7 0 0 1-.26 1.015q-.188.427-.551.518a1.16 1.16 0 0 1-.57-.366 3.2 3.2 0 0 1-.458-.69 6 6 0 0 1-.36-.88 17 17 0 0 1-.28-.933q-.122-.457-.197-.854-.074-.397-.117-.648a17.461 17.461 0 0 1-.204-2.56q-.006-.759.062-1.53.067-.77.242-1.399.175-.628.474-1.059.3-.43.771-.509.222-.037.515.171.293.21.613.573.32.364.64.825.32.462.62.935t.541.91q.24.439.4.745.057-.373.155-.876.097-.502.225-1.047.129-.546.303-1.083.175-.539.39-.977.213-.438.461-.73.247-.292.542-.343.515-.085.95.235.435.323.788.891.354.57.63 1.307.275.735.482 1.466.207.732.338 1.377.132.646.199 1.044l.074.444q.05.28.1.635.052.355.09.759.04.404.062.81M82.318 68.718q.047.279-.056.57-.105.276-.594.708-.49.431-1.102.846-.614.414-1.197.732-.585.319-.879.368a1.6 1.6 0 0 1-.503-.013 4 4 0 0 1-.602-.15 2.8 2.8 0 0 1-.566-.253 1.5 1.5 0 0 1-.395-.313q-.075-.094-.18-.394a10 10 0 0 1-.21-.709q-.108-.406-.215-.867a97 97 0 0 1-.201-.877 24 24 0 0 1-.242-1.211q-.093-.546-.175-1.261a16 16 0 0 1-.1-1.448 9.4 9.4 0 0 1 .072-1.423q.088-.69.35-1.206.082-.15.366-.35.285-.2.684-.403.398-.204.865-.404t.904-.357.796-.271.552-.146a1 1 0 0 1 .437.025q.216.063.383.2.166.14.283.325a1.13 1.13 0 0 1 .155.74 1.7 1.7 0 0 1-.106.322q-.116.217-.542.562-.428.345-.938.697-.51.353-.983.643-.476.294-.666.416-.003.351-.01.708-.009.359.022.717.418-.312.958-.617a3.3 3.3 0 0 1 1.057-.39q1.048-.177 1.223.856a1 1 0 0 1-.022.459 1.3 1.3 0 0 1-.194.382 1.8 1.8 0 0 1-.31.317l-.355.28a7.4 7.4 0 0 1-.916.602q-.484.273-.972.536a7 7 0 0 0-.015.268q-.006.146.016.278.034.207.1.409l.128.403.536-.288q.369-.198.774-.404.405-.204.788-.368a3 3 0 0 1 .574-.195.9.9 0 0 1 .43.026q.208.065.367.197a1.28 1.28 0 0 1 .426.725M89.265 61.946q.172 1.017-.164 1.91a5.2 5.2 0 0 1-1.012 1.643 9.8 9.8 0 0 1 1.244 1.665q.288.49.5.992.215.503.29.946.078.472-.086.887-.165.415-.712.507-.457.078-.864-.31a5 5 0 0 1-.768-.956q-.36-.569-.683-1.167a8 8 0 0 0-.577-.95 6 6 0 0 0-.483.286 13 13 0 0 1-.481.302q.04.326.1.901.058.575.028 1.156a3.3 3.3 0 0 1-.213 1.038q-.181.455-.624.53a.87.87 0 0 1-.82-.271q-.333-.354-.535-.881a6.5 6.5 0 0 1-.314-1.094q-.111-.566-.165-.89a31 31 0 0 1-.2-1.37q-.084-.677-.202-1.37a36 36 0 0 0-.236-1.267 39 39 0 0 1-.238-1.28l-.063-.376a6 6 0 0 1-.058-.476 12 12 0 0 1-.027-.474q-.007-.227.044-.371.096-.335.572-.704a8 8 0 0 1 1.068-.688q.59-.32 1.168-.545.576-.227.871-.277.752-.127 1.376.057.622.183 1.087.598.465.416.762 1.01.3.596.415 1.289m-2.695.666q-.065-.384-.276-.552-.21-.17-.61-.103-.292.05-.58.205-.284.153-.513.33.256 1.156.435 2.308.292-.155.59-.372.297-.217.53-.5.234-.282.361-.606.127-.327.063-.71M65.962 84.461a8 8 0 0 1-.189 1.451 5.6 5.6 0 0 1-.518 1.43 3.9 3.9 0 0 1-.907 1.147q-.555.48-1.354.615-.59.1-1.102-.057a3.2 3.2 0 0 1-.963-.49q-.45-.334-.818-.804a6.7 6.7 0 0 1-.645-.99 7 7 0 0 1-.458-1.054 6.4 6.4 0 0 1-.26-1.004 9.696 9.696 0 0 1 .008-3.014 8.6 8.6 0 0 1 .392-1.538 5.6 5.6 0 0 1 .704-1.364q.436-.612 1.039-1.04a3.4 3.4 0 0 1 1.415-.565q.517-.087.993.038.476.124.857.401.381.278.642.704.261.427.347.929l.021.132q.045.266.09.66.042.395-.016.77a1.7 1.7 0 0 1-.25.672q-.194.299-.621.37-.517.087-.822-.104-.306-.192-.398-.737a6 6 0 0 1-.054-.416 6 6 0 0 0-.056-.415q-.052-.311-.183-.463-.133-.152-.458-.097a1.05 1.05 0 0 0-.623.347 2.2 2.2 0 0 0-.413.708q-.157.42-.237.934a9 9 0 0 0-.1 1.027 9 9 0 0 0 .101 1.767q.045.266.133.608.087.34.236.642.15.302.379.49a.64.64 0 0 0 .54.137q.53-.09.8-.476a1.77 1.77 0 0 0 .3-.924 2.4 2.4 0 0 1-.423-.027 1.3 1.3 0 0 1-.401-.13 1 1 0 0 1-.326-.263.9.9 0 0 1-.176-.419q-.078-.456.19-.767.265-.311.663-.515a4 4 0 0 1 .836-.315q.436-.111.702-.157.191-.03.565-.064.374-.033.752.002.377.035.673.167.295.132.343.413.095.56-.14 1.018-.233.458-.81.63"/><path fill="#2C1845" d="M71.082 76.935q.048.281-.041.523a1.25 1.25 0 0 1-.269.433q-.18.19-.413.335-.234.146-.463.23a74 74 0 0 1 .417 3.238 53 53 0 0 1 .237 3.253l.09-.015q.234-.04.472-.026.239.012.444.107t.348.26a.9.9 0 0 1 .186.431.9.9 0 0 1-.115.627 1.8 1.8 0 0 1-.488.522q-.317.236-.725.426a8 8 0 0 1-.825.33 11 11 0 0 1-1.41.365q-.178.03-.438.06-.261.027-.502-.007a1.1 1.1 0 0 1-.428-.155.52.52 0 0 1-.23-.372 1.2 1.2 0 0 1 .032-.574 1.6 1.6 0 0 1 .258-.491 1.8 1.8 0 0 1 .413-.389q.238-.161.495-.265a97 97 0 0 0-.081-1.648 22 22 0 0 0-.157-1.652l-.22-1.67-.22-1.655q-.1.033-.188.055a2.1 2.1 0 0 1-.61.064 1.5 1.5 0 0 1-.47-.08 1.2 1.2 0 0 1-.392-.214.62.62 0 0 1-.21-.39q-.085-.501.28-.896.366-.397.92-.672a6.6 6.6 0 0 1 1.147-.443q.594-.17.963-.231.206-.035.551-.062.344-.028.694.019t.623.183.325.446M78.873 77.945q.172 1.017-.164 1.909a5.2 5.2 0 0 1-1.013 1.643 10 10 0 0 1 1.243 1.665q.288.49.502.993.212.502.288.946.08.472-.086.887t-.711.506q-.457.078-.864-.31a5 5 0 0 1-.769-.955 18 18 0 0 1-.682-1.167 8.5 8.5 0 0 0-.577-.95 6 6 0 0 0-.483.286 12 12 0 0 1-.48.301q.038.327.098.902.059.575.028 1.156a3.3 3.3 0 0 1-.213 1.038q-.181.456-.623.53a.86.86 0 0 1-.82-.271q-.333-.354-.536-.882a6.6 6.6 0 0 1-.313-1.093 31.62 31.62 0 0 1-.366-2.26 32 32 0 0 0-.201-1.37q-.107-.635-.236-1.266a36 36 0 0 1-.302-1.656 5 5 0 0 1-.057-.477 11 11 0 0 1-.027-.473 1 1 0 0 1 .043-.372q.096-.333.572-.703a8 8 0 0 1 1.068-.688q.591-.32 1.168-.547.576-.225.871-.275.752-.127 1.376.056a2.8 2.8 0 0 1 1.087.598q.465.415.762 1.01.3.594.417 1.289m-2.696.665q-.065-.383-.276-.552-.21-.17-.609-.103-.295.05-.58.205a4 4 0 0 0-.514.33q.255 1.155.435 2.309.293-.155.59-.374.296-.215.53-.498.234-.282.36-.608.129-.325.064-.709M87.393 82.397q.063.369-.185.744t-.683.722q-.435.346-.991.646-.557.297-1.11.536-.55.237-1.048.396a6 6 0 0 1-.791.21 4 4 0 0 1-.607.048 1.05 1.05 0 0 1-.562-.14q-.134-.069-.275-.364a9 9 0 0 1-.294-.71q-.153-.412-.296-.898a24 24 0 0 1-.258-.95q-.118-.466-.205-.86-.09-.396-.127-.617a22 22 0 0 1-.129-.897q-.066-.528-.122-1.133a28 28 0 0 1-.088-1.237q-.03-.633-.027-1.202.001-.57.068-1.036.065-.466.186-.746.213-.444.64-.517a.7.7 0 0 1 .536.115q.24.163.419.46.18.296.31.677.133.378.228.758.094.379.15.703l.086.516q.194 1.152.332 2.29.139 1.138.333 2.289l.097.575q.63-.318 1.38-.635.751-.316 1.46-.435a5 5 0 0 1 .515-.057q.262-.013.478.048a.83.83 0 0 1 .372.226q.156.166.208.475"/><path fill="#F4C46C" d="m100.305 16.081 1.901-12.038 4.647 10.138 12.038-1.056-7.814 7.392 3.59 9.293-9.715-5.491-7.603 8.87 1.056-10.983-9.505-2.534zM31.664 87.468l1.9-12.038 4.647 10.137 12.039-1.056-7.815 7.393 3.59 9.293-9.715-5.492-7.603 8.871 1.056-10.983-9.504-2.534zM92.913 95.071l1.9-12.038L99.46 93.17l12.039-1.056-7.815 7.392 3.591 9.293-9.716-5.492-7.603 8.871 1.056-10.983-9.504-2.534z"/></svg>