<svg xmlns="http://www.w3.org/2000/svg" width="130" height="140" fill="none"><path fill="#3C1DA1" d="M2.697 7.874 73.34.326a2.67 2.67 0 0 1 2.948 2.486l2.728 43.24L6.81 53.768.34 10.927a2.67 2.67 0 0 1 2.357-3.053"/><path fill="#0A1640" d="M6.81 54.078a.31.31 0 0 1-.307-.264L.034 10.974a2.95 2.95 0 0 1 .588-2.266 2.96 2.96 0 0 1 2.042-1.142L73.308.017a2.95 2.95 0 0 1 2.238.686c.627.528 1 1.27 1.052 2.09l2.729 43.24a.31.31 0 0 1-.277.327L6.843 54.076zM2.73 8.183c-.646.069-1.22.39-1.617.904a2.34 2.34 0 0 0-.465 1.793l6.424 42.547 71.617-7.651-2.71-42.945a2.34 2.34 0 0 0-.834-1.654 2.34 2.34 0 0 0-1.772-.543z"/><path fill="#00D4FC" d="m72.409 4.816 2.257 33.04.23 3.378c.034.541-.362 1.011-.9 1.07l-63.071 6.738a1.01 1.01 0 0 1-1.106-.855L4.556 12.066a1.004 1.004 0 0 1 .888-1.142l65.855-7.037a1.003 1.003 0 0 1 1.11.929"/><g fill="#3C1DA1" opacity=".25"><path d="M61.196 4.966 43.88 45.521l6.175-.66L67.37 4.307zM30.99 8.194 13.67 48.749l4.37-.467L35.353 7.728zM44.373 6.764 27.059 47.319l8.99-.961L53.365 5.803z"/></g><path fill="#3C1DA1" d="M71.3 38.216a3.257 3.257 0 0 1 3.595 3.018c.035.541-.36 1.011-.9 1.07l-63.07 6.738a1.01 1.01 0 0 1-1.106-.855L4.556 12.066a1.004 1.004 0 0 1 .888-1.142 3.96 3.96 0 0 1 4.336 3.332l4.278 27.597a2.59 2.59 0 0 0 2.832 2.177z" opacity=".25"/><path fill="#fff" d="M68.753 7.195c.471 3.675.755 7.36.993 11.05.219 3.69.39 7.383.375 11.087a.303.303 0 0 1-.604.037c-.466-3.675-.744-7.361-.975-11.05-.211-3.691-.378-7.385-.357-11.09a.285.285 0 0 1 .568-.034" opacity=".75"/><path fill="#3C1DA1" d="M51.99 10.834a5.1 5.1 0 0 0-3.778-1.11 5.1 5.1 0 0 0-3.456 1.885 5.1 5.1 0 0 0-.945 1.825 8.4 8.4 0 0 0-4.442-.935c-2.209.151-3.835 1.147-4.792 1.93a5.15 5.15 0 0 0-5.086-2.7 5.1 5.1 0 0 0-3.457 1.886 5.1 5.1 0 0 0-1.11 3.778 5.15 5.15 0 0 0 7.378 4.074 5.1 5.1 0 0 0 1.74-1.393 5.11 5.11 0 0 0 1.027-4.306c.716-.671 2.219-1.791 4.391-1.94a7.1 7.1 0 0 1 4.157 1.024q0 .267.028.535a5.15 5.15 0 0 0 7.37 4.076 5.155 5.155 0 0 0 2.86-5.173 5.1 5.1 0 0 0-1.885-3.456m-18.983 8.403a3.79 3.79 0 0 1-2.562 1.398 3.816 3.816 0 0 1-4.197-3.385 3.79 3.79 0 0 1 .823-2.8 3.8 3.8 0 0 1 2.562-1.397 3.816 3.816 0 0 1 4.196 3.385 3.78 3.78 0 0 1-.822 2.8m19.544-4.805a3.82 3.82 0 0 1-3.384 4.197 3.816 3.816 0 0 1-4.196-3.385 3.78 3.78 0 0 1 .823-2.799 3.8 3.8 0 0 1 2.561-1.397 3.79 3.79 0 0 1 2.8.823 3.79 3.79 0 0 1 1.396 2.56"/><path fill="#D811AD" d="M33.145 22.999c-2.01-.89-5.201-.47-6.547 1.392-1.746 2.416 2.122 4.598 5.913 3.043 2.768-1.134 2.624-3.553.634-4.435M53.724 21.485c-1.71-1.535-4.918-1.27-6.694.026-1.758 1.283-1.387 3.678 1.559 4.201 4.034.716 7.353-2.236 5.135-4.227"/><path fill="#0A1640" d="M72.72 4.795a1.3 1.3 0 0 0-.466-.916 1.3 1.3 0 0 0-.987-.301L5.412 10.614c-.36.039-.68.217-.901.503a1.3 1.3 0 0 0-.261.993l5.264 36.122a1.315 1.315 0 0 0 1.445 1.118l63.07-6.74a1.316 1.316 0 0 0 1.177-1.397zm1.243 37.199-63.07 6.739a.697.697 0 0 1-.765-.591L4.864 12.02a.69.69 0 0 1 .614-.79l65.856-7.036a.69.69 0 0 1 .52.159.69.69 0 0 1 .246.483l2.487 36.417c.024.376-.25.701-.624.74"/><path fill="#0A1640" d="M29.555 15.144c-1.812.626-1.91 3.161-.325 4.086 1.972 1.15 4.422-.805 3.333-2.874a2.494 2.494 0 0 0-3.008-1.212M48.867 13.074a2.495 2.495 0 0 0-2.683 1.822c-.626 2.252 2.182 3.644 3.866 2.103 1.354-1.24.721-3.696-1.183-3.925M42.762 17.487c-2.775-.353-5.85.385-6.645.833-1.26.704-.679 2.315.078 3.308.141.192.29.357.435.493 2.029 1.854 5.919 1.044 7.162-1.272a3.3 3.3 0 0 0 .358-2.034c-.091-.7-.534-1.218-1.388-1.328"/><path fill="#FF8CDB" d="M43.792 20.85c-1.243 2.316-5.133 3.125-7.162 1.271a3.7 3.7 0 0 1-.436-.492 4.82 4.82 0 0 1 3.585-2.245 4.82 4.82 0 0 1 4.013 1.466"/><path fill="#3C1DA1" d="m90.27 83.888-.793 1.924a2.6 2.6 0 0 1-2.128 1.595L7.406 95.949a2.6 2.6 0 0 1-2.417-1.109l-1.182-1.714z"/><path fill="#0A1640" d="m33.485 93.162-26.08 2.786a2.6 2.6 0 0 1-2.417-1.109l-1.182-1.714 25.445-2.718a31.4 31.4 0 0 0 4.234 2.755" opacity=".25"/><path fill="#0A1640" d="M7.128 96.274c-.95 0-1.847-.465-2.395-1.257l-1.182-1.715a.31.31 0 0 1 .222-.484l86.464-9.239a.309.309 0 0 1 .32.426l-.794 1.925a2.91 2.91 0 0 1-2.382 1.785L7.438 96.257a3 3 0 0 1-.31.016m-2.77-2.895.885 1.285a2.29 2.29 0 0 0 2.129.977l79.943-8.543a2.29 2.29 0 0 0 1.875-1.404l.594-1.443z"/><path fill="#845EF9" d="m79.103 46.026 11.15 37.09c.237.791-.276 1.51-1.144 1.602L5.116 93.693c-.869.093-1.522-.501-1.456-1.325l3.06-38.609c.046-.572.666-1.095 1.383-1.172l69.401-7.415c.717-.077 1.434.304 1.6.854"/><path fill="#0A1640" d="M86.491 79.665a3.2 3.2 0 0 1 3.403 2.26l.358 1.19c.238.792-.275 1.51-1.143 1.603L5.116 93.693c-.869.093-1.522-.501-1.456-1.326L6.72 53.76c.046-.572.666-1.095 1.383-1.172.945-.1 1.752.673 1.692 1.62l-1.95 30.7a2.687 2.687 0 0 0 2.968 2.843z" opacity=".25"/><path fill="#fff" d="M77.582 48.73a73 73 0 0 1 1.409 4.021c.44 1.349.844 2.708 1.243 4.068.387 1.364.767 2.73 1.111 4.106.349 1.375.677 2.756.945 4.154a.304.304 0 0 1-.582.167 73 73 0 0 1-1.4-4.023c-.437-1.35-.84-2.71-1.234-4.07-.384-1.365-.76-2.733-1.103-4.109a73 73 0 0 1-.937-4.156.285.285 0 0 1 .227-.334c.14-.027.272.05.321.176" opacity=".5"/><path fill="#0A1640" d="M4.942 94.012c-.444 0-.855-.157-1.15-.442a1.5 1.5 0 0 1-.442-1.227l3.061-38.608c.058-.723.786-1.363 1.659-1.457l69.4-7.415c.873-.094 1.722.378 1.93 1.073l11.15 37.09c.137.458.075.917-.174 1.293-.262.394-.712.652-1.234.708L5.148 94q-.104.01-.206.01m72.745-48.54q-.075 0-.15.008L8.135 52.897c-.567.06-1.074.467-1.107.888L3.968 92.392c-.023.29.069.55.256.733.21.204.515.297.858.26l83.993-8.975c.343-.036.622-.19.783-.435a.9.9 0 0 0 .096-.77l-11.15-37.09c-.11-.369-.602-.643-1.117-.643"/><path fill="#3C1DA1" d="M79.037 67.407 11.3 74.645c-.508.055-.9-.262-.875-.706l1.047-19.093c.02-.367.408-.704.868-.753l61.336-6.553c.46-.049.911.198 1.008.552l5.057 18.44c.119.429-.198.82-.706.875"/><path fill="#845EF9" d="m15.751 69.363-2.399.256c-.197.021-.363.176-.37.345l-.092 2.082c-.008.173.148.296.349.275l2.429-.26c.2-.022.366-.179.37-.352l.062-2.078c.005-.17-.151-.29-.349-.268M20.12 68.895l-2.398.257c-.198.02-.36.175-.365.344l-.048 2.077c-.005.172.154.295.355.274l2.429-.259c.2-.021.363-.179.365-.351l.018-2.074c0-.168-.158-.288-.356-.268M24.49 68.429l-2.4.256c-.197.021-.357.175-.358.344l-.005 2.072c-.001.173.161.295.36.274l2.43-.26c.2-.02.36-.177.358-.35l-.024-2.069c-.003-.169-.164-.288-.362-.267M28.858 67.962l-2.398.256c-.198.021-.355.175-.352.343l.037 2.068c.002.172.167.294.367.273l2.43-.26c.2-.022.357-.178.351-.35l-.067-2.065c-.006-.167-.17-.286-.368-.265M49.758 65.729l-18.93 2.023c-.197.02-.352.174-.345.342l.08 2.063c.006.172.173.294.373.273l19.171-2.049c.2-.022.344-.177.32-.346l-.272-2.043c-.022-.167-.199-.284-.397-.263M54.127 65.262l-2.399.257c-.197.02-.338.172-.315.339l.284 2.041c.024.17.205.29.405.27l2.43-.26c.2-.022.34-.177.314-.347l-.315-2.038c-.025-.166-.206-.283-.404-.262M58.496 64.796l-2.399.256c-.198.02-.336.172-.31.338l.328 2.037c.027.17.212.29.412.268l2.429-.26c.2-.02.338-.175.308-.344l-.358-2.033c-.029-.167-.213-.284-.41-.263M62.865 64.328l-2.398.257c-.198.02-.334.171-.304.337l.37 2.032c.031.169.219.289.419.267l2.429-.26c.2-.021.334-.175.302-.344l-.4-2.029c-.034-.164-.22-.28-.418-.26M72.273 64.66l-.241-1.005c-.04-.164-.232-.281-.43-.26l-2.398.257c-.198.021-.328.172-.29.337l.227 1.007.229 1.016c.037.169.23.288.43.266l2.43-.26c.2-.021.328-.175.288-.343zM76.937 65.202l-.187-.712c-.044-.166-.24-.283-.439-.262l-2.414.257c-.198.021-.326.174-.285.34l.176.712c.041.168.238.288.438.266l2.429-.26c.2-.02.326-.173.281-.34M67.518 65.167l-2.414.258c-.198.021-.332.174-.298.341l.146.716c.034.17.224.289.424.267l2.43-.259c.2-.022.331-.175.295-.344l-.157-.714c-.037-.167-.227-.285-.426-.265M13.397 68.566l4.747-.507c.196-.021.358-.174.361-.34l.036-2.005c.003-.164-.151-.279-.346-.258l-4.688.501c-.194.021-.357.17-.365.334l-.088 2.01c-.007.167.146.286.343.265M22.487 64.998l-2.358.252c-.194.02-.352.17-.355.332l-.024 2.004c-.002.166.156.285.352.264l2.387-.255c.196-.021.355-.174.355-.34l-.005-2c0-.163-.159-.278-.352-.257M24.446 67.385l2.386-.255c.197-.021.353-.173.349-.34l-.046-1.995c-.004-.162-.165-.277-.359-.256l-2.357.252c-.194.02-.35.169-.349.332l.017 1.998c.002.167.162.285.358.264M28.79 66.921l2.387-.255c.196-.02.35-.172.342-.338l-.087-1.991c-.007-.162-.17-.277-.364-.256l-2.358.252c-.194.02-.347.169-.343.332l.058 1.993c.006.167.169.284.365.263M33.135 66.457l2.386-.255c.197-.021.347-.172.336-.338l-.128-1.986c-.01-.162-.176-.276-.37-.255L33 63.875c-.194.02-.345.169-.337.33l.1 1.99c.008.166.174.283.37.262M37.478 65.992l2.387-.255c.196-.02.344-.171.33-.336l-.171-1.982c-.014-.162-.182-.276-.377-.255l-2.357.252c-.194.02-.342.168-.33.33l.14 1.986c.013.165.182.281.378.26M41.823 65.528l2.387-.255c.196-.02.341-.17.324-.336l-.212-1.978c-.017-.161-.188-.274-.383-.254l-2.357.252c-.194.021-.34.169-.324.33l.182 1.98c.015.166.186.282.383.261M46.166 65.064l2.387-.255c.196-.02.339-.171.318-.335l-.253-1.973c-.021-.161-.195-.274-.389-.254l-2.357.252c-.194.021-.337.168-.319.33l.224 1.976c.019.164.193.28.39.259M53.21 64.01l-.295-1.969c-.023-.16-.2-.273-.395-.252l-2.357.252c-.194.02-.334.167-.312.328l.265 1.972c.021.165.199.28.395.26l2.387-.255c.196-.022.336-.172.311-.336M57.547 63.546l-.335-1.964c-.027-.16-.207-.273-.401-.252l-2.358.252c-.194.02-.33.167-.306.327l.306 1.968c.026.163.206.28.402.258l2.387-.255c.196-.02.333-.17.305-.334M61.102 60.872l-2.357.251c-.195.021-.329.167-.3.327l.346 1.963c.029.164.212.28.408.258l2.387-.255c.196-.02.33-.17.3-.333l-.378-1.96c-.03-.16-.212-.272-.406-.251M65.391 60.413l-2.357.252c-.194.021-.325.167-.294.327l.389 1.959c.032.162.218.278.414.257l2.387-.255c.196-.021.327-.17.292-.333l-.418-1.956c-.034-.16-.218-.271-.413-.251M67.325 60.207c-.194.02-.323.166-.288.325l.43 1.955c.035.162.224.277.42.256l7.818-.836c.197-.02.322-.169.28-.33l-.511-1.947c-.042-.158-.233-.27-.427-.25zM13.55 64.94l6.547-.7c.193-.021.35-.168.352-.33l.017-1.934c.002-.158-.152-.269-.343-.248l-6.468.691c-.19.02-.351.165-.358.324l-.085 1.941c-.006.162.145.276.338.255M24.645 63.463l-.021-1.93c-.003-.158-.158-.27-.35-.249l-2.317.248c-.19.02-.346.164-.346.322l-.006 1.933c-.001.16.155.274.348.254l2.346-.25c.193-.02.348-.168.346-.328M28.841 63.015l-.06-1.926c-.006-.158-.164-.268-.355-.248l-2.317.248c-.191.02-.344.164-.341.321l.032 1.929c.003.16.162.274.355.254l2.346-.251c.193-.02.345-.167.34-.327M33.037 62.566l-.1-1.922c-.009-.157-.17-.267-.36-.247l-2.318.248c-.191.02-.341.164-.335.32l.072 1.925c.006.16.168.273.36.253l2.347-.25c.192-.02.343-.167.334-.327M37.233 62.117l-.14-1.917c-.011-.157-.175-.267-.366-.246l-2.317.247c-.191.02-.339.163-.33.32l.112 1.92c.009.16.173.273.366.253l2.345-.251c.194-.02.342-.166.33-.326M41.429 61.67l-.18-1.914c-.014-.156-.18-.266-.371-.245l-2.318.247c-.19.02-.335.163-.323.32l.15 1.916c.013.16.18.272.373.251l2.345-.25c.194-.02.338-.166.324-.325M45.625 61.221l-.218-1.91c-.018-.155-.187-.264-.377-.244l-2.318.248c-.19.02-.333.163-.317.318l.19 1.913c.015.159.185.271.378.25l2.345-.25c.193-.02.335-.166.317-.325M49.82 60.773l-.258-1.906c-.02-.155-.193-.264-.383-.243l-2.318.247c-.19.02-.33.163-.311.318l.229 1.908c.019.16.19.272.384.25l2.345-.25c.194-.02.333-.166.311-.324M53.33 58.18l-2.318.248c-.19.02-.327.163-.306.318l.269 1.904c.022.158.197.27.39.249l2.345-.25c.193-.022.33-.166.305-.325l-.297-1.901c-.023-.155-.197-.264-.388-.243M57.481 57.737l-2.317.247c-.191.02-.325.162-.3.317l.307 1.9c.026.158.202.27.396.249l2.345-.25c.193-.021.327-.167.3-.324l-.337-1.897c-.026-.154-.203-.263-.394-.242M62.408 59.429l-.376-1.893c-.03-.154-.21-.263-.4-.242l-2.317.247c-.191.02-.323.162-.294.316l.346 1.896c.029.158.209.269.402.248l2.345-.251c.194-.02.325-.164.294-.321M66.604 58.98l-.415-1.889c-.033-.153-.216-.262-.406-.241l-2.318.247c-.19.02-.32.161-.288.316l.385 1.891c.032.157.215.268.408.248l2.346-.25c.193-.021.322-.165.288-.322M68.172 59.103l2.345-.25c.193-.021.32-.165.282-.322l-.454-1.884c-.037-.154-.221-.261-.412-.241l-2.317.247c-.191.02-.317.162-.283.315l.424 1.887c.036.158.221.269.415.248M13.698 61.435l4.017-.429c.19-.02.346-.162.349-.318l.04-1.873c.003-.152-.147-.26-.335-.24L13.8 59c-.187.02-.345.16-.352.313l-.083 1.877c-.005.156.143.266.333.245M22.159 60.25l.001-1.87c0-.152-.151-.259-.34-.239l-2.278.243c-.187.02-.341.16-.343.312l-.029 1.872c-.003.156.15.266.34.245l2.306-.246c.19-.02.343-.162.343-.317M23.611 60.377l2.306-.247c.19-.02.341-.163.339-.318l-.037-1.865c-.003-.152-.157-.258-.345-.239l-2.279.244c-.187.02-.339.16-.338.312l.009 1.867c0 .156.155.266.345.246M27.315 57.831l.046 1.864c.003.155.16.264.35.243l2.307-.246c.19-.02.339-.162.332-.317l-.074-1.861c-.006-.152-.163-.258-.35-.238l-2.279.243c-.187.02-.337.16-.332.312M31.372 57.397l.084 1.86c.007.155.166.264.357.243l2.306-.246c.19-.02.336-.162.327-.317l-.112-1.856c-.01-.151-.168-.258-.356-.238l-2.28.244c-.187.02-.333.159-.326.31M35.43 56.964l.122 1.855c.01.155.172.264.362.243l2.306-.246c.19-.02.334-.162.321-.316l-.15-1.853c-.011-.15-.173-.257-.361-.237l-2.28.244c-.185.02-.33.159-.32.31M39.488 56.53l.16 1.852c.013.153.177.262.367.242l2.306-.247c.19-.02.331-.16.316-.315l-.187-1.848c-.016-.151-.18-.257-.368-.236l-2.278.243c-.187.02-.329.158-.316.31M43.546 56.096l.197 1.848c.016.153.184.262.373.241l2.307-.246c.19-.02.328-.162.31-.315l-.225-1.844c-.018-.15-.185-.256-.373-.236l-2.28.244c-.186.02-.325.158-.309.308M47.603 55.663l.235 1.844c.02.153.19.261.38.241l2.306-.247c.19-.02.326-.16.304-.314l-.262-1.84c-.022-.15-.191-.255-.379-.236l-2.278.244c-.188.02-.325.158-.306.308M51.662 55.23l.272 1.839c.023.153.195.26.385.24l2.306-.247c.19-.02.324-.16.299-.313l-.3-1.837c-.024-.15-.196-.254-.384-.235l-2.279.243c-.188.022-.322.159-.3.31M55.72 54.796l.31 1.836c.026.152.2.26.39.24l2.307-.247c.19-.02.32-.161.293-.313l-.338-1.833c-.027-.15-.202-.254-.389-.234l-2.279.243c-.188.021-.32.158-.294.308M59.777 54.362l.348 1.831c.029.153.206.26.397.24l2.306-.247c.19-.02.318-.16.287-.313l-.375-1.828c-.03-.149-.208-.254-.395-.233l-2.278.243c-.189.02-.318.158-.29.307M63.836 53.929l.386 1.827c.032.152.211.259.401.239l2.307-.247c.19-.02.315-.16.281-.312l-.413-1.824c-.033-.149-.213-.253-.4-.233l-2.28.244c-.187.02-.314.157-.282.306"/><path fill="#845EF9" d="M68.17 53.19c-.186.02-.31.157-.277.305l.424 1.824c.035.151.218.258.407.237l2.532-.27.77 3.115c.038.156.226.267.42.246l2.345-.25c.193-.02.316-.165.275-.321l-1.365-5.201c-.04-.148-.222-.252-.41-.232zM13.84 58.049l2.268-.243c.187-.02.342-.158.346-.31l.053-1.812c.004-.149-.142-.252-.326-.232l-2.242.24c-.184.019-.34.155-.345.303l-.08 1.816c-.006.15.14.257.326.238M17.972 57.607l2.267-.243c.187-.02.34-.158.34-.309l.016-1.81c.002-.147-.147-.25-.332-.23l-2.241.24c-.185.019-.337.154-.34.302l-.042 1.812c-.004.152.145.258.332.238M22.103 57.166l2.268-.243c.187-.02.337-.158.335-.308l-.022-1.805c-.002-.148-.153-.25-.338-.231l-2.24.24c-.185.02-.336.155-.336.302l-.004 1.808c-.001.15.15.257.337.236M26.233 56.725l2.268-.243c.187-.02.334-.158.33-.307l-.06-1.801c-.005-.147-.159-.25-.343-.23l-2.242.24c-.184.019-.331.154-.328.301l.032 1.804c.003.15.157.255.343.236M30.365 56.283l2.268-.242c.186-.02.331-.158.323-.307l-.096-1.797c-.008-.147-.163-.25-.349-.23l-2.241.24c-.184.02-.33.155-.323.301l.07 1.8c.005.15.161.255.348.235M34.496 55.842l2.268-.243c.186-.02.329-.157.317-.306l-.133-1.793c-.011-.146-.17-.25-.354-.229l-2.24.24c-.185.02-.328.154-.32.3l.107 1.797c.009.148.167.254.355.234M38.626 55.4l2.268-.243c.187-.02.326-.157.313-.305l-.172-1.79c-.014-.146-.174-.248-.359-.228l-2.241.24c-.185.02-.325.153-.313.3l.144 1.792c.013.149.174.254.36.234M42.758 54.959l2.268-.242c.186-.02.324-.157.307-.306l-.209-1.785c-.016-.145-.18-.247-.364-.228l-2.242.24c-.184.02-.322.154-.307.3l.182 1.788c.015.148.178.253.365.233M46.889 54.517l2.268-.242c.186-.02.321-.157.3-.305l-.245-1.782c-.02-.145-.186-.246-.37-.227l-2.242.24c-.184.02-.32.154-.302.3l.22 1.784c.018.148.184.252.37.232M51.019 54.076l2.268-.242c.186-.02.32-.156.295-.304l-.283-1.778c-.023-.144-.191-.246-.376-.226l-2.24.24c-.185.02-.318.153-.297.298l.256 1.78c.022.148.19.252.377.232M55.151 53.634l2.268-.242c.187-.02.317-.156.29-.304l-.32-1.773c-.026-.145-.197-.246-.382-.225l-2.24.24c-.185.019-.315.152-.292.297l.294 1.776c.024.147.196.251.382.231M59.282 53.193l2.268-.242c.187-.02.314-.156.284-.303l-.357-1.769c-.03-.143-.203-.245-.387-.225l-2.242.24c-.184.02-.312.152-.285.297l.331 1.772c.028.147.2.25.388.23M63.413 52.752l2.267-.243c.187-.02.312-.155.28-.302l-.396-1.765c-.032-.144-.207-.245-.392-.225l-2.242.24c-.184.019-.31.152-.28.296l.37 1.768c.03.147.206.25.392.23M67.544 52.31l5.507-.588c.186-.02.306-.155.268-.301l-.461-1.758c-.038-.143-.218-.243-.403-.223-2.044.218-3.405.364-5.442.58-.184.02-.307.153-.274.297l.406 1.764c.034.146.213.25.4.23"/><path fill="#0A1640" d="m80.043 66.451-5.057-18.44c-.137-.503-.725-.846-1.34-.78L12.31 53.786c-.613.066-1.117.524-1.146 1.044l-1.046 19.094a.94.94 0 0 0 .293.744c.2.19.478.294.78.294q.072 0 .144-.008l67.736-7.237c.356-.039.663-.212.843-.475a.94.94 0 0 0 .13-.79m-.641.44c-.077.114-.222.19-.397.208L11.27 74.337c-.175.017-.333-.025-.432-.119a.33.33 0 0 1-.101-.261l1.046-19.093c.01-.19.257-.426.593-.462l61.336-6.553a1 1 0 0 1 .087-.005c.298 0 .544.163.59.33l5.056 18.442a.33.33 0 0 1-.043.276"/><path fill="#0A1640" d="m15.718 69.054-2.398.257c-.35.037-.634.318-.648.639l-.091 2.081a.55.55 0 0 0 .176.435.64.64 0 0 0 .515.162l2.429-.26c.354-.037.639-.323.648-.65l.061-2.079a.55.55 0 0 0-.179-.426.66.66 0 0 0-.513-.159m.012 2.64c-.005.014-.04.052-.096.058l-2.432.256.088-2.024c.005-.013.042-.05.096-.056l2.402-.252zM20.087 68.588l-2.398.256c-.352.038-.634.321-.642.646L17 71.566a.56.56 0 0 0 .183.43.64.64 0 0 0 .515.16l2.428-.26c.357-.039.64-.327.642-.657l.018-2.074a.56.56 0 0 0-.185-.421.66.66 0 0 0-.513-.156m.061 2.64c-.004.012-.037.047-.089.052l-2.44.254.047-2.022c.005-.013.037-.046.088-.051l2.41-.251zM24.97 68.276a.66.66 0 0 0-.513-.155l-2.399.256c-.355.038-.635.325-.635.652l-.006 2.072c0 .164.066.315.189.425a.65.65 0 0 0 .515.158l2.43-.26c.36-.038.64-.33.635-.663l-.025-2.068a.56.56 0 0 0-.191-.417m-.486 2.531-2.428.26h-.019l.005-2.027c.005-.011.035-.041.082-.046l2.399-.257h.018l.026 2.023c-.005.012-.035.042-.083.047M29.338 67.806a.68.68 0 0 0-.513-.153l-2.398.257c-.36.038-.636.327-.63.657l.037 2.068a.57.57 0 0 0 .196.42.66.66 0 0 0 .515.155l2.43-.259c.363-.04.639-.332.628-.669l-.067-2.064a.57.57 0 0 0-.198-.412m-.43 2.528-2.43.26h-.024l-.039-2.025c.005-.01.033-.037.077-.042l2.399-.256q.015-.001.025 0l.068 2.022c-.004.01-.032.036-.076.041M49.725 65.421l-18.93 2.023c-.362.039-.635.33-.623.663l.08 2.063c.006.16.078.308.202.415a.67.67 0 0 0 .515.153l19.17-2.049a.7.7 0 0 0 .473-.254.59.59 0 0 0 .123-.442l-.273-2.043c-.044-.336-.373-.57-.737-.529m.349 2.651-19.17 2.05q-.025-.001-.033.004l-.081-2.029c.003-.008.029-.032.07-.036l18.93-2.023h.014c.028 0 .044.008.044-.001l.276 2.015c-.002.003-.018.017-.05.02M54.094 64.954l-2.398.256a.69.69 0 0 0-.47.254.57.57 0 0 0-.12.437l.285 2.04c.044.31.334.54.667.54a1 1 0 0 0 .078-.005l2.43-.26a.69.69 0 0 0 .47-.256c.1-.129.141-.287.117-.445l-.315-2.038c-.051-.332-.376-.562-.744-.523M54.5 67.6l-2.43.259c-.029.003-.053-.006-.06-.006q-.004 0-.004.002l-.291-2.01c.003-.004.018-.016.047-.019l2.399-.256h.014c.031 0 .052.01.051.001l.32 2.01a.1.1 0 0 1-.046.019M58.464 64.487l-2.4.256a.68.68 0 0 0-.468.255.57.57 0 0 0-.113.441l.328 2.037c.05.31.336.531.669.531a1 1 0 0 0 .081-.004l2.43-.26a.68.68 0 0 0 .47-.258.57.57 0 0 0 .11-.45l-.358-2.033c-.059-.327-.383-.552-.75-.515m.46 2.64-2.43.26c-.037.005-.064-.01-.07-.01l-.002.001-.323-2.01a.1.1 0 0 1 .032-.008l2.398-.256h.014c.036 0 .058.012.058.007l.364 2.001c-.003.003-.016.012-.042.015M62.832 64.02l-2.399.257a.67.67 0 0 0-.469.258.56.56 0 0 0-.106.444l.37 2.032c.055.306.344.524.675.524a1 1 0 0 0 .08-.004l2.43-.26a.67.67 0 0 0 .47-.26.56.56 0 0 0 .103-.452l-.401-2.03c-.064-.323-.393-.547-.754-.509m.515 2.634-2.43.26c-.044.004-.075-.014-.079-.014l-.364-2q.009-.005.025-.006l2.398-.257h.014c.04 0 .066.015.066.013l.395 2zM72.576 64.587l-.241-1.006c-.077-.315-.41-.531-.764-.495l-2.399.256a.65.65 0 0 0-.467.262.56.56 0 0 0-.092.452l.227 1.007.228 1.016c.067.298.36.51.686.51a1 1 0 0 0 .08-.003l2.43-.26a.65.65 0 0 0 .469-.265.56.56 0 0 0 .088-.46zm-3.338-.628 2.398-.256c.052-.006.09.02.096.024l.159.661-.274.03-2.233.238-.157-.697zm2.959 1.75-2.43.26a.14.14 0 0 1-.094-.026l-.153-.677 2.069-.22.448-.048.171.71zM77.05 64.412c-.083-.314-.425-.53-.773-.492l-2.414.257a.65.65 0 0 0-.468.265.56.56 0 0 0-.085.458l.176.712c.073.295.368.504.692.504a1 1 0 0 0 .08-.004l2.429-.26a.65.65 0 0 0 .469-.267.55.55 0 0 0 .08-.462zm-.429.824-2.43.26c-.056.006-.097-.024-.102-.032l-.166-.67.007.001 2.414-.258c.056-.007.1.025.107.033l.174.667zM68.247 65.365c-.07-.321-.4-.544-.762-.506l-2.414.258a.66.66 0 0 0-.47.26.56.56 0 0 0-.1.451l.147.716c.062.302.353.517.681.517a1 1 0 0 0 .08-.004l2.43-.26a.67.67 0 0 0 .47-.262.56.56 0 0 0 .095-.456zm-.475.817-2.429.26c-.05.005-.084-.018-.087-.02l-.14-.683.02-.004 2.415-.258a.14.14 0 0 1 .09.022l.149.68zM13.353 68.878a1 1 0 0 0 .077-.004l4.747-.507c.352-.038.632-.32.639-.643l.036-2.004a.54.54 0 0 0-.18-.415.65.65 0 0 0-.51-.157l-4.689.5c-.345.038-.627.315-.64.63l-.088 2.009a.55.55 0 0 0 .172.426.63.63 0 0 0 .435.165m.097-2.563c.006-.011.04-.044.09-.05l4.69-.495-.033 1.931c-.005.012-.037.043-.086.049l-4.744.502zM22.454 64.69l-2.358.252c-.35.037-.628.317-.632.637l-.024 2.003c-.003.16.062.31.183.419a.64.64 0 0 0 .512.157l2.387-.255c.355-.038.633-.323.632-.649l-.005-2a.55.55 0 0 0-.185-.41.66.66 0 0 0-.51-.154m.002 2.596-2.395.25.02-1.935c.006-.01.036-.038.08-.043l2.358-.252h.01l.006 1.937c-.005.01-.034.038-.08.043M23.967 67.539a.65.65 0 0 0 .512.155l2.387-.255c.358-.039.634-.326.626-.655l-.046-1.995a.55.55 0 0 0-.19-.406.66.66 0 0 0-.51-.152l-2.358.252c-.354.038-.63.32-.626.644l.017 1.999a.55.55 0 0 0 .188.413m.486-2.44 2.357-.252h.017l.047 1.936c-.004.009-.03.034-.074.039l-2.386.255h-.016l-.02-1.939c.004-.008.03-.034.075-.038M28.31 67.076a.66.66 0 0 0 .512.153l2.387-.255c.361-.039.634-.329.62-.66l-.088-1.99a.56.56 0 0 0-.197-.4.67.67 0 0 0-.51-.151l-2.357.252c-.357.038-.63.323-.62.649l.058 1.994a.56.56 0 0 0 .195.408m.432-2.435 2.358-.251h.023l.088 1.935c-.004.007-.027.029-.068.034l-2.387.255h-.023l-.06-1.938c.004-.009.029-.03.07-.035M32.655 66.614a.67.67 0 0 0 .512.15l2.386-.254c.366-.04.635-.332.613-.666l-.128-1.987a.56.56 0 0 0-.203-.395.68.68 0 0 0-.51-.148l-2.357.251c-.36.039-.63.327-.614.655l.1 1.99c.007.157.08.3.2.404m.378-2.432 2.358-.252a.1.1 0 0 1 .03 0l.13 1.933c-.003.004-.023.025-.063.03l-2.387.255a.1.1 0 0 1-.03-.001l-.101-1.935a.1.1 0 0 1 .063-.03M37 66.153a.68.68 0 0 0 .511.148l2.387-.255c.362-.04.634-.34.606-.672l-.17-1.982a.57.57 0 0 0-.209-.39.7.7 0 0 0-.51-.147l-2.357.252c-.363.04-.63.33-.606.66l.14 1.986a.57.57 0 0 0 .207.4m.324-2.429 2.357-.252a.1.1 0 0 1 .037.003l.171 1.928c-.004.007-.024.022-.058.026l-2.386.255a.1.1 0 0 1-.037-.002l-.143-1.931c.005-.007.026-.023.059-.027M41.343 65.691a.7.7 0 0 0 .513.146l2.387-.255a.7.7 0 0 0 .47-.25.58.58 0 0 0 .129-.428l-.212-1.978a.58.58 0 0 0-.26-.42.7.7 0 0 0-.463-.11l-2.358.252c-.36.04-.63.338-.6.667l.181 1.98c.015.155.091.295.213.396m.273-2.425 2.357-.252.018-.001q.02.001.025-.005l.215 1.935c-.003.004-.02.019-.053.022l-2.386.255h-.018c-.013.001-.023 0-.026.006l-.186-1.937c.002-.004.02-.02.054-.023M46.122 65.377a1 1 0 0 0 .078-.004l2.386-.255a.7.7 0 0 0 .47-.252.57.57 0 0 0 .122-.431l-.253-1.974c-.042-.326-.37-.56-.73-.522l-2.356.252a.7.7 0 0 0-.468.249.57.57 0 0 0-.126.423l.223 1.977c.037.309.32.537.654.537m-.216-2.57 2.357-.252h.016c.02 0 .031.002.034-.005l.257 1.93c-.002.004-.019.017-.05.02l-2.385.255-.016.001c-.02 0-.032-.004-.034.004l-.22-1.94a.1.1 0 0 1 .04-.013M50.467 64.913a1 1 0 0 0 .078-.004l2.386-.256c.19-.02.36-.113.469-.254a.57.57 0 0 0 .116-.434l-.293-1.97c-.05-.327-.37-.552-.735-.515l-2.357.252a.7.7 0 0 0-.468.25.56.56 0 0 0-.119.427l.264 1.973c.04.306.328.53.659.53m-.271-2.564 2.357-.251.016-.001c.024 0 .04.005.04-.007l.29 1.938a.1.1 0 0 1-.034.01l-2.387.254h-.014c-.026 0-.042-.005-.042.003l-.26-1.937a.1.1 0 0 1 .034-.009M54.808 64.448a1 1 0 0 0 .081-.004l2.387-.255a.68.68 0 0 0 .468-.256.56.56 0 0 0 .11-.44l-.335-1.964c-.055-.323-.38-.546-.74-.508l-2.357.252a.68.68 0 0 0-.468.253.56.56 0 0 0-.112.43l.306 1.968c.047.306.33.524.66.524m-.32-2.558 2.357-.252h.014c.03-.001.05.009.048-.003l.329 1.93a.1.1 0 0 1-.027.007l-2.386.255h-.014c-.031 0-.05-.008-.049.002l-.3-1.932a.1.1 0 0 1 .027-.007M59.152 63.985a1 1 0 0 0 .08-.005l2.387-.255a.67.67 0 0 0 .468-.258.56.56 0 0 0 .102-.442l-.377-1.96c-.06-.319-.384-.541-.744-.502l-2.357.252a.67.67 0 0 0-.467.255.56.56 0 0 0-.106.434l.347 1.963c.054.302.339.517.667.517m-.375-2.553 2.357-.251.014-.001c.034 0 .056.012.055.002l.37 1.923-.02.004-2.387.255c-.034.004-.057-.006-.066-.006q-.004 0-.004.003l-.34-1.924zM63.496 63.52a1 1 0 0 0 .08-.004l2.387-.255a.66.66 0 0 0 .469-.262.55.55 0 0 0 .094-.445l-.418-1.955c-.067-.315-.395-.532-.749-.495l-2.357.252a.66.66 0 0 0-.466.258.55.55 0 0 0-.1.437l.389 1.959c.059.298.345.51.671.51m-.428-2.547 2.358-.252h.013c.038 0 .063.015.063.008l.41 1.913-.014.002-2.387.255c-.041.003-.068-.01-.075-.01h-.002l-.38-1.914zM67.292 59.898a.66.66 0 0 0-.466.26.55.55 0 0 0-.092.44l.43 1.955c.064.293.352.502.676.502l.08-.004 7.818-.836a.64.64 0 0 0 .467-.265.55.55 0 0 0 .08-.453l-.512-1.946c-.08-.306-.41-.516-.76-.479zm7.882-.188.496 1.89-7.815.835c-.042.005-.08-.014-.085-.014l-.42-1.905h.009l7.721-.826c.048-.005.09.02.094.02M13.506 65.252a1 1 0 0 0 .077-.004l6.548-.7c.35-.037.626-.315.63-.634l.017-1.934a.53.53 0 0 0-.178-.406.66.66 0 0 0-.509-.154l-6.468.69c-.342.037-.62.309-.635.62l-.085 1.94a.53.53 0 0 0 .17.42.63.63 0 0 0 .433.162m6.683-3.213c-.01-.005-.032-.032-.032-.065v.056l-.033-.301zm-6.584.733c.006-.01.038-.04.085-.044l6.467-.691-.014 1.854c-.005.01-.033.036-.079.04l-6.538.694zM24.955 63.459l-.021-1.93a.54.54 0 0 0-.185-.4.66.66 0 0 0-.507-.152l-2.318.247c-.348.037-.622.314-.623.63l-.006 1.933c0 .157.064.302.182.41a.64.64 0 0 0 .51.153l2.345-.25c.353-.039.627-.32.623-.641m-3.04.269.002-1.85a.1.1 0 0 1 .073-.037l2.318-.248.006.001.024 1.853c-.004.008-.03.032-.072.036zM29.151 63.005l-.06-1.926a.54.54 0 0 0-.19-.396.67.67 0 0 0-.508-.15l-2.317.248c-.352.037-.623.316-.618.635l.033 1.929c.003.156.07.299.188.404a.65.65 0 0 0 .51.152l2.345-.251c.356-.037.628-.32.617-.645m-.683.029-2.346.25-.013.001-.036-1.855a.1.1 0 0 1 .068-.033l2.318-.247q.007-.003.013-.001L28.536 63c-.004.008-.028.029-.068.033M33.346 62.55l-.1-1.922a.55.55 0 0 0-.195-.391.68.68 0 0 0-.508-.148l-2.317.247c-.355.038-.624.32-.611.64l.072 1.926a.55.55 0 0 0 .193.399.66.66 0 0 0 .51.15l2.346-.25c.36-.038.628-.324.61-.65m-.677.035-2.346.251h-.02l-.075-1.853c.005-.008.028-.025.064-.03l2.317-.247h.02l.103 1.85a.1.1 0 0 1-.063.03M37.542 62.096l-.14-1.918a.55.55 0 0 0-.2-.387.69.69 0 0 0-.507-.146l-2.318.248c-.358.038-.624.322-.605.646l.11 1.921c.01.153.08.293.2.394a.67.67 0 0 0 .509.148l2.346-.25c.364-.038.629-.327.605-.656m-.67.04-2.347.251H34.5l-.115-1.85c.004-.007.026-.023.059-.027l2.317-.247h.027l.142 1.848c-.004.006-.025.022-.058.025M41.738 61.64l-.18-1.913a.56.56 0 0 0-.206-.382.7.7 0 0 0-.507-.144l-2.317.248c-.361.038-.625.325-.6.651l.15 1.917a.56.56 0 0 0 .205.39.67.67 0 0 0 .51.145l2.346-.25c.36-.037.629-.334.599-.662m-.665.047-2.345.251a.1.1 0 0 1-.033-.001l-.146-1.855a.1.1 0 0 1 .045-.015l2.317-.248a.1.1 0 0 1 .034.001l.181 1.845a.1.1 0 0 1-.053.022M45.807 61.607a.57.57 0 0 0 .125-.42l-.218-1.91c-.037-.324-.363-.555-.719-.518l-2.317.248c-.36.038-.625.333-.593.658l.189 1.912c.015.15.09.287.211.385a.69.69 0 0 0 .509.144l2.345-.25a.7.7 0 0 0 .468-.249m-.532-.369-2.346.251a.1.1 0 0 1-.04-.003l-.184-1.851a.1.1 0 0 1 .038-.011l2.318-.248q.025-.002.04.003l.21 1.848a.1.1 0 0 1-.036.011M50.01 61.155a.56.56 0 0 0 .117-.424l-.257-1.905c-.044-.325-.362-.551-.723-.511l-2.317.247a.69.69 0 0 0-.466.247.56.56 0 0 0-.12.416l.228 1.908c.036.303.32.526.648.526a1 1 0 0 0 .077-.004l2.346-.25a.68.68 0 0 0 .466-.25m-.534-.366-2.346.251a.1.1 0 0 1-.046-.005l-.222-1.846a.1.1 0 0 1 .032-.009l2.318-.247a.1.1 0 0 1 .047.005l.248 1.844q-.01.004-.03.007M54.21 60.705a.55.55 0 0 0 .112-.428l-.296-1.901c-.05-.322-.375-.543-.729-.504l-2.317.248a.68.68 0 0 0-.465.249.55.55 0 0 0-.115.42l.268 1.904c.044.302.32.518.65.518a1 1 0 0 0 .08-.004l2.346-.25a.67.67 0 0 0 .467-.252m-.532-.364-2.346.25-.016.001c-.02 0-.035-.003-.035.008l-.262-1.857.026-.007 2.318-.247h.017c.02 0 .034.002.035-.009l.289 1.856zM58.412 60.253a.55.55 0 0 0 .105-.43l-.336-1.898c-.056-.317-.38-.536-.733-.497l-2.318.247a.67.67 0 0 0-.464.252.55.55 0 0 0-.11.423l.308 1.9c.048.299.328.512.655.512a1 1 0 0 0 .08-.004l2.346-.251a.66.66 0 0 0 .467-.254m-.532-.362-2.347.251h-.014c-.027 0-.043-.006-.044.004l-.3-1.85.02-.004 2.318-.247.015-.001c.025 0 .043.006.041-.008l.329 1.851zM62.712 59.368l-.375-1.893c-.062-.312-.388-.53-.738-.49l-2.317.248a.67.67 0 0 0-.464.254.54.54 0 0 0-.103.426l.347 1.896c.054.295.336.505.66.505a1 1 0 0 0 .08-.005l2.346-.25c.19-.02.36-.114.465-.258a.55.55 0 0 0 .099-.433m-.63.074-2.346.251h-.014c-.031 0-.052-.01-.05.004l-.337-1.846q.006 0 .014-.002l2.316-.247h.015c.03 0 .051.01.05-.004l.365 1.843zM66.906 58.914l-.415-1.889c-.067-.308-.393-.52-.742-.483l-2.317.247a.66.66 0 0 0-.464.256.54.54 0 0 0-.095.43l.385 1.892c.06.29.343.498.665.498a1 1 0 0 0 .08-.004l2.346-.25a.65.65 0 0 0 .466-.26.54.54 0 0 0 .09-.437m-.624.08-2.345.25c-.034.004-.056-.005-.067-.005q-.005 0-.004.004l-.375-1.836.006-.001 2.318-.247.014-.001c.035 0 .058.012.056 0l.403 1.835zM68.126 59.416a1 1 0 0 0 .08-.004l2.345-.25a.65.65 0 0 0 .465-.262.54.54 0 0 0 .085-.441l-.454-1.884c-.073-.304-.4-.515-.747-.477l-2.317.248a.65.65 0 0 0-.463.258.53.53 0 0 0-.089.433l.425 1.887c.064.287.35.492.67.492m1.84-2.7q.007-.003.015-.002c.038 0 .065.016.063.006l.44 1.825-2.343.25c-.041.005-.068-.008-.076-.008q-.003 0-.003.002l-.411-1.827zM13.653 61.749a1 1 0 0 0 .077-.004l4.017-.43c.345-.036.62-.309.627-.62l.039-1.873a.52.52 0 0 0-.172-.4.65.65 0 0 0-.504-.154l-3.97.424c-.338.036-.615.303-.628.608l-.083 1.877a.53.53 0 0 0 .167.41.63.63 0 0 0 .43.162m.1-2.4a.12.12 0 0 1 .08-.04l3.958-.419-.033 1.77a.11.11 0 0 1-.077.039l-4.002.423zM22.47 60.25v-1.868a.53.53 0 0 0-.176-.395.65.65 0 0 0-.506-.153l-2.279.243c-.343.037-.616.308-.62.617l-.03 1.87a.53.53 0 0 0 .176.404.64.64 0 0 0 .507.155l2.306-.246c.348-.037.622-.312.622-.626m-.687.01-2.302.241.023-1.772a.1.1 0 0 1 .072-.035l2.276-.237.003 1.769a.1.1 0 0 1-.072.034M23.566 60.69a1 1 0 0 0 .078-.004l2.306-.247c.351-.038.622-.315.615-.632l-.036-1.865a.53.53 0 0 0-.183-.391.66.66 0 0 0-.505-.15l-2.28.242c-.346.038-.616.31-.615.622l.01 1.868c0 .154.064.295.18.399a.64.64 0 0 0 .43.158m.062-2.429 2.283-.237.04 1.767a.1.1 0 0 1-.067.032l-2.308.24-.015-1.77c.004-.007.029-.028.067-.032M27.667 60.25a1 1 0 0 0 .078-.003L30.05 60c.354-.038.622-.318.61-.638l-.075-1.86a.53.53 0 0 0-.188-.387.66.66 0 0 0-.505-.148l-2.279.244c-.35.037-.618.313-.61.627l.047 1.864c.003.151.07.292.186.394.114.1.268.155.43.155m.013-2.421 2.278-.244h.01l.077 1.771a.1.1 0 0 1-.062.029l-2.305.246h-.01l-.051-1.774c.005-.008.028-.025.063-.028M31.768 59.813a1 1 0 0 0 .078-.004l2.305-.247c.359-.038.624-.32.604-.643l-.112-1.857a.54.54 0 0 0-.194-.382.68.68 0 0 0-.505-.146l-2.279.244c-.352.038-.618.316-.604.633l.084 1.86c.007.15.075.288.192.389.117.1.27.153.431.153m-.035-2.418 2.278-.243h.017l.107 1.777a.1.1 0 0 1-.049.017l-2.305.247h-.016l-.08-1.78a.1.1 0 0 1 .048-.017M35.87 59.375a1 1 0 0 0 .078-.005l2.306-.246c.361-.04.623-.324.597-.65l-.149-1.851a.55.55 0 0 0-.2-.378.68.68 0 0 0-.503-.143l-2.279.243c-.356.038-.62.319-.598.639l.122 1.855c.01.15.08.286.198.385.115.098.268.15.428.15m-.085-2.413 2.28-.244h.023l.143 1.776a.1.1 0 0 1-.043.013l-2.306.247h-.023l-.116-1.779a.1.1 0 0 1 .042-.013M39.971 58.937a1 1 0 0 0 .078-.005l2.306-.246c.358-.039.623-.332.591-.655l-.187-1.848a.55.55 0 0 0-.205-.372.69.69 0 0 0-.503-.141l-2.279.243c-.359.038-.62.321-.592.644l.159 1.852a.55.55 0 0 0 .203.38c.117.095.27.148.43.148m-.133-2.408 2.278-.243a.1.1 0 0 1 .03 0l.18 1.773a.1.1 0 0 1-.037.01l-2.306.247a.1.1 0 0 1-.03 0l-.152-1.776a.1.1 0 0 1 .037-.011M44.072 58.498a1 1 0 0 0 .078-.004l2.306-.246a.7.7 0 0 0 .465-.248.55.55 0 0 0 .12-.413l-.224-1.845c-.04-.323-.352-.543-.714-.506l-2.278.243a.7.7 0 0 0-.417.194.56.56 0 0 0-.169.456l.198 1.847c.015.146.089.28.208.376a.67.67 0 0 0 .427.146m-.182-2.402 2.279-.244a.1.1 0 0 1 .036.003l.215 1.769a.1.1 0 0 1-.03.007l-2.306.247a.1.1 0 0 1-.036-.002l-.189-1.771a.1.1 0 0 1 .03-.009M48.17 58.06a1 1 0 0 0 .082-.004l2.306-.246a.68.68 0 0 0 .465-.25.55.55 0 0 0 .114-.416l-.262-1.84c-.046-.32-.36-.54-.719-.5l-2.278.242a.68.68 0 0 0-.462.246.55.55 0 0 0-.118.41l.235 1.843c.036.3.31.515.638.515m-.228-2.397 2.279-.243a.1.1 0 0 1 .043.004l.252 1.764-.024.005-2.306.246a.1.1 0 0 1-.043-.003l-.225-1.767q.009-.004.024-.006M52.271 57.623a1 1 0 0 0 .081-.005l2.306-.246a.67.67 0 0 0 .464-.252.55.55 0 0 0 .108-.42l-.3-1.837c-.052-.314-.369-.531-.724-.493l-2.278.244a.68.68 0 0 0-.462.248.54.54 0 0 0-.111.413l.272 1.839c.045.297.32.509.644.509m-.276-2.393 2.278-.244a.1.1 0 0 1 .05.006l.287 1.759-.018.003-2.306.247a.1.1 0 0 1-.05-.006l-.26-1.761zM56.373 57.184a1 1 0 0 0 .08-.004l2.306-.247a.66.66 0 0 0 .464-.254.54.54 0 0 0 .101-.423l-.337-1.832c-.057-.31-.378-.523-.727-.486l-2.279.244a.67.67 0 0 0-.462.25.54.54 0 0 0-.104.416l.31 1.836c.049.292.326.5.648.5m-.326-2.386 2.279-.243a.1.1 0 0 1 .056.007l.323 1.753-.012.002-2.305.246-.017.001c-.022 0-.037-.003-.036.01l-.3-1.774zM59.572 54a.53.53 0 0 0-.099.42l.348 1.832c.055.288.334.494.654.494a1 1 0 0 0 .08-.004l2.306-.247c.19-.02.36-.114.463-.256a.54.54 0 0 0 .095-.427l-.375-1.828c-.064-.306-.386-.516-.732-.48l-2.28.244a.66.66 0 0 0-.46.253m.527.365 2.279-.243.015-.001c.027 0 .045.006.044-.007l.362 1.765h-.004l-2.307.247h-.015c-.026 0-.045-.005-.043.009l-.336-1.769zM63.624 53.57a.53.53 0 0 0-.092.422l.385 1.828c.06.284.34.487.659.487a1 1 0 0 0 .08-.004l2.306-.247a.65.65 0 0 0 .463-.258.53.53 0 0 0 .088-.43l-.413-1.824c-.069-.302-.391-.511-.736-.473l-2.278.244a.65.65 0 0 0-.462.255m2.806.118h.015c.03 0 .053.01.05-.005l.399 1.758-2.304.246h-.014c-.032 0-.054-.01-.051.004l-.371-1.76z"/><path fill="#0A1640" d="M68.138 52.882a.64.64 0 0 0-.46.257.52.52 0 0 0-.086.427l.423 1.823c.07.304.398.515.743.476l2.263-.242.704 2.852c.07.283.357.485.675.485a1 1 0 0 0 .08-.004l2.345-.25a.64.64 0 0 0 .464-.263.54.54 0 0 0 .078-.445l-1.365-5.201c-.079-.3-.4-.496-.742-.461zm5.186.07q.008-.002.014-.002c.038 0 .065.015.063.003l1.347 5.135-2.337.25c-.043.005-.076-.013-.084-.013h-.002l-.768-3.114a.314.314 0 0 0-.334-.234l-2.532.27-.015.001c-.035 0-.06-.013-.058 0l-.406-1.751zM13.796 58.36a1 1 0 0 0 .077-.004l2.268-.242c.34-.036.614-.304.623-.608l.053-1.814a.5.5 0 0 0-.166-.395.64.64 0 0 0-.503-.154l-2.241.24c-.342.036-.61.293-.623.598l-.08 1.816a.51.51 0 0 0 .165.403c.11.104.263.16.427.16m.1-2.324a.12.12 0 0 1 .076-.036l2.222-.233-.044 1.694a.12.12 0 0 1-.075.037l-2.248.236zM17.927 57.92a1 1 0 0 0 .077-.005l2.268-.242c.344-.036.615-.306.618-.614l.015-1.809a.52.52 0 0 0-.172-.39.65.65 0 0 0-.503-.152l-2.241.24c-.34.036-.61.301-.618.604l-.042 1.812a.52.52 0 0 0 .17.398.63.63 0 0 0 .428.158m.058-2.324a.1.1 0 0 1 .07-.032l2.23-.234-.009 1.694a.1.1 0 0 1-.07.033l-2.254.237zM22.057 57.479a1 1 0 0 0 .078-.005l2.268-.242c.346-.037.615-.31.612-.62l-.022-1.806a.52.52 0 0 0-.178-.385.65.65 0 0 0-.502-.15l-2.241.24c-.342.036-.611.304-.612.61l-.005 1.808c0 .15.062.29.176.393a.63.63 0 0 0 .426.157m.023-2.33a.1.1 0 0 1 .058-.021l2.237-.234.027 1.692c-.005.007-.029.025-.065.03l-2.262.235zM25.762 56.883a.64.64 0 0 0 .504.15l2.268-.243c.35-.037.616-.312.606-.626l-.06-1.8a.52.52 0 0 0-.183-.381.66.66 0 0 0-.502-.148l-2.242.24c-.345.037-.612.307-.606.615l.032 1.804c.004.15.069.288.183.39m.459-2.191 2.24-.24h.003l.056 1.703a.1.1 0 0 1-.051.018l-2.27.237-.03-1.7a.1.1 0 0 1 .052-.018M29.893 56.443a.65.65 0 0 0 .505.148l2.267-.242c.354-.038.617-.315.6-.632l-.096-1.797a.53.53 0 0 0-.189-.376.67.67 0 0 0-.502-.145l-2.241.24c-.349.037-.612.31-.6.621l.069 1.8a.53.53 0 0 0 .187.383m.41-2.188 2.242-.24h.009l.091 1.703a.1.1 0 0 1-.044.014H32.6l-2.268.242-.008.001-.067-1.705a.1.1 0 0 1 .046-.015M34.026 56.005a.66.66 0 0 0 .503.145l2.268-.242c.357-.039.619-.32.594-.638l-.133-1.794a.54.54 0 0 0-.195-.37.68.68 0 0 0-.502-.143l-2.241.24c-.352.037-.614.312-.596.627l.107 1.796c.01.147.08.282.195.379m.36-2.186 2.241-.24h.017l.126 1.7a.1.1 0 0 1-.04.012l-2.267.242h-.015l-.102-1.703a.1.1 0 0 1 .04-.01M38.156 55.565a.67.67 0 0 0 .503.143l2.268-.242c.36-.039.62-.321.589-.644l-.17-1.79a.54.54 0 0 0-.2-.366.69.69 0 0 0-.502-.141l-2.242.24c-.355.037-.615.315-.589.633l.145 1.792a.54.54 0 0 0 .198.375m.313-2.182 2.241-.24h.022l.163 1.698a.1.1 0 0 1-.033.008l-2.268.243h-.021l-.137-1.701a.1.1 0 0 1 .033-.008M42.288 55.126a.68.68 0 0 0 .503.141l2.268-.242a.68.68 0 0 0 .462-.245.55.55 0 0 0 .119-.404l-.208-1.786c-.037-.319-.347-.538-.706-.5l-2.241.24c-.354.038-.615.325-.583.64l.182 1.787a.55.55 0 0 0 .204.369m.263-2.18 2.241-.24a.1.1 0 0 1 .03.001l.198 1.694-.027.007-2.268.242a.1.1 0 0 1-.029 0l-.172-1.697zM46.842 54.83a1 1 0 0 0 .08-.004l2.268-.243a.68.68 0 0 0 .462-.247.54.54 0 0 0 .113-.408l-.245-1.782c-.045-.314-.36-.53-.711-.492l-2.241.24a.68.68 0 0 0-.46.243.54.54 0 0 0-.117.402l.22 1.784c.036.296.306.507.63.507m-.208-2.32 2.241-.24a.1.1 0 0 1 .037.003l.232 1.69-.02.004-2.267.243a.1.1 0 0 1-.036-.002l-.208-1.693zM50.972 54.389a1 1 0 0 0 .081-.004l2.268-.243a.67.67 0 0 0 .462-.25.53.53 0 0 0 .107-.41l-.283-1.777c-.049-.31-.361-.525-.715-.487l-2.241.24a.67.67 0 0 0-.46.247.53.53 0 0 0-.11.404l.257 1.78c.04.291.312.5.634.5m-.256-2.315 2.241-.24a.1.1 0 0 1 .043.003l.268 1.685-.013.003-2.268.242a.1.1 0 0 1-.042-.003l-.243-1.688zM55.103 53.947a1 1 0 0 0 .08-.004l2.268-.243a.66.66 0 0 0 .462-.251.53.53 0 0 0 .1-.415l-.32-1.774c-.055-.306-.373-.516-.72-.479l-2.241.24a.67.67 0 0 0-.46.248.53.53 0 0 0-.104.408l.294 1.776c.048.29.322.494.641.494m-.305-2.31 2.242-.239a.1.1 0 0 1 .05.005l.302 1.68h-.006l-2.268.243a.1.1 0 0 1-.049-.005l-.278-1.683zM59.235 53.506a1 1 0 0 0 .08-.005l2.267-.242a.65.65 0 0 0 .462-.254.53.53 0 0 0 .094-.419l-.358-1.769c-.06-.302-.38-.51-.724-.472l-2.241.24a.66.66 0 0 0-.46.25.52.52 0 0 0-.097.412l.33 1.772c.054.284.33.486.647.486M58.88 51.2l2.24-.24a.1.1 0 0 1 .056.008l.338 1.673-2.267.242a.1.1 0 0 1-.056-.007zM63.366 53.064a1 1 0 0 0 .08-.004l2.267-.242c.19-.02.36-.114.461-.257a.52.52 0 0 0 .088-.422l-.395-1.765c-.067-.298-.388-.501-.728-.466l-2.242.24a.65.65 0 0 0-.459.252.52.52 0 0 0-.091.416l.368 1.768c.059.281.336.48.65.48m1.84-2.538a.1.1 0 0 1 .061.01l.373 1.666-2.26.241h-.017c-.025 0-.043-.004-.041.01l-.353-1.689zM66.842 52.15c.063.276.343.473.656.473a1 1 0 0 0 .08-.004l5.505-.589a.64.64 0 0 0 .46-.259.51.51 0 0 0 .075-.429l-.46-1.758c-.079-.295-.395-.49-.736-.454l-5.441.581a.64.64 0 0 0-.46.256.52.52 0 0 0-.084.418zm5.646-2.402h.016c.033 0 .057.009.054-.006l.44 1.674c-.364.04-5.454.583-5.486.586l-.016.001c-.03 0-.051-.008-.05.006l-.386-1.681z"/><path fill="#00D4FC" d="m59.354 85.095-25.077 2.677c-.561.062-1.033-.31-1.058-.827l-.075-1.582-.465-9.844c-.025-.466.385-.885.913-.94l23.644-2.526c.527-.059 1.016.269 1.092.727l1.623 9.72.262 1.56c.086.51-.3.973-.859 1.035"/><path fill="#3C1DA1" d="m59.355 85.095-25.077 2.677c-.562.062-1.034-.31-1.058-.827l-.075-1.582L59.95 82.5l.262 1.56c.086.51-.3.973-.858 1.035" opacity=".25"/><path fill="#0A1640" d="M34.158 88.089c-.313 0-.613-.107-.841-.302a1.15 1.15 0 0 1-.407-.828l-.54-11.425c-.033-.624.501-1.192 1.19-1.264l23.643-2.525c.687-.075 1.33.365 1.431.985l1.885 11.28c.053.316-.025.631-.22.89a1.32 1.32 0 0 1-.91.503h-.002L34.31 88.08q-.076.009-.152.009m23.198-15.733a1 1 0 0 0-.086.005l-23.645 2.526c-.36.038-.652.32-.636.616l.54 11.427c.007.15.075.287.19.386a.7.7 0 0 0 .524.148l25.079-2.677a.7.7 0 0 0 .482-.261.53.53 0 0 0 .102-.413l-1.885-11.281c-.044-.272-.339-.475-.665-.475"/><path fill="#00D4FC" d="m98.55 30.196 6.368 1.873c.387.114.61.524.496.91l-3.188 10.838a.735.735 0 0 1-.91.496l-6.371-1.875a1.076 1.076 0 0 1-.729-1.336l2.994-10.176c.168-.571.768-.899 1.34-.73"/><path fill="#3C1DA1" d="M104.918 32.07c.387.113.61.523.496.909l-3.188 10.838a.735.735 0 0 1-.91.496l-6.371-1.875a1.076 1.076 0 0 1-.729-1.336 1.875 1.875 0 0 1 2.328-1.27l2.112.621a1.82 1.82 0 0 0 2.258-1.23l1.741-5.92a1.82 1.82 0 0 1 2.263-1.234" opacity=".25"/><path fill="#D811AD" d="m105.416 32.979-3.193 10.836a.723.723 0 0 1-.908.496l-2.495-.733.923-3.151 2.675-9.09 2.502.734a.737.737 0 0 1 .496.908"/><path fill="#fff" d="M97.158 37.644c.02-.53.1-1.044.2-1.551.097-.509.228-1.006.366-1.502.149-.493.305-.984.497-1.464.187-.481.396-.957.663-1.415a.31.31 0 0 1 .58.172 10 10 0 0 1-.208 1.548c-.1.508-.234 1.005-.376 1.5-.153.492-.312.981-.506 1.46-.19.481-.402.956-.67 1.413a.294.294 0 0 1-.546-.16" opacity=".75"/><path fill="#0A1640" d="m105.416 32.98-3.193 10.836a.723.723 0 0 1-.908.496l-2.495-.734.923-3.151a1.78 1.78 0 0 0 1.166-1.202l1.747-5.925a1.816 1.816 0 0 1 2.264-1.23.737.737 0 0 1 .496.91" opacity=".25"/><path fill="#0A1640" d="M105.626 32.273a1.04 1.04 0 0 0-.621-.501l-6.368-1.874a1.38 1.38 0 0 0-1.058.113 1.38 1.38 0 0 0-.668.828l-2.993 10.176a1.38 1.38 0 0 0 .112 1.055c.177.325.47.562.826.667l6.372 1.874a1.03 1.03 0 0 0 .793-.086c.245-.133.423-.354.501-.62l3.189-10.838a1.03 1.03 0 0 0-.085-.794m-11.051 9.5a.76.76 0 0 1-.062-.583l2.994-10.176a.77.77 0 0 1 .955-.52l3.572 1.05-3.427 11.649-3.575-1.051a.77.77 0 0 1-.457-.369m7.353 1.957a.422.422 0 0 1-.524.286l-2.202-.648 3.427-11.649 2.202.648a.42.42 0 0 1 .251.204.4.4 0 0 1 .036.321z"/><path fill="#845EF9" d="m126.276 43.603-6.839 7.212a1.245 1.245 0 0 1-1.76.047l-4.429-4.2a1.244 1.244 0 0 1-.047-1.76l6.839-7.212a1.244 1.244 0 0 1 1.759-.046l4.429 4.2c.501.474.521 1.26.048 1.76"/><path fill="#0A1640" d="m126.276 43.603-6.839 7.212a1.245 1.245 0 0 1-1.76.047l-4.429-4.2a1.244 1.244 0 0 1-.047-1.76l.033-.035a7.2 7.2 0 0 0 1.967.675c2.439.446 4.968-.5 6.946-1.994 1.081-.818 2.026-1.786 2.901-2.823l1.18 1.12c.501.473.521 1.26.048 1.758" opacity=".25"/><path fill="#0A1640" d="M118.533 51.514c-.4 0-.778-.151-1.069-.427l-4.429-4.2a1.556 1.556 0 0 1-.058-2.198l6.84-7.212a1.54 1.54 0 0 1 1.086-.484c.418-.01.809.14 1.111.426l4.429 4.2c.301.287.474.672.484 1.087s-.14.81-.426 1.111l-6.84 7.212a1.54 1.54 0 0 1-1.087.484zm2.411-13.902h-.025a.92.92 0 0 0-.652.292l-6.84 7.211a.934.934 0 0 0 .035 1.32l4.429 4.201a.9.9 0 0 0 .667.257.93.93 0 0 0 .653-.292l6.839-7.211a.93.93 0 0 0-.035-1.32l-4.429-4.202a.93.93 0 0 0-.642-.256"/><path fill="#3C1DA1" d="m121.135 44.223 1.021.968a.326.326 0 0 0 .461-.012l.758-.799a.327.327 0 0 0-.012-.46l-1.021-.97a.327.327 0 0 0-.462.013l-.757.799a.326.326 0 0 0 .012.461"/><path fill="#0A1640" d="M122.38 45.59a.64.64 0 0 1-.438-.174l-1.021-.968h-.001a.64.64 0 0 1-.024-.9l.758-.798a.634.634 0 0 1 .9-.023l1.021.968a.63.63 0 0 1 .024.898l-.757.799a.63.63 0 0 1-.462.198m-1.031-1.592 1.021.969.78-.8-1.022-.99-.779.799-.214.247z"/><path fill="#3C1DA1" d="m118.675 41.89 1.021.968a.327.327 0 0 0 .462-.012l.757-.799a.327.327 0 0 0-.012-.46l-1.021-.97a.33.33 0 0 0-.462.013l-.757.798a.326.326 0 0 0 .012.461"/><path fill="#0A1640" d="M119.919 43.258a.63.63 0 0 1-.437-.175l-1.021-.968a.637.637 0 0 1-.024-.9l.757-.798a.64.64 0 0 1 .9-.024l1.021.968a.64.64 0 0 1 .024.9l-.758.798a.63.63 0 0 1-.445.199zm-1.032-1.593 1.022.968.78-.8-1.022-.99-.78.799-.213.247z"/><path fill="#D811AD" d="m122.613 50.166-17.279 18.22c-.257.27-.637.39-1.001.311a11.3 11.3 0 0 1-5.468-2.9 11.3 11.3 0 0 1-3.05-5.178 1.07 1.07 0 0 1 .258-1.016l17.279-18.22a1.08 1.08 0 0 1 1.524-.038l7.694 7.297c.434.41.452 1.093.043 1.524"/><path fill="#00D4FC" d="m122.613 50.166-15.412 16.25q-.055-.007-.111-.017-.094-.02-.192-.045a12.05 12.05 0 0 1-5.665-3.063 12.14 12.14 0 0 1-3.274-5.551l-.02-.107 15.412-16.249c.13-.138.292-.234.465-.286a1.06 1.06 0 0 1 1.058.245l.003.003 7.694 7.294c.431.413.452 1.096.042 1.526"/><path fill="#3C1DA1" d="M101.505 57.509a2.115 2.115 0 0 0-.086 2.808c1.186 1.433 2.764 2.639 4.38 3.487a2.206 2.206 0 0 1 1.099 2.55 12.05 12.05 0 0 1-5.665-3.064 12.14 12.14 0 0 1-3.274-5.55l-.02-.107 15.412-16.25c.13-.137.292-.234.465-.285a1.07 1.07 0 0 1 1.058.244l.003.004c.293.279.441.65.441 1.03 0 .351-.127.703-.389.978z" opacity=".25"/><path fill="#fff" d="M119.928 49.886a13 13 0 0 1-1.057 1.47c-.374.468-.775.912-1.18 1.352a25 25 0 0 1-1.28 1.257c-.443.404-.903.792-1.407 1.138a.31.31 0 0 1-.439-.416c.319-.521.682-1 1.062-1.465.376-.466.78-.908 1.188-1.345.417-.428.839-.852 1.287-1.25.446-.403.907-.789 1.412-1.133a.291.291 0 0 1 .414.392" opacity=".75"/><path fill="#0A1640" d="M123.129 49.914a1.4 1.4 0 0 0-.162-1.283h-.001l-.007-.01a1.4 1.4 0 0 0-.176-.205l-7.698-7.3c-.046-.043-.095-.076-.144-.112a1.4 1.4 0 0 0-.204-.12c-.032-.016-.067-.039-.098-.05h-.004a1.4 1.4 0 0 0-.409-.085q-.033-.004-.067-.005-.031-.003-.062-.005a1.4 1.4 0 0 0-.353.06q-.009 0-.018.002-.016.007-.03.013-.134.044-.254.114-.03.017-.061.035-.137.086-.251.203l-.005.005L97.713 57.42q-.002.002-.003.005l-1.863 1.965c-.33.349-.458.85-.333 1.31a11.6 11.6 0 0 0 3.135 5.322A11.54 11.54 0 0 0 104.266 69q.142.03.285.03c.375 0 .742-.154 1.007-.431l8.899-9.383 8.379-8.835c.133-.14.23-.3.293-.468m-.742.038-7.867 8.296-7.43 7.833-.125-.03a11.7 11.7 0 0 1-5.518-2.983 11.8 11.8 0 0 1-3.17-5.339l15.3-16.132a.8.8 0 0 1 .209-.148 1 1 0 0 1 .076-.035.8.8 0 0 1 .161-.036c.042-.006.084-.017.126-.017a.8.8 0 0 1 .251.048q.01.002.018.003l.001.001a.8.8 0 0 1 .238.152l.006.005 1.652 1.566 6.042 5.73a.8.8 0 0 1 .133.188.752.752 0 0 1-.103.898m-17.279 18.22a.77.77 0 0 1-.712.222 10.93 10.93 0 0 1-5.317-2.819 11 11 0 0 1-2.967-5.038.76.76 0 0 1 .185-.72l1.49-1.57a12.4 12.4 0 0 0 3.229 5.267 12.3 12.3 0 0 0 5.583 3.085z"/><path fill="#FFCE00" d="m111.491 52.92-.862 2.782a.23.23 0 0 0 .039.21l1.803 2.287a.23.23 0 0 1-.177.372l-2.912.04a.23.23 0 0 0-.188.101l-1.618 2.422a.23.23 0 0 1-.409-.054l-.938-2.757a.23.23 0 0 0-.155-.146l-2.803-.79a.23.23 0 0 1-.075-.406l2.332-1.744a.23.23 0 0 0 .092-.193l-.115-2.91a.23.23 0 0 1 .362-.197l2.379 1.68a.23.23 0 0 0 .212.028l2.732-1.008a.23.23 0 0 1 .301.283"/><path fill="#0A1640" d="M107.386 61.546a.535.535 0 0 1-.513-.367l-.924-2.717-2.762-.778a.54.54 0 0 1-.384-.421.54.54 0 0 1 .208-.531l2.298-1.719-.112-2.868a.537.537 0 0 1 .85-.462l2.345 1.656 2.692-.994a.54.54 0 0 1 .558.115c.15.142.206.353.145.55l-.85 2.742 1.777 2.254a.54.54 0 0 1-.416.874l-2.87.04-1.594 2.386a.54.54 0 0 1-.448.24m-3.874-4.415 2.646.746a.54.54 0 0 1 .365.346l.885 2.603 1.527-2.287a.54.54 0 0 1 .442-.24l2.749-.037-1.702-2.159a.54.54 0 0 1-.093-.493l.814-2.627-2.579.952a.54.54 0 0 1-.499-.066l-2.245-1.585.108 2.748a.54.54 0 0 1-.215.453zm4.913-3.769q.002 0 0 0"/><path fill="#00D4FC" d="m118.296 117.908-1.062 3.334a3.496 3.496 0 0 1-6.794-1.544l.483-3.465a3.494 3.494 0 0 1 4.234-2.927l.584.133q.185.04.361.104a3.493 3.493 0 0 1 2.194 4.365"/><path fill="#3C1DA1" d="m118.295 117.907-1.062 3.334a3.495 3.495 0 0 1-6.27.826c2.185-1.502 3.702-3.891 4.559-6.419q.35-1.037.58-2.106a3.49 3.49 0 0 1 2.193 4.365" opacity=".25"/><path fill="#0A1640" d="M113.919 123.986q-.427 0-.859-.097a3.78 3.78 0 0 1-2.358-1.654 3.8 3.8 0 0 1-.57-2.579l.484-3.467a3.81 3.81 0 0 1 1.604-2.606 3.81 3.81 0 0 1 3.006-.58l.584.132c.143.033.273.07.398.114 1.937.661 3.008 2.793 2.383 4.752l-1.062 3.334a3.79 3.79 0 0 1-3.61 2.651m.467-10.457c-.642 0-1.277.195-1.813.565a3.15 3.15 0 0 0-1.343 2.181l-.483 3.466a3.2 3.2 0 0 0 .476 2.159 3.17 3.17 0 0 0 1.974 1.384 3.17 3.17 0 0 0 3.741-2.137l1.062-3.333c.522-1.64-.373-3.424-1.997-3.978q-.163-.059-.33-.095l-.584-.133a3.2 3.2 0 0 0-.703-.079"/><path fill="#00D4FC" d="m60.85 104.856-.484 3.466a3.497 3.497 0 0 0 6.793 1.543l1.062-3.334a3.494 3.494 0 0 0-2.554-4.469l-.584-.133a3.493 3.493 0 0 0-4.234 2.927"/><path fill="#3C1DA1" d="m60.85 104.856-.484 3.466a3.497 3.497 0 0 0 5.298 3.453c-1.321-2.298-1.657-5.109-1.338-7.759.087-.725.219-1.44.386-2.149a3.493 3.493 0 0 0-3.863 2.989" opacity=".25"/><path fill="#0A1640" d="M63.834 112.608q-.425 0-.847-.096a3.786 3.786 0 0 1-2.928-4.233l.484-3.466c.283-2.036 2.169-3.496 4.207-3.254q.185.018.402.068l.585.132c1.036.236 1.933.9 2.46 1.823s.644 2.032.321 3.044l-1.062 3.334a3.81 3.81 0 0 1-3.622 2.648m.476-10.455a3.2 3.2 0 0 0-3.153 2.746l-.484 3.466a3.17 3.17 0 0 0 2.45 3.543 3.189 3.189 0 0 0 3.741-2.138l1.062-3.333a3.15 3.15 0 0 0-.268-2.547 3.19 3.19 0 0 0-2.06-1.526l-.583-.133a3.105 3.105 0 0 0-.705-.078"/><path fill="#A7D640" d="M59.872 105.995a226.4 226.4 0 0 0 58.814 13.362 6.06 6.06 0 0 0 6.453-4.69l4.402-19.376a6.06 6.06 0 0 0-3.793-7.018 226.4 226.4 0 0 0-58.814-13.362 6.06 6.06 0 0 0-6.452 4.69l-4.403 19.376a6.06 6.06 0 0 0 3.793 7.018"/><path fill="#0A1640" d="M129.685 93.8a6 6 0 0 0-.059-.733l-.76.577-1.382-1.82 1.326-1.007a6 6 0 0 0-.347-.515l-1.354 1.028-1.382-1.82 1.005-.763a6 6 0 0 0-.612-.314l-.768.583-.654-.861-.274-.361q-.766-.28-1.533-.557l-1.609 1.222-1.382-1.82.403-.307-.705-.243-.074.055-.083-.11q-.525-.18-1.051-.358l.64.844-1.82 1.382-1.382-1.82 1.143-.868-.717-.234-.8.607-.868-1.144q-.864-.268-1.73-.532l-1.473 1.118-1.382-1.82.144-.11q-.644-.188-1.287-.373l.275.363-1.82 1.382-1.382-1.82.717-.543q-.378-.104-.755-.206l-.337.255-.331-.436c-.327-.087-.653-.18-.98-.266l.09.119.728.958-.863.655-.958.727-.654-.861-.728-.959.959-.727.272-.206q-.384-.098-.769-.195l-.836.635-.796-1.049-.953-.228 1.254 1.652-1.82 1.382-1.382-1.82 1.682-1.277-.782-.184-1.275.966-1.164-1.533q-.63-.139-1.259-.275l-1.647 1.25-1.382-1.82.075-.057-1.058-.213.114.15-1.82 1.382-1.382-1.82.326-.247q-.75-.141-1.501-.276l.307.403-1.82 1.382-1.382-1.82.502-.381q-.42-.072-.841-.14l-.037.027-.029-.038q-.446-.075-.89-.148l.426.562-1.82 1.382-.654-.863-.728-.958.603-.458-.857-.128-.121.092-.094-.124c-.292-.042-.584-.09-.878-.131l.478.63-.959.727-.862.654-1.382-1.82.623-.473q-.436-.058-.874-.115l-.124.094-.093-.123c-.288-.036-.576-.076-.864-.112l.463.61-1.82 1.382-1.382-1.82.558-.424c-.297-.033-.594-.07-.89-.102l-.043.032-.03-.04-.849-.093.385.507-1.82 1.382-1.382-1.82.404-.306c-.335-.032-.67-.069-1.006-.1a6 6 0 0 0-.5-.021l.234.308-1.82 1.382-.893-1.177a6 6 0 0 0-.564.282l.962 1.27-1.82 1.381-.883-1.164q-.201.254-.375.531l.765 1.008-1.638 1.243-.245 1.08 1.326 1.748-.862.654-.96.727-.166-.22-.309 1.36.356-.27 1.382 1.82-1.82 1.381-.449-.592-.18.79.135.178-.211.16-.214.94.8-.607 1.383 1.82-1.82 1.382-.733-.965-.18.79.419.55-.656.497-.214.94 1.245-.945.654.863.727.958-1.82 1.382-.655-.862-.36-.475-.18.79.7.922-1.099.834-.214.94 1.688-1.281 1.383 1.82-1.82 1.381-1.298-1.71-.054.24a6 6 0 0 0-.103.58l.96 1.265-.888.673q.065.332.165.654l1.098-.833 1.382 1.82-1.371 1.041q.198.239.422.457l1.323-1.004 1.382 1.821-.667.506q.044.02.09.039c.199.074.4.143.6.218l.353-.269.416.549q.537.197 1.075.39l-.997-1.314 1.82-1.381 1.382 1.82-1.494 1.134.698.248 1.17-.888 1.329 1.749q.524.18 1.05.357l-.127-.166 1.82-1.382.727.959.654.862-.673.511c.24.077.478.158.717.234l.331-.251.354.466q.507.157 1.016.312L71.219 109l1.82-1.382 1.382 1.82-1.34 1.018q.364.113.73.224l.986-.749 1.013 1.335q.735.216 1.472.426l1.586-1.204 1.382 1.82-.194.147c.455.123.909.251 1.365.37l-.303-.398.959-.727.862-.655 1.382 1.821-.687.522.768.195.294-.223.28.369q.476.114.952.228l-.737-.972 1.82-1.382 1.383 1.821-1.12.85q.39.093.782.184l.713-.541.646.852q.466.103.933.204l-.357-.471-.728-.959 1.82-1.381.728.958.654.862-1.488 1.13q.399.088.797.173l1.065-.809.929 1.223.918.185-1.353-1.783 1.82-1.382 1.382 1.821-1.786 1.356c.27.054.54.111.81.163l1.351-1.026 1.134 1.493c.457.084.914.171 1.372.253l1.565-1.188 1.267 1.668c.366.06.732.125 1.099.183l1.705-1.294 1.33 1.753c.325.048.649.1.974.146l.904-.687.863-.654 1.329 1.751q.5.066 1.001.128l1.74-1.322.727.959.539.71 1.178.124 1.626-1.235 1.145 1.507c.094.008.188.02.282.028.482.043.955.023 1.415-.044l1.23-.933.359.474q.29-.129.563-.284l-.429-.565 1.82-1.382.342.451q.2-.257.373-.534l-.221-.292.636-.483q.22-.498.349-1.043l-1.36 1.032-1.382-1.821 1.821-1.382 1.09 1.437.18-.79-.776-1.022.862-.654.357-.27.213-.941-.848.644-.958.728-.654-.862-.728-.959.959-.727.862-.654.727.958.646.851.18-.79-.404-.532-.654-.862 1.662-1.262.237-1.043-1.341-1.767 1.82-1.382.182.239.317-1.396-.38.288-1.382-1.82 1.82-1.383.465.613.179-.79-.149-.197.235-.179.214-.94-.824.625-1.382-1.82 1.82-1.381.747.984.047-.205q.069-.31.105-.62l-.405-.534zm-3.069-2.096-1.82 1.382-1.382-1.82 1.82-1.382zm-5.102 22.111-1.821 1.382-.653-.862-.728-.959 1.82-1.382.654.862zm-25.313-5.541 1.82-1.382.653.862.728.958-1.82 1.382-.654-.862zm-18.111-1.622-.863.654-1.382-1.82.862-.654.96-.727 1.38 1.82zm29.998-18.345.863-.654 1.382 1.82-.863.655-.958.727-1.382-1.82zm11.826 15.779-.862.654-1.382-1.82.959-.728.862-.654 1.382 1.821zm-21.4 2.431.96-.727.861-.654.728.958.654.863-.862.654-.959.727-.653-.862zM71.38 86.212l-1.82 1.382-.654-.863-.727-.958 1.82-1.382.654.862zm24.425 3.345-1.82 1.382-.654-.862-.727-.958 1.82-1.382.654.862zm15.797 3.379.862-.654 1.382 1.82-.862.655-.958.727-1.382-1.82zm4 3.48-.959.727-.861.654-.727-.959-.655-.862.862-.654.959-.728.654.862zm2.555 5.356-.862.654-1.382-1.82.862-.654.959-.728 1.382 1.82zm-22.668-1.032-.863.654-1.382-1.82.958-.728.862-.654 1.383 1.82zm-14.457-2.838 1.82-1.382.654.862.727.959-1.82 1.382-.655-.863zm-14.768-7.029.863-.655 1.382 1.82-.959.728-.862.654-1.382-1.82zm1.357-1.03 1.82-1.381 1.382 1.82-1.82 1.382zm.4 3.344.862-.654 1.382 1.82-.862.656-.959.727-1.382-1.82zm1.356-1.029 1.82-1.381 1.382 1.82-1.82 1.382zm2.314-1.757 1.82-1.382 1.382 1.821-1.82 1.382zm1.263 2.69 1.382 1.82-1.82 1.382-1.382-1.82zm.494-.375 1.82-1.382 1.382 1.82-1.82 1.382zm17.728.354-.958.728-.862.654-.728-.959-.654-.862.862-.655.958-.727.654.862zm2.251 1.94-1.382-1.82 1.821-1.383 1.382 1.821zm2.196-.888 1.382 1.82-1.821 1.382-1.381-1.82zm-2.69 1.262-.862.654-.958.728-1.382-1.82.958-.728.863-.654zm-4.725-1.42.655.863-1.82 1.382-.727-.959-.655-.862 1.82-1.382zm-2.923-.07-1.382-1.82 1.82-1.382 1.382 1.82zm-.494.375-1.82 1.382-1.382-1.82 1.82-1.382zm-3.576-.932-1.382-1.821 1.82-1.382 1.382 1.82zm-.494.375L78.9 95.094l-1.382-1.821 1.82-1.382zm-3.578-.933-1.38-1.82 1.82-1.382 1.38 1.82zm-.118.87 1.382 1.82-1.82 1.382-1.382-1.82zm1.756 2.313 1.381 1.82-1.82 1.382-1.382-1.82zm.494-.374 1.82-1.382 1.382 1.82-1.82 1.382zm4.799 1.516-.728-.959 1.82-1.382.728.959.654.862-1.82 1.382zm2.85-.027 1.381 1.82-1.82 1.382-1.382-1.82zm.493-.374 1.82-1.382 1.382 1.82-1.82 1.382zm3.577.932 1.382 1.82-1.82 1.382-1.382-1.82zm.494-.375.862-.654.959-.727 1.382 1.82-.959.728-.861.653zm4.07.558 1.821-1.382 1.382 1.82-1.82 1.383zm15.909 1.736-.727-.958-.654-.863 1.82-1.382.727.959.654.862zm2.196-.887 1.382 1.82-1.82 1.382-1.382-1.82zm-3.344.4.655.862-1.82 1.382-.654-.862-.727-.958 1.82-1.382zm-2.922-.07-1.382-1.82 1.82-1.382 1.382 1.82zm-.494.375-1.821 1.382-1.382-1.82 1.821-1.382zm-3.577-.933-1.382-1.82 1.82-1.382 1.382 1.82zm-.494.375-1.82 1.382-1.382-1.82 1.82-1.382zm-3.577-.932-1.382-1.82 1.82-1.382 1.382 1.82zm-.12.869 1.383 1.82-1.82 1.382-1.382-1.82zm1.757 2.314 1.382 1.82-1.82 1.382-1.382-1.82zm.494-.376 1.82-1.381 1.382 1.82-1.82 1.382zm3.577.933.654.862.728.958-1.82 1.382-.728-.958-.654-.863zm1.222.584-.728-.959 1.821-1.382.654.862.727.959-1.82 1.382zm2.849-.026 1.382 1.82-1.82 1.382-1.382-1.82zm.494-.375 1.821-1.382 1.381 1.82-1.82 1.382zm3.577.932 1.382 1.82-1.82 1.382-1.382-1.82zm.494-.374 1.821-1.382 1.382 1.82-1.82 1.382zm3.577.932 1.382 1.82-1.82 1.382-1.382-1.82zm1.052-4.446 1.82-1.382 1.382 1.82-1.821 1.382zm-.376-.494-1.382-1.82 1.821-1.382 1.382 1.82zm-.493.375-.863.655-.958.727-1.382-1.82.958-.727.863-.654zm-5.828-2.872-1.82 1.382-1.382-1.82 1.82-1.382zm-3.577-.932-1.382-1.82 1.82-1.382 1.382 1.82zm-.494.375-1.82 1.382-1.382-1.82 1.82-1.382zm-3.577-.932-1.382-1.82 1.82-1.383 1.382 1.82zm-.493.374-1.821 1.382-1.382-1.82 1.821-1.382zm-3.577-.932-1.382-1.82 1.82-1.382 1.382 1.82zm-.494.374-1.82 1.382-1.382-1.82 1.82-1.382zm-3.578-.931-1.382-1.821 1.82-1.382 1.383 1.82zm-2.977-2.899.727.959-1.82 1.382-.655-.862-.727-.959 1.82-1.382zm-2.85.026-1.382-1.82 1.82-1.383 1.383 1.82zm-.494.375-.862.654-.959.728-1.381-1.82.958-.728.863-.654zm-2.715-1.587-.862.655-1.382-1.821.862-.655.958-.727 1.382 1.82zm-1.356 1.03-1.82 1.382-1.382-1.82 1.82-1.383zm-3.577-.933-1.381-1.82 1.82-1.382 1.382 1.82zm-.494.375-1.82 1.38-1.382-1.82 1.82-1.381zm-3.576-.932-1.382-1.821 1.82-1.382 1.382 1.82zm-.494.374-1.82 1.382-1.382-1.82 1.82-1.382zm-3.578-.933-1.381-1.82 1.82-1.382 1.382 1.82zm-.493.376-1.82 1.382-1.382-1.82 1.82-1.382zm-4.799-1.517.727.959-1.82 1.381-.727-.958-.654-.863 1.82-1.381zm-2.85.026-1.381-1.82 1.82-1.382 1.382 1.82zm.609 1.827.654.863-.958.727-.862.654-.727-.959-.654-.862.862-.654.959-.727zm.097 4.934-1.82 1.382-1.382-1.82 1.82-1.382zm.375.494 1.382 1.82-1.82 1.382-1.382-1.82zm1.757 2.314 1.382 1.82-1.82 1.382-1.383-1.82zm.494-.375.862-.654.958-.727 1.382 1.82-.958.727-.863.654zm2.715 1.587.862-.655 1.382 1.82-.862.655-.958.727-1.382-1.82zm1.355-1.03 1.82-1.381 1.382 1.82-1.82 1.382zm3.577.933 1.382 1.82-1.82 1.382-1.382-1.82zm1.757 2.314.727.959.655.862-1.82 1.382-.728-.958-.654-.863zm1.148.487-.654-.862 1.82-1.382.654.862.727.959-1.82 1.381zm2.923.071 1.381 1.82-1.82 1.381-1.382-1.82zm.494-.375 1.82-1.382 1.382 1.82-1.82 1.382zm3.576.933 1.382 1.82-1.82 1.382-1.382-1.821zm.494-.376 1.82-1.382 1.382 1.821-1.82 1.382zm3.578.933 1.381 1.82-1.82 1.382-1.382-1.82zm.493-.375 1.82-1.382 1.382 1.82-1.82 1.382zm3.578.933 1.382 1.82-1.82 1.382-1.382-1.82zm.494-.375.958-.727.862-.654 1.382 1.82-.861.654-.959.727zm2.618 1.659.959-.727 1.382 1.82-.959.728-.862.653-1.382-1.82zm3.863 2.075-.654-.862 1.82-1.382.727.958.654.862-1.82 1.382zm2.923.07 1.382 1.82-1.82 1.382-1.382-1.82zm.494-.375 1.82-1.382 1.382 1.82-1.82 1.382zm3.577.933 1.382 1.82-1.82 1.382-1.382-1.82zm.493-.375 1.821-1.382 1.382 1.82-1.821 1.382zm3.577.932 1.382 1.821-1.82 1.382-1.382-1.821zm.494-.375 1.82-1.382 1.382 1.821-1.82 1.382zm3.578.933 1.382 1.82-1.82 1.382-1.382-1.82zm.494-.375 1.82-1.382 1.382 1.82-1.82 1.382zm2.871-5.827 1.82-1.382 1.382 1.82-1.82 1.382zm.558-4.071 1.82-1.382 1.382 1.82-1.82 1.382zm.557-4.072 1.82-1.382 1.382 1.821-1.82 1.382zm.888 2.197-1.821 1.381-1.381-1.82 1.82-1.382zm-3.577-.933-.654-.862-.727-.958 1.82-1.382.727.958.654.862zm-1.221-.584.727.959-1.82 1.382-.654-.862-.727-.959 1.82-1.382zm-2.849.026-1.382-1.82 1.82-1.382 1.382 1.82zm-1.757-2.315-1.381-1.82 1.82-1.382 1.381 1.82zm-.494.376-.958.727-.863.655-1.382-1.82.863-.654.958-.728zm-4.071-.558-1.82 1.382-1.382-1.82 1.82-1.381zm-3.577-.933-1.382-1.82 1.82-1.382 1.382 1.82zm-.494.376-1.82 1.382-1.382-1.82 1.82-1.382zm-3.577-.933-1.382-1.82 1.82-1.383 1.382 1.82zm-.494.374-1.82 1.382-1.382-1.82 1.82-1.382zm-3.577-.932-.654-.861-.727-.959 1.82-1.381.727.959.654.862zm-1.756-2.314-1.382-1.82 1.82-1.382 1.382 1.82zm-.494.375-1.821 1.382-1.382-1.821 1.82-1.382zm-3.578-.933-1.382-1.82 1.821-1.382 1.382 1.82zm-.494.375-1.82 1.382-1.382-1.82 1.82-1.382zm-3.576-.933-1.382-1.82 1.82-1.382 1.382 1.82zm-.494.376-.862.654-.959.727-1.382-1.82.959-.727.862-.654zm-2.715-1.587-.862.655-1.382-1.821.862-.655.959-.727 1.381 1.82zm-1.356 1.03-1.82 1.38-1.382-1.82 1.82-1.382zm-3.577-.934-1.382-1.82 1.82-1.38 1.382 1.82zm-.494.376-1.82 1.382-1.382-1.82 1.821-1.382zm-3.577-.933-.727-.959-.654-.862 1.82-1.382.727.959.654.862zm-1.148-.487.654.862-1.82 1.382-.655-.862-.727-.959 1.82-1.381zm-2.922-.07-1.382-1.82 1.82-1.383 1.382 1.82zm-.494.374-1.82 1.382-1.382-1.82 1.82-1.382zm-3.578-.932-1.382-1.82 1.821-1.382 1.382 1.82zm-.494.374-1.82 1.382-1.382-1.82 1.82-1.382zm-.557 4.072-.862.653-.959.728-1.382-1.82.862-.654.959-.728zm-1.212 3.209.654.862-1.82 1.382-.654-.863-.728-.958 1.82-1.382zm.097 4.932-1.82 1.382-1.383-1.82 1.82-1.382zm-.558 4.071-1.82 1.382-1.382-1.82 1.82-1.382zm-.888-2.195 1.821-1.382 1.382 1.82-1.82 1.382zm3.577.932 1.382 1.82-1.821 1.382-1.382-1.82zm1.757 2.315 1.382 1.82-1.82 1.382-1.382-1.82zm.494-.375 1.82-1.382 1.382 1.82-1.82 1.382zm3.576.932 1.382 1.82-1.82 1.382-1.382-1.82zm.494-.375.863-.654.958-.727 1.382 1.82-.959.727-.862.654zm2.716 1.587.86-.655.728.959.655.862-.862.655-.959.727-.654-.862-.727-.959zm3.112 1.285 1.82-1.382 1.382 1.82-1.82 1.382zm3.577.932 1.382 1.821-1.82 1.382-1.382-1.821zm.494-.375 1.82-1.381 1.382 1.821-1.82 1.381zm3.577.934 1.382 1.82-1.82 1.381-1.382-1.82zm.494-.375 1.82-1.382 1.382 1.82-1.82 1.382zm3.577.932 1.382 1.82-1.82 1.382-1.382-1.82zm.494-.375 1.82-1.382 1.382 1.82-1.82 1.382zm3.576.933 1.382 1.821-1.82 1.381-1.382-1.82zm.494-.375 1.82-1.382 1.382 1.82-1.82 1.382zm5.334 3.246 1.382 1.821-1.82 1.382-1.382-1.821zm.494-.375.862-.654.959-.727 1.382 1.82-.959.727-.862.654zm2.715 1.588.862-.654 1.382 1.82-.862.654-.959.728-1.382-1.82zm1.356-1.03 1.82-1.382 1.382 1.821-1.82 1.382zm3.577.932 1.382 1.82-1.82 1.382-1.382-1.82zm.494-.374 1.82-1.382 1.382 1.82-1.82 1.382zm3.577.933 1.382 1.82-1.82 1.382-1.382-1.82zm.494-.376 1.82-1.382 1.382 1.821-1.82 1.382zm3.577.933 1.382 1.821-1.82 1.382-1.382-1.82zm.493-.375 1.82-1.382 1.382 1.821-1.82 1.382zm2.315-1.756 1.821-1.382 1.382 1.82-1.821 1.382zm.558-4.072.958-.727.862-.654 1.382 1.821-.863.654-.957.727zm2.314-1.756 1.82-1.382 1.382 1.821-1.82 1.382zm.557-4.071 1.82-1.382 1.382 1.82-1.82 1.382zm.558-4.07 1.821-1.383 1.382 1.82-1.82 1.382zm.622-7.768.653.862.728.959-1.82 1.382-.728-.958-.654-.862zm-1.587 2.715.654.862-1.82 1.382-.727-.958-.654-.862 1.82-1.382zm-2.485-3.273 1.382 1.82-1.82 1.383-1.382-1.821zm-.932 3.578-1.82 1.381-1.382-1.82 1.82-1.382zm-1.757-2.315-1.82 1.381-1.382-1.82 1.82-1.381zm-3.138-4.134 1.382 1.82-1.82 1.382-1.382-1.82zm-.932 3.576-1.82 1.383-1.382-1.821 1.82-1.382zm-3.139-4.134 1.382 1.82-1.82 1.382-1.382-1.82zm-.933 3.577-.958.727-.862.655-1.382-1.82.958-.728.862-.653zm-4.097-3.408.959-.727 1.382 1.82-.959.728-.862.653-1.382-1.82zm.027 2.85-1.82 1.382-1.382-1.82 1.82-1.382zm-3.138-4.134.653.862.728.958-1.82 1.382-.728-.958-.654-.862zm-1.588 2.715.655.862-1.82 1.382-.728-.959-.653-.862 1.82-1.382zm-1.102-1.452-1.82 1.382-1.382-1.82 1.82-1.382zm-3.138-4.135 1.382 1.82-1.82 1.382-1.382-1.82zm-.933 3.577-1.82 1.38-1.382-1.82 1.82-1.38zm-3.138-4.135 1.382 1.82-1.82 1.382-1.382-1.82zm-.932 3.577-1.82 1.382-1.382-1.82 1.82-1.382zm-3.139-4.135 1.382 1.82-1.82 1.382-1.382-1.82zm-.933 3.578-1.82 1.382-1.382-1.82 1.82-1.382zm-3.138-4.135 1.382 1.82-1.82 1.382-1.382-1.82zm-.932 3.577-.862.654-.959.727-1.382-1.82.959-.727.862-.654zm-4-3.48.862-.655.653.862.728.959-.959.727-.862.655-.654-.862-.727-.959zm-.8 1.964.728.958-1.82 1.382-.727-.958-.655-.862 1.82-1.382zm-2.41-3.176 1.382 1.82-1.82 1.382-1.382-1.82zm-.932 3.577-1.82 1.382-1.382-1.82 1.82-1.382zm-3.139-4.135 1.382 1.82-1.82 1.382-1.382-1.82zm-.933 3.577-1.82 1.382-1.382-1.82 1.82-1.382zm-3.138-4.134 1.382 1.82-1.82 1.38-1.382-1.82zm-2.314 1.756 1.382 1.82-1.82 1.383-1.382-1.821zm-4.135 3.139 1.82-1.383 1.382 1.821-1.82 1.382zm-.557 4.07.862-.654.958-.727 1.382 1.82-.862.654-.958.727zm-.558 4.071 1.82-1.381 1.382 1.82-1.82 1.382zm.17 5.03-.727-.959 1.82-1.382.654.862.727.96-1.82 1.381zm-1.285 3.113 1.82-1.382 1.382 1.82-1.82 1.382zm-.557 4.07 1.82-1.381 1.382 1.82-1.82 1.381zm3.138 4.135-1.382-1.821 1.82-1.381 1.382 1.82zm.932-3.577 1.82-1.382 1.382 1.82-1.82 1.382zm1.757 2.314 1.82-1.382 1.383 1.82-1.82 1.382zm3.139 4.134-1.382-1.82 1.82-1.382 1.382 1.82zm.932-3.576 1.82-1.382 1.382 1.82-1.82 1.382zm3.138 4.134-.727-.958-.654-.862 1.82-1.382.654.862.727.959zm1.66-2.618-.727-.959 1.82-1.382.654.863.727.958-1.82 1.382zm1.03 1.355 1.82-1.382 1.382 1.82-1.82 1.382zm3.138 4.135-1.382-1.82 1.82-1.382 1.382 1.82zm.933-3.577.958-.727.862-.655 1.382 1.821-.862.654-.959.728zm4 3.481-.863.654-1.382-1.82.862-.654.959-.728 1.382 1.82zm.07-2.924 1.82-1.382 1.383 1.821-1.82 1.381zm3.138 4.135-1.382-1.821 1.821-1.382 1.382 1.821zm.933-3.577 1.82-1.381 1.382 1.82-1.82 1.381zm3.139 4.135-1.382-1.82 1.82-1.382 1.382 1.82zm.932-3.577 1.82-1.382 1.382 1.82-1.82 1.382zm3.139 4.134-.727-.958-.654-.862 1.82-1.382.727.958.654.862zm1.587-2.715-.655-.862 1.82-1.382.654.862.728.959-1.82 1.381zm1.102 1.453 1.82-1.382 1.382 1.821-1.82 1.382zm3.138 4.135-1.382-1.821 1.82-1.381 1.381 1.82zm.932-3.578 1.821-1.382 1.382 1.82-1.821 1.382zm3.139 4.135-1.382-1.821 1.82-1.382 1.382 1.821zm.933-3.577.862-.655.958-.727 1.382 1.82-.958.727-.862.654zm4 3.481-.863.654-1.382-1.82.959-.728.862-.654 1.382 1.82zm.07-2.924 1.82-1.382 1.382 1.82-1.82 1.382zm3.139 4.135-1.382-1.82 1.82-1.381 1.382 1.82zm.932-3.576 1.82-1.382 1.382 1.82-1.82 1.382zm3.139 4.134-.728-.959-.654-.862 1.821-1.382.727.959.654.862zm1.586-2.715-.654-.862 1.82-1.382.654.862.727.959-1.82 1.381zm2.484 3.272-1.382-1.82 1.82-1.382 1.382 1.821zm4.135-3.138-1.821 1.382-1.382-1.82 1.82-1.382zm-.17-5.029.728.958-1.821 1.382-.653-.861-.728-.959 1.821-1.382zm.327-2.385-.861.654-1.382-1.82.862-.654.958-.727 1.382 1.82zm3.273-2.484-1.82 1.382-1.382-1.82 1.821-1.382zm.557-4.071-1.82 1.382-1.382-1.821 1.82-1.382zm.558-4.071-1.82 1.382-1.382-1.82 1.82-1.382zm-1.263-2.69-1.382-1.82 1.82-1.38 1.382 1.82z" opacity=".25"/><path fill="#0A1640" d="m129.539 95.29-4.401 19.376a6.06 6.06 0 0 1-6.451 4.692 227 227 0 0 1-29.857-4.713 227 227 0 0 1-28.959-8.65 6.07 6.07 0 0 1-3.877-4.777l-.003-.022c-.176-1.293 1.121-2.297 2.348-1.85 17.342 6.311 38.368 11.954 54.38 14.147a6.813 6.813 0 0 0 7.569-5.242l4.012-17.658c.335-1.475 2.098-2.154 3.292-1.224q.051.04.092.077a6.05 6.05 0 0 1 1.855 5.845" opacity=".25"/><path fill="#D811AD" d="M96.32 81.69a225 225 0 0 1 28.688 8.568 3.95 3.95 0 0 1 2.468 4.564l-4.402 19.375a3.954 3.954 0 0 1-4.197 3.05 225 225 0 0 1-29.574-4.669 225 225 0 0 1-28.69-8.568 3.95 3.95 0 0 1-2.467-4.564l4.402-19.375a3.954 3.954 0 0 1 4.197-3.05 225 225 0 0 1 29.574 4.67m.469-2.066a226 226 0 0 0-29.854-4.713 6.06 6.06 0 0 0-6.453 4.69L56.08 98.977a6.06 6.06 0 0 0 3.793 7.018 226.314 226.314 0 0 0 58.814 13.361 6.06 6.06 0 0 0 6.453-4.69l4.402-19.376a6.06 6.06 0 0 0-3.793-7.018 226.5 226.5 0 0 0-28.96-8.648"/><path fill="#D811AD" d="M104.294 93.995c-.543-1.03-2.203-1.978-4.167-1.688-1.268.187-2.288 1.325-1.644 2.526 1.561 2.913 7.268 1.926 5.811-.838M88.297 89.62c-1.647-1.112-3.553-.973-4.487-.279-2.509 1.864 2.21 5.219 4.878 3.267 1.1-.805.672-2.272-.39-2.989"/><path fill="#fff" d="M66.979 80.59a86 86 0 0 1-.78 4.54c-.29 1.506-.615 3.004-.947 4.5a162 162 0 0 1-1.081 4.471 84 84 0 0 1-1.25 4.433.303.303 0 0 1-.59-.135c.215-1.523.491-3.032.788-4.537.293-1.505.621-3.003.957-4.499.348-1.493.701-2.984 1.091-4.468a86 86 0 0 1 1.258-4.43.286.286 0 0 1 .554.125"/><path fill="#0A1640" d="M125.115 89.967a225 225 0 0 0-28.728-8.58 225 225 0 0 0-29.615-4.675 4.266 4.266 0 0 0-4.528 3.29l-4.402 19.375a4.264 4.264 0 0 0 2.662 4.923 225 225 0 0 0 28.729 8.579 225 225 0 0 0 29.615 4.676q.192.017.381.017a4.266 4.266 0 0 0 4.147-3.307l4.402-19.375a4.27 4.27 0 0 0-2.663-4.923m2.057 4.785-4.402 19.376a3.64 3.64 0 0 1-3.867 2.809 225 225 0 0 1-29.533-4.663 225 225 0 0 1-28.65-8.556 3.64 3.64 0 0 1-2.273-4.204l4.402-19.376a3.64 3.64 0 0 1 3.867-2.81c9.9.892 19.837 2.46 29.534 4.664a225 225 0 0 1 28.649 8.556 3.64 3.64 0 0 1 2.273 4.204"/><path fill="#0A1640" d="M125.856 87.982a227 227 0 0 0-29-8.66q-1.605-.363-3.218-.703a227 227 0 0 0-26.677-4.017 6.39 6.39 0 0 0-6.783 4.93l-4.402 19.376c-.703 3.095 1.011 6.267 3.988 7.377a226.6 226.6 0 0 0 32.405 9.404 227 227 0 0 0 26.488 3.976q.287.026.57.026c2.938 0 5.553-2.047 6.214-4.956l4.401-19.376c.705-3.095-1.009-6.266-3.986-7.377m3.382 7.24-4.402 19.376c-.635 2.794-3.272 4.706-6.122 4.449a227 227 0 0 1-33.486-5.574 227 227 0 0 1-25.248-7.77 5.766 5.766 0 0 1-3.598-6.658l4.401-19.376c.597-2.625 2.957-4.472 5.61-4.472q.254 0 .513.023a227 227 0 0 1 33.612 5.606 227 227 0 0 1 25.122 7.738 5.77 5.77 0 0 1 3.598 6.658"/><path fill="#0A1640" d="M88.635 84.445c-1.016-.219-1.962.388-2.205 1.395-.224.931.423 1.987 1.436 2.197 1.002.208 1.956-.372 2.193-1.426.23-1.004-.388-1.943-1.424-2.166M102.067 87.495c-1.218-.249-2.012.589-2.228 1.388-.24.886.445 2.01 1.356 2.192 2.537.507 3.194-3.105.872-3.58M94.985 87.56c-1.717-.403-3.627-.1-3.932 1.244a2.86 2.86 0 0 0 .066 1.471c.365 1.18 1.45 2.14 2.694 2.445 1.255.261 2.642-.132 3.481-1.037.33-.357.577-.796.696-1.303.305-1.344-1.285-2.442-3.005-2.82"/><path fill="#FF8CDB" d="M97.295 91.682c-.84.906-2.227 1.3-3.482 1.038-1.244-.307-2.329-1.266-2.694-2.445a4.56 4.56 0 0 1 6.176 1.407"/><path fill="#fff" d="M105.17 110.329a2.8 2.8 0 0 1-.605-.068l-28.029-6.368a2.723 2.723 0 0 1-2.05-3.255 2.706 2.706 0 0 1 3.256-2.051l28.028 6.368a2.724 2.724 0 0 1 2.051 3.256 2.706 2.706 0 0 1-2.651 2.118"/><path fill="#0A1640" d="M77.137 98.829q.266 0 .537.06l28.029 6.368a2.41 2.41 0 0 1-1.069 4.702l-28.028-6.367a2.411 2.411 0 0 1 .531-4.763m0-.62c-1.423 0-2.637.97-2.953 2.36a3.034 3.034 0 0 0 2.284 3.627l28.029 6.368q.333.076.673.076a3.016 3.016 0 0 0 2.954-2.36 3.035 3.035 0 0 0-2.284-3.627l-28.03-6.368a3 3 0 0 0-.673-.076"/><path fill="#00D4FC" d="M78.92 103.15q-.168 0-.334-.038a1.506 1.506 0 0 1-1.135-1.8 1.497 1.497 0 0 1 1.802-1.134c.809.184 1.317.991 1.134 1.801a1.5 1.5 0 0 1-1.466 1.171"/><path fill="#0A1640" d="M78.919 100.45q.132 0 .265.03a1.194 1.194 0 1 1-.265-.03m0-.62c-.853 0-1.58.58-1.77 1.413a1.817 1.817 0 0 0 1.772 2.217c.852 0 1.58-.581 1.769-1.413.108-.473.024-.96-.234-1.37a1.8 1.8 0 0 0-1.537-.848"/><path fill="#FFCE00" d="M85.037 104.539q-.168 0-.334-.037a1.5 1.5 0 0 1-.94-.666 1.5 1.5 0 0 1-.195-1.136 1.496 1.496 0 0 1 1.801-1.133c.392.088.726.325.94.665.215.341.284.744.195 1.136a1.5 1.5 0 0 1-1.467 1.171"/><path fill="#0A1640" d="M85.036 101.839q.131 0 .265.03a1.195 1.195 0 1 1-.265-.03m0-.62c-.853 0-1.58.581-1.77 1.413-.107.473-.024.959.235 1.37.258.41.66.695 1.134.802q.2.046.403.046c.852 0 1.58-.582 1.769-1.414a1.8 1.8 0 0 0-.234-1.369 1.81 1.81 0 0 0-1.537-.848"/><path fill="#FFCE00" d="M97.273 107.319q-.168 0-.334-.038a1.506 1.506 0 0 1-1.135-1.8 1.496 1.496 0 0 1 1.801-1.134 1.507 1.507 0 0 1 1.135 1.8 1.5 1.5 0 0 1-1.467 1.172"/><path fill="#0A1640" d="M97.27 104.618q.132 0 .266.031a1.194 1.194 0 1 1-.266-.031m0-.62c-.852 0-1.58.581-1.77 1.413-.107.473-.023.96.235 1.37a1.81 1.81 0 0 0 1.537.848c.852 0 1.58-.581 1.77-1.413.107-.473.024-.96-.235-1.37a1.81 1.81 0 0 0-1.537-.848"/><path fill="#00D4FC" d="M103.388 108.709a1.51 1.51 0 0 1-1.275-.704 1.5 1.5 0 0 1-.194-1.135 1.496 1.496 0 0 1 1.801-1.134 1.5 1.5 0 0 1 .941.666c.214.34.283.743.194 1.135a1.5 1.5 0 0 1-1.467 1.172"/><path fill="#0A1640" d="M103.386 106.008q.132 0 .266.03a1.195 1.195 0 1 1-.266-.03m0-.619c-.852 0-1.579.581-1.769 1.413-.107.473-.024.959.234 1.369a1.8 1.8 0 0 0 1.134.803q.2.046.403.046c.853 0 1.58-.582 1.769-1.414a1.8 1.8 0 0 0-.234-1.369 1.8 1.8 0 0 0-1.537-.848"/><path fill="#D811AD" d="m90.272 105.825 2.609-.807a.228.228 0 0 0 .087-.385l-2.005-1.855a.228.228 0 0 0-.377.117l-.605 2.662a.23.23 0 0 0 .29.268"/><path fill="#0A1640" d="M90.203 106.146a.53.53 0 0 1-.364-.144.53.53 0 0 1-.158-.514l.604-2.661a.54.54 0 0 1 .366-.395.53.53 0 0 1 .525.119l2.004 1.855a.53.53 0 0 1 .16.514.53.53 0 0 1-.366.395l-2.61.807a.5.5 0 0 1-.161.024m.655-3.043-.541 2.384 2.337-.723z"/><path fill="#E38921" d="M121.864 20.803a.55.55 0 0 0 .032-.424.55.55 0 0 0-.278-.321c-.982-.496-2.129-.71-2.984-.8-.114-1.412-.387-2.613-.812-3.572a.54.54 0 0 0-.501-.325h-.001a.54.54 0 0 0-.5.326c-.424.956-.696 2.155-.811 3.564-.854.088-1.998.298-2.974.79a.57.57 0 0 0-.316.514c0 .218.12.414.315.512.791.398 1.814.669 2.971.79.095 1.022.478 3.573 1.086 3.842a.567.567 0 0 0 .747-.29c.423-.956.691-2.153.8-3.56.854-.091 1.999-.305 2.978-.8a.55.55 0 0 0 .248-.246M109.07 133.412c-.981-.495-2.129-.709-2.985-.801-.114-1.411-.387-2.612-.812-3.571a.54.54 0 0 0-.501-.325h-.001a.54.54 0 0 0-.5.326c-.424.956-.696 2.155-.811 3.564-.854.089-1.997.297-2.974.789a.573.573 0 0 0 0 1.025c.791.399 1.814.67 2.97.79.095 1.023.478 3.574 1.086 3.842a.563.563 0 0 0 .748-.289c.423-.956.691-2.152.8-3.559.854-.093 1.999-.306 2.978-.8a.555.555 0 0 0 .002-.991M42.876 131.51c-.981-.495-2.13-.709-2.985-.801-.114-1.411-.387-2.611-.811-3.571a.54.54 0 0 0-.501-.325h-.001a.54.54 0 0 0-.5.325c-.424.957-.696 2.155-.811 3.565-.854.088-1.997.298-2.974.79a.57.57 0 0 0 0 1.024c.79.399 1.814.67 2.97.79.096 1.023.478 3.574 1.087 3.842a.56.56 0 0 0 .433.01.56.56 0 0 0 .313-.299c.423-.956.692-2.152.8-3.559.854-.093 2-.306 2.979-.8a.555.555 0 0 0 0-.991M75.164 124.778c-.805-.405-1.74-.585-2.448-.663-.096-1.155-.322-2.141-.672-2.93a.49.49 0 0 0-.455-.295c-.2 0-.374.113-.454.296-.349.786-.574 1.77-.671 2.925-.706.075-1.639.251-2.439.653a.52.52 0 0 0-.285.464c0 .197.11.374.285.463.65.327 1.49.552 2.437.654.08.789.38 2.938.92 3.177q.102.044.207.044a.52.52 0 0 0 .47-.305c.348-.787.57-1.769.663-2.923.706-.078 1.639-.257 2.441-.661a.505.505 0 0 0 0-.899M127.987 72.978c-.805-.405-1.741-.585-2.448-.663-.096-1.156-.322-2.14-.671-2.93a.49.49 0 0 0-.455-.295h-.001a.49.49 0 0 0-.454.295c-.349.787-.574 1.77-.671 2.926-.706.075-1.639.25-2.439.653a.518.518 0 0 0 0 .926c.65.327 1.488.552 2.436.654.079.79.38 2.939.921 3.178q.101.044.207.044a.51.51 0 0 0 .469-.305c.347-.787.57-1.77.662-2.923.706-.078 1.639-.257 2.442-.662a.503.503 0 0 0 .002-.898M93.885 7.77c-.804-.406-1.74-.585-2.447-.663-.097-1.157-.323-2.142-.672-2.931a.49.49 0 0 0-.455-.295h-.001c-.2 0-.373.114-.454.295-.348.787-.574 1.77-.67 2.926-.707.076-1.64.251-2.44.654a.517.517 0 0 0 0 .927c.651.328 1.49.552 2.437.654.08.79.38 2.938.92 3.177a.51.51 0 0 0 .677-.262c.348-.787.57-1.77.662-2.921.707-.079 1.64-.258 2.442-.662a.503.503 0 0 0 .001-.9"/><path fill="#0A1640" d="M23.084 115.528a3.8 3.8 0 0 0-.782.077v.011c-.103 1.292-.03 3.419-.134 4.689-.182-.439-.502-2.045-.636-2.142-.011.011-.011.022-.021.055-.157.664-.292 1.294-.47 1.959-.337-1.264-.156-3.295-.295-4.595-.264-.007-.562-.026-.86-.021a5 5 0 0 0-.716.065v.011c.08 2.546.522 5.087.91 7.596h.01c.166.02.3.03.42.028.21-.003.353-.027.54-.063.226-.378.31-1.57.57-1.838l.011-.001c.27.404.418 1.527.676 1.865l.133-.002.397-.005c.143-.002.276.007.374-.028.174-2.56.438-5.078.623-7.628l-.01-.011a10 10 0 0 0-.74-.022M28.975 117.041a2.5 2.5 0 0 0-.225-.669 1.6 1.6 0 0 0-.499-.639c-.893-.588-2.258-.513-3.192.028a1.2 1.2 0 0 0-.239.216c-.414.549-.485 1.261-.448 1.922.005 1.16.174 2.309.3 3.449.041.428.116.854.35 1.202.306.563.899.654 1.507.666.431.002.848-.049 1.246-.199.442-.153.857-.381 1.085-.752.233-.448.316-.995.312-1.514l.007-.365c0-.763-.093-1.474-.105-2.258a9 9 0 0 0-.1-1.087m-1.303 4.215c-.415.538-1.343.538-1.671-.025-.178-.474-.206-1.024-.32-1.536-.076-.613-.11-1.24-.029-1.81.066-.314.225-.58.463-.796.219-.192.541-.314.847-.214.352.14.576.489.638.894.029.252.088.613.089.623l.075.747.037.528.019.573c-.01.642.1.634-.148 1.016M33.223 118.996l.011-.001.044-.007c.693-.137 1.09-.58 1.293-1.141.703-1.64-.665-3.381-2.403-3.237-1.076.022-2.05.309-2.853.538.207.718 1.188 7.616 1.1 7.628.138-.052 1.421-.101 1.885-.375-.107-.552-.411-1.991-.412-2.659l.026.03c.725.681 1.513 1.911 1.886 2.539l.011-.001c.657-.044 1.288-.194 1.8-.264-.598-1.143-1.63-2.039-2.387-3.039zm-.759-1.344c-.342.101-.76.135-1.104.148l-.01.001c-.1-.32-.153-.969-.236-1.336.486-.277 1.014-.403 1.37-.151.448.263.521 1.143-.02 1.338M35.611 122.046l.012-.002zM39.983 113.426c-.48.018-1.006.201-1.477.262-.435.976-.558 1.933-1.006 2.843-.026.039-.04.087-.041.076-.197-.815-.345-1.775-.54-2.59-.466.093-.98.162-1.454.268.515 2.517.865 5.055 1.48 7.507.395.011 1.21-.13 1.578-.316-.162-.811-.456-1.944-.59-2.782.614.709 1.312 1.952 2.056 2.522.467-.082 1.053-.132 1.498-.322l-2.616-3.468c.277-1.315 1.007-2.72 1.111-4M41.846 112.842c-.425-.021-.945.221-1.312.345l-.032.007c.36 1.978.935 3.812 1.365 5.705l.01-.003c.416-.113 1.005-.257 1.37-.393-.536-1.809-.984-3.822-1.401-5.661M42.098 119.421l.002.011c.098.396.18 1.284.276 1.26l.8-.207.021-.006c.161-.039.239-.047.41-.089l.075-.018c-.103-.418-.197-.895-.283-1.293-.418.103-.993.119-1.301.342M13.457 107.724l.044.003c.707.002 1.184-.353 1.494-.863 1.015-1.47.018-3.448-1.715-3.65-1.06-.192-2.072-.104-2.905-.037.062.745-.343 7.703-.43 7.697.145-.024 1.413.182 1.922.006.004-.564-.009-2.034.122-2.689l.02.034c.576.812 1.105 2.173 1.347 2.864h.011c.658.088 1.31.065 1.829.099h-.012c-.36-1.24-1.195-2.323-1.739-3.453l.001-.011zm-.488-1.47c-.356.032-.773-.018-1.111-.073l-.011-.001c-.033-.334.042-.981.034-1.356.531-.176 1.074-.195 1.374.123.385.346.283 1.224-.286 1.307M20.587 109.772v-.022c-1.004.03-1.92-.061-2.89-.063l-.01-.011c-.032-.353-.075-.949.004-1.378.154-.121.882.002 1.335-.118-.01-.54.058-1.036-.018-1.533v-.01c-.452-.013-.915-.003-1.356-.037l-.01-.011c-.1-.397.002-.86-.008-1.29l.01-.011h.035c.97-.085 1.95.083 2.889-.124v-.01c.002-.519.08-1.048.004-1.566 0-.067-2.856-.031-4.565.052-.151 2.525-.026 4.985-.033 7.543 1.421.125 3.021.02 4.52.036.123-.443.125-.973.093-1.447M24.677 110.998c.478.073 1.042.074 1.477-.038v-.011l-1.042-3.807c-.217-.728-.957-3.281-1.122-3.847-.964.143-1.144.086-1.35.131-.86 3.583-1.182 7.477-1.254 7.779.012.011.012.011.022.01 1.002-.067 1.423-.036 1.542-.076.011 0 .022-.011.033-.012.226-.499.209-1.392.381-1.866.33-.018.306-.061.683-.028.222.419.416 1.303.618 1.766zm-1.462-3.032c.181-2.274.161-3.819.814-.045-.275.015-.56.042-.814.045M27.208 110.838c.92-.104 1.917-.216 2.878-.358.48-.753.931-1.581 1.129-2.481-.002-.01.009-.011.008-.023.056-.683-.034-1.383-.079-2.077-.037-.228-.073-.457-.177-.679a5 5 0 0 0-.839-1.536c-.31-.398-.813-.718-1.299-.786-.84.129-1.818.106-2.627.408-.01.013-.018.035-.028.048.342 2.535.446 5.22 1.024 7.497zm.782-5.448.022-.002c.257-.085.565-.108.821-.104.513.12.706.653.845 1.092.18.524.1.988-.109 1.4a1.15 1.15 0 0 1-.3.389c-.073.041-.111.09-.19.088-.26.063-.572.143-.752.019-.167-.98-.199-2.053-.342-2.836l-.006-.044zM32.659 106.34c-.302 1.358-.618 2.761-.805 3.999l.021-.003c.09-.004.176-.018.263-.032.338-.055.714-.151 1.018-.201.098-.017.185-.031.274-.035.45-2.7 1.582-5.322 1.958-8.055l-.002-.012a4 4 0 0 0-.416.047c-.382.062-.878.167-1.13.264-.165.631-.285 1.935-.493 2.506-.35-.501-.983-1.627-1.23-2.245-.176-.049-.353-.031-.526-.003-.316.052-.63.171-.925.22.496 1.18 1.464 2.306 1.99 3.527zM38.441 103.019c.185.009.94-.288 1.315-.202l.013.008c1.198 3.939 1.477 5.551 1.542 5.671.49-.218 1.23-.306 1.731-.526l-.003-.01-.002-.011c-1.288-4.643-1.5-5.42-1.51-5.634-.002-.01.005-.024.002-.035l.011-.003.022-.005c.664-.206 1.021-.321 1.302-.336-.057-.532-.23-1.205-.384-1.666-1.504.217-3.08.681-4.53 1.065.003.011.014.008.017.019.12.686.394 1.572.474 1.665M48.456 104.158l-.08-.356c-.182-.741-.443-1.409-.642-2.167a9 9 0 0 0-.356-1.032 2.5 2.5 0 0 0-.378-.596 1.6 1.6 0 0 0-.636-.501c-1.008-.359-2.316.04-3.093.789-.078.083-.131.17-.18.267-.272.632-.17 1.341.022 1.974.282 1.125.721 2.2 1.115 3.277.142.406.316.802.628 1.084.431.475 1.028.421 1.621.288.42-.101.812-.25 1.162-.491.393-.255.742-.575.874-.989.121-.492.071-1.044-.057-1.547m-1.336.848c-.274.622-1.176.843-1.628.375-.285-.418-.445-.946-.677-1.416-.221-.577-.403-1.178-.46-1.75-.011-.321.078-.617.259-.884.166-.239.45-.435.77-.411.377.052.677.338.834.716.088.238.23.574.234.585l.252.706.163.504c.01.031.073.266.155.552.144.626.248.592.098 1.023"/></svg>