<svg xmlns="http://www.w3.org/2000/svg" width="103" height="146" fill="none"><path fill="#0A1640" d="M39.133 130.267c-4.437 0-8.89-.743-13.275-2.235-.91-.31-1.832-.656-2.738-1.03-3.469-1.432-7.412-3.198-10.354-5.433a.445.445 0 0 1 .19-.791c1.467-.268 2.96-.476 4.403-.677 2.743-.382 5.58-.778 8.331-1.599 13.852-4.133 24.031-12.933 29.436-25.447 3.606-8.348 8.28-13.125 13.888-14.198 5.567-1.067 13.052 2.334 14.353 8.31 1.15 5.277-1.348 11.242-4.217 16.901-4.963 9.79-12.873 17.642-22.273 22.106-5.734 2.725-11.723 4.093-17.744 4.093m-24.984-8.794c2.751 1.892 6.22 3.433 9.31 4.709.888.367 1.792.707 2.685 1.011 10.11 3.439 20.605 2.81 30.351-1.819 9.224-4.381 16.988-12.09 21.862-21.706 2.795-5.513 5.231-11.305 4.141-16.31-.983-4.516-7.018-8.831-13.319-7.628-5.303 1.014-9.757 5.616-13.24 13.678-5.513 12.763-15.885 21.735-29.997 25.946-2.816.84-5.686 1.241-8.462 1.627-1.094.152-2.217.309-3.33.492M12.36 117.868a.44.44 0 0 1-.44-.383 42 42 0 0 1-.387-4.982 42.4 42.4 0 0 1 .56-7.662.444.444 0 0 1 .877.144 41.5 41.5 0 0 0-.549 7.501c.03 1.624.157 3.265.38 4.877a.443.443 0 0 1-.442.505"/><path fill="#A7D640" d="m15.627 115.678.288 5.224q.028.53-.112 1.013a3.14 3.14 0 0 1-6.158-.667l-.29-5.224a3.11 3.11 0 0 1 .798-2.263 3 3 0 0 1 1.1-.788 3 3 0 0 1 1.067-.254 3.14 3.14 0 0 1 3.307 2.959"/><path fill="#0A1640" d="M15.803 121.915a3.14 3.14 0 0 1-6.158-.667l-.29-5.224a3.11 3.11 0 0 1 .798-2.263 3 3 0 0 1 1.1-.788c.242 1.7.656 3.359 1.384 4.921a11.1 11.1 0 0 0 3.165 4.021" opacity=".25"/><path fill="#0A1640" d="M12.778 124.657c-.885 0-1.726-.32-2.389-.913a3.55 3.55 0 0 1-1.187-2.47l-.29-5.224a3.6 3.6 0 0 1 .912-2.586 3.46 3.46 0 0 1 1.26-.901 3.5 3.5 0 0 1 1.212-.287 3.55 3.55 0 0 1 2.586.908 3.55 3.55 0 0 1 1.187 2.47l.289 5.224c.021.398-.023.788-.13 1.161a3.566 3.566 0 0 1-3.45 2.618m-.28-11.5q-.075 0-.152.004a2.6 2.6 0 0 0-.914.217q-.543.226-.947.678a2.7 2.7 0 0 0-.685 1.943l.288 5.224c.04.718.357 1.378.895 1.858.537.48 1.23.724 1.95.683a2.68 2.68 0 0 0 2.443-1.967q.123-.425.098-.871l-.29-5.224a2.68 2.68 0 0 0-.893-1.858 2.68 2.68 0 0 0-1.793-.687"/><path fill="#D811AD" d="m97.733 63.943-2.796 6.362a2.65 2.65 0 0 1-3.18 1.479l-2.806-.827-9.018-2.655a2.65 2.65 0 0 1-1.874-2.965l1.1-6.865 7.255 2.134z"/><path fill="#0A1640" d="m88.951 70.957-9.018-2.655a2.65 2.65 0 0 1-1.874-2.965l1.1-6.865 7.255 2.134c-.129 3.102.482 6.239 1.832 9.038.215.447.45.89.705 1.313" opacity=".25"/><path fill="#0A1640" d="M92.504 72.336q-.437 0-.873-.126l-11.823-3.482a3.1 3.1 0 0 1-2.187-3.461l1.1-6.865a.442.442 0 0 1 .563-.356l18.575 5.47a.445.445 0 0 1 .281.606l-2.796 6.362a3.11 3.11 0 0 1-2.84 1.852M79.517 59.04l-1.02 6.367a2.21 2.21 0 0 0 1.56 2.468l11.825 3.482a2.21 2.21 0 0 0 2.648-1.232l2.593-5.9z"/><path fill="#845EF9" d="m72.111 54.235-9.61 10.014-35.458 36.948-2.39 2.49a15.1 15.1 0 0 1-6.732 4.088c-6.029 1.75-12.87-.318-16.783-5.916a3.84 3.84 0 0 1 .247-4.711l35.782-41.426 12.758-14.767z"/><path fill="#FFCE00" d="M62.5 64.247 38.03 89.744l-4.71 4.907-.621.65-2.954 3.078-2.703 2.816-5.361-1.415c-3.137-.828-4.281-4.69-2.101-7.097l12.54-13.858 11.482-12.68.606-.67 2.338-2.58a4.43 4.43 0 0 1 4.276-1.34l1.8.413z"/><path fill="#E38921" d="M30.11 88.462c-2.406 2.836-2.613 7.013-.364 9.917l-2.703 2.816-5.361-1.415c-3.137-.828-4.281-4.69-2.101-7.097l12.54-13.858 11.482-12.68.606-.67 2.338-2.58a4.43 4.43 0 0 1 4.276-1.34l1.8.413z" opacity=".5"/><path fill="#D811AD" d="m38.03 89.744-4.71 4.907-.62.646v.005l-2.954 3.077-2.703 2.816-5.361-1.415c-3.137-.828-4.281-4.69-2.101-7.097l12.54-13.858a25 25 0 0 0 1.845 4.986c.01.025.025.044.035.069a25.6 25.6 0 0 0 4.03 5.864"/><path fill="#fff" d="M55.194 66.21c-1.28 1.585-2.625 3.11-3.99 4.614a201 201 0 0 1-4.168 4.444 199 199 0 0 1-4.307 4.308c-1.459 1.413-2.94 2.804-4.486 4.134a.434.434 0 0 1-.62-.603c1.282-1.584 2.63-3.106 3.998-4.607a199 199 0 0 1 4.177-4.434 201 201 0 0 1 4.318-4.298c1.462-1.41 2.947-2.799 4.494-4.126a.41.41 0 0 1 .584.567" opacity=".75"/><g fill="#0A1640" opacity=".25"><path d="M38.622 58.405c-.29-.987-.845-1.846-1.456-2.684L1.384 97.147a3.84 3.84 0 0 0-.247 4.711c3.912 5.598 10.755 7.666 16.783 5.916-1.449-1.462-2.612-3.152-3.312-5.166-3.508-10.06 5.122-19.06 20.43-36.501 1.878-2.141 4.49-4.555 3.584-7.702"/><path d="M32.123 78.825 19.582 92.683c-2.18 2.407-1.036 6.268 2.1 7.097l5.362 1.415 2.703-2.816c-2.25-2.905-2.042-7.082.365-9.917l3.89-4.582c-.01-.025-.024-.044-.034-.07a25 25 0 0 1-1.845-4.985"/></g><path fill="#0A1640" d="m72.339 53.854-22.187-13.28a.445.445 0 0 0-.564.09L1.048 96.857c-.29.334-.526.714-.703 1.13a4.26 4.26 0 0 0 .429 4.126 15.71 15.71 0 0 0 17.27 6.088 15.6 15.6 0 0 0 6.929-4.207l47.459-49.452a.445.445 0 0 0-.093-.688M31.906 79.729a25.4 25.4 0 0 0 1.648 4.248c.012.03.026.057.049.102a26 26 0 0 0 3.82 5.656l-5.044 5.254-.025.03-5.451 5.68-5.108-1.348a3.86 3.86 0 0 1-2.732-2.652 3.86 3.86 0 0 1 .846-3.718zm.71-.784 14.26-15.751a3.99 3.99 0 0 1 3.847-1.206l10.916 2.517-23.59 24.58a25 25 0 0 1-3.686-5.47 24.8 24.8 0 0 1-1.747-4.67m29.74-15.187L50.92 61.122a4.87 4.87 0 0 0-4.704 1.476L31.8 78.522q-.005.003-.01.006l-12.54 13.857a4.74 4.74 0 0 0-1.04 4.566 4.74 4.74 0 0 0 3.357 3.258l4.633 1.223-1.87 1.948a14.74 14.74 0 0 1-6.533 3.969 14.83 14.83 0 0 1-16.296-5.744 3.38 3.38 0 0 1-.34-3.271q.212-.497.558-.897l48.296-55.911 21.389 12.803z"/><path fill="#00D4FC" d="m94.563 65.923-14.53-4.369-38.028-11.43S51.317 38.862 53.82 37.01a18.2 18.2 0 0 1 10.1-3.553 18.04 18.04 0 0 1 7.76 1.434l27.235 11.578a5.75 5.75 0 0 1 3.482 5.776l-.799 9.441c-.29 3.44-3.858 5.59-7.035 4.238"/><path fill="#D811AD" d="M86.403 54.071c-.498-1.06-2.167-2.163-4.237-2.093-1.335.045-2.476 1.042-1.884 2.28 1.437 3.002 7.458 2.66 6.121-.187M70.849 48.354c-1.645-1.259-3.644-1.33-4.666-.757-2.742 1.541 1.961 5.316 4.874 3.706 1.201-.663.852-2.137-.209-2.949"/><path fill="#fff" d="M97.985 49.743c.102 1.107.116 2.207.1 3.305a59 59 0 0 1-.145 3.286 58 58 0 0 1-.34 3.271c-.146 1.088-.323 2.174-.588 3.252a.44.44 0 0 1-.864-.065c-.098-1.107-.109-2.206-.089-3.304.015-1.098.082-2.192.16-3.285.093-1.092.197-2.183.353-3.27.15-1.088.331-2.173.6-3.25a.413.413 0 0 1 .5-.302.41.41 0 0 1 .313.362" opacity=".75"/><path fill="#3C1DA1" d="m80.033 61.555-38.028-11.43S51.317 38.863 53.82 37.01a18.2 18.2 0 0 1 10.1-3.553c-4.24 4.94-6.23 10.958-4.361 14.567 3.592 6.943 19.744 4.954 20.474 13.53" opacity=".25"/><path fill="#0A1640" d="M96.556 66.779a5.5 5.5 0 0 1-2.144-.437L41.876 50.55a.444.444 0 0 1-.213-.708c.382-.462 9.375-11.325 11.893-13.19a18.52 18.52 0 0 1 10.348-3.64c2.735-.103 5.411.39 7.949 1.47L99.088 46.06a6.18 6.18 0 0 1 3.75 6.222l-.799 9.44a5.45 5.45 0 0 1-2.648 4.259 5.47 5.47 0 0 1-2.836.798M42.774 49.893 94.69 65.498q.023.007.046.017a4.58 4.58 0 0 0 4.197-.294 4.58 4.58 0 0 0 2.222-3.573l.799-9.442a5.29 5.29 0 0 0-3.213-5.33L71.506 35.298a17.5 17.5 0 0 0-7.568-1.398 17.65 17.65 0 0 0-9.855 3.466c-2.128 1.577-9.454 10.303-11.308 12.527"/><path fill="#0A1640" d="M72.968 44.636c-.357 1.125-1.45 1.666-2.521 1.346-1.082-.324-1.687-1.534-1.355-2.526.359-1.073 1.445-1.644 2.53-1.31 1.108.34 1.692 1.42 1.346 2.49M83.816 50.273c-.974-.284-1.613-1.571-1.268-2.513.31-.85 1.253-1.686 2.556-1.3 2.48.735 1.425 4.604-1.288 3.813M76.753 51.599c-.645 0-1.24-.256-1.696-.745-1.003-1.075-1.108-3.01-.288-5.31a.444.444 0 0 1 .836.299c-.694 1.946-.656 3.593.102 4.405.391.419.931.559 1.518.395.891-.25 2.004-1.29 2.455-3.462a.444.444 0 0 1 .87.18c-.452 2.177-1.606 3.723-3.086 4.138-.24.067-.48.1-.71.1"/><path fill="#E38921" d="M78.425.306c-.204-.379-.69-.409-.957-.076-.286.358-.433.791-.605 1.21-1.272 3.1-3.022 4.516-3.737 5.204-.18.173-.362.813-.101 1.118.757.888 2.322 1.99 3.685 5.626.122.325.25.653.422.954.238.42.748.447 1.03.044.639-.909.677-2.354 2.807-4.853 1.25-1.465 2.466-1.926 1.422-2.815-2.602-2.215-3.493-5.534-3.966-6.412M39.37 3.524c-.235-.436-.795-.471-1.102-.087-.33.412-.5.91-.697 1.393-1.468 3.577-3.491 5.21-4.304 5.994-.206.199-.418.936-.117 1.288.182.213.366.426.569.619 2.86 2.713 3.53 5.852 4.16 6.959.276.483.862.514 1.188.05.227-.322.399-.695.536-1.068 2.136-5.82 6.132-6.231 4.335-7.762-2.996-2.552-4.023-6.374-4.568-7.386M69.969 128.034c-.106-.484-.635-.672-1.035-.387-.43.306-.731.739-1.054 1.148-2.396 3.034-4.791 4.046-5.79 4.576-.253.134-.66.784-.467 1.206.117.255.235.511.377.752 2.003 3.396 1.783 6.599 2.083 7.837.13.539.686.731 1.127.376.308-.249.575-.56.81-.881 3.657-5.007 7.612-4.301 6.305-6.268-2.177-3.279-2.11-7.235-2.356-8.359"/></svg>