<svg width="100" height="113" viewBox="0 0 100 113" fill="none" xmlns="http://www.w3.org/2000/svg">
<path d="M99.9199 74.4143C99.2681 63.7939 95.1093 59.1345 90.8813 57.1805C90.8965 56.9831 90.9101 56.7863 90.9227 56.5889C90.9688 55.8569 90.9955 55.1176 91.0023 54.3747C91.4279 54.205 91.8196 53.9511 92.1515 53.6223C92.8018 52.9788 93.1699 52.1033 93.1746 51.1881C93.1751 51.1473 93.1762 47.3366 91.7808 42.2684C92.2547 40.9741 92.9338 39.0928 93.6809 36.9388C95.5108 31.6695 96.912 27.1892 97.8466 23.6225C99.5733 17.0332 99.6503 14.021 98.1502 12.123C96.5502 10.0826 93.4097 8.95903 89.3074 8.95903C87.5105 8.95903 85.623 9.18051 83.6925 9.6088C83.6428 9.34596 83.5621 9.08574 83.4491 8.83442C82.8888 7.58882 81.6526 6.8003 80.3055 6.8003C80.2049 6.8003 80.1039 6.80449 80.0028 6.81339L73.412 7.39143L70.9464 2.01161C70.3788 0.773856 69.1463 0 67.8128 0C67.6573 0 67.4997 0.0104718 67.3421 0.0324623C65.8357 0.239801 64.6425 1.40896 64.4053 2.91112L63.3152 9.81509L56.8133 11.8618C55.3499 12.3225 54.3671 13.6943 54.4012 15.2279C54.4054 15.4326 54.4284 15.6342 54.4671 15.8295C54.4012 15.8284 53.7325 15.8248 53.7325 15.8248C49.9607 15.8248 46.372 16.2159 43.0268 16.9898C41.3901 15.6248 39.711 14.3944 38.0214 13.3221C30.2226 8.36791 23.7673 7.62809 20.6138 7.62809C16.5901 7.62809 13.4983 8.72866 11.915 10.7172C10.9354 11.9382 10.2547 13.5969 11.4574 19.3726C10.6956 19.8967 10.1563 20.7187 10.005 21.6764L8.91486 28.5803L2.413 30.627C0.95011 31.0878 -0.0331765 32.459 0.000856424 33.9931C0.0348893 35.5267 1.07787 36.8535 2.56013 37.2482L6.85247 38.3928L6.34093 43.7072C6.19695 45.2041 7.03992 46.6214 8.42375 47.2105C8.86041 47.3963 9.31855 47.4859 9.77302 47.4859C10.7584 47.4859 11.7223 47.0628 12.3925 46.2811L16.2398 41.7929L16.4272 41.8987C15.1209 45.956 14.8313 48.9362 14.7978 49.3268C14.6779 50.7237 15.4083 51.9971 16.5592 52.6374C16.5053 53.2558 16.4539 53.9045 16.4115 54.57C11.9626 55.8527 6.59069 59.8801 5.09114 71.5367C3.26541 85.7101 9.38242 91.203 14.0062 93.3172C13.891 97.8001 14.8125 100.967 16.8006 102.955C17.7571 103.912 20.2463 106.401 38.4952 108.235C40.3738 110.821 44.0641 112.479 48.3601 112.479C54.6389 112.479 59.5574 108.881 59.5574 104.287C59.5574 100.242 55.7431 96.9718 50.5455 96.2472C50.6989 96.121 50.8455 95.9849 50.9785 95.8304L54.8258 91.3423L59.6313 94.0581C60.1611 94.3576 60.7454 94.5047 61.3271 94.5047C62.1371 94.5047 62.9408 94.2199 63.5822 93.6654C64.6843 92.7135 65.0697 91.1716 64.5446 89.8134L62.69 85.0137L66.8604 81.069C67.9264 80.0606 68.2379 78.4883 67.6358 77.15C67.0756 75.9044 65.8394 75.1159 64.4922 75.1159C64.3917 75.1159 64.2906 75.1201 64.1896 75.129L57.5987 75.7075L55.5442 71.2246C55.7745 71.3241 56.008 71.4162 56.2452 71.4937C56.8112 71.6765 57.3416 71.7655 57.8678 71.7655C57.8846 71.7655 57.9176 71.7655 57.9343 71.765C58.5752 71.7555 59.2543 71.6084 60.137 71.2885C60.6737 71.0937 61.2298 70.8592 61.7868 70.6C62.6403 71.5932 63.856 72.1555 65.1949 72.1555C65.2132 72.1555 65.253 72.155 65.2718 72.1545C66.298 72.1377 67.2358 71.7864 67.9871 71.1592C68.7259 71.689 69.5888 71.9739 70.5087 71.9927C70.3757 73.4148 70.2951 74.9677 70.2846 76.673C70.2291 85.5535 71.9197 90.1344 73.3319 92.3879C73.8015 93.1528 74.2068 93.5837 74.4062 93.7733C74.4895 93.8518 74.5764 93.9261 74.667 93.9963C76.3639 95.3084 78.9473 96.2262 81.7752 96.5153C82.0223 96.5388 82.2841 96.5629 82.5789 96.5828C82.9276 96.6032 83.281 96.6137 83.6381 96.6137C83.6381 96.6137 83.6381 96.6137 83.6391 96.6137C88.1634 96.6137 92.2327 94.9361 95.0967 91.8905C98.7696 87.984 100.393 82.1036 99.9199 74.4143Z" fill="white"/>
<path d="M19.1982 87.4009C19.1982 87.4009 17.1426 97.0474 19.9888 99.8936C22.8356 102.74 43.5517 104.322 43.5517 104.322" stroke="#2C1845" stroke-width="3.5488" stroke-miterlimit="10"/>
<path d="M48.4536 109.066C52.733 109.066 56.2021 106.942 56.2021 104.322C56.2021 101.702 52.733 99.5776 48.4536 99.5776C44.1742 99.5776 40.7051 101.702 40.7051 104.322C40.7051 106.942 44.1742 109.066 48.4536 109.066Z" fill="#2C1845"/>
<path d="M21.6335 46.4502C21.4738 48.1367 21.3146 49.8231 21.155 51.5096C20.8256 54.9914 20.4989 58.5277 21.1429 61.965" stroke="#2C1845" stroke-width="3.5488" stroke-miterlimit="10"/>
<path d="M86.1699 47.563C86.672 50.4584 86.8328 53.4135 86.6474 56.3461C86.4799 59.0022 86.0301 61.6599 86.2694 64.3103" stroke="#2C1845" stroke-width="3.5488" stroke-miterlimit="10"/>
<path d="M41.8998 20.5183L33.4329 29.6564L24.4016 39.4145L22.1413 41.8564C22.1413 41.8564 20.98 38.7212 19.5516 34.5032C16.8562 26.5516 13.2226 14.7484 14.698 12.9096C16.6112 10.5069 25.71 9.56131 36.2655 16.2668C38.1074 17.436 39.9939 18.8423 41.8998 20.5183Z" fill="#2C1845"/>
<path d="M33.4331 29.6563L24.4018 39.4143C22.4939 38.0766 21.9112 35.5733 21.2844 33.4685C21.1446 32.9926 21.0033 32.5104 20.8692 32.0329C20.0388 29.1621 19.3126 26.2724 18.6806 23.3539C18.355 21.8397 18.0581 20.2611 18.4655 18.7747C18.6021 18.283 18.8335 17.7883 19.276 17.5354C19.7079 17.2914 20.2483 17.3401 20.731 17.4657C22.2117 17.8485 23.4405 18.8527 24.5772 19.8726C25.7056 20.8821 26.7983 21.9314 27.8386 23.0251C29.8597 25.1006 31.7252 27.3217 33.4331 29.6563Z" fill="#FF92DF"/>
<path opacity="0.4" d="M41.8999 20.5186L33.433 29.6567L24.4017 39.4147L22.1414 41.8567C22.1414 41.8567 20.9801 38.7215 19.5518 34.5035C19.9544 33.6616 20.3947 32.8422 20.8691 32.0338C22.7739 28.7477 25.1777 25.7361 27.8385 23.026C28.2736 22.5836 28.716 22.1459 29.1616 21.7207C31.3271 19.6521 33.6623 17.7336 36.2656 16.2671C38.1076 17.4363 39.994 18.8426 41.8999 20.5186Z" fill="#2C1845"/>
<path d="M68.2734 21.6923L76.6722 30.8927L85.6313 40.7172L87.8738 43.1754C87.8738 43.1754 89.0587 40.0491 90.5174 35.8416C93.2714 27.9098 96.9925 16.1339 95.5307 14.2841C93.6353 11.8672 84.5438 10.8546 73.9386 17.4816C72.0883 18.6377 70.1918 20.0304 68.2734 21.6923Z" fill="#2C1845"/>
<path d="M76.6729 30.893L85.6319 40.7175C87.5498 39.3939 88.1509 36.8948 88.7933 34.7952C88.9368 34.3203 89.0818 33.8392 89.219 33.3627C90.0703 30.4982 90.8185 27.6143 91.4714 24.7005C91.8086 23.1889 92.117 21.6124 91.7206 20.1228C91.5877 19.6302 91.3599 19.1333 90.9196 18.8772C90.4897 18.6301 89.9488 18.6746 89.4656 18.7971C87.9823 19.1689 86.7461 20.1642 85.6015 21.1752C84.4659 22.1763 83.3653 23.2172 82.3171 24.3037C80.2798 26.364 78.3981 28.5709 76.6729 30.893Z" fill="#FF92DF"/>
<path opacity="0.4" d="M68.2734 21.6921L76.6722 30.8925L85.6313 40.717L87.8738 43.1753C87.8738 43.1753 89.0587 40.0489 90.5174 35.8414C90.121 34.9964 89.6869 34.1738 89.2183 33.3617C87.3382 30.0616 84.9569 27.0327 82.3159 24.3027C81.884 23.8571 81.4447 23.4163 81.0023 22.9874C78.8519 20.9031 76.5309 18.9674 73.9386 17.4814C72.0883 18.6375 70.1918 20.0302 68.2734 21.6921Z" fill="#2C1845"/>
<path d="M31.162 75.5921C30.6416 84.2014 28.6781 87.9361 27.7058 89.2802C27.3713 89.7509 27.1545 89.9304 27.1545 89.9304C26.0026 90.7048 23.9957 91.3054 21.7166 91.386C21.4998 91.3923 21.2705 91.3986 21.0417 91.3986C14.6744 91.3425 6.6473 87.2052 8.60445 72.0124C10.2951 58.8694 17.0467 57.0484 21.9642 57.5808C22.1872 57.6054 22.404 57.6369 22.6208 57.6678C25.346 58.083 27.3712 59.1479 27.3712 59.1479C27.3712 59.1479 27.588 59.2657 27.9163 59.594C29.1179 60.7705 31.8249 64.6848 31.162 75.5921Z" fill="#A278FF"/>
<path d="M31.1625 75.5923C30.6421 84.2016 28.6786 87.9363 27.7063 89.2804C27.2911 87.8683 27.0309 86.4001 26.8141 84.9509C26.2937 81.4329 25.978 77.8778 25.879 74.3226C25.7863 71.0712 25.8727 67.7946 26.4984 64.6049C26.8267 62.8891 27.4461 61.2603 27.9168 59.5942C29.1184 60.7707 31.8254 64.685 31.1625 75.5923Z" fill="#2C1845"/>
<path d="M21.7163 91.3862C21.4995 91.3925 21.2702 91.3988 21.0414 91.3988C18.5764 85.9111 17.381 79.804 17.6287 73.8273C17.8638 68.2161 19.3753 62.598 21.9645 57.5811C22.1875 57.6057 22.4043 57.6371 22.621 57.668C20.0073 62.6541 18.4837 68.2533 18.2481 73.8525C17.9999 79.8286 19.2141 85.9231 21.7163 91.3862Z" fill="#2C1845"/>
<path d="M73.8255 76.7293C73.771 85.3543 75.4816 89.2116 76.3623 90.6174C76.6644 91.1096 76.8691 91.3033 76.8691 91.3033C77.967 92.1525 79.9294 92.8855 82.1981 93.1175C82.4138 93.1379 82.6421 93.1594 82.8709 93.1746C89.2277 93.5432 97.5124 89.9493 96.5715 74.6596C95.7595 61.4329 89.145 59.1668 84.2024 59.3705C83.9783 59.3804 83.76 59.3966 83.5416 59.4134C80.7949 59.6459 78.7032 60.5742 78.7032 60.5742C78.7032 60.5742 78.4791 60.6773 78.1299 60.9831C76.8523 62.0769 73.8909 65.8022 73.8255 76.7293Z" fill="#A278FF"/>
<path d="M73.8255 76.7292C73.771 85.3541 75.4816 89.2114 76.3623 90.6172C76.8701 89.236 77.2277 87.7883 77.5403 86.3568C78.2937 82.8813 78.8456 79.3549 79.1812 75.8145C79.4907 72.5761 79.6221 69.3011 79.2105 66.0769C78.9974 64.3433 78.488 62.6767 78.1288 60.9829C76.8523 62.0767 73.8909 65.802 73.8255 76.7292Z" fill="#2C1845"/>
<path d="M82.1982 93.1172C82.414 93.1376 82.6422 93.159 82.871 93.1742C85.6963 87.863 87.2958 81.8491 87.4466 75.8688C87.5854 70.2538 86.4518 64.5484 84.2025 59.3701C83.9784 59.3801 83.7601 59.3963 83.5417 59.4131C85.8178 64.562 86.9649 70.2502 86.8272 75.8525C86.6759 81.8329 85.0591 87.8332 82.1982 93.1172Z" fill="#2C1845"/>
<path d="M89.8198 51.2044L83.6264 51.1698C83.6258 50.1426 83.2766 25.7844 54.2748 25.5027C27.1171 25.2566 24.5908 49.1781 24.4971 50.197L18.3271 49.6556C18.3544 49.341 19.0476 41.8589 23.8143 34.3874C28.2166 27.4866 36.9903 19.3066 53.8261 19.3066C53.9952 19.3066 54.1643 19.3077 54.335 19.3093C89.5868 19.6517 89.8219 50.8892 89.8198 51.2044Z" fill="#FF92DF"/>
<path d="M40.0457 47.8505C39.9493 48.3752 39.7928 48.9213 39.5744 49.4883C39.3566 50.0559 39.0744 50.5747 38.7273 51.0454C38.3801 51.5161 37.965 51.9036 37.4812 52.2073C36.9974 52.512 36.4418 52.6685 35.8141 52.6785C35.3491 52.6858 34.9287 52.5994 34.5543 52.4193C34.1794 52.2392 33.8381 51.9952 33.5312 51.6858C33.2239 51.3769 32.9569 51.0208 32.7296 50.6171C32.5024 50.214 32.3123 49.7951 32.1605 49.3616C32.0081 48.9281 31.894 48.4966 31.817 48.0673C31.7401 47.6385 31.6992 47.2379 31.6935 46.8657C31.6851 46.3426 31.7254 45.7813 31.8149 45.1808C31.9039 44.5802 32.0432 43.9854 32.2317 43.3948C32.4197 42.8048 32.661 42.2372 32.9548 41.6916C33.248 41.1466 33.5983 40.6644 34.004 40.245C34.4103 39.8261 34.87 39.4873 35.3837 39.2292C35.8968 38.9711 36.4733 38.837 37.1126 38.8271C37.5194 38.8203 37.899 38.8931 38.2498 39.0444C38.6011 39.1957 38.9064 39.4004 39.1666 39.658C39.4263 39.9156 39.6315 40.223 39.7828 40.5811C39.9341 40.9392 40.0127 41.3157 40.019 41.711L40.0216 41.8681C40.0247 42.0775 40.02 42.3362 40.0074 42.644C39.9949 42.9524 39.9441 43.2467 39.8556 43.5273C39.7671 43.8079 39.631 44.0514 39.4488 44.2577C39.2661 44.4645 39.0058 44.5698 38.6686 44.575C38.2618 44.5813 37.9524 44.4938 37.7403 44.3106C37.5283 44.1284 37.4188 43.8221 37.412 43.3917C37.4094 43.2289 37.4126 43.066 37.422 42.9032C37.4309 42.7404 37.4346 42.5775 37.4314 42.4147C37.4272 42.1707 37.3838 41.9827 37.301 41.8503C37.2173 41.7183 37.0471 41.6539 36.7916 41.6581C36.501 41.6628 36.2408 41.7602 36.0115 41.9492C35.7821 42.1393 35.5826 42.3859 35.413 42.6911C35.2434 42.9964 35.0978 43.342 34.9758 43.7273C34.8538 44.1127 34.7549 44.5012 34.68 44.8918C34.6046 45.2829 34.5528 45.6583 34.5234 46.0196C34.4941 46.3808 34.4815 46.6892 34.4857 46.9447C34.4889 47.1536 34.5046 47.3945 34.5323 47.6678C34.5596 47.9411 34.613 48.2013 34.6931 48.45C34.7721 48.6987 34.8889 48.9092 35.0428 49.081C35.1968 49.2532 35.3957 49.337 35.6402 49.3333C36.0586 49.3265 36.3931 49.1909 36.645 48.9249C36.8963 48.6595 37.0654 48.3223 37.1523 47.9139C36.989 47.8935 36.8288 47.8579 36.6707 47.8081C36.5131 47.7584 36.3664 47.6856 36.2314 47.5887C36.0957 47.4924 35.9869 47.3715 35.9031 47.2275C35.8198 47.0835 35.7759 46.9128 35.7727 46.7149C35.7675 46.3547 35.8847 46.0709 36.1251 45.863C36.3664 45.6557 36.6518 45.497 36.9811 45.3871C37.311 45.2771 37.6497 45.2049 37.9985 45.1703C38.3466 45.1358 38.6252 45.1169 38.8346 45.1132C38.9854 45.1106 39.2069 45.1185 39.498 45.1373C39.7891 45.1562 40.0776 45.2012 40.364 45.2719C40.6499 45.3431 40.8981 45.4468 41.1096 45.5829C41.3211 45.719 41.4285 45.8981 41.4321 46.119C41.4389 46.5609 41.3258 46.9437 41.0928 47.2667C40.8583 47.5903 40.5101 47.7851 40.0457 47.8505Z" fill="#2C1845"/>
<path d="M50.3592 49.292C50.3629 49.5245 50.3472 49.8041 50.3116 50.1303C50.276 50.4565 50.2027 50.7685 50.0912 51.067C49.9791 51.3654 49.8263 51.6178 49.632 51.8235C49.4372 52.0304 49.1775 52.1361 48.8519 52.1408C48.422 52.1476 48.0968 51.9958 47.8769 51.6858C47.6565 51.3754 47.4968 51.0031 47.3968 50.5685C47.2973 50.1339 47.235 49.6905 47.2104 49.2376C47.1858 48.7841 47.1654 48.4239 47.1497 48.1569C46.3146 48.3098 45.4915 48.4449 44.6789 48.5616C44.66 48.8297 44.6161 49.1622 44.5464 49.558C44.4773 49.9549 44.3668 50.3371 44.216 50.7057C44.0653 51.0743 43.8663 51.3947 43.6207 51.666C43.3746 51.9372 43.072 52.0754 42.7118 52.0812C42.4327 52.0859 42.2133 51.9874 42.0531 51.7864C41.8929 51.5858 41.7693 51.3466 41.684 51.0685C41.5981 50.791 41.5437 50.5041 41.5222 50.2078C41.4997 49.9114 41.4871 49.6648 41.484 49.4669C41.4735 48.8046 41.5154 48.1496 41.6096 47.5029C41.7044 46.8563 41.8165 46.2123 41.9458 45.5704C42.0102 45.2322 42.0966 44.8353 42.206 44.3803C42.3149 43.9253 42.45 43.4551 42.6107 42.9698C42.7715 42.4849 42.9621 42.0048 43.1809 41.5304C43.4003 41.0561 43.6522 40.6304 43.937 40.2539C44.2218 39.8775 44.548 39.5706 44.9166 39.3314C45.2852 39.0931 45.6957 38.9701 46.1491 38.9633C46.591 38.956 46.9759 39.0486 47.3052 39.2413C47.6335 39.434 47.923 39.6911 48.1717 40.0126C48.421 40.3346 48.6299 40.7 48.7995 41.1105C48.9686 41.5205 49.1121 41.9372 49.2294 42.3593C49.3466 42.7823 49.4461 43.1959 49.5283 43.6017C49.61 44.0075 49.6828 44.3667 49.7461 44.6793C49.909 45.4327 50.0488 46.195 50.1661 46.9663C50.2823 47.7385 50.3467 48.5135 50.3592 49.292ZM46.9266 45.1081C46.924 44.9688 46.912 44.7389 46.89 44.4201C46.8675 44.1007 46.8245 43.7818 46.7612 43.4624C46.6978 43.1436 46.6036 42.8608 46.4774 42.6121C46.3512 42.364 46.1837 42.2414 45.9742 42.2451C45.858 42.2467 45.7486 42.3273 45.6465 42.486C45.5444 42.6446 45.4543 42.8436 45.3768 43.0834C45.2993 43.3232 45.2302 43.5886 45.1716 43.8808C45.1119 44.1724 45.0611 44.4525 45.0192 44.7196C44.9768 44.9882 44.9454 45.2301 44.926 45.4453C44.9056 45.661 44.891 45.8149 44.881 45.9086C45.5774 45.8395 46.2617 45.7411 46.934 45.6144L46.9266 45.1081Z" fill="#2C1845"/>
<path d="M63.4295 49.766C63.3991 50.0686 63.3546 50.366 63.2955 50.6571C63.2358 50.9493 63.1619 51.209 63.0724 51.4373C62.9824 51.665 62.8666 51.8472 62.7232 51.9828C62.5802 52.119 62.4158 52.1886 62.2294 52.1912C62.0436 52.1944 61.8723 52.0546 61.7174 51.7718C61.5613 51.4896 61.4126 51.1142 61.2723 50.6451C61.131 50.1765 61.0006 49.6466 60.8812 49.0555C60.7608 48.4643 60.6529 47.8643 60.5561 47.2554C60.4592 46.6465 60.377 46.0522 60.31 45.4715C60.2424 44.8914 60.188 44.3862 60.1461 43.9568C60.0838 44.3998 60.01 44.8951 59.9257 45.4427C59.8414 45.9909 59.7398 46.548 59.6209 47.113C59.5016 47.679 59.3707 48.2329 59.2288 48.7764C59.0858 49.3194 58.9309 49.8042 58.7633 50.2314C58.5958 50.6587 58.4151 51.0016 58.2214 51.2603C58.0277 51.5195 57.8209 51.6503 57.6004 51.654C57.4025 51.6572 57.203 51.5268 57.0009 51.2629C56.7988 50.9985 56.6014 50.6498 56.4088 50.2168C56.2161 49.7838 56.0339 49.3016 55.8627 48.7691C55.6914 48.2371 55.5318 47.702 55.3836 47.1632C55.2359 46.625 55.1056 46.1156 54.9935 45.6349C54.8815 45.1543 54.7935 44.7516 54.7301 44.4265C54.7338 44.6705 54.7349 44.9412 54.7343 45.2375C54.7328 45.5344 54.7333 45.7469 54.7354 45.8742C54.7364 45.9328 54.7364 46.1245 54.7359 46.4496C54.7349 46.7747 54.7213 47.1648 54.693 47.6188C54.6652 48.0727 54.6202 48.5591 54.5589 49.0775C54.4972 49.5958 54.4034 50.0765 54.2767 50.5205C54.1495 50.9645 53.9898 51.3393 53.7971 51.6441C53.6039 51.9498 53.3626 52.1163 53.072 52.1441C52.8379 52.043 52.6411 51.8687 52.4803 51.621C52.3196 51.3739 52.1834 51.0828 52.074 50.7472C51.9641 50.4116 51.8766 50.0524 51.8127 49.6696C51.7483 49.2869 51.696 48.9131 51.6557 48.5476C51.6148 48.1821 51.5892 47.8418 51.5787 47.5282C51.5677 47.2146 51.5609 46.9585 51.5578 46.7611C51.5525 46.4124 51.5656 45.9731 51.5981 45.4433C51.6305 44.9139 51.6881 44.3584 51.7724 43.7751C51.8562 43.1924 51.9688 42.6091 52.1112 42.0253C52.2531 41.442 52.4274 40.9185 52.6358 40.4561C52.8432 39.9938 53.0871 39.6147 53.3678 39.32C53.6474 39.0247 53.9741 38.8744 54.3464 38.8681C54.5207 38.8655 54.7082 38.9613 54.9087 39.1561C55.1097 39.3509 55.3108 39.6058 55.514 39.9226C55.7166 40.2394 55.914 40.5938 56.1066 40.986C56.2988 41.3782 56.4821 41.774 56.6569 42.1719C56.8318 42.5704 56.9863 42.9521 57.1198 43.316C57.2533 43.6798 57.3627 43.9898 57.4486 44.2443C57.5371 43.9636 57.6486 43.6364 57.7816 43.262C57.9151 42.8882 58.0633 42.4986 58.2256 42.095C58.3879 41.6913 58.5675 41.2933 58.7649 40.9007C58.9618 40.508 59.1686 40.1556 59.3848 39.8441C59.6005 39.5325 59.8209 39.2796 60.0445 39.0838C60.2681 38.8885 60.4959 38.789 60.7283 38.7854C61.1352 38.7786 61.4865 38.9247 61.7818 39.2221C62.0771 39.5194 62.3279 39.9085 62.5326 40.3876C62.7378 40.8666 62.9033 41.4054 63.0289 42.0018C63.1541 42.5992 63.2541 43.1903 63.3274 43.7762C63.4002 44.3621 63.4499 44.9108 63.4756 45.4218C63.5007 45.9333 63.5164 46.3454 63.5211 46.659C63.5232 46.7873 63.5258 46.9617 63.5295 47.1821C63.5326 47.403 63.5337 47.6528 63.5326 47.9324C63.5311 48.2115 63.5211 48.5083 63.5028 48.8225C63.4834 49.1372 63.4593 49.4513 63.4295 49.766Z" fill="#2C1845"/>
<path d="M72.3967 48.7868C72.3998 49.0073 72.3454 49.2235 72.2333 49.4345C72.1197 49.634 71.8501 49.8712 71.4244 50.145C70.9982 50.4194 70.5254 50.6801 70.0065 50.9262C69.4871 51.1728 68.985 51.3843 68.4991 51.5603C68.0132 51.7362 67.6546 51.8268 67.4221 51.8304C67.2593 51.833 67.0666 51.798 66.8446 51.7262C66.6226 51.6535 66.4001 51.5618 66.1776 51.4487C65.9545 51.3367 65.7519 51.2058 65.5697 51.0576C65.387 50.9094 65.254 50.766 65.1702 50.6278C65.1225 50.5477 65.0765 50.3853 65.0325 50.1419C64.9875 49.8984 64.9482 49.6141 64.9142 49.289C64.8796 48.9643 64.8482 48.6188 64.8194 48.2528C64.7906 47.8868 64.7644 47.5386 64.7419 47.2072C64.7194 46.8763 64.7032 46.5826 64.6932 46.3276C64.6833 46.0721 64.6775 45.8862 64.6754 45.7694C64.6686 45.3396 64.6754 44.8448 64.6953 44.2866C64.7157 43.728 64.7623 43.1667 64.8346 42.6012C64.9068 42.0363 65.0173 41.4938 65.166 40.9744C65.3147 40.4545 65.5199 40.0126 65.7817 39.6477C65.8613 39.5419 66.0226 39.4288 66.265 39.3089C66.5074 39.189 66.7928 39.0738 67.1226 38.9644C67.4525 38.8545 67.808 38.7497 68.1902 38.6508C68.5724 38.5518 68.94 38.467 69.2939 38.3979C69.6474 38.3283 69.9688 38.2707 70.2589 38.2256C70.549 38.1806 70.7699 38.1565 70.9207 38.1544C71.0951 38.1518 71.261 38.1869 71.4192 38.2602C71.5773 38.333 71.7124 38.4325 71.8249 38.5592C71.9375 38.6853 72.027 38.8262 72.093 38.9822C72.1595 39.1382 72.1935 39.3027 72.1967 39.4775C72.1993 39.6288 72.1815 39.7571 72.1422 39.8624C72.1035 39.9676 72.0438 40.0849 71.9647 40.2142C71.8506 40.3671 71.6092 40.5514 71.2406 40.7666C70.872 40.9818 70.4709 41.1944 70.0385 41.4048C69.606 41.6153 69.1903 41.8049 68.7918 41.9734C68.3934 42.1431 68.1127 42.2635 67.9515 42.3352C67.9091 42.6038 67.864 42.8745 67.8159 43.1489C67.7682 43.4227 67.7347 43.6997 67.7158 43.9793C68.0729 43.7877 68.4771 43.607 68.9285 43.4369C69.3793 43.2667 69.8081 43.1787 70.2149 43.1725C71.0401 43.1594 71.4595 43.5599 71.472 44.373C71.4752 44.5709 71.4401 44.7458 71.3668 44.8982C71.2935 45.0505 71.1966 45.1856 71.0767 45.304C70.9563 45.4223 70.8186 45.526 70.6631 45.616C70.5071 45.7061 70.3547 45.7925 70.205 45.8762C69.8359 46.0804 69.4494 46.2574 69.0447 46.4092C68.64 46.5611 68.2352 46.7098 67.831 46.8553C67.809 46.9491 67.7876 47.0512 67.7661 47.1616C67.7447 47.2726 67.7347 47.3805 67.7363 47.4852C67.7389 47.648 67.753 47.8104 67.7787 47.9732C67.8049 48.136 67.8305 48.2978 67.8562 48.4601C67.9949 48.412 68.2174 48.3324 68.5237 48.2229C68.83 48.1135 69.151 48.0036 69.4866 47.8941C69.8222 47.7842 70.1458 47.6889 70.4584 47.6083C70.771 47.5276 71.0029 47.4863 71.1542 47.4836C71.3286 47.481 71.4919 47.5161 71.6443 47.5894C71.7967 47.6627 71.926 47.7596 72.0323 47.88C72.1386 48.0004 72.2255 48.1418 72.292 48.303C72.3595 48.4622 72.3935 48.6245 72.3967 48.7868Z" fill="#2C1845"/>
<path d="M41.347 68.9627C40.638 68.9737 40.0192 68.8061 39.4909 68.4605C38.962 68.1145 38.5212 67.6448 38.1693 67.0516C37.817 66.4584 37.5494 65.7678 37.3688 64.9792C37.1881 64.1918 37.0902 63.3619 37.0766 62.4901C37.0635 61.6765 37.1405 60.8492 37.3075 60.0099C37.4746 59.1696 37.7384 58.4098 38.1002 57.7297C38.4615 57.0496 38.9233 56.4904 39.4861 56.0511C40.049 55.6118 40.726 55.3861 41.5166 55.3736C42.2837 55.3615 42.9292 55.5579 43.4528 55.9621C43.9764 56.3668 44.3979 56.8946 44.7162 57.547C45.0346 58.1988 45.267 58.9308 45.4136 59.7418C45.5602 60.5539 45.6398 61.367 45.6529 62.1802C45.6671 63.087 45.5906 63.9457 45.4231 64.7567C45.2555 65.5677 44.9937 66.2835 44.6372 66.906C44.2806 67.5275 43.8288 68.0228 43.2827 68.3919C42.7366 68.7605 42.091 68.9506 41.347 68.9627ZM41.403 59.2298C41.182 59.2334 40.9951 59.324 40.8407 59.5005C40.6862 59.6774 40.559 59.9088 40.459 60.1952C40.359 60.4822 40.2883 60.8026 40.2474 61.1581C40.2066 61.5136 40.1888 61.8712 40.1946 62.2315C40.2008 62.6383 40.2338 63.0451 40.2925 63.4509C40.3511 63.8572 40.4354 64.2216 40.5448 64.5452C40.6548 64.8693 40.7899 65.129 40.9496 65.3243C41.1093 65.5196 41.2998 65.6154 41.5208 65.6117C41.7768 65.6075 41.9779 65.4761 42.125 65.218C42.2721 64.9604 42.3868 64.6499 42.468 64.2881C42.5491 63.9268 42.6015 63.553 42.625 63.1697C42.6475 62.7849 42.6575 62.4655 42.6533 62.21C42.6481 61.8959 42.6224 61.5649 42.5763 61.2173C42.5303 60.8691 42.458 60.5476 42.3606 60.2523C42.2627 59.9575 42.1371 59.7125 41.9826 59.5172C41.8287 59.3219 41.6355 59.2261 41.403 59.2298Z" fill="#2C1845"/>
<path d="M54.948 56.6261C54.9548 57.0445 54.9098 57.5136 54.8129 58.0325C54.7166 58.5513 54.594 59.0796 54.4459 59.6168C54.2972 60.154 54.1369 60.6771 53.9647 61.186C53.7924 61.6939 53.6401 62.1531 53.5071 62.562C53.4175 62.8191 53.3212 63.1374 53.2165 63.5175C53.1123 63.8966 52.9908 64.2971 52.8521 64.7181C52.7133 65.1391 52.5604 65.56 52.3924 65.981C52.2243 66.4025 52.0384 66.7805 51.8342 67.1151C51.6306 67.4491 51.4049 67.7235 51.1583 67.9366C50.9117 68.1497 50.6431 68.2586 50.3525 68.2633C50.1085 68.2675 49.8713 68.1601 49.6409 67.9428C49.4106 67.7256 49.1912 67.447 48.9823 67.1083C48.7734 66.7685 48.5754 66.3878 48.3885 65.9663C48.2016 65.5443 48.0325 65.1317 47.8807 64.7265C47.7288 64.3223 47.6005 63.9463 47.4969 63.5987C47.3927 63.2521 47.3152 62.9861 47.266 62.8007C47.0188 61.8976 46.7837 60.9855 46.5602 60.0645C46.3366 59.1435 46.2167 58.2183 46.202 57.2885C46.1984 57.056 46.2062 56.8146 46.2256 56.5643C46.245 56.3146 46.2989 56.0837 46.3895 55.8732C46.479 55.6627 46.6068 55.4889 46.7733 55.3522C46.9398 55.2166 47.1738 55.1454 47.4759 55.1407C47.732 55.1365 47.9697 55.2753 48.1896 55.557C48.4084 55.8381 48.6095 56.2041 48.7906 56.6549C48.9723 57.1057 49.1399 57.6089 49.2943 58.1644C49.4488 58.7205 49.5938 59.2671 49.73 59.8058C49.8666 60.3441 49.9965 60.8483 50.12 61.3169C50.2436 61.7855 50.3661 62.1583 50.487 62.4358C50.553 62.2023 50.6494 61.8604 50.7761 61.4106C50.9023 60.9614 51.0515 60.4682 51.2237 59.9305C51.3949 59.3927 51.5845 58.8409 51.7903 58.2733C51.996 57.7058 52.2149 57.1911 52.4458 56.7277C52.6767 56.2654 52.9181 55.8863 53.1694 55.5915C53.4202 55.2967 53.6793 55.1475 53.9474 55.1428C54.1448 55.1397 54.3082 55.1842 54.4375 55.2748C54.5668 55.3659 54.6673 55.4863 54.7401 55.636C54.8119 55.7868 54.8642 55.9481 54.8962 56.1224C54.9281 56.2957 54.9454 56.4633 54.948 56.6261Z" fill="#2C1845"/>
<path d="M62.9515 65.3074C62.9551 65.5289 62.9007 65.7446 62.7876 65.9556C62.674 66.1551 62.4048 66.3918 61.9786 66.6656C61.5524 66.9405 61.0802 67.2007 60.5608 67.4468C60.0419 67.6934 59.5393 67.9044 59.0534 68.0808C58.568 68.2568 58.2088 68.3473 57.9764 68.351C57.8135 68.3536 57.6209 68.3185 57.3989 68.2463C57.1769 68.174 56.9543 68.0819 56.7318 67.9693C56.5088 67.8567 56.3061 67.7264 56.1239 67.5777C55.9407 67.429 55.8082 67.286 55.7244 67.1483C55.6763 67.0677 55.6307 66.9054 55.5862 66.6619C55.5417 66.419 55.5019 66.1347 55.4679 65.8095C55.4333 65.4844 55.4019 65.1388 55.3731 64.7728C55.3443 64.4074 55.3187 64.0587 55.2956 63.7272C55.2731 63.3958 55.2569 63.1031 55.2469 62.8476C55.237 62.5916 55.2312 62.4062 55.2291 62.2895C55.2223 61.8596 55.2291 61.3654 55.2495 60.8072C55.27 60.2486 55.316 59.6873 55.3888 59.1213C55.4611 58.5569 55.5715 58.0139 55.7202 57.494C55.8689 56.9746 56.0742 56.5322 56.336 56.1677C56.4156 56.062 56.5768 55.9489 56.8192 55.8285C57.0617 55.7086 57.3475 55.5934 57.6774 55.4839C58.0067 55.374 58.3628 55.2693 58.7445 55.1703C59.1267 55.0714 59.4948 54.9871 59.8482 54.9174C60.2016 54.8478 60.5231 54.7907 60.8131 54.7452C61.1032 54.7001 61.3242 54.6761 61.475 54.674C61.6493 54.6713 61.8153 54.7064 61.9734 54.7797C62.1315 54.853 62.2671 54.9525 62.3792 55.0787C62.4917 55.2049 62.5813 55.3457 62.6478 55.5018C62.7137 55.6578 62.7483 55.8227 62.7514 55.9971C62.7541 56.1484 62.7357 56.2767 62.697 56.3814C62.6577 56.4866 62.5986 56.6039 62.519 56.7332C62.4048 56.8861 62.1635 57.0704 61.7949 57.2856C61.4263 57.5008 61.0257 57.7134 60.5932 57.9238C60.1602 58.1343 59.745 58.3239 59.3461 58.493C58.9476 58.6621 58.6675 58.783 58.5057 58.8548C58.4633 59.1234 58.4188 59.3941 58.3706 59.6684C58.3224 59.9423 58.2895 60.2192 58.2701 60.4983C58.6272 60.3067 59.0314 60.126 59.4827 59.9559C59.9335 59.7862 60.3623 59.6978 60.7692 59.6915C61.5943 59.6784 62.0137 60.0789 62.0268 60.8926C62.0299 61.0905 61.9949 61.2654 61.9216 61.4172C61.8483 61.5696 61.7514 61.7046 61.6315 61.823C61.5111 61.9413 61.3734 62.045 61.2179 62.1345C61.0624 62.2246 60.9095 62.3115 60.7597 62.3947C60.3911 62.5984 60.0042 62.7759 59.5995 62.9277C59.1947 63.0796 58.79 63.2283 58.3858 63.3738C58.3633 63.4675 58.3424 63.5696 58.3204 63.6801C58.2989 63.7911 58.2895 63.899 58.2905 64.0037C58.2931 64.1665 58.3073 64.3288 58.3329 64.4912C58.3586 64.6535 58.3842 64.8158 58.4104 64.9781C58.5492 64.9299 58.7717 64.8503 59.078 64.7409C59.3843 64.6315 59.7058 64.5215 60.0408 64.4121C60.3765 64.3021 60.7001 64.2074 61.0132 64.1267C61.3257 64.0461 61.5577 64.0042 61.709 64.0021C61.8833 63.9995 62.0467 64.0351 62.1991 64.1084C62.3509 64.1817 62.4808 64.2781 62.587 64.399C62.6938 64.5194 62.7802 64.6603 62.8467 64.8215C62.9143 64.9828 62.9488 65.1446 62.9515 65.3074Z" fill="#2C1845"/>
<path d="M72.1441 58.7267C72.1566 59.5288 71.9823 60.2524 71.6205 60.898C71.2582 61.543 70.7733 62.1148 70.1644 62.6127C70.355 62.8892 70.5519 63.2117 70.7555 63.5803C70.9592 63.9494 71.1425 64.339 71.3063 64.7489C71.4702 65.1589 71.6043 65.5704 71.7095 65.9809C71.8147 66.3925 71.8702 66.7726 71.8755 67.1208C71.8817 67.4925 71.7964 67.8276 71.621 68.1271C71.4451 68.4266 71.1425 68.58 70.7126 68.5868C70.3519 68.592 70.0387 68.4224 69.7717 68.0784C69.5042 67.7334 69.2654 67.3218 69.0544 66.8427C68.8429 66.3637 68.6492 65.8757 68.4732 65.3783C68.2963 64.8814 68.1298 64.4819 67.9748 64.1819C67.7664 64.2552 67.5643 64.3374 67.3685 64.4274C67.1721 64.5175 66.97 64.6049 66.7616 64.6898C66.7543 64.9458 66.7391 65.2976 66.7177 65.7458C66.6957 66.194 66.6386 66.6396 66.547 67.0831C66.4548 67.5255 66.3129 67.9119 66.1208 68.2402C65.9281 68.569 65.6579 68.736 65.3092 68.7413C64.9254 68.7475 64.6265 68.5946 64.4123 68.2842C64.1982 67.9742 64.0442 67.604 63.95 67.1757C63.8557 66.7469 63.7992 66.3092 63.7809 65.8615C63.7625 65.4144 63.751 65.0626 63.7468 64.8065C63.7379 64.2604 63.7406 63.7227 63.7557 63.1928C63.7709 62.664 63.7741 62.1263 63.7652 61.5797C63.7573 61.0802 63.7406 60.5802 63.7154 60.0807C63.6903 59.5812 63.673 59.0759 63.6652 58.5644C63.6631 58.4487 63.661 58.3 63.6578 58.1198C63.6552 57.9397 63.661 57.7533 63.6756 57.5612C63.6898 57.369 63.7076 57.1858 63.728 57.0109C63.7484 56.8365 63.7866 56.6962 63.8437 56.5905C63.9557 56.3444 64.217 56.1082 64.6259 55.8805C65.0354 55.6532 65.4846 55.4511 65.9768 55.2747C66.4679 55.0982 66.9486 54.9569 67.4177 54.8506C67.8868 54.7448 68.2371 54.6893 68.4701 54.6857C69.0628 54.6762 69.5879 54.7783 70.0445 54.9919C70.5016 55.2061 70.8838 55.4993 71.1922 55.8721C71.5006 56.2449 71.7341 56.6774 71.8928 57.169C72.0519 57.6617 72.1357 58.1806 72.1441 58.7267ZM68.9219 59.0215C68.9172 58.7193 68.8439 58.4911 68.7015 58.3361C68.5596 58.1811 68.3319 58.1067 68.0177 58.1115C67.7852 58.1151 67.5507 58.1596 67.3135 58.2445C67.0763 58.3298 66.8601 58.4261 66.6637 58.534C66.725 59.4513 66.7564 60.3639 66.7595 61.2702C67.0025 61.1854 67.2507 61.0765 67.5046 60.9446C67.7575 60.8131 67.991 60.6519 68.2031 60.4624C68.4151 60.2733 68.5895 60.0613 68.7251 59.8262C68.8617 59.5927 68.9272 59.3241 68.9219 59.0215Z" fill="#2C1845"/>
<path d="M88.5311 63.9865C88.262 65.3903 88.3656 66.8636 88.829 68.216C88.9939 68.6967 89.2086 69.1705 89.5526 69.5449C89.8961 69.9187 90.3856 70.1837 90.893 70.1633C91.4375 70.1413 91.9328 69.791 92.2328 69.336C92.5329 68.881 92.6596 68.3318 92.7098 67.7893C92.8517 66.2563 92.359 64.2169 91.282 63.0493C90.2317 61.9105 88.8201 62.4807 88.5311 63.9865Z" fill="#FFE6DE"/>
<path d="M88.9176 76.8396C88.8584 78.1025 88.9861 79.5067 89.8998 80.3811C90.0872 80.5607 90.3077 80.713 90.5579 80.7816C91.0454 80.9157 91.5794 80.7047 91.9433 80.3528C92.3067 80.001 92.5261 79.5276 92.6994 79.0522C93.3329 77.3134 93.9324 73.3944 92.2292 71.964C89.9286 70.033 88.9762 75.5851 88.9176 76.8396Z" fill="#FFE6DE"/>
<path d="M77.6263 29.0109C77.4681 29.1612 77.3969 29.3863 77.3975 29.6041C77.398 29.8219 77.464 30.035 77.5467 30.2366C77.8315 30.9304 78.3289 31.5346 78.9551 31.9466C79.0305 31.9964 79.1112 32.0445 79.2012 32.055C79.3709 32.0754 79.5326 31.9513 79.6049 31.7969C79.6771 31.6424 79.6777 31.4644 79.6635 31.2942C79.6091 30.6466 78.5834 28.1004 77.6263 29.0109Z" fill="#FFE6DE"/>
<path d="M80.7725 33.3918C80.6693 33.6436 80.7222 33.93 80.7945 34.1923C81.0652 35.1767 81.6348 36.1238 82.5286 36.6165C82.715 36.7191 82.9186 36.8024 83.1312 36.8092C83.3438 36.816 83.5679 36.7364 83.6951 36.5657C83.7977 36.4275 83.8265 36.2479 83.8297 36.0762C83.8475 35.1945 83.281 34.3955 82.5961 33.84C82.2265 33.5405 81.0793 32.6404 80.7725 33.3918Z" fill="#FFE6DE"/>
<path d="M50.6666 80.8123L52.0897 71.7983L55.5684 79.3887L64.5824 78.5981L58.7313 84.1329L61.4199 91.0908L54.1453 86.9796L48.4524 93.6213L49.243 85.3979L42.127 83.5004L50.6666 80.8123Z" fill="#F4C46C"/>
<path d="M12.0811 31.2625L13.5047 22.2485L16.9834 29.8389L25.9974 29.0483L20.1464 34.5831L22.8345 41.5415L15.5603 37.4298L9.8674 44.0715L10.658 35.8486L3.54199 33.9506L12.0811 31.2625Z" fill="#F4C46C"/>
<path d="M66.4805 12.4964L67.9041 3.48242L71.3828 11.0733L80.3968 10.2827L74.5458 15.8175L77.2339 22.7754L69.9597 18.6637L64.2668 25.3054L65.0574 17.0825L57.9414 15.1845L66.4805 12.4964Z" fill="#F4C46C"/>
<path d="M39.646 92.1815C41.023 92.1003 42.3995 91.9809 43.7766 91.7527C42.4001 91.5244 41.023 91.405 39.646 91.3238C38.9523 91.2793 38.2585 91.2526 37.5642 91.2348C37.1956 91.2254 36.8443 91.0767 36.5841 90.816L36.56 90.7919C36.2966 90.5285 36.1474 90.173 36.1411 89.8007C36.1259 88.8871 36.0961 87.9729 36.038 87.0593C35.9568 85.6822 35.8375 84.3057 35.6092 82.9287C35.3809 84.3057 35.2615 85.6822 35.1804 87.0593C35.1249 87.9258 35.0961 88.7928 35.0804 89.6594C35.0735 90.0311 34.9243 90.3856 34.6615 90.6489L34.496 90.8144C34.2348 91.0757 33.8834 91.2244 33.5143 91.2338C32.8049 91.2511 32.0038 91.4113 31.2943 91.4563C29.9173 91.5369 28.6885 91.6155 27.2549 91.7532C28.768 91.9338 29.8974 91.972 31.2744 92.0532C31.9996 92.0993 32.8363 92.2569 33.5615 92.2741C33.9311 92.2831 34.2829 92.4317 34.5442 92.693L34.6861 92.8349C34.9427 93.0915 35.0903 93.436 35.1034 93.7988C35.1217 94.3057 35.1463 94.813 35.1788 95.3198C35.2594 96.6969 35.3793 98.0734 35.6092 99.4504C35.839 98.0734 35.9589 96.6969 36.0396 95.3198C36.0746 94.7659 36.0998 94.2119 36.1181 93.658C36.1301 93.2941 36.2778 92.948 36.5354 92.6904C36.7967 92.4291 37.148 92.2804 37.5166 92.271C38.2271 92.2537 38.9365 92.2265 39.646 92.1815Z" fill="#FFE6DE"/>
<path d="M46.6535 77.0242C47.5703 76.9703 48.4866 76.8907 49.4034 76.7389C48.4866 76.587 47.5703 76.5074 46.6535 76.4535C46.1917 76.4242 45.7294 76.4064 45.2676 76.3944C45.022 76.3881 44.7885 76.2891 44.6147 76.1153L44.5984 76.0996C44.423 75.9242 44.3241 75.6875 44.3199 75.4393C44.3094 74.8309 44.29 74.2225 44.2513 73.6141C44.1974 72.6973 44.1178 71.7811 43.9659 70.8643C43.8141 71.7811 43.7345 72.6978 43.6806 73.6141C43.6439 74.1911 43.6246 74.7681 43.6136 75.3451C43.6089 75.5927 43.5099 75.8289 43.3345 76.0038L43.224 76.1142C43.0502 76.2881 42.8162 76.387 42.5701 76.3933C42.0978 76.4048 41.5643 76.5116 41.092 76.5415C40.1752 76.5954 39.3568 76.6472 38.4023 76.7394C39.4097 76.8593 40.1621 76.8855 41.0784 76.9389C41.5611 76.9698 42.1182 77.0745 42.601 77.086C42.847 77.0918 43.0811 77.1912 43.2554 77.3651L43.3502 77.4598C43.5214 77.631 43.6193 77.8604 43.6282 78.1018C43.6403 78.4395 43.657 78.7772 43.6785 79.1144C43.7324 80.0312 43.812 80.9474 43.9649 81.8642C44.1178 80.9474 44.1974 80.0312 44.2513 79.1144C44.2749 78.7458 44.2916 78.3766 44.3037 78.008C44.3115 77.7656 44.4099 77.5352 44.5817 77.3635C44.7555 77.1897 44.9896 77.0907 45.2351 77.0844C45.7084 77.0724 46.1807 77.0546 46.6535 77.0242Z" fill="#FFE6DE"/>
<path d="M56.3693 32.8387C57.286 32.7848 58.2023 32.7052 59.1191 32.5534C58.2023 32.4015 57.286 32.3219 56.3693 32.268C55.9075 32.2387 55.4457 32.2209 54.9833 32.2088C54.7378 32.2026 54.5042 32.1036 54.3304 31.9298L54.3147 31.9135C54.1393 31.7381 54.0403 31.5015 54.0362 31.2533C54.0257 30.6449 54.0063 30.0365 53.9676 29.4281C53.9136 28.5113 53.8341 27.595 53.6822 26.6782C53.5304 27.595 53.4508 28.5118 53.3969 29.4281C53.3602 30.0051 53.3408 30.5821 53.3298 31.1591C53.3251 31.4067 53.2262 31.6428 53.0513 31.8177L52.9408 31.9282C52.767 32.102 52.533 32.201 52.2869 32.2073C51.8146 32.2188 51.2811 32.3256 50.8088 32.3554C49.892 32.4094 49.0736 32.4612 48.1191 32.5534C49.1265 32.6733 49.8789 32.6994 50.7952 32.7528C51.2784 32.7837 51.835 32.8884 52.3178 32.9C52.5638 32.9057 52.7979 33.0052 52.9722 33.179L53.067 33.2738C53.2377 33.445 53.3361 33.6743 53.345 33.9157C53.3571 34.2534 53.3738 34.5911 53.3953 34.9283C53.4492 35.8451 53.5288 36.7619 53.6817 37.6782C53.8346 36.7614 53.9147 35.8446 53.9681 34.9283C53.9917 34.5597 54.0084 34.1906 54.0204 33.822C54.0283 33.5796 54.1267 33.3492 54.2985 33.178C54.4723 33.0042 54.7064 32.9052 54.9519 32.8989C55.4247 32.8869 55.897 32.8691 56.3693 32.8387Z" fill="#FFE6DE"/>
<path d="M81.2994 53.5208C82.2162 53.4669 83.1324 53.3873 84.0492 53.2355C83.1324 53.0836 82.2162 53.0041 81.2994 52.9501C80.8376 52.9208 80.3753 52.903 79.9135 52.891C79.6679 52.8847 79.4344 52.7857 79.2606 52.6119L79.2448 52.5957C79.0694 52.4203 78.9705 52.1836 78.9663 51.9354C78.9558 51.327 78.9365 50.7186 78.8977 50.1102C78.8438 49.1934 78.7642 48.2771 78.6124 47.3604C78.4605 48.2771 78.3809 49.1934 78.327 50.1102C78.2904 50.6872 78.271 51.2642 78.2605 51.8412C78.2558 52.0888 78.1568 52.325 77.9814 52.4998L77.8715 52.6098C77.6977 52.7836 77.4636 52.8826 77.2175 52.8889C76.7453 52.9004 76.2117 53.0072 75.7395 53.037C74.8227 53.091 74.0043 53.1428 73.0498 53.235C74.0572 53.3554 74.8096 53.381 75.7259 53.4344C76.2086 53.4648 76.7657 53.57 77.2484 53.5816C77.4945 53.5873 77.7286 53.6868 77.9029 53.8606L77.9977 53.9554C78.1684 54.1266 78.2668 54.3554 78.2757 54.5973C78.2877 54.935 78.3045 55.2727 78.326 55.6099C78.3799 56.5267 78.4595 57.443 78.6124 58.3598C78.7653 57.443 78.8448 56.5262 78.8988 55.6099C78.9223 55.2413 78.9391 54.8722 78.9511 54.5036C78.959 54.2612 79.0574 54.0308 79.2291 53.8591C79.403 53.6852 79.637 53.5863 79.8826 53.58C80.3548 53.569 80.8271 53.5512 81.2994 53.5208Z" fill="#FFE6DE"/>
<path d="M31.3058 72.4583C32.2226 72.4044 33.1388 72.3248 34.0556 72.1729C33.1388 72.0211 32.2226 71.9415 31.3058 71.8876C30.844 71.8583 30.3816 71.8405 29.9198 71.8284C29.6743 71.8222 29.4408 71.7232 29.2669 71.5494L29.2512 71.5337C29.0758 71.3583 28.9769 71.1216 28.9727 70.8734C28.9622 70.265 28.9428 69.6566 28.9041 69.0482C28.8502 68.1314 28.7706 67.2146 28.6187 66.2983C28.4669 67.2151 28.3873 68.1314 28.3334 69.0482C28.2967 69.6252 28.2774 70.2022 28.2669 70.7792C28.2622 71.0268 28.1632 71.263 27.9878 71.4378L27.8773 71.5483C27.7035 71.7221 27.4695 71.8211 27.2234 71.8274C26.7511 71.8389 26.2176 71.9457 25.7453 71.9756C24.8285 72.0295 24.0102 72.0813 23.0557 72.1735C24.063 72.2939 24.8154 72.3196 25.7317 72.373C26.2144 72.4038 26.7715 72.5086 27.2543 72.5201C27.5004 72.5258 27.7344 72.6253 27.9087 72.7992L28.0035 72.8939C28.1742 73.0651 28.2726 73.2945 28.2815 73.5358C28.2936 73.8736 28.3103 74.2113 28.3318 74.5484C28.3857 75.4652 28.4653 76.3815 28.6182 77.2983C28.7711 76.3815 28.8507 75.4652 28.9046 74.5484C28.9282 74.1798 28.9449 73.8107 28.957 73.4421C28.9648 73.1997 29.0633 72.9693 29.235 72.7981C29.4088 72.6243 29.6429 72.5253 29.8884 72.519C30.3612 72.5065 30.8335 72.4887 31.3058 72.4583Z" fill="#FFE6DE"/>
</svg>
