<svg width="125" height="157" viewBox="0 0 125 157" fill="none" xmlns="http://www.w3.org/2000/svg">
<path d="M66.744 155.24C66.6163 155.236 66.4882 155.226 66.3608 155.21L11.2151 148.192C10.1692 148.059 9.22001 147.515 8.5769 146.68C7.93315 145.845 7.64916 144.788 7.78685 143.743L12.9098 104.868L3.27694 94.6496C2.4935 93.8178 2.1068 92.6884 2.21641 91.5514L3.27501 80.5614C3.39879 79.2774 4.13966 78.1341 5.26075 77.4962L19.5276 69.3827C18.4378 68.6933 17.7281 67.4973 17.6857 66.1592L17.4494 58.7392L11.2497 57.9093C9.50297 57.6755 8.11977 56.3161 7.8567 54.5731C7.59364 52.83 8.51302 51.1232 10.1135 50.3841L18.4941 46.5136L18.7681 37.0608C18.819 35.3139 20.0071 33.8064 21.6943 33.3503C22.0767 33.2469 22.4647 33.2033 22.8457 33.2146C24.1467 33.253 25.377 33.9329 26.0915 35.0792L30.3786 41.9563L35.7535 40.7822L37.9548 33.9702L31.4483 26.8637C30.5196 25.85 30.1835 24.4259 30.5594 23.1034L36.0183 3.9124C36.5207 2.14673 38.156 0.982046 39.9428 1.03483C40.132 1.04042 40.3222 1.0598 40.5132 1.09297L92.3462 10.178L92.6292 10.2251C93.6263 10.3915 94.5225 10.933 95.1337 11.7381L99.2861 17.2089L100.065 17.2574L104.799 9.07075C105.537 7.79242 106.911 7.05055 108.345 7.09293C108.608 7.1007 108.873 7.13472 109.137 7.19691C110.838 7.59711 112.076 9.06424 112.184 10.8086L112.687 18.8971L121.352 21.3903C122.972 21.8562 124.12 23.2978 124.212 24.9808C124.305 26.6644 123.322 28.2219 121.762 28.8632L114.497 31.8492L114.505 38.9269C114.506 40.6006 113.457 42.0952 111.881 42.6601C111.405 42.8315 110.911 42.906 110.425 42.8917C109.304 42.8586 108.224 42.3502 107.482 41.4489L106.292 40.0028L91.9327 140.707C91.7526 141.965 90.9804 143.061 89.8548 143.653L68.7057 154.783C68.1006 155.104 67.4243 155.26 66.744 155.24Z" fill="white"/>
<path d="M92.1044 26.5931L84.3514 80.9651L80.0124 96.612L80.2969 109.405L78.2933 123.455L59.752 133.214L11.406 127.061L16.1133 91.3433L6.53632 81.1833L7.46384 71.5479L28.6465 59.5027L38.3369 29.5142L31.268 21.7935L36.0538 4.96882L81.4955 12.9336L81.7711 12.9797L92.1044 26.5931Z" fill="#A278FF"/>
<path opacity="0.18" d="M31.2681 21.7933L81.7712 12.9795L77.7474 29.1763L31.2681 21.7933Z" fill="#2C1845"/>
<path d="M81.7708 12.9796L81.4946 12.9335L77.6875 29.2827L80.2042 36.762L71.5912 66.7824L56.8813 77.7325L55.4806 88.8552L63.7465 99.6199L63.5798 101.002L65.1259 103.664C67.1992 102.484 84.3545 80.9662 84.3545 80.9662L92.104 26.5936L81.7708 12.9796Z" fill="#2C1845"/>
<path d="M76.5547 109.053C74.8465 110.963 66.7745 120.804 66.7745 120.804L60.1136 130.178L59.7527 133.214L78.294 123.455L80.2987 109.405L76.5547 109.053Z" fill="#2C1845"/>
<path opacity="0.37" d="M31.2676 21.7935L77.7468 29.1765L80.204 36.7621L38.3365 29.5141L31.2676 21.7935Z" fill="#2C1845"/>
<path opacity="0.25" d="M28.6466 59.5024L71.5916 66.7816L56.869 78.1588L7.46391 71.5476L28.6466 59.5024Z" fill="#2C1845"/>
<path opacity="0.34" d="M6.53613 81.1836L55.4802 88.8549L63.7466 99.6197L16.1131 91.3436L6.53613 81.1836Z" fill="#2C1845"/>
<path d="M45.025 19.5006C45.3784 19.2261 50.8279 14.9414 48.9297 13.1722C47.7013 12.0271 46.4886 13.1334 45.8021 14.026C45.3941 12.9764 44.5416 11.5741 43.0406 12.3272C40.7213 13.4916 44.7457 19.1356 45.0073 19.4984L45.0062 19.515C45.0062 19.515 45.0115 19.5106 45.0145 19.5083C45.0167 19.5113 45.0206 19.5166 45.0206 19.5166L45.025 19.5006Z" fill="#FF92DF"/>
<path d="M55.3659 21.0363C55.7192 20.7618 61.1687 16.4772 59.2705 14.7079C58.0421 13.5628 56.8294 14.6691 56.1429 15.5612C55.735 14.5115 54.8819 13.1092 53.3814 13.8623C51.0621 15.0267 55.0865 20.6707 55.3481 21.0335L55.3471 21.0501C55.3471 21.0501 55.3524 21.0457 55.3553 21.0435C55.3575 21.0464 55.3614 21.0517 55.3614 21.0517L55.3659 21.0363Z" fill="#FF92DF"/>
<path d="M65.7067 22.5717C66.0601 22.2971 71.5096 18.0125 69.6114 16.2432C68.383 15.0981 67.1703 16.2044 66.4838 17.0965C66.0758 16.0474 65.2233 14.644 63.7223 15.3976C61.403 16.562 65.4268 22.206 65.689 22.5688L65.6879 22.5855C65.6879 22.5855 65.6932 22.581 65.6962 22.5788C65.6984 22.5818 65.7023 22.587 65.7023 22.587L65.7067 22.5717Z" fill="#FF92DF"/>
<path d="M84.3542 80.9657L83.0094 90.3929L82.9788 90.5752L62.2866 111.862L62.4879 110.184L63.5789 101.002L84.3542 80.9657Z" fill="#FF92DF"/>
<path d="M83.0108 90.3927L82.9801 90.5751L81.6911 99.6316L81.6272 100.084L61.1887 121.108L61.4223 119.191L62.288 111.862L62.4892 110.184L83.0108 90.3927Z" fill="#F4C46C"/>
<path d="M81.6903 99.6317L81.6264 100.084L80.298 109.405L60.1128 130.177L61.188 121.108L61.4215 119.191L81.6903 99.6317Z" fill="#36DAD9"/>
<path d="M32.228 58.2141L40.4814 33.2291L76.2754 39.0102L68.3346 64.3267L32.228 58.2141Z" fill="#FFE6DE"/>
<path d="M55.4712 40.5299C47.9856 39.2557 40.8666 44.2764 39.4489 51.779L48.9616 53.3987C49.4741 51.1985 51.7945 49.2769 54.0313 49.6578C56.2682 50.0387 57.6012 52.5819 57.3567 54.8279L66.8694 56.4475C68.0134 48.8988 62.9569 41.8047 55.4712 40.5299Z" fill="#FF85AF"/>
<path d="M55.1835 42.2264C48.625 41.11 42.3899 45.5024 41.1343 52.0665L48.9623 53.3991C49.4749 51.1989 51.7953 49.2773 54.0321 49.6582C56.2689 50.0391 57.6019 52.5823 57.3575 54.8283L65.1856 56.1609C66.1725 49.5515 61.7419 43.3434 55.1835 42.2264Z" fill="#FFAD9F"/>
<path d="M54.8591 44.1217C49.3364 43.1812 44.0873 46.868 43.0045 52.3853L48.9605 53.3994C49.473 51.1992 51.6233 49.3973 53.8601 49.7782C56.0969 50.1591 57.6001 52.5832 57.3556 54.8292L63.3087 55.8427C64.1125 50.2776 60.3811 45.0622 54.8591 44.1217Z" fill="#F4C46C"/>
<path d="M54.4821 46.3424C50.1753 45.609 46.0784 48.468 45.2094 52.7604L48.961 53.3992C49.4736 51.199 51.6944 49.1291 53.9312 49.5101C56.168 49.891 57.6006 52.583 57.3562 54.8284L61.1079 55.4672C61.7089 51.1284 58.7888 47.0751 54.4821 46.3424Z" fill="#36DAD9"/>
<path d="M54.1372 48.3656C50.9378 47.8207 47.8944 49.9271 47.2157 53.102L48.9609 53.3989C49.4735 51.1987 51.5995 49.7499 53.8369 50.1308C56.0737 50.5117 57.6005 52.5826 57.3567 54.8287L59.1019 55.1255C59.5119 51.9054 57.3367 48.9105 54.1372 48.3656Z" fill="#A278FF"/>
<path d="M30.749 61.9272L30.5209 69.6501" stroke="#2C1845" stroke-width="1.0978" stroke-miterlimit="10"/>
<path d="M34.4026 60.9084C34.3475 62.7745 32.7903 64.2423 30.9242 64.1872C29.058 64.1321 27.5902 62.5749 27.6453 60.7088C27.7004 58.8426 29.2577 57.3748 31.1238 57.4299C32.9893 57.485 34.4578 59.0422 34.4026 60.9084Z" fill="#FF92DF"/>
<path d="M47.0358 69.3732C47.0102 70.2394 45.1526 70.8877 42.8864 70.8208C40.6207 70.7539 38.804 69.9976 38.8296 69.1308C38.8552 68.264 40.7128 67.6163 42.979 67.6832C45.2453 67.7502 47.0614 68.507 47.0358 69.3732Z" fill="#FF92DF"/>
<path d="M58.3786 69.7082C58.353 70.5744 56.4954 71.2227 54.2291 71.1558C51.9635 71.0888 50.1468 70.3325 50.1724 69.4658C50.198 68.599 52.0556 67.9512 54.3218 68.0182C56.588 68.0851 58.4041 68.842 58.3786 69.7082Z" fill="#FF92DF"/>
<path d="M35.2269 106.402C35.2069 106.767 35.1478 107.152 35.0491 107.557C34.9504 107.962 34.8031 108.339 34.6083 108.689C34.413 109.04 34.164 109.339 33.8619 109.588C33.5593 109.837 33.1956 109.991 32.7698 110.053C32.4542 110.098 32.1607 110.076 31.8899 109.986C31.6191 109.897 31.3663 109.76 31.1304 109.577C30.8945 109.393 30.6816 109.174 30.4926 108.919C30.303 108.665 30.1375 108.397 29.9964 108.115C29.8548 107.834 29.7396 107.55 29.6504 107.265C29.5611 106.98 29.4978 106.711 29.4616 106.458C29.4107 106.103 29.3893 105.718 29.3976 105.302C29.4064 104.886 29.4486 104.469 29.5253 104.052C29.602 103.633 29.7162 103.227 29.8687 102.831C30.0206 102.434 30.2173 102.076 30.4572 101.755C30.6964 101.435 30.9802 101.165 31.3067 100.944C31.6332 100.724 32.0131 100.583 32.4476 100.52C32.7234 100.481 32.9878 100.496 33.2396 100.57C33.4919 100.642 33.7178 100.754 33.9161 100.907C34.115 101.059 34.2817 101.251 34.4151 101.481C34.5491 101.711 34.6353 101.96 34.674 102.229L34.6892 102.336C34.7097 102.477 34.7286 102.654 34.7476 102.865C34.7655 103.076 34.7572 103.281 34.7215 103.478C34.6852 103.677 34.6139 103.854 34.5076 104.01C34.4012 104.167 34.2336 104.261 34.0051 104.294C33.7287 104.334 33.5108 104.302 33.3508 104.196C33.1907 104.09 33.0892 103.89 33.0472 103.598C33.0315 103.488 33.0193 103.378 33.0111 103.266C33.0035 103.155 32.9913 103.043 32.9756 102.932C32.9517 102.767 32.9054 102.643 32.8372 102.56C32.769 102.477 32.6474 102.449 32.4744 102.473C32.277 102.502 32.1089 102.591 31.969 102.739C31.829 102.888 31.7149 103.074 31.6262 103.296C31.5375 103.518 31.4681 103.766 31.4187 104.039C31.3693 104.311 31.3359 104.584 31.3193 104.856C31.302 105.129 31.299 105.388 31.3106 105.636C31.3222 105.885 31.3407 106.095 31.3655 106.269C31.386 106.411 31.4174 106.573 31.4597 106.756C31.5019 106.94 31.5611 107.113 31.6374 107.274C31.7124 107.437 31.8102 107.57 31.9301 107.673C32.0494 107.777 32.1924 107.817 32.358 107.793C32.6419 107.752 32.858 107.63 33.0059 107.427C33.1538 107.225 33.2397 106.981 33.2631 106.696C33.1499 106.696 33.0382 106.687 32.9267 106.666C32.8147 106.646 32.7089 106.609 32.6083 106.555C32.5082 106.501 32.423 106.429 32.3539 106.337C32.2841 106.248 32.2404 106.135 32.2208 106.001C32.1855 105.756 32.2409 105.552 32.387 105.391C32.5326 105.229 32.7128 105.097 32.9274 104.992C33.1418 104.889 33.3659 104.81 33.6002 104.757C33.8339 104.704 34.0217 104.665 34.1636 104.645C34.2663 104.631 34.4178 104.617 34.617 104.605C34.8161 104.592 35.0165 104.598 35.2169 104.621C35.4178 104.645 35.5962 104.693 35.7514 104.767C35.9072 104.842 35.9958 104.954 36.0173 105.103C36.0607 105.404 36.0165 105.673 35.8859 105.913C35.757 106.155 35.5373 106.317 35.2269 106.402Z" fill="#2C1845"/>
<path d="M40.6201 108.923C40.1389 108.993 39.7035 108.932 39.3138 108.743C38.9241 108.553 38.5837 108.272 38.2925 107.9C38.0013 107.527 37.76 107.08 37.5685 106.56C37.3765 106.04 37.2389 105.485 37.1536 104.893C37.0739 104.341 37.0546 103.771 37.0949 103.185C37.1351 102.6 37.2487 102.061 37.4357 101.567C37.622 101.073 37.8873 100.652 38.2319 100.304C38.5765 99.9566 39.0171 99.745 39.5537 99.6678C40.0742 99.5924 40.5303 99.6696 40.9223 99.8989C41.3136 100.129 41.6454 100.451 41.9186 100.867C42.1919 101.283 42.4139 101.76 42.5841 102.299C42.7543 102.838 42.879 103.384 42.9592 103.936C43.0479 104.551 43.0701 105.142 43.0269 105.707C42.9832 106.274 42.8676 106.784 42.6795 107.237C42.4915 107.691 42.2276 108.068 41.8878 108.365C41.5469 108.664 41.1249 108.85 40.6201 108.923ZM39.8115 102.299C39.6621 102.321 39.542 102.399 39.4524 102.532C39.3629 102.666 39.2964 102.834 39.2531 103.037C39.2103 103.241 39.1899 103.466 39.193 103.711C39.196 103.957 39.2153 104.201 39.2505 104.446C39.2901 104.721 39.3475 104.995 39.4228 105.266C39.4981 105.537 39.5875 105.778 39.6899 105.988C39.7928 106.199 39.9069 106.364 40.0326 106.482C40.1583 106.602 40.2965 106.651 40.4465 106.629C40.6196 106.604 40.7457 106.497 40.8231 106.309C40.9005 106.121 40.9518 105.9 40.9754 105.647C40.9995 105.394 41.0026 105.135 40.9845 104.872C40.967 104.609 40.9453 104.391 40.9205 104.217C40.89 104.005 40.8438 103.782 40.7817 103.549C40.7202 103.317 40.6432 103.103 40.5512 102.912C40.4586 102.719 40.3518 102.563 40.2301 102.444C40.1089 102.325 39.969 102.277 39.8115 102.299Z" fill="#2C1845"/>
<path d="M28.5888 118.695C28.5688 119.061 28.5092 119.446 28.4111 119.85C28.3118 120.256 28.165 120.634 27.9703 120.983C27.7749 121.334 27.5259 121.633 27.2238 121.882C26.9212 122.131 26.5569 122.287 26.1311 122.348C25.8155 122.393 25.5221 122.37 25.2513 122.28C24.981 122.19 24.7282 122.054 24.4918 121.871C24.2559 121.687 24.0429 121.468 23.8539 121.213C23.6638 120.958 23.4988 120.69 23.3578 120.409C23.2161 120.128 23.101 119.844 23.0117 119.56C22.9225 119.274 22.8592 119.006 22.823 118.753C22.772 118.398 22.7506 118.013 22.7589 117.597C22.7677 117.181 22.8099 116.763 22.8866 116.346C22.9633 115.929 23.0782 115.521 23.2306 115.125C23.3825 114.728 23.5787 114.37 23.8185 114.05C24.0589 113.729 24.3415 113.459 24.6681 113.238C24.9946 113.019 25.375 112.877 25.8089 112.815C26.0847 112.775 26.3491 112.791 26.6009 112.864C26.8533 112.936 27.0786 113.049 27.2775 113.201C27.4769 113.354 27.643 113.546 27.777 113.776C27.9115 114.006 27.9972 114.255 28.0358 114.524L28.0511 114.63C28.0716 114.772 28.0911 114.948 28.1096 115.159C28.128 115.369 28.1191 115.574 28.0834 115.774C28.0471 115.971 27.9758 116.148 27.8695 116.305C27.7637 116.462 27.5955 116.555 27.367 116.589C27.0906 116.629 26.8727 116.595 26.7127 116.49C26.5526 116.384 26.4511 116.185 26.4091 115.893C26.3934 115.782 26.3812 115.672 26.3736 115.56C26.3654 115.449 26.3532 115.338 26.3375 115.227C26.3136 115.062 26.2673 114.937 26.1997 114.854C26.1314 114.772 26.0099 114.744 25.8368 114.768C25.6389 114.796 25.4714 114.885 25.3314 115.034C25.192 115.183 25.0774 115.368 24.9887 115.59C24.8994 115.813 24.8306 116.06 24.7812 116.333C24.7317 116.606 24.6984 116.878 24.6812 117.151C24.6639 117.423 24.6609 117.683 24.6731 117.93C24.6847 118.179 24.7032 118.389 24.7279 118.563C24.7484 118.705 24.7799 118.867 24.8221 119.051C24.8644 119.234 24.9236 119.407 24.9993 119.568C25.0749 119.732 25.1727 119.864 25.292 119.967C25.4113 120.071 25.5543 120.111 25.7205 120.087C26.0044 120.046 26.2199 119.925 26.3678 119.722C26.5157 119.52 26.6017 119.275 26.625 118.991C26.5124 118.99 26.4006 118.981 26.2886 118.961C26.1772 118.94 26.0709 118.903 25.9708 118.85C25.8701 118.795 25.7855 118.723 25.7158 118.632C25.6466 118.542 25.6023 118.43 25.5827 118.295C25.5474 118.051 25.6028 117.847 25.7484 117.686C25.8939 117.524 26.0748 117.391 26.2892 117.288C26.5037 117.184 26.7278 117.105 26.9615 117.052C27.1952 116.999 27.383 116.961 27.5249 116.941C27.6276 116.926 27.7791 116.912 27.9783 116.899C28.1774 116.887 28.3778 116.893 28.5787 116.916C28.7791 116.94 28.9575 116.988 29.1133 117.062C29.2685 117.136 29.3577 117.249 29.3792 117.398C29.4226 117.698 29.379 117.968 29.2484 118.208C29.1189 118.448 28.8987 118.611 28.5888 118.695Z" fill="#2C1845"/>
<path d="M34.0346 112.61C34.0566 112.759 34.0415 112.898 33.9918 113.026C33.9415 113.154 33.8669 113.268 33.7692 113.367C33.6703 113.465 33.558 113.552 33.4323 113.627C33.306 113.701 33.1813 113.759 33.0589 113.801C33.1709 114.695 33.2614 115.559 33.3298 116.396C33.3976 117.232 33.4398 118.099 33.4569 118.998L33.5279 118.988C33.6542 118.97 33.7801 118.967 33.9068 118.976C34.0329 118.987 34.1498 119.018 34.2585 119.071C34.3667 119.123 34.4576 119.195 34.5308 119.285C34.604 119.375 34.6511 119.491 34.6716 119.633C34.6979 119.814 34.6631 119.98 34.5679 120.131C34.4726 120.282 34.3394 120.418 34.1674 120.539C33.9955 120.66 33.8004 120.769 33.5804 120.865C33.3604 120.961 33.1391 121.043 32.9153 121.112C32.6921 121.18 32.4784 121.236 32.2754 121.282C32.0724 121.328 31.9078 121.358 31.782 121.377C31.6874 121.39 31.5703 121.404 31.4309 121.416C31.2916 121.428 31.1584 121.423 31.0304 121.401C30.9023 121.38 30.7893 121.335 30.6913 121.269C30.5933 121.203 30.5342 121.102 30.5146 120.968C30.4908 120.803 30.5033 120.65 30.5517 120.51C30.6001 120.37 30.6717 120.241 30.7671 120.123C30.8631 120.004 30.9752 119.904 31.1047 119.82C31.2329 119.737 31.3671 119.669 31.5048 119.617C31.4971 119.176 31.4866 118.736 31.4719 118.3C31.4578 117.863 31.426 117.422 31.3782 116.979C31.3295 116.527 31.2812 116.081 31.2339 115.64C31.1871 115.201 31.1393 114.759 31.0915 114.314C31.037 114.33 30.9866 114.344 30.9404 114.354C30.8935 114.365 30.8502 114.374 30.811 114.379C30.7002 114.395 30.58 114.399 30.4508 114.395C30.3212 114.389 30.1966 114.364 30.0778 114.322C29.959 114.278 29.8562 114.219 29.7689 114.142C29.6815 114.066 29.6277 113.961 29.6087 113.827C29.5701 113.56 29.6512 113.322 29.8509 113.116C30.0506 112.91 30.2993 112.737 30.5976 112.598C30.8953 112.458 31.203 112.348 31.5214 112.266C31.8398 112.184 32.0977 112.128 32.2945 112.1C32.4052 112.084 32.5521 112.071 32.7363 112.06C32.9199 112.05 33.1046 112.06 33.2904 112.09C33.4756 112.12 33.6402 112.172 33.7838 112.248C33.9264 112.323 34.0107 112.444 34.0346 112.61Z" fill="#2C1845"/>
<path d="M41.4479 113.391C41.5266 113.935 41.4702 114.443 41.2805 114.913C41.0903 115.383 40.8104 115.814 40.4398 116.205C40.5933 116.376 40.755 116.579 40.9263 116.812C41.0963 117.045 41.255 117.293 41.4018 117.558C41.5485 117.823 41.6756 118.091 41.7831 118.361C41.89 118.631 41.9612 118.886 41.9956 119.122C42.0318 119.375 42.0036 119.61 41.9098 119.829C41.816 120.048 41.6237 120.178 41.3318 120.219C41.0871 120.255 40.8587 120.168 40.6478 119.956C40.4357 119.745 40.2377 119.486 40.0526 119.178C39.8675 118.871 39.6935 118.557 39.5302 118.233C39.3667 117.91 39.2192 117.654 39.0875 117.463C38.9522 117.531 38.822 117.603 38.6961 117.682C38.5703 117.761 38.4411 117.838 38.3067 117.914C38.3239 118.088 38.3444 118.329 38.3681 118.635C38.3918 118.942 38.3919 119.249 38.3684 119.559C38.3443 119.868 38.281 120.144 38.1791 120.383C38.0767 120.623 37.9077 120.761 37.6706 120.795C37.4104 120.832 37.1932 120.755 37.0208 120.562C36.8484 120.37 36.7112 120.132 36.6104 119.848C36.5096 119.565 36.4327 119.272 36.3813 118.969C36.3299 118.666 36.2916 118.428 36.2662 118.256C36.2134 117.885 36.1685 117.518 36.1326 117.157C36.0968 116.796 36.0524 116.43 35.999 116.059C35.9504 115.721 35.8955 115.382 35.8348 115.044C35.7741 114.707 35.7188 114.364 35.6692 114.017C35.6578 113.938 35.6436 113.837 35.6253 113.715C35.6082 113.593 35.5953 113.466 35.5883 113.334C35.5813 113.203 35.577 113.076 35.576 112.955C35.5749 112.835 35.5887 112.737 35.618 112.66C35.6727 112.482 35.8297 112.299 36.0882 112.109C36.3471 111.919 36.6356 111.743 36.9535 111.579C37.2726 111.417 37.5869 111.279 37.897 111.166C38.2066 111.053 38.4401 110.985 38.5982 110.963C39.0003 110.905 39.3662 110.928 39.6957 111.034C40.0252 111.139 40.3104 111.306 40.5525 111.533C40.7946 111.76 40.9916 112.033 41.1418 112.354C41.2921 112.674 41.3945 113.019 41.4479 113.391ZM39.2827 113.871C39.2531 113.666 39.1834 113.517 39.073 113.423C38.9631 113.331 38.8015 113.299 38.5886 113.33C38.4311 113.353 38.2756 113.404 38.1216 113.482C37.9676 113.561 37.829 113.645 37.7051 113.735C37.8258 114.354 37.9271 114.972 38.0077 115.588C38.1657 115.509 38.3248 115.414 38.4861 115.302C38.6474 115.19 38.7914 115.061 38.9193 114.913C39.0466 114.766 39.1472 114.607 39.2189 114.436C39.2906 114.264 39.3123 114.076 39.2827 113.871Z" fill="#2C1845"/>
<path d="M49.3791 116.935C49.4077 117.132 49.353 117.329 49.2168 117.526C49.08 117.723 48.8935 117.911 48.6578 118.09C48.4216 118.269 48.1536 118.434 47.8532 118.586C47.5528 118.738 47.2547 118.874 46.9576 118.993C46.6605 119.112 46.3795 119.212 46.1129 119.29C45.8463 119.369 45.6339 119.42 45.4764 119.443C45.3264 119.464 45.1647 119.473 44.9913 119.47C44.8173 119.466 44.6691 119.426 44.5451 119.347C44.4749 119.309 44.4043 119.211 44.3332 119.051C44.262 118.893 44.1878 118.702 44.1117 118.479C44.0349 118.256 43.9622 118.016 43.8929 117.756C43.823 117.496 43.7604 117.241 43.7046 116.991C43.6482 116.742 43.5993 116.512 43.5567 116.3C43.5141 116.089 43.4845 115.924 43.4673 115.805C43.4387 115.609 43.4101 115.369 43.3817 115.088C43.3532 114.806 43.3277 114.503 43.3051 114.18C43.283 113.857 43.2675 113.527 43.2596 113.19C43.2512 112.853 43.2509 112.532 43.2598 112.23C43.2682 111.925 43.293 111.652 43.3342 111.403C43.3749 111.156 43.4295 110.96 43.4971 110.812C43.616 110.578 43.79 110.444 44.0191 110.411C44.1772 110.388 44.3186 110.423 44.4447 110.512C44.5701 110.603 44.679 110.729 44.7702 110.889C44.8614 111.049 44.9399 111.231 45.0052 111.434C45.0709 111.639 45.1264 111.841 45.1721 112.045C45.2173 112.247 45.2525 112.436 45.2772 112.609C45.302 112.783 45.322 112.921 45.3363 113.023C45.4249 113.639 45.4988 114.25 45.5584 114.858C45.618 115.466 45.6913 116.076 45.78 116.692L45.8462 117.153C46.1854 116.992 46.5566 116.832 46.9606 116.674C47.364 116.514 47.7561 116.408 48.1346 116.353C48.2685 116.333 48.4056 116.322 48.5464 116.318C48.6868 116.313 48.8138 116.329 48.9277 116.365C49.0421 116.401 49.1385 116.463 49.2203 116.553C49.3027 116.642 49.3552 116.769 49.3791 116.935Z" fill="#2C1845"/>
<path d="M52.6205 113.074C52.6391 113.201 52.6553 113.373 52.6707 113.592C52.686 113.812 52.6963 114.047 52.7009 114.301C52.7049 114.554 52.6961 114.813 52.6733 115.078C52.6511 115.343 52.6152 115.586 52.5668 115.806C52.5177 116.027 52.4474 116.211 52.3558 116.356C52.2641 116.502 52.1473 116.586 52.0054 116.605C51.8317 116.631 51.6716 116.567 51.525 116.414C51.3784 116.263 51.2448 116.061 51.1241 115.808C51.0034 115.556 50.8958 115.271 50.8023 114.954C50.7083 114.637 50.6273 114.325 50.5583 114.017C50.4898 113.709 50.4345 113.423 50.3923 113.16C50.3501 112.895 50.3193 112.693 50.2988 112.55C50.2783 112.409 50.2526 112.229 50.2216 112.012C50.1901 111.795 50.1671 111.563 50.1515 111.315C50.1358 111.068 50.1322 110.82 50.1412 110.574C50.1496 110.327 50.1834 110.099 50.2419 109.888C50.2998 109.679 50.3917 109.503 50.516 109.36C50.6403 109.218 50.8095 109.131 51.0218 109.1C51.211 109.072 51.3782 109.131 51.5239 109.275C51.669 109.419 51.7983 109.614 51.9099 109.86C52.0216 110.106 52.1185 110.384 52.199 110.694C52.28 111.005 52.3485 111.311 52.4034 111.613C52.4594 111.915 52.5039 112.196 52.5376 112.458C52.5712 112.719 52.599 112.924 52.6205 113.074ZM53.0428 117.604C53.0618 117.738 53.0473 117.859 52.9982 117.967C52.949 118.075 52.8785 118.169 52.7853 118.25C52.6921 118.332 52.589 118.397 52.475 118.446C52.3615 118.495 52.2445 118.527 52.1268 118.545C51.9537 118.57 51.7808 118.548 51.6099 118.48C51.439 118.412 51.3395 118.279 51.3114 118.083C51.2948 117.964 51.3125 117.851 51.3651 117.743C51.4183 117.634 51.4907 117.537 51.5834 117.451C51.6756 117.366 51.7794 117.295 51.8966 117.237C52.0131 117.181 52.1268 117.144 52.237 117.128C52.4182 117.102 52.5905 117.123 52.7539 117.192C52.9173 117.261 53.0132 117.398 53.0428 117.604Z" fill="#2C1845"/>
<path d="M90.7934 19.3204L96.0203 10.2803L96.6136 19.817L106.564 22.6796L98.0393 26.1834L98.048 34.7193L91.9717 27.337L83.1607 32.0877L87.3873 23.6321L80.5687 18.6783L90.7934 19.3204Z" fill="#F4C46C"/>
<path d="M53.4841 87.4523L57.7301 80.1096L58.2114 87.8557L66.2939 90.1811L59.3697 93.0272L59.3769 99.9602L54.4413 93.964L47.2843 97.8225L50.7178 90.9545L45.1793 86.9312L53.4841 87.4523Z" fill="#F4C46C"/>
<path d="M20.7603 43.6178L21.0629 33.1798L26.1175 41.2884L36.2329 39.0778L30.3982 46.2127L34.4629 53.7182L25.6076 50.1112L20.1139 58.4793L19.8133 49.0306L11.4601 47.9134L20.7603 43.6178Z" fill="#F4C46C"/>
</svg>
