<svg xmlns="http://www.w3.org/2000/svg" width="130" height="117" fill="none"><path fill="#E38921" d="M49.698 10.013c-.557 1.253 1.648.888 1.633 5.095a1 1 0 0 1-.006.085c-.246 1.601-.448.739-3.53.517-2.848-.206-5.083 1.496-5.452.658-.218-.493-.393-1.015-.372-1.55.051-1.25.226-2.48 1.053-3.501.439-.542.003-.844-.198-1.476-.406-1.28-.176-2.486.63-3.515.48-.613.649-1.216.564-1.953-.17-1.482.4-2.826.929-3.327 1.357-1.285 2.967.802 3.005 2.625.02.902.044 1.498.795 2.21.734.696 1.436 3.034.949 4.131"/><path fill="#fff" d="M88.395 42.055c-2.619 5.621-8.98 10.602-16.192 12.092-1.231.253-2.467.275-3.704.354-.444.03-.719-.139-.9-.578-2.122-5.007-5.743-9.456-6.05-9.222-.46.347 4.186 3.579 7.483 13.749.373 1.16 1.026 3.66 1.081 4.687.064 1.088-.395.079-4.484.534-1.13.127-2.423.438-3.745.866a32.4 32.4 0 0 0-5.842 2.562c-6.342 3.607-5.12 4.447-6.499 3.587-3.534-2.2-7.688-3.965-11.894-4.658-2.032-.336-4.085-.42-6.079-.179-1.223.152-2.11.726-2.049-.195.826-12.685 6.393-18.9 6.25-19.223-.272-.62-3.428 4.718-4.824 9.657-.17.596-.478.809-1.056.868-8.114.873-16.642-3.403-20.635-9.076-3.802-5.394-.408-10.425 4.42-7.935 7.192 3.708 16.761 4.247 21.227 1.09.669-.47-1.259-1.148-2.69-5.144-1.362-3.83-.938-7.935 1.367-11.406.506-.76-.16-.325-1.705-3.955-.848-1.998-2.022-6.03.106-6.365 1.29-.206 3.335.6 4.531 1.19 4.538 2.242 4.134 2.772 4.982 2.302 2.76-1.52 6.91-2.124 10.736-.662.86.325.55-.263 4.364-2.75 1.157-.754 3.072-1.898 4.457-1.934 3.146-.065.963 7.773-.324 9.802-.316.499.398.472 1.648 2.732 2.218 4 2.26 8.994-.551 13.616-.242.4-.567.674-.127.903 1.353.712 4.025 1.106 4.924 1.082 12.144-.298 15.048-5.165 17.938-5.73 2.663-.523 4.264 1.33 4.464 3.537.117 1.32-.073 2.598-.628 3.802"/><path fill="#845EF9" d="M29.5 42.83c.357-.04.465.135.349.527-.72 2.435-2.241 7.257-4.414 7.782-1.08.261-1.74-.915-1.953-1.89-.425-1.95-.276-2.64-.165-5.367.02-.515.008-1.037.478-.941 1.85.375 3.848.096 5.706-.112M16.075 41.111c.07-.341.45-.124.762.007 3.795 1.61 5.221 1.191 4.925 1.893-.706 1.672-2.243 5.533-4.46 5.796-2.757.327-1.507-6.32-1.227-7.696M67.245 40.61c-.358.001-.445.188-.283.565 1 2.334 3.076 6.944 5.296 7.21 1.102.133 1.62-1.112 1.718-2.106.194-1.987-.036-2.654-.465-5.349-.081-.509-.13-1.03-.586-.879-1.794.59-3.811.546-5.68.558M80.377 37.33c-.11-.33-.462-.071-.755.096-3.58 2.044-5.046 1.794-4.67 2.456.898 1.578 2.877 5.233 5.11 5.234 2.775.002.755-6.453.315-7.786M41.255 22.885c1.262.077 1.897 1.208 1.252 2.214-1.122 1.747-4.244.828-3.553-.87.344-.841 1.376-1.475 2.301-1.344M53.234 22.18c-1.245.226-1.743 1.423-.984 2.346 1.318 1.604 4.311.325 3.426-1.28-.44-.795-1.54-1.303-2.442-1.065M98.302 92.113c-.295 4.376-3.249 9.144-6.078 12.31-18.098 20.239-56.351 11.11-61.932-16.81-.631-3.17-.575-7.2-.114-9.512.124-.61.155-1.003.776-.662 6.361 3.517 14.844 2.68 19.152-.93.342-.285.616-.28.973-.047 4.391 2.798 11.348 2.544 16.117.248 3.232-1.562 3.998-2.664 4.334-2.917.843-.652.522 1.893 2.984 5.255 2.835 3.869 7.123 6.424 11.71 6.14 2.54-.156 4.273-.782 6.9-.342q.162.017.331.052c2.353.46 4.288 2.493 4.728 4.862.14.76.175 1.551.118 2.353"/><path fill="#D811AD" d="M53.05 77.084c-2.368-.882-2.21-1.658-2.83-1.111-6.31 5.582-20.153 4.008-23.5-3.345-.448-.985-.483-2.02-.173-3.058 1.439-4.809 12.103-5.063 22.885 1.45 1.48.895.911-.206 5.964-3.154 4.193-2.445 11.48-5.35 15.892-3.343 2.335 1.061 3.053 3.202 2.516 5.03-1.075 3.654-4.736 6.19-8.399 7.497-3.709 1.323-8.306 1.543-12.355.034M127.138 92.946c-1.112 6.511-17.425 6.087-28.835-.833a9.4 9.4 0 0 0-.12-2.353c-.439-2.37-2.373-4.402-4.727-4.862-.113-.021-.222-.042-.33-.052-2.576-13.557 3.532-30.573 10.856-27.113 5.146 2.43 6.626 14.55 3.01 22.101-.889 1.862.538.419 5.214 1.283 4.582.848 8.943 2.498 12.232 5.72 1.629 1.593 3.083 3.859 2.7 6.109"/><path fill="#FF8CDB" d="M69.121 66.298c1.52-.04 1.808.826.648 1.225-2.276.783-4.769 1.047-9.834 3.582-4.42 2.212-5.182 3.173-6.147 3.364-.595.118-1.204-.457-.947-1.106.35-.886 2.341-2.102 3.162-2.593 4.666-2.794 6.757-3.465 9.422-4.093.772-.181 2.068-.336 3.696-.379M38.026 69.181c2.13.506 5.534 1.749 8.342 3.217 2.83 1.48 1.458 2.597.676 2.482-.437-.065-2.153-.894-4.534-1.857-5.474-2.212-7.447-2.215-11.684-2.938-1.713-.292-1.487-1.262.324-1.392 2.516-.184 3.848-.23 6.876.488M60.594 22.321c-.132.216-.327.185-.49.027-2.375-2.317-3.364-4.841-1.783-7.862 1.507-2.878 3.651-2.49 4.077-1.31.83 2.303-.507 7.01-1.804 9.145M34.184 24.023c-.168.163-.272.155-.41-.034-1.925-2.642-4.8-9.644-1.522-9.852.614-.039 1.138.115 1.63.54 1.1.952 1.894 2.075 2.251 3.498.432 1.72-.246 4.192-1.95 5.848M35.437 73.16c2.55.603 4.577 1.213 6.49 2.365 1.458.88.84 2.444-1.016 1.647-3.927-1.686-6.96-2.24-9.42-3.28-.706-.299-.637-.82-.31-1.003.255-.141 3.498.093 4.256.272M69.692 70.783c.101.38-.229.574-.605.816-.596.382-1.247.656-1.89.946-7.87 3.538-6.77 3.579-7.682 3.709-1.065.151-1.422-.744-.837-1.405 1.938-2.191 10.633-5.49 11.014-4.066M99.935 89.5c-.739-1.87 5.809 1.746 11.74 2.615 6.207.91 9.557-.495 10.578-.453.788.033 1.229 1.008.566 1.612-.122.11-.279.186-.425.269-4.99 2.804-16.749.407-21.585-3.145-.296-.216-.73-.533-.874-.897M100.638 61.322c.968-.64 2.009.218 1.464 1.185a30 30 0 0 1-1.091 1.81c-5.47 8.319-3.096 19.196-4.555 19.606-1.824.512-2.657-13.442 2.718-20.986.444-.623.973-1.166 1.464-1.615M100.263 81.009c-.162-1.39 1.511-5.146 2.178-9.444.792-5.111-.265-7.77 1.317-7.676.926.054.993.546 1.209 1.83.837 4.975-.968 10.788-3.529 15.004-.427.703-1.114.816-1.175.286M120.866 88.352c.551.38.613.747.45 1.308-.211.725-1.062.599-1.747.306-7.686-3.284-12.289-2.237-15.405-3.282-.33-.11-.373-.43-.111-.66 1.192-1.04 10.823-1.793 16.813 2.328M62.133 60.738a15 15 0 0 1-.248 3.8 32.4 32.4 0 0 0-5.842 2.562c-6.342 3.607-5.12 4.446-6.499 3.586-3.534-2.2-7.688-3.964-11.894-4.658a15.1 15.1 0 0 1-.715-3.808c-.453-7.714 4.821-14.302 11.777-14.711 6.96-.41 12.966 5.516 13.42 13.23"/><g fill="#3C1DA1" opacity=".25"><path d="M30.287 87.592c-.279-1.376-.574-4.515-.384-5.89q.043-.315.368-.22c3.753 1.076 6.481 4.326 8.79 7.286 2.859 3.667 5.41 7.593 8.68 10.923 3.689 3.757 8.568 6.376 13.688 7.553 5.543 1.274 11.408.362 16.4-2.322 4.105-2.207 7.306-5.646 10.283-9.162 5.103-6.03 8.035-10.11 9.112-8.332 2.002 3.299.978 7.257-.727 10.718-13.25 26.886-59.766 21.28-66.21-10.554M54.11 73.83c8.453.664 12.972-4.034 12.659-8.66-.047-.689-.433-1.172.246-1.26.224-.03.452-.056.676-.04 1.817.139 3.429.173 4.848 1.433 4.63 4.112-2.793 13.025-14 12.833a15.9 15.9 0 0 1-5.618-1.104c-2.459-.975-2.06-1.606-2.744-1.025-4.486 3.814-12.248 4.249-17.557 1.817-.176-.08-.202-.29-.048-.42 6.079-5.155 13.53-4.202 21.538-3.573M123.19 96.731c-2.329.816-5.276.97-5.996.825-.583-.116 1.445-1.942-.374-5.141-3.433-6.038-10.661-4.355-12.988-11.288-1.998-5.955.031-13.722 3.162-19.376.098-.177.314-.158.397.034 2.129 4.973 2.316 11.95-.506 18.27-.639 1.431.612.366 4.645.946 13.235 1.904 19.026 11.314 13.697 14.71-.498.317-.842.602-2.037 1.02M49.539 7c.512 1.042.5 2.209.209 2.872-.147.324-.176.596-.051.844l-.128-.128c-.45-.434-1.092-.346-2.02-.452a5 5 0 0 0-.682-.04c.034-.523-.051-1.123-.293-1.825a8 8 0 0 1-.422-3.26q.45-.027 1.047.019c.664.051.816.072.803-.483.039.408.15.757.535 1.1.423.376.751.837 1.002 1.353"/></g><path fill="#FFCE00" d="m51.295 15.408-.024.112q-.012.052-.025.096a.4.4 0 0 1-.029.093.917.917 0 0 1-.096.246.3.3 0 0 1-.06.078c-.279.286-.912-.087-3.198-.318a5.5 5.5 0 0 0-1.107 0c-.09 0-.179.01-.269.02q-.141.015-.282.038-.098.011-.194.031a6 6 0 0 0-.415.084c-.074.015-.143.034-.217.053-.52.116-1.006.264-1.459.402-.104.026-.197.056-.296.082q-.294.087-.567.149-.14.029-.253.035a.4.4 0 0 1-.075 0 .58.58 0 0 1-.388-.213c-.011-.015-.027-.034-.034-.058a1 1 0 0 1-.072-.216v-.01c-.006-.005-.007-.02-.013-.03-.511-1.892-.182-3.619 1.106-5.132q.229-.27.56-.358c.98-.268 1.962-.506 2.98-.495.225-.003.451.013.683.04.927.105 1.568.018 2.02.451l.132.133q.087.175.286.343c.042.038.09.08.132.123 0 .005.005.005.01.01.2.253.382.518.533.789q.04.073.073.146c.034.063.068.126.092.195.005.01.006.02.011.03.188.464.333.971.422 1.462a.2.2 0 0 1 .01.084q.021.223.027.454c.019.339.054.692-.004 1.05"/><path fill="#FFCE00" d="M42.34 16.396a.58.58 0 0 0 .389.212c-.19.001-.304-.067-.388-.213M43.919 16.343c.375-.113.78-.231 1.2-.335-.475.13-.872.242-1.2.335M45.378 15.941c-.089.02-.17.045-.258.066l.026-.007c.08-.02.158-.044.232-.059M49.988 11.064a1.1 1.1 0 0 1-.286-.343c.154.15.288.303.418.466a3 3 0 0 0-.132-.123M51.06 16.033v.005c-.103.106-.237.124-.484.094-1.763-.252-2.712-.482-3.82-.417a5.5 5.5 0 0 1 1.106 0c2.287.23 2.92.604 3.198.318M51.26 13.818a7.6 7.6 0 0 0-.421-1.462c.217.453.355.935.421 1.462M51.217 15.708a.4.4 0 0 0 .03-.092c-.005.016-.009.03-.013.05a.2.2 0 0 1-.017.042M48.002 4.532v.015c.013.555-.139.534-.802.483a8 8 0 0 0-1.048-.019c-1.714.061-2.015.63-2.103-.176-.313-2.78 1.044-4.978 2.558-3.93.402.276.69.66.896 1.103.126.273.215.508.277.715.228.732.172 1.311.221 1.809"/><path fill="#FFCE00" d="M47.987 4.217q.013.18.014.315c-.05-.498.006-1.077-.222-1.81.215.664.171 1.037.208 1.495"/><g fill="#E38921" opacity=".5"><path d="M47.199 5.03a8 8 0 0 0-1.048-.02c.155-2.121 1.144-3.456 1.469-2.704.063.141.116.283.16.416.228.733.172 1.312.221 1.81l.001.014c.012.556-.14.535-.803.484M51.303 15.378c-.005.01-.004.02-.008.03a3 3 0 0 1-.12.432 1 1 0 0 1-.058.124c-.262.406-.817-.007-3.255-.25a6.6 6.6 0 0 0-1.658.058q-.098.012-.194.032a6 6 0 0 0-.415.084c-.806.173-1.547.427-2.198.6-.118.032-.231.064-.34.085l-.074.02a.5.5 0 0 1-.179.015.4.4 0 0 1-.075 0 .58.58 0 0 1-.388-.213.2.2 0 0 1-.034-.058.4.4 0 0 1-.072-.216.65.65 0 0 1 .036-.327c.758-2.178 4.42-2.829 4.596-5.698.225-.003.452.014.684.04.927.105 1.568.018 2.019.452l.127.128q.095.18.291.348c.043.038.09.08.133.123 0 .005.005.005.01.01.198.208.379.478.532.789q.04.073.074.146c.24.517.42 1.117.525 1.686a.2.2 0 0 1 .01.084c.098.57.114 1.1.031 1.476"/></g><g fill="#845EF9" opacity=".25"><path d="M59.809 49.435c-.306-1.794.339-5.807 2.966-5.153 3.706.925 5.996 4.232 8.515 5.079 4.545 1.526 8.31-3.333 13.174-2.441.248.045.322.24.161.43-.493.586-1.08 1.075-1.665 1.56-4.169 3.452-9.383 5.627-14.645 5.583-.313-.003 1.725 7.275 1.802 8.645.027.477-.083.587-.601.516-1.687-.232-4.05-.14-6.612.582-7.203 2.032-11.934 6.344-12.435 6.68-.284.191-.497.04-.92-.224-8.319-5.171-14.061-4.483-13.131-5.21 5.622-4.4 13.184 1.016 19.729-3.663 4.063-2.905 4.499-7.471 3.662-12.384M20.88 55.97a25 25 0 0 1-6.522-3.18c-1.387-.948-1.42-1.008-1.373-1.17.035-.122.143-.162.252-.198 5.206-1.694 10.129 3.91 14.783-.174 1.986-1.744 3.463-3.892 6.365-5.089.467-.192.699-.283 1.05-.154.879.324-1.951 1.63-4.57 10.322-.116.388-.34.566-.719.59-3.055.2-5.199.352-9.266-.947"/></g><path fill="#3C1DA1" d="M34.166 84.627c.495.844 1.189 1.554 2.006 1.995.813.441 1.744.62 2.599.452a3.6 3.6 0 0 0 2.126-1.371c.036-.047.067-.071.108-.137l.128-.217.259-.435.141-.235.187-.292c.068-.082.134-.17.203-.248.07-.061.14-.14.213-.188.145-.11.288-.175.458-.215a.9.9 0 0 1 .522.057c.281.105.58.395.827.836l.19.317c.057.091.146.24.173.274.083.123.144.203.214.291q.205.261.443.485c.315.297.674.561 1.066.761.384.202.78.344 1.175.411.396.053.79.05 1.172-.039.757-.19 1.466-.677 1.95-1.356l.093-.126c.016-.025.028-.035.048-.07l.077-.156.31-.622.355-.682c.03-.047.06-.136.088-.147l.088-.054.175-.108a.8.8 0 0 1 .41-.154c.205-.024.398-.004.49.043l.374.173c.028 0 .067.055.105.105l.114.146.226.291c.114.266.23.42.347.6l.174.265c.027.038.064.101.08.12l.05.052c.125.144.256.28.403.402.289.242.603.46.946.593.34.138.693.237 1.052.241.179.026.357-.014.537-.018.177-.045.36-.055.532-.13.695-.224 1.4-.715 1.92-1.318q.196-.227.364-.478.082-.126.159-.26l.084-.153.047-.09.072-.153c.187-.402.36-.866.604-1.1.117-.127.235-.204.364-.27a.86.86 0 0 1 .482-.084c.303.041.58.194.865.492.072.062.137.156.205.236l.174.22.283.37c.091.117.193.26.275.354l.218.206c.073.068.14.143.217.208l.243.168c.647.452 1.44.674 2.248.61.806-.074 1.601-.43 2.255-.983.658-.552 1.174-1.296 1.528-2.124.367-.981 1.055-.91.786.28-.303.969-.814 1.902-1.564 2.654-.743.75-1.73 1.314-2.83 1.5a4.83 4.83 0 0 1-3.246-.636l-.361-.223c-.113-.083-.216-.177-.324-.266l-.319-.273c-.083-.079-.123-.133-.186-.2l-.172-.192-.051-.055-.022-.021c-.029-.026-.055-.052-.087-.062-.043-.01-.056.058-.065.09l-.027.104-.003.012-.034.07-.082.166a6.502 6.502 0 0 1-.68 1.052 6.4 6.4 0 0 1-1.2 1.161c-.456.328-.948.638-1.513.823-1.104.42-2.415.375-3.505-.074-.557-.212-1.052-.537-1.499-.906a5.5 5.5 0 0 1-.621-.608l-.073-.08c-.024-.026-.016-.019-.025-.03l-.032-.041-.04-.052v.001h-.002l-.056.092-.014.025-.065.09-.14.191c-.743 1.016-1.859 1.795-3.145 2.083a5.1 5.1 0 0 1-1.947.018 5.8 5.8 0 0 1-1.758-.67 6.4 6.4 0 0 1-2.26-2.165c-.048-.075-.023-.04-.034-.061l-.01-.025c-.014-.035-.027-.076-.049-.118-.023-.059-.075-.03-.096-.002l-.041.046-.021.026-.068.097-.163.23-.082.115c-.032.043-.098.11-.145.163-.786.927-1.938 1.585-3.157 1.734-1.22.147-2.436-.212-3.4-.851-.973-.643-1.702-1.568-2.166-2.573-.274-.666-.206-1.062-.033-1.12.185-.068.472.178.786.72M40.205 98.296c.659.724 1.485 1.274 2.376 1.536.886.263 1.834.246 2.635-.096a3.6 3.6 0 0 0 1.796-1.782c.026-.054.05-.083.077-.156l.081-.24.163-.48.09-.258.122-.325c.05-.094.096-.194.147-.284.057-.075.108-.167.17-.228a1.15 1.15 0 0 1 .403-.305.9.9 0 0 1 .522-.053c.297.045.65.267.983.646l.25.272c.076.077.194.205.227.232a4.6 4.6 0 0 0 .803.623c.37.225.777.409 1.201.523.417.118.834.175 1.235.16.399-.03.783-.115 1.138-.282.702-.343 1.294-.966 1.627-1.73l.064-.143c.01-.027.02-.04.033-.079l.043-.167.174-.673.206-.742c.019-.051.03-.145.056-.162l.075-.071.15-.142a.8.8 0 0 1 .367-.236c.196-.066.39-.086.49-.06l.4.092c.028-.005.078.04.126.081l.14.12.283.238c.167.236.313.363.463.514l.226.223c.033.032.083.086.104.1l.058.042c.153.114.31.221.478.31.334.176.686.324 1.049.383.36.064.727.088 1.079.018.18-.012.347-.088.522-.13.163-.08.34-.128.494-.236.632-.364 1.22-.99 1.605-1.688a5 5 0 0 0 .359-.83l.05-.168.027-.098.039-.165c.1-.431.172-.921.363-1.2.089-.15.187-.25.3-.34a.85.85 0 0 1 .454-.182c.306-.024.608.069.948.301.084.046.166.125.249.189l.216.179.353.303c.114.095.243.213.344.29l.255.156c.085.051.168.11.255.157l.273.115a3.45 3.45 0 0 0 2.325.13c.774-.238 1.478-.751 2.003-1.428.53-.677.879-1.511 1.054-2.395.156-1.035.845-1.108.828.112-.096 1.01-.403 2.03-.98 2.92-.571.888-1.42 1.644-2.458 2.054a4.83 4.83 0 0 1-3.307.05l-.4-.142c-.127-.058-.247-.129-.371-.193l-.37-.201c-.097-.06-.148-.105-.224-.158l-.208-.151-.06-.044-.027-.016c-.034-.02-.064-.039-.098-.042-.044-.002-.042.068-.045.1l-.004.108-.001.012-.018.077-.047.179a6.584 6.584 0 0 1-.446 1.17 6.4 6.4 0 0 1-.933 1.384c-.38.416-.796.82-1.31 1.118-.994.64-2.285.868-3.445.655-.589-.092-1.14-.307-1.654-.576a5.5 5.5 0 0 1-.734-.466l-.088-.063c-.029-.02-.02-.016-.032-.024l-.039-.034-.05-.042h-.002l-.035.103-.01.026-.044.102-.097.216c-.517 1.147-1.447 2.141-2.646 2.69a5.1 5.1 0 0 1-1.901.421 5.8 5.8 0 0 1-1.858-.292 6.4 6.4 0 0 1-2.66-1.65c-.063-.062-.031-.034-.047-.051l-.015-.023c-.02-.031-.041-.069-.072-.106-.035-.052-.08-.012-.094.019l-.03.053-.016.03-.047.108-.111.259-.056.13c-.023.048-.073.127-.108.189-.577 1.07-1.568 1.953-2.728 2.351-1.164.397-2.428.297-3.503-.129-1.085-.426-1.99-1.18-2.652-2.068-.406-.594-.422-.995-.266-1.088.169-.102.5.079.92.544M54.37 107.415c.794.572 1.715.94 2.64 1.013.922.074 1.847-.138 2.56-.638a3.6 3.6 0 0 0 1.39-2.114c.014-.058.032-.092.043-.17l.03-.25.06-.503.035-.272.053-.343c.028-.102.053-.21.085-.308.04-.085.072-.187.119-.259.088-.16.192-.277.331-.381a.9.9 0 0 1 .5-.159c.3-.018.69.126 1.095.429l.301.214c.09.06.232.16.27.18.126.079.214.128.313.18q.294.156.601.265c.409.144.844.24 1.283.264.432.03.851 0 1.24-.099a3.3 3.3 0 0 0 1.057-.51c.616-.48 1.067-1.212 1.236-2.029l.032-.153c.005-.029.012-.043.016-.083l.008-.173.032-.694.048-.768c.009-.054 0-.148.021-.17l.059-.085.117-.17a.8.8 0 0 1 .312-.306c.178-.105.363-.165.466-.16l.412.008c.026-.011.083.022.139.053l.162.087.325.175c.212.197.381.29.56.408l.266.172c.04.025.1.067.122.077l.066.028c.173.081.35.152.532.205.362.104.738.176 1.105.158.366-.01.73-.063 1.06-.204.174-.049.32-.158.484-.235.142-.112.306-.195.433-.333.545-.487.99-1.221 1.223-1.983a5 5 0 0 0 .18-.886l.014-.175.006-.101.005-.17c.009-.442-.022-.936.107-1.248.056-.164.132-.283.224-.395a.86.86 0 0 1 .407-.272c.294-.086.608-.057.99.1.09.027.188.087.282.133l.249.13.408.224c.131.07.281.159.395.212l.282.101c.094.033.188.074.283.102l.291.056c.774.151 1.59.033 2.302-.353.708-.393 1.29-1.04 1.665-1.81.378-.772.549-1.66.538-2.561-.062-1.045.597-1.258.833-.062.114 1.009.024 2.07-.357 3.06-.377.987-1.05 1.902-1.982 2.517a4.83 4.83 0 0 1-3.226.731l-.42-.057c-.137-.03-.269-.074-.404-.112l-.403-.121c-.107-.038-.166-.072-.251-.108l-.236-.105-.068-.03-.028-.01c-.038-.013-.072-.026-.105-.022-.044.007-.028.075-.024.108l.018.106.001.012-.002.078-.008.185a6.428 6.428 0 0 1-.823 2.784c-.285.484-.609.966-1.051 1.364-.84.831-2.057 1.321-3.237 1.351-.594.031-1.178-.066-1.737-.223a5.4 5.4 0 0 1-.814-.305l-.1-.043c-.032-.014-.022-.011-.035-.017l-.045-.025-.058-.031v.001h-.002l-.013.107-.004.028-.023.109-.05.232c-.269 1.229-.974 2.394-2.034 3.177a5.1 5.1 0 0 1-1.773.805 5.8 5.8 0 0 1-1.879.097 6.4 6.4 0 0 1-2.943-1.065c-.074-.049-.037-.028-.056-.042l-.019-.019c-.027-.026-.055-.058-.092-.088-.045-.044-.08.004-.088.038l-.02.059-.008.032-.024.116-.056.276-.028.139c-.012.052-.045.14-.067.207-.343 1.167-1.13 2.235-2.184 2.864-1.058.628-2.314.791-3.455.596-1.15-.194-2.19-.744-3.021-1.477-.52-.497-.619-.887-.484-1.01.146-.136.507-.027 1.014.342"/><path fill="#D811AD" d="M62.596 16.036c-.16 2.064-1.295 5.281-2.046 6.351-.141.201-.409.02-.57-.146-.686-.708-1.353-1.433-1.795-2.33-1.08-2.185-.714-4.336.636-6.2q.051-.067.113-.126c.173-.173.343-.176.507.008.397.449.688.958.861 1.533.447 1.492.307.613 1.762.277.462-.106.539-.052.532.633M36.278 19.396c.002.692-.211 1.702-.686 2.652-.355.711-.792 1.367-1.36 1.928-.224.222-.31.227-.467 0-1.303-1.873-2.249-3.906-2.75-6.137-.007-.028-.02-.053-.025-.081-.065-.352.051-.501.383-.455.418.06.831.135 1.227.307.444.192.508.15.592-.35.07-.419.143-.835.291-1.233.06-.158.124-.317.204-.465.315-.59.56-.623 1.005-.114a6.38 6.38 0 0 1 1.586 3.948M49.999 31.937c-.742 1.105-1.803 1.96-2.993 1.377-2.908-1.416-2.085-4.374.322-3.459.492.186.627-.157 1.419-.314 1.257-.253 2.067 1.176 1.252 2.395"/><g fill="#845EF9" opacity=".25"><path d="M59.809 49.435c-.306-1.794.339-5.807 2.966-5.153 3.706.925 5.996 4.232 8.515 5.079 4.545 1.526 8.31-3.333 13.174-2.441.248.045.322.24.161.43-.493.586-1.08 1.075-1.665 1.56-4.169 3.452-9.383 5.627-14.645 5.583-.313-.003 1.725 7.275 1.802 8.645.027.477-.083.587-.601.516-1.687-.232-4.05-.14-6.612.582-7.203 2.032-11.934 6.344-12.435 6.68-.284.191-.497.04-.92-.224-8.319-5.171-14.061-4.483-13.131-5.21 5.622-4.4 13.184 1.016 19.729-3.663 4.063-2.905 4.499-7.471 3.662-12.384M20.88 55.97a25 25 0 0 1-6.522-3.18c-1.387-.948-1.42-1.008-1.373-1.17.035-.122.143-.162.252-.198 5.206-1.694 10.129 3.91 14.783-.174 1.986-1.744 3.463-3.892 6.365-5.089.467-.192.699-.283 1.05-.154.879.324-1.951 1.63-4.57 10.322-.116.388-.34.566-.719.59-3.055.2-5.199.352-9.266-.947"/></g><path fill="#0A1640" d="M55.143 28.329c-.123-2.107-3.293-1.808-3.039.243.251 2.02 3.15 1.665 3.04-.243M43.049 29.105c.012-2.067-3.171-1.992-3.046.114.113 1.909 3.034 1.921 3.046-.114M42.705 33.833c-.001.06.025 1.445.916 2.284.477.443 1.088.642 1.822.6 1.313-.078 2.052-.777 2.447-1.556.479.727 1.295 1.335 2.608 1.258.733-.043 1.318-.313 1.74-.808.791-.938.65-2.317.642-2.377a.46.46 0 0 0-.521-.42.47.47 0 0 0-.42.52c0 .01.096 1.046-.429 1.663-.247.295-.599.446-1.068.473-1.906.113-2.158-1.79-2.18-2.01-.002-.009-.002-.024-.008-.034a1.6 1.6 0 0 1-.93.02c-.004.025-.007.045-.006.07.003.22-.024 2.14-1.93 2.252-.469.027-.836-.081-1.117-.345-.593-.551-.619-1.59-.62-1.601a.47.47 0 0 0-.478-.468.46.46 0 0 0-.468.479"/><path fill="#0A1640" d="M125.997 87.548c-2.904-3.524-7.627-5.743-12.121-6.792-3.783-.88-5.687-.445-6.128-.61.01-.47 1.125-2.07 1.72-5.913.699-4.558.399-9.771-1.785-13.775-1.369-2.509-4.073-4.483-6.763-3.618-5.872 1.884-10.26 14.98-8.471 27.18-2.62-.25-5.328.79-8.077.47-4.738-.555-9.596-4.12-11.54-10.382-.296-.94-.27-.95.329-1.769 2.1-2.864 2.075-6.303-1.06-8.122-.929-.535-1.259-.465-1.334-1.03-.27-1.974-.904-4.273-1.55-6.052-1.369-3.769-.974-.365 7.088-3.54 5.772-2.273 12.126-7.721 13.24-13.04 1.01-4.823-2.605-8.666-7.618-5.307-5.417 3.629-13.084 5.688-19.232 3.823-.73-.22.23-.91.93-2.714 1.869-4.863.98-9.542-1.135-12.56-1.68-2.394-1.09-.37.364-5.513.31-1.09.79-3.649.185-5.258-1.62-4.309-9.631 2.918-10.351 3.248-.41.19-.82-.1-.785-.54.01-.084.035-.17.045-.25.18-1.639-.14-3.158-1.16-4.473-.324-.415-.43-.784-.3-1.31.38-1.589-.13-2.974-1.179-4.143-1.28-1.42-.03-1.78-1.444-4.209C47.27.33 46.075-.37 45.04.21c-1.28.72-1.84 2.585-1.705 3.914.08.775-.105 1.39-.555 2.04-.86 1.25-1.08 2.639-.494 4.098.165.41.325.51-.035 1.085-1.564 2.524-.66 4.718-.59 5.203.05.335-.495.755-1.1.34-1.699-1.17-6.322-3.659-8.536-3.394-3.669.44-1.275 6.913.8 10.221.254.41.044.665-.2 1.085-2.97 5.083-1.98 10.746.49 14.345.84 1.224 1.244 1.49.76 1.724-5.674 2.754-13.521 1.634-19.009-1.08-.934-.46-1.879-.884-2.929-1.074-2.054-.375-4.168.81-4.768 3.078-1.91 7.212 10.826 16.804 22.002 15.884 1.714-.14.604-.304-.06 5.398-.1.895-.215 1.79-.155 2.694.02.325-.09.535-.38.68-3.064 1.51-4.024 4.993-1.23 8.407 1.65 2.014 2.44 1.704 2.254 2.749-3.918 22.351 19.443 42.659 44.334 37.696 14.16-2.824 23.75-13.92 24.9-22.177 10.602 6.003 24.106 6.733 28 2.044 1.801-2.173.976-5.417-.838-7.621m-82.89-75.822c.51-.79.63-.634.276-1.34-.73-1.469-.55-2.853.47-4.103.35-.43.524-.844.44-1.384-.09-.62 0-1.24.069-1.855.31-2.909 3.139-2.574 3.363.89.055.905-.014 1.355.49 1.814 1.19 1.08 1.76 2.554 1.235 4.109-.145.43-.39.735.195 1.28.64.6 1.024 1.384 1.225 2.229.135.57.45 1.759.01 2.269-.535.615-2.33-1.025-7.368.5-.944.284-1.004.26-1.154-.765-.185-1.3.03-2.524.75-3.644m-13.13 51.816c.54-5.463 2.64-11.765 5.953-16.654.31-.46.24-.64.026-.814-.156-.125-.33-.115-.46.025-1.02 1.114-1.73 2.444-2.554 4.068-2.64 5.203-1.705 6.478-3.469 6.563-8.797.435-16.383-3.814-20.232-9.382-.99-1.434-1.405-3.023-1.25-4.728.25-2.76 2.81-3.614 4.963-2.654 2.924 1.31 5.413 2.634 10.456 3.228 3.649.43 7.992.145 11.22-1.624.546-.3.96-.57.59-1.145-.354-.544-2.643-2.819-3.308-6.852-.52-3.19.11-6.173 1.884-8.897.49-.75.49-.33-.694-2.34-1.175-1.994-3.344-7.496-1.06-7.881 1.01-.17 2.164.26 3.084.634 2.084.85 3.513 1.69 5.088 2.68 1.59.994.755-.425 5.703-1.185 1.79-.275 4.148-.095 6.382.755.705.265.66-.18 3.334-2.085 1.145-.814 2.35-1.594 3.644-2.159.82-.355 2.359-.925 2.854.2.145.335.3 2.104.1 3.279-.285 1.674-.885 3.779-1.725 5.288-.58 1.045.645.905 2.074 4.009.73 1.584 1.15 3.768 1.145 4.743-.045 6.952-3.674 8.207-2.174 8.991 3.808 1.99 12.865 1.775 21.172-3.743 3.109-2.07 6.088-.575 6.023 3.169-.096 5.712-8.017 13.015-16.535 14.814-.984.205-1.989.39-3.013.38-.555 0-1.13.075-1.455-.695-1.13-2.669-3.408-6.508-5.683-8.871-.174-.18-.42-.455-.71-.205-.784.685 1.365 1.16 4.724 7.667 1.66 3.209 3.274 7.383 3.748 11.001.02.175-.11.25-.274.24-.505-.03-1.015-.03-1.515-.11-1.534-.235-5.008.585-6.467 1.07-4.373 1.46-7.882 3.613-10.951 6.117-.715.58-.16.13-4.279-1.874-3.303-1.61-7.202-2.82-10.666-3.11-3.309-.274-4.114.1-5.453.365-.569.116-.374-.913-.24-2.278m-1.539 4.088c2.954-1.864 7.847-1.394 11.226-.52A33 33 0 0 1 49.4 71.36c1.555 1 1.485-.725 7.057-3.774 8.417-4.603 17.07-4.643 17.159.725.085.535-.055 1.105-.265 1.67-2.475 6.747-14.83 10.525-22.441 5.622-1.035-.665-.91 1.385-6.038 2.799-1.7.47-3.438.685-5.193.635-11.376-.335-15.814-8.522-11.24-11.406m69.435 25.63c-.905 4.959-4.964 11.536-11.686 16.014-19.868 13.231-49.942 2.675-55.305-20.387-.685-2.934-1.06-8.052-.33-10.996.185-.754 1.82 1.41 7.497 2.005.7.075 1.405.11 2.11.055.285-.02.904.09 1.179.05 2.964-.44 6.198-.95 8.947-3.229.415-.35.61.01 1.429.41 5.768 2.858 13.874 1.849 19.233-2.444.27-.22.44-.6.854-.62 1.87 5.433 4.988 8.672 8.687 10.286 5.518 2.41 8.477.165 12.12.645q.34.037.685.12.129.029.25.065c3.12.81 4.559 3.344 4.494 6.393a9 9 0 0 1-.07.99c-.02.21-.055.429-.094.644m28.744.41c-2.175 5.449-17.279 4.594-27.685-1.499.21-3.498-1.214-6.377-4.593-7.712-.33-.13-.655-.23-.984-.3-1.91-11.986 2.959-26.575 8.876-26.56 1.4.005 2.514.655 3.384 1.67.874 1.029 1.604 2.174 2.069 3.473 3.214 8.991-1.124 17.658-1.139 17.713-.115.335.135.65.47.695.05.004 9.711-.795 16.864 5.543 1.029.914 1.819 2.024 2.449 3.219.619 1.18.803 2.46.289 3.759"/><path fill="#0A1640" d="M80.326 24.194c-.506-.066-1.267-.02-1.671-.024-.054-1.445.01-3.51-.144-4.93-.218.34-.672 1.845-.81 1.844-.254-.014-.762-1.792-.775-1.767-.15 1.584-.085 3.23.006 4.803-.546.085-1.23.03-1.775.026q-.018 0-.038-.039c-.061-.227-.05-1.774.048-8.654.457-.136 1.166-.017 1.724-.051h.012c.314.356.56 1.524.823 1.919q.038.038.077.038c.1.039.454-1.58.76-1.972.24.04 1.344-.04 1.876-.037-.075 1.621.054 3.18-.045 4.803zM86.165 24.983l-.003.013c-.517.028-1.15-.103-1.673-.293l-.012-.002c-.122-.569-.139-1.608-.293-2.13-.417-.124-.4-.07-.776-.125-.302.494-.486 1.504-.855 2.015-.012-.002-.027.01-.038.007-.144.018-.612-.114-1.754-.267-.013-.002-.013-.002-.025-.016.15-.324 1.402-4.636 3.186-8.474.244-.004.434.1 1.552.16.055.674.306 3.719.385 4.588zm-2.63-4.03c.285.054.614.09.928.135.124-4.399-.205-2.654-.928-.134M92.21 21.988l.024.007.009.015c-.13.896-.335 1.93-.725 2.77-.304.811-.861 1.085-1.547 1.153-.87.022-1.923-.057-2.621-.593-.576-.453-.76-1-.773-1.75a7 7 0 0 1 .077-.896c.175-1.067.258-1.635.613-2.838.15-.525.32-1.07.544-1.574.226-.517.527-1.015 1.092-1.22.405-.196.85-.197 1.308-.142 1.886.245 3.194 1.557 2.437 3.494l-.03.07c-.05.04-.145.002-.406-.054-.478-.125-.668-.149-1.142-.338-.012-.356-.09-1.11-.567-1.236-.279-.086-.535-.206-.783-.06-.048.026-.15.17-.223.294-.438.724-.886 2.231-1.108 3.483-.056.365-.123.871.118 1.196.061.069.15.13.253.185.236.1.534.113.79.088a.65.65 0 0 0 .494-.34c.073-.126.294-.671.205-.733-.186-.089-.758-.16-.9-.263.076-.543.201-.72.288-1.3l.003-.012c.004-.012.004-.012.015-.009 0 0 .012.003.029-.006.484-.148 2.195.523 2.525.61M97 18.987l-.017.048c-.975 2.734-2.154 5.516-2.965 8.28-.357.17-1.843-.642-2.211-.666 1.252-2.796 1.878-5.87 3.117-8.442l.008-.024c.088.018.374.16.481.199.283.113.58.26 1.3.503zM99.078 22.217c-.083.06-1.158 2.174-1.545 3.265-.159.471-.218 1.03.174 1.361.318.187.711.213 1.003-.03.335-.278.416-.73.67-1.073.412.258 1.133.447 1.514.773-.207 1.829-2.08 3.064-3.78 2.33-1.163-.349-2.38-1.376-1.918-2.726.447-1.133.977-2.326 2.148-4.802.086-.281.282-.526.479-.715.322-.34.683-.58 1.092-.714.23-.048.463-.04.709.003 2.425.27 3.734 3.206 2.022 5.004-.622-.131-1.121-.442-1.662-.814.186-.654.808-1.526-.109-1.902-.21-.055-.476-.147-.66-.078-.05.018-.11.088-.138.118M104.664 32.721l-.007.011c-.488-.166-1.029-.523-1.443-.895l-.01-.006c.097-.573.469-1.544.52-2.085-.341-.271-.345-.215-.674-.405-.463.346-1.011 1.215-1.542 1.55-.012-.006-.029-.001-.04-.008-.139-.037-.524-.333-1.528-.9-.011-.007-.011-.007-.016-.024.259-.245 3.027-3.782 6.113-6.679.227.088.365.256 1.38.727-.2.646-1.1 3.566-1.35 4.402zm-.94-4.72c.246.158.538.313.811.471 1.754-4.036.798-2.54-.811-.47M109.028 35.855c-.266-.238-.796-.477-4.073-2.906l.132-.185c2.339-3 3.063-4.117 5.096-7.039.36.086 1.352.767 1.625 1.212-1.328 1.744-2.683 3.828-3.983 5.576l-.008.01c.327.11 2.263 1.78 2.622 1.975a2 2 0 0 1-.173.219 3.4 3.4 0 0 0-.299.394c-.657 1.024-.651.95-.939.744M109.635 36.385c-.087-.073.678-.756.978-1.116l.008-.01c.418.133.825.653 1.204.97-.309.352-.685.764-1.001 1.144l-.068-.056c-.156-.13-.217-.197-.362-.318l-.019-.016zm5.68-6.83c.366.255.943.57 1.215.978-1.414 1.642-2.969 3.43-4.277 5.161-.373-.245-.91-.69-1.297-.996l-.01-.008c1.456-1.69 2.758-3.475 4.34-5.16z"/><path fill="#E38921" d="M129.91 54.104c-.523.612-1.602 1.37-2.545 3.875a4.5 4.5 0 0 1-.291.658c-.165.288-.516.307-.71.03-.44-.628-.465-1.625-1.931-3.349-.861-1.011-1.699-1.33-.978-1.941 1.795-1.526 2.412-3.812 2.738-4.418.142-.26.476-.28.66-.051.196.246.298.545.416.834.874 2.138 2.08 3.115 2.572 3.59.124.12.25.562.069.772M116.624 50.7c-.602.704-1.844 1.575-2.931 4.463-.097.258-.2.519-.336.758-.19.333-.594.353-.818.034-.507-.724-.535-1.871-2.224-3.856-.991-1.165-1.956-1.532-1.127-2.237 2.068-1.757 2.778-4.39 3.155-5.087.162-.301.548-.325.76-.06.226.284.343.629.479.961 1.009 2.468 2.403 3.595 2.963 4.136.142.137.286.646.079.888M123.699 67.979a5 5 0 0 1-.393.426c-1.974 1.868-2.439 4.032-2.874 4.794-.19.333-.594.354-.818.034a3.2 3.2 0 0 1-.369-.737c-1.468-4.014-4.223-4.3-2.982-5.355 2.067-1.756 2.778-4.39 3.154-5.087.163-.3.548-.324.76-.06.227.285.343.629.479.962 1.01 2.467 2.403 3.594 2.963 4.135.143.137.289.645.08.888M6.729 79.81c-.523.612-1.603 1.37-2.546 3.875a4.6 4.6 0 0 1-.29.658c-.166.289-.517.307-.711.03-.44-.628-.465-1.625-1.93-3.348-.862-1.011-1.7-1.33-.979-1.942 1.795-1.525 2.412-3.812 2.739-4.417.141-.261.476-.281.66-.052.196.247.297.546.416.835.874 2.138 2.08 3.115 2.572 3.59.123.12.25.561.069.772M17.805 89.031c-.602.704-1.844 1.575-2.931 4.463-.098.258-.2.52-.336.758-.19.333-.594.354-.818.034-.507-.723-.536-1.87-2.224-3.856-.991-1.165-1.957-1.531-1.127-2.236 2.068-1.757 2.778-4.391 3.155-5.088.162-.3.548-.324.76-.06.226.285.343.63.479.962 1.009 2.467 2.402 3.595 2.963 4.136.142.136.287.645.08.887M20.38 71.518a6 6 0 0 1-.393.426c-1.975 1.867-2.44 4.031-2.875 4.794-.19.332-.593.354-.818.034a3.2 3.2 0 0 1-.369-.738c-1.468-4.013-4.222-4.3-2.982-5.354 2.068-1.756 2.779-4.39 3.155-5.087.163-.301.548-.325.76-.06.226.284.343.629.48.961 1.008 2.467 2.402 3.595 2.962 4.135.142.137.288.645.08.888"/></svg>