<svg xmlns="http://www.w3.org/2000/svg" width="100" height="113" fill="none"><path fill="#fff" d="M99.92 74.414c-.652-10.62-4.81-15.28-9.039-17.233q.024-.297.042-.592a41 41 0 0 0 .08-2.214 3.445 3.445 0 0 0 2.172-3.187c0-.04.001-3.851-1.394-8.92a335 335 0 0 0 1.9-5.33c1.83-5.269 3.231-9.749 4.166-13.316 1.726-6.589 1.803-9.601.303-11.499-1.6-2.04-4.74-3.164-8.843-3.164-1.797 0-3.684.222-5.615.65a3.448 3.448 0 0 0-3.69-2.795l-6.59.577-2.466-5.38a3.449 3.449 0 0 0-6.54.9l-1.09 6.904-6.503 2.047a3.45 3.45 0 0 0-2.346 3.967l-.734-.004c-3.772 0-7.361.39-10.706 1.165a48 48 0 0 0-5.006-3.668c-7.798-4.954-14.254-5.694-17.407-5.694-4.024 0-7.116 1.1-8.699 3.09-.98 1.22-1.66 2.879-.458 8.655a3.45 3.45 0 0 0-1.452 2.303l-1.09 6.904-6.502 2.047a3.449 3.449 0 0 0 .147 6.621l4.292 1.145-.511 5.314a3.449 3.449 0 0 0 6.052 2.574l3.847-4.488.187.106c-1.306 4.057-1.596 7.037-1.63 7.428a3.45 3.45 0 0 0 1.762 3.31 83 83 0 0 0-.148 1.933c-4.448 1.283-9.82 5.31-11.32 16.967-1.826 14.173 4.291 19.666 8.915 21.78-.115 4.483.806 7.65 2.795 9.638.956.957 3.445 3.446 21.694 5.28 1.879 2.586 5.57 4.244 9.865 4.244 6.279 0 11.197-3.598 11.197-8.192 0-4.045-3.814-7.315-9.012-8.04.154-.126.3-.262.433-.417l3.848-4.488 4.805 2.716a3.44 3.44 0 0 0 3.951-.393 3.45 3.45 0 0 0 .963-3.852l-1.855-4.8 4.17-3.944a3.447 3.447 0 0 0-2.67-5.94l-6.591.578-2.055-4.482q.345.151.701.269a5.2 5.2 0 0 0 1.623.272l.066-.001c.641-.01 1.32-.157 2.203-.477.537-.194 1.093-.429 1.65-.688a4.44 4.44 0 0 0 3.485 1.555 4.3 4.3 0 0 0 2.715-.996 4.44 4.44 0 0 0 2.522.834 54 54 0 0 0-.224 4.68c-.056 8.88 1.635 13.461 3.047 15.715.47.765.875 1.196 1.074 1.385q.125.118.261.223c1.697 1.312 4.28 2.23 7.108 2.52.247.023.51.047.804.067q.523.03 1.06.03c4.524 0 8.594-1.677 11.458-4.722 3.673-3.907 5.296-9.787 4.823-17.477"/><path stroke="#2C1845" stroke-miterlimit="10" stroke-width="3.549" d="M19.198 87.4s-2.055 9.647.79 12.494c2.848 2.846 23.564 4.428 23.564 4.428"/><path fill="#2C1845" d="M48.454 109.066c4.279 0 7.748-2.124 7.748-4.744s-3.469-4.744-7.748-4.744c-4.28 0-7.749 2.124-7.749 4.744s3.47 4.744 7.749 4.744"/><path stroke="#2C1845" stroke-miterlimit="10" stroke-width="3.549" d="m21.634 46.45-.479 5.06c-.33 3.481-.656 7.018-.012 10.455M86.17 47.563c.502 2.895.663 5.85.477 8.783-.167 2.656-.617 5.314-.378 7.964"/><path fill="#2C1845" d="m41.9 20.518-8.467 9.138-9.031 9.758-2.26 2.442s-1.162-3.135-2.59-7.353c-2.696-7.951-6.33-19.755-4.854-21.593 1.913-2.403 11.012-3.349 21.568 3.357a45.4 45.4 0 0 1 5.634 4.251"/><path fill="#FF92DF" d="m33.433 29.656-9.031 9.758c-1.908-1.337-2.49-3.84-3.118-5.946-.14-.475-.28-.958-.415-1.435-.83-2.87-1.556-5.76-2.188-8.68-.326-1.513-.623-3.092-.216-4.578.137-.492.369-.987.811-1.24.432-.244.972-.195 1.455-.07 1.48.384 2.71 1.388 3.846 2.408a56 56 0 0 1 3.262 3.152 62 62 0 0 1 5.594 6.631"/><path fill="#2C1845" d="m41.9 20.519-8.467 9.138-9.031 9.758-2.26 2.442s-1.162-3.136-2.59-7.353c.402-.842.843-1.662 1.317-2.47 1.905-3.286 4.309-6.298 6.97-9.008.435-.442.877-.88 1.323-1.305 2.165-2.069 4.5-3.987 7.104-5.454A45.4 45.4 0 0 1 41.9 20.52" opacity=".4"/><path fill="#2C1845" d="m68.273 21.692 8.4 9.2 8.958 9.825 2.243 2.458s1.185-3.126 2.643-7.333c2.754-7.932 6.476-19.708 5.014-21.558-1.896-2.417-10.987-3.43-21.592 3.198a45.5 45.5 0 0 0-5.666 4.21"/><path fill="#FF92DF" d="m76.673 30.893 8.959 9.825c1.918-1.324 2.519-3.823 3.161-5.923.144-.475.289-.956.426-1.432.851-2.865 1.6-5.749 2.252-8.662.338-1.512.646-3.089.25-4.578-.133-.493-.361-.99-.801-1.246-.43-.247-.971-.202-1.454-.08-1.484.372-2.72 1.367-3.864 2.378a56 56 0 0 0-3.285 3.129 62 62 0 0 0-5.644 6.589"/><path fill="#2C1845" d="m68.273 21.692 8.4 9.2 8.958 9.825 2.243 2.458s1.185-3.126 2.643-7.334a33 33 0 0 0-1.299-2.48c-1.88-3.3-4.261-6.328-6.902-9.058a60 60 0 0 0-1.314-1.316c-2.15-2.084-4.471-4.02-7.063-5.506a45.5 45.5 0 0 0-5.666 4.211" opacity=".4"/><path fill="#A278FF" d="M31.162 75.592c-.52 8.61-2.484 12.344-3.456 13.688-.335.47-.552.65-.552.65-1.151.775-3.158 1.375-5.437 1.456-.217.006-.447.013-.675.013-6.368-.056-14.395-4.194-12.438-19.387 1.691-13.143 8.443-14.964 13.36-14.431.223.024.44.056.657.087 2.725.415 4.75 1.48 4.75 1.48s.217.118.545.446c1.202 1.176 3.909 5.09 3.246 15.998"/><path fill="#2C1845" d="M31.163 75.592c-.52 8.61-2.484 12.344-3.457 13.688-.415-1.412-.675-2.88-.892-4.33a90 90 0 0 1-.935-10.627c-.093-3.252-.006-6.528.62-9.718.328-1.716.947-3.345 1.418-5.01 1.201 1.176 3.908 5.09 3.246 15.997M21.716 91.386c-.216.007-.446.013-.675.013-2.465-5.488-3.66-11.595-3.412-17.572.235-5.61 1.746-11.229 4.336-16.246q.333.039.656.087c-2.614 4.986-4.137 10.585-4.373 16.185-.248 5.976.966 12.07 3.468 17.533"/><path fill="#A278FF" d="M73.826 76.73c-.055 8.624 1.656 12.482 2.536 13.887.302.493.507.686.507.686 1.098.85 3.06 1.582 5.33 1.815.215.02.443.041.672.057 6.357.368 14.641-3.226 13.7-18.515-.811-13.227-7.426-15.493-12.369-15.29q-.334.017-.66.043c-2.747.233-4.839 1.161-4.839 1.161s-.224.103-.573.41c-1.278 1.093-4.24 4.818-4.304 15.745"/><path fill="#2C1845" d="M73.826 76.73c-.055 8.624 1.656 12.481 2.536 13.887.508-1.381.866-2.829 1.178-4.26a90 90 0 0 0 1.641-10.543c.31-3.238.441-6.513.03-9.737-.214-1.734-.723-3.4-1.082-5.094-1.277 1.094-4.238 4.819-4.303 15.746M82.198 93.117c.216.02.444.042.673.057 2.825-5.311 4.425-11.325 4.576-17.305.138-5.615-.995-11.32-3.245-16.499q-.334.016-.66.043c2.276 5.149 3.423 10.837 3.285 16.44-.151 5.98-1.768 11.98-4.629 17.264"/><path fill="#FF92DF" d="m89.82 51.204-6.194-.034c0-1.027-.35-25.386-29.351-25.667-27.158-.246-29.684 23.675-29.778 24.694l-6.17-.541c.027-.315.72-7.797 5.487-15.269 4.403-6.9 13.176-15.08 30.012-15.08q.254 0 .509.002c35.252.343 35.487 31.58 35.485 31.895"/><path fill="#2C1845" d="M40.046 47.85a9 9 0 0 1-.472 1.638 6.6 6.6 0 0 1-.847 1.557q-.52.707-1.246 1.162-.726.458-1.667.471a2.8 2.8 0 0 1-1.26-.259 3.7 3.7 0 0 1-1.023-.733 5 5 0 0 1-.801-1.069 8 8 0 0 1-.57-1.255 8.3 8.3 0 0 1-.343-1.295 7.5 7.5 0 0 1-.123-1.201q-.014-.785.12-1.685.136-.9.418-1.786.282-.885.723-1.703a6.5 6.5 0 0 1 1.049-1.447 5.1 5.1 0 0 1 1.38-1.016 3.9 3.9 0 0 1 1.729-.402q.61-.01 1.137.217.526.227.917.614.39.386.616.923.227.537.236 1.13l.003.157q.005.315-.015.776a3.4 3.4 0 0 1-.151.883q-.134.42-.407.73-.274.311-.78.318-.61.01-.929-.264-.318-.274-.328-.92-.005-.243.01-.488a7 7 0 0 0 .01-.488q-.007-.366-.131-.565-.126-.198-.51-.192-.435.008-.78.291-.343.285-.598.742-.255.458-.437 1.036-.183.579-.296 1.165-.112.585-.157 1.128-.044.541-.037.925.005.314.046.723t.161.782.35.631a.75.75 0 0 0 .597.252q.628-.009 1.005-.408t.507-1.011a2.7 2.7 0 0 1-.481-.106 1.6 1.6 0 0 1-.44-.22 1.04 1.04 0 0 1-.459-.874q-.007-.54.353-.851.362-.31.856-.476.495-.165 1.017-.217.523-.051.837-.057.226-.004.663.024.437.03.866.135.428.107.746.31.317.206.322.537.01.663-.34 1.148t-1.046.583M50.36 49.292q.005.35-.048.838a3.9 3.9 0 0 1-.22.937q-.17.447-.46.757-.292.31-.78.317-.645.01-.975-.455-.33-.466-.48-1.117a8 8 0 0 1-.187-1.331l-.06-1.081q-1.252.23-2.471.405-.028.402-.133.996-.104.596-.33 1.148-.226.553-.595.96t-.91.415q-.417.007-.658-.295-.24-.3-.369-.718a4 4 0 0 1-.162-.86 13 13 0 0 1-.038-.741q-.016-.993.126-1.964a37 37 0 0 1 .596-3.123q.163-.682.405-1.41.24-.727.57-1.44.33-.712.756-1.276.427-.564.98-.923.552-.356 1.232-.368.663-.01 1.156.278.493.29.867.772.373.482.628 1.098.253.615.43 1.248.175.634.298 1.243l.218 1.077q.244 1.13.42 2.287.174 1.158.193 2.326m-3.433-4.184q-.004-.21-.037-.688a8 8 0 0 0-.129-.958 3.3 3.3 0 0 0-.284-.85q-.189-.372-.503-.367-.174.003-.327.241a2.6 2.6 0 0 0-.27.597q-.118.36-.205.798-.09.438-.153.839-.064.402-.093.725l-.045.464q1.044-.105 2.053-.295zM63.43 49.766a9 9 0 0 1-.135.891q-.089.438-.223.78a1.5 1.5 0 0 1-.349.546.7.7 0 0 1-.494.208q-.279.005-.512-.42a6 6 0 0 1-.445-1.126 18 18 0 0 1-.39-1.59 42 42 0 0 1-.572-3.584 82 82 0 0 1-.164-1.514q-.093.664-.22 1.486a31 31 0 0 1-.305 1.67q-.18.849-.392 1.663a13 13 0 0 1-.466 1.455q-.25.641-.542 1.03-.29.388-.62.393-.297.005-.6-.391a5.3 5.3 0 0 1-.592-1.046 14 14 0 0 1-.546-1.448 40.871 40.871 0 0 1-1.133-4.343q.006.367.004.812-.001.445.001.636v.576q0 .488-.042 1.169-.042.68-.134 1.459a9 9 0 0 1-.282 1.442 4.3 4.3 0 0 1-.48 1.124q-.289.458-.725.5a1.34 1.34 0 0 1-.592-.523 3.7 3.7 0 0 1-.406-.874 7.4 7.4 0 0 1-.261-1.077 20 20 0 0 1-.157-1.122q-.062-.549-.077-1.02-.017-.47-.021-.767-.008-.523.04-1.318.048-.794.174-1.668t.34-1.75a9 9 0 0 1 .524-1.569q.31-.693.732-1.136.42-.443.978-.452.262-.004.563.288t.605.767.593 1.063.55 1.186.463 1.144q.2.546.329.928a30 30 0 0 1 .777-2.149q.243-.606.539-1.194.296-.59.62-1.057.323-.467.66-.76.334-.294.683-.299a1.4 1.4 0 0 1 1.054.437q.443.446.75 1.166.308.718.497 1.614.188.895.298 1.774.11.88.149 1.646.037.766.045 1.237l.008.523q.006.33.004.75-.003.42-.03.89-.03.473-.074.944M72.397 48.787q.004.33-.164.648-.17.299-.809.71-.64.411-1.418.781t-1.507.634q-.728.265-1.077.27a1.8 1.8 0 0 1-.577-.104 5 5 0 0 1-.667-.277 3.3 3.3 0 0 1-.608-.391 1.8 1.8 0 0 1-.4-.43q-.071-.12-.138-.486a11 11 0 0 1-.118-.853q-.051-.487-.095-1.036a98 98 0 0 1-.077-1.046 31 31 0 0 1-.067-1.438q-.01-.645.02-1.482.03-.838.14-1.686.108-.847.331-1.627a4.3 4.3 0 0 1 .616-1.326q.12-.16.483-.34a7 7 0 0 1 .858-.344q.494-.165 1.067-.313.573-.15 1.104-.253.53-.105.965-.172.435-.068.662-.072.261-.003.498.106t.406.3q.168.188.268.422.099.233.104.495.003.228-.055.385a2 2 0 0 1-.177.352q-.172.23-.724.553-.553.322-1.203.638-.648.316-1.246.568-.6.255-.84.362-.064.403-.136.814t-.1.83q.535-.287 1.213-.542.676-.255 1.286-.264 1.238-.02 1.257 1.2.004.297-.105.525a1.5 1.5 0 0 1-.29.406q-.18.177-.414.312t-.458.26a9 9 0 0 1-1.16.533q-.608.227-1.214.446a8 8 0 0 0-.065.307 1.6 1.6 0 0 0-.03.323q.004.244.043.488l.077.487q.208-.073.668-.237.459-.165.963-.329.503-.165.971-.286.47-.12.696-.124.262-.005.49.105.23.11.388.291a1.5 1.5 0 0 1 .365.907M41.347 68.963q-1.064.015-1.856-.502a4.2 4.2 0 0 1-1.322-1.41q-.529-.889-.8-2.072a11.9 11.9 0 0 1-.062-4.97q.251-1.26.793-2.28.541-1.02 1.386-1.678.845-.66 2.03-.677 1.151-.019 1.937.588.785.607 1.263 1.585t.698 2.195q.22 1.218.239 2.438a11.8 11.8 0 0 1-.23 2.577q-.252 1.215-.786 2.149a4.4 4.4 0 0 1-1.354 1.486q-.82.553-1.936.57m.056-9.733a.74.74 0 0 0-.562.27 2.1 2.1 0 0 0-.382.695q-.15.43-.212.963-.06.534-.052 1.073.01.61.097 1.22.089.608.253 1.094.165.486.405.78.24.292.57.287.385-.007.605-.394.221-.387.343-.93.121-.542.157-1.118.034-.577.028-.96a9 9 0 0 0-.077-.993 5.3 5.3 0 0 0-.215-.965 2.4 2.4 0 0 0-.378-.735.7.7 0 0 0-.58-.287M54.948 56.626q.01.628-.135 1.407a19 19 0 0 1-.367 1.584q-.224.805-.481 1.569-.259.762-.458 1.376-.135.385-.29.956-.157.57-.365 1.2-.208.632-.46 1.263a7.5 7.5 0 0 1-.558 1.134q-.306.502-.676.822a1.24 1.24 0 0 1-.806.326q-.364.006-.711-.32a4 4 0 0 1-.659-.835 10 10 0 0 1-.593-1.142 23 23 0 0 1-.508-1.24q-.228-.606-.384-1.127a28 28 0 0 1-.231-.798 97 97 0 0 1-.706-2.736 12.6 12.6 0 0 1-.358-2.776 8 8 0 0 1 .024-.725q.028-.375.163-.69.135-.316.384-.522.25-.204.703-.211.384-.007.714.416.329.421.6 1.098.273.676.504 1.51.232.834.436 1.64.206.81.39 1.512.186.702.367 1.119l.29-1.025q.188-.675.447-1.48.256-.806.566-1.658.31-.85.656-1.545t.723-1.136q.376-.442.778-.45a.8.8 0 0 1 .49.133.93.93 0 0 1 .303.361q.108.225.156.486.048.26.052.504M62.952 65.307q.005.333-.164.649-.17.3-.81.71-.639.412-1.417.78-.78.37-1.508.635-.728.264-1.077.27a1.8 1.8 0 0 1-.577-.105 5 5 0 0 1-.667-.277 3.3 3.3 0 0 1-.608-.391 1.8 1.8 0 0 1-.4-.43q-.071-.12-.138-.486a11 11 0 0 1-.118-.853q-.052-.487-.095-1.036t-.077-1.046a31 31 0 0 1-.067-1.437q-.01-.645.02-1.483.031-.837.14-1.686.108-.846.331-1.627a4.3 4.3 0 0 1 .616-1.326q.12-.16.483-.34.364-.18.858-.344.495-.165 1.068-.314.573-.148 1.103-.253.53-.104.965-.172t.662-.071q.261-.005.498.106.238.109.406.299.169.189.269.423.099.233.103.495a1.1 1.1 0 0 1-.054.384 2 2 0 0 1-.178.352q-.17.23-.724.553-.554.322-1.202.638-.649.315-1.247.569-.597.255-.84.362-.064.403-.135.813-.073.411-.1.83.534-.287 1.212-.542.676-.255 1.286-.265 1.238-.02 1.258 1.202a1.15 1.15 0 0 1-.105.524q-.11.23-.29.406t-.414.312-.458.26a9 9 0 0 1-1.16.533q-.608.227-1.214.446a8 8 0 0 0-.066.306q-.03.166-.03.324.004.244.043.487l.077.487q.21-.073.668-.237.46-.165.963-.329.504-.165.972-.285.47-.121.696-.125.261-.003.49.106.228.11.388.291a1.48 1.48 0 0 1 .364.908M72.144 58.727q.019 1.202-.523 2.171a6 6 0 0 1-1.457 1.715q.287.414.591.967a10.4 10.4 0 0 1 .955 2.4q.157.619.166 1.14a1.9 1.9 0 0 1-.255 1.007q-.263.45-.908.46-.541.007-.941-.509a6 6 0 0 1-.718-1.235 21 21 0 0 1-.58-1.465 10 10 0 0 0-.5-1.196q-.312.11-.606.245t-.606.263q-.012.384-.044 1.056-.034.672-.171 1.337a3.8 3.8 0 0 1-.426 1.157q-.289.493-.812.501a1.01 1.01 0 0 1-.897-.457 3.1 3.1 0 0 1-.462-1.108 7.5 7.5 0 0 1-.17-1.314q-.026-.672-.033-1.055a36 36 0 0 1 .009-1.614q.022-.794.01-1.613-.013-.75-.05-1.5-.04-.748-.05-1.516l-.008-.444q-.005-.27.018-.559.021-.288.052-.55t.116-.42q.168-.37.782-.71.614-.342 1.35-.606.738-.265 1.442-.424.704-.16 1.052-.165.89-.015 1.575.306.685.32 1.147.88.463.56.7 1.297.24.74.252 1.558m-3.222.295q-.007-.453-.22-.686t-.684-.224a2.2 2.2 0 0 0-.704.133 4.5 4.5 0 0 0-.65.289q.09 1.376.096 2.736.363-.128.745-.325a3.4 3.4 0 0 0 .698-.483q.318-.283.522-.636a1.5 1.5 0 0 0 .197-.804"/><path fill="#FFE6DE" d="M88.531 63.987a8.3 8.3 0 0 0 .298 4.229c.165.48.38.955.724 1.329s.833.639 1.34.618c.544-.022 1.04-.372 1.34-.827s.427-1.004.477-1.547c.142-1.533-.351-3.572-1.428-4.74-1.05-1.139-2.462-.568-2.75.938M88.918 76.84c-.06 1.263.068 2.667.982 3.541.187.18.408.332.658.4.487.135 1.021-.076 1.385-.428s.583-.825.756-1.3c.634-1.74 1.233-5.659-.47-7.089-2.3-1.931-3.253 3.621-3.311 4.876M77.626 29.01c-.158.151-.23.376-.229.594s.067.431.15.633a3.78 3.78 0 0 0 1.408 1.71c.076.05.156.098.246.108.17.02.332-.104.404-.258s.073-.333.058-.503c-.054-.647-1.08-3.194-2.037-2.283M80.773 33.392c-.104.252-.05.538.022.8.27.985.84 1.932 1.734 2.425.186.102.39.185.602.192.213.007.437-.073.564-.243.103-.139.132-.318.135-.49.017-.882-.549-1.68-1.234-2.236-.37-.3-1.517-1.2-1.824-.448"/><path fill="#F4C46C" d="m50.667 80.812 1.423-9.014 3.478 7.59 9.014-.79-5.85 5.535 2.688 6.958-7.275-4.111-5.693 6.641.791-8.223-7.116-1.898zM12.081 31.263l1.424-9.015 3.478 7.59 9.014-.79-5.85 5.535 2.688 6.959-7.275-4.112-5.693 6.642.791-8.223-7.116-1.898zM66.48 12.496l1.424-9.014 3.479 7.591 9.014-.79-5.851 5.535 2.688 6.957-7.274-4.111-5.693 6.641.79-8.222-7.116-1.898z"/><path fill="#FFE6DE" d="M39.646 92.182c1.377-.082 2.754-.201 4.13-.43-1.376-.228-2.753-.347-4.13-.428a54 54 0 0 0-2.082-.09 1.44 1.44 0 0 1-.98-.418l-.024-.024a1.44 1.44 0 0 1-.419-.991 59 59 0 0 0-.103-2.742c-.081-1.377-.2-2.753-.429-4.13-.228 1.377-.348 2.753-.429 4.13a57 57 0 0 0-.1 2.6 1.44 1.44 0 0 1-.419.99l-.165.165c-.261.262-.613.41-.982.42-.71.017-1.51.177-2.22.222-1.377.08-2.605.16-4.04.297 1.514.18 2.643.219 4.02.3.726.046 1.562.204 2.288.221.37.01.72.158.982.419l.142.142c.257.257.404.601.417.964q.027.76.076 1.52c.08 1.378.2 2.754.43 4.131.23-1.377.35-2.753.43-4.13q.052-.831.08-1.662a1.433 1.433 0 0 1 1.398-1.387c.71-.017 1.42-.044 2.129-.09M46.654 77.024a26 26 0 0 0 2.75-.285 26 26 0 0 0-2.75-.285q-.694-.044-1.386-.06a.96.96 0 0 1-.653-.279l-.017-.015a.96.96 0 0 1-.278-.66c-.01-.61-.03-1.218-.069-1.826a26 26 0 0 0-.285-2.75 26 26 0 0 0-.285 2.75 39 39 0 0 0-.067 1.731.95.95 0 0 1-.28.659l-.11.11a.96.96 0 0 1-.654.28c-.472.01-1.006.118-1.478.147a68 68 0 0 0-2.69.198c1.008.12 1.76.146 2.676.2.483.03 1.04.136 1.523.147.246.006.48.105.654.28l.095.094c.171.171.27.4.278.642q.018.506.05 1.012c.054.917.134 1.833.287 2.75.153-.917.232-1.833.286-2.75q.035-.552.053-1.106a.953.953 0 0 1 .931-.924q.71-.017 1.419-.06M56.37 32.839a26 26 0 0 0 2.75-.286 26 26 0 0 0-2.75-.285c-.462-.03-.924-.047-1.387-.06a.96.96 0 0 1-.653-.278l-.015-.017a.95.95 0 0 1-.279-.66c-.01-.608-.03-1.216-.068-1.825a26 26 0 0 0-.286-2.75 26 26 0 0 0-.285 2.75 39 39 0 0 0-.067 1.731.96.96 0 0 1-.279.659l-.11.11a.96.96 0 0 1-.654.28c-.472.01-1.006.118-1.478.147-.917.054-1.735.106-2.69.198 1.008.12 1.76.146 2.676.2.483.03 1.04.135 1.523.147.246.006.48.105.654.279l.095.095c.17.171.27.4.278.642q.018.506.05 1.012c.054.917.134 1.834.287 2.75.153-.917.233-1.833.286-2.75q.035-.552.052-1.106a.95.95 0 0 1 .932-.923q.71-.017 1.417-.06M81.3 53.52a26 26 0 0 0 2.75-.285 26 26 0 0 0-2.75-.285c-.462-.03-.925-.047-1.386-.059a.96.96 0 0 1-.653-.28l-.016-.015a.96.96 0 0 1-.279-.66q-.013-.913-.068-1.826a26 26 0 0 0-.286-2.75 26 26 0 0 0-.285 2.75 38 38 0 0 0-.067 1.731.95.95 0 0 1-.279.659l-.11.11a.96.96 0 0 1-.653.279c-.473.011-1.006.118-1.478.148-.917.054-1.736.106-2.69.198 1.007.12 1.76.146 2.676.2.483.03 1.04.135 1.522.147.246.005.48.105.655.279l.095.094c.17.172.269.4.278.642q.018.507.05 1.013c.054.917.134 1.833.286 2.75.153-.917.233-1.834.287-2.75q.034-.554.052-1.106a.954.954 0 0 1 .932-.924q.708-.015 1.416-.06M31.306 72.458a26 26 0 0 0 2.75-.285 26 26 0 0 0-2.75-.285c-.462-.03-.924-.047-1.386-.06a.96.96 0 0 1-.653-.279l-.016-.015a.96.96 0 0 1-.278-.66c-.01-.609-.03-1.217-.069-1.826a26 26 0 0 0-.285-2.75 26 26 0 0 0-.286 2.75 38 38 0 0 0-.066 1.731.95.95 0 0 1-.28.659l-.11.11a.96.96 0 0 1-.654.28c-.472.01-1.005.118-1.478.148-.917.053-1.735.105-2.69.198 1.008.12 1.76.146 2.677.199.482.03 1.04.136 1.522.147.246.006.48.105.655.28l.095.094c.17.171.269.4.277.642q.02.507.05 1.012c.055.917.134 1.834.287 2.75.153-.916.233-1.833.287-2.75q.034-.552.052-1.106a.95.95 0 0 1 .931-.923c.473-.013.945-.03 1.418-.06"/></svg>