<svg width="140" height="104" viewBox="0 0 140 104" fill="none" xmlns="http://www.w3.org/2000/svg">
<path d="M26.6913 103.152C22.6297 103.152 18.9572 100.746 17.3349 97.0226L0.854846 59.1787C-0.233431 56.6809 -0.28429 53.9088 0.711839 51.3746C1.67625 48.9216 3.51101 46.9734 5.89455 45.8629C5.42123 44.3754 5.95662 42.7455 7.23193 41.83L14.0739 36.9202L12.6922 28.404C12.4368 26.8307 13.2423 25.2754 14.6751 24.5765C15.1804 24.3293 15.7224 24.2098 16.2594 24.2098C17.2435 24.2098 18.2118 24.6117 18.9126 25.3683L23.9372 30.7925L31.4969 27.5514C31.9569 27.3543 32.4411 27.2589 32.9207 27.2589C33.3653 27.2589 33.8061 27.3406 34.2201 27.5C34.5356 25.0211 35.7325 23.051 37.7873 21.8024C39.0662 21.0245 40.3388 20.5214 41.5862 20.2972C42.1238 18.4225 43.4046 16.5735 45.7791 15.1303C47.417 14.1342 49.118 13.6286 50.8335 13.6286C50.8541 13.6286 50.8746 13.6286 50.8948 13.6286C51.5368 12.0192 52.6989 10.6287 54.3234 9.61922C55.6917 8.76883 57.1486 8.33762 58.6533 8.33762C59.2896 8.33762 59.9319 8.41719 60.5619 8.57414C60.7396 8.61817 60.9135 8.66766 61.0841 8.72235C61.9476 7.76505 63.0974 7.03606 64.4797 6.61689C65.014 6.45556 65.5666 6.3738 66.1225 6.3738C67.479 6.3738 71.3213 6.37435 75.4743 15.5572L109.247 0.849021C110.541 0.286015 111.908 0 113.312 0C117.379 0 121.051 2.40897 122.668 6.13728L139.152 43.9732C141.398 49.1283 139.029 55.1508 133.872 57.3979L114.446 65.8539L114.219 65.955C114.959 66.4699 115.498 67.255 115.692 68.1775C116.009 69.6828 115.339 71.2239 114.021 72.0182L107.885 75.7189L108.874 82.0998C109.107 83.6092 108.368 85.1019 107.026 85.8303C106.484 86.1245 105.891 86.2686 105.302 86.2686C104.432 86.2686 103.57 85.955 102.892 85.3491L102.253 84.7776C102.816 86.4912 102.025 88.3752 100.378 89.1638C96.1852 91.1708 91.3057 93.2175 85.8758 95.2464C78.4621 98.0179 71.8326 100.071 66.172 101.349C65.9048 101.41 65.6374 101.439 65.3735 101.439C63.8677 101.439 62.48 100.493 61.9638 99.0181L58.8318 90.076L50.8407 93.5546L30.7677 102.301C29.4689 102.866 28.0979 103.152 26.6913 103.152Z" fill="white"/>
<path d="M98.8583 85.322C95.3432 87.005 90.6814 89.0257 84.6519 91.2788C75.8984 94.551 69.5724 96.3035 65.4167 97.2419L60.9004 84.3478L92.9952 70.4326L98.8583 85.322Z" fill="#FF92DF"/>
<path d="M109.708 21.7312L93.1018 11.2627L91.6414 11.8979L28.0913 39.5724L20.4736 42.8878L32.4816 97.0473L49.4398 89.6585L52.0686 88.5153L112.78 62.0765L113.044 61.9586L116.816 60.3164C116.816 60.3164 111.761 20.8368 109.708 21.7312Z" fill="#A278FF"/>
<path d="M52.0684 88.515L49.4396 89.6582L29.3644 98.4049C26.023 99.8601 22.1435 98.3319 20.691 94.9973L4.21157 57.1537C2.7588 53.8192 4.27966 49.9424 7.62132 48.4872L19.5738 43.2788L28.0913 39.5718C28.2527 40.0156 28.3836 40.4615 28.4938 40.9146C29.3806 44.6525 28.9021 48.5596 28.5521 52.3856C28.1974 56.2208 27.9986 60.199 29.3871 63.7876C31.4357 69.0537 36.4593 72.4336 40.8687 75.9768C43.4117 78.0216 45.8327 80.2151 48.0262 82.6385C49.6206 84.3973 51.1237 86.3488 52.0684 88.515Z" fill="#2C1845"/>
<path d="M132.469 53.5029L113.044 61.9586L112.78 62.0764C112.638 61.9523 112.51 61.8232 112.38 61.6876C108.595 57.7531 107.725 51.8436 107.926 46.382C108.007 44.3602 108.202 42.3319 107.984 40.3227C107.637 37.0442 106.146 33.9008 103.842 31.5446C102.182 29.8465 100.142 28.5759 98.4133 26.9544C94.1203 22.9149 92.4477 16.9742 93.102 11.2627L110.733 3.58298C114.067 2.13021 117.949 3.66528 119.392 6.99519L135.879 44.8366C137.332 48.1709 135.804 52.0501 132.469 53.5029Z" fill="#2C1845"/>
<path opacity="0.28" d="M108.269 52.0776L46.7624 78.9484L45.0061 79.7214L30.2217 48.0756L92.3795 21.7231L92.9646 22.839L108.269 52.0776Z" fill="#2C1845"/>
<path d="M108.267 52.0774L46.7609 78.9483L32.5195 48.4634L92.9632 22.8389L108.267 52.0774Z" fill="#FFE6DE"/>
<path d="M53.8265 52.6731C53.9189 52.8993 53.9282 53.124 53.8547 53.3488C53.7806 53.5736 53.6679 53.7806 53.5156 53.9692C53.383 54.1489 53.249 54.3392 53.1134 54.5374C52.9767 54.737 52.8618 54.9449 52.7669 55.1606C52.6723 55.3777 52.6141 55.5992 52.5922 55.8253C52.5698 56.0514 52.6075 56.2825 52.7038 56.5179C52.7885 56.7238 52.9138 56.8903 53.0806 57.0167C53.2468 57.1438 53.4344 57.2581 53.643 57.3615C53.8514 57.4654 54.0772 57.5685 54.3184 57.6696C54.5607 57.7708 54.7958 57.8971 55.0247 58.0503C55.2533 58.2028 55.4709 58.3915 55.6777 58.6149C55.8838 58.8405 56.0602 59.1287 56.2046 59.482C56.3055 59.7278 56.3675 60.0261 56.3908 60.3769C56.4143 60.7278 56.4017 61.0966 56.3541 61.4827C56.3063 61.8688 56.2229 62.2582 56.1029 62.6506C55.9831 63.0438 55.8354 63.4107 55.6599 63.7511C55.4846 64.0929 55.2787 64.3948 55.0433 64.657C54.8073 64.9198 54.5522 65.1085 54.2777 65.2206C53.9736 65.3453 53.6696 65.3712 53.3658 65.3018C53.062 65.231 52.8421 65.0297 52.7051 64.6961C52.6127 64.4705 52.5816 64.2395 52.6105 64.0049C52.6401 63.7695 52.6972 63.5313 52.7814 63.2896C52.8659 63.0492 52.9701 62.8067 53.0929 62.5617C53.2162 62.3159 53.3217 62.0783 53.4106 61.8477C53.4987 61.6161 53.5602 61.3876 53.5938 61.1628C53.6272 60.9367 53.6017 60.7209 53.5175 60.515C53.401 60.2306 53.1809 59.9802 52.8574 59.7625C52.5332 59.5465 52.1834 59.3288 51.8077 59.1106C51.432 58.8924 51.0752 58.6578 50.7372 58.4066C50.4001 58.1553 50.1605 57.8575 50.02 57.5146C49.8472 57.0932 49.778 56.6027 49.8122 56.0446C49.8472 55.4863 49.9615 54.941 50.1559 54.4089C50.3509 53.8768 50.6164 53.3926 50.953 52.957C51.2901 52.5208 51.674 52.2151 52.1058 52.0382C52.4487 51.8977 52.7847 51.8794 53.1147 51.9857C53.4445 52.091 53.6821 52.3204 53.8265 52.6731Z" fill="#2C1845"/>
<path d="M62.332 49.5143C62.4326 49.7593 62.4285 50.0221 62.3197 50.3007C62.2109 50.5802 62.0528 50.8514 61.8453 51.1142C61.6377 51.377 61.4122 51.6151 61.1674 51.8295C60.9235 52.0444 60.716 52.2096 60.5459 52.3255C60.777 53.113 61.0236 53.8907 61.2878 54.6585C61.5508 55.4271 61.8368 56.1884 62.1466 56.9441C62.3112 57.3466 62.484 57.7398 62.6645 58.1235C62.8452 58.5085 63.0153 58.8967 63.1761 59.288C63.2483 59.4649 63.3106 59.6659 63.3631 59.8912C63.4148 60.1165 63.4381 60.3397 63.4304 60.5595C63.4236 60.7799 63.3724 60.9831 63.2778 61.1723C63.1827 61.359 63.0276 61.4977 62.8119 61.5863C62.5562 61.6907 62.3241 61.7027 62.1133 61.6224C61.9033 61.5431 61.714 61.4173 61.547 61.2456C61.3791 61.0733 61.2336 60.8783 61.1092 60.6601C60.9853 60.4417 60.8853 60.239 60.8095 60.0528C60.5487 59.4726 60.2908 58.8872 60.0384 58.2979C59.7852 57.7081 59.5361 57.1142 59.2911 56.5162C59.0858 56.0156 58.8881 55.5242 58.6961 55.0424C58.5039 54.5595 58.3051 54.0681 58.1006 53.568C57.9712 53.644 57.8373 53.7154 57.6992 53.7838C57.5611 53.8524 57.4181 53.9161 57.271 53.9763C57.1529 54.0244 56.994 54.0758 56.793 54.1297C56.5918 54.1835 56.3897 54.215 56.1874 54.2226C55.9845 54.2317 55.7961 54.2059 55.6227 54.1452C55.4488 54.0848 55.3255 53.9659 55.2533 53.7895C55.133 53.4953 55.1431 53.1904 55.2823 52.8757C55.4228 52.5607 55.6386 52.2487 55.9303 51.94C56.2221 51.6315 56.5631 51.331 56.9532 51.0401C57.3432 50.7492 57.7391 50.4839 58.1397 50.2452C58.54 50.0065 58.9132 49.799 59.2589 49.6226C59.605 49.4473 59.876 49.3191 60.0726 49.2384C60.2588 49.1619 60.4601 49.0872 60.6772 49.0159C60.8943 48.9445 61.11 48.9048 61.3249 48.8969C61.539 48.8893 61.7356 48.9295 61.915 49.0164C62.0919 49.1025 62.2311 49.2688 62.332 49.5143Z" fill="#2C1845"/>
<path d="M73.5816 54.0975C73.662 54.2941 73.7418 54.5361 73.8195 54.8246C73.8979 55.1139 73.9387 55.4032 73.9431 55.693C73.948 55.9837 73.902 56.2494 73.8053 56.4887C73.7085 56.728 73.5236 56.9043 73.2491 57.0172C72.886 57.1655 72.5592 57.1452 72.2696 56.9544C71.9795 56.7649 71.7198 56.5007 71.4909 56.1658C71.2615 55.83 71.0613 55.4745 70.8893 55.0975C70.7187 54.7209 70.5817 54.4221 70.4794 54.2006C69.8216 54.6075 69.1672 54.9963 68.517 55.3654C68.59 55.5998 68.6627 55.8956 68.7355 56.2552C68.8079 56.6156 68.8416 56.9768 68.8361 57.3402C68.8298 57.7025 68.7677 58.0407 68.6496 58.3522C68.5315 58.6644 68.3196 58.8824 68.0161 59.007C67.7801 59.1033 67.5619 59.0929 67.3587 58.9753C67.1558 58.8591 66.9715 58.6959 66.8067 58.4892C66.6415 58.2816 66.4999 58.0558 66.3834 57.8121C66.2666 57.5677 66.1734 57.3623 66.105 57.1958C65.8756 56.6366 65.694 56.0665 65.5595 55.486C65.4244 54.9055 65.3058 54.3217 65.2019 53.7344C65.1442 53.4251 65.0862 53.0606 65.0274 52.6371C64.9686 52.2143 64.9268 51.7708 64.9027 51.3052C64.8787 50.8401 64.8797 50.3692 64.9087 49.894C64.9369 49.4179 65.0091 48.9733 65.1264 48.5591C65.2429 48.1451 65.4181 47.7759 65.6514 47.4494C65.8844 47.1254 66.1928 46.8845 66.5751 46.7281C66.948 46.5755 67.3054 46.5261 67.6491 46.5805C67.9915 46.6343 68.3229 46.7566 68.6409 46.9471C68.9594 47.1369 69.2586 47.3781 69.5386 47.6696C69.8188 47.9621 70.0786 48.2676 70.3184 48.5878C70.5582 48.9074 70.7802 49.2265 70.9853 49.5434C71.1893 49.8603 71.3698 50.1409 71.5278 50.3859C71.9166 50.9716 72.2885 51.5712 72.6437 52.1878C73 52.8041 73.3125 53.4407 73.5816 54.0975ZM69.2774 51.6858C69.2293 51.5685 69.1426 51.3784 69.0177 51.1143C68.8922 50.851 68.75 50.5942 68.5905 50.344C68.4306 50.0938 68.2561 49.8858 68.0669 49.7168C67.8774 49.5478 67.6948 49.4994 67.5176 49.5716C67.4194 49.6121 67.3535 49.7165 67.3199 49.8847C67.2852 50.0537 67.2751 50.2524 67.2893 50.4824C67.3027 50.7113 67.3327 50.9593 67.3795 51.2264C67.4263 51.4938 67.4758 51.7484 67.5288 51.9899C67.5821 52.2318 67.6365 52.447 67.6909 52.6368C67.7462 52.8268 67.7842 52.9622 67.8066 53.0453C68.3748 52.7549 68.9239 52.4435 69.4524 52.1126L69.2774 51.6858Z" fill="#2C1845"/>
<path d="M80.9458 44.5856C81.2231 45.262 81.315 45.935 81.2225 46.6024C81.1298 47.271 80.9075 47.9171 80.5567 48.5416C80.8097 48.7131 81.0847 48.9217 81.3798 49.1667C81.6751 49.4136 81.9608 49.6824 82.2354 49.9769C82.5104 50.27 82.7612 50.5741 82.9873 50.8883C83.2134 51.2019 83.3865 51.5062 83.5071 51.8007C83.6364 52.1146 83.675 52.4269 83.626 52.7403C83.5763 53.0525 83.3698 53.2825 83.0073 53.4315C82.7032 53.5562 82.3806 53.5168 82.0393 53.3136C81.6983 53.1086 81.3582 52.839 81.0197 52.5018C80.6817 52.1652 80.3549 51.8152 80.0399 51.4513C79.7252 51.0882 79.4512 50.8049 79.2196 50.6025C79.0665 50.7332 78.9221 50.8697 78.7862 51.0119C78.6495 51.1535 78.5068 51.2949 78.3583 51.436C78.4365 51.6561 78.5407 51.9596 78.6711 52.3468C78.8018 52.7348 78.9014 53.1324 78.9711 53.5395C79.0403 53.9467 79.0479 54.321 78.9932 54.6633C78.9388 55.0065 78.7649 55.2384 78.4704 55.3587C78.1472 55.4916 77.8429 55.4623 77.5574 55.269C77.2722 55.077 77.0187 54.814 76.797 54.4812C76.5744 54.1493 76.3811 53.796 76.2159 53.4214C76.0521 53.0484 75.9253 52.7537 75.8375 52.5379C75.6488 52.0772 75.4722 51.62 75.3092 51.165C75.1452 50.7108 74.9699 50.2536 74.7804 49.7921C74.6081 49.3704 74.4279 48.9518 74.2409 48.5362C74.0533 48.1205 73.8704 47.6964 73.6938 47.265C73.6533 47.1668 73.6022 47.0418 73.5401 46.8895C73.4775 46.7378 73.4209 46.5775 73.3697 46.4102C73.3178 46.2418 73.2716 46.081 73.2308 45.9251C73.1898 45.7701 73.1761 45.6388 73.1895 45.53C73.2024 45.2836 73.3451 44.9968 73.6172 44.6676C73.889 44.3384 74.2043 44.0179 74.5625 43.7043C74.9207 43.3915 75.2824 43.1115 75.6453 42.8654C76.0087 42.6196 76.2873 42.456 76.4839 42.3756C76.984 42.1703 77.4639 42.0839 77.9227 42.1129C78.3815 42.1427 78.8035 42.2646 79.1887 42.479C79.5748 42.6934 79.9166 42.9821 80.2155 43.3474C80.5135 43.7114 80.7572 44.1243 80.9458 44.5856ZM78.3083 45.9068C78.2038 45.6517 78.0657 45.4816 77.894 45.3977C77.7223 45.3137 77.5035 45.326 77.2389 45.4343C77.0428 45.5147 76.8582 45.6306 76.6854 45.7818C76.5123 45.9331 76.3603 46.0867 76.2304 46.2429C76.5864 47.0019 76.9168 47.7662 77.2211 48.5348C77.3983 48.3817 77.573 48.2067 77.745 48.0109C77.9162 47.814 78.0603 47.6007 78.1776 47.3691C78.2949 47.1378 78.3725 46.9002 78.4094 46.6555C78.4469 46.4113 78.4127 46.1619 78.3083 45.9068Z" fill="#2C1845"/>
<path d="M88.3902 38.837C88.4908 39.082 88.4867 39.3448 88.3779 39.6234C88.269 39.9029 88.111 40.1741 87.904 40.4369C87.6965 40.6994 87.4703 40.9381 87.2262 41.1522C86.9817 41.3671 86.7747 41.532 86.6046 41.6482C86.8351 42.4357 87.0823 43.2134 87.3459 43.9812C87.609 44.7498 87.8955 45.5116 88.2048 46.2674C88.3702 46.6699 88.5419 47.0623 88.7227 47.4467C88.9031 47.8312 89.074 48.22 89.2343 48.6113C89.3073 48.7882 89.3688 48.9884 89.4213 49.2137C89.473 49.439 89.4962 49.6621 89.4891 49.8825C89.4815 50.1029 89.4306 50.3061 89.3363 50.4947C89.2406 50.6815 89.0861 50.8201 88.8698 50.9087C88.6149 51.0132 88.382 51.0252 88.172 50.9448C87.9614 50.8655 87.7728 50.74 87.6051 50.5683C87.4373 50.396 87.2918 50.2011 87.1679 49.9826C87.0441 49.7641 86.944 49.5615 86.8674 49.3756C86.6066 48.7953 86.3495 48.2104 86.0963 47.6209C85.8439 47.0311 85.5946 46.4369 85.3496 45.8392C85.1442 45.3385 84.946 44.8472 84.754 44.3654C84.5618 43.8825 84.3636 43.3911 84.1585 42.891C84.0291 42.967 83.896 43.0389 83.7571 43.1065C83.619 43.1751 83.4765 43.2388 83.3297 43.2987C83.2116 43.3468 83.0521 43.3982 82.8509 43.4521C82.6497 43.506 82.4476 43.5374 82.2452 43.5459C82.0424 43.5541 81.8545 43.5284 81.6803 43.468C81.507 43.4075 81.3831 43.2886 81.3109 43.1122C81.1906 42.818 81.2007 42.5131 81.3399 42.1984C81.4804 41.8834 81.6962 41.5714 81.9879 41.263C82.2797 40.9545 82.6209 40.6546 83.0109 40.3628C83.4016 40.0716 83.7967 39.8066 84.1973 39.5679C84.5976 39.3292 84.9709 39.1217 85.317 38.945C85.6632 38.7698 85.9342 38.6415 86.13 38.5609C86.3167 38.484 86.518 38.4102 86.7351 38.338C86.9516 38.2666 87.1674 38.227 87.382 38.2191C87.5961 38.212 87.7927 38.2516 87.9721 38.3386C88.1501 38.4258 88.2901 38.5912 88.3902 38.837Z" fill="#2C1845"/>
<path d="M110.691 16.9249C109.373 17.4677 107.865 16.8393 107.322 15.5217C106.779 14.2037 107.408 12.6954 108.725 12.1527C110.043 11.6099 111.552 12.2382 112.094 13.5559C112.637 14.8736 112.009 16.3822 110.691 16.9249Z" fill="#FFAD9F"/>
<path d="M114.717 26.6989C113.4 27.2416 111.891 26.6133 111.348 25.2956C110.806 23.9776 111.434 22.4694 112.752 21.9266C114.07 21.3838 115.578 22.0122 116.121 23.3299C116.664 24.6478 116.035 26.1561 114.717 26.6989Z" fill="#FFAD9F"/>
<path d="M107.101 24.0397C105.783 24.5825 104.275 23.9541 103.732 22.6364C103.189 21.3184 103.818 19.8102 105.136 19.2674C106.453 18.7246 107.962 19.353 108.505 20.6707C109.047 21.9886 108.419 23.4969 107.101 24.0397Z" fill="#FFAD9F"/>
<path d="M118.115 19.5035C116.797 20.0463 115.289 19.418 114.746 18.1003C114.203 16.7823 114.832 15.274 116.149 14.7313C117.467 14.1885 118.975 14.8169 119.518 16.1345C120.061 17.4522 119.433 18.9608 118.115 19.5035Z" fill="#FFAD9F"/>
<path d="M129.59 38.6497C131.478 43.0367 129.453 48.124 125.066 50.012C120.679 51.9004 115.591 49.8748 113.703 45.4878C111.815 41.1008 113.84 36.0135 118.227 34.1251C122.614 32.237 127.701 34.2627 129.59 38.6497Z" fill="#2C1845"/>
<path d="M128.688 39.0374C130.576 43.4244 128.55 48.5117 124.163 50.3997C119.776 52.2881 114.689 50.2625 112.801 45.8755C110.912 41.4884 112.938 36.4012 117.325 34.5128C121.712 32.6247 126.799 34.6504 128.688 39.0374Z" fill="#FFE6DE"/>
<path d="M123.509 47.5851C123.722 47.0215 126.969 38.2756 123.547 37.577C121.333 37.125 120.717 39.2472 120.555 40.7535C119.35 39.8356 117.386 38.8236 116.192 40.7426C114.347 43.708 122.931 47.3614 123.487 47.5941L123.498 47.614C123.498 47.614 123.501 47.6053 123.503 47.6009C123.507 47.6026 123.516 47.6064 123.516 47.6064L123.509 47.5851Z" fill="#FF92DF"/>
<path d="M34.292 84.0747L28.3071 87.0711C27.5064 87.4719 26.5327 87.1479 26.1319 86.3473C25.731 85.5466 26.055 84.5729 26.8557 84.1721L32.8406 81.1758C33.6413 80.7749 34.615 81.0992 35.0158 81.8996C35.4167 82.6999 35.0927 83.6739 34.292 84.0747Z" fill="#FFAD9F"/>
<path d="M32.044 79.5855L26.059 82.5819C25.2584 82.9827 24.2847 82.6587 23.8838 81.8581C23.483 81.0574 23.807 80.0837 24.6076 79.6829L30.5926 76.6866C31.3932 76.2857 32.3669 76.6097 32.7678 77.4104C33.1686 78.211 32.8443 79.1847 32.044 79.5855Z" fill="#FFAD9F"/>
<path d="M36.4913 88.4693L30.5063 91.4656C29.7057 91.8665 28.732 91.5425 28.3311 90.7419C27.9302 89.9412 28.2543 88.9675 29.0549 88.5667L35.0399 85.5704C35.8405 85.1695 36.8142 85.4935 37.215 86.2941C37.6159 87.0945 37.2919 88.0685 36.4913 88.4693Z" fill="#FFAD9F"/>
<path d="M19.279 61.2194C17.961 61.7621 16.4527 61.1338 15.91 59.8161C15.3672 58.4981 15.9956 56.9899 17.3133 56.4471C18.6312 55.9043 20.1395 56.5327 20.6823 57.8504C21.225 59.1681 20.597 60.6766 19.279 61.2194Z" fill="#FFAD9F"/>
<path d="M23.3054 70.9933C21.9874 71.5361 20.4791 70.9077 19.9363 69.59C19.3936 68.2721 20.0219 66.7638 21.3396 66.221C22.6576 65.6782 24.1659 66.3066 24.7086 67.6243C25.2517 68.9423 24.6233 70.4505 23.3054 70.9933Z" fill="#FFAD9F"/>
<path d="M15.6891 68.3341C14.3712 68.8769 12.8629 68.2485 12.3201 66.9308C11.7774 65.6129 12.4057 64.1046 13.7234 63.5618C15.0414 63.0191 16.5496 63.6474 17.0924 64.9651C17.6352 66.2831 17.0068 67.7913 15.6891 68.3341Z" fill="#FFAD9F"/>
<path d="M18.0432 37.9708L16.3025 27.2441L23.0602 34.5383L32.9638 30.2932L28.4018 38.7298L34.0297 45.6021L24.2715 43.6547L20.3001 53.2849L18.1378 43.6881L9.38184 44.1865L18.0432 37.9708Z" fill="#F4C46C"/>
<path d="M95.444 67.3824L99.3896 57.2573L101.509 66.972L112.196 68.3422L103.983 73.2949L105.343 82.0728L97.9246 75.4414L89.614 81.7222L92.6229 72.3562L84.8262 68.3408L95.444 67.3824Z" fill="#F4C46C"/>
<path d="M39.6349 34.9434C39.6349 34.9434 35.4738 26.8839 39.7068 24.3111C43.9402 21.7383 45.863 24.4063 45.863 24.4063C45.863 24.4063 43.8841 20.1303 47.8416 17.8758C51.799 15.6213 54.9528 18.7978 54.9528 18.7978C54.9528 18.7978 52.6469 13.5703 57.0091 11.9633C60.5476 10.6598 63.1141 14.3906 63.1141 14.3906C63.1141 14.3906 61.9457 10.5939 65.5687 9.49769C69.1915 8.40148 73.2643 17.7213 75.066 24.5175C76.8677 31.3138 74.7051 34.4542 71.2135 34.8841C71.2135 34.8841 73.3072 39.9279 69.481 41.5163C65.6549 43.1047 63.8761 40.7845 63.8761 40.7845C63.8761 40.7845 64.8187 44.0332 61.973 45.0409C57.9655 46.46 54.6616 42.1629 54.6616 42.1629C54.6616 42.1629 53.0954 45.48 50.1125 44.6794C47.1295 43.8788 42.0994 33.5128 42.0994 33.5128L40.3305 34.6546" fill="#FF92DF"/>
<path d="M75.4765 30.0436C74.5419 31.7304 72.4597 32.6948 70.5689 32.3169C69.7948 30.7088 69.3307 29.0444 69.1937 27.2649C69.1268 26.3959 69.182 25.4154 69.8161 24.8179C70.5068 24.1671 71.6618 24.2525 72.4534 24.7761C73.2447 25.2997 73.7451 26.1575 74.1632 27.0092C74.6507 28.0026 75.1382 28.9897 75.4765 30.0436Z" fill="#FFE6DE"/>
<path d="M71.5517 38.0857C70.5578 39.8797 68.3429 40.9056 66.3315 40.5034C65.5082 38.7928 65.0147 37.0225 64.8689 35.1298C64.7978 34.2056 64.8563 33.1627 65.5309 32.527C66.2656 31.8349 67.4942 31.9254 68.3358 32.4824C69.1777 33.0394 69.7096 33.9516 70.1544 34.8577C70.6731 35.9148 71.1919 36.9648 71.5517 38.0857Z" fill="#FFE6DE"/>
<path d="M63.7322 41.3279C62.8602 43.1843 60.7189 44.356 58.6854 44.0891C57.7494 42.4375 57.1391 40.704 56.867 38.8252C56.7341 37.9078 56.7232 36.8633 57.3538 36.1841C58.0406 35.4444 59.2725 35.4526 60.1496 35.9522C61.0268 36.4518 61.6185 37.3265 62.1228 38.2009C62.7106 39.2206 63.2985 40.2337 63.7322 41.3279Z" fill="#FFE6DE"/>
<path d="M54.379 41.2157C53.6465 42.7754 51.8476 43.7595 50.1389 43.5355C49.3527 42.1479 48.8398 40.6918 48.6112 39.1133C48.4996 38.3427 48.4903 37.465 49.0202 36.8943C49.5972 36.2728 50.6321 36.2799 51.3691 36.6996C52.106 37.1194 52.6031 37.8541 53.0266 38.5888C53.5207 39.4455 54.0146 40.2964 54.379 41.2157Z" fill="#FFE6DE"/>
<path d="M41.1396 32.3478C41.1396 32.3478 47.389 45.9292 51.8138 44.6361C55.7904 43.474 54.6775 40.7287 52.6275 35.4628C50.5776 30.197 46.4536 23.2093 43.6337 23.2927" stroke="#2C1845" stroke-width="2.023" stroke-miterlimit="10" stroke-linecap="round" stroke-linejoin="round"/>
<path d="M45.7193 24.058C45.7193 24.058 43.6092 20.4484 47.8422 17.8754C52.0756 15.3026 55.1274 18.7252 55.6808 20.0585C56.2343 21.3918 63.8765 40.7839 63.8765 40.7839C63.8765 40.7839 64.582 43.9571 61.4033 45.1408C58.2246 46.3245 55.1867 43.0999 54.6617 42.1623" stroke="#2C1845" stroke-width="2.023" stroke-miterlimit="10" stroke-linecap="round" stroke-linejoin="round"/>
<path d="M54.7748 18.5315C54.7748 18.5315 52.8004 14.5938 56.4198 12.3434C60.0393 10.0933 63.0039 13.96 63.4808 14.7816C63.9576 15.603 71.2136 34.8833 71.2136 34.8833C71.2136 34.8833 73.5785 39.2709 69.6167 41.1874C65.5291 43.1646 63.8655 40.6881 63.8655 40.6881" stroke="#2C1845" stroke-width="2.023" stroke-miterlimit="10" stroke-linecap="round" stroke-linejoin="round"/>
</svg>
