<svg width="100" height="95" viewBox="0 0 100 95" fill="none" xmlns="http://www.w3.org/2000/svg">
<path d="M41.8153 23.2201C41.2947 23.1483 40.9313 22.6679 41.0032 22.1472L42.8349 8.9188C42.9068 8.39818 43.3872 8.03486 43.9078 8.10672C44.4284 8.17858 44.7917 8.659 44.7199 9.17961L42.8882 22.4081C42.8163 22.9287 42.3359 23.2925 41.8153 23.2201Z" fill="#845EF9"/>
<path d="M41.9483 23.4527C41.894 23.4527 41.8392 23.4487 41.7845 23.4412C41.4734 23.3979 41.198 23.2366 41.0086 22.9864C40.8191 22.7361 40.7387 22.4276 40.7819 22.1165L42.6136 8.88807C42.6568 8.57751 42.8181 8.30213 43.0684 8.11267C43.3187 7.92322 43.6272 7.84331 43.9383 7.88552C44.2488 7.92874 44.5242 8.09005 44.7137 8.3403C44.9031 8.59056 44.9835 8.89962 44.9403 9.21018L43.1086 22.4381C43.0654 22.7492 42.9041 23.0246 42.6538 23.214C42.4483 23.3703 42.202 23.4527 41.9483 23.4527ZM43.7759 8.32121C43.6187 8.32121 43.4659 8.37197 43.3382 8.46896C43.183 8.58655 43.083 8.7574 43.0563 8.94987L41.2246 22.1778C41.198 22.3708 41.2477 22.5622 41.3653 22.7175C41.4829 22.8728 41.6538 22.9728 41.8463 22.9994H41.8468C42.0392 23.0271 42.2307 22.9763 42.386 22.8587C42.5412 22.7411 42.6413 22.5703 42.6679 22.3778L44.4996 9.14937C44.5262 8.95691 44.4765 8.76495 44.3589 8.61017C44.2413 8.45489 44.0704 8.35488 43.878 8.32825C43.8433 8.32322 43.8096 8.32121 43.7759 8.32121Z" fill="#0A1640"/>
<path d="M70.4793 27.1898C69.9587 27.118 69.5954 26.6376 69.6673 26.117L71.499 12.8885C71.5708 12.3679 72.0512 12.0046 72.5719 12.0764C73.0925 12.1483 73.4558 12.6287 73.3839 13.1493L71.5522 26.3778C71.4804 26.8984 71 27.2622 70.4793 27.1898Z" fill="#845EF9"/>
<path d="M70.6108 27.4219C70.5575 27.4219 70.5033 27.4184 70.449 27.4109C70.1379 27.3677 69.8626 27.2069 69.6736 26.9561C69.4842 26.7058 69.4037 26.3973 69.447 26.0862L71.2792 12.8583C71.3219 12.5478 71.4832 12.2719 71.7334 12.0824C71.9842 11.893 72.2938 11.8136 72.6033 11.8558C72.9144 11.899 73.1898 12.0603 73.3792 12.3106C73.5687 12.5608 73.6491 12.8694 73.6058 13.1804L71.7742 26.4084C71.6917 26.9953 71.1872 27.4219 70.6108 27.4219ZM72.44 12.291C72.2822 12.291 72.1299 12.3417 72.0018 12.4387C71.8465 12.5563 71.7465 12.7271 71.7199 12.9196L69.8877 26.1476C69.861 26.3405 69.9108 26.532 70.0284 26.6873C70.146 26.8425 70.3168 26.9425 70.5093 26.9692C70.9098 27.0239 71.2761 26.7455 71.3309 26.3476L73.1626 13.1196C73.1893 12.9266 73.1395 12.7352 73.0219 12.5799C72.9043 12.4246 72.7335 12.3246 72.541 12.298C72.5073 12.293 72.4737 12.291 72.44 12.291Z" fill="#0A1640"/>
<path d="M34.5063 4.26467L33.8701 8.85742L76.0101 14.6945L76.6463 10.1017L34.5063 4.26467Z" fill="#3C1DA1"/>
<path opacity="0.25" d="M76.6495 10.0893L76.0133 14.6819L52.2002 11.3843C54.1048 10.3687 55.8365 9.01644 57.2511 7.40283L76.6495 10.0893Z" fill="#0A1640"/>
<path opacity="0.5" d="M39.1824 6.46907C40.315 6.53189 41.4422 6.63843 42.5669 6.76004C43.692 6.87863 44.8136 7.02336 45.9343 7.17311C47.0539 7.3309 48.173 7.49423 49.2886 7.68368C50.4042 7.87012 51.5178 8.07213 52.6254 8.31786C52.743 8.344 52.8173 8.46058 52.7912 8.57817C52.7676 8.68421 52.6706 8.75506 52.5656 8.74903C51.4329 8.68471 50.3062 8.57616 49.1816 8.45254C48.0569 8.33144 46.9353 8.1847 45.8152 8.03243C44.696 7.87163 43.5769 7.7063 42.4618 7.51484C41.3462 7.32639 40.2331 7.12236 39.1256 6.87512C39.015 6.85049 38.9452 6.74044 38.9698 6.62988C38.9929 6.52988 39.0839 6.46354 39.1824 6.46907Z" fill="white"/>
<path d="M76.0139 14.9053C76.0038 14.9053 75.9938 14.9048 75.9832 14.9033L33.8411 9.06696C33.719 9.04987 33.6335 8.93731 33.6506 8.81519L34.2868 4.22262C34.2948 4.16433 34.326 4.11106 34.3732 4.07538C34.42 4.0397 34.4793 4.02463 34.5381 4.03217L76.6802 9.86798C76.8023 9.88507 76.8878 9.99764 76.8707 10.1197L76.2345 14.7123C76.2264 14.7711 76.1953 14.8239 76.148 14.8596C76.1093 14.8897 76.0621 14.9053 76.0139 14.9053ZM34.1235 8.6559L75.8239 14.4309L76.3988 10.2801L34.6984 4.50555L34.1235 8.6559Z" fill="#0A1640"/>
<path d="M88.9952 11.0182L88.1469 17.1439C88.0771 17.6485 87.6012 17.9922 87.1002 17.9002L69.0671 14.5966C68.5967 14.5112 68.2771 14.0705 68.3424 13.5971L68.9726 9.04878C69.0379 8.5754 69.4651 8.23821 69.9415 8.28394L84.078 9.61662L88.1932 10.0056C88.7007 10.0538 89.065 10.5141 88.9952 11.0182Z" fill="#D811AD"/>
<path opacity="0.25" d="M88.9952 11.0182L88.1469 17.144C88.0771 17.6485 87.6012 17.9923 87.1002 17.9003L69.0671 14.5967C68.5967 14.5113 68.2771 14.0706 68.3424 13.5972L68.5857 11.8419C70.5335 12.2972 72.5089 12.6364 74.4959 12.8595C76.0703 13.0344 77.6733 13.1364 79.2311 12.8585C80.7915 12.5811 82.3202 11.8911 83.3624 10.6971C83.6473 10.372 83.888 10.0067 84.078 9.61621L88.1932 10.0052C88.7007 10.0539 89.065 10.5142 88.9952 11.0182Z" fill="#0A1640"/>
<path d="M70.7559 10.0868C71.5715 10.0742 72.3831 10.1054 73.1927 10.1521C74.0027 10.1958 74.8103 10.2657 75.6174 10.3406C76.4234 10.4235 77.229 10.5124 78.0325 10.6265C78.836 10.7381 79.6376 10.8652 80.4351 11.0366C80.5532 11.0622 80.6285 11.1783 80.6029 11.2969C80.5813 11.3984 80.4918 11.4687 80.3918 11.4697C79.5762 11.4808 78.7652 11.4476 77.9556 11.3989C77.1455 11.3526 76.3385 11.2808 75.5314 11.2034C74.7254 11.1175 73.9198 11.027 73.1173 10.9104C72.3143 10.7963 71.5127 10.6672 70.7152 10.4943C70.6042 10.4702 70.5333 10.3607 70.5574 10.2496C70.5786 10.1536 70.6625 10.0883 70.7559 10.0868Z" fill="#FF8CDB"/>
<path d="M87.2662 18.1388C87.1979 18.1388 87.129 18.1328 87.0607 18.1197L69.0281 14.8166C68.4387 14.7091 68.0407 14.1603 68.1231 13.5668L68.7533 9.01849C68.8357 8.42501 69.3694 8.00591 69.9643 8.06219L88.216 9.78333C88.5225 9.81197 88.7964 9.96072 88.9874 10.2019C89.1778 10.4431 89.2603 10.7437 89.218 11.0482L88.3693 17.1739C88.3271 17.479 88.1668 17.7463 87.9175 17.9262C87.724 18.0664 87.4984 18.1388 87.2662 18.1388ZM69.8563 8.5034C69.5251 8.5034 69.2407 8.74612 69.1945 9.0798L68.5643 13.6281C68.5151 13.9839 68.7538 14.3131 69.1075 14.3779L87.1406 17.681C87.3235 17.7152 87.5054 17.674 87.6547 17.5654C87.8044 17.4574 87.9009 17.2966 87.926 17.1136L88.7743 10.9874C88.7999 10.8045 88.7502 10.6236 88.6361 10.4788C88.5215 10.3341 88.3567 10.2446 88.1728 10.2276L69.9211 8.50592C69.8995 8.50441 69.8779 8.5034 69.8563 8.5034Z" fill="#0A1640"/>
<path d="M89.6759 9.93042L89.3438 12.3219L88.5061 18.3763C88.4166 19.008 87.8322 19.4517 87.2 19.3628C86.5653 19.2759 86.1246 18.6909 86.211 18.0567L86.7985 13.8089L87.3809 9.61333C87.4603 9.03342 87.9558 8.6123 88.5231 8.6123C88.5779 8.6123 88.6322 8.61733 88.687 8.62486C89.3216 8.7113 89.7624 9.29623 89.6759 9.93042Z" fill="#FFCE00"/>
<path opacity="0.5" d="M89.3438 12.3218L88.5061 18.3762C88.4166 19.0079 87.8322 19.4516 87.2 19.3626C86.5653 19.2757 86.1246 18.6908 86.211 18.0566L86.7985 13.8088C87.703 13.4173 88.5558 12.9143 89.3438 12.3218Z" fill="#E38921"/>
<path d="M87.3619 19.5974C87.298 19.5974 87.2337 19.5929 87.1689 19.5839C86.4161 19.4809 85.887 18.7819 85.9905 18.0266L87.1604 9.58265C87.2533 8.90224 87.8393 8.38916 88.5237 8.38916C88.5885 8.38916 88.6534 8.39468 88.7177 8.40373C89.471 8.50675 90.0001 9.20525 89.8971 9.96105V9.96156L88.7272 18.407C88.6297 19.0969 88.0373 19.5974 87.3619 19.5974ZM88.5232 8.8349C88.0609 8.8349 87.6649 9.18214 87.6021 9.64295L86.4322 18.0869C86.3623 18.5984 86.7206 19.0718 87.2302 19.1417C87.7393 19.213 88.2131 18.8562 88.285 18.3452L89.4549 9.90024C89.5247 9.38817 89.1664 8.91479 88.6569 8.84545C88.6121 8.83942 88.5679 8.8349 88.5232 8.8349Z" fill="#0A1640"/>
<path d="M36.2604 4.68209L35.6744 8.91284C35.4996 10.1772 34.3307 11.0616 33.0643 10.8863L19.8726 9.05958C18.6062 8.8842 17.7238 7.71584 17.8992 6.45149L18.4851 2.22074C18.6605 0.95438 19.8268 0.0694319 21.0937 0.244813L34.2855 2.07149C35.5513 2.24687 36.4358 3.41523 36.2604 4.68209Z" fill="#D811AD"/>
<path d="M20.0745 1.63389C20.97 1.66404 21.8595 1.73741 22.7465 1.82585C23.6339 1.91178 24.5184 2.02385 25.4018 2.14043C26.2842 2.26556 27.1657 2.39622 28.0436 2.552C28.922 2.70527 29.7979 2.87463 30.6682 3.0877C30.7853 3.11634 30.8572 3.23492 30.8286 3.35201C30.8034 3.45452 30.7099 3.52238 30.6084 3.51836C29.7134 3.4867 28.824 3.41131 27.937 3.32036C27.0496 3.23241 26.1661 3.11835 25.2832 2.99875C24.4013 2.87111 23.5203 2.73844 22.6424 2.58014C21.7645 2.42436 20.8886 2.2535 20.0188 2.03893C19.9082 2.01179 19.8409 1.90023 19.8685 1.78967C19.8916 1.69419 19.9796 1.63088 20.0745 1.63389Z" fill="#FF8CDB"/>
<path opacity="0.25" d="M36.2604 4.68226L35.6744 8.91301C35.4996 10.1774 34.3307 11.0618 33.0643 10.8864L19.8726 9.05975C18.6062 8.88437 17.7238 7.71601 17.8992 6.45166L17.9519 6.07175C20.452 6.59689 23.0013 6.92754 25.5491 6.91096C28.3501 6.89588 31.5613 6.78332 33.2211 4.11692C33.6312 3.46063 33.8312 2.75207 33.9387 2.02441L34.2855 2.07266C35.5513 2.24704 36.4358 3.4154 36.2604 4.68226Z" fill="#0A1640"/>
<path d="M33.3835 11.131C33.2679 11.131 33.1508 11.1229 33.0332 11.1068L19.8415 9.28018C19.1701 9.18721 18.5756 8.83845 18.1671 8.29824C17.7585 7.75803 17.5851 7.09168 17.6776 6.42081L18.2636 2.19006C18.4555 0.804101 19.738 -0.167779 21.1234 0.0241851L34.3152 1.85085C35.7016 2.04281 36.673 3.32677 36.481 4.71323L35.8951 8.94398C35.7192 10.2103 34.6292 11.131 33.3835 11.131ZM20.7742 0.445291C19.7475 0.445291 18.85 1.20512 18.7048 2.25087L18.1188 6.48162C18.0424 7.0344 18.1852 7.58364 18.5218 8.02888C18.8585 8.47412 19.3485 8.76157 19.9018 8.83795L33.0935 10.6646C34.2363 10.8224 35.2946 10.0234 35.4524 8.88167L36.0383 4.65092C36.1966 3.50818 35.3956 2.44987 34.2534 2.29208L21.0616 0.465396C20.9651 0.451828 20.8691 0.445291 20.7742 0.445291Z" fill="#0A1640"/>
<path d="M31.4334 20.9762L29.71 33.4185L35.7467 34.2546L37.4701 21.8124L31.4334 20.9762Z" fill="#3C1DA1"/>
<path opacity="0.25" d="M36.9935 25.2666L35.7502 34.2432L29.7129 33.407L30.3627 28.7139C31.8315 28.5913 33.2718 28.1496 34.5361 27.3918C35.4723 26.831 36.302 26.1058 36.9935 25.2666Z" fill="#0A1640"/>
<path d="M35.7502 34.4665C35.7402 34.4665 35.7296 34.466 35.7196 34.4645L29.6828 33.6288C29.624 33.6208 29.5712 33.5896 29.5355 33.5424C29.4998 33.4951 29.4843 33.4358 29.4923 33.3775L31.2155 20.9345C31.2326 20.8124 31.3461 20.726 31.4667 20.7441L37.5035 21.5798C37.5623 21.5878 37.6151 21.619 37.6508 21.6662C37.6865 21.7135 37.702 21.7728 37.694 21.8311L35.9708 34.2741C35.9558 34.3856 35.8598 34.4665 35.7502 34.4665ZM29.9647 33.2172L35.5598 33.9921L37.2216 21.9908L31.6265 21.216L29.9647 33.2172Z" fill="#0A1640"/>
<path d="M39.5923 19.8544L37.2606 36.6925L35.3229 36.4241C34.3872 36.2945 33.7344 35.4322 33.8641 34.4965L35.7269 21.0449C35.8561 20.1117 36.7189 19.4569 37.6546 19.5861L39.5923 19.8544Z" fill="#845EF9"/>
<path opacity="0.25" d="M38.4526 28.0845L37.2606 36.6922L35.3229 36.4239C34.3872 36.2942 33.7344 35.4319 33.8641 34.4962L34.5199 29.7614C35.35 29.6523 36.1616 29.4363 36.9184 29.0724C37.4762 28.8076 37.9868 28.4729 38.4526 28.0845Z" fill="#0A1640"/>
<path d="M37.261 36.9154C37.2509 36.9154 37.2409 36.9149 37.2303 36.9134L35.2926 36.6451C34.2373 36.4988 33.4976 35.5214 33.6433 34.4661L35.5062 21.0141C35.6524 19.9588 36.6318 19.2201 37.6851 19.3648L39.6228 19.6331C39.745 19.6502 39.8304 19.7628 39.8133 19.8844L37.4816 36.7225C37.4736 36.7813 37.4424 36.834 37.3952 36.8697C37.3565 36.8998 37.3092 36.9154 37.261 36.9154ZM37.4198 19.7924C36.6896 19.7924 36.0514 20.3321 35.9484 21.0749L34.0855 34.5269C33.973 35.339 34.5423 36.0908 35.3539 36.2034L37.071 36.441L39.3414 20.0447L37.6248 19.807C37.5555 19.7975 37.4871 19.7924 37.4198 19.7924Z" fill="#0A1640"/>
<path d="M45.8756 20.2758L43.4218 37.9938C43.3263 38.6848 42.6886 39.1672 41.9976 39.0717L37.5714 38.4587C36.8804 38.3632 36.398 37.7255 36.4935 37.0345L38.9473 19.3165C39.0428 18.6255 39.6805 18.1431 40.3715 18.2386L44.7977 18.8517C45.4887 18.9477 45.9711 19.5849 45.8756 20.2758Z" fill="#D811AD"/>
<path opacity="0.25" d="M45.8756 20.2761L43.4218 37.9941C43.3263 38.6851 42.6886 39.1675 41.9976 39.0721L37.5714 38.459C36.8804 38.3635 36.398 37.7258 36.4935 37.0348L37.281 31.3488C38.5232 30.2437 39.5805 28.7753 40.3775 26.9924C41.2504 25.0411 41.5197 23.7988 42.3223 18.5093L44.7977 18.852C45.4887 18.948 45.9711 19.5852 45.8756 20.2761Z" fill="#0A1640"/>
<path d="M42.1712 39.3067C42.1038 39.3067 42.0355 39.3022 41.9666 39.2927L37.5404 38.6796C37.147 38.6253 36.7987 38.4208 36.559 38.1042C36.3198 37.7881 36.2178 37.3972 36.272 37.0037L38.7259 19.2862C38.7801 18.8927 38.9847 18.5445 39.3013 18.3048C39.6174 18.0656 40.0073 17.9631 40.4018 18.0178L44.8275 18.6304C45.6391 18.743 46.208 19.4947 46.0959 20.3063L43.6421 38.0243C43.5396 38.767 42.9014 39.3067 42.1712 39.3067ZM40.1958 18.4495C39.9706 18.4495 39.753 18.5224 39.5706 18.6601C39.349 18.8274 39.2063 19.0716 39.1681 19.3465L36.7143 37.0645C36.6761 37.3399 36.7474 37.6132 36.9148 37.8349C37.0821 38.0565 37.3264 38.1992 37.6012 38.2374L42.0269 38.8505C42.5963 38.9309 43.121 38.5308 43.1998 37.963L45.6537 20.245C45.7321 19.6772 45.3341 19.151 44.7657 19.0721L40.34 18.4596C40.2922 18.453 40.244 18.4495 40.1958 18.4495Z" fill="#0A1640"/>
<path d="M32.6901 19.5478L30.5348 35.113C30.4564 35.6773 29.9539 36.0859 29.3865 36.0457L21.2004 35.4693L17.8702 35.2346C17.2445 35.1909 16.7877 34.6276 16.8737 34.0075L19.2426 16.9005C19.329 16.2784 19.921 15.8598 20.5351 15.988L23.804 16.6669L31.8383 18.3388C32.3956 18.4538 32.7685 18.9835 32.6901 19.5478Z" fill="#D811AD"/>
<path opacity="0.25" d="M32.3559 21.9629L30.5348 35.1124C30.4564 35.6768 29.9539 36.0853 29.3865 36.0451L21.2004 35.4687L17.8702 35.234C17.2445 35.1903 16.7877 34.627 16.8737 34.0069L17.4295 29.9937C18.9476 30.152 20.4893 30.0892 21.9864 29.7937C22.7361 29.646 23.4733 29.4405 24.1914 29.1771C27.68 27.8962 30.6283 25.2474 32.3559 21.9629Z" fill="#0A1640"/>
<path d="M23.8052 16.6661L21.9861 29.7935L21.2006 35.469L17.8699 35.2333C17.2452 35.1911 16.7869 34.6263 16.8739 34.0066L17.4292 29.9945L19.2433 16.8992C19.3302 16.2771 19.9222 15.8585 20.5368 15.9871L23.8052 16.6661Z" fill="#00D4FC"/>
<path opacity="0.45" d="M21.6302 17.5079C21.4237 20.2903 21.084 23.0542 20.7111 25.8141C20.3251 28.5714 19.9055 31.3248 19.3513 34.059C19.3271 34.1771 19.2126 34.2535 19.0945 34.2293C18.9854 34.2072 18.9121 34.1072 18.9206 33.9992C19.1301 31.2172 19.4749 28.4538 19.8528 25.695C20.2437 22.9381 20.6679 20.1858 21.2252 17.4516C21.2478 17.3405 21.3558 17.2692 21.4669 17.2918C21.5689 17.3129 21.6377 17.4064 21.6302 17.5079Z" fill="#3C1DA1"/>
<path d="M24.9733 18.6725C25.5301 18.687 26.0784 18.7448 26.6241 18.8177C27.1698 18.888 27.7111 18.9835 28.2508 19.0845C28.789 19.1936 29.3262 19.3077 29.8588 19.4474C30.3915 19.5845 30.9212 19.7368 31.4423 19.9328C31.5564 19.9755 31.6142 20.1026 31.5709 20.2167C31.5368 20.3072 31.4493 20.3619 31.3579 20.3594C30.8016 20.3433 30.2533 20.2835 29.7081 20.2082C29.1628 20.1358 28.6221 20.0378 28.0829 19.9348C27.5452 19.8232 27.0085 19.7066 26.4764 19.5649C25.9442 19.4257 25.4145 19.271 24.8939 19.074C24.7869 19.0333 24.7326 18.9137 24.7733 18.8061C24.8055 18.7217 24.8874 18.6699 24.9733 18.6725Z" fill="#FF8CDB"/>
<path opacity="0.25" d="M21.9861 29.7935L21.2006 35.469L17.8699 35.2333C17.2452 35.1911 16.7869 34.6262 16.8739 34.0066L17.4292 29.9945C18.9478 30.1528 20.4895 30.0884 21.9861 29.7935Z" fill="#3C1DA1"/>
<path d="M31.8841 18.1204L23.8573 16.4505C23.8553 16.45 23.8533 16.4485 23.8507 16.448L20.5823 15.7691C20.2245 15.6942 19.8637 15.7686 19.5647 15.9782C19.4904 16.0304 19.4225 16.0902 19.3612 16.1556C19.3436 16.1747 19.3305 16.1978 19.314 16.2179C19.2743 16.2661 19.2331 16.3138 19.2004 16.3676C19.1728 16.4128 19.1537 16.4626 19.1316 16.5113C19.1165 16.544 19.0974 16.5742 19.0853 16.6083C19.0672 16.6581 19.0587 16.7114 19.0471 16.7631C19.0391 16.7988 19.026 16.8325 19.021 16.8686L18.7738 18.6526L16.6516 33.9766C16.6436 34.0333 16.6461 34.0901 16.6456 34.1469C16.6456 34.1791 16.64 34.2118 16.642 34.2439C16.6446 34.2816 16.6551 34.3183 16.6611 34.3555C16.6692 34.4057 16.6732 34.4565 16.6873 34.5057C16.735 34.6766 16.8169 34.8379 16.9305 34.9776C17.1576 35.257 17.4938 35.4319 17.8531 35.457L29.3695 36.2681C29.4001 36.2701 29.4308 36.2716 29.4614 36.2716C30.1062 36.2716 30.665 35.7922 30.7544 35.1439L32.9102 19.5788C33.0052 18.9003 32.554 18.2596 31.8841 18.1204ZM17.8853 35.0107C17.6461 34.9947 17.4305 34.8831 17.2787 34.6962C17.2029 34.6027 17.1486 34.4977 17.1174 34.3861C17.1054 34.3429 17.0998 34.2982 17.0948 34.2535C17.0933 34.2404 17.0893 34.2278 17.0883 34.2148C17.0868 34.1896 17.0903 34.1635 17.0913 34.1379C17.0923 34.1042 17.0903 34.071 17.0953 34.0374L19.4642 16.9305C19.4682 16.9013 19.4778 16.8747 19.4843 16.8465C19.4914 16.8169 19.4959 16.7857 19.5059 16.7571C19.5215 16.7129 19.5436 16.6711 19.5662 16.6304C19.5718 16.6204 19.5753 16.6088 19.5808 16.5993C19.6411 16.4998 19.722 16.4133 19.8205 16.344C19.9672 16.2405 20.1371 16.1872 20.3115 16.1872C20.3708 16.1872 20.4306 16.1932 20.4899 16.2058L23.5558 16.8435L21.0085 35.2319L17.8853 35.0107ZM32.4695 19.5174L30.3137 35.0826C30.2519 35.5294 29.8459 35.8545 29.4021 35.8233L21.4547 35.2635L23.9935 16.9345L31.7931 18.5571C32.2343 18.6486 32.5313 19.0707 32.4695 19.5174Z" fill="#0A1640"/>
<path d="M86.1741 31.7957L84.5148 43.7764C84.4374 44.3342 83.9238 44.7226 83.3665 44.6452L79.3825 44.0935C78.8272 44.0166 78.4383 43.503 78.5157 42.9452L80.175 30.9645C80.2524 30.4067 80.766 30.0183 81.3213 30.0952L85.3053 30.6469C85.8631 30.7248 86.2515 31.2384 86.1741 31.7957Z" fill="#D811AD"/>
<path opacity="0.25" d="M84.9495 40.6372L84.5148 43.777C84.4374 44.3348 83.9238 44.7233 83.3665 44.6459L79.3825 44.0941C78.8272 44.0172 78.4383 43.5036 78.5157 42.9458L79.7996 33.6758C80.4393 35.402 81.2871 37.0296 82.4645 38.4402C83.1665 39.2854 84.0138 40.0342 84.9495 40.6372Z" fill="#0A1640"/>
<path d="M84.5046 32.2288C84.5372 32.6735 84.5262 33.1122 84.4996 33.5489C84.4759 33.9861 84.4267 34.4193 84.3724 34.8525C84.3096 35.2842 84.2418 35.7148 84.1478 36.1425C84.0568 36.5701 83.9498 36.9957 83.7995 37.4153C83.7583 37.5309 83.6307 37.5907 83.5151 37.5495C83.4297 37.5189 83.3744 37.441 83.3684 37.3556C83.3377 36.9108 83.3503 36.4721 83.3789 36.0359C83.4045 35.5992 83.4563 35.1661 83.5131 34.7334C83.5784 34.3022 83.6488 33.8716 83.7448 33.4444C83.8382 33.0173 83.9468 32.5916 84.099 32.1725C84.1382 32.064 84.2583 32.0077 84.3669 32.0474C84.4473 32.0765 84.4985 32.1494 84.5046 32.2288Z" fill="#FF8CDB"/>
<path d="M83.5078 44.8783C83.451 44.8783 83.3942 44.8743 83.3364 44.8663L79.3524 44.3145C78.6755 44.2205 78.2011 43.5929 78.2951 42.915L79.9544 30.9343C80.0001 30.6056 80.1705 30.3147 80.4343 30.1142C80.6987 29.9142 81.0258 29.8298 81.3519 29.8745L85.3359 30.4262C86.0143 30.5202 86.4892 31.1484 86.3953 31.8263L84.7359 43.807C84.6505 44.4276 84.1173 44.8783 83.5078 44.8783ZM81.1806 30.3092C81.0092 30.3092 80.8429 30.3649 80.7037 30.4705C80.5343 30.5986 80.4253 30.7856 80.3961 30.9961L78.7368 42.9768C78.677 43.4115 78.98 43.8135 79.4132 43.8733L83.3972 44.4251C83.6083 44.4537 83.8173 44.3994 83.9867 44.2718C84.156 44.1436 84.2651 43.9572 84.2942 43.7466L85.9535 31.766C86.0138 31.3313 85.7093 30.9288 85.2751 30.869L81.2911 30.3172C81.2539 30.3117 81.2172 30.3092 81.1806 30.3092Z" fill="#0A1640"/>
<path d="M82.8276 23.8038L79.9421 44.6414C79.7617 45.9435 78.5601 46.8525 77.2581 46.6726L43.6794 42.0228C42.3794 41.8429 41.4703 40.6413 41.6507 39.3393L44.5362 18.5017C44.7166 17.1996 45.9182 16.2905 47.2182 16.4705L80.7969 21.1203C82.0989 21.3002 83.008 22.5018 82.8276 23.8038Z" fill="#3C1DA1"/>
<path opacity="0.25" d="M79.9421 44.6414C79.7617 45.9435 78.5601 46.8525 77.2581 46.6726L43.6794 42.0228C42.3794 41.8429 41.4703 40.6413 41.6507 39.3393L44.5362 18.5017C44.7166 17.1996 45.9182 16.2905 47.2182 16.4705C47.5936 16.5222 47.8559 16.869 47.8042 17.2443L45.0855 36.8764C44.9453 37.8895 45.6529 38.8242 46.6659 38.9649L79.039 43.4479C79.6179 43.5273 80.0225 44.062 79.9421 44.6414Z" fill="#0A1640"/>
<path d="M77.5858 46.9179C77.4677 46.9179 77.3476 46.9099 77.227 46.8933L43.6483 42.2434C42.2277 42.0464 41.2322 40.7298 41.4292 39.3082L44.3146 18.4705C44.4101 17.7816 44.7674 17.1715 45.3217 16.7519C45.876 16.3323 46.5609 16.1544 47.2479 16.2489L80.8265 20.8987C82.2482 21.0957 83.2447 22.4123 83.0482 23.834L80.1627 44.6716C79.9823 45.9732 78.8642 46.9179 77.5858 46.9179ZM46.8876 16.67C46.4212 16.67 45.97 16.8212 45.5916 17.1077C45.1323 17.4554 44.8358 17.9615 44.7569 18.5318L41.8714 39.3695C41.7081 40.5479 42.5332 41.6389 43.7096 41.8017L77.2882 46.4516C78.4682 46.6139 79.5576 45.7887 79.721 44.6108L82.6065 23.7732C82.7698 22.5952 81.9436 21.5038 80.7657 21.3404L47.1871 16.6906C47.0871 16.677 46.9871 16.67 46.8876 16.67Z" fill="#0A1640"/>
<path d="M73.2784 23.3904L71.3201 37.5299C71.2507 38.0289 70.7919 38.3762 70.2929 38.3068L47.4195 35.1394C46.9205 35.0701 46.5733 34.6113 46.6426 34.1123L48.6004 19.9727C48.6693 19.4737 49.1291 19.124 49.6276 19.1933L72.5005 22.3607C72.6442 22.3808 72.7759 22.4336 72.8864 22.5095C73.1648 22.6994 73.3276 23.0351 73.2784 23.3904Z" fill="#00D4FC"/>
<g opacity="0.25">
<path d="M64.8098 21.2959L52.6562 35.8641L57.4875 36.5334L69.6461 21.9653L64.8098 21.2959Z" fill="#3C1DA1"/>
<path d="M56.6941 20.1719L46.9567 31.8435L46.6426 34.1124C46.5732 34.6114 46.921 35.0702 47.4195 35.1395L47.9115 35.2079L60.07 20.6397L56.6941 20.1719Z" fill="#3C1DA1"/>
<path d="M72.886 22.5098L60.7998 36.9925L63.3054 37.3392L72.9453 25.7867L73.277 23.3902C73.3267 23.0349 73.1639 22.6992 72.886 22.5098Z" fill="#3C1DA1"/>
</g>
<path d="M56.9857 22.12C59.3134 22.2637 61.6225 22.5406 63.9271 22.8502C66.2296 23.1733 68.5277 23.5296 70.8071 24.021C70.9247 24.0462 71.0001 24.1628 70.9745 24.2804C70.9514 24.3874 70.8534 24.4587 70.7473 24.4522C68.4201 24.3055 66.1115 24.0241 63.808 23.709C61.5059 23.3808 59.2084 23.02 56.9294 22.5255C56.8189 22.5014 56.7485 22.3924 56.7721 22.2813C56.7943 22.1813 56.8862 22.114 56.9857 22.12Z" fill="white"/>
<path d="M51.4878 29.1018C50.9632 29.6234 51.0577 30.4692 51.9823 31.0451C53.4562 31.9632 55.5447 31.5642 56.0282 30.6948C57.0216 28.9073 53.0291 27.5686 51.4878 29.1018Z" fill="#D811AD"/>
<path d="M68.0194 31.3907C66.9525 29.4966 62.7464 29.6997 63.2173 31.6902C63.4459 32.658 65.3475 33.6093 67.0154 33.1264C68.0616 32.8238 68.3822 32.0354 68.0194 31.3907Z" fill="#D811AD"/>
<path opacity="0.25" d="M71.32 37.5299C71.2512 38.0279 70.7914 38.3762 70.2929 38.3068L47.4195 35.1394C46.9215 35.0706 46.5732 34.6108 46.6426 34.1123L48.6004 19.9728C48.6698 19.4732 49.1306 19.1245 49.6301 19.1938L49.6974 19.2029C50.7321 19.3461 51.4548 20.3014 51.3115 21.3361L49.9879 30.8956C49.8703 31.7459 50.4638 32.5308 51.3145 32.6489L69.5361 35.1721C70.6798 35.3309 71.4783 36.3862 71.32 37.5299Z" fill="#3C1DA1"/>
<path d="M73.014 22.3262C72.8718 22.2287 72.705 22.1644 72.5326 22.1407L49.6597 18.9733C49.0391 18.8869 48.4667 19.3221 48.3808 19.9432L46.423 34.0822C46.337 34.7013 46.7712 35.2752 47.3908 35.3611L70.2637 38.5286C70.3159 38.5356 70.3682 38.5391 70.42 38.5391C70.9768 38.5391 71.4637 38.1275 71.5426 37.5607L73.5004 23.4217C73.5592 22.9905 73.3728 22.5709 73.014 22.3262ZM73.0577 23.3604L71.0999 37.4994C71.0481 37.8753 70.7019 38.1376 70.3245 38.0863L47.4516 34.9189C47.0757 34.8672 46.8129 34.5189 46.8647 34.1435L48.8225 20.0045C48.8481 19.8216 48.9426 19.6603 49.0888 19.5487C49.2094 19.4568 49.3537 19.4085 49.5024 19.4085C49.5341 19.4085 49.5662 19.411 49.5984 19.4156L72.4713 22.583C72.5758 22.5975 72.6763 22.6357 72.7617 22.695C72.9808 22.8433 73.0939 23.0986 73.0577 23.3604Z" fill="#0A1640"/>
<path d="M62.5023 27.6261C62.3772 27.611 62.2682 27.6965 62.2521 27.8186C62.1018 28.9774 61.2425 30.1834 59.9264 30.1327C59.3847 30.1121 58.9108 29.8704 58.5565 29.4357C58.0892 28.8613 57.8801 28.0186 58.0108 27.2361C58.0309 27.1145 57.949 27 57.8274 26.9794C57.7063 26.9583 57.5912 27.0412 57.5706 27.1628C57.4188 28.0673 57.664 29.0462 58.2103 29.7171C58.6475 30.2548 59.2349 30.5528 59.9088 30.5789C59.9415 30.5799 59.9742 30.5809 60.0063 30.5809C61.5249 30.5804 62.5219 29.2035 62.6943 27.8769C62.7104 27.7542 62.6245 27.6422 62.5023 27.6261Z" fill="#0A1640"/>
<path d="M67.5709 26.1961C67.4488 26.182 67.3367 26.2659 67.3206 26.388C67.204 27.276 66.6216 28.2092 65.7382 28.1851C65.415 28.1765 65.1387 28.0363 64.9165 27.7675C64.5638 27.3408 64.404 26.6483 64.5095 26.0031C64.5296 25.8815 64.4472 25.7669 64.3256 25.7468C64.203 25.7242 64.0894 25.8091 64.0698 25.9307C63.9437 26.6976 64.1411 27.5298 64.5728 28.0514C64.8763 28.4187 65.2758 28.6187 65.7266 28.6303C65.7412 28.6308 65.7552 28.6308 65.7698 28.6308C66.8789 28.6308 67.6236 27.5127 67.7633 26.4458C67.7789 26.3242 67.693 26.2121 67.5709 26.1961Z" fill="#0A1640"/>
<path d="M56.5855 24.6748C56.4634 24.6603 56.3513 24.7447 56.3353 24.8668C56.2192 25.7548 55.6202 26.6819 54.7528 26.6638C54.4297 26.6553 54.1533 26.5146 53.9312 26.2457C53.5784 25.8191 53.4186 25.1266 53.5246 24.4814C53.5447 24.3598 53.4623 24.2452 53.3407 24.2251C53.2206 24.2035 53.1045 24.2874 53.0844 24.409C52.9583 25.1753 53.1558 26.0075 53.5875 26.5296C53.891 26.897 54.2905 27.0975 54.7413 27.1091C54.7553 27.1096 54.7699 27.1096 54.784 27.1096C55.8935 27.1096 56.6383 25.9914 56.7775 24.9241C56.7936 24.803 56.7076 24.6909 56.5855 24.6748Z" fill="#0A1640"/>
<path d="M71.7285 41.3004L71.5099 42.8789C71.4571 43.2613 71.1043 43.5286 70.7214 43.4754L45.6042 39.9969C45.2213 39.9441 44.9545 39.5914 45.0077 39.2084L45.2263 37.63C45.2791 37.2471 45.6319 36.9827 46.0143 37.0355L71.1314 40.514C71.5144 40.5678 71.7817 40.918 71.7285 41.3004Z" fill="#FFCE00"/>
<path d="M49.0772 37.473L48.667 40.4341L52.6166 40.9812L53.0268 38.0201L49.0772 37.473Z" fill="#D811AD"/>
<path d="M56.5947 38.5145L56.1846 41.4756L60.1342 42.0227L60.5444 39.0616L56.5947 38.5145Z" fill="#D811AD"/>
<path d="M64.1123 39.556L63.7021 42.5171L67.6518 43.0642L68.062 40.1031L64.1123 39.556Z" fill="#D811AD"/>
<path d="M71.1617 40.2931L46.0445 36.8147C45.5445 36.7463 45.0747 37.0971 45.0048 37.5996L44.7862 39.1785C44.7525 39.4228 44.8154 39.665 44.9641 39.8615C45.1129 40.0579 45.3289 40.1846 45.5732 40.2183L70.6898 43.6967C70.7325 43.7028 70.7747 43.7053 70.8169 43.7053C71.2697 43.7053 71.6657 43.3706 71.73 42.9098L71.9486 41.3308C72.0185 40.8283 71.6652 40.363 71.1617 40.2931ZM65.8138 42.5711L63.9565 42.3138L64.3052 39.7941L66.9797 40.1645L67.8134 40.2801L67.4646 42.7997L65.8138 42.5711ZM58.58 41.569L56.4392 41.2726L56.7885 38.7529L58.5428 38.9956L60.2971 39.2388L59.9484 41.7585L58.58 41.569ZM48.922 40.2318L49.2712 37.7122L49.9778 37.8102L52.7794 38.1981L52.4306 40.7178L49.5959 40.3253L48.922 40.2318ZM53.2211 38.2589L56.3463 38.6916L55.9975 41.2112L52.8723 40.7786L53.2211 38.2589ZM60.7383 39.3001L63.8635 39.7328L63.5143 42.2525L60.3891 41.8198L60.7383 39.3001ZM45.3204 39.5921C45.2435 39.4906 45.2113 39.3655 45.2284 39.2393L45.447 37.6609C45.4646 37.5353 45.5294 37.4242 45.631 37.3478C45.7144 37.285 45.8139 37.2524 45.9169 37.2524C45.939 37.2524 45.9616 37.2539 45.9837 37.2569L48.829 37.6509L48.4803 40.1705L45.635 39.7765C45.5088 39.7589 45.3973 39.6936 45.3204 39.5921ZM71.2883 42.8485C71.2521 43.1083 71.0124 43.2907 70.7511 43.2545L67.9063 42.8605L68.2556 40.3409L71.1009 40.7348C71.3607 40.771 71.5431 41.0107 71.5074 41.2695L71.2883 42.8485Z" fill="#0A1640"/>
<path d="M79.2782 30.7786C79.1254 31.8827 78.1063 32.6551 77.0022 32.5023C76.2675 32.4003 75.6806 31.9168 75.4147 31.2781C75.2806 30.9575 75.2278 30.5957 75.2791 30.2248C75.4318 29.1208 76.451 28.3499 77.556 28.5027C78.0615 28.5725 78.4967 28.8238 78.8068 29.1826C79.1726 29.6072 79.3611 30.1801 79.2782 30.7786Z" fill="#A7D640"/>
<path opacity="0.5" d="M75.917 30.4235C75.9024 30.1642 75.9703 29.9431 76.0959 29.728C76.2225 29.5179 76.419 29.332 76.6552 29.2199C76.8894 29.1094 77.1537 29.0576 77.3939 29.0893C77.5165 29.0938 77.6276 29.139 77.7386 29.1692C77.8447 29.2159 77.9457 29.2687 78.0376 29.3365C78.1407 29.4124 78.1628 29.5576 78.0869 29.6606C78.0567 29.7014 78.0155 29.73 77.9708 29.7441L77.9281 29.7576C77.8296 29.7893 77.7407 29.7973 77.6552 29.8144C77.5728 29.8375 77.4904 29.8431 77.419 29.8677C77.2693 29.8978 77.1502 29.9516 77.0331 30.0009C76.917 30.0531 76.806 30.121 76.6874 30.2119C76.5688 30.2983 76.4457 30.423 76.311 30.533L76.2597 30.5747C76.1698 30.6481 76.0371 30.635 75.9637 30.5451C75.9346 30.5089 75.9195 30.4662 75.917 30.4235Z" fill="white"/>
<path opacity="0.25" d="M79.2785 30.7786C79.1257 31.8827 78.1066 32.6551 77.0025 32.5023C76.2678 32.4003 75.6809 31.9169 75.415 31.2781C76.2809 31.3525 77.1493 31.2148 77.8161 30.6831C78.292 30.3037 78.6116 29.7615 78.8071 29.1826C79.1729 29.6072 79.3614 30.1801 79.2785 30.7786Z" fill="#0A1640"/>
<path d="M77.2832 32.7447C77.1797 32.7447 77.0757 32.7376 76.9717 32.7231C76.1882 32.6145 75.5123 32.0939 75.2083 31.3637C75.0545 30.9969 75.0023 30.5924 75.0575 30.1944C75.2269 28.9702 76.3636 28.1139 77.5863 28.2817C78.1255 28.3561 78.6189 28.6245 78.9752 29.0371C79.3963 29.526 79.5873 30.1717 79.4989 30.8094C79.4164 31.4024 79.1084 31.9281 78.631 32.2899C78.2375 32.5874 77.7677 32.7447 77.2832 32.7447ZM77.2772 28.7064C76.3953 28.7064 75.6239 29.3582 75.4993 30.2552C75.455 30.5743 75.4968 30.8979 75.6199 31.1919C75.8636 31.7773 76.4048 32.1944 77.0325 32.2813C77.5078 32.3477 77.9792 32.2241 78.3616 31.9341C78.7441 31.6441 78.9908 31.223 79.0566 30.7486C79.1275 30.2376 78.9742 29.7205 78.637 29.329C78.3516 28.9989 77.9566 28.7838 77.5244 28.7245C77.442 28.7119 77.3591 28.7064 77.2772 28.7064Z" fill="#0A1640"/>
<path d="M80.0301 25.3426C79.8773 26.4466 78.8582 27.219 77.7542 27.0662C77.0195 26.9647 76.4325 26.4808 76.1667 25.8421C76.0325 25.5215 75.9798 25.1597 76.031 24.7888C76.1838 23.6848 77.2029 22.9139 78.3084 23.0667C78.814 23.1365 79.2492 23.3878 79.5592 23.7466C79.9246 24.1712 80.113 24.7441 80.0301 25.3426Z" fill="#D811AD"/>
<path d="M76.6699 24.9874C76.6553 24.7281 76.7232 24.507 76.8488 24.2919C76.9754 24.0819 77.1719 23.896 77.4081 23.7839C77.6423 23.6733 77.9066 23.6216 78.1468 23.6532C78.2695 23.6578 78.3805 23.703 78.4916 23.7331C78.5976 23.7799 78.6986 23.8326 78.7906 23.9005C78.8936 23.9764 78.9157 24.1216 78.8398 24.2246C78.8097 24.2653 78.7685 24.2934 78.7237 24.308L78.681 24.3216C78.5825 24.3533 78.4936 24.3613 78.4081 24.3784C78.3257 24.4015 78.2433 24.407 78.172 24.4316C78.0222 24.4618 77.9036 24.5156 77.786 24.5648C77.6699 24.6171 77.5589 24.6849 77.4403 24.7759C77.3217 24.8623 77.1986 24.9869 77.0639 25.097L77.0126 25.1387C76.9227 25.2121 76.79 25.199 76.7166 25.109C76.6875 25.0729 76.6724 25.0301 76.6699 24.9874Z" fill="#FF8CDB"/>
<path opacity="0.25" d="M80.0304 25.3426C79.8776 26.4466 78.8585 27.219 77.7545 27.0662C77.0198 26.9647 76.4328 26.4808 76.167 25.8421C77.0333 25.917 77.9012 25.7788 78.5685 25.2471C79.0444 24.8677 79.3641 24.3255 79.5595 23.7466C79.9249 24.1712 80.1133 24.7441 80.0304 25.3426Z" fill="#0A1640"/>
<path d="M78.0359 27.3084C77.9324 27.3084 77.8284 27.3014 77.7244 27.2868C76.9409 27.1783 76.2655 26.6577 75.961 25.9275C75.8072 25.5596 75.7555 25.1551 75.8103 24.7576C75.9801 23.5335 77.1168 22.6782 78.339 22.845C78.8782 22.9194 79.3716 23.1877 79.7279 23.6003C80.149 24.0888 80.3395 24.735 80.2516 25.3727C80.1696 25.9652 79.8616 26.4913 79.3842 26.8526C78.9902 27.1516 78.5209 27.3084 78.0359 27.3084ZM78.0299 23.2702C77.148 23.2702 76.3761 23.9219 76.252 24.8189C76.2078 25.1375 76.2495 25.4611 76.3726 25.7556C76.6163 26.3406 77.1575 26.7577 77.7852 26.8446C78.2601 26.9109 78.7324 26.7868 79.1149 26.4974C79.4973 26.2074 79.744 25.7868 79.8098 25.3119C79.8807 24.8008 79.7279 24.2837 79.3907 23.8923C79.1053 23.5621 78.7103 23.347 78.2787 23.2877C78.1947 23.2762 78.1118 23.2702 78.0299 23.2702Z" fill="#0A1640"/>
<path d="M94.5543 43.1183L82.6108 70.8938C82.3877 71.4124 81.7867 71.6521 81.2681 71.429C80.7495 71.2059 80.5097 70.6049 80.7329 70.0863C80.7374 70.0752 80.7439 70.0612 80.749 70.0506L93.7533 42.756C93.8578 42.5369 94.1201 42.444 94.3392 42.548C94.5533 42.6495 94.6467 42.9027 94.5543 43.1183Z" fill="#A7D640"/>
<path d="M81.6702 71.7352C81.5064 71.7352 81.34 71.7026 81.1797 71.6342C80.8742 71.5026 80.638 71.2603 80.5149 70.9513C80.3918 70.6422 80.3963 70.3035 80.528 69.998L80.5481 69.9543L93.5524 42.6597C93.6283 42.4999 93.7624 42.3793 93.9288 42.32C94.0966 42.2612 94.276 42.2702 94.4358 42.3466C94.7579 42.5004 94.9001 42.8778 94.7594 43.2065L82.8165 70.9819C82.6134 71.4528 82.1526 71.7352 81.6702 71.7352ZM94.1504 42.728C94.1258 42.728 94.1016 42.7326 94.078 42.7406C94.0237 42.7602 93.98 42.7994 93.9549 42.8517L80.9385 70.1729C80.8536 70.3704 80.8506 70.588 80.93 70.786C81.0089 70.9845 81.1601 71.1397 81.3566 71.2242C81.5526 71.3091 81.7702 71.3111 81.9682 71.2327C82.1667 71.1533 82.3225 71.002 82.4064 70.8061L94.3494 43.0306C94.3951 42.923 94.3489 42.7994 94.2434 42.7492C94.2137 42.7351 94.182 42.728 94.1504 42.728Z" fill="#0A1640"/>
<path d="M95.5812 43.265L93.7671 47.2692C93.4405 47.9908 92.5907 48.3104 91.8671 47.9827C91.1455 47.6561 90.8259 46.8063 91.1525 46.0847L92.9666 42.0806C93.1299 41.7198 93.4229 41.459 93.7676 41.3293C94.1118 41.1997 94.5043 41.2027 94.8651 41.366C95.3114 41.568 95.6054 41.969 95.6837 42.4158C95.7375 42.6927 95.7059 42.9897 95.5812 43.265Z" fill="#D811AD"/>
<path opacity="0.25" d="M95.5812 43.2653L93.7671 47.2694C93.4405 47.991 92.5907 48.3106 91.8671 47.983C91.1455 47.6563 90.8259 46.8066 91.1525 46.0849L91.3053 45.7478C91.7967 45.7417 92.3158 45.6241 92.8827 45.3663C94.0832 44.8171 94.8109 43.6542 95.546 42.6165C95.5938 42.5507 95.6395 42.4839 95.6832 42.416C95.7375 42.6929 95.7059 42.9899 95.5812 43.2653Z" fill="#0A1640"/>
<path d="M92.4597 48.3349C92.2265 48.3349 91.9933 48.2852 91.7742 48.1857C91.3712 48.0032 91.0632 47.6746 90.9069 47.26C90.7511 46.8459 90.7657 46.3957 90.9481 45.9926L92.7622 41.988C92.9451 41.584 93.2738 41.2759 93.6873 41.1202C94.1019 40.9644 94.5517 40.979 94.9557 41.1624C95.4547 41.3885 95.8085 41.8428 95.902 42.377C95.9663 42.7031 95.9256 43.0433 95.7834 43.3564L93.9693 47.361C93.7868 47.7645 93.4577 48.0721 93.0431 48.2284C92.8542 48.2992 92.6567 48.3349 92.4597 48.3349ZM94.2713 41.4599C94.1276 41.4599 93.9833 41.486 93.8451 41.5378C93.5431 41.6513 93.3029 41.877 93.1688 42.1724L91.3546 46.1766C91.2215 46.471 91.2109 46.8002 91.3245 47.1032C91.4386 47.4057 91.6637 47.6459 91.9582 47.7796C92.2542 47.9143 92.5838 47.9253 92.8868 47.8108C93.1899 47.6972 93.4301 47.4721 93.5632 47.1776L95.3773 43.173C95.4809 42.9453 95.5105 42.6981 95.4633 42.4589C95.3944 42.0649 95.1361 41.7343 94.7718 41.5689C94.612 41.4966 94.4416 41.4599 94.2713 41.4599Z" fill="#0A1640"/>
<path d="M88.2452 64.9956L79.1364 85.1025C78.7545 85.9458 77.762 86.3191 76.9188 85.9372L59.3732 77.9888C58.5299 77.6069 58.1566 76.6144 58.5385 75.7712L67.6472 55.6642C68.0291 54.821 69.0216 54.4476 69.8649 54.8295L87.4105 62.7779C88.2537 63.1598 88.6271 64.1523 88.2452 64.9956Z" fill="#845EF9"/>
<path opacity="0.25" d="M79.1364 85.1025C78.7544 85.9452 77.7615 86.3191 76.9187 85.9372L59.3731 77.9887C58.5304 77.6068 58.1565 76.6138 58.5384 75.7711L67.6471 55.6641C68.0291 54.8214 69.0221 54.4475 69.8648 54.8294C70.7312 55.2219 71.1156 56.2425 70.7231 57.1089L63.238 73.6319C62.8727 74.4384 63.2305 75.3882 64.037 75.754L77.9981 82.0788C79.1474 82.5989 79.657 83.9527 79.1364 85.1025Z" fill="#0A1640"/>
<path d="M78.335 79.3489L77.2521 81.7404L75.6163 85.346L60.6748 78.578L63.3935 72.5804C63.5196 72.3005 63.7357 72.0894 63.9935 71.9658C64.3206 71.805 64.7121 71.7874 65.0689 71.9507L77.7028 77.673C78.34 77.9635 78.6224 78.7117 78.335 79.3489Z" fill="#FFCE00"/>
<path d="M85.6953 65.0881L82.9394 71.1711C82.753 71.5832 82.2661 71.7667 81.854 71.5797L66.9125 64.8112C66.5004 64.6248 66.317 64.1378 66.5039 63.7258L69.2597 57.6422C69.4462 57.2301 69.9331 57.0472 70.3452 57.2337L85.2867 64.0021C85.3465 64.0293 85.4033 64.063 85.4521 64.1027C85.7425 64.3298 85.8546 64.7358 85.6953 65.0881Z" fill="#00D4FC"/>
<g opacity="0.25">
<path d="M77.1859 60.3328L69.3581 65.9194L67.1299 64.9098L74.9577 59.3232L77.1859 60.3328Z" fill="#3C1DA1"/>
<path d="M81.7011 62.378L73.8733 67.9646L71.126 66.7199L78.9538 61.1338L81.7011 62.378Z" fill="#3C1DA1"/>
<path d="M85.4517 64.1033L77.6465 69.6743L76.0967 68.9723L83.9265 63.3867L85.2863 64.0028C85.3461 64.0295 85.4034 64.0631 85.4517 64.1033Z" fill="#3C1DA1"/>
</g>
<path opacity="0.25" d="M82.9395 71.171C82.7526 71.5835 82.2666 71.7665 81.8541 71.5795L66.9125 64.811C66.5 64.6241 66.317 64.1381 66.504 63.7256L69.2598 57.642C69.4468 57.2294 69.9327 57.0465 70.3453 57.2335C71.0583 57.5566 71.3744 58.3968 71.0518 59.1099L69.6387 62.2291C69.387 62.7849 69.6332 63.4401 70.1895 63.6919L82.1671 69.1176C82.9471 69.4714 83.2928 70.3905 82.9395 71.171Z" fill="#3C1DA1"/>
<path d="M83.1443 65.61C82.39 65.3703 81.6538 65.0909 80.9236 64.7975C80.1924 64.5065 79.4723 64.1919 78.7542 63.8723C78.0396 63.5452 77.327 63.2135 76.625 62.8577C75.922 62.5044 75.2255 62.1371 74.5476 61.7296C74.4441 61.6672 74.4104 61.5326 74.4727 61.429C74.526 61.3401 74.6325 61.3029 74.727 61.3331C75.4808 61.5738 76.2165 61.8552 76.9451 62.1507C77.6753 62.4436 78.3944 62.7602 79.1115 63.0824C79.8251 63.4115 80.5367 63.7457 81.2377 64.1035C81.9397 64.4588 82.6352 64.8276 83.3126 65.2372C83.4101 65.296 83.4413 65.4226 83.3825 65.5201C83.3327 65.6035 83.2332 65.6382 83.1443 65.61Z" fill="white"/>
<path opacity="0.5" d="M77.2521 81.7404L75.6163 85.346L60.6748 78.578L63.3935 72.5804C63.5196 72.3005 63.7357 72.0894 63.9935 71.9658L63.2377 73.6312C62.8733 74.4367 63.2302 75.3885 64.0382 75.7523L77.2521 81.7404Z" fill="#E38921"/>
<path d="M77.0042 74.2448C76.8329 73.7337 76.1283 73.1418 75.179 73.0634C74.5665 73.0131 73.9926 73.4081 74.1976 74.0051C74.6946 75.4539 77.4645 75.6167 77.0042 74.2448Z" fill="#D811AD"/>
<path d="M70.1374 72.1665C70.7213 71.9268 70.6399 71.2349 70.1982 70.8077C69.5132 70.1454 68.6041 70.0062 68.1066 70.2142C66.7719 70.773 68.7207 72.748 70.1374 72.1665Z" fill="#D811AD"/>
<path d="M75.9158 78.5043L65.6226 73.8414C65.2101 73.6544 64.7241 73.8373 64.5372 74.2499C64.3502 74.6625 64.5332 75.1484 64.9457 75.3354L75.2389 79.9983C75.6515 80.1852 76.1374 80.0023 76.3244 79.5897C76.5113 79.1772 76.3284 78.6912 75.9158 78.5043Z" fill="#D811AD"/>
<path d="M74.5857 81.4393L64.2925 76.7764C63.88 76.5895 63.394 76.7724 63.2071 77.185C63.0202 77.5976 63.2031 78.0835 63.6157 78.2704L73.9089 82.9333C74.3214 83.1203 74.8074 82.9374 74.9943 82.5248C75.1812 82.1122 74.9983 81.6263 74.5857 81.4393Z" fill="#D811AD"/>
<path d="M88.4959 63.6352C88.3175 63.1609 87.9642 62.784 87.5024 62.5749L69.9568 54.6265C69.0035 54.1938 67.8758 54.6185 67.4441 55.5722L58.3354 75.6792C58.1258 76.141 58.1093 76.6571 58.2876 77.1315C58.466 77.6059 58.8193 77.9828 59.2811 78.1918L76.8268 86.1408C77.08 86.2553 77.3459 86.3096 77.6072 86.3096C78.3303 86.3096 79.0223 85.895 79.3394 85.1945L88.4481 65.0875H88.4486C88.6577 64.6257 88.6743 64.1096 88.4959 63.6352ZM60.9701 78.4672L63.5968 72.6726C63.6978 72.4485 63.8682 72.2736 64.0918 72.1661C64.3707 72.0289 64.6928 72.0244 64.9767 72.1545L77.6107 77.8768C78.1338 78.115 78.368 78.7341 78.1318 79.2572L75.5051 85.0513L60.9701 78.4672ZM88.0421 64.9036L78.9333 85.0106C78.7735 85.3644 78.4851 85.6342 78.1223 85.7709C77.7594 85.9076 77.3645 85.8945 77.0112 85.7347L75.9112 85.2362L78.5384 79.4416C78.875 78.6954 78.5419 77.8119 77.7951 77.4712L65.1617 71.7495C64.7556 71.5641 64.2943 71.5701 63.8968 71.7661C63.5838 71.9168 63.333 72.1736 63.1908 72.4897L60.5641 78.2838L59.4656 77.7863C59.1123 77.626 58.8419 77.3381 58.7057 76.9752C58.5691 76.6124 58.5821 76.2179 58.7419 75.8642L67.8507 55.7572C68.0939 55.2215 68.6231 54.9044 69.1763 54.9044C69.3763 54.9044 69.5794 54.9461 69.7733 55.0335L87.319 62.982C88.0481 63.3116 88.3723 64.1739 88.0421 64.9036Z" fill="#0A1640"/>
<path d="M70.8812 68.0113C70.4028 67.8012 69.8767 68.0048 69.6555 68.4761C69.4515 68.9123 69.6636 69.4973 70.141 69.7023C70.6134 69.9053 71.1415 69.7164 71.3641 69.2209C71.5787 68.7505 71.3691 68.2259 70.8812 68.0113Z" fill="#0A1640"/>
<path d="M76.8131 70.6975C76.2382 70.4523 75.7633 70.7844 75.5764 71.1563C75.3688 71.5684 75.593 72.1905 76.0226 72.3719C77.2206 72.877 77.9081 71.1649 76.8131 70.6975Z" fill="#0A1640"/>
<path d="M74.5613 70.5922C74.4447 70.5535 74.3181 70.6168 74.2794 70.7339C73.9608 71.6948 73.404 72.1073 72.9889 72.1737C72.7185 72.2164 72.4864 72.1264 72.3341 71.9199C72.0351 71.5144 72.106 70.7671 72.5231 69.9209C72.5773 69.8103 72.5321 69.6766 72.4215 69.6219C72.3105 69.5681 72.1773 69.6128 72.1225 69.7234C71.623 70.7369 71.5693 71.634 71.9748 72.1847C72.1854 72.4707 72.509 72.6294 72.8648 72.6294C72.9286 72.6294 72.9929 72.6244 73.0582 72.6139C73.7638 72.5018 74.3784 71.8516 74.7025 70.8741C74.7417 70.7571 74.6779 70.6309 74.5613 70.5922Z" fill="#0A1640"/>
<path d="M85.5928 63.9308C85.531 63.88 85.4582 63.8358 85.3778 63.7996L70.4362 57.0311C69.9126 56.7934 69.293 57.0266 69.0558 57.5507L66.2999 63.6343C66.0627 64.1584 66.2954 64.7775 66.8195 65.0147L81.7611 71.7837C81.9003 71.8465 82.046 71.8762 82.1897 71.8762C82.5872 71.8762 82.9676 71.648 83.142 71.2636L85.8979 65.1805C86.0974 64.7403 85.9702 64.2252 85.5928 63.9308ZM85.4913 64.9956L82.7355 71.0787C82.5993 71.3782 82.245 71.5123 81.945 71.3762L67.0035 64.6072C66.8582 64.5413 66.7477 64.4232 66.6914 64.2735C66.6351 64.1237 66.6401 63.9619 66.706 63.8167L69.4618 57.7331C69.5276 57.5879 69.6462 57.4773 69.7955 57.4211C69.8643 57.3949 69.9357 57.3824 70.0066 57.3824C70.09 57.3824 70.1734 57.4005 70.2518 57.4356L85.1938 64.2051C85.238 64.2247 85.2782 64.2489 85.3134 64.278C85.5325 64.4494 85.6054 64.7444 85.4913 64.9956Z" fill="#0A1640"/>
<path d="M76.0074 78.3012L65.7142 73.6378C65.1906 73.4016 64.5709 73.6338 64.3337 74.1574C64.2187 74.4112 64.2096 74.6946 64.3076 74.9554C64.4061 75.2162 64.5996 75.4233 64.8534 75.5383L75.146 80.2013C75.2837 80.2636 75.43 80.2947 75.5762 80.2947C75.7003 80.2947 75.8245 80.2726 75.9441 80.2274C76.2049 80.1294 76.4119 79.9354 76.5265 79.6816C76.6416 79.4279 76.6506 79.1445 76.5526 78.8836C76.4551 78.6233 76.2612 78.4163 76.0074 78.3012ZM76.1204 79.4982C76.0546 79.6435 75.936 79.7545 75.7873 79.8108C75.6375 79.8666 75.4757 79.8616 75.3305 79.7957L65.0373 75.1328C64.7373 74.9966 64.6041 74.6418 64.7398 74.3423C64.876 74.0428 65.2298 73.9087 65.5303 74.0448L75.8235 78.7083C75.9687 78.7741 76.0797 78.8927 76.136 79.0414C76.1918 79.1902 76.1868 79.3525 76.1204 79.4982Z" fill="#0A1640"/>
<path d="M74.6781 81.2366L64.3849 76.5737C64.1311 76.4581 63.8482 76.4495 63.5869 76.5475C63.3261 76.6455 63.119 76.8395 63.0039 77.0933C62.7668 77.6174 62.9999 78.2365 63.5241 78.4737L73.8168 83.1366C73.9539 83.1989 74.1002 83.2301 74.2469 83.2301C74.371 83.2301 74.4952 83.208 74.6148 83.1628C74.8756 83.0643 75.0826 82.8708 75.1977 82.6165C75.3123 82.3627 75.3218 82.0793 75.2238 81.8185C75.1258 81.5582 74.9319 81.3512 74.6781 81.2366ZM74.7916 82.4326C74.7258 82.5783 74.6072 82.6894 74.458 82.7452C74.3082 82.8009 74.1464 82.7959 74.0012 82.7301L63.708 78.0672C63.408 77.931 63.2743 77.5762 63.41 77.2767C63.4758 77.1315 63.5944 77.0209 63.7437 76.9646C63.8934 76.9084 64.0552 76.9139 64.2005 76.9792L74.4937 81.6426C74.7942 81.7788 74.9273 82.1331 74.7916 82.4326Z" fill="#0A1640"/>
<path d="M61.0028 89.4585C57.9872 88.6801 55.8545 87.3735 54.0876 85.2212C52.273 83.0111 51.1594 80.7221 50.0825 78.5085C48.491 75.2371 47.1161 72.4119 43.8798 70.633C39.2556 68.0922 34.248 69.5777 29.4056 71.0139C28.779 71.1998 28.1564 71.3847 27.5388 71.5596C20.4255 73.5722 17.5923 71.8139 16.0797 70.3164C12.0716 66.3479 11.0077 60.2976 10.069 54.9597C9.97605 54.4306 9.88408 53.9075 9.79061 53.3939C9.40417 51.2722 8.74737 49.1033 6.85537 49.1928L6.82422 48.4501C9.63433 48.3355 10.2529 51.7868 10.5218 53.2612C10.6158 53.7763 10.7077 54.3009 10.8012 54.8316C11.7208 60.0604 12.763 65.9866 16.6028 69.7887C19.4526 72.6104 23.8362 71.8355 27.3367 70.845C27.9508 70.6712 28.5709 70.4872 29.1941 70.3023C34.1831 68.8219 39.342 67.2917 44.2381 69.9827C47.6814 71.8752 49.1724 74.9401 50.7508 78.1844C51.8086 80.3593 52.9031 82.6076 54.662 84.7504C56.3228 86.773 58.3354 88.0032 61.1887 88.7399L61.0028 89.4585Z" fill="#0A1640"/>
<path d="M11.7326 55.246L10.0989 55.8661C9.49487 56.0952 8.81898 55.7912 8.58983 55.1872L6.71289 50.2403L10.5356 48.79L12.4125 53.7369C12.6417 54.3404 12.3376 55.0163 11.7326 55.246Z" fill="#00D4FC"/>
<path opacity="0.25" d="M10.7396 55.6222L10.0989 55.8654C9.49487 56.0946 8.81898 55.7906 8.58983 55.1865L6.71289 50.2397L10.3391 48.8638C9.78432 51.0839 9.93055 53.4815 10.7396 55.6222Z" fill="#3C1DA1"/>
<path d="M9.68325 56.1655C9.48878 56.1655 9.29479 56.1243 9.11238 56.0419C8.77317 55.8891 8.51338 55.6132 8.38172 55.266L6.50478 50.3191C6.48368 50.2639 6.48569 50.2025 6.50981 50.1483C6.53393 50.0945 6.57866 50.0523 6.63394 50.0312L10.4566 48.5809C10.5119 48.5598 10.5732 48.5618 10.6275 48.5864C10.6813 48.6106 10.7235 48.6553 10.7446 48.7106L12.6215 53.6574C12.7537 54.0051 12.7421 54.3841 12.5893 54.7233C12.4366 55.0625 12.1607 55.3223 11.8124 55.4544L10.1787 56.0745C10.0174 56.1348 9.85009 56.1655 9.68325 56.1655ZM7.00027 50.3699L8.7983 55.1077C8.88825 55.3439 9.06464 55.5313 9.2953 55.6353C9.52596 55.7394 9.78326 55.7474 10.0194 55.6569L11.6531 55.0368C11.8898 54.9469 12.0778 54.7705 12.1818 54.5398C12.2858 54.3092 12.2934 54.0519 12.2039 53.8157L10.4064 49.0779L7.00027 50.3699Z" fill="#0A1640"/>
<path d="M9.82607 44.7945L4.59278 46.7805C4.29177 46.8945 3.95558 46.7428 3.841 46.4417L1.80175 41.0678C1.68768 40.7667 1.83845 40.4301 2.13946 40.3155L7.37273 38.33C7.67375 38.2159 8.01095 38.3672 8.12552 38.6687L10.1648 44.0427C10.2788 44.3427 10.1271 44.6799 9.82607 44.7945Z" fill="#00D4FC"/>
<path opacity="0.25" d="M9.10688 45.0672L4.59271 46.7803C4.2917 46.8944 3.95551 46.7431 3.84144 46.4421L1.80168 41.0671C1.68761 40.7656 1.83888 40.4289 2.14039 40.3144L2.23537 40.2782C2.95397 40.0058 3.7555 40.3375 4.08264 41.0325C4.13289 41.139 4.18465 41.245 4.23842 41.3501C4.96206 42.7682 6.0636 44.0511 7.52343 44.6868C8.01992 44.9039 8.56164 45.0331 9.10688 45.0672Z" fill="#3C1DA1"/>
<path d="M4.38548 47.041C4.27291 47.041 4.16035 47.0169 4.05482 46.9692C3.85884 46.8807 3.70858 46.7209 3.6322 46.5199L1.59297 41.1459C1.51658 40.9444 1.52311 40.7258 1.61105 40.5293C1.69949 40.3328 1.85879 40.1826 2.0598 40.1062L7.29309 38.1202C7.4941 38.0438 7.7137 38.0504 7.91018 38.1393C8.10667 38.2277 8.25693 38.3871 8.33332 38.5886L10.3725 43.9626C10.4489 44.1641 10.4424 44.3827 10.354 44.5797C10.2655 44.7761 10.1057 44.9264 9.9047 45.0028L4.67092 46.9888C4.57846 47.0234 4.48196 47.041 4.38548 47.041ZM7.57953 38.5137C7.53631 38.5137 7.4931 38.5217 7.45189 38.5373L2.21861 40.5233C2.12865 40.557 2.05779 40.6243 2.0186 40.7122C1.9794 40.7997 1.97639 40.8977 2.01056 40.9881L4.04979 46.3621C4.08397 46.4521 4.15131 46.5234 4.23875 46.5631C4.32618 46.6023 4.42367 46.6058 4.51362 46.5716L9.74741 44.5857C9.83737 44.5515 9.90872 44.4847 9.94842 44.3967C9.98812 44.3088 9.99114 44.2108 9.95696 44.1208L7.91773 38.7469C7.88356 38.6569 7.81621 38.5856 7.72827 38.5459C7.68003 38.5247 7.62978 38.5137 7.57953 38.5137Z" fill="#0A1640"/>
<path d="M3.00935 41.9956L3.30533 42.775C3.35156 42.8967 3.48775 42.958 3.60936 42.9117L4.91944 42.4147C5.04105 42.3685 5.10236 42.2323 5.05613 42.1107L4.76015 41.3313C4.71391 41.2097 4.57772 41.1484 4.45611 41.1946L3.14604 41.6916C3.02443 41.7378 2.96362 41.8735 3.00935 41.9956Z" fill="#3C1DA1"/>
<path d="M3.52558 43.1504C3.46176 43.1504 3.39742 43.1368 3.33762 43.1097C3.22556 43.0594 3.14014 42.9685 3.09693 42.8539L2.80144 42.075C2.71148 41.8388 2.83108 41.5735 3.06727 41.4835L4.37734 40.986C4.61454 40.8971 4.87937 41.0162 4.96882 41.2524L5.26481 42.0318C5.30853 42.1463 5.30451 42.271 5.25426 42.383C5.20401 42.4946 5.11305 42.58 4.99847 42.6232L3.68889 43.1202C3.63562 43.1403 3.58035 43.1504 3.52558 43.1504ZM4.55173 41.4101L3.22556 41.9001L3.21803 41.9162L3.51401 42.6956L4.84018 42.2056L4.55173 41.4101Z" fill="#0A1640"/>
<path d="M6.08572 40.8282L6.38172 41.6076C6.42795 41.7292 6.56413 41.7905 6.68574 41.7443L7.99583 41.2473C8.11744 41.201 8.17874 41.0648 8.1325 40.9432L7.83652 40.1638C7.79029 40.0422 7.6546 39.9809 7.53249 40.0271L6.22241 40.5241C6.1008 40.5704 6.03949 40.706 6.08572 40.8282Z" fill="#3C1DA1"/>
<path d="M6.6025 41.9824C6.41707 41.9824 6.24269 41.8699 6.17284 41.6864L5.87686 40.907C5.83314 40.7924 5.83715 40.6678 5.88741 40.5558C5.93766 40.4442 6.02862 40.3588 6.14319 40.3156L7.45276 39.8185C7.56734 39.7753 7.69146 39.7788 7.80352 39.8291C7.91559 39.8794 8.00102 39.9703 8.04423 40.0849L8.34023 40.8643C8.42968 41.1005 8.31057 41.3658 8.07438 41.4558L6.76431 41.9533C6.71104 41.9729 6.65627 41.9824 6.6025 41.9824ZM7.62765 40.2427L6.30149 40.7326L6.29445 40.7487L6.59043 41.5281L7.91659 41.0382L7.62765 40.2427Z" fill="#0A1640"/>
<path d="M10.7092 51.5306L8.39961 52.407C8.1589 52.4985 7.89005 52.4814 7.66341 52.3593L4.41962 50.623C4.23017 50.522 4.08393 50.3552 4.00705 50.1532L2.52611 46.2496C2.35123 45.7888 2.5829 45.2747 3.04221 45.1003L9.871 42.5093C10.3308 42.3349 10.8459 42.5661 11.0208 43.0264L12.5017 46.93C12.5781 47.132 12.5796 47.3541 12.5047 47.5551L11.2424 50.9698L11.2293 51.006C11.1399 51.2487 10.9499 51.4396 10.7092 51.5306Z" fill="#3C1DA1"/>
<path d="M11.4921 44.2696L2.99798 47.4928L2.52611 46.2496C2.35123 45.7888 2.5829 45.2747 3.04221 45.1003L9.871 42.5093C10.3308 42.3349 10.8459 42.5661 11.0208 43.0264L11.4921 44.2696Z" fill="#D811AD"/>
<path opacity="0.5" d="M11.5106 46.2878C11.4915 46.5878 11.4287 46.8707 11.3568 47.1496C11.282 47.4275 11.1905 47.6989 11.0855 47.9642C10.9804 48.23 10.8609 48.4899 10.7257 48.7436C10.5875 48.9964 10.4392 49.2447 10.2473 49.4753C10.1664 49.5723 10.0226 49.5859 9.92515 49.505C9.86686 49.4562 9.83872 49.3839 9.84324 49.313C9.86385 49.0135 9.92816 48.7311 10.0025 48.4532C10.0794 48.1763 10.1729 47.9054 10.2804 47.6411C10.388 47.3763 10.5096 47.117 10.6468 46.8642C10.787 46.6124 10.9372 46.3647 11.1307 46.1345C11.2071 46.0436 11.3433 46.0315 11.4342 46.1079C11.488 46.1546 11.5141 46.222 11.5106 46.2878Z" fill="white"/>
<path opacity="0.25" d="M10.7137 51.5293L8.39959 52.4072C8.15889 52.4987 7.89004 52.4816 7.6634 52.3595L4.41961 50.6233C4.23016 50.5222 4.08392 50.3554 4.00703 50.1534L2.5261 46.2498C2.35122 45.7895 2.58288 45.2749 3.04319 45.1L3.23919 45.0256C4.4171 44.5789 5.7307 45.0915 6.32116 46.2041C6.81967 47.1438 7.47796 48.0081 8.23476 48.7493C9.13076 49.6262 10.1514 50.3519 11.2424 50.9705L11.2293 51.0067C11.1419 51.2474 10.9534 51.4384 10.7137 51.5293Z" fill="#0A1640"/>
<path d="M12.7104 46.8512L11.7008 44.1909V44.1904L11.229 42.9471C11.0114 42.3727 10.3672 42.0828 9.79177 42.3004L2.96347 44.8914C2.38959 45.1095 2.09963 45.7537 2.31772 46.3286L2.7891 47.5713V47.5718L3.79817 50.2322C3.89415 50.4845 4.07706 50.693 4.31425 50.8196L7.55704 52.5554C7.72036 52.6433 7.90128 52.688 8.08269 52.688C8.21636 52.688 8.35002 52.6639 8.47817 52.6152L10.7878 51.7388C11.0893 51.6242 11.3265 51.3855 11.4385 51.082L12.7134 47.6327C12.8074 47.3819 12.8064 47.104 12.7104 46.8512ZM3.12177 45.309L9.95007 42.718C10.028 42.6883 10.1079 42.6742 10.1863 42.6742C10.4561 42.6742 10.7109 42.8386 10.8119 43.1054L11.2044 44.1396L3.12729 47.2045L2.73483 46.1703C2.60417 45.8261 2.77804 45.4396 3.12177 45.309ZM12.2958 47.4779L11.0335 50.8935L11.0209 50.9287C10.9541 51.1101 10.8119 51.2533 10.631 51.3217L8.32137 52.1981C8.13996 52.2664 7.93896 52.2539 7.76961 52.1619L4.52582 50.4257C4.38411 50.3503 4.27455 50.2252 4.21676 50.0734L3.2866 47.6216L11.3642 44.5567L12.2943 47.009C12.3511 47.1613 12.3516 47.3271 12.2958 47.4779Z" fill="#0A1640"/>
<path d="M58.7567 87.7747L58.3356 89.1129C58.1798 89.6079 58.4547 90.135 58.9497 90.2908L63.0015 91.5662L63.987 88.435L59.9346 87.1596C59.4406 87.0043 58.913 87.2792 58.7567 87.7747Z" fill="#D811AD"/>
<path opacity="0.25" d="M58.5009 88.5884L58.3356 89.1135C58.1798 89.6085 58.4547 90.1357 58.9497 90.2914L63.0015 91.5668L63.9362 88.5964C62.1829 89.1437 60.2542 89.1376 58.5009 88.5884Z" fill="#0A1640"/>
<path d="M63.0022 91.7892C62.9801 91.7892 62.9575 91.7857 62.9354 91.7786L58.8835 90.5032C58.5871 90.4102 58.3453 90.2072 58.2016 89.9318C58.0579 89.6564 58.0303 89.3419 58.1237 89.0454L58.5449 87.7072C58.6378 87.4107 58.8413 87.1685 59.1167 87.0242C59.3926 86.881 59.7067 86.8529 60.0032 86.9463L64.0555 88.2212C64.1118 88.2388 64.159 88.2785 64.1862 88.3308C64.2133 88.3836 64.2188 88.4444 64.2013 88.5012L63.2158 91.6324C63.1846 91.7284 63.0972 91.7892 63.0022 91.7892ZM59.6524 87.3393C59.5388 87.3393 59.4258 87.3665 59.3223 87.4207C59.1524 87.5092 59.0273 87.6584 58.97 87.8413L58.5489 89.1801C58.4916 89.3625 58.5082 89.5564 58.5966 89.7263C58.6851 89.8962 58.8343 90.0213 59.0172 90.0786L62.8565 91.2866L63.7078 88.5811L59.8685 87.373C59.7976 87.3504 59.7248 87.3393 59.6524 87.3393Z" fill="#0A1640"/>
<path d="M66.4918 89.5095L65.6707 92.1191C65.5596 92.4714 65.7561 92.8483 66.1084 92.9589L70.5321 94.3513C70.8844 94.4624 71.2613 94.2659 71.3718 93.9136L72.1929 91.304C72.304 90.9518 72.1075 90.5749 71.7552 90.4643L67.3315 89.0723C66.9793 88.9608 66.6029 89.1568 66.4918 89.5095Z" fill="#00D4FC"/>
<path opacity="0.25" d="M66.4918 89.5095L65.6707 92.1191C65.5596 92.4714 65.7561 92.8483 66.1084 92.9589L70.5321 94.3513C70.8844 94.4624 71.2613 94.2659 71.3718 93.9136L71.6407 93.0599C71.2311 92.881 70.8371 92.6674 70.4628 92.4217C69.2416 91.6186 68.2532 90.4744 67.6124 89.1608L67.331 89.0723C66.9793 88.9608 66.6029 89.1568 66.4918 89.5095Z" fill="#3C1DA1"/>
<path d="M70.7338 94.6057C70.6438 94.6057 70.5534 94.5922 70.4649 94.564L66.0407 93.172C65.5713 93.0243 65.3095 92.5217 65.4573 92.0524L66.2789 89.4423C66.3502 89.2151 66.506 89.0292 66.7181 88.9192C66.9296 88.8086 67.1709 88.7875 67.3985 88.8589L71.8227 90.2514C72.2921 90.3991 72.5539 90.9011 72.4061 91.371L71.5845 93.9806C71.5132 94.2077 71.3574 94.3936 71.1453 94.5042C71.0162 94.5715 70.8755 94.6057 70.7338 94.6057ZM67.1302 89.2634C67.0593 89.2634 66.9889 89.2805 66.9241 89.3146C66.8181 89.3699 66.7402 89.4629 66.7045 89.5765L65.8829 92.1861C65.809 92.4208 65.9402 92.6725 66.1749 92.7464L70.5991 94.1384C70.7127 94.174 70.8338 94.1635 70.9393 94.1082C71.0453 94.0529 71.1232 93.96 71.1589 93.8464L71.9805 91.2363C72.0162 91.1227 72.0056 91.0016 71.9504 90.8961C71.8951 90.7901 71.8021 90.7122 71.6886 90.6765L67.2643 89.284C67.2201 89.2704 67.1754 89.2634 67.1302 89.2634Z" fill="#0A1640"/>
<path d="M61.782 88.4218L61.1865 90.3138C61.1242 90.5108 61.1503 90.7254 61.2589 90.9018L62.8011 93.4214C62.8906 93.5687 63.0313 93.6782 63.1966 93.7305L66.3942 94.7371C66.7716 94.8556 67.1731 94.6466 67.2917 94.2702L69.052 88.6766C69.1706 88.3002 68.9616 87.8977 68.5842 87.7791L65.3866 86.7726C65.2213 86.7203 65.0429 86.7298 64.8856 86.7992L62.2071 87.9691L62.1785 87.9816C61.9885 88.0635 61.8443 88.2248 61.782 88.4218Z" fill="#3C1DA1"/>
<path d="M67.566 87.458L65.376 94.4165L66.3941 94.7371C66.7715 94.8557 67.173 94.6466 67.2916 94.2702L69.0519 88.6766C69.1705 88.3002 68.9615 87.8977 68.5841 87.7791L67.566 87.458Z" fill="#D811AD"/>
<path opacity="0.5" d="M66.1048 87.8712C65.9369 88.0536 65.7495 88.1938 65.557 88.3244C65.3635 88.4526 65.163 88.5646 64.9555 88.6631C64.7485 88.7621 64.5349 88.8466 64.3138 88.9154C64.0917 88.9817 63.8645 89.0385 63.6178 89.0521C63.4886 89.0596 63.3776 88.9606 63.3705 88.8315C63.3665 88.7651 63.3911 88.7033 63.4329 88.6581C63.6012 88.4772 63.7896 88.3385 63.9831 88.2104C64.1776 88.0842 64.3791 87.9742 64.5871 87.8777C64.7952 87.7812 65.0103 87.6988 65.2324 87.6314C65.4555 87.5671 65.6832 87.5124 65.9309 87.4998C66.053 87.4938 66.1565 87.5872 66.1631 87.7093C66.1661 87.7716 66.143 87.8289 66.1048 87.8712Z" fill="white"/>
<path opacity="0.25" d="M61.782 88.422L61.1865 90.314C61.1242 90.511 61.1503 90.7256 61.2589 90.902L62.8011 93.4216C62.8906 93.5689 63.0313 93.6784 63.1966 93.7307L66.3942 94.7372C66.7716 94.8558 67.1731 94.6468 67.2917 94.2704L67.9339 92.2291C66.5283 91.9729 65.1916 91.2462 64.1263 90.2768C63.382 89.5989 62.7529 88.8145 62.2066 87.9688L62.178 87.9813C61.9885 88.0637 61.8443 88.225 61.782 88.422Z" fill="#0A1640"/>
<path d="M68.6517 87.5657L67.6336 87.2451L65.4541 86.5592C65.2375 86.4908 65.0038 86.5034 64.7968 86.5938L62.1189 87.7637L62.0897 87.7763C61.841 87.8848 61.6515 88.0959 61.5696 88.3552L60.9741 90.2472C60.8922 90.507 60.9274 90.7884 61.0691 91.0186L62.6108 93.5377C62.7289 93.7312 62.9133 93.8749 63.1299 93.9432L65.3094 94.6292L66.3285 94.9498C66.422 94.9795 66.5164 94.993 66.6094 94.993C67.0084 94.993 67.3793 94.7367 67.5054 94.3367L69.2657 88.7426C69.4205 88.2491 69.1452 87.721 68.6517 87.5657ZM62.9917 93.305L61.4495 90.7849C61.3751 90.6648 61.357 90.517 61.3997 90.3814L61.9952 88.4893C62.0385 88.3532 62.138 88.2426 62.2676 88.1858L64.9762 87.0029C65.0843 86.9552 65.2064 86.9491 65.3204 86.9848L67.2873 87.6039L65.2315 94.1367L63.2646 93.5176C63.15 93.4819 63.0536 93.4065 62.9917 93.305ZM68.8401 88.609L67.0798 94.2026C66.9984 94.4614 66.7205 94.6061 66.4622 94.5242L65.6566 94.2704L67.7124 87.7376L68.518 87.9908C68.7768 88.0728 68.921 88.3502 68.8401 88.609Z" fill="#0A1640"/>
<path d="M14.5821 80.5291L12.3679 80.2547C12.2267 80.2371 12.1031 80.1512 12.0373 80.025L11.0081 78.0451C10.8428 77.727 10.384 77.7365 10.2322 78.0612L9.28696 80.0823C9.22666 80.2115 9.10656 80.3024 8.96635 80.326L6.7653 80.6929C6.41152 80.7517 6.27885 81.1909 6.54116 81.4356L8.17136 82.9593C8.27538 83.0563 8.32513 83.1985 8.30352 83.3397L7.97236 85.5463C7.9191 85.901 8.29549 86.1628 8.60957 85.989L10.5624 84.9096C10.687 84.8407 10.8377 84.8377 10.9649 84.901L12.9614 85.8975C13.282 86.0578 13.6479 85.7804 13.5795 85.4282L13.1564 83.2372C13.1293 83.0975 13.173 82.9532 13.273 82.8517L14.8378 81.2612C15.0891 81.0065 14.9383 80.5733 14.5821 80.5291Z" fill="#E38921"/>
<path d="M6.72361 4.27589C6.78793 4.38293 6.79597 4.51458 6.74421 4.62815L5.93716 6.40961C5.80751 6.69605 6.06229 7.0066 6.36832 6.93575L8.27289 6.49251C8.39451 6.46437 8.52214 6.49754 8.61461 6.58197L10.0594 7.89959C10.2915 8.11165 10.6659 7.96491 10.693 7.65184L10.8604 5.70356C10.8709 5.57944 10.9423 5.46788 11.0508 5.40657L12.7509 4.43971C13.0242 4.28443 13.0006 3.88292 12.7112 3.76081L10.9096 2.99948C10.7945 2.95073 10.7111 2.84872 10.686 2.72661L10.2915 0.810979C10.2282 0.502932 9.83926 0.401432 9.63323 0.639126L8.35279 2.11705C8.27088 2.21153 8.14827 2.25976 8.02415 2.24569L6.08038 2.0286C5.76781 1.99392 5.55122 2.33213 5.71353 2.60148L6.72361 4.27589Z" fill="#E38921"/>
<path d="M99.8496 31.6469L98.4189 30.7122C98.3274 30.6524 98.2716 30.5519 98.2686 30.4428L98.2279 28.7342C98.2214 28.4599 97.9028 28.3116 97.6887 28.484L96.3575 29.5554C96.2726 29.6237 96.1595 29.6458 96.055 29.6147L94.4173 29.1257C94.154 29.0473 93.9152 29.3046 94.0127 29.5614L94.6203 31.1584C94.659 31.2604 94.6454 31.375 94.5831 31.4645L93.6122 32.8705C93.4559 33.0967 93.6268 33.4037 93.9012 33.3901L95.6083 33.3057C95.7173 33.3002 95.8218 33.3489 95.8882 33.4354L96.9254 34.7937C97.0922 35.0118 97.4369 34.9444 97.5088 34.6791L97.956 33.0298C97.9847 32.9248 98.0631 32.8399 98.1661 32.8037L99.7782 32.2368C100.038 32.1459 100.08 31.7971 99.8496 31.6469Z" fill="#E38921"/>
<path d="M7.78629 29.3637L7.0124 27.2712C6.96315 27.1375 6.98275 26.9882 7.06466 26.8717L8.35011 25.048C8.55665 24.755 8.33755 24.352 7.97925 24.3666L5.75006 24.456C5.60785 24.4616 5.47167 24.3972 5.38624 24.2832L4.04902 22.4972C3.83394 22.2103 3.38317 22.2942 3.28618 22.6394L2.68215 24.7872C2.64346 24.9244 2.53994 25.0334 2.40526 25.0797L0.293153 25.7998C-0.0460505 25.9154 -0.105857 26.3701 0.192642 26.5691L2.04897 27.8074C2.16756 27.8863 2.23942 28.0184 2.24143 28.1611L2.2736 30.3923C2.27863 30.7512 2.69321 30.9481 2.97462 30.7255L4.72591 29.3431C4.83797 29.2546 4.98572 29.227 5.12191 29.2692L7.2536 29.928C7.59532 30.033 7.91092 29.6999 7.78629 29.3637Z" fill="#E38921"/>
<path d="M94.5433 77.0111L92.6423 76.5533C92.5207 76.5241 92.4217 76.4367 92.3769 76.3206L91.6764 74.495C91.5639 74.2015 91.1639 74.1643 90.999 74.4326L89.9759 76.0995C89.9106 76.206 89.797 76.2734 89.6724 76.2799L87.7196 76.3819C87.4055 76.3985 87.2467 76.7679 87.4507 77.0066L88.7196 78.4945C88.8005 78.5895 88.8296 78.7182 88.7975 78.8388L88.2909 80.7277C88.2095 81.0313 88.5115 81.2966 88.802 81.1765L90.6091 80.4292C90.7246 80.3815 90.8558 80.3936 90.9603 80.4619L92.6001 81.5273C92.8639 81.6986 93.2091 81.4931 93.185 81.18L93.0332 79.2302C93.0237 79.1056 93.0759 78.9845 93.1729 78.9061L94.6931 77.6754C94.9373 77.4769 94.8489 77.085 94.5433 77.0111Z" fill="#E38921"/>
<path d="M41.6819 83.4089L40.1185 82.7189C40.0185 82.6747 39.9472 82.5847 39.9266 82.4772L39.6085 80.7983C39.5572 80.5284 39.219 80.4344 39.0356 80.639L37.8964 81.9129C37.8235 81.9943 37.7155 82.0345 37.6074 82.0209L35.9124 81.8048C35.64 81.7701 35.4456 82.0626 35.5838 82.3003L36.4431 83.7772C36.4979 83.8717 36.5029 83.9868 36.4561 84.0853L35.7265 85.6305C35.6094 85.8788 35.8275 86.1542 36.0963 86.0959L37.7667 85.7351C37.8732 85.712 37.9843 85.7431 38.0637 85.8175L39.308 86.9889C39.508 87.1773 39.8371 87.0542 39.8648 86.7808L40.0376 85.0808C40.0487 84.9722 40.1125 84.8762 40.208 84.8235L41.7065 84.0019C41.9482 83.8707 41.9331 83.5199 41.6819 83.4089Z" fill="#E38921"/>
</svg>
