<svg width="136" height="150" viewBox="0 0 136 150" fill="none" xmlns="http://www.w3.org/2000/svg">
<path d="M78.5113 150C75.9349 150 73.3141 149.743 70.7216 149.236C69.572 149.011 68.4183 148.733 67.2938 148.41C67.029 148.339 66.7202 148.243 66.4117 148.147C57.5676 145.407 50.5946 139.977 47.2187 133.333C45.8052 133.269 44.4065 133.167 43.0372 133.027C38.766 132.592 33.4187 131.547 29.9535 127.283C26.3321 122.827 26.1833 115.895 29.5914 110.428C31.3463 107.612 31.6375 107.084 31.6375 107.084C30.8664 107.984 29.7569 108.47 28.6231 108.47C28.1011 108.47 27.5731 108.367 27.0707 108.154C25.4784 107.476 24.5084 105.844 24.6742 104.122L25.4087 96.4869L19.1541 94.8193C17.4484 94.3641 16.2481 92.8377 16.2092 91.0726C16.1702 89.308 17.3011 87.7295 18.9848 87.1998L20.6822 86.8066L20.9389 84.8874C16.077 86.4858 11.7859 88.0474 5.99628 90.1518C5.56767 90.3076 5.11825 90.3797 4.67059 90.3797C4.07733 90.3797 3.48583 90.2467 2.94149 89.983C1.98671 89.5204 1.25663 88.6957 0.914442 87.6914C-1.14747 81.6407 0.880166 74.603 5.84569 70.5768C7.64306 69.1192 9.78788 68.0962 12.0921 67.5721C11.4549 55.6887 14.7306 43.9184 21.4929 34.0362C29.091 22.9327 40.4705 15.1562 53.5357 12.1389C57.4855 11.2266 61.5279 10.764 65.5495 10.764C73.3085 10.764 80.9438 12.4784 87.937 15.7143L96.6862 12.9601L98.2035 3.34951C98.4763 1.6207 99.8494 0.275098 101.583 0.0366211C101.765 0.0123047 101.946 0 102.125 0C103.659 0 105.078 0.890918 105.731 2.31533L109.212 9.90908L118.462 9.09756C118.579 9.0873 118.695 9.08232 118.81 9.08232C120.36 9.08232 121.783 9.98965 122.428 11.4234C123.12 12.9636 122.762 14.7732 121.536 15.9337L115.655 21.496L118.286 28.3055C118.754 29.5169 118.593 30.8546 117.907 31.9052C125.545 33.6105 132.262 38.8163 135.522 45.9129C135.988 46.9257 136.005 48.0873 135.572 49.1139C135.138 50.1404 134.293 50.9373 133.242 51.3097C124.383 54.4497 115.678 57.2417 107.223 59.927L107.359 71.5072C107.37 72.4105 107.072 73.2902 106.515 74.0013L99.2444 83.2799L101.82 88.899L111.07 88.0878C111.187 88.0775 111.303 88.0723 111.419 88.0723C112.969 88.0723 114.392 88.9799 115.036 90.4131C115.729 91.9535 115.371 93.7635 114.144 94.9233L108.263 100.486L110.895 107.296C111.498 108.859 111.055 110.633 109.787 111.728C109.049 112.366 108.124 112.694 107.192 112.694C106.523 112.694 105.85 112.525 105.241 112.18L98.3664 108.295L95.2094 111.978C102.349 117.507 106.245 125.272 104.753 132.908C102.786 142.971 91.9955 150 78.5113 150Z" fill="white"/>
<path d="M61.5145 82.335C61.9686 90.256 57.6851 98.2678 50.8457 102.289C47.8554 104.048 43.8118 104.977 41.0743 102.846C39.047 101.268 38.4107 98.1403 39.7006 95.9182C40.9903 93.696 44.0641 92.7025 46.3917 93.7897C48.7194 94.8772 49.9267 97.9156 48.9388 100.287C47.9462 102.671 45.3523 103.876 43.0402 105.025C39.2881 106.888 35.6078 109.265 33.3918 112.82C31.1758 116.375 30.7938 121.343 33.4358 124.594C35.7997 127.502 39.8342 128.363 43.5628 128.742C50.953 129.495 58.46 129.09 65.7262 127.547" stroke="#2C1845" stroke-width="2.8236" stroke-miterlimit="10"/>
<path d="M100.94 132.222C98.971 142.297 85.8182 148.203 71.5655 145.416C70.5067 145.209 69.4808 144.961 68.4718 144.671C68.1987 144.597 67.9342 144.514 67.6693 144.431C56.0801 140.841 48.2628 132.073 49.1563 123.337C49.1812 123.064 49.2143 122.791 49.2639 122.518C49.2806 122.386 49.3052 122.262 49.3301 122.13C51.0176 113.502 60.9026 107.935 72.6574 108.265C72.9305 108.274 73.2117 108.282 73.493 108.299C75.1969 108.381 76.9424 108.597 78.7046 108.935C92.9572 111.723 102.908 122.146 100.94 132.222Z" fill="#A278FF"/>
<path d="M68.4714 144.671C68.1983 144.597 67.9338 144.514 67.6689 144.431C70.2169 138.583 71.9126 132.395 72.7232 126.092C72.7646 125.819 72.7977 125.546 72.8226 125.273C73.4844 119.631 73.4349 113.907 72.6573 108.266C72.9304 108.274 73.2116 108.282 73.4929 108.299C75.1719 120.616 73.4015 133.289 68.4714 144.671Z" fill="#2C1845"/>
<path d="M72.9635 125.29L72.8724 126.109L72.7235 126.092L49.1562 123.337C49.1812 123.064 49.2143 122.791 49.2638 122.519L72.8229 125.273L72.9635 125.29Z" fill="#2C1845"/>
<path d="M84.1126 129.498C84.1126 129.498 78.199 132.244 79.4661 134.989C80.7332 137.735 94.6726 129.498 94.6726 129.498C94.6726 129.498 82.0005 118.938 79.8882 121.05C77.7762 123.162 84.1126 129.498 84.1126 129.498Z" fill="#FF92DF"/>
<path d="M61.6674 46.3077C75.6262 42.9025 81.7762 57.9095 82.6434 60.1329L114.032 52.8833C107.408 26.4057 80.9586 9.97134 54.5111 16.0794C28.0636 22.1875 11.4995 48.5562 17.157 75.2571L49.1454 67.8693C49.354 64.6214 47.7086 49.7128 61.6674 46.3077Z" fill="#FF85AF"/>
<path d="M55.8949 22.0715C32.7231 27.4231 18.2082 50.5006 23.1087 73.8827L50.7644 67.4954C44.2209 59.8726 53.7644 49.2434 61.6675 47.4182C69.5703 45.593 83.4995 50.0901 80.4251 60.6452L108.081 54.2579C102.231 31.0952 79.0663 16.7198 55.8949 22.0715Z" fill="#FFAD9F"/>
<path d="M57.4415 28.7683C37.9303 33.2744 25.6936 52.6652 29.7225 72.3547L50.7641 67.495C45.6026 59.8722 53.7641 49.243 61.6673 47.4178C69.5701 45.5926 82.8533 51.6928 80.4249 60.6448L101.457 55.787C96.4441 36.3251 76.9526 24.2621 57.4415 28.7683Z" fill="#F4C46C"/>
<path d="M59.253 36.6132C44.038 40.1271 34.462 55.2 37.5089 70.5565L50.7639 67.4953C46.2007 59.8726 53.7639 49.2434 61.6671 47.4182C69.5699 45.593 82.3316 52.5618 80.4247 60.6451L93.6798 57.5839C89.684 42.4465 74.4683 33.0993 59.253 36.6132Z" fill="#36DAD9"/>
<path d="M60.9042 43.7623C49.6003 46.3729 42.4627 57.5128 44.5975 68.9195L50.7642 67.4954C49.4248 59.5319 54.4416 51.8236 62.3444 49.9984C70.2472 48.1732 78.1363 52.9009 80.4247 60.6452L86.5911 59.2211C83.5079 48.0332 72.2081 41.1516 60.9042 43.7623Z" fill="#A278FF"/>
<path d="M61.6678 67.7079C57.9445 59.6023 48.6568 54.442 39.8077 55.5626C30.9585 56.6832 23.25 63.9954 21.6647 72.7733C17.617 70.3657 12.0861 70.7668 8.42808 73.7328C4.77007 76.6988 3.23462 82.0276 4.75367 86.4854C24.1435 79.613 42.2777 74.5809 61.6678 67.7079Z" fill="#FFE6DE"/>
<path d="M131.999 47.6434C128.276 39.5379 118.988 34.3775 110.139 35.4981C101.29 36.6187 93.581 43.9309 91.9958 52.7088C87.9481 50.3012 82.4171 50.7023 78.7591 53.6683C75.1011 56.6343 73.5657 61.9631 75.0847 66.421C94.4746 59.5485 112.609 54.5162 131.999 47.6434Z" fill="#FFE6DE"/>
<path d="M67.7095 54.4498L50.5315 42.3408L33.917 65.1511L35.0435 80.0761L73.9049 109.363L103.473 71.6277L103.262 53.6052L81.7192 37.5537L67.7095 54.4498Z" fill="#FF92DF"/>
<path d="M54.749 72.1043C54.7352 72.5622 54.6731 73.0453 54.5609 73.5559C54.4493 74.0648 54.2773 74.5415 54.0429 74.9859C53.8094 75.4304 53.5065 75.8124 53.1365 76.1329C52.765 76.4537 52.3141 76.6588 51.7827 76.7475C51.3892 76.8146 51.0218 76.7953 50.6808 76.691C50.3392 76.5861 50.0184 76.4229 49.7172 76.2006C49.4167 75.9785 49.1445 75.7101 48.899 75.3975C48.6541 75.0849 48.4384 74.7536 48.2544 74.4055C48.0687 74.0575 47.9167 73.7059 47.7957 73.352C47.6753 72.9981 47.5888 72.6639 47.5355 72.3486C47.4611 71.9059 47.4233 71.4237 47.421 70.9034C47.4192 70.3825 47.4605 69.8596 47.5437 69.3337C47.6278 68.8093 47.7585 68.2966 47.9372 67.7956C48.1156 67.2946 48.3508 66.8408 48.6409 66.4327C48.9318 66.0246 49.2775 65.6783 49.6797 65.3924C50.082 65.1073 50.554 64.9189 51.0951 64.8278C51.4393 64.7695 51.7704 64.7827 52.0879 64.865C52.4055 64.9482 52.6906 65.0824 52.9452 65.2673C53.1989 65.4524 53.4122 65.6874 53.5874 65.971C53.7611 66.2555 53.8774 66.5648 53.9331 66.8991L53.9556 67.0315C53.9855 67.2094 54.0154 67.4291 54.0438 67.6925C54.0728 67.9558 54.0687 68.2119 54.0292 68.4615C53.9905 68.7111 53.9064 68.9349 53.7787 69.1336C53.6503 69.3322 53.4435 69.4558 53.1582 69.5036C52.8133 69.5619 52.5394 69.527 52.3358 69.3993C52.1322 69.2716 51.9998 69.0261 51.9382 68.6616C51.9157 68.5242 51.8963 68.3862 51.8832 68.2465C51.8694 68.1067 51.8518 67.9684 51.8284 67.8305C51.7935 67.6236 51.7323 67.4701 51.6441 67.3684C51.5562 67.2674 51.4033 67.2351 51.1877 67.2715C50.9413 67.3128 50.733 67.4291 50.5633 67.6189C50.3928 67.8097 50.2554 68.0455 50.1514 68.3259C50.0462 68.6071 49.968 68.9188 49.9147 69.2613C49.8605 69.6047 49.8274 69.9463 49.8136 70.2882C49.8007 70.6292 49.8048 70.9547 49.8265 71.2649C49.8491 71.5743 49.8781 71.8377 49.9147 72.0542C49.9446 72.2311 49.9882 72.4339 50.048 72.6615C50.1063 72.8894 50.1854 73.1042 50.2847 73.3046C50.384 73.5058 50.5109 73.669 50.6635 73.795C50.8162 73.921 50.9955 73.9664 51.2023 73.9315C51.5562 73.8718 51.8234 73.7127 52.0021 73.4557C52.1814 73.1979 52.2816 72.8894 52.3018 72.5323C52.1612 72.5355 52.0206 72.5259 51.8802 72.5048C51.7396 72.4822 51.6057 72.44 51.4789 72.3756C51.3511 72.3102 51.243 72.2229 51.1543 72.1107C51.0646 72 51.0057 71.8611 50.9773 71.693C50.9263 71.3883 50.9887 71.1322 51.1663 70.9248C51.3441 70.718 51.5653 70.5469 51.831 70.4109C52.0959 70.2753 52.3748 70.1692 52.6654 70.0951C52.9569 70.0216 53.1904 69.9691 53.3673 69.9392C53.496 69.9176 53.684 69.8956 53.9337 69.8745C54.1824 69.8528 54.4337 69.8528 54.6848 69.8768C54.9368 69.8994 55.1615 69.9559 55.3587 70.0441C55.5558 70.1314 55.6698 70.2694 55.7011 70.4569C55.7641 70.8302 55.7181 71.1694 55.5623 71.4741C55.4049 71.7788 55.1342 71.9894 54.749 72.1043Z" fill="#2C1845"/>
<path d="M63.6852 71.9944C63.7192 72.1916 63.7408 72.4298 63.7532 72.7119C63.7652 72.9932 63.7435 73.2677 63.6869 73.5352C63.6313 73.8026 63.5334 74.0367 63.396 74.2362C63.2572 74.4366 63.0503 74.5609 62.7749 74.6071C62.4105 74.6687 62.1157 74.5814 61.8887 74.3461C61.6616 74.1111 61.4782 73.8161 61.3376 73.4599C61.1961 73.1045 61.0863 72.7359 61.0072 72.3557C60.9272 71.9736 60.8633 71.6716 60.8156 71.446C60.1265 71.6842 59.4453 71.9048 58.7718 72.1093C58.7903 72.3396 58.7961 72.627 58.7879 72.9721C58.7806 73.3178 58.7364 73.6565 58.6564 73.9893C58.5755 74.3212 58.4487 74.6186 58.2752 74.8802C58.1015 75.1418 57.8624 75.2985 57.5577 75.3495C57.321 75.39 57.1224 75.3349 56.9607 75.1846C56.7984 75.0352 56.6627 74.8477 56.5552 74.6233C56.4462 74.3988 56.363 74.1627 56.3065 73.914C56.249 73.6652 56.2063 73.4575 56.1779 73.2902C56.0832 72.7295 56.0349 72.1691 56.0308 71.6083C56.0276 71.047 56.0396 70.4862 56.0662 69.9249C56.0768 69.6293 56.0993 69.2818 56.1333 68.8811C56.1673 68.4812 56.2206 68.0651 56.2948 67.6321C56.3683 67.2 56.4676 66.7685 56.5921 66.3372C56.7166 65.9066 56.8757 65.5131 57.0688 65.1568C57.2618 64.8006 57.4986 64.4977 57.7804 64.2472C58.0622 63.9976 58.395 63.84 58.778 63.7755C59.1521 63.7125 59.4913 63.7415 59.7951 63.8628C60.0981 63.9832 60.3767 64.1643 60.6304 64.4048C60.8832 64.6456 61.1079 64.9283 61.3042 65.2547C61.5014 65.5811 61.6766 65.9153 61.8301 66.2587C61.9845 66.6021 62.1225 66.9404 62.2447 67.2741C62.3665 67.6078 62.474 67.9034 62.5687 68.1604C62.8045 68.7791 63.021 69.4075 63.2197 70.0465C63.4195 70.6866 63.5744 71.3353 63.6852 71.9944ZM60.2325 68.8884C60.2123 68.7703 60.1728 68.5773 60.1121 68.3092C60.0515 68.0408 59.9739 67.776 59.8795 67.5135C59.7843 67.2519 59.6677 67.0231 59.5288 66.8294C59.39 66.6355 59.2315 66.5531 59.0548 66.583C58.9564 66.5991 58.8738 66.6815 58.8084 66.8294C58.7413 66.9774 58.6912 67.1575 58.6567 67.3708C58.6218 67.585 58.5978 67.8191 58.5849 68.0736C58.5729 68.3288 58.5656 68.5729 58.5647 68.8055C58.5638 69.039 58.5679 69.2473 58.5793 69.4333C58.5899 69.6191 58.5972 69.7515 58.601 69.8315C59.1825 69.6829 59.7512 69.5115 60.3046 69.3167L60.2325 68.8884Z" fill="#2C1845"/>
<path d="M74.837 70.7066C74.8508 70.9682 74.8499 71.226 74.8379 71.4803C74.825 71.7355 74.796 71.9658 74.7492 72.1711C74.7032 72.3762 74.6279 72.5452 74.5244 72.6791C74.4201 72.8124 74.2895 72.8933 74.1319 72.92C73.9743 72.9466 73.8119 72.8505 73.6432 72.6308C73.4744 72.4111 73.2998 72.1122 73.1197 71.7326C72.9395 71.3529 72.7602 70.9199 72.5824 70.4344C72.4039 69.9481 72.2349 69.453 72.0735 68.9488C71.9126 68.4446 71.7664 67.9512 71.634 67.4672C71.5025 66.9841 71.3909 66.5625 71.2997 66.2031C71.3038 66.5877 71.3053 67.0172 71.3044 67.4933C71.3035 67.9694 71.2892 68.4539 71.2617 68.9499C71.2341 69.4451 71.1946 69.9323 71.1436 70.4113C71.0926 70.8903 71.0249 71.3215 70.9368 71.7062C70.8503 72.09 70.7405 72.404 70.6095 72.649C70.4794 72.8939 70.3203 73.0319 70.1337 73.0635C69.9664 73.0919 69.7798 73.0061 69.5747 72.8083C69.3688 72.6106 69.157 72.3408 68.9372 71.9974C68.7175 71.6549 68.501 71.2697 68.2869 70.8399C68.0727 70.411 67.8676 69.9771 67.6728 69.5394C67.4774 69.1023 67.3013 68.6871 67.1437 68.2937C66.9861 67.9002 66.8601 67.5698 66.764 67.3026C66.7989 67.5094 66.8352 67.7379 66.8721 67.9899C66.9102 68.2418 66.9374 68.4214 66.9562 68.5304C66.9641 68.5796 66.9884 68.7419 67.0306 69.0182C67.0719 69.2945 67.1106 69.6264 67.146 70.0158C67.1806 70.4042 67.2049 70.822 67.2204 71.2702C67.2357 71.7185 67.2172 72.1386 67.1671 72.5312C67.117 72.9238 67.0297 73.2624 66.9061 73.5457C66.7816 73.8308 66.5982 74.0031 66.3559 74.0643C66.1444 74.0086 65.9545 73.8865 65.7855 73.6975C65.6173 73.5085 65.4647 73.2783 65.3276 73.0084C65.191 72.7377 65.0706 72.4439 64.9672 72.1278C64.8629 71.8111 64.7701 71.5002 64.6886 71.1955C64.6069 70.8909 64.5415 70.6058 64.4914 70.341C64.4413 70.0758 64.4027 69.8602 64.3743 69.6929C64.3242 69.3973 64.279 69.0232 64.2386 68.57C64.1973 68.1159 64.1747 67.6368 64.1706 67.1321C64.1657 66.6264 64.1868 66.1175 64.2322 65.6036C64.2767 65.0907 64.3573 64.6237 64.4736 64.2044C64.5908 63.7852 64.7484 63.4322 64.9479 63.1453C65.1474 62.8585 65.4043 62.6889 65.7193 62.6365C65.8672 62.6116 66.0383 62.6681 66.234 62.807C66.4294 62.9467 66.6339 63.1374 66.8472 63.3797C67.0596 63.622 67.2729 63.8977 67.487 64.2053C67.7003 64.5132 67.9072 64.8249 68.1076 65.1399C68.3071 65.4557 68.4872 65.7586 68.6481 66.0504C68.808 66.3419 68.9413 66.591 69.0471 66.7952C69.0858 66.5464 69.1376 66.254 69.203 65.9195C69.2674 65.5843 69.3427 65.2354 69.4283 64.8724C69.5138 64.5079 69.6149 64.147 69.7312 63.789C69.8475 63.4304 69.9776 63.104 70.1214 62.8122C70.2635 62.5199 70.417 62.2767 70.582 62.0819C70.7469 61.887 70.9268 61.7734 71.124 61.7394C71.4682 61.682 71.7846 61.7605 72.0741 61.9744C72.3632 62.1885 72.6257 62.4856 72.8616 62.8653C73.0983 63.2458 73.3083 63.6812 73.4917 64.1716C73.6751 64.6612 73.8366 65.1507 73.974 65.6379C74.1122 66.1257 74.2253 66.5854 74.3123 67.0152C74.4002 67.4458 74.4667 67.7939 74.511 68.059C74.5294 68.168 74.5537 68.3151 74.5854 68.5026C74.6176 68.6892 74.6507 68.9016 74.6856 69.1383C74.7204 69.375 74.7503 69.6279 74.7752 69.8968C74.8007 70.166 74.8218 70.4359 74.837 70.7066Z" fill="#2C1845"/>
<path d="M82.3178 68.7175C82.3491 68.9041 82.3306 69.094 82.2621 69.2879C82.1918 69.4722 81.994 69.7081 81.6682 69.9958C81.3419 70.2834 80.9742 70.5653 80.5664 70.8416C80.1568 71.1178 79.7578 71.3627 79.369 71.5743C78.9797 71.7867 78.6864 71.9094 78.4901 71.9425C78.3521 71.966 78.1848 71.961 77.9868 71.9288C77.7887 71.8965 77.5887 71.8473 77.385 71.7793C77.1814 71.7131 76.9925 71.6291 76.8187 71.5256C76.6441 71.424 76.5126 71.3197 76.4244 71.213C76.3734 71.1509 76.3131 71.0191 76.2433 70.8187C76.1748 70.6177 76.1045 70.3816 76.0333 70.1103C75.9621 69.839 75.8912 69.5496 75.8191 69.2434C75.7473 68.9364 75.6803 68.6449 75.6178 68.366C75.5557 68.0879 75.5039 67.8416 75.4629 67.6259C75.421 67.4103 75.3926 67.2536 75.3756 67.1548C75.314 66.7913 75.256 66.3706 75.201 65.8939C75.1459 65.4172 75.1128 64.935 75.1016 64.4463C75.0896 63.9577 75.1137 63.4833 75.1728 63.0228C75.2317 62.5631 75.348 62.1609 75.5235 61.8175C75.5777 61.7173 75.6996 61.601 75.8894 61.4677C76.0793 61.3344 76.3072 61.1997 76.5729 61.0637C76.8387 60.9281 77.1263 60.7939 77.4381 60.6597C77.7492 60.5264 78.0512 60.4078 78.3419 60.3026C78.6328 60.1983 78.8976 60.1078 79.1385 60.0319C79.3784 59.956 79.5627 59.9068 79.6901 59.8857C79.8381 59.8608 79.9834 59.8687 80.1272 59.9106C80.2711 59.9525 80.3988 60.0196 80.5101 60.1119C80.6215 60.2039 80.7152 60.3123 80.7928 60.4359C80.8687 60.5595 80.9197 60.6952 80.9446 60.8431C80.9663 60.9708 80.9672 61.0813 80.9478 61.1768C80.9285 61.2706 80.8928 61.3781 80.8421 61.4976C80.7653 61.642 80.5843 61.8295 80.3001 62.0598C80.015 62.2901 79.7024 62.5227 79.3623 62.7571C79.0221 62.9915 78.6943 63.2062 78.3785 63.4001C78.0618 63.5956 77.8397 63.7347 77.7129 63.8162C77.7114 64.0497 77.7079 64.2855 77.7023 64.5237C77.6973 64.7627 77.7047 65.0018 77.7249 65.2412C78.0029 65.0329 78.3225 64.8266 78.6829 64.6239C79.0432 64.422 79.3963 64.2911 79.7402 64.2336C80.4389 64.1156 80.8462 64.4009 80.9625 65.09C80.9906 65.2573 80.9836 65.4108 80.9414 65.5488C80.8986 65.6876 80.8339 65.8145 80.7474 65.9308C80.6601 66.0462 80.5567 66.1523 80.4363 66.2484C80.3159 66.3445 80.1972 66.4382 80.0818 66.5279C79.795 66.7491 79.4897 66.9495 79.1657 67.1305C78.8426 67.3122 78.5185 67.49 78.1939 67.6661C78.1875 67.7484 78.1825 67.8375 78.1787 67.9341C78.1749 68.0308 78.1802 68.124 78.1948 68.2122C78.2182 68.3501 78.2513 68.4861 78.2941 68.6208C78.3369 68.755 78.3797 68.8898 78.4227 69.024C78.5341 68.9651 78.7128 68.869 78.9592 68.7363C79.2047 68.6039 79.4625 68.4688 79.7332 68.3323C80.003 68.1958 80.2664 68.073 80.5207 67.964C80.7759 67.8556 80.9675 67.7903 81.0952 67.7686C81.2431 67.7437 81.3861 67.7534 81.525 67.7953C81.663 67.838 81.786 67.9037 81.8918 67.9916C81.9975 68.0803 82.0889 68.1878 82.1666 68.317C82.2442 68.4459 82.2943 68.5792 82.3178 68.7175Z" fill="#2C1845"/>
<path d="M89.2652 61.9458C89.3801 62.6243 89.325 63.2609 89.1011 63.8553C88.8773 64.4498 88.5404 64.9967 88.0889 65.4986C88.2852 65.7078 88.4944 65.9559 88.7141 66.2427C88.9347 66.5296 89.1407 66.8366 89.3329 67.1635C89.5245 67.4899 89.6915 67.821 89.8339 68.1564C89.9759 68.4916 90.0729 68.8068 90.1221 69.1024C90.1755 69.4168 90.1465 69.7124 90.0366 69.9886C89.9267 70.2658 89.6891 70.4345 89.325 70.4961C89.0203 70.5476 88.732 70.4442 88.4613 70.1858C88.19 69.928 87.934 69.6098 87.6931 69.2301C87.4523 68.8513 87.2247 68.462 87.0105 68.063C86.7964 67.6639 86.6042 67.3472 86.4328 67.1129C86.2655 67.2016 86.105 67.2977 85.9497 67.3988C85.7947 67.5013 85.6347 67.6015 85.4689 67.7008C85.4956 67.9182 85.5287 68.2194 85.5682 68.6023C85.6069 68.9852 85.6166 69.3705 85.5967 69.7584C85.5756 70.1463 85.5047 70.492 85.3843 70.7955C85.263 71.0993 85.0555 71.2762 84.7596 71.3263C84.435 71.3805 84.162 71.29 83.9396 71.055C83.7181 70.8192 83.5397 70.5251 83.405 70.1738C83.2693 69.8222 83.165 69.4572 83.0915 69.0799C83.0171 68.7034 82.9623 68.406 82.926 68.1895C82.8483 67.7275 82.7812 67.2711 82.7256 66.8193C82.6699 66.3684 82.6028 65.9123 82.5243 65.4494C82.4531 65.0269 82.3749 64.6053 82.2884 64.1835C82.2029 63.7633 82.1235 63.3368 82.0503 62.9038C82.0342 62.8053 82.0122 62.6799 81.9873 62.5273C81.9615 62.3747 81.9422 62.2162 81.929 62.0515C81.917 61.8866 81.9073 61.7284 81.9023 61.5772C81.8973 61.426 81.912 61.3024 81.946 61.2057C82.0098 60.9828 82.2006 60.7484 82.5178 60.502C82.836 60.2565 83.1917 60.0271 83.5857 59.8138C83.9801 59.6006 84.3694 59.4189 84.7538 59.2686C85.1384 59.1174 85.4282 59.0255 85.6254 58.9924C86.1269 58.9074 86.5851 58.927 87.0011 59.0489C87.4157 59.1708 87.7784 59.3703 88.0884 59.6466C88.3977 59.9237 88.6523 60.2606 88.8501 60.657C89.0496 61.054 89.1876 61.4835 89.2652 61.9458ZM86.5702 62.6123C86.5265 62.3562 86.4354 62.1719 86.2939 62.0597C86.1542 61.9466 85.9506 61.9127 85.6848 61.9572C85.4885 61.9903 85.2955 62.0583 85.1048 62.1617C84.9149 62.2642 84.7438 62.3741 84.5909 62.4913C84.7614 63.2618 84.9067 64.0311 85.0262 64.8002C85.2211 64.6967 85.4174 64.5722 85.616 64.4278C85.814 64.2834 85.9907 64.1167 86.1468 63.9286C86.3021 63.7402 86.4222 63.5383 86.5072 63.3218C86.5922 63.1042 86.6133 62.8683 86.5702 62.6123Z" fill="#2C1845"/>
<path d="M65.9615 84.4613C65.9477 84.9187 65.8847 85.4024 65.7731 85.9121C65.6618 86.421 65.4886 86.8986 65.2551 87.3418C65.0208 87.7863 64.7187 88.1683 64.3481 88.4888C63.9775 88.8093 63.5257 89.0147 62.9943 89.1043C62.6008 89.1705 62.234 89.1512 61.8924 89.0469C61.5508 88.9426 61.23 88.7794 60.9295 88.5565C60.6289 88.3344 60.3558 88.0669 60.1112 87.7534C59.8657 87.4408 59.6506 87.1095 59.4658 86.7623C59.2806 86.4134 59.128 86.0627 59.0079 85.7088C58.8875 85.354 58.8002 85.0197 58.7477 84.7048C58.6724 84.2621 58.6346 83.7808 58.6329 83.2596C58.6311 82.7393 58.6715 82.2157 58.7556 81.6907C58.8388 81.1657 58.9698 80.6536 59.1482 80.1527C59.3266 79.6517 59.5619 79.1979 59.8525 78.7889C60.1425 78.3811 60.4891 78.0345 60.8905 77.7491C61.2927 77.4641 61.7647 77.2748 62.3058 77.1837C62.6506 77.1254 62.9811 77.1386 63.2987 77.2218C63.6163 77.305 63.9022 77.4383 64.1559 77.6232C64.4096 77.8083 64.6238 78.0433 64.7981 78.3269C64.9724 78.6119 65.0881 78.9207 65.1447 79.2559L65.1664 79.3883C65.1962 79.5653 65.2261 79.7859 65.2551 80.0484C65.2841 80.3117 65.2794 80.5687 65.2405 80.8183C65.2009 81.067 65.1177 81.2917 64.9891 81.4895C64.8608 81.689 64.654 81.8126 64.3686 81.8604C64.0244 81.9184 63.7507 81.8829 63.5471 81.7561C63.3426 81.6283 63.2102 81.382 63.149 81.0187C63.1255 80.8807 63.1077 80.7424 63.0948 80.6035C63.081 80.4638 63.0626 80.3249 63.0391 80.1875C63.0045 79.9807 62.943 79.8263 62.8557 79.7255C62.7675 79.6238 62.6149 79.5913 62.3984 79.6277C62.1529 79.669 61.9443 79.7853 61.7747 79.9751C61.6033 80.1667 61.4662 80.4017 61.3619 80.6826C61.2576 80.963 61.1785 81.2747 61.1252 81.6172C61.071 81.9606 61.0387 82.303 61.025 82.6441C61.0112 82.9857 61.0162 83.3114 61.0378 83.6208C61.0595 83.9311 61.0894 84.1945 61.126 84.411C61.1559 84.5879 61.1996 84.7906 61.2585 85.0186C61.3168 85.2465 61.3959 85.4604 61.4952 85.6608C61.5954 85.8626 61.7213 86.0252 61.874 86.1512C62.0266 86.2772 62.2068 86.3226 62.4136 86.2877C62.7675 86.228 63.0341 86.0695 63.2134 85.8119C63.3919 85.5541 63.492 85.2465 63.5131 84.8885C63.3719 84.8917 63.2313 84.8829 63.0907 84.861C62.9509 84.8393 62.8168 84.7962 62.6899 84.7318C62.5622 84.667 62.4541 84.5791 62.3644 84.4675C62.2748 84.3559 62.2159 84.217 62.1875 84.0491C62.1365 83.7448 62.1995 83.4884 62.3773 83.2816C62.5551 83.0747 62.7763 82.9028 63.0415 82.7671C63.3072 82.6315 63.5858 82.5263 63.8767 82.4522C64.1676 82.3778 64.4017 82.3253 64.5787 82.2954C64.7064 82.2743 64.8954 82.2527 65.1441 82.2307C65.3928 82.2087 65.6442 82.2096 65.8962 82.233C66.1472 82.2565 66.3719 82.3121 66.5691 82.4003C66.7663 82.4885 66.8802 82.6265 66.9125 82.8131C66.9754 83.1872 66.9286 83.5265 66.7727 83.8309C66.6174 84.1356 66.3461 84.3456 65.9615 84.4613Z" fill="#2C1845"/>
<path d="M71.0819 76.935C71.1135 77.1225 71.0997 77.2962 71.0406 77.4576C70.9817 77.6199 70.892 77.7638 70.7725 77.8906C70.6521 78.0166 70.5141 78.1288 70.3588 78.2258C70.203 78.3228 70.0486 78.3995 69.8959 78.4552C70.0632 79.5708 70.203 80.6492 70.3128 81.6937C70.4227 82.7375 70.5018 83.8224 70.5504 84.9468L70.6392 84.9321C70.7959 84.9055 70.9541 84.8967 71.1118 84.9055C71.2708 84.9143 71.4188 84.95 71.5562 85.013C71.6927 85.076 71.8081 85.1624 71.9036 85.2731C71.9974 85.3839 72.0604 85.5274 72.0903 85.7044C72.1284 85.9314 72.0894 86.1397 71.9748 86.3305C71.8609 86.5227 71.6977 86.6964 71.487 86.8531C71.2752 87.0099 71.0338 87.1528 70.7617 87.2788C70.4895 87.4057 70.2147 87.5155 69.937 87.6084C69.6589 87.7004 69.3932 87.778 69.1413 87.8401C68.8884 87.9031 68.6833 87.9477 68.5266 87.9743C68.4085 87.9945 68.2623 88.0139 68.0886 88.0332C67.9149 88.0525 67.747 88.0502 67.587 88.0268C67.4256 88.0033 67.2832 87.9515 67.159 87.8718C67.0339 87.7909 66.9572 87.6682 66.9287 87.5003C66.8939 87.2943 66.9053 87.1022 66.961 86.9258C67.0175 86.7488 67.1031 86.5857 67.2194 86.4348C67.3357 86.283 67.474 86.1544 67.6322 86.0463C67.7904 85.9388 67.9562 85.85 68.1267 85.7806C68.1041 85.2289 68.0775 84.6787 68.0458 84.1326C68.0145 83.5865 67.9626 83.0363 67.8891 82.4814C67.8141 81.9175 67.7406 81.3611 67.6685 80.8118C67.5958 80.2625 67.5232 79.7108 67.4496 79.1565C67.3826 79.1776 67.3196 79.1952 67.2613 79.2107C67.203 79.2254 67.1491 79.2374 67.1004 79.2456C66.9624 79.2691 66.8121 79.2787 66.6504 79.2755C66.4881 79.2731 66.3314 79.2465 66.1811 79.1955C66.0308 79.1454 65.8998 79.0742 65.7885 78.9808C65.6763 78.8888 65.6069 78.7587 65.5785 78.5914C65.5219 78.2568 65.6157 77.958 65.8597 77.6946C66.1043 77.4304 66.4099 77.2068 66.779 77.0234C67.1473 76.84 67.5302 76.6924 67.926 76.5799C68.3218 76.4668 68.6426 76.39 68.889 76.3487C69.0264 76.3253 69.2107 76.3051 69.4401 76.2866C69.6695 76.2682 69.9006 76.2746 70.1341 76.306C70.3676 76.3373 70.5744 76.3988 70.757 76.4894C70.9389 76.5796 71.0473 76.729 71.0819 76.935Z" fill="#2C1845"/>
<path d="M78.8728 77.9446C78.9867 78.6231 78.9325 79.2597 78.7087 79.8536C78.4849 80.448 78.1474 80.9959 77.6956 81.4968C77.8928 81.706 78.1011 81.9548 78.3217 82.2416C78.5414 82.5284 78.7482 82.8345 78.9395 83.1618C79.1311 83.489 79.2981 83.8201 79.4411 84.1547C79.5823 84.4898 79.6793 84.805 79.7294 85.1006C79.7818 85.4156 79.7537 85.7106 79.643 85.9878C79.5331 86.264 79.2955 86.4337 78.9319 86.4943C78.6267 86.5459 78.339 86.4424 78.0677 86.1849C77.7964 85.9271 77.54 85.6089 77.2995 85.2293C77.0581 84.8505 76.831 84.4611 76.6169 84.0621C76.4027 83.663 76.2105 83.3464 76.04 83.112C75.8719 83.2007 75.7113 83.2963 75.5569 83.3979C75.4017 83.5005 75.242 83.6007 75.0762 83.6994C75.102 83.9174 75.1359 84.2179 75.1746 84.6008C75.2142 84.9846 75.2229 85.369 75.2027 85.7569C75.1816 86.1454 75.1113 86.4911 74.9903 86.7949C74.869 87.0987 74.6616 87.2757 74.3666 87.3249C74.042 87.3799 73.7681 87.2894 73.5466 87.0536C73.3245 86.8177 73.1458 86.5245 73.011 86.1723C72.8763 85.8208 72.7711 85.4566 72.6976 85.0793C72.624 84.7019 72.5692 84.4054 72.5326 84.1889C72.4544 83.726 72.3873 83.2696 72.3313 82.8187C72.2757 82.3678 72.2086 81.9108 72.131 81.4488C72.0598 81.0255 71.9807 80.6039 71.8951 80.1829C71.8087 79.7628 71.7287 79.3356 71.6561 78.9026C71.6399 78.8047 71.6188 78.6788 71.5931 78.527C71.5673 78.3744 71.5479 78.2153 71.5356 78.0504C71.5228 77.8854 71.514 77.7281 71.509 77.5769C71.5034 77.4257 71.5178 77.3021 71.5518 77.2054C71.6156 76.9825 71.8063 76.7481 72.1245 76.5017C72.4421 76.2562 72.7975 76.0268 73.1924 75.8135C73.5858 75.6003 73.9761 75.4186 74.3596 75.2674C74.7442 75.1163 75.034 75.0252 75.2312 74.9921C75.7327 74.9074 76.1918 74.9258 76.6069 75.0477C77.0221 75.1696 77.3848 75.37 77.6941 75.6463C78.0035 75.9234 78.2581 76.2594 78.4559 76.6561C78.6562 77.0519 78.7942 77.4817 78.8728 77.9446ZM76.1769 78.6102C76.1332 78.355 76.0418 78.1708 75.9015 78.0577C75.7608 77.9446 75.5572 77.9106 75.2924 77.9551C75.0952 77.9891 74.9022 78.0571 74.7123 78.1596C74.5216 78.263 74.3505 78.372 74.1984 78.4892C74.3681 79.2597 74.5134 80.0297 74.6329 80.7987C74.8277 80.6953 75.0246 80.5711 75.2227 80.4255C75.4213 80.2816 75.5974 80.1152 75.7535 79.9271C75.9085 79.7387 76.0289 79.5369 76.1139 79.3195C76.1988 79.103 76.2196 78.8663 76.1769 78.6102Z" fill="#2C1845"/>
<path d="M87.3934 82.3972C87.4347 82.6427 87.3732 82.8909 87.2077 83.1411C87.0427 83.3916 86.8151 83.6324 86.5251 83.8632C86.235 84.0944 85.9046 84.3091 85.5339 84.5087C85.1625 84.7073 84.793 84.886 84.4248 85.0451C84.0571 85.2027 83.7076 85.3342 83.3762 85.4409C83.0449 85.5475 82.7809 85.6178 82.5846 85.6509C82.398 85.6826 82.1962 85.6987 81.9779 85.6993C81.7605 85.701 81.5733 85.6542 81.4157 85.5586C81.3269 85.5135 81.2355 85.3922 81.1409 85.1951C81.048 84.9988 80.9493 84.7621 80.8467 84.4858C80.7451 84.2104 80.6464 83.9107 80.5511 83.5867C80.4565 83.2644 80.3701 82.9477 80.2927 82.6366C80.2151 82.3263 80.1465 82.0389 80.0877 81.7761C80.0279 81.5128 79.9857 81.3068 79.9608 81.1597C79.9195 80.9133 79.8761 80.6145 79.8325 80.2629C79.788 79.9117 79.7475 79.5335 79.7097 79.1303C79.6716 78.7263 79.6435 78.3144 79.6224 77.8928C79.6022 77.4713 79.5934 77.0705 79.5949 76.6908C79.5963 76.3111 79.6183 75.9663 79.6629 75.6551C79.7065 75.344 79.7677 75.0961 79.8486 74.9095C79.9907 74.613 80.204 74.4402 80.4899 74.3924C80.6862 74.3593 80.8649 74.3971 81.0246 74.507C81.1845 74.616 81.3252 74.7695 81.4438 74.9675C81.5633 75.1647 81.6668 75.39 81.7549 75.6437C81.8428 75.8965 81.919 76.1494 81.982 76.4022C82.045 76.655 82.0942 76.8885 82.1314 77.105C82.1677 77.3215 82.1967 77.4944 82.2178 77.6213C82.347 78.3894 82.4578 79.1529 82.5498 79.9105C82.6426 80.669 82.7534 81.4325 82.8826 82.1998L82.9796 82.7749C83.3997 82.5633 83.8599 82.3506 84.3609 82.14C84.861 81.9291 85.3473 81.7837 85.8199 81.7046C85.9872 81.6762 86.1583 81.6578 86.3346 81.6481C86.5098 81.6393 86.6692 81.6554 86.8128 81.6964C86.9566 81.7378 87.0802 81.8136 87.1851 81.9217C87.2894 82.0322 87.3589 82.1907 87.3934 82.3972Z" fill="#2C1845"/>
<path d="M100.305 16.0813L102.206 4.04297L106.853 14.1806L118.891 13.1247L111.077 20.5166L114.667 29.8096L104.952 24.3185L97.3487 33.189L98.4046 22.2064L88.9004 19.672L100.305 16.0813Z" fill="#F4C46C"/>
<path d="M31.6638 87.4684L33.5646 75.4297L38.211 85.5673L50.2497 84.5114L42.4351 91.9036L46.0257 101.197L36.3103 95.7052L28.7068 104.576L29.763 93.5932L20.2588 91.0587L31.6638 87.4684Z" fill="#F4C46C"/>
<path d="M92.9128 95.0714L94.8139 83.0327L99.4603 93.1706L111.499 92.1145L103.684 99.5066L107.275 108.8L97.5593 103.308L89.9562 112.179L91.012 101.196L81.5078 98.662L92.9128 95.0714Z" fill="#F4C46C"/>
</svg>
