<svg xmlns="http://www.w3.org/2000/svg" width="152" height="126" fill="none"><path fill="#FFCE00" d="M114.008 99.284c-2.204-.294-2.341-1.695-4.38-1.846-.995-.073-1.82.273-2.52.936-1.285 1.219-1.281 2.481-1.604 3.89-.52 2.273-2.139 5.682-4.361 6.354-3.153.953-4.474-4.589-2.24-9.882 1.38-3.27.17-6.468-2.756-4.784-1.183.68-2.345 2.222-2.623 2.827-1.138 2.484-4.166 5.455-6.736 4.821-2.573-.634-2.192-4.465-.78-6.95.8-1.408.124-2.227-1.433-1.487-3.644 1.734-3.344 5.136-6.913 6.796-2.657 1.236-5.098-.506-5.986-3.35-.18-.574-.234-1.527-1.268-1.473-1.977.104-4.643 3.317-5.826 4.918-1.168 1.58-1.502 2.932-2.723 3.288-1.913.557-3.023-2.474-2.19-4.965.092-.276.501-1.85 1.152-3.158 2.138-4.297 1.925-3.285 2.229-3.963.96-2.145 1.469-2.24 2.838-6.096 1.658-4.672 5.8-9.3 10.996-10.862 2.825-.85 5.48-.45 8.309-2.005 1.048-.576 2.022-1.233 2.757-2.218.88-1.178 2.087-1.934 3.439-2.483 1.825-.742 3.742-.986 5.689-1.06 2.678-.1 5.326.195 7.949.705.989.192 1.925.095 2.853-.25.061-.024.12-.056.182-.078.342-.123.43-.1.565.227.223.538.545 1.002.954 1.415.363.367.799.607 1.252.842 1.285.666 2.139 1.666 2.303 3.16q.048.427.097.853c.128 1.164.589 2.212 1.165 3.21.985 1.705 2.316 3.093 3.958 4.185 1.253.833 1.906 2.043 2.147 3.499.061.368.074.742.065 1.12-.025 1.003.175 1.97.536 2.906.736 1.907 1.676 2.803 2.639 3.746.345.339.349.349.111.785-1.97 3.609-5.98 6.944-9.846 6.427"/><path fill="#E38921" d="M117.363 98.837c-1.836.715-3.991.761-5.535-.475-2.643-2.116-5.613-.418-6.11 2.819-.331 2.153-.939 3.591-2.178 5.479-1.34 2.045-3.722 3.016-5.008.771-1.234-2.155-.761-5.523.067-7.914.232-.668 1.57-3.499.42-5.268-1.043-1.6-3.376-.413-4.681 1.355-1.453 1.968-1.078 2.241-2.787 3.979-.731.743-1.549 1.375-2.523 1.779-3.8 1.575-5.418-2.455-3.009-6.73.232-.413.44-.858.264-1.313-.124-.323-.302-.45-.655-.443-1.187.023-2.642 1.28-3.462 2.152-.474.504-.82 1.09-1.156 1.685-2.715 4.804-7.658 4.848-9.305 0-.2-.59-.239-1.75-1.454-1.562-.977.151-2.026.955-2.767 1.608-2.384 2.103-3.923 4.908-4.305 5.484-1.664 2.512-4.135.732-3.737-2.862.04-.362.108-.45.444-.429 1.77.11 2.742-2.672 5.023-5.058 1.78-1.863 4.455-2.487 7.062-1.413 1.937.797 2.332 2.284 5.12-.406 3.378-3.261 7.318-3.522 9.894-2.01 1.466.86 2.22 2.738 2.742 3.332 1.04 1.185 2.49-.742 3.557-1.91 1.28-1.404 3.17-1.62 4.85-.813 2.515 1.21 3.189 3.379 4.083 5.161.303.604.959.674 1.444.278 1.05-.856 1.302-1.724 2.626-3.129 2.386-2.532 5.798-2.523 9.029-1.281 2.606 1 4.762 2.167 6.826 1.276 1.66-.717 1.249-.655 1.611-.762.117-.034.282.11.259.23-.02.106-.054.213-.104.307-1.445 2.697-3.754 4.998-6.545 6.083" opacity=".5"/><path fill="#D811AD" d="M116.6 62.076c.352.15.727.5 1.119.817 6.317 5.115 16.739 22.645 16.067 30.239-.013.144-.199.21-.307.115a3 3 0 0 1-.321-.33c-2.19-2.62-6.387-3.608-8.453-1.308-.46.513-.503.438-.733.26a7.8 7.8 0 0 1-2.005-2.35c-1.09-1.921-1.118-3.1-1.121-4.354-.004-1.67-.764-3.49-2.168-4.475-2.899-2.034-4.942-4.529-5.268-8.07-.234-2.55-2.304-3.382-3.153-3.92-3.255-2.064-1.215-7.135 3.198-7.453 1.096-.078 2.089.23 3.145.83M101.722 84.592c-.72-.807-.074-1.812.927-2.138 1.552-.506 3.057-.036 3.667.658 1.635 1.863-2.849 3.44-4.594 1.48M94.088 84.375c.764-.765.177-1.804-.805-2.188-1.52-.593-3.05-.21-3.698.448-1.739 1.767 2.65 3.597 4.503 1.74"/><path fill="#FF8CDB" d="M81.045 84.194c-1.47.299-2.937.232-4.394-.094-1.959-.436-3.314-1.516-3.85-2.768-.66-1.528-.12-3.314 1.998-4.532 2.125-1.228 4.602-1.535 6.815-1.13q.96.178 1.727.498c4.433 1.82 4.008 6.754-2.296 8.026M113.988 88.198c-.12-.134-.189-.204-.265-.223-.088-.024-.174.02-.343.115-1.743.96-4.139-.099-4.229-2.377a1.8 1.8 0 0 1 .094-.622c.244-.764.942-1.508 1.828-1.54.844-.032.514-.243.289-.679-.304-.59-.316-1.376.155-1.882 1.938-2.085 5.87.336 6.788 2.987 1.199 3.453-2.403 6.346-4.317 4.22M111.622 98.57c.508.308.996.652 1.58.817 3.054.86 6.397-.985 8.568-3.221 1.317-1.357 1.998-2.443 2.779-3.84 1.673-2.995 6.621-1.702 8.627 1.045.611.837.533.736.32 1.566-.959 3.733-3.081 6.457-6.745 7.551-4.577 1.366-10.42 1.316-15.166.931-.749-.061-5.107-.491-5.584-.607-.194-.047-.277-.141-.236-.329.182-.838.216-1.711.567-2.508 1.023-2.322 3.169-2.669 4.372-1.932.302.183.612.352.918.528M99.158 95.376c.226 1.749-.487 3.104-.813 4.019-.666 1.868-.347 2.167-1.098 2.014-.264-.054-5.302-1.065-5.538-1.194-.206-.114.003-.371.163-.544 1.884-2.032 1.93-3.161 3.057-4.36 1.081-1.148 1.768-1.392 2.412-1.515.337-.064 1.67.442 1.817 1.58M85.521 93.161c.675-.022.672.68.32 1.252-1.115 1.812-1.111 3.381-1.246 3.854-.08.28-.334.205-.62.13-2.646-.687-3.17-.697-2.967-1.107 1.128-2.288 3.342-4.09 4.513-4.129M111.885 65.96c1.61-1.054 4.006-1.733 5.717-1.255.726.203.792.862.292 1.058-1.038.407-2.331.242-4.725 1.768-.559.356-.719.52-1.161.609-.377.075-.701-.01-.933-.335-.54-.757.032-1.335.81-1.844M117.627 71.699c4.586-1.697 5.089-.185 4.337.247-.645.37-2.875.886-4.669 2.146-.43.302-1.132.647-1.617.256-1.12-.903.61-2.154 1.949-2.65M128.855 83.679c.783.205.839.808.426 1.054-.793.472-1.824.42-3.43 1.041-.539.209-1.627 1.001-2.395.3-1.444-1.32 2.688-3.107 5.399-2.395M123.366 77.033c.503-.07 2.264-.58 2.524.168.272.782-1.438 1.017-3.403 2.08-.567.306-1.145.833-1.782.965-.975.202-1.819-.884-.553-1.922.87-.714 2.11-1.138 3.214-1.291"/><path fill="#845EF9" d="M68.93 87.41c1.123-.069 1.553.708 1.758.402.095-.142.19-.285.266-.438.603-1.192 2.31-1.707 3.571-1.115 1.481.695 1.824 1.69 1.569 2.615-.307 1.114-1.906 1.442-2.661.484-.331-.42-.43-.806-.679-.45-.194.28-.342.59-.59.837a1.8 1.8 0 0 1-2.1.336c-.328-.17-.614-.457-1.089-.084-.243.192-.294.284-.685.972-.355.624-1.403.859-1.864.002-.375-.697.5-3.436 2.504-3.56M99.162 72.602c.984.23 1.153 1.01 1.408.8.119-.097.237-.197.342-.307.827-.87 2.428-.871 3.359-.035 1.094.98 1.132 1.924.673 2.654-.552.878-2.012.746-2.413-.273-.176-.447-.162-.804-.468-.561-.24.19-.446.417-.724.566-.621.332-1.38.24-1.892-.254-.239-.23-.41-.552-.915-.353-.26.102-.326.168-.84.657-.468.445-1.43.375-1.604-.48-.142-.698 1.318-2.827 3.074-2.415M92.156 90.24c-.848-.239-.965-.924-1.196-.751-.107.08-.214.162-.31.254-.754.725-2.148.664-2.927-.1-.915-.897-.91-1.72-.482-2.338.515-.744 1.781-.572 2.091.332.137.396.11.707.386.507.215-.156.405-.347.652-.465a1.41 1.41 0 0 1 1.638.295c.199.21.336.497.783.344.23-.079.291-.134.758-.54.424-.37 1.26-.272 1.378.48.097.612-1.258 2.41-2.771 1.983M106.687 90.227c.793.385.787 1.08 1.045.95a3 3 0 0 0 .35-.195c.87-.58 2.232-.274 2.864.615.742 1.044.592 1.854.063 2.387-.639.64-1.855.248-2.001-.696-.064-.414.017-.715-.289-.567-.241.116-.461.27-.725.343a1.41 1.41 0 0 1-1.56-.58c-.159-.241-.243-.548-.711-.476-.24.037-.309.08-.841.398-.483.29-1.287.045-1.272-.716.012-.62 1.664-2.15 3.077-1.463"/><path fill="#D811AD" d="M75.334 79.056c-1.29-.054-1.56-1.669-.184-1.936.406-.078.772.025 1.12.206.83.428.453 1.787-.936 1.73M77.993 82.931c-1.29-.054-1.56-1.668-.183-1.935.405-.079.772.025 1.12.205.829.428.452 1.788-.937 1.73M82.622 78.894c-1.29-.054-1.56-1.669-.183-1.936.405-.078.772.025 1.12.205.829.43.452 1.788-.937 1.73M84.072 80.883c-1.044-.043-1.262-1.35-.148-1.566.328-.064.625.02.907.166.67.346.365 1.446-.759 1.4M79.663 80.174c-1.044-.043-1.263-1.35-.148-1.566.328-.064.625.02.907.165.67.348.365 1.447-.759 1.4M78.575 77.47c-.834-.035-1.008-1.079-.118-1.251.262-.051.499.016.724.132.535.277.292 1.156-.606 1.119M82.165 82.505c-.834-.034-1.009-1.078-.118-1.25.261-.051.499.016.724.132.535.277.291 1.155-.606 1.118M74.48 81.615c-1.045-.043-1.263-1.35-.149-1.566.328-.064.625.02.907.165.67.347.365 1.447-.759 1.4M115.483 87.385c-.135.03-.276-.1-.234-.232.033-.104.084-.203.132-.3.182-.361-.14-.813-.592-.8-.457.015-.798.372-.801.877-.003.418.279.824-.183.987-.616.219-.991-1.404-.239-2.092.965-.882 2.278-.413 2.454.386.077.342-.148 1.088-.537 1.174M111.712 83.758c-.209-.21-.085-.577.248-.532.293.04.552.204.972.135.662-.11.751-1.081.061-1.2-.363-.061-.703.024-.673-.232.038-.32.768-.407 1.169-.222.869.401.971 1.443.166 2.109-.605.499-1.527.358-1.943-.058"/><g fill="#D811AD" opacity=".5"><path d="M129.177 101.424c-4.252 2.543-12.516 2.382-17.443 2.004-1.003-.077-4.819-.464-5.65-.602-.446-.074-.393-.116-.044-1.888.116-.587-.23-.231 7.453.315 3.854.274 8.632-.237 11.222-3.1 1.696-1.876 3.075-3.349 5.195-4.196.906-.361 1.841-.603 2.829-.586.555.01.992.497.883 1.049-.672 3.394-2.648 5.929-4.445 7.004M97.832 101.15c-.09.168-.187.214-.302.216-.772.015-5.435-.989-5.751-1.112-.535-.209.42-.763.925-1.586.22-.36.517-.412.905-.309 4.483 1.193 4.673.965 4.547 1.516-.103.45-.226.894-.324 1.275M84.819 96.954c-.19 1.407-.17 1.572-.636 1.49-.309-.054-.298-.054-2.745-.707-.366-.098-.548-.184-.413-.499.413-.965 3.903-1.096 3.794-.284M113.683 87.684a.7.7 0 0 1 .041.291c-.088-.024-.174.02-.343.115-1.744.96-4.139-.098-4.229-2.377a1.8 1.8 0 0 1 .094-.621c.063.058.136.158.226.264.373.435 1.008.815 1.603.737 1.035-.138 2.12-1.582 3.471-.656.392.269-.144.495-.34.643-.587.444-.729.872-.523 1.604M81.045 84.195c-1.47.298-2.937.232-4.393-.094-1.96-.436-3.314-1.516-3.85-2.769.34-.33 1.124-.4 1.59-.345 2.555.3 4.747 2.298 8.157 1.1 2.16-.761 3.726-2.561.792-5.918 4.433 1.82 4.008 6.754-2.296 8.026"/></g><path fill="#fff" d="M106.119 70.556c-2.016.578-5.504.406-7.622.254-2.408-.173-6.178.792-8.356 1.688-.904.372-1.281-.102-1.013-.638.122-.244.326-.413.517-.595 1.052-1.005 2.293-1.698 3.637-2.231 4.991-1.983 8.152-.033 10.962.072 2.241.084 2.669-.515 3.402-.648.203-.037.382.169.345.377-.079.446-.8 1.414-1.872 1.721" opacity=".75"/><path fill="#E38921" d="M87.76 75.112c-.072.727.58 1.387 1.457 1.474s1.647-.432 1.72-1.159c.071-.726-.581-1.387-1.459-1.474-.876-.086-1.646.432-1.718 1.159M98.179 88.319c-.089.89.711 1.7 1.786 1.806s2.018-.529 2.107-1.42-.711-1.7-1.786-1.806-2.019.529-2.107 1.42M79.403 87.012c-.064.647.517 1.234 1.298 1.312.78.078 1.466-.384 1.53-1.031s-.517-1.235-1.298-1.313c-.78-.077-1.466.385-1.53 1.032M108.173 76.353c-.064.647.517 1.234 1.298 1.312s1.466-.384 1.53-1.032c.064-.647-.517-1.234-1.297-1.312-.781-.077-1.466.385-1.531 1.032"/><path fill="#0A1640" d="M94.076 78.908c-.024.93-.733 1.58-1.614 1.571-.89-.008-1.614-.792-1.58-1.616.037-.891.734-1.562 1.63-1.547.912.016 1.591.706 1.564 1.592M103.525 80.802c-.8-.002-1.565-.837-1.511-1.626.05-.71.581-1.55 1.651-1.544 2.04.014 2.088 3.174-.14 3.17M97.382 83.414a2 2 0 0 1-.406-.184c-1.022-.611-1.54-2.082-1.42-4.034a.433.433 0 0 1 .864.053c-.097 1.594.277 2.804 1.001 3.238.36.214.768.203 1.15-.033.6-.371 1.194-1.376 1.062-3.082a.433.433 0 1 1 .864-.067c.136 1.779-.413 3.231-1.47 3.885a1.96 1.96 0 0 1-1.645.224"/><path fill="#0A1640" d="M118.594 62.961c5.192 4.57 12.115 15.817 14.75 24.088 1.119 3.516 1.426 5.712.348 9.052-1.005 3.116-3.04 5.553-6.192 6.661-4.881 1.716-11.299 1.487-16.312 1.122-5.687-.415-5.343-.952-5.642.037-.328 1.086-.938 2.04-1.539 2.988-1.813 2.861-5.145 3.394-6.321-.175-.538-1.633-.427-2.833-.285-4.516.042-.501-.119-.113-5.876-1.484-.51-.121-.572.112-1.45.653-1.196.736-2.96 1.162-4.145.431-1.05-.647-1.256-1.494-1.496-2.536-.073-.32-.093-.25-2.216-.815-1.28-.34-1.424-.455-1.683-.161-2.748 3.118-5.523 3.07-7.445 1.472-1.262-1.049-1.651-2.284-2.09-3.604-.163-.488-.401-.62-.905-.491a2.6 2.6 0 0 0-.665.286c-1.994 1.179-3.367 2.905-4.746 4.806-.659.908-1.488 3.425-3.652 3.106-1.441-.213-3.106-2.66-1.359-7.25.874-2.297 2.099-4.533 3.361-6.636 2.5-4.166 1.81-4.22 3.025-6.587 3.128-6.09 7.949-9.3 12.457-10.018 1.445-.23 2.874-.292 4.493-.74 1.465-.406 3.434-1.433 4.332-2.651 2.505-3.403 7.334-4.099 11.545-3.966 6.027.19 6.927 1.352 8.893.45.875-.402-.182-1.3 1.164-3.232 1.242-1.782 3.27-2.56 4.994-2.518 1.97.047 3.33 1.06 4.657 2.228M59.977 98.186c-1.208 3.555.887 5.988 2.416 4.597.44-.4 1.034-1.295 1.218-1.632 1.205-2.19 5.25-7.017 7.48-6.127.613.245.505.593.795 1.501.819 2.56 2.822 4.25 5.415 3.328 1.45-.515 2.837-2.028 3.454-3.232.641-1.25 2.069-2.831 3.582-3.608 1.925-.988 2.875.22 1.802 1.945-.777 1.249-1.252 3.28-.895 4.7.392 1.562 1.864 2.165 3.402 1.607 1.536-.558 3.405-2.107 4.563-4.315 3.243-6.186 8.398-3.945 5.847 2.06-2.444 5.75-.296 11.555 3.11 8.797 1.463-1.184 2.416-3.16 2.938-4.921.545-1.84.292-3.32 1.945-4.79 1.195-1.063 2.886-1.186 4.047-.44.297.189 1.784 1.123 2.383 1.274 3.963 1.003 8.167-2.565 10.214-6.193.336-.597-.669-.459-2.102-2.881-1.897-3.207-.859-4.588-1.504-6.35-1.008-2.754-2.244-2.136-4.563-4.897-1.482-1.765-2.507-3.723-2.615-6.079-.019-.425-.158-.822-.362-1.193-1.207-2.192-2.768-1.53-3.899-3.627-.481-.89-.383-.44-1.817-.203-.501.082-1.007.118-1.51.018-5.41-1.083-13.89-1.685-17.212 2.736-1.287 1.713-3.685 2.857-5.67 3.276-3.119.658-7.815.215-12.805 5.835-1.839 2.071-3.254 4.714-3.7 6.345-1.127 4.121-3.87 6.332-5.957 12.47m56.429-35.894a4.6 4.6 0 0 0-2.138-.797c-4.365-.486-7.562 4.9-3.522 7.272.456.268.958.47 1.35.83.912.834 1.487 1.845 1.558 3.108.131 2.34 1.689 5.43 4.83 7.541 1.19.8 1.954 1.883 2.348 3.247.468 1.616.021 2.605.538 4.114.553 1.618 1.356 2.855 2.621 3.986.235.21.303.09.726-.336 1.734-1.749 5.694-1.617 8.403 1.276.105.113.205.23.314.34.069.07.159.045.168-.065.018-.22.062-.445.035-.66-.108-.829-.146-1.667-.336-2.487-1.951-8.442-9.488-20.88-14.697-25.674-.68-.626-1.341-1.28-2.198-1.695m16.933 32.34c.091-.36.038-.639-.179-.92-2.517-3.29-6.512-3.645-8.203-1.63-.449.536-.945 1.871-2.251 3.413-2.549 3.011-6.734 5.377-10.186 3.888-.994-.429-.767-.498-1.734-1.074-1.159-.69-2.715-.482-3.691.834-.713.962-.893 2.09-1.06 3.227-.036.247.261.255.442.276.508.058 6.658.9 12.062.752 7.798-.214 12.97-1.501 14.8-8.766m-36.692-.378c-2.287 1.207-2.966 3.787-4.05 4.943-.585.626-.787.824-.553.89.507.142.327.099 4.915 1.033.31.064.536.125.644-.124.12-.276.36-1.316.653-2.01 1.66-3.95.078-5.622-1.61-4.732m-15.235 2.83c-.226.425-.36.31 2.709 1.111.218.057.262.02.292-.223.166-1.349.568-2.618 1.254-3.796.498-.854-.113-.989-.975-.519-1.485.808-2.49 1.936-3.28 3.427"/><path fill="#fff" d="M35.594 48.038a1.442 1.442 0 0 1-1.356-1.76l7.908-34.947a4.83 4.83 0 0 1 2.332-3.134 4.83 4.83 0 0 1 3.889-.377l14.052 4.668a1.443 1.443 0 0 1-.91 2.739l-14.052-4.668a1.91 1.91 0 0 0-1.561.15 1.91 1.91 0 0 0-.937 1.259l-7.907 34.946a1.44 1.44 0 0 1-1.458 1.124"/><path fill="#D811AD" d="m41.876 12.525-.63 2.782c.63.59 1.475 1.155 2.602 1.576l.497-2.195c-1.46-.624-2.154-1.551-2.469-2.163M43.198 19.75c-1.365-.517-2.12-1.295-2.524-1.916l-.599 2.645c.653.558 1.51 1.079 2.629 1.46zM51.77 8.95l-2.112-.7a6.7 6.7 0 0 0-.112 3.002l2.574.856c-.572-1.354-.523-2.441-.35-3.157M56.939 10.668l-2.124-.706a6.8 6.8 0 0 0 .026 3.049l2.67.887c-.66-1.346-.702-2.453-.573-3.23M62 12.349l-2.123-.705c-.182.799-.255 1.836.02 3.046l1.613.536c.302.1.613.092.895 0-.502-1.188-.525-2.17-.405-2.877"/><path fill="#0A1640" d="M62.693 11.666 48.58 6.98c-3.172-1.015-6.543.907-7.279 4.16l-7.908 34.947a2.295 2.295 0 0 0 1.742 2.762q.211.047.427.055a2.31 2.31 0 0 0 2.335-1.798c8.44-36.726 7.643-35.2 8.426-35.641.78-.44.388-.11 14.914 4.584l.005.002.02.006a2.317 2.317 0 0 0 2.895-1.471 2.313 2.313 0 0 0-1.464-2.919M46.2 10.576c-1.533-1.1-1.387-2.376-1.378-2.438.005-.038-.002-.073-.006-.109a4.8 4.8 0 0 1 1.1-.36c-.117.573-.16 1.63.614 2.824-.111.02-.221.045-.33.084M43.962 8.54c.057.605.338 1.626 1.472 2.547q-.047.047-.09.097c-1.806-.532-2.133-1.803-2.158-1.913.231-.27.49-.516.776-.73m-6.91 38.375a1.444 1.444 0 0 1-1.848 1.055 1.443 1.443 0 0 1-.966-1.692c8.36-36.641 7.76-35.022 8.366-36.154.317.59.985 1.407 2.355 1.85zm24.473-31.682-.015-.005-13.824-4.592a.4.4 0 0 0-.076-.136c-1.3-1.522-.816-2.812-.771-2.923 1.433-.002 1.075.188 15.58 4.913a1.443 1.443 0 0 1-.894 2.743"/><path fill="#FF8CDB" d="m62.075 34.526-1.099 9.36-.39 3.358-.047.358-3.198 27.297-.084.7-.353 3.015-1.137 9.71c-.16 1.344-1.17 2.337-2.343 2.294l-28.076-1.031c-.527-.02-1.003-.246-1.382-.616-.457-.442-.755-1.098-.787-1.844l-.422-9.767-.13-3.032-.009-.173-.024-.533-1.192-27.458-.016-.36-.008-.173-.136-3.205-.41-9.415a3 3 0 0 1 .066-.782c.087.014.18.021.27.025l40.628 1.491c.09.004.183.003.271-.008.034.255.04.52.008.79"/><path fill="#845EF9" d="m53.288 90.606-1.17 3.032a3.2 3.2 0 0 1-3.104 2.046l-19.69-.723a3.3 3.3 0 0 1-.75-.116 3.21 3.21 0 0 1-2.195-2.151l-.945-3.111zM64.194 31.517a2.31 2.31 0 0 1-2.128 2.22c-.088.012-.18.012-.272.009l-40.627-1.491a2.313 2.313 0 0 1-2.229-2.399 2.316 2.316 0 0 1 2.4-2.229l40.627 1.492a2.32 2.32 0 0 1 1.611.737c.402.436.641 1.024.617 1.661"/><path fill="#845EF9" d="m61.683 29.108-40.063-1.47 1.688-3.352a2.09 2.09 0 0 1 1.94-1.146l33.145 1.217a2.09 2.09 0 0 1 1.852 1.285z"/><path fill="#FFCE00" d="m60.605 47.072-.02.172-.047.358-3.197 27.297-.064.529-34.66-1.273-.024-.532-1.191-27.458-.017-.36-.008-.173z"/><path fill="#D811AD" d="M44.246 58.18c-.686-.854-.052-1.906.92-2.244 1.504-.523 2.952-.022 3.533.712 1.558 1.967-2.79 3.6-4.453 1.531M36.879 57.908c.746-.8.19-1.896-.753-2.304-1.462-.632-2.943-.238-3.576.45-1.7 1.849 2.518 3.796 4.329 1.854"/><path fill="#fff" d="m60.976 43.885-.393 3.358-.043.358-39.137-1.437-.017-.36-.146-3.377zM57.339 74.9l-.082.699-.354 3.015-34.146-1.253-.133-3.034-.03-.703z"/><path fill="#E38921" d="m30.36 63.616.905 2.018a.39.39 0 0 0 .287.224l2.175.398a.391.391 0 0 1 .192.675l-1.639 1.484a.39.39 0 0 0-.125.342l.294 2.192a.391.391 0 0 1-.583.392l-1.918-1.1a.39.39 0 0 0-.364-.013l-1.994.956a.391.391 0 0 1-.552-.433l.453-2.164a.39.39 0 0 0-.1-.35l-1.525-1.601a.391.391 0 0 1 .241-.659l2.199-.238a.39.39 0 0 0 .302-.203l1.05-1.946a.391.391 0 0 1 .702.026M51.028 64.375l.905 2.017c.053.118.16.202.287.225l2.175.398a.391.391 0 0 1 .192.674l-1.639 1.485a.4.4 0 0 0-.125.342l.294 2.192a.391.391 0 0 1-.583.391L50.616 71a.39.39 0 0 0-.364-.013l-1.994.956a.391.391 0 0 1-.552-.433l.453-2.164a.39.39 0 0 0-.099-.35l-1.526-1.6a.391.391 0 0 1 .241-.66l2.199-.237a.39.39 0 0 0 .302-.203l1.05-1.946a.392.392 0 0 1 .702.025M40.806 60.957l.905 2.018a.39.39 0 0 0 .286.224l2.176.398a.391.391 0 0 1 .192.675l-1.64 1.484a.39.39 0 0 0-.125.342l.294 2.192a.391.391 0 0 1-.582.391l-1.919-1.1a.39.39 0 0 0-.364-.013l-1.993.957a.391.391 0 0 1-.553-.433l.454-2.165a.39.39 0 0 0-.1-.35l-1.526-1.6a.391.391 0 0 1 .242-.66l2.198-.237a.39.39 0 0 0 .303-.203l1.05-1.946a.392.392 0 0 1 .702.026"/><path fill="#D811AD" d="M55.766 88.325c-.16 1.343-1.171 2.336-2.343 2.293l-28.077-1.031c-.527-.02-1.002-.246-1.381-.616 3.084-10.928 12.416-5.468 21.977-10.76 7.914-4.383 10.4-32.05 10.5-44.662 5.735.207 5.439.212 5.624.188.086.637.434-2.932-6.3 54.588" opacity=".5"/><g fill="#0A1640" opacity=".25"><path d="M64.194 31.517a2.316 2.316 0 0 1-2.399 2.229l-39.177-1.438c.207-.836 1.122-2.998 5.218-4.442 3.13-1.103 8.123-1.788 16.084-1.133 7.642.629 11.877-.583 14.169-2.387l.304.011a2.09 2.09 0 0 1 1.852 1.285l1.438 3.466.282.01a2.318 2.318 0 0 1 2.23 2.398M53.288 90.605l-1.17 3.033a3.2 3.2 0 0 1-3.104 2.045l-19.69-.723a3.3 3.3 0 0 1-.75-.115c1.874-1.306 4.73-1.74 6.637-2.052 5.234-.849 11.324.336 15.463-2.28q.002.001.004-.004z"/></g><path fill="#0A1640" d="M35.408 51.152c-.864-.022-1.542.62-1.585 1.48-.04.796.653 1.558 1.512 1.573.85.016 1.541-.605 1.571-1.503.034-.855-.616-1.527-1.498-1.55M46.175 51.546c-1.033-.015-1.552.792-1.606 1.478-.059.761.673 1.573 1.446 1.58 2.15.024 2.13-3.029.16-3.058M42.648 52.67a.433.433 0 0 0-.392.472c.094 1.007-.216 1.813-.85 2.21-.444.278-.965.289-1.387.034-.619-.374-.923-1.248-.835-2.396a.433.433 0 1 0-.864-.066c-.114 1.486.342 2.654 1.251 3.204q.217.13.452.206c.603.192 1.275.109 1.844-.247.907-.569 1.375-1.7 1.252-3.025a.433.433 0 0 0-.471-.392"/><path fill="#0A1640" d="m56.197 88.375 6.307-53.797q.028-.24.022-.481a2.74 2.74 0 0 0 2.1-2.563 2.745 2.745 0 0 0-2.645-2.848h-.004l-1.333-3.21a2.53 2.53 0 0 0-2.235-1.55l-33.144-1.218c-.98-.035-1.9.508-2.344 1.384l-1.563 3.103h-.005a2.73 2.73 0 0 0-1.972.733 2.73 2.73 0 0 0-.875 1.913 2.746 2.746 0 0 0 1.906 2.718 4 4 0 0 0-.013.473l2.347 54.115c.035.826.37 1.605.917 2.135.303.295.649.506 1.021.625.137.044.28.07.424.09l.858 2.823a3.63 3.63 0 0 0 3.343 2.574l19.69.723a3.64 3.64 0 0 0 3.523-2.323l1.064-2.755c1.324-.049 2.431-1.155 2.61-2.664M23.694 24.482c.29-.575.895-.932 1.538-.909l33.144 1.217q.228.01.442.077c.456.146.837.487 1.026.941l1.18 2.842-38.714-1.421zm-4.323 5.39a1.87 1.87 0 0 1 .6-1.31c.367-.342.847-.52 1.35-.502l.28.01h.001l20.032.736 20.313.745a1.89 1.89 0 0 1 1.31.599 1.881 1.881 0 0 1-1.447 3.163l-40.628-1.492a1.89 1.89 0 0 1-1.308-.598 1.9 1.9 0 0 1-.503-1.351M49.03 95.251l-19.69-.723a2.75 2.75 0 0 1-2.546-1.96l-.767-2.523 26.635.978-.95 2.458a2.77 2.77 0 0 1-2.682 1.77m4.409-5.066-.105-.004c-.01-.001-.02-.008-.03-.008L25.45 89.15c-.01 0-.02.006-.03.006l-.058-.002c-.4-.013-.779-.184-1.096-.493-.39-.378-.63-.944-.655-1.551l-2.347-54.116q-.006-.151.005-.302l17.546.644 22.847.839q0 .15-.018.3l-6.308 53.798c-.134 1.125-.95 1.947-1.897 1.912M82.462 43.25c.35 2.271-2.31 2.625-3.975 3.128-.09.03-.166.068-.258.06-.963-2.597-1.712-5.19-2.635-7.813l.008-.016c1.653-1.105 4.368-1.943 5.215.603.212.638.17 1.346.032 1.96-.023.121.026.156.136.22.675.433 1.334.82 1.477 1.858m-3.131-3.568a.84.84 0 0 0-.697-.236c-.326.045-.714.136-.9.337.152.341.201.906.515 1.395.474-.094 1.119-.245 1.206-.78.042-.216.081-.52-.124-.716m.967 3.1a.83.83 0 0 0-.618-.224c-.31.015-.621.144-.917.204.034.481.193 1.3.563 1.581l.027.004c.421-.14 1.005-.245 1.19-.711.096-.285-.056-.626-.245-.854M88.21 42.184c.137.497.25 1.062.215 1.557-1.6.31-3.28.77-4.821.945-.548-2.725-1.216-5.317-1.604-8.038 1.802-.46 4.836-1.119 4.85-1.049.192.535.224 1.117.335 1.67l.003.01c-.955.424-2.035.458-3.05.76l-.036.008-.01.014c.105.456.099.971.29 1.372l.013.01c.477-.06.968-.17 1.452-.256l.003.012c.188.512.224 1.055.351 1.628-.455.226-1.257.252-1.394.415.01.475.183 1.1.294 1.469l.014.01c1.034-.209 2.028-.31 3.09-.561zM93.524 37.63c-.553.142-1.218.247-1.792.138.118-.888-1.462-1.08-1.518-.173-.027.11.006.216.027.323.164.371.481.428.819.448a2.93 2.93 0 0 1 2.172 1.081c.621.67.719 1.695.407 2.552-.3 1.01-1.208 1.52-2.19 1.566-1.401.082-2.993-.687-3.025-2.212l-.003-.035-.003-.036c.554-.13 1.29-.108 1.826-.165.145 1.01 1.891.887 1.606-.207-.159-.757-1.112-.785-1.79-.86a1.74 1.74 0 0 1-.847-.338c-1.586-1.274-1.04-3.51.435-4.27.75-.387 1.87-.373 2.663-.09.798.33 1.352 1.065 1.226 2.278zM99.75 37.048c-.297-.072-.705-.066-1.46-.063h-.025l-.012-.001c0 .012-.012.023-.013.035-.057.226-.083 1.1-.212 6.335v.012l-.001.012c-.59.07-1.388-.072-1.967 0-.03-.146.19-1.91.19-6.384l-.011-.012c-.363-.208-1.241-.138-1.43-.206-.055-.122-.06-1.129.033-1.88 0-.013-.012-.014-.011-.026 1.629.058 3.415.074 5.047.325.013.528-.02 1.282-.128 1.853M76.954 57.59c.7 2.187-1.87 2.952-3.436 3.71-.085.043-.154.093-.245.1-1.358-2.414-2.502-4.857-3.824-7.303l.005-.016c1.46-1.35 4.009-2.604 5.244-.22.309.596.377 1.302.337 1.93-.003.122.05.148.17.195.734.321 1.445.6 1.749 1.603m-3.65-3.035a.84.84 0 0 0-.726-.123c-.314.095-.682.245-.834.472.203.313.339.863.726 1.297.453-.166 1.066-.417 1.068-.958.008-.22-.002-.525-.235-.688m1.44 2.911a.83.83 0 0 0-.645-.125c-.305.063-.59.24-.873.345.109.47.394 1.254.804 1.473l.026-.001c.394-.204.953-.4 1.065-.889.049-.295-.154-.608-.376-.803M82.29 55.49c.24 1.035-.118 2.036-1.158 2.536-1.226.593-2.981.616-3.548-.747-.731-1.979-1.401-4.03-2.166-5.997l-.015-.007.011-.005c.461-.17 1.11-.486 1.606-.529l.005.011a48 48 0 0 0 2.141 5.483c.484.653 1.47.172 1.362-.567-.586-1.828-1.31-3.72-1.91-5.48.403-.186 1.216-.653 1.654-.572.8 1.89 1.516 3.861 2.017 5.873M87.188 50.346c.14.226.208.468.278.71.138.743.325 1.487.353 2.232.002.01-.009.014-.007.026-.097.995-.477 1.946-.899 2.82-1.018.277-2.08.527-3.06.758l-.008.014c-.918-2.381-1.374-5.265-2.07-7.957.01-.014.015-.04.025-.055.833-.43 1.893-.532 2.783-.779.531.011 1.115.292 1.502.681.461.446.818.965 1.103 1.55m-1.243 1.413c-.206-.456-.483-1.006-1.053-1.07a2.8 2.8 0 0 0-.87.218l-.024.006-.011.002.01.047c.256.826.429 1.98.735 3.016.21.11.537-.017.81-.117.083-.008.118-.065.192-.12.13-.129.214-.296.274-.458.173-.47.2-.982-.063-1.524M93.346 49.591c.112.24.15.49.191.739.048.754.144 1.515.082 2.257.002.012-.011.013-.01.025-.217.977-.707 1.875-1.231 2.694-1.044.152-2.129.272-3.13.383l-.01.014c-.625-2.475-.731-5.393-1.098-8.15.01-.013.02-.037.03-.051.88-.327 1.944-.3 2.857-.438.527.074 1.073.423 1.41.856.405.497.695 1.056.909 1.671m-1.403 1.254c-.15-.478-.36-1.058-.917-1.188a2.9 2.9 0 0 0-.892.11l-.023.003-.012.001.006.048c.155.85.187 2.017.366 3.082.196.135.536.05.819-.019.084.003.126-.05.206-.095a1.25 1.25 0 0 0 .326-.422c.227-.447.316-.951.121-1.52M96.622 46.75l.001.048c.054 2.744-.06 5.599.15 8.316-.258.268-1.845.047-2.18.15.173-2.892-.303-5.82-.068-8.509v-.024c.083-.013.383.017.492.015.287.007.599.036 1.318.01zM102.54 53.897c-.003.517-.045 1.09-.211 1.56-1.624-.133-3.366-.14-4.898-.385.205-2.773.257-5.449.615-8.174 1.859.041 4.957.221 4.952.293.043.568-.084 1.136-.125 1.697l-.002.012c-1.031.153-2.082-.106-3.14-.088l-.036-.002-.013.01c-.022.468-.168.962-.092 1.4l.01.013c.477.07.979.096 1.468.144v.012c.044.544-.068 1.076-.099 1.663-.5.095-1.279-.095-1.455.025-.118.46-.118 1.108-.11 1.493l.01.014c1.052.077 2.037.246 3.127.29zM108.89 50.942c-.572-.012-1.24-.09-1.764-.349.353-.823-1.117-1.434-1.416-.576-.056.1-.052.21-.06.318.058.402.348.543.669.653a2.93 2.93 0 0 1 1.8 1.625c.418.813.236 1.827-.296 2.568-.562.894-1.573 1.14-2.531.92-1.371-.3-2.697-1.468-2.317-2.945l.007-.036.006-.035c.568.023 1.272.243 1.804.333-.133 1.012 1.582 1.364 1.603.233.05-.772-.86-1.056-1.495-1.311a1.75 1.75 0 0 1-.724-.554c-1.185-1.654-.057-3.66 1.569-3.995.827-.172 1.901.143 2.589.629.679.533 1.016 1.39.567 2.524z"/><path fill="#845EF9" d="M117.944 34.43c-.434-.898-.841-1.65-.896-2.321-.054-.665.81-.965 1.159-.462.57.822.979 2.398 1.237 2.385.255-.013.253-.355.325-.57.4-1.197.545-1.959.949-2.694.306-.559 1.252-.164 1.208.39-.044.534-.286 1.073-1.072 3.658-.26.856.63.432 1.757.117.639-.178 1.531-.158 1.607.499.064.541-.446.695-.969.858-2.758.857-2.664.397.278 2.326.541.354 1.175.837.774 1.37-.408.543-1.017.066-2.314-.696-.17-.1-.31-.258-.486-.343-.389-.19-.703-.523-1.148-.602-.231.48.124.89.172 1.337.077.716.509 1.179.134 1.847-.146.26-.486.344-.71.156-1.096-.92-.714-3.101-1.622-2.112-1.174 1.279-1.398 1.618-1.991 2.047-.559.405-1.195-.18-.867-.782.544-.997 2.171-2.459 2.03-2.724-.148-.277-2.581.808-3.324.598-.537-.152-.628-.69-.252-1.002.572-.475.942-.484 2.771-1.048.142-.044.336-.07.33-.27-.005-.178-.18-.247-.318-.315-.701-.343-2.291-1.093-2.36-1.139-.653-.433-.184-1.557.609-1.21 2.754 1.207 3.392 1.817 2.968.714zM135.602 40.88c-.429-.957-1.078-2.172-.325-2.443.525-.188.71.298.954.867.141.327.438 1.29.603 1.286.227-.006.135-.153.787-1.93.19-.521.429-1.112.927-.87.679.331.406.525-.582 3.471-.232.693.504.367 1.429.136.526-.13 1.253-.093 1.3.444.04.444-.382.558-.81.678-2.269.635-2.182.262.173 1.903.433.302.939.71.6 1.135-.585.734-2.41-1.27-3.183-1.43-.199.386.08.729.109 1.094.047.587.389.972.067 1.51-.335.56-.895-.072-1.083-.709-.485-1.64-.197-1.478-1.92.252-.345.346-.804.742-1.148.4-.37-.368.023-.817.398-1.248 1.663-1.914 1.982-1.82-.797-1.16-1.227.29-1.581-.815.018-1.219 2.375-.6 2.176-.475-.036-1.612-.207-.107-.952-.357-.576-1.003.138-.237.387-.33.672-.195 2.216 1.047 2.723 1.561 2.404.65zM134.733 60.3c-.856-.365-1.603-.643-2.052-1.08-.446-.433-.024-1.174.529-1.035.904.228 2.159 1.083 2.332.915.17-.165-.042-.404-.123-.6-.453-1.084-.819-1.708-.986-2.472-.128-.58.778-.883 1.087-.467.297.402.456.923 1.491 3.225.343.76.707-.083 1.305-.995.339-.518.978-1.05 1.434-.637.377.342.112.764-.154 1.197-1.41 2.293-1.626 1.912 1.622 1.462.597-.083 1.338-.133 1.384.486.048.65-.734.682-2.052.931-.181.035-.375.01-.551.058-.389.106-.814.064-1.175.282.132.479.632.548.94.833.494.455 1.081.515 1.228 1.213.057.272-.13.54-.403.546-1.331.027-2.403-1.74-2.434-.488-.047 1.926.093 3.143-.689 3.115-.596-.021-.614-.703-.635-1.355-.09-2.903.26-3.076-1.568-.355-.779 1.16-1.977.575-.93-1.035 1.527-2.349 1.454-2.086-1.281-1.325-.177.05-.352.12-.534.144-.723.097-1.085-.98-.315-1.223 2.663-.839 3.501-.8 2.521-1.32q.004-.01.009-.02"/></svg>