<svg xmlns="http://www.w3.org/2000/svg" width="125" height="157" fill="none"><path fill="#fff" d="M66.744 155.24a4 4 0 0 1-.383-.03l-55.146-7.018a3.96 3.96 0 0 1-3.428-4.449l5.123-38.875L3.277 94.65a3.96 3.96 0 0 1-1.06-3.099l1.058-10.99a3.96 3.96 0 0 1 1.986-3.065l14.267-8.113a3.96 3.96 0 0 1-1.842-3.224l-.237-7.42-6.2-.83a3.963 3.963 0 0 1-1.136-7.525l8.381-3.87.274-9.453a3.962 3.962 0 0 1 7.323-1.982l4.288 6.877 5.375-1.174 2.2-6.812-6.506-7.106a3.96 3.96 0 0 1-.889-3.76l5.46-19.192a3.964 3.964 0 0 1 4.494-2.819l51.833 9.085.283.047a3.96 3.96 0 0 1 2.505 1.513l4.152 5.47.779.05 4.734-8.187a3.962 3.962 0 0 1 7.385 1.738l.503 8.088 8.665 2.493a3.962 3.962 0 0 1 .41 7.473l-7.265 2.986.008 7.078a3.962 3.962 0 0 1-7.023 2.522l-1.19-1.446-14.36 100.704a3.96 3.96 0 0 1-2.077 2.946l-21.15 11.13a3.94 3.94 0 0 1-1.961.457"/><path fill="#A278FF" d="m92.104 26.593-7.753 54.372-4.339 15.647.285 12.793-2.004 14.05-18.541 9.759-48.346-6.153 4.707-35.718-9.577-10.16.928-9.635 21.182-12.045 9.69-29.989-7.068-7.72 4.786-16.825 45.442 7.965.275.046z"/><path fill="#2C1845" d="m31.268 21.793 50.503-8.813-4.024 16.196z" opacity=".18"/><path fill="#2C1845" d="m81.77 12.98-.275-.046-3.808 16.349 2.517 7.479-8.613 30.02-14.71 10.95-1.4 11.123 8.265 10.765-.166 1.382 1.546 2.662c2.073-1.18 19.228-22.698 19.228-22.698l7.75-54.372zM76.555 109.053c-1.709 1.91-9.78 11.751-9.78 11.751l-6.661 9.374-.361 3.036 18.541-9.759 2.005-14.05z"/><path fill="#2C1845" d="m31.268 21.794 46.479 7.383 2.457 7.585-41.867-7.248z" opacity=".37"/><path fill="#2C1845" d="m28.647 59.502 42.945 7.28-14.723 11.377-49.405-6.611z" opacity=".25"/><path fill="#2C1845" d="m6.536 81.184 48.944 7.67 8.267 10.766-47.634-8.276z" opacity=".34"/><path fill="#FF92DF" d="M45.025 19.5c.353-.274 5.803-4.559 3.905-6.328-1.229-1.145-2.441-.039-3.128.854-.408-1.05-1.26-2.452-2.761-1.699-2.32 1.165 1.705 6.809 1.966 7.171v.017l.008-.007.006.009zM55.366 21.036c.353-.274 5.803-4.559 3.904-6.328-1.228-1.145-2.44-.039-3.127.853-.408-1.05-1.261-2.452-2.762-1.699-2.319 1.165 1.706 6.809 1.967 7.172v.016l.007-.006c.003.002.006.008.006.008zM65.707 22.572c.353-.275 5.803-4.56 3.904-6.329-1.228-1.145-2.44-.039-3.127.854-.408-1.05-1.26-2.453-2.762-1.7-2.319 1.165 1.705 6.809 1.967 7.172l-.001.017.008-.007.006.008zM84.354 80.966l-1.345 9.427-.03.182-20.692 21.287.2-1.678 1.092-9.182z"/><path fill="#F4C46C" d="m83.01 90.393-.03.182-1.289 9.057-.064.452-20.438 21.024.233-1.917.866-7.329.201-1.678z"/><path fill="#36DAD9" d="m81.69 99.632-.064.452-1.328 9.321-20.185 20.772 1.075-9.069.233-1.917z"/><path fill="#FFE6DE" d="m32.228 58.214 8.253-24.985 35.794 5.781-7.94 25.317z"/><path fill="#FF85AF" d="M55.471 40.53c-7.485-1.274-14.604 3.746-16.022 11.249l9.513 1.62c.512-2.2 2.832-4.122 5.07-3.741 2.236.38 3.57 2.924 3.325 5.17l9.512 1.62c1.144-7.55-3.912-14.643-11.398-15.918"/><path fill="#FFAD9F" d="M55.184 42.226c-6.559-1.116-12.794 3.276-14.05 9.84l7.828 1.333c.513-2.2 2.833-4.122 5.07-3.74 2.237.38 3.57 2.923 3.326 5.17l7.828 1.332c.986-6.61-3.444-12.818-10.003-13.935"/><path fill="#F4C46C" d="M54.86 44.122c-5.524-.94-10.773 2.746-11.855 8.263L48.96 53.4c.512-2.2 2.662-4.002 4.9-3.62 2.236.38 3.74 2.804 3.495 5.05l5.953 1.014c.803-5.565-2.928-10.78-8.45-11.721"/><path fill="#36DAD9" d="M54.482 46.342c-4.307-.733-8.404 2.126-9.273 6.418l3.752.64c.513-2.201 2.733-4.27 4.97-3.89 2.237.381 3.67 3.073 3.425 5.318l3.752.64c.6-4.34-2.32-8.393-6.626-9.126"/><path fill="#A278FF" d="M54.137 48.366c-3.2-.545-6.243 1.561-6.921 4.736l1.745.297c.513-2.2 2.639-3.65 4.876-3.268 2.237.38 3.763 2.452 3.52 4.698l1.745.297c.41-3.22-1.765-6.215-4.965-6.76"/><path stroke="#2C1845" stroke-miterlimit="10" stroke-width="1.098" d="m30.749 61.927-.228 7.723"/><path fill="#FF92DF" d="M34.403 60.908a3.38 3.38 0 1 1-6.757-.199 3.38 3.38 0 0 1 6.757.2M47.036 69.373c-.026.866-1.883 1.515-4.15 1.448-2.265-.067-4.082-.823-4.056-1.69s1.883-1.515 4.149-1.448 4.082.824 4.057 1.69M58.379 69.708c-.026.866-1.884 1.515-4.15 1.448-2.265-.067-4.082-.824-4.057-1.69.026-.867 1.884-1.515 4.15-1.448s4.082.824 4.057 1.69"/><path fill="#2C1845" d="M35.227 106.402q-.03.547-.178 1.155a4.5 4.5 0 0 1-.44 1.132q-.294.526-.747.899a2.17 2.17 0 0 1-1.092.465q-.474.068-.88-.067a2.5 2.5 0 0 1-.76-.409 3.4 3.4 0 0 1-.637-.658 5.619 5.619 0 0 1-1.031-2.461 7 7 0 0 1-.064-1.156q.012-.624.127-1.25.115-.628.344-1.221a4.4 4.4 0 0 1 .588-1.076q.36-.48.85-.811.489-.33 1.14-.424.414-.06.793.05.379.108.676.337.299.229.5.574.2.345.258.748l.015.107q.03.212.059.529.027.317-.026.613a1.4 1.4 0 0 1-.214.532q-.16.235-.503.284-.414.06-.654-.098-.24-.16-.304-.598a5 5 0 0 1-.036-.332 5 5 0 0 0-.035-.334.75.75 0 0 0-.139-.372q-.103-.124-.363-.087a.85.85 0 0 0-.505.266q-.21.224-.343.557a4 4 0 0 0-.207.743 7 7 0 0 0-.1.817 7 7 0 0 0 .047 1.413q.03.213.094.487.063.276.177.518.113.245.293.399a.51.51 0 0 0 .428.12q.426-.061.648-.366.222-.303.257-.731-.17 0-.336-.03a1 1 0 0 1-.319-.111.8.8 0 0 1-.254-.218.7.7 0 0 1-.133-.336q-.053-.368.166-.61t.54-.399q.322-.155.673-.235t.564-.112q.154-.021.453-.04t.6.016q.302.036.534.146.234.112.266.336.066.45-.131.81-.193.362-.66.489M40.62 108.923q-.721.104-1.306-.18-.584-.285-1.022-.843a5 5 0 0 1-.724-1.34 8.15 8.15 0 0 1-.473-3.375q.06-.877.34-1.618t.797-1.263q.517-.52 1.322-.636.78-.113 1.368.23.587.346.997.969.41.624.665 1.432.255.809.375 1.637a8 8 0 0 1 .068 1.771 5 5 0 0 1-.348 1.53 3 3 0 0 1-.791 1.128q-.511.448-1.268.558m-.808-6.624a.51.51 0 0 0-.36.233q-.135.2-.199.505a3 3 0 0 0-.06.674q.004.368.058.735.059.413.172.82t.267.722q.154.317.343.494.189.18.413.147.261-.038.377-.32a2.3 2.3 0 0 0 .152-.662 5 5 0 0 0 .01-.775 9 9 0 0 0-.065-.655 6 6 0 0 0-.138-.668 3.6 3.6 0 0 0-.23-.637 1.6 1.6 0 0 0-.322-.468.48.48 0 0 0-.418-.145M28.589 118.695q-.03.549-.178 1.155-.15.61-.44 1.133-.294.526-.747.899a2.17 2.17 0 0 1-1.093.466 1.9 1.9 0 0 1-.88-.068 2.6 2.6 0 0 1-.76-.409 3.4 3.4 0 0 1-.637-.658 5.651 5.651 0 0 1-1.03-2.46 7 7 0 0 1-.065-1.156q.012-.625.128-1.251.114-.626.344-1.221.228-.595.587-1.075.36-.481.85-.812a2.7 2.7 0 0 1 1.14-.423q.415-.06.793.049.378.108.677.337.298.23.499.575.2.345.259.748l.015.106q.03.213.059.529.028.315-.027.615a1.4 1.4 0 0 1-.213.531q-.16.234-.503.284-.414.06-.654-.099t-.304-.597a5 5 0 0 1-.035-.333 5 5 0 0 0-.037-.333.76.76 0 0 0-.137-.373q-.104-.122-.363-.086a.84.84 0 0 0-.506.266q-.21.223-.342.556-.134.334-.208.743a7 7 0 0 0-.108 1.597q.018.373.055.633.03.213.094.488t.177.517q.114.245.293.399.18.156.428.12.426-.061.648-.365t.257-.731a2 2 0 0 1-.336-.03 1.1 1.1 0 0 1-.318-.111.8.8 0 0 1-.255-.218.7.7 0 0 1-.133-.337q-.053-.367.165-.609.22-.243.541-.398t.672-.236.564-.111q.155-.023.453-.042.3-.018.6.017.302.035.535.146.234.112.266.336.066.45-.13.81-.195.36-.66.487M34.035 112.61a.8.8 0 0 1-.043.416q-.075.192-.223.341a1.8 1.8 0 0 1-.337.26 2 2 0 0 1-.373.174q.168 1.34.27 2.595.102 1.254.128 2.602l.07-.01a1.8 1.8 0 0 1 .38-.012 1 1 0 0 1 .352.095q.162.079.272.214t.14.348a.7.7 0 0 1-.103.498 1.5 1.5 0 0 1-.4.408q-.258.182-.588.326t-.665.247a9 9 0 0 1-.64.17 7 7 0 0 1-.493.095 7 7 0 0 1-.351.039q-.21.018-.4-.015a.85.85 0 0 1-.34-.132.42.42 0 0 1-.176-.301.96.96 0 0 1 .037-.458q.072-.21.215-.387t.338-.303q.193-.125.4-.203a81 81 0 0 0-.033-1.317 18 18 0 0 0-.094-1.321l-.144-1.339-.143-1.326a2 2 0 0 1-.28.065q-.166.023-.36.016a1.3 1.3 0 0 1-.373-.073 1 1 0 0 1-.31-.18.5.5 0 0 1-.16-.315.81.81 0 0 1 .243-.711q.3-.31.747-.518.446-.21.923-.332.479-.124.773-.166.166-.024.442-.04.276-.015.554.03.279.044.494.158a.46.46 0 0 1 .25.362M41.448 113.391a2.9 2.9 0 0 1-.167 1.522q-.285.705-.841 1.292.23.257.486.607a7 7 0 0 1 .857 1.549q.16.406.213.761.055.379-.086.707t-.578.39q-.367.054-.684-.263a4 4 0 0 1-.595-.778 14 14 0 0 1-.523-.945 7 7 0 0 0-.443-.77q-.202.101-.39.219a10 10 0 0 1-.39.232q.025.262.061.721.036.46 0 .924a2.6 2.6 0 0 1-.189.824q-.153.36-.508.412a.69.69 0 0 1-.65-.233 2.1 2.1 0 0 1-.41-.714 5 5 0 0 1-.23-.879q-.077-.455-.115-.713a26 26 0 0 1-.133-1.099q-.053-.541-.134-1.098a30 30 0 0 0-.164-1.015q-.09-.506-.166-1.027-.016-.119-.044-.302a4 4 0 0 1-.037-.381 9 9 0 0 1-.012-.379.8.8 0 0 1 .042-.295q.083-.266.47-.551.39-.284.865-.53.48-.243.944-.413.465-.17.701-.203a2.4 2.4 0 0 1 1.098.071q.494.158.857.499t.589.821q.225.48.306 1.037m-2.165.48q-.045-.307-.21-.448-.166-.139-.484-.093a1.5 1.5 0 0 0-.467.152 3 3 0 0 0-.417.253q.18.929.303 1.853a4 4 0 0 0 .478-.286 2.3 2.3 0 0 0 .433-.389q.192-.22.3-.477.108-.258.064-.565M49.38 116.935q.041.296-.163.591a2.5 2.5 0 0 1-.56.564 5.3 5.3 0 0 1-.804.496q-.45.228-.895.407a9 9 0 0 1-.845.297q-.401.118-.637.153-.225.032-.485.027a.85.85 0 0 1-.446-.123q-.105-.056-.212-.296a7 7 0 0 1-.221-.572 11 11 0 0 1-.22-.723q-.104-.39-.187-.765a29 29 0 0 1-.148-.691 10 10 0 0 1-.09-.495 17 17 0 0 1-.085-.717 30 30 0 0 1-.077-.908 22 22 0 0 1-.045-1.95c.008-.305.033-.578.074-.827a2.4 2.4 0 0 1 .163-.591q.178-.351.522-.401a.57.57 0 0 1 .426.101q.188.137.325.377t.235.545a7 7 0 0 1 .272 1.175l.06.414q.132.923.221 1.835.09.911.222 1.834l.066.461q.509-.242 1.115-.479.605-.24 1.174-.321.2-.03.411-.035.21-.007.382.047.17.053.292.188a.7.7 0 0 1 .16.382M52.62 113.074q.029.19.05.518.024.329.03.709.008.38-.027.777a6 6 0 0 1-.106.728q-.075.332-.211.55-.138.22-.35.249-.26.039-.481-.191a2.3 2.3 0 0 1-.4-.606 6 6 0 0 1-.323-.854 14 14 0 0 1-.41-1.794 42 42 0 0 1-.093-.61l-.077-.538a8.6 8.6 0 0 1-.08-1.438q.012-.37.1-.686.087-.314.274-.528a.8.8 0 0 1 .506-.26.57.57 0 0 1 .502.175q.218.216.386.585.169.369.289.834.122.466.204.919.083.452.135.845.05.391.083.616m.423 4.53a.64.64 0 0 1-.045.363.8.8 0 0 1-.213.283 1.2 1.2 0 0 1-.31.196q-.171.073-.348.099a1 1 0 0 1-.517-.065.47.47 0 0 1-.299-.397.58.58 0 0 1 .054-.34 1 1 0 0 1 .218-.292q.138-.127.314-.214.174-.084.34-.109a.96.96 0 0 1 .517.064q.245.103.289.412"/><path fill="#F4C46C" d="m90.793 19.32 5.227-9.04.594 9.537 9.95 2.863-8.525 3.503.009 8.536-6.076-7.382-8.811 4.75 4.226-8.455-6.818-4.954zM53.484 87.452l4.246-7.342.481 7.746 8.083 2.325-6.924 2.846.007 6.933-4.936-5.996-7.157 3.859 3.434-6.868-5.539-4.024zM20.76 43.618l.303-10.438 5.055 8.108 10.115-2.21-5.835 7.135 4.065 7.505-8.855-3.607-5.494 8.368-.3-9.448-8.354-1.118z"/></svg>