<svg xmlns="http://www.w3.org/2000/svg" width="130" height="140" fill="none"><path fill="#845EF9" d="M98.6 124.443c-.488.262-.982.525-1.47.795-4.075 2.215-9.113 3.336-12.924 3.091-1.09-.068-1.984-.532-2.667-1.427-2.947-3.843-4.419-12.899-3.805-16.354.188-1.027.726-1.733 1.677-2.241q.575-.3 1.214-.544a11.9 11.9 0 0 1 4.57-.745c.976.043 1.927.219 2.79.564 1.66.651 2.104 2.378 2.455 3.993.438 1.99.35 3.98 5.307 4.337 5 .357 8.423 5.52 2.854 8.531M57.312 129.6q-.836-.058-1.67-.107c-4.632-.294-9.49-2.028-12.587-4.262-.889-.638-1.396-1.515-1.496-2.628-.45-4.826 3.13-13.275 5.49-15.872.7-.77 1.532-1.083 2.61-1.002q.677.049 1.364.201c1.49.307 2.991.932 4.255 1.815.789.55 1.49 1.201 2.028 1.933 1.052 1.434.507 3.136-.05 4.688-.695 1.915-1.827 3.555 2.178 6.497 4.043 2.967 4.193 9.156-2.122 8.737"/><path fill="#FFCE00" d="M85.193 107.022c-1.541-.068-3.144.21-4.57.74-.027-2.105-.265-4.183-.747-6.172a24 24 0 0 0-.679-2.282c1.97.116 3.775-.577 4.91-1.419q.374 1.337.617 2.703c.374 2.145.516 4.298.469 6.43M84.935 116.803l.61.604a.38.38 0 0 0 .333.102l.843-.16c1.12-.214 1.998.951 1.486 1.969l-.385.768a.37.37 0 0 0 .006.347l.413.753c.55 1-.287 2.195-1.414 2.022l-.849-.129a.37.37 0 0 0-.328.113l-.588.626c-.781.831-2.177.405-2.36-.721l-.14-.847a.37.37 0 0 0-.209-.278l-.777-.366c-1.031-.486-1.057-1.944-.044-2.467l.763-.394a.38.38 0 0 0 .2-.285l.108-.853c.143-1.131 1.521-1.606 2.332-.804M59.099 99.689c-.252.855-.55 1.69-.883 2.505a32.8 32.8 0 0 1-2.94 5.547 11.6 11.6 0 0 0-4.257-1.812c1.052-1.759 1.921-3.586 2.56-5.466.244-.734.454-1.467.617-2.214 1.338 1.134 3.008 1.643 4.903 1.44M101.45 29.712c-3.79-3.67-1.94-9.534 3.786-9.89 4.334-.269 8.59 3.044 9.07 5.44.615 3.077-6.059 2.8-9.424-.045-.288-.243-.541-.514-.658-.35-.096.136.172.402.352.572 1.893 1.796 3.662 1.537 5.73 3.359 1.208 1.064 1.637 2.502.19 3.233-.737.372-6.136.497-9.046-2.319M49.761 116.027l.195.836c.028.12.113.218.227.264l.8.313c1.062.417 1.185 1.87.209 2.459l-.736.444a.38.38 0 0 0-.18.298l-.05.858c-.068 1.138-1.412 1.705-2.274.958l-.65-.562a.37.37 0 0 0-.338-.079l-.831.216c-1.104.288-2.058-.815-1.615-1.866l.334-.791a.38.38 0 0 0-.03-.347l-.462-.723c-.614-.961.14-2.209 1.276-2.113l.856.073c.123.01.242-.04.32-.135l.545-.664c.726-.882 2.145-.55 2.404.561"/><path fill="#D811AD" d="M92.024 130.828c1.113 1.719.636 4.132-.84 5.41-4.731 4.096-10.54-2.562-6.26-6.659 1.21-1.159 1.955-.707 3.088-1.018 1.221-.335 3.016.356 3.814 1.9q.096.183.198.367M97.577 125.434c1.236-.669 1.65-1.025 2.608-.845 4.44.835 5.457 7.091 1.039 8.846-2.245.892-5.72-.406-6.038-3.069-.508-1.237-.172-2.384.371-3.511.236-.49.539-.568 2.041-1.381zM48.294 131.672c.027 2.048-1.662 3.837-3.591 4.132-6.187.948-7.558-7.781-1.753-8.97 1.642-.336 2.03.443 3.155.783 1.213.366 2.364 1.907 2.216 3.639q-.015.209-.027.416M55.866 130.064c1.403.092 1.942.011 2.658.674 3.313 3.07.843 8.907-3.83 8.04-2.376-.441-4.626-3.39-3.477-5.813.229-1.317 1.124-2.11 2.183-2.774.461-.29.759-.195 2.464-.083zM74.327 16.525c-.185-2.974 3.47-5.001 6.472-5.276.828-.076 1.649-.264 2.483-.04.133.034.271-.061.333-.204.23-.538-1.794-1.038-3.427-3.8-.307-.518-.43-1.086-.437-1.696-.02-1.555 1.678-2.077 3.169-2.156 1.832-.097 5.586.837 8.847 3.083 2.15 1.482-.34-1.798.49-4.43 1.566-4.964 11.866 5.891 12.037 12.961.005.207.044.445-.163.569-.693.412-2.416-2.884-7.375-3.528-5.867-.762-11.633 3.743-15.129 9.144-.19.293-.462.42-.803.373-2.431-.331-4.264-.81-5.85-2.807-.516-.65-.737-1.414-.647-2.193M107.67 41.39c-.662 2.046-2.512 2.474-3.8 1.405-1.788-1.48-1.397-3.622-2.212-2.668-.572.67-1.284 1.163-1.996 1.663-.467.328-.994.493-1.544.591-3.618.645-2.88-7.174 2.867-11.372 1.028-.75 1.106.246 3.746 1.22.326.12.653.257.992.313.599.099.809.472.837 1.017.085 1.682.571 2.884.963 4.035.239.702.426 2.934.147 3.795"/><path fill="#fff" d="M99.235 26.777c.781 2.947 2.56 3.049 1.487 3.87-6.423 4.903-6.729 13.255-2.207 12.114 1.073-.272 1.257-.598 2.031-1.053.271-.156.583-.06.624.537.469 7.591 2.553 9.859 3.164 15.93C105.631 71 98.359 81.972 86.551 87.608c-2.675 1.276-4.678 1.867-6.58 2.383q.297.123.55.326c5.12-1.467 6.41-2.818 6.383-1.867-.067 3.137.034 5.982-1.941 8.616a4 4 0 0 1-.856.822c-1.134.842-2.94 1.534-4.91 1.419a7.2 7.2 0 0 1-3.645-1.229c-1.942-1.297-3.368-3.354-3.66-4.08-.136-.347-.048-.598.305-.768 1.331-.645 2.675-1.243 4.067-1.725q.112-.287.286-.543a28 28 0 0 0-3.85 1.562c-2.866 1.405-4.468 2.118-7.619 4.502-2.125 1.609-4.155 2.471-5.982 2.661-1.894.204-3.564-.305-4.902-1.44-1.33-1.12-2.33-2.851-2.88-5.105-.922-3.776-2.43-6.96-5.784-10.586-2.71-2.926-4.4-7.292-3.517-11.55.183-.89-.462-.319-3.755.455-1.698.4-12.06 2.33-9.764-2.173 2.342-4.57 13.206-8.569 13.546-9.003.108-.136-.014-.32-.109-.306-.828.116-10.192 2.818-15.454 1.243-3.959-1.182-.346-4.454 3.293-6.444 4.753-2.6 9.316-3.789 10.85-4.318.102-.034.306-.367-.04-.448-.306-.068-.611-.17-.917-.184-4.243-.217-15.786-1.901-18.693-5.058-.57-.625-.509-1.467.15-2.024 2.383-1.99 8.542-2.342 11.808-2.465 1.425-.054 3.401.245 4.732-.224-.638-.97-8.935-3.653-15.61-9.58-1.277-1.134-3.741-3.158-3.728-5.032.02-1.983 1.976-2.37 3.579-2.465 9.146-.53 21.619 7.429 28.409 13.608 8.718 7.937 7.333 9.832 9.153 8.983 2.587-1.202 5.323-1.8 8.141-2.146 5.066-.61 8.902.204 9.045.21.869.041.461-.902.44-1.296-.203-5.059-.21-9.56 2.37-15.97C84.27 14.44 95.135 8.28 102.909 15.41c1.494 1.372 2.526 2.961 2.703 3.423.176.475-.394.441-1.433.658-3.945.836-5.778 4.129-4.943 7.286M96.822 125.181c-2.294 1.241-2.399 1.475-2.827.65-1.552-2.985-1.855-5.811-1.298-8.894.243-1.344.641-1.368 1.48-1.191 1.196.253 4.477.039 6.372 2.928.854 1.304.951 2.956-.275 4.214-1.172 1.203-2.033 1.577-3.43 2.333zM55.362 129.448c-2.603-.171-2.816-.029-2.74-.955.277-3.353 1.524-5.907 3.639-8.219.92-1.008 1.27-.817 1.886-.22.878.851 3.769 2.416 3.834 5.87.03 1.559-.769 3.009-2.476 3.421-1.633.394-2.56.253-4.146.148z"/><path fill="#845EF9" d="M93.26 52.41c.125-.447.35-1.043.93-.872.634.187.846 1.221.934 1.756.188 1.149.872 4.63-.996 4.831-2.106.227-1.156-4.68-.868-5.715M98.596 51.98c.67-.99 2.059.758 1.759 4.942-.105 1.468-2.157 1.934-2.188-.603-.005-.359-.033-3.654.43-4.339M88.013 52.084c.67-.99 2.059.758 1.76 4.942-.106 1.468-2.158 1.934-2.189-.604-.005-.358-.033-3.653.43-4.338M92.976 62.946c.165-.434.444-1.005 1.007-.78.613.244.728 1.294.766 1.835.08 1.16.437 4.69-1.441 4.717-2.118.03-.716-4.768-.332-5.772M98.329 63.016c.758-.924 1.979.946 1.291 5.084-.24 1.452-2.328 1.725-2.122-.804.028-.358.306-3.642.83-4.28M87.782 62.134c.758-.925 1.98.946 1.291 5.084-.24 1.451-2.328 1.724-2.122-.805.029-.358.307-3.641.83-4.28M89.785 72.815c.29-.362.73-.821 1.198-.435.509.42.297 1.455.167 1.98-.277 1.13-1.018 4.601-2.815 4.051-2.025-.62.778-4.758 1.45-5.596M94.867 73.603c.947-.73 1.715 1.367.114 5.244-.562 1.36-2.657 1.156-1.887-1.261.108-.343 1.118-3.48 1.773-3.983M84.715 70.825c.951-.725 1.71 1.375.09 5.244-.569 1.358-2.663 1.144-1.882-1.27.11-.342 1.136-3.474 1.792-3.974M83.6 81.602c.36-.292.89-.646 1.263-.17.407.52-.02 1.486-.26 1.972-.514 1.045-1.98 4.276-3.617 3.355-1.846-1.04 1.778-4.482 2.614-5.157M79.518 78.289c1.12-.418 1.236 1.813-1.439 5.044-.938 1.134-2.88.32-1.43-1.762.205-.295 2.095-2.994 2.87-3.282"/><g fill="#3C1DA1" opacity=".25"><path d="M74.328 16.454c-.133-.99.376-1.82.969-2.61.358-.477.597-.425.97-.19 5.8 3.67 9.349-2.795 16.58-3.166 3.377-.173 6.074 1.811 4.966 1.694-1.483-.155-3.406-.768-7.233.855-2.445 1.037-4.49 2.651-6.256 4.605-2.67 2.955-2.486 4.213-4.074 3.797-1.14-.299-3.189-.263-5.18-2.596-.428-.5-.83-1.23-.742-2.389M103.867 42.79c-1.652-1.398-1.478-3.559-2.147-2.738-.58.712-1.322 1.224-2.063 1.742-.468.328-.995.491-1.546.589-.879.156-1.598-.234-1.945-1.036-.462-1.069-.336-1.727.53-2.52 1.363-1.247 3.441-1.818 5.163-2.02 1.85-.216 3.337-1.39 3.731-3.512.07-.381.041-.662.334-.666.18-.003.352.076.431.244.087.185.187.389.191.587.03 1.451.507 2.796.977 4.14 1.446 4.14-1.381 7.113-3.656 5.19M83.956 128.336c-2.384-.135-3.46-2.165-4.492-4.656-1.416-3.42-2.18-8.768-2.176-10.788.003-1.663-.07-2.303.6-2.02 2.43 1.026 2.872 2.392 3.926 3.871 1.214 1.703 2.894 8.662 5.866 8.767 3.896.138 4.972-2.192 10.287-3.43a6.2 6.2 0 0 1 2.695-.022c1.54.325-.237 2.646-.762 3.162-2.314 2.271-9.6 5.474-15.944 5.116M42.791 125.267c-1.946-1.383-1.777-3.675-1.323-6.333.623-3.649 2.824-8.581 3.903-10.29.887-1.406 1.167-1.986 1.583-1.391 1.51 2.163 1.157 3.554 1.262 5.367.12 2.088-2.163 8.873.297 10.545 3.224 2.191 5.376.792 10.534 2.574a6.2 6.2 0 0 1 2.293 1.417c1.13 1.095-1.609 2.114-2.329 2.27-3.168.691-11.04-.478-16.22-4.159"/></g><g fill="#845EF9" opacity=".25"><path d="M36.123 40.122c1.022.1 1.366.199 1.483-.095.088-.221-.12-.303-.267-.364-7.435-3.067-19.762-10.79-18.962-14.922.312-1.609 1.617 1.57 9.484 4.544C45.231 35.853 41.9 39.831 44.3 47.93c1.43 4.821 3.565 6.778 6.446 8.484.18.106.37.195.545.307.223.143.219.374-.014.484-2.145 1.013-4.258 1.51-7.72 5.361-.474.528-.765 1.16-.98 1.827-.246.762-.09 1.37.543 1.85.615.466 1.294.817 2.106.79.73-.024.853.503.545.82-.772.79-2.823 3.1-3.755 2.71-.578-.241-6.363 2.43-12.09 1.487-1.151-.19-2.037-.999-1.67-2.151 1.449-4.549 13.215-9.18 13.7-9.526.17-.122.187-.452-.107-.397-.24.044-.481.085-.715.15-7.05 1.946-17.7 2.588-16.221-1.19 1.422-3.632 11.35-7.13 15.086-8.276.45-.138.709-.148.784-.416.03-.113-.074-.199-.173-.221-.338-.078-.679-.181-1.022-.196-4.316-.19-14.926-1.815-18.528-4.944-.72-.627-.548-1.768.196-2.248 2.91-1.881 9.143-2.386 12.266-2.324.87.018 1.72-.303 2.6-.188M96.905 59.12c0-5.689-.41-8.852 4.217-13.028.741-.67.403 1.203 1.934 5.973 4.739 14.758-2.452 29.3-17.345 35.934-6.11 2.722-7.583 1.76-13.744 4.883-2.456 1.245-3.942 1.922-6.871 4.133-6.505 4.91-12.029 2.758-13.662-3.438-1.135-4.308-1.73-3.89 1.159-3.26 5.959 1.298 10.901-4.55 16.175-6.513 11.771-4.382 24.122.725 27.707-16.783.62-3.026.47-4.442.47-7.9z"/><path d="M70.083 79.277c-1.02.019-1.992-.951-1.935-1.876.438-7.14 2.946-9.538 1.864-8.956-3.014 1.624-1.197 1.114-6.8 4.458-1.672.999-3.346 1.999-5.17 2.717-1.467.578-4.346 1.685-5.918 1.538-.88-.082-1.326-.455-1.564-1.288-.76-2.656 1.012-.452 6.369-3.908 5.95-3.84 9.3-9.298 19.014-7.273 1.675.349 3.257-.608 4.395-1.877 2.404-2.681 2.882-4.618 3.67-4.14.5.303.699.797.429 1.223-.735 1.163-1.609 3.999-3 6.77-1.93 3.839-5.371 9.437-9.294 11.87-.665.412-1.396.609-2.06.742M72.097 94.393c-.289-.466-.436-.904.075-1.154 1.905-.933 3.86-1.745 5.911-2.3 8.064-2.188.444-.32 2.172 6.93.23.965.975 1.629.088 1.689-3.495.35-6.472-2.306-8.246-5.166"/></g><path fill="#E38921" d="M108.084 32.465c-7.066-.523-10.206-6.04-7.83-9.92.441-.722 1.25-1.775 1.563-.993.778 1.944 2.008 2.598 2.22 3.114.468 1.144 2.413 2.118 3.566 2.54 1.354.495 3.097 1.531 3.665 2.899.323.777.086 1.45-.65 1.862-.787.44-1.651.51-2.534.498"/><path fill="#fff" d="M111.817 25.723c-1.201.734-1.415-1.078-4.679-2.633-3.522-1.68 1.02-2.634 4.485.683.866.829.721 1.628.194 1.95" opacity=".75"/><path fill="#0A1640" d="M87.042 131.39c-1.588.905-.744 3.434 1.051 3.264 1.242-.117 1.973-1.578 1.339-2.652-.455-.77-1.598-1.062-2.39-.612M98.04 130.288c.362.745 1.514 1.189 2.329.639.805-.335 1.17-1.519.679-2.317-1.189-1.933-3.966-.291-3.008 1.678"/><path fill="#0A1640" d="M111.356 28.26c2.534.012 4.499-1.384 3.598-3.687-.951-2.44-4.806-5.145-7.698-5.514-.482-.056-.738-.32-.964-.689-.976-1.57-1.301-1.64-1.22-2.447.463-4.45-4.024-11.992-8.637-15.014-2.021-1.327-4.28-1.352-4.981.945-.514 1.702.15 2.904-.082 3.186-.325.388-2.485-1.872-7.316-2.441-2.604-.313-5.508.675-5.108 3.536.238 1.721 1.96 3.286 2.504 3.886.695.77-2.234-.243-5.633 2.297-3.761 2.81-3.23 7.893 2.879 9.651 1.077.307 1.89.113 1.602.788-.27.627-.068-.131-1.114 2.241-3.367 7.642-2.941 16.04-2.948 17.017-.012.958-.632.52-2.184.444-5.213-.256-9.876.226-14.726 2.266-.77.325-.107.331-3.561-3.736-2.967-3.486-7.116-7.116-10.765-9.689-24.54-17.255-40.857-7.63-12.443 6.978 4.425 2.278 1.433.25-7.654 2.097-5.74 1.164-6.315 3.98-3.599 5.733 5.39 3.473 15.466 4.093 16.198 4.38-.325.508-8.668 2.623-12.486 6.848-1.57 1.733-1.245 3.204-.056 4.05 3.166 2.252 11.315.425 11.51.643-.89.701-7.636 3.78-9 7.618-.458 1.283.356 2.747 2.215 3.154 2.879.632 6.509.006 9.375-.694 1.459-.357 2.122-.689 1.972-.088-.557 2.247.476 7.392 4.105 11.322 6.62 7.171 4.176 10.763 7.855 14.833-.41 1.842-1.327 4.282-2.797 6.809-1.283-.175-2.466-.031-3.299.626-3.85 3.011-6.184 12.029-6.19 15.985-.006 5.026 2.948 3.949.94 4.838-2.317 1.021-3.562 3.543-3.13 5.802.657 3.455 4.443 5.501 7.523 3.974 1.859-.926 2.935-2.39 3.098-4.493.244-3.092-1.971-3.048 2.729-1.84.332.087.282.119-.27.732-3.179 3.592-.656 8.906 3.937 8.987 4.068.075 6.415-4.143 4.913-7.454-.694-1.533-1.44-1.79-.857-1.978 4.788-1.558 3.712-7.386.026-9.92-1.778-1.22-3.174-2.579-2.372-4.563 1.212-2.993 2.045-5.385-.702-7.711 1.696-2.662 2.911-5.364 3.599-7.642 3.86-.776 5.273-3.078 9.839-5.564 1.37-.75.951-.45 1.99.883 1.953 2.522 4.15 3.987 6.265 4.519.758 2.278 1.103 4.676 1.189 7.047-1.177.538-2.103 1.296-2.46 2.297-1.653 4.6 1.17 13.475 3.273 16.83 2.667 4.256 4.6 1.771 3.368 3.592-1.415 2.097-1.127 4.895.444 6.579 2.397 2.578 6.69 2.29 8.481-.645 1.083-1.771 1.214-3.58.232-5.451-1.44-2.747-3.293-1.527 1.332-3.011.326-.106.294-.05.163.764-.782 4.732 4.188 7.892 8.118 5.514 3.48-2.102 3.217-6.928.187-8.93-1.401-.927-2.171-.745-1.783-1.214 3.229-3.868-.789-8.225-5.258-8.412-2.153-.088-4.062-.494-4.437-2.597-.614-3.432-1.159-5.492-4.694-6.153.01-3.23-.376-5.951-1.052-8.499 1.702-2.009 2.704-5.157 2.441-9.231-.075-1.09.763-1.051 2.172-1.94 5.132-3.217 9.212-6.91 12.279-12.786 3.543-6.797 3.924-14.77 1.684-21.806-.858-2.679-1.947-7.229-1.878-10.008.338.069.432.407.651.607.251.238.476.508.745.726 1.696 1.39 3.83.657 4.613-.914 1.614-3.242-.076-5.332-.551-7.967-.245-1.327-.006-1.309 1.033-1.302 2.478.02 4.669-1.634 3.235-3.956-.314-.507-.927-1.045-.407-1.039m-31.594-7.248c-1.871-.438-3.28-.977-4.469-2.466-1.295-1.621-.663-3.875.989-5.145 2.785-2.147 6.653-1.846 7.003-1.865.77-.038.958-.808.389-1.227-1.471-1.077-3.011-2.397-3.512-4.15-1.013-3.58 6.328-2.929 11.066.364 1.027.72 1.283.945 1.62.65.239-.206.376-.431.101-1.145-.482-1.29-.745-2.873-.231-4.18 1.014-2.598 7.704 2.41 10.465 9.844.338.914.694 1.828.651 2.83-.038.913-.833-.283-2.379-1.215-7.016-4.256-15.027 0-19.52 6.816-.584.889-1.203 1.113-2.173.889m-35.13 114.427c-4.156.72-6.822-4.75-3.449-7.411.832-.651 2.234-1.276 3.28-.776 2.252 1.07 2.252.983 2.566 1.346 2.11 2.472.657 6.316-2.397 6.841m9.826 2.873c-1.602-.388-2.835-1.828-3.036-3.486-.325-2.628 1.653-4.363 2.642-4.394.732-.025 1.451-.188 2.027-.05 1.02.069 1.502 0 2.197.644 3.286 3.049.626 8.368-3.83 7.286m1.784-23.208c-1.296 3.136 1.158 4.77 2.91 6.215 3.517 2.898 2.992 7.198.02 7.717-4.57.801-10.948-.926-15.022-3.317-1.752-1.033-2.047-1.558-2.215-2.579-.676-4.049 1.946-11.609 4.28-15.127.99-1.497 1.768-2.137 3.318-1.928 2.026.156 4.758 1.321 6.352 2.879 2.075 1.959 1.48 3.445.357 6.14m-.632-7.879c-1.17-.832-2.691-1.583-4.187-1.984 1.092-1.939 2.023-4.082 2.56-6.14 1.38 1.042 2.863 1.571 4.85 1.415-.513 1.649-1.664 4.242-3.223 6.709m35.317 28.74c-3.13 2.822-8.305-.382-6.859-4.438.356-.988 1.208-2.272 2.36-2.403 2.478-.288 2.428-.37 2.885-.226 3.104.971 3.918 4.995 1.614 7.067m9.851-2.798c-1.564.52-3.373-.037-4.43-1.333-1.672-2.059-.921-4.575-.101-5.125.607-.413 1.132-.94 1.689-1.127.902-.488 1.27-.795 2.197-.619 4.407.825 4.99 6.746.645 8.204M89.933 112.57c.57 3.348 3.517 3.423 5.77 3.711 4.518.582 6.365 4.501 4.125 6.528-3.443 3.104-9.758 5.038-14.483 5.182-2.028.063-2.56-.225-3.248-.995-2.729-3.073-4.532-10.871-4.431-15.09.05-2.397.734-2.88 1.784-3.404 1.983-.993 4.75-1.393 6.915-.939 2.764.588 3.054 2.013 3.568 5.007m-9.333-5.79c-.125-2.513-.541-4.735-1.057-6.402a6.71 6.71 0 0 0 4.812-1.534c.443 1.658.851 4.442.851 7.392a13.8 13.8 0 0 0-4.606.544m-8.224-12.598c-.325-.52-.425-.582 2.51-1.74 5.606-2.186 4.835-1.016 10.953-3.649.338-.144.75-.382.782-.019.927 10.959-8.819 14.167-14.245 5.408m31.469-37.146c2.329 15.607-8.988 29.006-24.153 32.651-12.504 3.134-15.204 9.032-20.477 9.62-3.328.41-6.412-1.465-7.592-6.422-2.541-10.658-10.183-11.196-9.42-20.716.032-.356.22-1.058.195-1.546-.069-1.364-2.222.626-8.493 1.22-1.277.125-2.58.2-3.843-.144-5.464-1.477 5.113-8.273 11.465-10.658.545-.2 1.215-.62.964-1.133-.369-.757-1.395-.075-4.28.563-2.56.564-11.811 1.815-12.944-.525-.394-.814.438-1.69.977-2.26 3.66-3.83 14.244-6.74 14.607-6.934.651-.35.482-1.039-.213-1.164-.363-.068-13.812-.864-19.057-4.738-2.61-1.922 2.96-3.398 6.203-3.799 6.609-.826 9.263-.257 9.882-.544.556-.257.482-.77.144-.977-.726-.438-2.81-1.327-4.694-2.278-3.58-1.809-15.66-8.668-14.301-12.461 1.859-5.176 25.823 2.26 38.716 20.253.92 1.29 1.096 1.314 1.953.907 4.963-2.322 12.473-2.972 17.173-1.965.527.113.87-.275.877-.77.018-1.289-1.315-8.75 2.76-17.837 6.64-14.82 19.252-15.853 24.728-6.853.494.813-.563.006-3.174 1.477-3.06 1.715-4.305 5.401-2.04 8.912.688 1.07 1.077 1.177.557 1.534-2.972 2.04-6.202 7.428-5.044 10.984.42 1.301 1.715 1.996 3.054 1.721 1.796-.37 2.473-1.62 2.492-.564.093 5.008 2.246 9.552 2.978 14.446m3.493-15.846c-.432 1.352-1.383 2.234-2.691 1.646-1.484-.677-1.853-2.354-2.078-2.867-.245-.557-.739-.639-1.14-.163-3.273 3.811-6.615 2.653-4.53-2.898 1.001-2.679 2.509-4.344 4.386-5.67.257-.188.508-.15.777.012 3.448 2.172 3.98 1.277 4.067 2.235.313 3.58 2.048 5.1 1.209 7.705m-2.923-15.416c2.548 2.185 3.424 1.333 5.633 3.299 4.65 4.124-7.504 4.462-9.858-1.965-1.877-5.145 4.081-8.956 9.701-5.908 1.352.726 2.604 1.608 3.499 2.91.57.832.995 1.984-.107 2.523-.958.469-2.134.6-3.179.406-5.614-1.052-5.145-3.192-6.065-2.554-.488.338-.075.902.376 1.29"/><path fill="#0A1640" d="M83.36 59.646c-.413 5.771-8.155 18.12-13.275 19.29-.676.156-1.145-.126-1.39-.77-.481-1.259.076-3.537.458-4.82.957-3.191 2.284-4.981 2.309-5.582.012-.395-.35-.676-.695-.513-.7.338-8.856 7.767-16.704 9.362-5.27 1.076-3.023-3.492.632-7.41 3.762-4.037 4.838-3.956 5.17-5.101.125-.413-.188-.795-.613-.726-.645.1-8.506 3.7-14.076 3.155-3.748-.37-2.209-3.605.895-5.914 4.506-3.348 10.446-5.182 15.878-6.322 7.085-1.483 10.534-1.352 15.347-1.358.168 0 .35.006.52-.019.644-.087.72-.876.087-1.064-2.266-.663-18.62.012-29.797 6.096-8.425 4.581-8.362 10.847.106 9.745 5.389-.701 7.58-2.096 8.186-1.908-.238.738-5.983 5.075-6.665 9.375-.588 3.674 4.581 2.71 6.484 2.122 2.941-.914 6.903-3.035 9.288-4.7 5.952-4.174 2.685-2.666 1.846 3.605-.106.795.031 1.52.175 2.266.063.307.245.576.445.82 3.742 4.643 15.396-10.546 16.585-19.377.044-.313.081-.62-.063-.92-.238-.502-1.051-.433-1.133.668M96.899 22.032c.075-2.804-4.319-2.823-4.37-.063-.024 1.033.84 2.028 1.853 2.185 1.246.194 2.478-.864 2.516-2.122M43.778 129.496c-1.826-.079-2.459 2.511-.848 3.323 1.114.561 2.51-.285 2.546-1.533.024-.893-.788-1.75-1.698-1.79M53.674 134.42c-.09.823.65 1.812 1.632 1.781.86.144 1.8-.664 1.808-1.6.023-2.269-3.203-2.359-3.44-.181"/><path fill="#D811AD" d="M91.325 111.745c1.449.129 1.785 2.089-.176 2.524-.977.216-4.968.896-5.84.35-.33-.206-.35-.624-.167-.921.592-.958 5.063-2.051 6.183-1.953M90.462 108.163c1.448.129 1.785 2.09-.176 2.524-.978.217-4.968.897-5.841.351-.33-.206-.35-.624-.166-.922.592-.958 5.063-2.051 6.183-1.953M57.864 115.148c1.157.881.398 2.719-1.494 2.042-.942-.336-4.682-1.886-5.13-2.813-.17-.35.036-.715.35-.869 1.01-.496 5.377.96 6.274 1.64M59.04 111.658c1.158.88.4 2.718-1.493 2.042-.943-.337-4.683-1.886-5.13-2.814-.17-.349.036-.714.35-.868 1.011-.496 5.378.959 6.273 1.64"/><path fill="#0A1640" d="M17.235 11.061c-.366 3.168-4.058 2.663-6.47 2.724-.132.008-.248.03-.367-.014-.335-3.83-.384-7.576-.654-11.426l.015-.018c2.619-.871 6.562-.997 6.758 2.725.05.93-.268 1.864-.677 2.635-.075.153-.021.217.101.344.745.827 1.484 1.587 1.294 3.03m-2.878-5.928c-.202-.34-.495-.507-.848-.572-.453-.06-1.003-.08-1.325.12.076.513-.066 1.287.175 2.056.668.048 1.586.083 1.9-.6.136-.273.299-.665.098-1.004m.154 4.506a1.16 1.16 0 0 0-.744-.527c-.421-.094-.885-.036-1.303-.064-.132.656-.221 1.81.173 2.323l.034.014c.614-.032 1.434.042 1.855-.514.232-.346.155-.858-.015-1.232M25.278 12.027c-.026.717-.11 1.511-.361 2.153-2.248-.254-4.664-.342-6.779-.749.406-3.838.596-7.547 1.21-11.314 2.579.139 6.87.524 6.86.624.034.79-.166 1.572-.248 2.349l-.001.017c-1.44.165-2.886-.238-4.356-.26l-.049-.004-.019.014c-.05.646-.273 1.325-.186 1.937l.014.018c.656.12 1.353.176 2.03.265l-.002.016c.037.757-.141 1.49-.21 2.304-.698.11-1.77-.187-2.021-.03-.184.633-.213 1.533-.219 2.067l.014.019c1.457.154 2.816.431 4.326.54zM36.244 17.264c-.77-.104-1.712-.49-2.25-.609l-.016-.005c.241-1.476.892-3.033 1.15-4.451l-.011-.02a4.7 4.7 0 0 0-1.849-.553c-.59 1.418-.814 2.953-1.443 4.22-.618.134-1.74-.675-2.187-.59.441-1.832 2.194-7.907 3.284-11.12l.005-.016.015.006.033.01c.593.327 1.45.32 1.997.687-.272 1.518-.815 2.846-.99 4.274l.017.006c.482.292 1.178.408 1.716.527l.016.005c.59-1.418.956-2.575 1.375-4.118.595-.004 1.61.266 2.227.515zM43.179 20.458l-.007.015c-.662-.151-1.415-.545-2.007-.975l-.015-.007c.05-.762.407-2.08.4-2.794-.483-.308-.48-.234-.935-.438-.56.514-1.157 1.723-1.806 2.234-.015-.008-.038.001-.053-.006-.187-.03-.73-.365-2.118-.97-.014-.007-.014-.007-.023-.03.305-.354 3.444-5.347 7.084-9.548.309.084.51.284 1.9.764-.172.87-.956 4.805-1.17 5.93zm-1.865-6.037c.342.173.743.335 1.123.505 1.746-5.509.7-3.425-1.123-.505M54.086 17.388c-.075.129-.15.258-.232.364-1.294 1.691-3.958 1.968-5.607.601-.267.557-.492.811-2.046 3.64l-.008.015c-.014-.01-.037-.003-.051-.012-.615-.165-1.828-.892-2.434-1.342 1.51-2.854 3.927-6.7 5.672-9.958 2.74.75 6.443 3.315 4.714 6.676zm-3.728-3.446c-.015-.009-.029-.016-.052-.01-.359.715-.978 1.546-1.127 2.23l.042.025c.63.309 1.412.88 2.14.689.567-.246.898-.978.57-1.573-.247-.664-.864-1.159-1.573-1.361M61.072 22.461c-.089.121-.177.241-.27.339-1.464 1.545-4.143 1.54-5.639.009-.324.525-.574.754-2.417 3.405l-.01.014c-.013-.01-.036-.007-.05-.016-.595-.23-1.723-1.08-2.279-1.59 1.802-2.68 4.61-6.253 6.686-9.308 2.647 1.034 6.06 3.973 3.988 7.134zm-3.347-3.818c-.013-.01-.027-.019-.05-.015-.432.672-1.136 1.436-1.355 2.1l.04.03c.592.372 1.311 1.024 2.055.91.59-.186.996-.88.733-1.505-.177-.687-.738-1.244-1.423-1.52M69.589 25.626C66 27.731 61.836 28.84 58.219 30.83c-.088-.101-.186-.191-.297-.293-.344-.314-.807-.669-1.189-1.016-.098-.09-.196-.18-.283-.281l-.024-.023c1.64-.934 3.6-1.872 5.489-2.782l.022-.025c.954-1.763 1.384-3.96 2.32-5.651.33.302.768.565 1.123.89.197.18.382.371.487.625-.5.872-1.242 2.67-1.508 3.554.87-.287 2.528-1.364 3.428-1.758.352.208.939.699 1.37 1.091.195.18.356.349.444.45zM62.12 34.551c-.103-.11 1.008-.869 1.46-1.288l.01-.012c.522.243.965.989 1.407 1.464-.463.406-1.021.88-1.495 1.322l-.08-.086c-.181-.194-.248-.292-.417-.474l-.023-.024zm8.538-7.939c.433.392 1.132.9 1.418 1.476-2.117 1.9-4.44 3.97-6.433 6.004-.445-.381-1.068-1.052-1.521-1.515l-.013-.013c2.179-1.956 4.174-4.06 6.515-5.988z"/><path fill="#E38921" d="M122.275 61.609c-.288-.543-.508-.914-.686-1.305-.59-1.296-.351-2.498.667-3.529.816-.828 1.848-1.268 2.915-1.651.452-.163.924-.293 1.349-.51 1.201-.617 1.486-1.857.701-2.962-.377-.531-.891-.925-1.405-1.315-.666-.504-.616-.7-.464-1.055.183-.425.69-.56 1.266-.286 1.294.615 2.413 1.465 2.78 2.924.545 2.162-.566 4.092-2.736 4.799-.874.285-1.725.601-2.498 1.094-.927.591-1.041 1.025-.553 2.016.236.48.537.93.788 1.404.436.823.687 1.703.543 2.636-.216 1.41-1.045 2.343-2.407 2.735-.938.27-1.828.628-2.665 1.119-.975.571-1.086.975-.452 1.945.409.626.894 1.206 1.377 1.78.297.353.428.732.395 1.181-.035.481-.44.782-.892.658-.369-.1-.719-.26-.976-.54-.726-.788-1.477-1.567-1.953-2.543-.797-1.635-.393-3.031 1.111-4.041.809-.543 1.694-.917 2.602-1.248.15-.055.314-.07.467-.12 1.571-.505 1.824-1.15 1.037-2.65-.123-.237-.269-.464-.311-.536M22.421 91.887c-.606.103-1.027.197-1.453.243-1.416.157-2.483-.446-3.145-1.734-.532-1.035-.628-2.152-.659-3.285-.013-.48.01-.969-.064-1.44-.21-1.334-1.3-1.992-2.594-1.59-.623.192-1.158.557-1.688.924-.686.475-.857.367-1.147.11-.347-.306-.317-.83.123-1.291.988-1.037 2.145-1.835 3.646-1.73 2.223.158 3.71 1.816 3.705 4.097-.002.92.033 1.828.26 2.715.272 1.066.649 1.31 1.743 1.156.53-.075 1.05-.22 1.58-.31.918-.157 1.832-.121 2.673.306 1.271.645 1.9 1.725 1.848 3.14-.036.976.026 1.932.23 2.88.239 1.105.588 1.337 1.707 1.037.723-.193 1.425-.472 2.121-.752.428-.173.83-.178 1.246-.007.446.184.605.661.347 1.052-.211.32-.47.603-.817.76-.976.442-1.95.913-3.025 1.06-1.803.247-3.004-.572-3.493-2.316-.264-.938-.342-1.896-.374-2.862-.005-.16.03-.321.032-.481.011-1.65-.522-2.091-2.194-1.812-.266.045-.526.112-.608.13M4.06 42.373c-.375-.485-.656-.813-.898-1.167-.804-1.176-.774-2.402.05-3.592.663-.956 1.604-1.566 2.59-2.127.417-.237.86-.447 1.24-.734 1.078-.814 1.146-2.084.184-3.038-.463-.459-1.037-.76-1.61-1.055-.742-.382-.727-.584-.637-.96.107-.45.582-.67 1.198-.499 1.38.384 2.628 1.03 3.24 2.404.907 2.037.143 4.128-1.872 5.197-.813.43-1.597.889-2.274 1.506-.812.741-.85 1.189-.2 2.082.317.433.69.823 1.018 1.248.571.736.969 1.56.987 2.503.028 1.426-.629 2.488-1.902 3.108a11.5 11.5 0 0 0-2.433 1.558c-.863.73-.903 1.147-.112 1.994.51.547 1.088 1.035 1.661 1.517.353.297.548.648.592 1.097.048.48-.298.845-.766.801-.38-.036-.753-.132-1.054-.364-.85-.653-1.723-1.291-2.36-2.171-1.066-1.474-.907-2.92.401-4.172.704-.674 1.512-1.194 2.35-1.676.138-.08.297-.123.44-.198 1.46-.767 1.598-1.444.566-2.788-.162-.212-.345-.41-.398-.474M118.825 118.249c.025-.613.021-1.045.064-1.472.142-1.417.954-2.335 2.352-2.715 1.122-.304 2.235-.166 3.349.039.473.087.946.212 1.423.238 1.348.071 2.218-.856 2.096-2.206-.059-.649-.304-1.248-.553-1.844-.321-.77-.18-.914.131-1.144.372-.276.877-.138 1.238.389.808 1.182 1.348 2.479.932 3.926-.618 2.142-2.549 3.251-4.779 2.771-.899-.194-1.793-.349-2.709-.311-1.099.044-1.416.362-1.493 1.464-.037.535-.003 1.074-.025 1.61-.038.932-.263 1.818-.856 2.552-.897 1.109-2.083 1.498-3.457 1.153a11.5 11.5 0 0 0-2.865-.374c-1.13.003-1.429.296-1.369 1.453.038.747.165 1.492.294 2.231.08.455.002.848-.253 1.22-.273.399-.773.454-1.102.12-.268-.273-.491-.586-.572-.957-.23-1.047-.487-2.097-.407-3.181.134-1.814 1.186-2.817 2.992-2.933.973-.063 1.926.06 2.877.23.158.028.308.097.465.131 1.611.354 2.153-.075 2.229-1.768.01-.269-.002-.538-.002-.622M118.435 9.373c.611.064 1.041.089 1.464.16 1.406.233 2.269 1.103 2.557 2.522.231 1.14.021 2.241-.256 3.34-.118.466-.273.93-.33 1.404-.159 1.341.711 2.27 2.066 2.235.651-.017 1.265-.223 1.875-.433.789-.27.924-.12 1.134.205.251.39.08.884-.468 1.21-1.233.73-2.562 1.184-3.979.674-2.098-.754-3.078-2.753-2.455-4.948.251-.885.464-1.767.486-2.683.027-1.1-.269-1.436-1.365-1.585-.531-.072-1.07-.073-1.604-.13-.927-.097-1.797-.38-2.491-1.02-1.048-.966-1.36-2.175-.926-3.524.298-.929.499-1.867.558-2.835.07-1.128-.203-1.445-1.361-1.46-.748-.01-1.499.068-2.245.149-.459.05-.846-.053-1.201-.331-.38-.298-.403-.802-.048-1.108.289-.25.616-.452.992-.509 1.06-.162 2.124-.35 3.2-.2 1.802.25 2.736 1.365 2.734 3.176 0 .975-.185 1.918-.416 2.856-.038.155-.117.3-.162.455-.457 1.585-.063 2.154 1.621 2.339.267.03.536.035.62.04"/></svg>