<svg width="120" height="115" viewBox="0 0 120 115" fill="none" xmlns="http://www.w3.org/2000/svg">
<path d="M84.2538 13.7504L104.008 95.3008C104.643 97.9235 103.032 100.564 100.414 101.198L49.1561 113.615C47.8305 113.936 46.5118 113.684 45.4391 113.022C44.3898 112.374 43.5789 111.322 43.2635 110.021L23.5084 28.4651C22.8741 25.847 24.4814 23.2126 27.1036 22.5777L78.3617 10.1611C78.6316 10.0958 78.9021 10.055 79.1732 10.0346C79.9713 9.97686 80.7472 10.1191 81.4526 10.4246C82.1755 10.7406 82.8197 11.2262 83.3146 11.8429C83.7536 12.3886 84.0795 13.031 84.2538 13.7504Z" fill="#845EF9"/>
<path d="M40.9412 66.3928L86.1113 55.4511C87.8171 55.0378 88.8647 53.3198 88.452 51.614L80.8833 20.368C80.47 18.6623 78.752 17.6147 77.0462 18.0274L31.876 28.9691C30.1703 29.3825 29.1221 31.1005 29.5354 32.8062L37.1041 64.0522C37.5174 65.758 39.2354 66.8062 40.9412 66.3928Z" fill="#3C1DA1"/>
<path d="M100.602 81.2412L104.008 95.303C104.642 97.9229 103.032 100.563 100.412 101.198L73.815 107.641L70.319 93.2084C69.7337 90.792 71.2179 88.3593 73.6343 87.774L100.602 81.2412Z" fill="#3C1DA1"/>
<path d="M55.3271 88.174C56.7892 87.8201 57.687 86.3476 57.3331 84.8861L53.9531 70.9327C53.5992 69.4706 52.1266 68.5728 50.6651 68.9267C49.203 69.2806 48.3053 70.7531 48.6591 72.2147L52.0392 86.168C52.393 87.6301 53.865 88.5284 55.3271 88.174Z" fill="#FF8CDB"/>
<path d="M43.372 80.8819C43.7259 82.344 45.1985 83.2418 46.66 82.8879L60.6133 79.5079C62.0754 79.154 62.9732 77.6814 62.6193 76.2193C62.2655 74.7572 60.7929 73.8595 59.3308 74.2133L45.3774 77.5934C43.9159 77.9478 43.0182 79.4198 43.372 80.8819Z" fill="#FF8CDB"/>
<path d="M71.335 74.1086C71.7297 75.738 73.3708 76.7389 75.0002 76.3442C76.6296 75.9496 77.6305 74.3085 77.2359 72.6791C76.8412 71.0497 75.2001 70.0488 73.5707 70.4434C71.9413 70.8381 70.9404 72.4792 71.335 74.1086Z" fill="#FFCE00"/>
<path d="M84.6827 70.8752C85.0774 72.5046 86.7184 73.5055 88.3478 73.1108C89.9772 72.7162 90.9782 71.0751 90.5835 69.4457C90.1888 67.8163 88.5478 66.8154 86.9184 67.21C85.289 67.6053 84.288 69.2458 84.6827 70.8752Z" fill="#FFCE00"/>
<path d="M78.6274 62.1534C76.998 62.5481 75.997 64.1891 76.3917 65.8185C76.7863 67.4479 78.4274 68.4489 80.0568 68.0542C81.6862 67.6595 82.6872 66.0185 82.2925 64.3891C81.8978 62.7597 80.2568 61.7587 78.6274 62.1534Z" fill="#FFCE00"/>
<path d="M81.8608 75.5006C80.2314 75.8952 79.2304 77.5363 79.6251 79.1657C80.0197 80.7951 81.6608 81.796 83.2902 81.4014C84.9196 81.0067 85.9206 79.3656 85.5259 77.7362C85.1312 76.1068 83.4902 75.1059 81.8608 75.5006Z" fill="#FFCE00"/>
<path d="M49.2651 102.953C50.1192 103.475 51.2344 103.205 51.755 102.35L56.1173 95.1981C56.6385 94.3441 56.3686 93.2289 55.514 92.7083C54.6599 92.1871 53.5453 92.457 53.0241 93.3117L48.6618 100.464C48.1406 101.318 48.4111 102.433 49.2651 102.953Z" fill="#FFCE00"/>
<path d="M58.5305 100.709C59.3845 101.23 60.4998 100.96 61.0204 100.105L65.3827 92.9535C65.9039 92.0995 65.634 90.9842 64.7793 90.4637C63.9253 89.9425 62.8107 90.2124 62.2895 91.067L57.9271 98.2189C57.4065 99.0729 57.6765 100.188 58.5305 100.709Z" fill="#FFCE00"/>
<path d="M79.1108 22.0877L86.0884 50.894C86.3262 51.8751 85.724 52.8673 84.7429 53.1046L41.0867 63.6796C40.5999 63.7974 40.1126 63.7076 39.7121 63.4663C39.3104 63.2214 38.9985 62.8238 38.879 62.3295L31.9014 33.5232C31.6636 32.5421 32.267 31.554 33.2481 31.3161L76.9043 20.7411C76.948 20.7306 76.9917 20.7201 77.0372 20.7166C77.9717 20.5597 78.8841 21.1503 79.1108 22.0877Z" fill="white"/>
<path d="M62.7893 68.5862C63.1175 69.9405 64.4811 70.7724 65.8353 70.4441C67.1896 70.1159 68.0215 68.7524 67.6933 67.3987C67.3651 66.0445 66.0015 65.2126 64.6473 65.5408C63.293 65.8684 62.4611 67.232 62.7893 68.5862Z" fill="white"/>
<path d="M78.8685 8.77498L79.1733 10.0342C78.9023 10.0546 78.6318 10.0954 78.3619 10.1607L68.1372 12.6377L67.848 11.445C67.5921 10.3892 68.2369 9.32588 69.2973 9.06938L76.4929 7.3263C77.548 7.07038 78.6125 7.71922 78.8685 8.77498Z" fill="#D811AD"/>
<path d="M46.8563 46.9137C47.8887 45.001 50.8292 44.2117 52.8247 44.7987C54.8004 45.3799 55.2341 47.6308 52.7787 49.0375C49.415 50.9642 45.5172 49.3954 46.8563 46.9137Z" fill="#D811AD"/>
<path d="M71.9398 40.8377C70.1466 39.6094 67.1711 40.2536 65.6653 41.6888C64.1747 43.1095 64.8188 45.3096 67.6462 45.4362C71.5183 45.6099 74.2659 42.4315 71.9398 40.8377Z" fill="#D811AD"/>
<path d="M52.9961 80.6973C54.1816 80.6973 55.1426 79.7363 55.1426 78.5508C55.1426 77.3653 54.1816 76.4043 52.9961 76.4043C51.8106 76.4043 50.8496 77.3653 50.8496 78.5508C50.8496 79.7363 51.8106 80.6973 52.9961 80.6973Z" fill="#D811AD"/>
<path d="M39.8309 38.8833L37.45 39.4599C37.2355 39.5117 37.0192 39.38 36.9668 39.1649L36.3902 36.784C36.3383 36.5695 36.4701 36.3532 36.6852 36.3007L39.066 35.7242C39.2806 35.6723 39.4968 35.8041 39.5493 36.0192L40.1259 38.4C40.1772 38.6151 40.0454 38.8314 39.8309 38.8833Z" fill="#845EF9"/>
<path d="M43.5389 33.9458L41.158 34.5223C40.9435 34.5742 40.7266 34.4425 40.6748 34.2274L40.0982 31.8465C40.0463 31.632 40.1781 31.4157 40.3932 31.3632L42.774 30.7867C42.9891 30.7348 43.2054 30.8666 43.2573 31.0817L43.8339 33.4625C43.8858 33.677 43.754 33.8933 43.5389 33.9458Z" fill="#845EF9"/>
<path d="M49.0955 36.6387L46.7147 37.2152C46.5002 37.2671 46.2833 37.1354 46.2314 36.9202L45.6549 34.5394C45.603 34.3249 45.7347 34.1086 45.9493 34.0561L48.3301 33.4796C48.5446 33.4277 48.7609 33.5594 48.8134 33.7745L49.3899 36.1554C49.4424 36.3705 49.3107 36.5868 49.0955 36.6387Z" fill="#845EF9"/>
<path d="M52.8045 31.7017L50.4237 32.2782C50.2091 32.3301 49.9923 32.1983 49.9404 31.9832L49.3638 29.6024C49.312 29.3879 49.4437 29.171 49.6582 29.1191L52.0391 28.5425C52.2536 28.4907 52.4705 28.6224 52.5224 28.8375L53.0989 31.2184C53.1514 31.4329 53.0191 31.6492 52.8045 31.7017Z" fill="#845EF9"/>
<path d="M58.3612 34.394L55.9803 34.9706C55.7658 35.0225 55.5495 34.8907 55.497 34.6756L54.9205 32.2948C54.8686 32.0802 55.0003 31.864 55.2149 31.8115L57.5957 31.2349C57.8103 31.183 58.0271 31.3148 58.079 31.5299L58.6556 33.9108C58.7074 34.1259 58.5757 34.3422 58.3612 34.394Z" fill="#845EF9"/>
<path d="M62.0701 29.457L59.6893 30.0336C59.4748 30.0855 59.2579 29.9537 59.206 29.7386L58.6295 27.3578C58.5776 27.1432 58.7093 26.9264 58.9244 26.8745L61.3053 26.2979C61.5204 26.246 61.7367 26.3778 61.7886 26.5929L62.3651 28.9737C62.417 29.1889 62.2853 29.4046 62.0701 29.457Z" fill="#845EF9"/>
<path d="M67.6268 32.1499L65.2459 32.7264C65.0314 32.7783 64.8145 32.6466 64.7627 32.4315L64.1861 30.0506C64.1342 29.8361 64.266 29.6192 64.4811 29.5673L66.8619 28.9908C67.077 28.9389 67.2933 29.0707 67.3452 29.2858L67.9218 31.6666C67.9737 31.8817 67.8419 32.098 67.6268 32.1499Z" fill="#845EF9"/>
<path d="M71.3358 27.2128L68.9549 27.7893C68.7404 27.8412 68.5235 27.7095 68.4716 27.4949L67.8951 25.1141C67.8432 24.8996 67.975 24.6833 68.1895 24.6308L70.5703 24.0543C70.7849 24.0024 71.0011 24.1341 71.0536 24.3492L71.6302 26.7301C71.6821 26.9446 71.5503 27.1609 71.3358 27.2128Z" fill="#845EF9"/>
<path d="M76.8924 29.9057L74.5116 30.4822C74.297 30.5341 74.0802 30.4024 74.0283 30.1878L73.4517 27.807C73.3998 27.5924 73.5316 27.3762 73.7461 27.3237L76.127 26.7471C76.3415 26.6953 76.5584 26.827 76.6103 27.0415L77.1868 29.4224C77.2393 29.6375 77.1069 29.8538 76.8924 29.9057Z" fill="#845EF9"/>
<path d="M78.1582 45.538L80.5391 44.9615C80.7536 44.9096 80.9699 45.0414 81.0224 45.2565L81.5989 47.6373C81.6508 47.8519 81.519 48.0681 81.3045 48.1206L78.9237 48.6972C78.7091 48.749 78.4929 48.6173 78.4404 48.4022L77.8638 46.0213C77.812 45.8062 77.9437 45.5899 78.1582 45.538Z" fill="#845EF9"/>
<path d="M74.4494 50.4755L76.8303 49.899C77.0448 49.8471 77.2611 49.9789 77.3136 50.194L77.8901 52.5748C77.942 52.7894 77.8103 53.0062 77.5957 53.0581L75.2149 53.6347C75.0003 53.6865 74.7841 53.5548 74.7316 53.3397L74.155 50.9588C74.1026 50.7437 74.2349 50.5274 74.4494 50.4755Z" fill="#845EF9"/>
<path d="M68.8928 47.7827L71.2736 47.2061C71.4882 47.1542 71.7045 47.286 71.7569 47.5011L72.3335 49.8819C72.3854 50.0965 72.2536 50.3128 72.0391 50.3652L69.6582 50.9418C69.4437 50.9937 69.2274 50.8619 69.175 50.6468L68.5984 48.266C68.5459 48.0508 68.6783 47.8346 68.8928 47.7827Z" fill="#845EF9"/>
<path d="M65.1846 52.7202L67.5654 52.1436C67.78 52.0917 67.9963 52.2235 68.0487 52.4386L68.6253 54.8194C68.6772 55.0346 68.5454 55.2508 68.3309 55.3027L65.95 55.8793C65.7355 55.9312 65.5192 55.7994 65.4668 55.5843L64.8902 53.2035C64.8383 52.9883 64.9701 52.7721 65.1846 52.7202Z" fill="#845EF9"/>
<path d="M59.6274 50.0273L62.0082 49.4507C62.2227 49.3989 62.439 49.5306 62.4915 49.7457L63.068 52.1266C63.1199 52.3411 62.9882 52.558 62.7731 52.6099L60.3922 53.1864C60.1777 53.2383 59.9614 53.1065 59.9089 52.8914L59.3324 50.5106C59.2811 50.2955 59.4128 50.0792 59.6274 50.0273Z" fill="#845EF9"/>
<path d="M55.9185 54.9643L58.2994 54.3878C58.5139 54.3359 58.7302 54.4676 58.7827 54.6822L59.3592 57.063C59.4111 57.2775 59.2794 57.4938 59.0642 57.5463L56.6834 58.1228C56.4689 58.1747 56.2526 58.043 56.2001 57.8279L55.6236 55.447C55.5717 55.2325 55.704 55.0162 55.9185 54.9643Z" fill="#845EF9"/>
<path d="M50.3625 52.271L52.7434 51.6944C52.9579 51.6425 53.1742 51.7743 53.2266 51.9888L53.8032 54.3696C53.8551 54.5842 53.7233 54.8005 53.5088 54.8529L51.128 55.4295C50.9134 55.4814 50.6971 55.3496 50.6447 55.1351L50.0681 52.7542C50.0157 52.5397 50.148 52.3234 50.3625 52.271Z" fill="#845EF9"/>
<path d="M46.6534 57.2089L49.0342 56.6324C49.2487 56.5805 49.4656 56.7123 49.5175 56.9268L50.094 59.3076C50.1459 59.5222 50.0142 59.7384 49.7996 59.7909L47.4188 60.3675C47.2043 60.4194 46.988 60.2876 46.9355 60.0725L46.359 57.6916C46.3071 57.4771 46.4388 57.2608 46.6534 57.2089Z" fill="#845EF9"/>
<path d="M41.0969 54.5156L43.4778 53.939C43.6923 53.8871 43.9086 54.0189 43.9611 54.2334L44.5376 56.6143C44.5895 56.8288 44.4577 57.0451 44.2432 57.0976L41.8624 57.6741C41.6478 57.726 41.4316 57.5942 41.3791 57.3791L40.8025 54.9983C40.7501 54.7843 40.8818 54.5681 41.0969 54.5156Z" fill="#845EF9"/>
<path d="M80.0072 101.896C80.5593 101.763 80.898 101.207 80.7645 100.655L78.6349 91.8635C78.5014 91.3114 77.9453 90.9727 77.3938 91.1062C76.8417 91.2397 76.503 91.7959 76.6365 92.3474L78.7661 101.139C78.8996 101.691 79.4558 102.03 80.0072 101.896Z" fill="#845EF9"/>
<path d="M84.2611 100.866C84.8132 100.733 85.1519 100.176 85.0184 99.625L82.8888 90.8332C82.7553 90.2812 82.1992 89.9425 81.6477 90.076C81.0956 90.2095 80.7569 90.7656 80.8904 91.3171L83.02 100.109C83.1535 100.661 83.7091 101 84.2611 100.866Z" fill="#845EF9"/>
<path d="M88.5141 99.8354C89.0661 99.7019 89.4048 99.1457 89.2713 98.5942L87.1418 89.8025C87.0083 89.2504 86.4521 88.9117 85.9006 89.0452C85.3486 89.1787 85.0098 89.7348 85.1433 90.2863L87.2729 99.0781C87.4064 99.6302 87.962 99.9695 88.5141 99.8354Z" fill="#845EF9"/>
<path d="M92.768 98.8056C93.32 98.6721 93.6587 98.1159 93.5252 97.5644L91.3957 88.7727C91.2622 88.2206 90.7066 87.8819 90.1545 88.0154C89.6025 88.1489 89.2637 88.7051 89.3972 89.2566L91.5268 98.0483C91.6603 98.6004 92.2159 98.9391 92.768 98.8056Z" fill="#845EF9"/>
<path d="M97.0209 97.7753C97.573 97.6418 97.9117 97.0862 97.7782 96.5342L95.6486 87.7424C95.5151 87.1903 94.9589 86.8516 94.4075 86.9851C93.8554 87.1186 93.5167 87.6748 93.6502 88.2263L95.7798 97.018C95.9133 97.5695 96.4694 97.9088 97.0209 97.7753Z" fill="#845EF9"/>
<path opacity="0.25" d="M83.3147 11.8447C83.3002 11.8634 83.2908 11.889 83.2728 11.9089C79.0596 16.0701 86.7443 28.5812 99.0158 89.7643C100.38 96.5542 95.3478 96.95 90.0702 98.4092C64.3583 105.517 47.8836 106.44 45.4375 113.021C46.5102 113.685 47.8317 113.934 49.1545 113.614C54.7697 112.254 93.9411 102.765 100.413 101.198C103.032 100.563 104.643 97.9224 104.008 95.3025C102.377 88.5687 84.8625 16.2648 84.2545 13.7522C84.0796 13.0328 83.7543 12.3881 83.3147 11.8447Z" fill="#0A1640"/>
<path opacity="0.25" d="M79.1107 22.0876L86.0883 50.8939C86.3261 51.875 85.7239 52.8672 84.7428 53.1045L41.0866 63.6795C40.5998 63.7973 40.1124 63.7075 39.7119 63.4662C40.8988 56.9165 53.1441 55.1274 66.9873 52.4545C82.6639 49.4265 76.3742 33.5127 75.2112 27.1245C74.6422 23.9963 75.7511 21.9699 77.0365 20.7159C77.9716 20.5597 78.8839 21.1502 79.1107 22.0876Z" fill="#845EF9"/>
<path opacity="0.5" d="M51.8817 20.9911C47.9071 22.3523 34.3058 25.7009 29.8502 26.2734C28.774 26.4115 28.4347 25.0672 29.4602 24.7302C33.8225 23.2961 47.573 20.2909 51.5873 19.8246C52.3913 19.7307 52.6443 20.7299 51.8817 20.9911Z" fill="white"/>
<path d="M48.9717 39.8728C49.9201 39.3983 51.2167 39.6122 51.9425 40.6382C53.2197 42.4437 51.163 44.5803 49.1722 43.7455C47.5696 43.0739 47.3493 40.6843 48.9717 39.8728Z" fill="#0A1640"/>
<path d="M66.8304 35.5465C65.7693 35.5588 64.7153 36.3423 64.5393 37.5863C64.2297 39.7765 67.0361 40.735 68.4248 39.0811C69.5417 37.7513 68.6445 35.5261 66.8304 35.5465Z" fill="#0A1640"/>
<path d="M63.2151 40.3826C63.3953 41.0507 63.376 41.682 63.2041 42.2592C62.42 44.9432 58.3812 46.4385 55.9916 44.7653C55.7665 44.6074 55.5258 44.387 55.2996 44.1334C54.4735 43.2077 53.848 41.7893 54.9591 40.9556C55.7077 40.3966 58.7478 39.2312 61.6207 39.2207C62.5039 39.2166 63.0268 39.6807 63.2151 40.3826Z" fill="#0A1640"/>
<path d="M104.536 95.1734L84.7811 13.6225C84.5934 12.8431 84.2425 12.1301 83.7388 11.5028C83.1949 10.8248 82.4796 10.2803 81.6693 9.92648C81.0146 9.64315 80.3092 9.49916 79.6003 9.48808L79.3968 8.64744V8.64686C79.071 7.30195 77.715 6.47122 76.366 6.79827L69.1704 8.54134C67.8255 8.86722 66.9959 10.2267 67.3218 11.5722L67.4833 12.2379L26.9775 22.0499C24.0708 22.7535 22.2787 25.6888 22.9818 28.5926L42.7374 110.148C43.0756 111.545 43.9343 112.73 45.155 113.483C46.0248 114.02 47.003 114.297 47.9987 114.297C48.4266 114.297 48.858 114.245 49.2848 114.142L100.543 101.726C101.951 101.385 103.141 100.516 103.896 99.2781C104.65 98.0399 104.877 96.5819 104.536 95.1734ZM68.5373 11.9826L68.3758 11.3169C68.191 10.5532 68.6621 9.78132 69.4257 9.59652L76.6207 7.85344C76.7327 7.82604 76.8458 7.81321 76.956 7.81321C77.5984 7.81321 78.1831 8.25161 78.3417 8.90279L78.5043 9.57553C78.4128 9.59244 78.323 9.61167 78.2344 9.63324L68.5373 11.9826ZM102.969 98.7126C102.365 99.7031 101.413 100.398 100.288 100.671L49.0288 113.087C47.892 113.361 46.7203 113.174 45.7251 112.56C44.7487 111.957 44.0619 111.01 43.7914 109.893L24.0358 28.3372C23.4738 26.0153 24.9079 23.6676 27.2322 23.1051L68.2651 13.1655L78.4903 10.6884C78.7206 10.6325 78.9643 10.5946 79.2155 10.5759H79.2161C79.3205 10.5683 79.4242 10.5642 79.528 10.5642C80.1139 10.5642 80.687 10.6843 81.2367 10.9222C81.885 11.2055 82.458 11.6416 82.8923 12.1826C83.2946 12.6845 83.575 13.2552 83.726 13.8784H83.7266L103.481 95.4288C103.754 96.5562 103.572 97.7222 102.969 98.7126Z" fill="#0A1640"/>
<path d="M63.2043 42.2595C62.4202 44.9435 58.3814 46.4388 55.9918 44.7657C55.7668 44.6077 55.526 44.3874 55.2998 44.1338C55.9247 43.0034 57.2224 42.0467 58.8571 41.6509C60.5168 41.2492 62.1299 41.5186 63.2043 42.2595Z" fill="#FF8CDB"/>
<path d="M18.4917 50.532L16.1091 49.5998C15.957 49.5403 15.7856 49.5596 15.6503 49.6511L13.5318 51.0858C13.1914 51.3167 12.7343 51.0566 12.7582 50.6457L12.908 48.0917C12.9174 47.9284 12.8462 47.7716 12.7174 47.6708L10.6986 46.0991C10.3739 45.8467 10.48 45.3313 10.8781 45.2275L13.3534 44.581C13.5114 44.5396 13.6391 44.4236 13.6945 44.2697L14.5654 41.8638C14.7053 41.4773 15.2283 41.419 15.4498 41.7653L16.8297 43.9199C16.9177 44.0575 17.0681 44.1426 17.2313 44.1485L19.7882 44.233C20.1992 44.2464 20.4161 44.7256 20.1555 45.0439L18.5325 47.0219C18.4288 47.1484 18.3944 47.3175 18.4393 47.4743L19.1487 49.9327C19.263 50.3274 18.8747 50.6818 18.4917 50.532Z" fill="#E38921"/>
<path d="M118.223 90.8191L115.841 89.8869C115.688 89.8275 115.517 89.8467 115.382 89.9382L113.263 91.3729C112.923 91.6032 112.466 91.3432 112.49 90.9328L112.639 88.3788C112.649 88.2155 112.578 88.0581 112.449 87.9579L110.43 86.3862C110.105 86.1338 110.211 85.6184 110.61 85.5147L113.085 84.8681C113.243 84.8267 113.371 84.7107 113.426 84.5568L114.297 82.1509C114.437 81.7644 114.96 81.7061 115.181 82.0524L116.561 84.2071C116.649 84.3446 116.8 84.4297 116.963 84.4356L119.52 84.5201C119.931 84.5335 120.148 85.0127 119.887 85.331L118.264 87.309C118.16 87.4355 118.126 87.6046 118.171 87.7614L118.88 90.2198C118.994 90.6145 118.606 90.9689 118.223 90.8191Z" fill="#E38921"/>
<path d="M33.9839 110.837L31.6013 109.905C31.4492 109.846 31.2778 109.865 31.1425 109.957L29.024 111.391C28.6836 111.622 28.2265 111.362 28.2504 110.951L28.4002 108.397C28.4101 108.234 28.3384 108.077 28.2096 107.976L26.1908 106.404C25.8661 106.152 25.9722 105.637 26.3703 105.533L28.8456 104.886C29.0036 104.845 29.1313 104.729 29.1867 104.575L30.0576 102.169C30.1975 101.783 30.7204 101.724 30.942 102.071L32.3219 104.225C32.4099 104.363 32.5603 104.448 32.7235 104.454L35.2804 104.538C35.6914 104.552 35.9083 105.031 35.6477 105.349L34.0247 107.327C33.9209 107.454 33.8865 107.623 33.9314 107.78L34.6409 110.238C34.7552 110.633 34.3669 110.987 33.9839 110.837Z" fill="#E38921"/>
<path d="M104.368 28.9047L102.525 27.5965C102.407 27.5132 102.256 27.4928 102.12 27.5423L99.9973 28.3194C99.6563 28.4442 99.3199 28.1236 99.4284 27.7773L100.103 25.6197C100.146 25.4821 100.119 25.3317 100.029 25.2186L98.6344 23.44C98.4099 23.1543 98.611 22.7352 98.9742 22.7311L101.234 22.706C101.378 22.7043 101.513 22.632 101.594 22.5125L102.854 20.6359C103.057 20.3345 103.517 20.3957 103.633 20.7403L104.356 22.8821C104.402 23.0185 104.512 23.124 104.651 23.1637L106.825 23.7828C107.175 23.8825 107.258 24.3395 106.967 24.5564L105.153 25.9054C105.037 25.9916 104.971 26.1292 104.976 26.2732L105.059 28.5322C105.073 28.8942 104.665 29.1152 104.368 28.9047Z" fill="#E38921"/>
<path d="M114.162 56.4457L112.391 55.6074C112.278 55.5537 112.146 55.5595 112.038 55.6219L110.343 56.606C110.071 56.764 109.735 56.5413 109.775 56.2288L110.025 54.2852C110.041 54.161 109.994 54.0374 109.901 53.9535L108.441 52.6459C108.206 52.4354 108.315 52.0477 108.624 51.9894L110.55 51.6263C110.673 51.6029 110.777 51.5207 110.827 51.4065L111.619 49.6144C111.747 49.3264 112.149 49.3095 112.3 49.5859L113.24 51.305C113.3 51.4146 113.411 51.4881 113.535 51.5009L115.484 51.7009C115.798 51.7329 115.938 52.1107 115.722 52.3398L114.378 53.7657C114.292 53.8567 114.257 53.9844 114.283 54.1062L114.695 56.0218C114.763 56.3302 114.447 56.5809 114.162 56.4457Z" fill="#E38921"/>
<path d="M59.5837 7.05689L57.8126 6.21858C57.6996 6.16495 57.5672 6.17078 57.4594 6.23374L55.7647 7.21779C55.4924 7.37577 55.1566 7.15308 55.1969 6.84061L55.4464 4.89699C55.4621 4.77282 55.4161 4.64923 55.3228 4.56528L53.863 3.25768C53.6287 3.04723 53.7365 2.65956 54.0461 2.60126L55.9716 2.23807C56.0946 2.21475 56.1984 2.13255 56.2485 2.01829L57.0408 0.226244C57.1685 -0.0617429 57.5707 -0.0786489 57.7217 0.197678L58.662 1.91685C58.7221 2.02645 58.8323 2.09991 58.9564 2.11273L60.9059 2.31269C61.2189 2.34475 61.3594 2.72252 61.1437 2.95162L59.7994 4.37757C59.7137 4.46851 59.6782 4.59618 59.7044 4.71802L60.1165 6.63365C60.1842 6.94146 59.8688 7.19156 59.5837 7.05689Z" fill="#E38921"/>
<path d="M15.5657 79.4114L13.7941 78.5731C13.681 78.5194 13.5487 78.5253 13.4408 78.5882L11.7461 79.5723C11.4739 79.7303 11.1381 79.5076 11.1783 79.1951L11.4278 77.2515C11.4436 77.1273 11.3975 77.0037 11.3042 76.9198L9.84448 75.6122C9.61013 75.4017 9.71797 75.014 10.0275 74.9558L11.9531 74.5926C12.0761 74.5692 12.1799 74.487 12.23 74.3728L13.0228 72.5807C13.1499 72.2927 13.5527 72.2758 13.7037 72.5522L14.6441 74.2713C14.7041 74.3809 14.8143 74.4544 14.939 74.4672L16.8885 74.6672C17.2015 74.6992 17.3426 75.077 17.1263 75.3061L15.782 76.7321C15.6963 76.823 15.6608 76.9507 15.687 77.0725L16.0992 78.9881C16.1662 79.296 15.8502 79.5461 15.5657 79.4114Z" fill="#E38921"/>
<path d="M6.69576 21.2231L6.71616 21.2039L6.73598 21.2033C7.53873 21.8335 8.433 22.6141 9.03521 23.4682C9.65665 24.2214 9.61177 24.918 9.29347 25.6275C8.82534 26.4891 8.15726 27.4737 7.24083 27.8538C6.47597 28.1622 5.83879 28.0363 5.09842 27.6282C4.90546 27.5186 4.57083 27.2878 4.26594 27.0482C3.32095 26.2781 2.81318 25.8776 1.83554 24.8545C1.40881 24.4137 0.970416 23.9433 0.602563 23.4402C0.225965 22.9283 -0.0917537 22.3553 0.0242571 21.6878C0.0609841 21.1823 0.310495 20.7463 0.619468 20.3306C1.91949 18.6237 3.9354 18.0833 5.40273 19.9097L5.45403 19.9803C5.46452 20.0508 5.37416 20.1225 5.17479 20.3458C4.78303 20.7428 4.65361 20.9159 4.20181 21.2727C3.84737 21.0832 3.06736 20.7352 2.67618 21.1328C2.43542 21.3561 2.17425 21.5397 2.17716 21.8632C2.17774 21.9239 2.25994 22.1052 2.34156 22.2457C2.80269 23.0805 4.02459 24.3636 5.12174 25.2841C5.44645 25.5447 5.9035 25.8945 6.35763 25.8408C6.45849 25.8193 6.56809 25.7686 6.67943 25.6963C6.91029 25.5237 7.09042 25.2392 7.20935 24.9757C7.28805 24.753 7.29621 24.5414 7.15397 24.3001C7.07177 24.1596 6.66369 23.6372 6.55293 23.6879C6.36288 23.8214 5.97229 24.3391 5.79099 24.4207C5.30362 24.0412 5.20044 23.8197 4.68334 23.4104L4.67227 23.3994C4.66236 23.3895 4.66236 23.3895 4.67285 23.3795C4.67285 23.3795 4.68276 23.3696 4.68276 23.3492C4.80927 22.7931 6.42584 21.4983 6.69576 21.2231Z" fill="#0A1640"/>
<path d="M15.5433 20.656L15.5521 20.6677C15.1685 21.1055 14.564 21.5148 13.9979 21.7864L13.9868 21.7952C13.4318 21.446 12.5807 20.6415 12.038 20.3552C11.6095 20.5937 11.6654 20.6211 11.3256 20.8822C11.4865 21.5148 12.1563 22.4586 12.2776 23.1581C12.2659 23.1663 12.2636 23.1861 12.2531 23.1949C12.1534 23.3255 11.6794 23.5977 10.6563 24.3999C10.6452 24.4092 10.6452 24.4092 10.6248 24.4063C10.4814 24.0303 7.98807 19.6254 6.29688 15.1639C6.48576 14.9639 6.71953 14.8934 7.6482 14.0376C8.23525 14.5238 10.8889 16.7187 11.652 17.3395L15.5433 20.656ZM10.2226 19.6044C10.4925 19.4161 10.7776 19.1794 11.0615 18.9619C7.61089 15.3977 8.75934 17.0376 10.2226 19.6044Z" fill="#0A1640"/>
<path d="M20.9635 17.4851C20.4347 17.7136 19.7259 18.1975 19.3318 18.4289C18.4451 17.0619 17.3141 15.0273 16.3429 13.743C16.3295 14.1983 16.7603 15.9164 16.6245 15.9962C16.3715 16.1291 14.8534 14.7026 14.8552 14.7347C15.6253 16.3518 16.6402 17.9084 17.6365 19.3763C17.1585 19.7739 16.4647 20.1161 15.936 20.4274C15.9232 20.4349 15.9033 20.4297 15.8771 20.4122C15.6853 20.2268 14.8015 18.7257 10.9189 12.0145C11.2827 11.6187 12.0371 11.3237 12.5571 10.9687L12.5693 10.9611C13.0794 11.1249 13.9918 12.1125 14.4751 12.3416C14.5141 12.3521 14.5462 12.3497 14.5712 12.3346C14.6913 12.3136 14.0973 10.5431 14.1672 9.98814C14.4232 9.88729 15.4434 9.17199 15.9599 8.86768C16.8244 10.4784 17.8504 11.9125 18.6917 13.5384L20.9635 17.4851Z" fill="#0A1640"/>
<path d="M26.4096 12.9081C26.6982 13.4515 26.9774 14.0776 27.0654 14.6634C25.2851 15.4394 23.4516 16.4112 21.705 17.0163C20.3584 13.9901 18.9085 11.1499 17.749 8.08698C19.7253 7.08252 23.0809 5.52774 23.1153 5.60586C23.479 6.17892 23.6662 6.84584 23.9396 7.45854L23.9448 7.47194C22.9462 8.2129 21.6986 8.53295 20.5968 9.14856L20.5578 9.16547L20.5508 9.18471C20.7898 9.68781 20.9163 10.2877 21.2433 10.7051L21.2614 10.7121C21.8007 10.5191 22.3428 10.2626 22.8832 10.0382L22.8891 10.0504C23.2418 10.5972 23.4248 11.2199 23.7221 11.8524C23.2511 12.2336 22.3259 12.4732 22.207 12.6983C22.3422 13.2468 22.7072 13.9283 22.9322 14.3288L22.9514 14.3364C24.0993 13.8257 25.2285 13.4491 26.3985 12.8813L26.4096 12.9081Z" fill="#0A1640"/>
<path d="M34.7392 4.47209C34.9036 4.91514 35.0272 5.36986 35.1368 5.82865C35.3467 6.82262 35.644 7.7029 35.8329 8.67238L35.9145 9.13875C36.0486 9.79809 36.0807 10.514 35.8947 11.1418C35.6976 11.6688 35.2266 12.0623 34.7031 12.3672C34.2338 12.657 33.7185 12.826 33.1693 12.931C32.3922 13.0674 31.6174 13.1 31.0887 12.4582C30.7039 12.0746 30.5034 11.5511 30.3431 11.0182C29.9006 9.5993 29.3981 8.1821 29.1025 6.70836C28.8926 5.87704 28.8052 4.9542 29.1946 4.15379C29.2652 4.03078 29.3386 3.92293 29.4447 3.81974C30.497 2.89865 32.2138 2.46318 33.4946 2.98843C33.8205 3.15166 34.0921 3.38951 34.2874 3.67692C34.4862 3.91827 34.6197 4.19343 34.7392 4.47209ZM33.4421 6.50956C33.4386 6.49557 33.2742 6.05193 33.174 5.73888C32.995 5.24044 32.6242 4.85218 32.1404 4.76124C31.7276 4.71052 31.3475 4.94662 31.1178 5.24569C30.8677 5.57973 30.7337 5.95632 30.7272 6.37198C30.7663 7.11585 30.9651 7.90519 31.2152 8.66655C31.4874 9.28799 31.6606 9.98114 32.0045 10.539C32.5601 11.1721 33.7412 10.9413 34.1341 10.1543C34.3551 9.60629 34.2175 9.6436 34.07 8.8257C33.9831 8.4491 33.9143 8.14304 33.9033 8.10165L33.7237 7.43998L33.4421 6.50956Z" fill="#0A1640"/>
<path d="M41.4524 10.968C40.603 9.67501 39.7391 8.47176 39.1054 7.34605L38.8949 6.94671C38.79 6.74676 38.6845 6.5468 38.6419 6.55438C38.5854 6.56371 38.8728 8.57087 39.1328 10.1484C39.2051 10.585 39.2721 10.9931 39.3397 11.3155C39.1374 11.4064 38.9427 11.4531 38.7317 11.488C38.2811 11.5627 37.8013 11.5545 37.3652 11.6262L37.2031 10.6404C36.9082 8.85186 36.6126 7.32331 36.3223 5.56216C36.1083 4.26622 35.9247 2.97903 35.8262 1.76645C36.0016 1.69358 36.2249 1.64228 36.4505 1.60555C36.6896 1.56591 37.6287 1.46914 37.6427 1.55309C38.0246 2.19902 38.1668 2.27655 38.6355 3.01051C38.7923 3.25885 40.164 5.17449 40.206 5.16749C40.2562 5.11561 40.2305 4.69995 40.1775 4.37582C40.0539 3.6302 39.9093 3.01751 39.7979 2.34068C39.7332 1.94659 39.6831 1.55017 39.619 1.08263C39.9344 0.973034 40.2678 0.889087 40.6199 0.83079C40.972 0.772493 41.2868 0.749757 41.5632 0.762L42.3111 5.2975C42.4557 6.08509 42.5904 6.90124 42.7227 7.70516C42.8125 8.25432 42.8807 8.74926 42.9658 9.27101C43.0288 9.65111 43.1028 10.0149 43.1663 10.395L43.213 10.6771C43.1733 10.6981 43.083 10.771 42.76 10.824C42.3799 10.8864 41.8325 10.9051 41.4524 10.968Z" fill="#0A1640"/>
<path d="M43.1129 0.669352C43.6066 0.581324 44.3184 0.374953 44.8594 0.483385C45.0355 2.92019 45.218 5.58378 45.5508 8.00543C45.0588 8.10745 44.2759 8.17741 43.7227 8.24153L43.7087 8.24328C43.5262 5.73652 43.1467 3.27581 43.0703 0.67285L43.1129 0.669352ZM44.0106 10.6381C43.883 10.6504 43.9512 9.49725 43.9034 8.97083L43.9022 8.95684C44.3406 8.73064 45.0804 8.82275 45.6348 8.77203C45.6686 9.29962 45.696 9.92806 45.7456 10.483L45.6465 10.493C45.4185 10.5122 45.3177 10.5075 45.1037 10.5268L45.0757 10.5297L44.0106 10.6381Z" fill="#0A1640"/>
</svg>
