<svg xmlns="http://www.w3.org/2000/svg" width="120" height="115" fill="none"><path fill="#845EF9" d="m84.254 13.75 19.754 81.55a4.885 4.885 0 0 1-3.594 5.898l-51.258 12.417a4.86 4.86 0 0 1-3.717-.593 4.87 4.87 0 0 1-2.175-3.001L23.508 28.465a4.875 4.875 0 0 1 3.596-5.887L78.362 10.16q.405-.097.811-.126a4.84 4.84 0 0 1 2.28.39 4.9 4.9 0 0 1 1.862 1.418c.439.546.764 1.188.939 1.907"/><path fill="#3C1DA1" d="m40.941 66.393 45.17-10.942a3.18 3.18 0 0 0 2.341-3.837l-7.569-31.246a3.18 3.18 0 0 0-3.837-2.34l-45.17 10.941a3.18 3.18 0 0 0-2.34 3.837l7.568 31.246a3.18 3.18 0 0 0 3.837 2.34M100.602 81.241l3.406 14.062a4.885 4.885 0 0 1-3.596 5.895l-26.597 6.443-3.496-14.433a4.5 4.5 0 0 1 3.315-5.434z"/><path fill="#FF8CDB" d="M55.327 88.174a2.723 2.723 0 0 0 2.006-3.288l-3.38-13.953a2.724 2.724 0 0 0-5.294 1.282l3.38 13.953a2.723 2.723 0 0 0 3.288 2.006"/><path fill="#FF8CDB" d="M43.372 80.882a2.724 2.724 0 0 0 3.288 2.006l13.953-3.38a2.724 2.724 0 0 0-1.282-5.295l-13.954 3.38a2.724 2.724 0 0 0-2.005 3.289"/><path fill="#FFCE00" d="M71.335 74.109a3.036 3.036 0 1 0 5.9-1.43 3.036 3.036 0 0 0-5.9 1.43M84.683 70.875a3.036 3.036 0 1 0 5.9-1.43 3.036 3.036 0 0 0-5.9 1.43M78.627 62.153a3.036 3.036 0 1 0 1.43 5.901 3.036 3.036 0 0 0-1.43-5.9M81.86 75.5a3.036 3.036 0 1 0 1.43 5.901 3.036 3.036 0 0 0-1.43-5.9M49.265 102.953a1.81 1.81 0 0 0 2.49-.603l4.362-7.152a1.81 1.81 0 1 0-3.093-1.886l-4.362 7.152a1.81 1.81 0 0 0 .603 2.489M58.53 100.709c.855.521 1.97.251 2.49-.604l4.363-7.151a1.81 1.81 0 1 0-3.093-1.887l-4.363 7.152c-.52.854-.25 1.969.604 2.49"/><path fill="#fff" d="m79.11 22.088 6.978 28.806a1.83 1.83 0 0 1-1.345 2.21L41.087 63.68a1.835 1.835 0 0 1-2.208-1.35l-6.978-28.807a1.83 1.83 0 0 1 1.347-2.207l43.656-10.575a1 1 0 0 1 .133-.024 1.825 1.825 0 0 1 2.074 1.37M62.79 68.586a2.523 2.523 0 1 0 4.903-1.187 2.523 2.523 0 0 0-4.904 1.187"/><path fill="#D811AD" d="m78.869 8.775.304 1.26q-.405.028-.811.126l-10.225 2.477-.289-1.193a1.965 1.965 0 0 1 1.45-2.376l7.195-1.743a1.97 1.97 0 0 1 2.376 1.449M46.856 46.914c1.033-1.913 3.973-2.702 5.969-2.115 1.975.58 2.41 2.832-.046 4.239-3.364 1.926-7.262.357-5.923-2.124M71.94 40.838c-1.793-1.229-4.769-.584-6.275.85-1.49 1.421-.846 3.622 1.981 3.748 3.872.174 6.62-3.004 4.294-4.598M52.996 80.697a2.146 2.146 0 1 0 0-4.293 2.146 2.146 0 0 0 0 4.293"/><path fill="#845EF9" d="m39.83 38.883-2.38.577a.4.4 0 0 1-.483-.295l-.577-2.381a.4.4 0 0 1 .295-.483l2.381-.577a.4.4 0 0 1 .483.295l.577 2.381a.4.4 0 0 1-.295.483M43.539 33.946l-2.381.576a.4.4 0 0 1-.483-.295l-.577-2.38a.4.4 0 0 1 .295-.484l2.381-.576a.4.4 0 0 1 .483.295l.577 2.38a.4.4 0 0 1-.295.484M49.096 36.639l-2.381.576a.4.4 0 0 1-.484-.295l-.576-2.38a.4.4 0 0 1 .294-.484l2.381-.576a.4.4 0 0 1 .483.295l.577 2.38a.4.4 0 0 1-.294.484M52.805 31.702l-2.381.576a.4.4 0 0 1-.484-.295l-.576-2.38a.4.4 0 0 1 .294-.484l2.381-.576a.4.4 0 0 1 .483.294l.577 2.381a.4.4 0 0 1-.294.484M58.361 34.394l-2.38.577a.4.4 0 0 1-.484-.295l-.577-2.381a.4.4 0 0 1 .295-.484l2.38-.576a.4.4 0 0 1 .484.295l.577 2.38a.4.4 0 0 1-.295.484M62.07 29.457l-2.38.577a.4.4 0 0 1-.484-.295l-.577-2.381a.4.4 0 0 1 .295-.483l2.381-.577a.4.4 0 0 1 .484.295l.576 2.38a.4.4 0 0 1-.295.484M67.627 32.15l-2.381.576a.4.4 0 0 1-.483-.294l-.577-2.381a.4.4 0 0 1 .295-.484l2.38-.576a.4.4 0 0 1 .484.295l.577 2.38a.4.4 0 0 1-.295.484M71.336 27.213l-2.381.576a.4.4 0 0 1-.483-.294l-.577-2.38a.4.4 0 0 1 .294-.484l2.381-.577a.4.4 0 0 1 .484.295l.576 2.381a.4.4 0 0 1-.294.483M76.892 29.906l-2.38.576a.4.4 0 0 1-.484-.294l-.576-2.381a.4.4 0 0 1 .294-.483l2.381-.577a.4.4 0 0 1 .483.294l.577 2.381a.4.4 0 0 1-.295.484M78.158 45.538l2.381-.576a.4.4 0 0 1 .483.294l.577 2.381a.4.4 0 0 1-.294.484l-2.381.576a.4.4 0 0 1-.484-.295l-.576-2.38a.4.4 0 0 1 .294-.484M74.45 50.476l2.38-.577a.4.4 0 0 1 .484.295l.576 2.38a.4.4 0 0 1-.294.484l-2.381.577a.4.4 0 0 1-.483-.295l-.577-2.381a.4.4 0 0 1 .294-.484M68.893 47.783l2.38-.577a.4.4 0 0 1 .484.295l.576 2.38a.4.4 0 0 1-.294.484l-2.38.577a.4.4 0 0 1-.484-.295l-.577-2.381a.4.4 0 0 1 .295-.483M65.185 52.72l2.38-.576a.4.4 0 0 1 .484.295l.576 2.38a.4.4 0 0 1-.294.484l-2.381.576a.4.4 0 0 1-.483-.295l-.577-2.38a.4.4 0 0 1 .295-.484M59.627 50.027l2.381-.576a.4.4 0 0 1 .483.295l.577 2.38a.4.4 0 0 1-.295.484l-2.38.576a.4.4 0 0 1-.484-.295l-.577-2.38a.4.4 0 0 1 .295-.484M55.919 54.964l2.38-.576a.4.4 0 0 1 .484.294l.576 2.381a.4.4 0 0 1-.295.483l-2.38.577a.4.4 0 0 1-.484-.295l-.576-2.381a.4.4 0 0 1 .294-.483M50.363 52.271l2.38-.577a.4.4 0 0 1 .484.295l.576 2.38a.4.4 0 0 1-.294.484l-2.381.576a.4.4 0 0 1-.483-.294l-.577-2.38a.4.4 0 0 1 .294-.484M46.653 57.209l2.381-.577a.4.4 0 0 1 .483.295l.577 2.38a.4.4 0 0 1-.294.484l-2.381.577a.4.4 0 0 1-.483-.296l-.577-2.38a.4.4 0 0 1 .294-.483M41.097 54.516l2.38-.577a.4.4 0 0 1 .484.294l.577 2.381a.4.4 0 0 1-.295.484l-2.38.576a.4.4 0 0 1-.484-.295L40.803 55a.4.4 0 0 1 .294-.483M80.007 101.896c.552-.133.891-.689.757-1.241l-2.13-8.791a1.028 1.028 0 1 0-1.998.483l2.13 8.792c.134.552.69.891 1.241.757M84.261 100.866c.552-.133.89-.69.757-1.241l-2.13-8.792a1.028 1.028 0 0 0-1.998.484l2.13 8.792c.133.552.69.891 1.241.757M88.514 99.835c.552-.133.89-.69.757-1.24l-2.13-8.793a1.028 1.028 0 0 0-1.998.484l2.13 8.792c.133.552.689.891 1.241.757M92.768 98.806c.552-.134.89-.69.757-1.242l-2.13-8.791a1.028 1.028 0 1 0-1.998.484l2.13 8.791c.133.552.689.891 1.241.758M97.02 97.775c.553-.133.892-.689.758-1.24l-2.13-8.793a1.028 1.028 0 1 0-1.998.484l2.13 8.792c.133.552.69.89 1.24.757"/><path fill="#0A1640" d="M83.315 11.845c-.015.018-.024.044-.042.064-4.213 4.161 3.471 16.672 15.743 77.855 1.364 6.79-3.668 7.186-8.946 8.645-25.712 7.108-42.186 8.031-44.632 14.612a4.86 4.86 0 0 0 3.716.593l51.259-12.416a4.884 4.884 0 0 0 3.595-5.895l-19.754-81.55a4.84 4.84 0 0 0-.94-1.908" opacity=".25"/><path fill="#845EF9" d="m79.11 22.088 6.978 28.806a1.83 1.83 0 0 1-1.345 2.21L41.087 63.68a1.82 1.82 0 0 1-1.375-.213c1.187-6.55 13.432-8.339 27.275-11.011 15.677-3.029 9.387-18.942 8.224-25.33-.569-3.129.54-5.155 1.826-6.41a1.826 1.826 0 0 1 2.074 1.373" opacity=".25"/><path fill="#fff" d="M51.882 20.991c-3.975 1.361-17.576 4.71-22.032 5.282-1.076.139-1.415-1.206-.39-1.543 4.362-1.434 18.113-4.44 22.127-4.905.804-.094 1.057.905.295 1.166" opacity=".5"/><path fill="#0A1640" d="M48.972 39.873a2.36 2.36 0 0 1 2.97.765c1.278 1.806-.779 3.942-2.77 3.108-1.602-.672-1.823-3.062-.2-3.873M66.83 35.547a2.36 2.36 0 0 0-2.29 2.04c-.31 2.19 2.496 3.148 3.885 1.494 1.117-1.33.22-3.555-1.595-3.535M63.215 40.383c.18.668.161 1.299-.01 1.876-.785 2.684-4.824 4.18-7.213 2.506a4.2 4.2 0 0 1-.692-.632c-.826-.925-1.452-2.344-.34-3.177.748-.56 3.788-1.725 6.66-1.735.884-.004 1.407.46 1.595 1.162"/><path fill="#0A1640" d="m104.536 95.173-19.755-81.55a5.4 5.4 0 0 0-1.042-2.12 5.46 5.46 0 0 0-2.07-1.577 5.4 5.4 0 0 0-2.069-.438l-.203-.84v-.001a2.51 2.51 0 0 0-3.031-1.849L69.17 8.541a2.513 2.513 0 0 0-1.848 3.031l.161.666-40.506 9.812a5.427 5.427 0 0 0-3.995 6.543l19.755 81.555a5.38 5.38 0 0 0 2.418 3.335 5.4 5.4 0 0 0 4.13.659l51.258-12.416a5.39 5.39 0 0 0 3.353-2.448 5.4 5.4 0 0 0 .64-4.105m-35.999-83.19-.161-.666a1.427 1.427 0 0 1 1.05-1.72l7.195-1.744q.169-.04.335-.04a1.43 1.43 0 0 1 1.386 1.09l.162.673a5 5 0 0 0-.27.057zm34.432 86.73a4.3 4.3 0 0 1-2.681 1.958l-51.26 12.416a4.32 4.32 0 0 1-3.303-.527 4.3 4.3 0 0 1-1.934-2.667L24.036 28.337a4.34 4.34 0 0 1 3.196-5.232l41.033-9.94 10.225-2.477q.347-.084.726-.112a4.273 4.273 0 0 1 2.02.346 4.318 4.318 0 0 1 2.49 2.956l19.755 81.55a4.32 4.32 0 0 1-.512 3.285"/><path fill="#FF8CDB" d="M63.204 42.26c-.784 2.684-4.823 4.179-7.212 2.506a4.2 4.2 0 0 1-.692-.632c.625-1.13 1.922-2.087 3.557-2.483 1.66-.402 3.273-.132 4.347.608"/><path fill="#E38921" d="m18.492 50.532-2.383-.932a.5.5 0 0 0-.459.051l-2.118 1.435a.496.496 0 0 1-.774-.44l.15-2.554a.5.5 0 0 0-.19-.421l-2.02-1.572a.496.496 0 0 1 .18-.871l2.475-.647a.5.5 0 0 0 .341-.311l.871-2.406a.496.496 0 0 1 .885-.099l1.38 2.155a.5.5 0 0 0 .401.228l2.557.085a.496.496 0 0 1 .367.81l-1.623 1.979a.5.5 0 0 0-.093.452l.71 2.459a.496.496 0 0 1-.657.599M118.223 90.82l-2.382-.933a.5.5 0 0 0-.459.051l-2.119 1.435a.496.496 0 0 1-.773-.44l.149-2.554a.5.5 0 0 0-.19-.421l-2.019-1.572a.496.496 0 0 1 .18-.871l2.475-.647a.5.5 0 0 0 .341-.311l.871-2.406a.496.496 0 0 1 .884-.099l1.38 2.155a.5.5 0 0 0 .402.229l2.557.084a.496.496 0 0 1 .367.811l-1.623 1.978a.5.5 0 0 0-.093.452l.709 2.459a.496.496 0 0 1-.657.6M33.984 110.837l-2.383-.932a.5.5 0 0 0-.459.052l-2.118 1.434a.496.496 0 0 1-.774-.44l.15-2.554a.5.5 0 0 0-.19-.421l-2.02-1.572a.496.496 0 0 1 .18-.871l2.476-.647a.5.5 0 0 0 .34-.311l.872-2.406a.496.496 0 0 1 .884-.098l1.38 2.154a.5.5 0 0 0 .401.229l2.557.084a.497.497 0 0 1 .368.811l-1.623 1.978a.5.5 0 0 0-.094.453l.71 2.458a.495.495 0 0 1-.657.599M104.368 28.905l-1.843-1.309a.44.44 0 0 0-.405-.054l-2.123.777a.438.438 0 0 1-.569-.542l.675-2.157a.44.44 0 0 0-.074-.401l-1.395-1.779a.438.438 0 0 1 .34-.709l2.26-.025a.44.44 0 0 0 .36-.194l1.26-1.876a.438.438 0 0 1 .779.104l.723 2.142a.44.44 0 0 0 .295.282l2.174.619c.35.1.433.556.142.773l-1.814 1.35a.44.44 0 0 0-.177.367l.083 2.26a.437.437 0 0 1-.691.372M114.162 56.446l-1.771-.839a.38.38 0 0 0-.353.015l-1.695.984a.38.38 0 0 1-.568-.377l.25-1.944a.38.38 0 0 0-.124-.331l-1.46-1.308a.38.38 0 0 1 .183-.657l1.926-.363a.38.38 0 0 0 .277-.22l.792-1.792a.38.38 0 0 1 .681-.028l.94 1.719c.06.11.171.183.295.196l1.949.2a.38.38 0 0 1 .238.639l-1.344 1.426a.38.38 0 0 0-.095.34l.412 1.916a.379.379 0 0 1-.533.424M59.584 7.057l-1.771-.838a.38.38 0 0 0-.354.015l-1.694.984a.38.38 0 0 1-.568-.377l.25-1.944a.38.38 0 0 0-.124-.332l-1.46-1.307a.38.38 0 0 1 .183-.657l1.926-.363a.38.38 0 0 0 .276-.22l.793-1.792a.38.38 0 0 1 .68-.028l.941 1.719c.06.11.17.183.294.196l1.95.2a.38.38 0 0 1 .238.639l-1.345 1.426a.38.38 0 0 0-.095.34l.413 1.916a.379.379 0 0 1-.533.423M15.566 79.411l-1.772-.838a.38.38 0 0 0-.353.015l-1.695.984a.38.38 0 0 1-.568-.377l.25-1.944a.38.38 0 0 0-.124-.331l-1.46-1.308a.38.38 0 0 1 .184-.656l1.925-.363a.38.38 0 0 0 .277-.22l.793-1.792a.38.38 0 0 1 .68-.029l.941 1.72c.06.109.17.182.295.195l1.95.2a.38.38 0 0 1 .237.64l-1.344 1.425a.38.38 0 0 0-.095.34l.412 1.916a.38.38 0 0 1-.533.423"/><path fill="#0A1640" d="m6.696 21.223.02-.02h.02c.803.63 1.697 1.411 2.3 2.265.62.753.576 1.45.257 2.16-.468.861-1.136 1.846-2.052 2.226-.765.308-1.402.182-2.143-.226a8 8 0 0 1-.832-.58c-.945-.77-1.453-1.17-2.43-2.193-.427-.441-.866-.912-1.233-1.415-.377-.512-.695-1.085-.579-1.752.037-.506.286-.942.595-1.357 1.3-1.707 3.316-2.248 4.784-.421l.051.07c.01.07-.08.142-.28.366-.391.397-.52.57-.972.927-.355-.19-1.135-.538-1.526-.14-.24.223-.502.407-.499.73 0 .06.083.242.165.383.46.835 1.683 2.118 2.78 3.038.324.26.782.61 1.236.557a1 1 0 0 0 .321-.145c.231-.172.411-.457.53-.72.08-.223.087-.435-.055-.676-.082-.14-.49-.663-.601-.612-.19.133-.58.651-.762.733-.487-.38-.59-.601-1.108-1.01l-.01-.012c-.01-.01-.01-.01 0-.02 0 0 .01-.01.01-.03.126-.556 1.743-1.85 2.013-2.126M15.543 20.656l.01.012c-.385.438-.989.847-1.555 1.118l-.011.01c-.555-.35-1.406-1.154-1.949-1.44-.428.238-.373.265-.712.526.16.633.83 1.577.952 2.276-.012.008-.014.028-.025.037-.1.13-.574.403-1.597 1.205-.01.01-.01.01-.031.006-.144-.376-2.637-4.78-4.328-9.242.189-.2.423-.27 1.351-1.126.587.486 3.24 2.68 4.004 3.302zm-5.32-1.052c.27-.188.555-.425.838-.642-3.45-3.564-2.302-1.924-.838.642M20.964 17.485c-.53.229-1.238.713-1.632.944-.887-1.367-2.018-3.402-2.99-4.686-.012.455.418 2.173.283 2.253-.253.133-1.772-1.293-1.77-1.261.77 1.617 1.785 3.173 2.782 4.641-.479.398-1.172.74-1.701 1.051q-.02.012-.059-.015c-.192-.185-1.075-1.686-4.958-8.397.364-.396 1.118-.691 1.638-1.046l.012-.008c.51.164 1.423 1.152 1.906 1.38q.06.017.096-.006c.12-.021-.474-1.792-.404-2.347.256-.1 1.276-.816 1.793-1.12.864 1.61 1.89 3.044 2.732 4.67zM26.41 12.908c.288.543.567 1.17.655 1.755-1.78.776-3.613 1.748-5.36 2.353-1.347-3.026-2.796-5.866-3.956-8.929 1.976-1.004 5.332-2.56 5.366-2.481.364.573.551 1.24.825 1.853l.005.013c-.999.74-2.246 1.06-3.348 1.677l-.04.016-.006.02c.239.503.365 1.103.692 1.52l.018.007c.54-.193 1.082-.45 1.622-.674l.006.012c.353.547.536 1.17.833 1.802-.47.382-1.396.621-1.515.846.135.549.5 1.23.725 1.63l.02.008c1.147-.51 2.276-.887 3.446-1.455zM34.74 4.472c.164.443.287.898.397 1.357.21.994.507 1.874.696 2.843l.081.467c.135.66.167 1.375-.02 2.003-.196.527-.667.92-1.19 1.225-.47.29-.986.459-1.535.564-.777.136-1.552.169-2.08-.473-.385-.383-.586-.907-.746-1.44-.442-1.419-.945-2.836-1.24-4.31-.21-.831-.298-1.754.092-2.554.07-.123.144-.231.25-.334 1.052-.921 2.769-1.357 4.05-.832.326.164.597.402.792.689.2.241.333.516.452.795M33.441 6.51c-.003-.014-.168-.458-.268-.771-.179-.499-.55-.887-1.034-.978-.412-.05-.793.186-1.022.485-.25.334-.384.71-.39 1.126.038.744.237 1.533.487 2.295.272.621.446 1.314.79 1.872.555.633 1.736.402 2.13-.385.22-.548.083-.51-.065-1.328-.087-.377-.156-.683-.167-.724l-.18-.662zM41.452 10.968c-.849-1.293-1.713-2.496-2.347-3.622l-.21-.4c-.105-.2-.21-.4-.253-.392-.057.01.23 2.017.49 3.594.073.437.14.845.208 1.168-.203.09-.397.137-.608.172-.45.075-.93.067-1.367.138l-.162-.986c-.295-1.788-.59-3.317-.88-5.078-.215-1.296-.398-2.583-.497-3.796.176-.072.399-.124.624-.16.24-.04 1.179-.137 1.193-.053.382.646.524.724.992 1.458.157.248 1.529 2.163 1.571 2.156.05-.051.024-.467-.029-.791-.123-.746-.268-1.358-.38-2.035-.064-.394-.114-.79-.178-1.258q.473-.165 1-.252.53-.088.944-.069l.748 4.536c.145.787.28 1.603.412 2.407.09.55.158 1.044.243 1.566.063.38.137.744.2 1.124l.047.282c-.04.021-.13.094-.453.147-.38.062-.927.081-1.308.144M43.113.67c.494-.089 1.205-.295 1.746-.187.176 2.437.359 5.1.692 7.522-.492.102-1.275.172-1.828.237l-.014.001c-.183-2.506-.562-4.967-.639-7.57zm.898 9.968c-.128.012-.06-1.14-.108-1.667v-.014c.438-.226 1.177-.134 1.732-.185.034.528.061 1.156.11 1.711l-.098.01c-.228.02-.33.014-.543.034l-.028.003z"/></svg>