<svg xmlns="http://www.w3.org/2000/svg" width="366" height="366" fill="none"><g clip-path="url(#a)"><mask id="b" width="366" height="366" x="0" y="0" maskUnits="userSpaceOnUse" style="mask-type:luminance"><path fill="#fff" d="M366 0H0v366h366z"/></mask><g mask="url(#b)"><path fill="url(#c)" fill-rule="evenodd" d="M0 0c50.534 0 91.5 40.966 91.5 91.5C40.966 91.5 0 50.534 0 0m183 0c-50.534 0-91.5 40.966-91.5 91.5C40.966 91.5 0 132.466 0 183s40.966 91.5 91.5 91.5C40.966 274.5 0 315.466 0 366c50.534 0 91.5-40.966 91.5-91.5 0 50.534 40.966 91.5 91.5 91.5s91.5-40.966 91.5-91.5c0 50.534 40.966 91.5 91.5 91.5 0-50.534-40.966-91.5-91.5-91.5 50.534 0 91.5-40.966 91.5-91.5s-40.966-91.5-91.5-91.5C325.034 91.5 366 50.534 366 0c-50.534 0-91.5 40.966-91.5 91.5C274.5 40.966 233.534 0 183 0m91.5 274.5c0-50.534-40.966-91.5-91.5-91.5 0 50.534 40.966 91.5 91.5 91.5M183 183c50.534 0 91.5-40.966 91.5-91.5 0 50.534 40.966 91.5 91.5 91.5-50.534 0-91.5 40.966-91.5 91.5-50.534 0-91.5 40.966-91.5 91.5 0-50.534-40.966-91.5-91.5-91.5 50.534 0 91.5-40.966 91.5-91.5m0 0c-50.534 0-91.5 40.966-91.5 91.5C91.5 223.966 50.534 183 0 183c50.534 0 91.5-40.966 91.5-91.5 0 50.534 40.966 91.5 91.5 91.5m0 0c0-50.534 40.966-91.5 91.5-91.5C223.966 91.5 183 50.534 183 0c0 50.534-40.966 91.5-91.5 91.5 50.534 0 91.5 40.966 91.5 91.5" clip-rule="evenodd"/></g></g><defs><linearGradient id="c" x1="183" x2="183" y1="0" y2="366" gradientUnits="userSpaceOnUse"><stop stop-color="#B8DBFC"/><stop offset="1" stop-color="#F8FBFE"/></linearGradient><clipPath id="a"><path fill="#fff" d="M0 0h366v366H0z"/></clipPath></defs></svg>