<svg xmlns="http://www.w3.org/2000/svg" width="32" height="32" fill="none"><g clip-path="url(#a)"><path fill="#000" d="m20.11 30.501-4.555.617a11.22 11.22 0 0 1-10.408-4.306L2.34 23.15A11.41 11.41 0 0 1 .844 11.92l1.747-4.279A11.26 11.26 0 0 1 11.5.718l4.554-.617a11.22 11.22 0 0 1 10.408 4.307L29.27 8.07a11.4 11.4 0 0 1 1.5 11.23l-1.747 4.278a11.26 11.26 0 0 1-8.908 6.923z"/><path fill="#fff" d="M13.336 16.352c.968 0 1.752-.79 1.752-1.764s-.784-1.764-1.752-1.764c-.967 0-1.751.79-1.751 1.764s.784 1.764 1.751 1.764M16.792 24.04c.968 0 1.752-.79 1.752-1.765s-.784-1.764-1.752-1.764c-.967 0-1.751.79-1.751 1.764s.784 1.764 1.751 1.764M23.49 15.606c.967 0 1.751-.79 1.751-1.764 0-.975-.784-1.765-1.751-1.765-.968 0-1.752.79-1.752 1.765s.784 1.764 1.752 1.764"/></g><defs><clipPath id="a"><path fill="#fff" d="M0 0h32v31.22H0z"/></clipPath></defs></svg>