<svg width="32" height="32" viewBox="0 0 32 32" fill="none" xmlns="http://www.w3.org/2000/svg">
<g clip-path="url(#clip0_1198_3841)">
<path d="M20.1097 30.5011L15.5551 31.1183C11.5722 31.6573 7.60303 30.0175 5.14743 26.8117L2.33973 23.1499C-0.111294 19.944 -0.682896 15.665 0.844418 11.9203L2.59124 7.64127C4.11855 3.89655 7.51157 1.25729 11.4991 0.718378L16.0535 0.101168C20.0365 -0.437741 24.0057 1.20201 26.4613 4.40783L29.269 8.06961C31.7246 11.2755 32.2962 15.5545 30.7689 19.2992L29.022 23.5782C27.4947 27.3229 24.1017 29.9622 20.1143 30.5011H20.1097Z" fill="black"/>
<path d="M13.3363 16.352C14.3036 16.352 15.0877 15.5622 15.0877 14.5879C15.0877 13.6136 14.3036 12.8237 13.3363 12.8237C12.369 12.8237 11.585 13.6136 11.585 14.5879C11.585 15.5622 12.369 16.352 13.3363 16.352Z" fill="white"/>
<path d="M16.7924 24.0392C17.7597 24.0392 18.5438 23.2494 18.5438 22.2751C18.5438 21.3008 17.7597 20.511 16.7924 20.511C15.8251 20.511 15.041 21.3008 15.041 22.2751C15.041 23.2494 15.8251 24.0392 16.7924 24.0392Z" fill="white"/>
<path d="M23.4896 15.6057C24.4569 15.6057 25.241 14.8158 25.241 13.8415C25.241 12.8672 24.4569 12.0774 23.4896 12.0774C22.5224 12.0774 21.7383 12.8672 21.7383 13.8415C21.7383 14.8158 22.5224 15.6057 23.4896 15.6057Z" fill="white"/>
</g>
<defs>
<clipPath id="clip0_1198_3841">
<rect width="32" height="31.2195" fill="white"/>
</clipPath>
</defs>
</svg>
