<svg width="654" height="389" viewBox="0 0 654 389" fill="none" xmlns="http://www.w3.org/2000/svg">
<path d="M-19.5 7C-19.5 7 58.9806 243.598 271 187C507 124 606 379.5 606 379.5" stroke="#C5EC7D" stroke-width="40" stroke-miterlimit="10"/>
<path d="M-12.1683 40.6123L-6.87784 38.0604L-3.43401 36.3993L-2.4871 38.3625L-5.10711 39.6057L-4.94662 39.9384C-4.24487 39.7777 -3.61907 39.7288 -3.06921 39.7917C-2.51935 39.8546 -2.04275 40.0348 -1.63943 40.3325C-1.23075 40.6412 -0.892672 41.0728 -0.625183 41.6274C-0.138355 42.6367 -0.12414 43.5732 -0.582539 44.4369C-1.03559 45.3116 -2.02186 46.1155 -3.54136 46.8484L-8.09985 49.0471L-9.26342 46.6348L-4.97112 44.5644C-4.03946 44.1151 -3.42977 43.6501 -3.14204 43.1695C-2.83788 42.6947 -2.81152 42.1966 -3.06296 41.6753C-3.27695 41.2317 -3.59481 40.927 -4.01653 40.7613C-4.43826 40.5956 -4.91394 40.5447 -5.44357 40.6088C-5.95677 40.6786 -6.49332 40.8417 -7.05323 41.0981L-11.0128 43.008L-12.1683 40.6123Z" fill="#220D4E"/>
<path d="M-5.2085 54.708L5.53615 48.9486L7.87479 53.3116C8.18894 53.8977 8.42516 54.4557 8.58345 54.9856C8.75259 55.5097 8.84924 56.0027 8.87338 56.4648C8.89753 56.9269 8.84626 57.3526 8.71959 57.7418C8.60959 58.1361 8.42127 58.4885 8.15463 58.7991C7.89884 59.1039 7.57017 59.3639 7.1686 59.5791C6.78874 59.7828 6.40944 59.9092 6.0307 59.9585C5.66282 60.002 5.30093 59.9655 4.94503 59.8489C4.58912 59.7323 4.23921 59.5356 3.89529 59.2589C3.56222 58.9764 3.24057 58.6109 2.93033 58.1625L2.68613 58.2934C2.92856 58.876 3.03393 59.3853 3.00225 59.8214C2.98723 60.2626 2.86095 60.6656 2.6234 61.0305C2.39167 61.4062 2.06399 61.7984 1.64037 62.2071L-0.208349 64.0363L-1.59583 61.4478L0.168632 59.8524C0.550401 59.522 0.811222 59.2005 0.951095 58.888C1.10182 58.5697 1.15039 58.2433 1.09682 57.9088C1.05409 57.5684 0.925109 57.1975 0.709861 56.7959L-0.223851 55.054L-3.95192 57.0523L-5.2085 54.708ZM1.53437 54.1115L2.52916 55.9674C2.92475 56.7054 3.37126 57.1996 3.86869 57.4499C4.36612 57.7002 4.9133 57.6654 5.51023 57.3454C6.0963 57.0313 6.42319 56.6116 6.49091 56.0863C6.5753 55.566 6.41679 54.9314 6.01538 54.1826L4.98568 52.2615L1.53437 54.1115Z" fill="#220D4E"/>
<path d="M2.50612 69.2581C2.10699 68.5643 1.84691 67.89 1.72587 67.2351C1.61098 66.5909 1.62753 65.9776 1.77552 65.3952C1.92351 64.8129 2.20602 64.2668 2.62304 63.757C3.0462 63.2578 3.59401 62.8148 4.26645 62.428C4.92823 62.0473 5.58883 61.788 6.24825 61.6501C6.92449 61.5168 7.5698 61.5149 8.18418 61.6445C8.80924 61.7679 9.38428 62.0267 9.90931 62.4208C10.4343 62.8148 10.8872 63.3427 11.2679 64.0045C11.6364 64.6449 11.8581 65.2774 11.9333 65.9019C12.0191 66.5202 11.949 67.1146 11.7231 67.6849C11.5033 68.266 11.1322 68.8062 10.6097 69.3056C10.1041 69.8096 9.44942 70.2644 8.64567 70.6699L4.78682 64.1104L6.05167 63.3827L9.13002 68.6226L8.01985 68.1745C8.62854 67.9238 9.07136 67.6193 9.3483 67.2611C9.62524 66.9029 9.76621 66.5306 9.7712 66.1441C9.78233 65.7684 9.68964 65.4097 9.49315 65.0681C9.25981 64.6625 8.94737 64.3664 8.55582 64.1796C8.16427 63.9929 7.71123 63.9339 7.19671 64.0026C6.69285 64.0651 6.15274 64.2622 5.57635 64.5938C4.66908 65.1157 4.11557 65.697 3.91581 66.3375C3.7222 66.9888 3.81267 67.6399 4.18724 68.291C4.35918 68.5899 4.54083 68.8192 4.73222 68.979C4.94042 69.1434 5.1454 69.2528 5.34718 69.3072C5.55509 69.3722 5.76059 69.3961 5.96368 69.3787C6.17291 69.372 6.37293 69.3493 6.56374 69.3105L7.28279 71.5605C6.83259 71.6917 6.39212 71.7533 5.96138 71.7454C5.54745 71.742 5.13404 71.6531 4.72114 71.4786C4.31892 71.298 3.93322 71.0227 3.56405 70.6526C3.19035 70.2994 2.8377 69.8345 2.50612 69.2581Z" fill="#220D4E"/>
<path d="M6.34026 75.3065L13.3114 68.1506L14.7731 70.5043L9.04509 75.6706L9.23024 75.9687L16.5369 73.3444L18.2228 76.059L12.6604 81.4921L12.8456 81.7902L19.9963 78.9149L21.4288 81.2215L11.9143 84.2819L9.98482 81.1751L15.5878 75.9125L15.4221 75.6457L8.25999 78.3977L6.34026 75.3065Z" fill="#220D4E"/>
<path d="M14.5214 88.6677C14.2196 88.2177 14.039 87.7606 13.9796 87.2963C13.9304 86.8251 14.0094 86.3792 14.2165 85.9585C14.4236 85.5379 14.7777 85.1594 15.2788 84.8233C15.7185 84.5283 16.1415 84.3632 16.5479 84.3278C16.961 84.3027 17.3694 84.3921 17.773 84.5958C18.1766 84.7996 18.601 85.1006 19.0461 85.4989C19.4913 85.8972 19.9656 86.3723 20.4693 86.9241C20.7399 87.217 20.9643 87.4521 21.1424 87.6291C21.3376 87.8096 21.5206 87.9166 21.6915 87.9503C21.8726 87.9771 22.0654 87.9219 22.2699 87.7847C22.5563 87.5926 22.7331 87.3257 22.8004 86.984C22.8677 86.6423 22.7539 86.2515 22.4589 85.8118C22.26 85.5153 22.0236 85.2734 21.7499 85.0864C21.4829 84.9096 21.1855 84.7977 20.8575 84.7509C20.5363 84.7142 20.1898 84.7613 19.8179 84.8922L19.1093 82.5428C19.6109 82.3842 20.0906 82.3145 20.5483 82.3337C21.0128 82.3631 21.4571 82.4728 21.8812 82.6629C22.3155 82.846 22.7244 83.113 23.1079 83.4636C23.4914 83.8143 23.8478 84.2351 24.1771 84.7259C24.7053 85.5133 25.0063 86.2382 25.0799 86.9006C25.1706 87.5663 25.0324 88.2002 24.6653 88.8024C24.3084 89.3977 23.7158 89.9732 22.8875 90.5288L21.5069 91.4549C21.149 91.695 20.7894 91.9437 20.4281 92.2009C20.0737 92.4683 19.7142 92.7391 19.3495 93.0134C19.002 93.2911 18.6544 93.5687 18.3069 93.8463L17 91.8983C17.2282 91.6859 17.4922 91.4494 17.792 91.189C18.1089 90.932 18.4292 90.68 18.753 90.4332L18.5677 90.1571C18.0831 90.2746 17.5931 90.3067 17.0977 90.2535C16.6024 90.2003 16.1272 90.0446 15.6722 89.7863C15.2343 89.5314 14.8507 89.1586 14.5214 88.6677ZM16.7444 88.5332C16.8747 88.7275 17.0409 88.8978 17.2428 89.0441C17.4516 89.2006 17.6791 89.3297 17.9253 89.4315C18.1886 89.5366 18.4688 89.6006 18.766 89.6237C19.0701 89.657 19.3791 89.6424 19.6931 89.58L20.961 88.685L21.121 89.0892C20.8646 88.9944 20.6132 88.8516 20.3667 88.6611C20.1305 88.4637 19.9027 88.2458 19.6835 88.0073C19.4711 87.7791 19.2535 87.5543 19.0309 87.333C18.8083 87.1116 18.5875 86.9261 18.3684 86.7765C18.1563 86.6371 17.9375 86.554 17.712 86.5273C17.5036 86.504 17.2767 86.5747 17.0312 86.7394C16.7142 86.952 16.5323 87.2223 16.4854 87.5504C16.4386 87.8784 16.5249 88.206 16.7444 88.5332Z" fill="#220D4E"/>
<path d="M19.1802 95.063L23.0095 92.3523L27.0951 89.4602L28.3651 91.2542L25.6771 93.1796L25.8799 93.466C26.6102 93.0697 27.254 92.8177 27.8113 92.7098C28.3757 92.612 28.883 92.6678 29.333 92.8773C29.783 93.0868 30.193 93.4529 30.563 93.9755C30.627 94.0659 30.6896 94.165 30.7507 94.2726C30.829 94.3832 30.9028 94.5195 30.9723 94.6815L28.6016 96.2239C28.5652 96.0233 28.4981 95.8219 28.4002 95.6197C28.3023 95.4174 28.2035 95.2459 28.1039 95.1052C27.8264 94.7133 27.4976 94.4406 27.1175 94.2872C26.7374 94.1339 26.3124 94.0877 25.8426 94.1487C25.39 94.2126 24.9011 94.3852 24.376 94.6664L20.7276 97.249L19.1802 95.063Z" fill="#220D4E"/>
<path d="M25.3381 104.026C24.8501 103.376 24.5886 102.68 24.5537 101.936C24.5262 101.202 24.7179 100.473 25.1288 99.7486C25.5397 99.0243 26.1636 98.3479 27.0006 97.7195C27.7884 97.1279 28.5763 96.7211 29.3642 96.499C30.1522 96.2769 30.8923 96.2679 31.5844 96.4719C32.2766 96.676 32.8815 97.1226 33.399 97.8119C33.7761 98.3141 34.0005 98.8078 34.0722 99.2929C34.1439 99.7781 34.0789 100.266 33.8772 100.756C33.6928 101.249 33.3975 101.747 32.9915 102.253L33.2466 102.592C33.5099 102.287 33.7671 101.994 34.0182 101.713C34.2864 101.434 34.5474 101.177 34.8009 100.94C35.0544 100.704 35.2846 100.508 35.4914 100.352L38.0024 98.4669L39.5995 100.594L32.8493 105.662L29.0385 108.524L27.7076 106.751L29.9527 105.066L29.7309 104.77C29.0981 105.076 28.5145 105.252 27.9801 105.299C27.4457 105.347 26.9568 105.259 26.5134 105.038C26.0773 104.826 25.6856 104.489 25.3381 104.026ZM27.6134 103.427C27.8574 103.752 28.1333 103.976 28.4412 104.099C28.7492 104.222 29.0669 104.276 29.3944 104.261C29.7318 104.238 30.0544 104.165 30.3622 104.042C30.6798 103.911 30.9519 103.761 31.1784 103.591L31.459 103.38C31.6461 103.24 31.8159 103.066 31.9685 102.859C32.1383 102.655 32.2847 102.429 32.4077 102.183C32.5307 101.936 32.6106 101.684 32.6474 101.425C32.6941 101.159 32.6878 100.895 32.6285 100.631C32.5693 100.368 32.4509 100.118 32.2735 99.8813C32.0073 99.5268 31.6833 99.3004 31.3015 99.2021C30.9197 99.1038 30.4998 99.1188 30.0418 99.2472C29.5936 99.3681 29.1382 99.6023 28.6753 99.9498C28.2027 100.305 27.8409 100.684 27.5899 101.088C27.3463 101.502 27.2222 101.911 27.2175 102.315C27.2226 102.711 27.3546 103.082 27.6134 103.427Z" fill="#220D4E"/>
<path d="M32.271 112.974C31.8626 112.465 31.5407 111.966 31.3054 111.476C31.0701 110.985 30.9243 110.518 30.8679 110.074C30.8115 109.63 30.835 109.217 30.9383 108.834C31.0512 108.443 31.243 108.092 31.5137 107.78L33.4336 108.845C33.2531 109.053 33.1409 109.316 33.0971 109.635C33.0534 109.955 33.0894 110.305 33.2053 110.685C33.3386 111.068 33.5709 111.466 33.9022 111.879C34.2567 112.32 34.5927 112.611 34.9102 112.751C35.2373 112.884 35.5209 112.853 35.7611 112.661C35.9435 112.514 36.0337 112.331 36.0314 112.112C36.0292 111.893 35.9625 111.623 35.8313 111.302C35.7001 110.981 35.5216 110.611 35.2961 110.192C35.0974 109.767 34.8958 109.329 34.6913 108.877C34.4945 108.435 34.3555 107.987 34.2741 107.531C34.2003 107.085 34.2219 106.649 34.3386 106.224C34.4726 105.801 34.7605 105.412 35.2024 105.057C35.6634 104.688 36.167 104.489 36.7131 104.461C37.2592 104.433 37.821 104.583 38.3984 104.909C38.9854 105.227 39.5563 105.732 40.1111 106.424C40.612 107.048 40.9648 107.665 41.1695 108.274C41.3838 108.876 41.4519 109.453 41.3738 110.005C41.3131 110.559 41.109 111.062 40.7615 111.514L38.8472 110.279C39.0469 110.056 39.1716 109.798 39.2212 109.506C39.2785 109.223 39.2502 108.922 39.1363 108.603C39.0301 108.294 38.8459 107.975 38.5839 107.649C38.2526 107.236 37.9272 106.968 37.6078 106.845C37.2961 106.732 37.0298 106.765 36.8089 106.942C36.6264 107.088 36.5353 107.28 36.5356 107.516C36.5437 107.762 36.6171 108.051 36.7561 108.381C36.9046 108.704 37.0869 109.079 37.3028 109.506C37.5342 109.951 37.7435 110.399 37.9307 110.849C38.1275 111.291 38.2598 111.722 38.3277 112.141C38.4033 112.57 38.376 112.978 38.2458 113.367C38.1155 113.756 37.8391 114.119 37.4165 114.458C36.917 114.859 36.3769 115.071 35.7962 115.095C35.225 115.112 34.6392 114.942 34.0387 114.587C33.4382 114.232 32.849 113.695 32.271 112.974Z" fill="#220D4E"/>
<path d="M39.6656 121.806C39.287 121.368 39.0943 120.957 39.0873 120.572C39.0884 120.197 39.2845 119.84 39.6758 119.502C40.0763 119.156 40.4624 119.009 40.8339 119.062C41.2135 119.125 41.5925 119.375 41.9711 119.813C42.3576 120.26 42.5504 120.671 42.5493 121.046C42.5563 121.431 42.3595 121.797 41.959 122.143C41.1951 122.803 40.4306 122.691 39.6656 121.806Z" fill="#220D4E"/>
<path d="M43.7797 126.171L55.52 120.859L58.1775 123.685L52.1572 135.078L50.183 132.979L55.4161 123.822L55.2263 123.621L45.7539 128.27L43.7797 126.171ZM47.136 126.234L48.4546 124.994L53.8835 130.766L52.5649 132.007L47.136 126.234Z" fill="#220D4E"/>
<path d="M55.5072 138.67C54.9097 138.083 54.4732 137.482 54.1976 136.867C53.922 136.251 53.7902 135.638 53.802 135.028C53.8139 134.419 53.9565 133.825 54.2298 133.248C54.5118 132.662 54.9073 132.11 55.4164 131.592C55.9512 131.047 56.5134 130.624 57.1028 130.322C57.7095 130.021 58.3262 129.85 58.9528 129.809C59.5794 129.768 60.2029 129.872 60.8234 130.118C61.4439 130.365 62.0353 130.765 62.5977 131.317C63.16 131.869 63.5571 132.44 63.7889 133.03C64.0295 133.629 64.1132 134.22 64.0402 134.804C63.9846 135.388 63.7851 135.952 63.4418 136.495L61.1324 135.34C61.3735 135.042 61.5274 134.736 61.5942 134.422C61.6784 134.107 61.6669 133.803 61.5597 133.508C61.47 133.212 61.3021 132.944 61.056 132.703C60.8012 132.452 60.5298 132.289 60.2417 132.214C59.9623 132.129 59.6618 132.119 59.3402 132.183C59.036 132.246 58.7151 132.38 58.3773 132.583C58.057 132.787 57.7329 133.055 57.4051 133.389C56.9392 133.863 56.6038 134.328 56.399 134.783C56.2116 135.237 56.1546 135.673 56.2281 136.09C56.319 136.508 56.549 136.897 56.918 137.26C57.2695 137.605 57.6153 137.815 57.9556 137.89C58.3045 137.957 58.6308 137.932 58.9346 137.816C59.2557 137.7 59.5416 137.54 59.7922 137.338L61.0906 139.337C60.7102 139.637 60.2986 139.863 59.8559 140.015C59.422 140.176 58.9654 140.236 58.4861 140.197C58.0068 140.158 57.5136 140.019 57.0063 139.78C56.5165 139.54 56.0168 139.17 55.5072 138.67Z" fill="#220D4E"/>
<path d="M62.8463 145.57C62.2266 145.007 61.7672 144.423 61.4681 143.818C61.1689 143.214 61.0135 142.607 61.0019 141.997C60.9902 141.387 61.1098 140.789 61.3607 140.202C61.6198 139.605 61.9937 139.038 62.4824 138.5C62.9959 137.935 63.5412 137.491 64.1185 137.167C64.7132 136.842 65.3229 136.647 65.9474 136.583C66.572 136.518 67.199 136.597 67.8286 136.82C68.4582 137.042 69.0645 137.419 69.6478 137.949C70.231 138.479 70.6498 139.034 70.9042 139.615C71.1677 140.204 71.2742 140.791 71.2238 141.378C71.1907 141.964 71.0131 142.534 70.691 143.09L68.3388 142.026C68.5682 141.718 68.7102 141.406 68.7648 141.09C68.8368 140.773 68.8136 140.469 68.6951 140.178C68.594 139.886 68.4159 139.625 68.1607 139.393C67.8964 139.153 67.6189 139 67.3282 138.936C67.0457 138.862 66.745 138.863 66.4261 138.94C66.1246 139.015 65.8091 139.161 65.4794 139.377C65.1672 139.593 64.8537 139.873 64.539 140.22C64.0917 140.712 63.7746 141.189 63.5874 141.651C63.4177 142.113 63.3776 142.55 63.4671 142.965C63.574 143.378 63.8189 143.758 64.2016 144.106C64.5661 144.438 64.9198 144.634 65.2628 144.696C65.614 144.749 65.9391 144.712 66.2381 144.584C66.5545 144.456 66.8341 144.286 67.0767 144.074L68.4512 146.022C68.0827 146.336 67.6801 146.577 67.2436 146.746C66.8162 146.923 66.3623 147.002 65.8819 146.981C65.4015 146.961 64.9032 146.84 64.3871 146.621C63.8884 146.401 63.3748 146.05 62.8463 145.57Z" fill="#220D4E"/>
<path d="M70.376 152.112C69.7622 151.598 69.2856 151.055 68.9462 150.482C68.6163 149.917 68.4204 149.335 68.3586 148.738C68.2967 148.14 68.3737 147.53 68.5894 146.908C68.8146 146.293 69.1761 145.688 69.674 145.094C70.1639 144.508 70.6947 144.037 71.2662 143.68C71.855 143.322 72.4601 143.098 73.0815 143.008C73.7108 142.908 74.3398 142.953 74.9685 143.142C75.5972 143.33 76.2043 143.67 76.7898 144.16C77.3564 144.634 77.7826 145.151 78.0684 145.712C78.362 146.262 78.5012 146.845 78.4857 147.458C78.4797 148.079 78.3175 148.714 77.9993 149.363C77.6984 150.01 77.2406 150.663 76.6259 151.321L70.7424 146.493L71.6789 145.374L76.3748 149.232L75.1782 149.194C75.6632 148.749 75.9739 148.31 76.1104 147.879C76.2469 147.447 76.2509 147.049 76.1223 146.684C76.0032 146.328 75.7926 146.023 75.4904 145.77C75.1316 145.47 74.7362 145.3 74.3042 145.259C73.8723 145.219 73.4267 145.32 72.9674 145.562C72.516 145.794 72.0769 146.165 71.6502 146.675C70.9784 147.478 70.6592 148.214 70.6925 148.884C70.7352 149.562 71.0446 150.142 71.6207 150.625C71.8851 150.846 72.1347 150.998 72.3694 151.083C72.6215 151.165 72.8517 151.197 73.0598 151.179C73.2774 151.168 73.4785 151.119 73.6632 151.033C73.8573 150.955 74.0372 150.864 74.203 150.762L75.6536 152.627C75.2762 152.905 74.8839 153.115 74.4769 153.256C74.0872 153.395 73.6684 153.454 73.2207 153.433C72.7809 153.402 72.3239 153.276 71.8498 153.056C71.3772 152.853 70.886 152.539 70.376 152.112Z" fill="#220D4E"/>
<path d="M78.0899 158.277C77.5719 157.88 77.1402 157.471 76.7949 157.051C76.4495 156.631 76.1965 156.213 76.0359 155.795C75.8753 155.377 75.7995 154.97 75.8086 154.573C75.8251 154.167 75.9277 153.78 76.1163 153.413L78.2345 153.989C78.1088 154.234 78.0627 154.517 78.0963 154.837C78.1299 155.158 78.2484 155.489 78.4517 155.831C78.6722 156.171 78.9926 156.502 79.4129 156.824C79.8625 157.168 80.2581 157.371 80.5998 157.431C80.949 157.481 81.2173 157.385 81.4046 157.14C81.5469 156.955 81.5908 156.755 81.5364 156.543C81.482 156.331 81.3528 156.084 81.1489 155.804C80.9449 155.523 80.6835 155.207 80.3645 154.854C80.0703 154.488 79.7701 154.111 79.4639 153.721C79.1674 153.339 78.9253 152.936 78.7376 152.513C78.5597 152.097 78.4768 151.669 78.4888 151.228C78.518 150.785 78.705 150.339 79.0496 149.889C79.4091 149.42 79.8508 149.107 80.3746 148.95C80.8984 148.793 81.4795 148.804 82.118 148.983C82.764 149.152 83.4388 149.507 84.1425 150.046C84.7778 150.533 85.2674 151.048 85.6115 151.591C85.963 152.124 86.1667 152.668 86.2225 153.223C86.2955 153.775 86.2172 154.313 85.9876 154.835L83.8342 154.092C83.9748 153.827 84.0344 153.547 84.0129 153.251C84.0011 152.963 83.9019 152.678 83.7152 152.395C83.5383 152.12 83.2837 151.855 82.9514 151.6C82.5312 151.278 82.1513 151.095 81.8119 151.052C81.4822 151.017 81.2312 151.112 81.0589 151.336C80.9166 151.522 80.8738 151.73 80.9305 151.959C80.997 152.197 81.1371 152.459 81.3508 152.747C81.572 153.025 81.8384 153.346 82.1498 153.709C82.4808 154.086 82.7908 154.471 83.0798 154.864C83.3763 155.246 83.6074 155.633 83.7733 156.023C83.9489 156.422 84.0198 156.825 83.986 157.234C83.9521 157.642 83.7704 158.061 83.4408 158.492C83.0513 159 82.5773 159.335 82.019 159.496C81.4682 159.648 80.8589 159.623 80.1911 159.422C79.5233 159.22 78.8229 158.838 78.0899 158.277Z" fill="#220D4E"/>
<path d="M85.9961 164.066C85.4617 163.692 85.0129 163.302 84.65 162.898C84.287 162.493 84.0164 162.085 83.8381 161.674C83.6597 161.264 83.5666 160.86 83.5588 160.464C83.558 160.057 83.6439 159.666 83.8166 159.291L85.9576 159.776C85.8424 160.027 85.8085 160.311 85.8557 160.63C85.903 160.949 86.0354 161.275 86.2532 161.608C86.488 161.938 86.8223 162.255 87.2559 162.558C87.7198 162.884 88.1237 163.069 88.4677 163.114C88.8187 163.15 89.0826 163.042 89.2593 162.79C89.3935 162.598 89.429 162.397 89.3655 162.187C89.3021 161.977 89.1625 161.737 88.9467 161.465C88.731 161.194 88.4563 160.888 88.1225 160.549C87.813 160.197 87.497 159.833 87.1743 159.456C86.8618 159.087 86.6028 158.695 86.3972 158.28C86.2017 157.872 86.1005 157.448 86.0937 157.007C86.104 156.563 86.2717 156.11 86.5968 155.646C86.936 155.162 87.3639 154.83 87.8805 154.651C88.3971 154.471 88.9782 154.458 89.6238 154.609C90.2764 154.751 90.9657 155.076 91.6918 155.585C92.3473 156.044 92.8585 156.538 93.2254 157.066C93.5994 157.583 93.8261 158.118 93.9055 158.67C94.0021 159.219 93.9468 159.759 93.7397 160.291L91.5565 159.64C91.6858 159.37 91.7333 159.088 91.6992 158.793C91.6751 158.505 91.5638 158.224 91.3652 157.95C91.1767 157.682 90.911 157.429 90.5682 157.188C90.1345 156.884 89.7472 156.718 89.4063 156.69C89.0754 156.668 88.8287 156.774 88.6662 157.006C88.5319 157.197 88.498 157.407 88.5644 157.634C88.641 157.868 88.7922 158.124 89.018 158.403C89.2509 158.671 89.5307 158.98 89.8573 159.329C90.2042 159.692 90.5303 160.064 90.8358 160.443C91.1483 160.813 91.3958 161.189 91.5782 161.573C91.7706 161.963 91.8587 162.363 91.8423 162.773C91.826 163.182 91.6623 163.609 91.3514 164.053C90.9839 164.577 90.5247 164.932 89.9738 165.117C89.4299 165.292 88.8201 165.294 88.1443 165.121C87.4685 164.948 86.7524 164.596 85.9961 164.066Z" fill="#220D4E"/>
<path d="M90.9509 167.128L96.2574 159.011L98.4836 160.467L93.1772 168.583L90.9509 167.128ZM98.1844 158.528C97.7516 158.245 97.4739 157.938 97.3514 157.608C97.2459 157.274 97.3077 156.932 97.5368 156.582C97.7727 156.221 98.0646 156.022 98.4126 155.985C98.771 155.954 99.1666 156.08 99.5995 156.363C100.043 156.653 100.317 156.965 100.422 157.299C100.538 157.639 100.478 157.99 100.242 158.35C100.02 158.691 99.7296 158.876 99.3713 158.906C99.0232 158.944 98.6276 158.817 98.1844 158.528Z" fill="#220D4E"/>
<path d="M99.6427 172.883C99.1153 172.565 98.7169 172.189 98.4474 171.753C98.1843 171.307 98.049 170.816 98.0416 170.279C98.0342 169.743 98.1515 169.167 98.3934 168.551L98.0928 168.369L96.6279 170.765L94.7452 169.63L97.205 165.548L101.562 158.318L103.84 159.691L102.2 162.412C102.048 162.666 101.867 162.93 101.657 163.206C101.454 163.472 101.228 163.739 100.981 164.007C100.744 164.281 100.495 164.562 100.235 164.851L100.583 165.061C101.038 164.616 101.496 164.274 101.956 164.034C102.434 163.79 102.918 163.679 103.408 163.701C103.904 163.712 104.405 163.871 104.912 164.176C105.608 164.595 106.101 165.137 106.391 165.801C106.681 166.464 106.766 167.206 106.646 168.025C106.537 168.85 106.212 169.711 105.672 170.608C105.145 171.483 104.547 172.165 103.878 172.654C103.216 173.132 102.519 173.395 101.786 173.442C101.064 173.495 100.349 173.309 99.6427 172.883ZM99.9608 170.53C100.341 170.759 100.728 170.856 101.123 170.821C101.524 170.775 101.913 170.607 102.29 170.316C102.666 170.025 103.007 169.627 103.312 169.121C103.617 168.614 103.807 168.132 103.882 167.674C103.967 167.222 103.941 166.812 103.805 166.442C103.668 166.072 103.41 165.773 103.031 165.544C102.777 165.391 102.517 165.299 102.249 165.267C101.98 165.234 101.716 165.255 101.457 165.328C101.203 165.391 100.955 165.493 100.712 165.634C100.475 165.765 100.263 165.925 100.077 166.115C99.8908 166.304 99.7374 166.499 99.6166 166.7L99.4354 167C99.2893 167.243 99.1673 167.529 99.0695 167.858C98.9781 168.177 98.9384 168.505 98.9504 168.843C98.9793 169.177 99.0706 169.491 99.2242 169.784C99.3778 170.078 99.6233 170.327 99.9608 170.53Z" fill="#220D4E"/>
<path d="M104.383 175.314L110.769 163.753L113.064 165.021L106.679 176.582L104.383 175.314Z" fill="#220D4E"/>
<path d="M112.133 179.719C111.419 179.357 110.832 178.936 110.372 178.454C109.922 177.979 109.6 177.457 109.405 176.888C109.21 176.32 109.147 175.708 109.216 175.053C109.296 174.404 109.512 173.733 109.862 173.041C110.207 172.36 110.618 171.781 111.094 171.304C111.586 170.822 112.125 170.467 112.71 170.239C113.3 170 113.923 169.901 114.578 169.943C115.234 169.985 115.902 170.178 116.583 170.523C117.242 170.857 117.774 171.264 118.179 171.745C118.59 172.216 118.857 172.751 118.98 173.352C119.115 173.959 119.101 174.614 118.937 175.318C118.791 176.017 118.492 176.756 118.042 177.535L111.22 174.163L111.879 172.861L117.325 175.557L116.151 175.791C116.523 175.248 116.726 174.75 116.762 174.299C116.797 173.848 116.711 173.459 116.503 173.133C116.307 172.812 116.033 172.563 115.681 172.385C115.264 172.174 114.84 172.097 114.41 172.156C113.98 172.214 113.569 172.413 113.176 172.752C112.789 173.081 112.445 173.542 112.145 174.135C111.672 175.069 111.528 175.858 111.712 176.504C111.906 177.154 112.339 177.649 113.009 177.989C113.317 178.145 113.594 178.237 113.842 178.266C114.106 178.289 114.338 178.268 114.536 178.203C114.746 178.144 114.931 178.051 115.091 177.925C115.262 177.805 115.417 177.676 115.556 177.539L117.39 179.027C117.086 179.384 116.751 179.677 116.386 179.906C116.038 180.13 115.644 180.282 115.203 180.363C114.767 180.432 114.294 180.413 113.782 180.306C113.276 180.215 112.726 180.02 112.133 179.719Z" fill="#220D4E"/>
<path d="M124.792 185.544C124.041 185.234 123.46 184.768 123.051 184.146C122.653 183.529 122.446 182.804 122.43 181.972C122.414 181.139 122.606 180.239 123.005 179.271C123.381 178.361 123.851 177.609 124.416 177.016C124.98 176.423 125.612 176.038 126.312 175.86C127.011 175.683 127.759 175.759 128.556 176.088C129.137 176.327 129.581 176.637 129.89 177.018C130.2 177.399 130.392 177.851 130.469 178.376C130.562 178.894 130.562 179.474 130.47 180.115L130.863 180.277C130.934 179.88 131.005 179.497 131.078 179.127C131.167 178.751 131.26 178.396 131.357 178.063C131.455 177.731 131.553 177.445 131.651 177.206L132.85 174.303L135.308 175.318L132.087 183.121L130.269 187.526L128.22 186.68L129.291 184.085L128.95 183.944C128.561 184.529 128.149 184.979 127.714 185.292C127.278 185.605 126.813 185.779 126.319 185.815C125.836 185.855 125.327 185.765 124.792 185.544ZM126.443 183.868C126.819 184.023 127.17 184.075 127.498 184.024C127.825 183.972 128.126 183.857 128.4 183.677C128.679 183.486 128.92 183.258 129.121 182.995C129.328 182.721 129.485 182.453 129.593 182.191L129.727 181.867C129.817 181.65 129.874 181.414 129.9 181.158C129.941 180.896 129.952 180.627 129.933 180.353C129.913 180.078 129.853 179.82 129.752 179.579C129.657 179.326 129.516 179.102 129.331 178.905C129.146 178.709 128.916 178.554 128.643 178.442C128.234 178.272 127.839 178.243 127.461 178.353C127.082 178.463 126.729 178.69 126.4 179.034C126.076 179.367 125.804 179.801 125.583 180.336C125.358 180.882 125.24 181.393 125.23 181.869C125.232 182.349 125.334 182.764 125.536 183.114C125.742 183.452 126.045 183.704 126.443 183.868Z" fill="#220D4E"/>
<path d="M133.895 189.09C133.384 188.911 132.965 188.653 132.64 188.317C132.318 187.97 132.114 187.566 132.027 187.105C131.941 186.644 131.997 186.129 132.197 185.559C132.372 185.06 132.611 184.674 132.916 184.402C133.231 184.134 133.612 183.961 134.057 183.882C134.502 183.803 135.022 183.79 135.617 183.841C136.212 183.893 136.877 183.989 137.611 184.129C138.003 184.201 138.323 184.255 138.572 184.29C138.836 184.317 139.047 184.293 139.204 184.218C139.365 184.13 139.486 183.971 139.568 183.738C139.682 183.413 139.663 183.093 139.512 182.779C139.361 182.465 139.036 182.221 138.536 182.046C138.199 181.928 137.865 181.876 137.534 181.89C137.214 181.909 136.909 181.998 136.618 182.157C136.339 182.32 136.09 182.565 135.871 182.893L133.895 181.438C134.202 181.01 134.544 180.667 134.922 180.408C135.311 180.153 135.733 179.974 136.186 179.872C136.643 179.758 137.131 179.727 137.648 179.777C138.165 179.828 138.703 179.951 139.26 180.147C140.155 180.46 140.831 180.86 141.287 181.346C141.758 181.824 142.028 182.415 142.095 183.117C142.166 183.807 142.037 184.623 141.707 185.564L141.157 187.133C141.015 187.54 140.876 187.955 140.741 188.377C140.618 188.803 140.492 189.236 140.365 189.674C140.253 190.105 140.142 190.535 140.03 190.966L137.816 190.19C137.871 189.883 137.941 189.536 138.025 189.147C138.124 188.752 138.229 188.358 138.341 187.966L138.027 187.856C137.709 188.241 137.337 188.561 136.908 188.815C136.48 189.069 136.006 189.23 135.487 189.296C134.984 189.354 134.453 189.286 133.895 189.09ZM135.594 187.65C135.815 187.727 136.05 187.764 136.299 187.76C136.56 187.76 136.82 187.727 137.078 187.661C137.351 187.587 137.614 187.47 137.866 187.311C138.129 187.155 138.368 186.958 138.582 186.72L139.06 185.243L139.43 185.471C139.168 185.549 138.881 185.585 138.57 185.581C138.262 185.564 137.949 185.526 137.631 185.467C137.324 185.412 137.015 185.362 136.704 185.319C136.394 185.275 136.106 185.259 135.841 185.27C135.587 185.286 135.362 185.351 135.166 185.464C134.985 185.571 134.846 185.763 134.748 186.042C134.622 186.402 134.638 186.728 134.797 187.019C134.957 187.309 135.222 187.52 135.594 187.65Z" fill="#220D4E"/>
<path d="M144.757 192.6C143.72 192.286 143.035 191.784 142.704 191.092C142.388 190.392 142.412 189.441 142.775 188.238L143.999 184.189L142.655 183.783L143.294 181.796L144.231 182.079C144.597 182.189 144.884 182.218 145.093 182.166C145.301 182.113 145.466 181.95 145.587 181.678L146.218 180.422L147.668 180.86L147.043 182.928L149.394 183.639L148.769 185.708L146.417 184.997L145.247 188.869C145.119 189.294 145.127 189.631 145.27 189.88C145.414 190.129 145.692 190.316 146.104 190.44C146.328 190.508 146.547 190.549 146.762 190.562C146.988 190.579 147.194 190.558 147.38 190.498L146.664 192.867C146.263 192.875 145.904 192.85 145.586 192.792C145.269 192.735 144.993 192.671 144.757 192.6Z" fill="#220D4E"/>
<path d="M149.991 194.099C149.466 193.966 149.026 193.746 148.672 193.44C148.321 193.122 148.082 192.737 147.955 192.286C147.829 191.834 147.84 191.316 147.989 190.731C148.119 190.218 148.324 189.813 148.603 189.515C148.894 189.221 149.258 189.015 149.694 188.897C150.131 188.779 150.647 188.72 151.245 188.72C151.842 188.719 152.512 188.756 153.256 188.831C153.653 188.869 153.977 188.894 154.228 188.907C154.493 188.911 154.701 188.868 154.851 188.779C155.004 188.679 155.11 188.509 155.171 188.27C155.256 187.936 155.21 187.619 155.032 187.32C154.854 187.02 154.508 186.805 153.995 186.675C153.649 186.587 153.311 186.564 152.983 186.608C152.666 186.654 152.37 186.77 152.094 186.954C151.831 187.141 151.604 187.407 151.415 187.753L149.319 186.476C149.586 186.023 149.897 185.651 150.251 185.36C150.616 185.072 151.02 184.857 151.463 184.716C151.909 184.562 152.391 184.488 152.911 184.493C153.431 184.498 153.977 184.574 154.55 184.719C155.468 184.953 156.176 185.292 156.673 185.736C157.185 186.171 157.505 186.736 157.634 187.429C157.766 188.11 157.708 188.935 157.463 189.901L157.053 191.512C156.946 191.93 156.845 192.355 156.747 192.788C156.662 193.224 156.575 193.665 156.486 194.113C156.413 194.552 156.34 194.99 156.266 195.429L153.993 194.851C154.021 194.54 154.06 194.188 154.109 193.794C154.173 193.391 154.244 192.99 154.32 192.59L153.998 192.508C153.715 192.919 153.372 193.27 152.968 193.561C152.563 193.852 152.105 194.053 151.594 194.164C151.098 194.267 150.563 194.245 149.991 194.099ZM151.556 192.516C151.783 192.573 152.02 192.589 152.268 192.563C152.528 192.54 152.784 192.485 153.035 192.396C153.301 192.299 153.553 192.159 153.789 191.978C154.038 191.8 154.258 191.583 154.451 191.327L154.797 189.814L155.186 190.008C154.932 190.109 154.65 190.17 154.339 190.193C154.031 190.204 153.716 190.193 153.394 190.162C153.083 190.134 152.771 190.112 152.458 190.096C152.144 190.079 151.856 190.089 151.593 190.123C151.342 190.161 151.124 190.245 150.938 190.376C150.767 190.498 150.645 190.702 150.572 190.988C150.478 191.358 150.523 191.681 150.707 191.957C150.891 192.232 151.174 192.418 151.556 192.516Z" fill="#220D4E"/>
<path d="M163.169 197.056C162.6 196.947 162.194 196.743 161.951 196.446C161.719 196.15 161.652 195.749 161.75 195.241C161.85 194.721 162.062 194.367 162.387 194.178C162.723 193.992 163.176 193.954 163.744 194.063C164.325 194.175 164.731 194.378 164.962 194.674C165.206 194.971 165.278 195.38 165.178 195.9C164.987 196.892 164.317 197.277 163.169 197.056Z" fill="#220D4E"/>
<path d="M180.532 202.209C179.631 202.269 178.866 202.278 178.239 202.236C177.622 202.208 177.072 202.139 176.589 202.029C176.117 201.932 175.656 201.805 175.204 201.649C174.762 201.507 174.279 201.353 173.754 201.187C173.227 201.034 172.606 200.888 171.892 200.748C171.177 200.609 170.297 200.498 169.253 200.416L169.527 198.235C169.878 198.304 170.293 198.363 170.771 198.41C171.26 198.472 171.776 198.512 172.32 198.531C172.862 198.562 173.4 198.574 173.935 198.567C174.469 198.56 174.97 198.523 175.438 198.458C175.905 198.393 176.302 198.294 176.629 198.161L176.659 197.923C175.659 198.083 174.781 198.108 174.025 198.001C173.27 197.881 172.623 197.651 172.082 197.31C171.556 196.958 171.14 196.514 170.835 195.98C170.532 195.433 170.33 194.818 170.23 194.135C170.131 193.44 170.132 192.695 170.232 191.901C170.345 190.997 170.572 190.181 170.912 189.455C171.252 188.728 171.695 188.114 172.242 187.612C172.802 187.111 173.462 186.747 174.223 186.521C174.984 186.294 175.841 186.24 176.794 186.36C177.991 186.511 178.98 186.89 179.759 187.497C180.539 188.104 181.097 188.9 181.432 189.886C181.779 190.873 181.871 192.02 181.706 193.327C181.563 194.463 181.284 195.402 180.867 196.144C180.465 196.876 179.945 197.456 179.308 197.884C178.683 198.314 177.955 198.626 177.124 198.819C176.305 199.014 175.41 199.125 174.438 199.151L174.406 199.408C175.058 199.552 175.644 199.682 176.163 199.797C176.694 199.913 177.204 200.002 177.693 200.064C178.18 200.138 178.672 200.175 179.168 200.175C179.665 200.176 180.209 200.139 180.802 200.064L180.532 202.209ZM175.487 196.882C176.172 196.968 176.753 196.886 177.231 196.636C177.722 196.387 178.115 195.972 178.412 195.388C178.709 194.805 178.914 194.062 179.028 193.158C179.145 192.229 179.127 191.439 178.973 190.786C178.821 190.122 178.533 189.595 178.111 189.207C177.688 188.819 177.134 188.581 176.45 188.495C175.791 188.412 175.215 188.501 174.723 188.762C174.231 189.022 173.829 189.45 173.519 190.044C173.22 190.639 173.013 191.395 172.898 192.311C172.781 193.24 172.799 194.03 172.953 194.682C173.108 195.323 173.398 195.831 173.822 196.207C174.26 196.572 174.815 196.797 175.487 196.882Z" fill="#220D4E"/>
<path d="M186.222 200.043C185.091 199.969 184.262 199.533 183.734 198.733C183.219 197.922 183.012 196.731 183.114 195.158L183.457 189.886L186.111 190.058L185.79 194.998C185.729 195.944 185.824 196.66 186.076 197.146C186.33 197.619 186.745 197.874 187.322 197.911C187.667 197.934 187.973 197.867 188.242 197.712C188.512 197.557 188.748 197.331 188.953 197.036C189.157 196.741 189.316 196.387 189.429 195.975C189.554 195.564 189.639 195.119 189.682 194.64L189.963 190.309L192.618 190.481L192.245 196.213L191.989 200.158L189.851 200.019L190.029 196.995L189.697 196.973C189.463 197.723 189.189 198.335 188.875 198.808C188.573 199.27 188.2 199.603 187.755 199.809C187.322 200.003 186.811 200.081 186.222 200.043Z" fill="#220D4E"/>
<path d="M193.631 200.164L193.901 190.471L196.56 190.545L196.29 200.238L193.631 200.164ZM195.29 189.05C194.773 189.035 194.376 188.92 194.098 188.702C193.834 188.473 193.707 188.149 193.719 187.731C193.731 187.3 193.875 186.978 194.152 186.764C194.441 186.55 194.845 186.45 195.362 186.465C195.891 186.479 196.288 186.601 196.552 186.83C196.829 187.06 196.962 187.39 196.95 187.821C196.939 188.227 196.788 188.537 196.499 188.751C196.222 188.965 195.819 189.064 195.29 189.05Z" fill="#220D4E"/>
<path d="M202.463 200.526C201.626 200.531 200.892 200.413 200.263 200.17C199.633 199.928 199.108 199.586 198.687 199.145C198.265 198.704 197.948 198.183 197.735 197.581C197.522 196.966 197.413 196.296 197.409 195.569C197.405 194.806 197.505 194.11 197.711 193.48C197.928 192.839 198.245 192.283 198.661 191.812C199.077 191.342 199.592 190.975 200.206 190.713C200.82 190.451 201.521 190.317 202.309 190.313C203.098 190.308 203.782 190.433 204.362 190.688C204.955 190.943 205.431 191.304 205.791 191.769C206.163 192.223 206.419 192.763 206.558 193.39L204.106 194.199C204.067 193.818 203.96 193.492 203.786 193.222C203.624 192.94 203.401 192.732 203.117 192.598C202.846 192.452 202.537 192.38 202.193 192.382C201.835 192.384 201.528 192.46 201.27 192.609C201.013 192.746 200.792 192.951 200.609 193.223C200.438 193.482 200.305 193.803 200.208 194.186C200.124 194.556 200.084 194.975 200.087 195.442C200.091 196.107 200.18 196.673 200.355 197.14C200.543 197.595 200.81 197.944 201.156 198.188C201.515 198.42 201.952 198.534 202.47 198.531C202.962 198.528 203.356 198.434 203.65 198.247C203.944 198.048 204.158 197.801 204.292 197.505C204.438 197.196 204.528 196.881 204.563 196.561L206.894 197.064C206.835 197.545 206.702 197.995 206.496 198.415C206.301 198.835 206.02 199.2 205.653 199.51C205.285 199.82 204.837 200.069 204.309 200.257C203.792 200.432 203.177 200.522 202.463 200.526Z" fill="#220D4E"/>
<path d="M207.932 200.182L207.246 186.993L209.865 186.857L210.246 194.18C210.614 193.902 210.962 193.606 211.291 193.293C211.632 192.967 211.935 192.631 212.201 192.284C212.478 191.937 212.719 191.585 212.923 191.229C213.138 190.873 213.317 190.524 213.46 190.184L216.504 190.026C216.344 190.503 216.122 190.989 215.84 191.484C215.569 191.967 215.235 192.422 214.838 192.85C214.453 193.264 213.997 193.627 213.47 193.938C212.944 194.249 212.357 194.471 211.711 194.603L211.727 194.916C212.543 194.726 213.226 194.703 213.776 194.847C214.326 194.991 214.784 195.245 215.148 195.608C215.523 195.958 215.829 196.374 216.063 196.855C216.297 197.324 216.513 197.8 216.711 198.283L217.21 199.699L214.314 199.85L214.027 198.959C213.824 198.365 213.606 197.846 213.373 197.402C213.14 196.958 212.845 196.622 212.488 196.394C212.143 196.153 211.675 196.047 211.085 196.078L210.347 196.116L210.551 200.046L207.932 200.182Z" fill="#220D4E"/>
<path d="M222.888 199.172L221.416 187.071L226.33 186.473C226.99 186.393 227.596 186.375 228.147 186.42C228.697 186.452 229.191 186.541 229.631 186.686C230.07 186.831 230.448 187.033 230.765 187.292C231.093 187.538 231.353 187.841 231.545 188.202C231.737 188.551 231.86 188.951 231.915 189.404C231.967 189.832 231.947 190.231 231.856 190.602C231.763 190.96 231.598 191.284 231.36 191.574C231.122 191.863 230.812 192.118 230.43 192.338C230.046 192.546 229.588 192.713 229.058 192.84L229.091 193.115C229.722 193.1 230.235 193.187 230.63 193.374C231.036 193.548 231.366 193.812 231.619 194.166C231.886 194.518 232.132 194.966 232.36 195.509L233.394 197.895L230.479 198.249L229.631 196.026C229.462 195.551 229.257 195.191 229.017 194.948C228.775 194.692 228.488 194.528 228.157 194.457C227.824 194.373 227.432 194.359 226.979 194.414L225.017 194.652L225.528 198.851L222.888 199.172ZM224.776 192.672L226.867 192.418C227.698 192.317 228.32 192.08 228.734 191.707C229.148 191.334 229.314 190.812 229.232 190.139C229.152 189.479 228.879 189.022 228.414 188.769C227.96 188.502 227.311 188.419 226.467 188.522L224.304 188.785L224.776 192.672Z" fill="#220D4E"/>
<path d="M238.615 197.258C237.826 197.39 237.103 197.398 236.447 197.283C235.803 197.165 235.234 196.936 234.74 196.594C234.246 196.252 233.833 195.796 233.501 195.227C233.181 194.656 232.958 193.988 232.83 193.223C232.704 192.47 232.692 191.761 232.793 191.094C232.905 190.414 233.128 189.809 233.464 189.279C233.798 188.736 234.241 188.287 234.794 187.933C235.347 187.579 236 187.339 236.753 187.213C237.481 187.092 238.151 187.105 238.763 187.253C239.372 187.388 239.905 187.661 240.36 188.072C240.828 188.481 241.204 189.018 241.49 189.682C241.786 190.331 241.983 191.104 242.082 191.998L234.588 193.323L234.348 191.884L240.333 190.83L239.525 191.713C239.503 191.055 239.373 190.534 239.134 190.149C238.895 189.765 238.595 189.503 238.235 189.363C237.886 189.221 237.518 189.183 237.129 189.248C236.668 189.325 236.281 189.514 235.969 189.816C235.658 190.117 235.444 190.521 235.329 191.027C235.211 191.521 235.207 192.096 235.317 192.752C235.489 193.785 235.84 194.506 236.371 194.917C236.913 195.326 237.555 195.469 238.296 195.345C238.636 195.288 238.914 195.198 239.131 195.075C239.358 194.937 239.532 194.783 239.653 194.613C239.787 194.441 239.881 194.257 239.936 194.061C240.002 193.862 240.051 193.667 240.081 193.474L242.441 193.587C242.406 194.054 242.31 194.488 242.152 194.889C242.005 195.276 241.777 195.632 241.469 195.958C241.16 196.272 240.767 196.537 240.291 196.754C239.83 196.981 239.271 197.149 238.615 197.258Z" fill="#220D4E"/>
<path d="M248.243 195.444C247.604 195.577 247.013 195.636 246.47 195.623C245.926 195.61 245.444 195.528 245.022 195.376C244.601 195.225 244.243 195.016 243.949 194.75C243.653 194.472 243.427 194.141 243.272 193.758L245.093 192.532C245.196 192.787 245.38 193.007 245.645 193.191C245.909 193.375 246.237 193.502 246.629 193.572C247.03 193.627 247.49 193.601 248.009 193.493C248.563 193.378 248.975 193.211 249.244 192.992C249.511 192.761 249.613 192.494 249.55 192.193C249.503 191.964 249.381 191.8 249.184 191.703C248.988 191.605 248.717 191.542 248.372 191.513C248.026 191.484 247.615 191.475 247.14 191.485C246.671 191.469 246.189 191.45 245.694 191.427C245.211 191.401 244.748 191.321 244.305 191.186C243.874 191.049 243.496 190.832 243.17 190.535C242.854 190.223 242.638 189.79 242.523 189.235C242.403 188.657 242.455 188.118 242.679 187.619C242.902 187.12 243.29 186.687 243.843 186.321C244.394 185.943 245.103 185.664 245.971 185.484C246.755 185.321 247.465 185.287 248.1 185.382C248.734 185.464 249.279 185.666 249.735 185.986C250.201 186.292 250.556 186.703 250.801 187.218L248.831 188.362C248.723 188.082 248.55 187.854 248.312 187.677C248.086 187.497 247.805 187.386 247.469 187.342C247.145 187.296 246.778 187.316 246.368 187.401C245.85 187.508 245.464 187.676 245.209 187.905C244.967 188.132 244.874 188.383 244.932 188.661C244.979 188.89 245.109 189.058 245.319 189.165C245.542 189.27 245.833 189.335 246.19 189.362C246.545 189.376 246.962 189.384 247.44 189.386C247.942 189.382 248.436 189.399 248.922 189.437C249.405 189.463 249.849 189.54 250.253 189.67C250.67 189.798 251.021 190.008 251.308 190.301C251.595 190.593 251.794 191.005 251.904 191.535C252.034 192.162 251.977 192.74 251.735 193.268C251.49 193.784 251.072 194.229 250.483 194.603C249.894 194.976 249.148 195.257 248.243 195.444Z" fill="#220D4E"/>
<path d="M258.589 193.079C257.812 193.272 257.092 193.335 256.429 193.271C255.778 193.204 255.193 193.019 254.674 192.716C254.155 192.413 253.708 191.99 253.333 191.449C252.97 190.904 252.696 190.256 252.51 189.502C252.326 188.761 252.259 188.055 252.309 187.383C252.367 186.696 252.544 186.075 252.838 185.521C253.129 184.954 253.536 184.473 254.06 184.077C254.584 183.681 255.216 183.391 255.957 183.208C256.675 183.031 257.344 182.992 257.965 183.092C258.583 183.18 259.135 183.412 259.62 183.786C260.118 184.158 260.535 184.664 260.871 185.304C261.216 185.929 261.472 186.684 261.64 187.568L254.27 189.467L253.92 188.05L259.806 186.537L259.069 187.481C258.996 186.827 258.825 186.317 258.558 185.952C258.29 185.587 257.971 185.349 257.601 185.237C257.243 185.123 256.872 185.113 256.49 185.207C256.036 185.32 255.665 185.538 255.377 185.863C255.09 186.188 254.908 186.607 254.832 187.121C254.753 187.622 254.793 188.196 254.953 188.841C255.204 189.857 255.61 190.55 256.171 190.918C256.743 191.284 257.394 191.377 258.123 191.197C258.458 191.114 258.728 191.003 258.935 190.863C259.15 190.708 259.312 190.541 259.42 190.362C259.54 190.18 259.619 189.989 259.659 189.789C259.71 189.587 259.743 189.388 259.759 189.194L262.12 189.124C262.122 189.593 262.059 190.033 261.933 190.445C261.815 190.842 261.616 191.215 261.334 191.563C261.05 191.9 260.679 192.195 260.221 192.447C259.778 192.709 259.234 192.92 258.589 193.079Z" fill="#220D4E"/>
<path d="M267.056 190.879C266.53 191.01 266.039 191.024 265.582 190.922C265.122 190.808 264.73 190.582 264.405 190.244C264.08 189.906 263.844 189.444 263.699 188.859C263.571 188.345 263.56 187.891 263.665 187.497C263.782 187.1 264.005 186.746 264.334 186.436C264.663 186.126 265.09 185.829 265.617 185.546C266.143 185.263 266.751 184.979 267.441 184.693C267.809 184.539 268.106 184.408 268.333 184.3C268.569 184.178 268.732 184.043 268.822 183.893C268.909 183.732 268.923 183.532 268.863 183.293C268.78 182.959 268.589 182.701 268.291 182.522C267.992 182.342 267.586 182.316 267.072 182.444C266.726 182.53 266.418 182.67 266.149 182.864C265.892 183.054 265.685 183.296 265.53 183.589C265.386 183.878 265.312 184.22 265.309 184.614L262.858 184.481C262.88 183.955 262.978 183.48 263.152 183.057C263.337 182.63 263.592 182.249 263.915 181.915C264.235 181.569 264.625 181.276 265.085 181.034C265.546 180.793 266.063 180.601 266.636 180.459C267.556 180.23 268.34 180.194 268.988 180.35C269.645 180.491 270.194 180.837 270.635 181.387C271.074 181.925 271.413 182.679 271.654 183.647L272.055 185.26C272.158 185.678 272.27 186.101 272.389 186.528C272.52 186.952 272.652 187.383 272.786 187.819C272.928 188.24 273.071 188.662 273.214 189.083L270.937 189.649C270.815 189.362 270.683 189.033 270.54 188.662C270.406 188.277 270.278 187.89 270.156 187.502L269.834 187.582C269.779 188.077 269.643 188.549 269.424 188.997C269.205 189.445 268.897 189.838 268.499 190.178C268.111 190.503 267.63 190.737 267.056 190.879ZM267.686 188.743C267.913 188.687 268.13 188.589 268.336 188.449C268.554 188.306 268.753 188.136 268.933 187.939C269.121 187.727 269.277 187.485 269.4 187.214C269.534 186.939 269.626 186.644 269.674 186.327L269.264 184.83L269.699 184.817C269.522 185.026 269.302 185.214 269.039 185.381C268.773 185.536 268.491 185.676 268.192 185.801C267.905 185.923 267.62 186.051 267.336 186.185C267.052 186.319 266.802 186.463 266.587 186.618C266.384 186.77 266.231 186.948 266.129 187.151C266.037 187.339 266.026 187.576 266.097 187.863C266.189 188.234 266.381 188.497 266.674 188.652C266.966 188.808 267.304 188.839 267.686 188.743Z" fill="#220D4E"/>
<path d="M275.142 188.667L274.141 184.084L273.074 179.193L275.221 178.724L275.944 181.951L276.287 181.876C276.208 181.049 276.227 180.358 276.345 179.803C276.476 179.245 276.725 178.8 277.094 178.467C277.462 178.135 277.959 177.9 278.585 177.763C278.693 177.74 278.809 177.721 278.932 177.707C279.064 177.678 279.218 177.663 279.395 177.662L279.889 180.447C279.69 180.402 279.478 180.385 279.254 180.397C279.03 180.408 278.833 180.432 278.665 180.468C278.196 180.571 277.816 180.767 277.527 181.057C277.237 181.347 277.028 181.721 276.901 182.177C276.783 182.618 276.751 183.136 276.805 183.729L277.758 188.096L275.142 188.667Z" fill="#220D4E"/>
<path d="M286.806 186.535C285.983 186.69 285.24 186.704 284.578 186.578C283.915 186.453 283.337 186.211 282.843 185.852C282.35 185.494 281.945 185.038 281.627 184.484C281.308 183.917 281.081 183.277 280.946 182.563C280.805 181.813 280.779 181.11 280.869 180.454C280.968 179.783 281.18 179.18 281.505 178.642C281.83 178.105 282.271 177.652 282.829 177.284C283.386 176.916 284.052 176.66 284.826 176.514C285.601 176.368 286.296 176.369 286.913 176.516C287.542 176.661 288.075 176.93 288.512 177.324C288.959 177.703 289.308 178.189 289.557 178.781L287.29 180.016C287.183 179.648 287.02 179.346 286.8 179.112C286.59 178.863 286.334 178.699 286.03 178.618C285.737 178.523 285.421 178.507 285.082 178.571C284.731 178.637 284.442 178.766 284.215 178.959C283.986 179.14 283.806 179.381 283.674 179.681C283.553 179.967 283.479 180.307 283.453 180.701C283.436 181.079 283.471 181.499 283.558 181.959C283.681 182.612 283.87 183.153 284.126 183.581C284.392 183.995 284.717 184.291 285.102 184.469C285.496 184.633 285.947 184.667 286.455 184.571C286.939 184.48 287.31 184.316 287.566 184.08C287.82 183.832 287.986 183.55 288.065 183.235C288.153 182.905 288.185 182.579 288.163 182.258L290.545 182.335C290.574 182.819 290.524 183.285 290.395 183.736C290.279 184.184 290.068 184.593 289.762 184.964C289.456 185.335 289.06 185.66 288.574 185.939C288.097 186.204 287.508 186.403 286.806 186.535Z" fill="#220D4E"/>
<path d="M292.29 185.274L291.378 179.247L290.314 172.216L292.962 171.815L293.415 174.81C293.452 175.054 293.478 175.311 293.495 175.583C293.523 175.853 293.534 176.131 293.528 176.419C293.532 176.692 293.531 176.972 293.524 177.26C293.53 177.545 293.53 177.832 293.524 178.119L293.925 178.058C294.002 177.412 294.134 176.844 294.321 176.355C294.521 175.864 294.809 175.465 295.186 175.159C295.562 174.84 296.066 174.633 296.699 174.538C297.819 174.368 298.719 174.637 299.399 175.343C300.077 176.038 300.539 177.194 300.784 178.814L301.549 183.873L298.901 184.273L298.196 179.616C298.042 178.594 297.775 177.862 297.397 177.421C297.029 176.966 296.547 176.784 295.95 176.874C295.463 176.948 295.084 177.155 294.811 177.495C294.539 177.835 294.362 178.266 294.279 178.79C294.194 179.301 294.186 179.862 294.254 180.475L294.92 184.876L292.29 185.274Z" fill="#220D4E"/>
<path d="M308.641 183.306C308.066 183.369 307.618 183.294 307.297 183.082C306.989 182.868 306.807 182.503 306.75 181.989C306.693 181.463 306.792 181.062 307.046 180.786C307.313 180.509 307.735 180.34 308.31 180.277C308.897 180.212 309.345 180.287 309.654 180.501C309.974 180.714 310.163 181.084 310.221 181.61C310.33 182.614 309.804 183.179 308.641 183.306Z" fill="#220D4E"/>
<path d="M316.23 182.332L315.435 170.167L318.089 169.993L318.884 182.158L316.23 182.332ZM317.204 177.696L317.062 175.521L324.158 175.057L324.301 177.232L317.204 177.696ZM316.855 172.351L316.707 170.084L324.485 169.575L324.633 171.842L316.855 172.351Z" fill="#220D4E"/>
<path d="M328.551 181.923C328.009 181.937 327.526 181.845 327.102 181.646C326.678 181.436 326.344 181.13 326.099 180.73C325.855 180.33 325.725 179.828 325.709 179.225C325.696 178.696 325.783 178.25 325.97 177.888C326.17 177.525 326.465 177.228 326.853 176.996C327.241 176.765 327.722 176.567 328.297 176.405C328.872 176.242 329.527 176.096 330.263 175.966C330.655 175.894 330.974 175.83 331.219 175.775C331.476 175.707 331.664 175.609 331.784 175.483C331.903 175.344 331.96 175.152 331.954 174.906C331.945 174.561 331.814 174.269 331.561 174.029C331.309 173.789 330.918 173.676 330.389 173.69C330.032 173.699 329.701 173.769 329.396 173.9C329.104 174.031 328.85 174.222 328.635 174.474C328.432 174.726 328.286 175.044 328.198 175.428L325.834 174.769C325.969 174.26 326.167 173.818 326.428 173.441C326.702 173.065 327.032 172.748 327.42 172.492C327.807 172.223 328.251 172.021 328.753 171.885C329.254 171.748 329.801 171.673 330.391 171.657C331.339 171.633 332.113 171.767 332.711 172.059C333.322 172.339 333.784 172.795 334.096 173.428C334.407 174.048 334.576 174.856 334.602 175.853L334.645 177.515C334.656 177.946 334.674 178.383 334.697 178.826C334.734 179.268 334.77 179.717 334.806 180.172C334.855 180.614 334.903 181.056 334.951 181.498L332.606 181.559C332.549 181.253 332.491 180.903 332.431 180.511C332.384 180.105 332.343 179.7 332.308 179.294L331.975 179.303C331.815 179.775 331.58 180.206 331.27 180.596C330.959 180.986 330.573 181.304 330.112 181.55C329.662 181.783 329.142 181.908 328.551 181.923ZM329.627 179.973C329.861 179.967 330.094 179.918 330.326 179.826C330.57 179.733 330.801 179.61 331.018 179.457C331.248 179.291 331.452 179.088 331.631 178.85C331.822 178.611 331.975 178.342 332.09 178.043L332.013 176.493L332.44 176.575C332.223 176.74 331.968 176.876 331.675 176.982C331.382 177.076 331.076 177.152 330.757 177.21C330.45 177.267 330.144 177.33 329.838 177.4C329.532 177.469 329.257 177.556 329.013 177.661C328.782 177.766 328.595 177.906 328.451 178.082C328.32 178.246 328.258 178.475 328.266 178.771C328.276 179.152 328.407 179.451 328.659 179.666C328.911 179.881 329.234 179.984 329.627 179.973Z" fill="#220D4E"/>
<path d="M340.372 181.819C339.72 181.811 339.13 181.741 338.602 181.611C338.074 181.481 337.621 181.296 337.242 181.057C336.864 180.818 336.559 180.537 336.33 180.214C336.1 179.878 335.951 179.507 335.883 179.099L337.926 178.295C337.971 178.567 338.103 178.821 338.322 179.058C338.54 179.295 338.833 179.49 339.201 179.642C339.581 179.783 340.035 179.857 340.565 179.864C341.131 179.871 341.569 179.797 341.879 179.641C342.189 179.473 342.346 179.235 342.351 178.927C342.354 178.693 342.27 178.507 342.099 178.37C341.929 178.232 341.678 178.112 341.347 178.009C341.016 177.906 340.617 177.808 340.15 177.716C339.696 177.599 339.23 177.475 338.751 177.346C338.285 177.217 337.85 177.038 337.447 176.811C337.056 176.584 336.733 176.291 336.479 175.93C336.238 175.557 336.121 175.088 336.129 174.521C336.137 173.93 336.304 173.415 336.63 172.976C336.956 172.537 337.428 172.199 338.047 171.961C338.666 171.711 339.419 171.591 340.306 171.603C341.106 171.614 341.806 171.734 342.407 171.964C343.007 172.181 343.496 172.496 343.872 172.907C344.261 173.306 344.519 173.784 344.647 174.34L342.476 175.031C342.431 174.735 342.312 174.475 342.117 174.25C341.936 174.026 341.686 173.857 341.367 173.742C341.061 173.627 340.698 173.567 340.279 173.561C339.75 173.554 339.336 173.635 339.039 173.803C338.753 173.972 338.608 174.197 338.605 174.481C338.601 174.715 338.691 174.907 338.874 175.057C339.069 175.207 339.338 175.334 339.682 175.437C340.025 175.528 340.43 175.626 340.897 175.73C341.388 175.836 341.867 175.959 342.333 176.101C342.799 176.23 343.216 176.402 343.582 176.616C343.961 176.83 344.259 177.112 344.476 177.459C344.693 177.807 344.798 178.252 344.791 178.794C344.782 179.434 344.602 179.986 344.251 180.449C343.901 180.9 343.397 181.244 342.741 181.482C342.085 181.719 341.296 181.832 340.372 181.819Z" fill="#220D4E"/>
<path d="M349.859 182.094C348.776 182.043 347.99 181.723 347.5 181.133C347.022 180.532 346.813 179.604 346.871 178.349L347.067 174.124L345.665 174.059L345.799 171.975L346.777 172.021C347.158 172.038 347.444 171.996 347.633 171.894C347.823 171.792 347.943 171.594 347.994 171.301L348.298 169.928L349.811 169.998L349.711 172.157L352.165 172.271L352.064 174.43L349.61 174.316L349.422 178.357C349.402 178.8 349.491 179.124 349.691 179.331C349.891 179.537 350.207 179.651 350.637 179.671C350.871 179.681 351.093 179.667 351.305 179.628C351.528 179.589 351.723 179.518 351.888 179.414L351.773 181.887C351.386 181.992 351.032 182.056 350.71 182.078C350.389 182.1 350.105 182.105 349.859 182.094Z" fill="#220D4E"/>
<path d="M357.801 182.68C357.003 182.614 356.301 182.444 355.693 182.171C355.098 181.9 354.603 181.537 354.208 181.084C353.813 180.631 353.525 180.088 353.342 179.456C353.172 178.824 353.12 178.121 353.184 177.348C353.247 176.587 353.409 175.896 353.671 175.275C353.946 174.643 354.311 174.112 354.767 173.68C355.224 173.236 355.764 172.91 356.387 172.702C357.01 172.495 357.701 172.422 358.462 172.485C359.199 172.547 359.845 172.724 360.401 173.017C360.959 173.298 361.408 173.694 361.748 174.204C362.101 174.715 362.335 175.328 362.448 176.042C362.575 176.744 362.577 177.541 362.454 178.433L354.864 177.877L354.984 176.422L361.045 176.87L360.045 177.529C360.185 176.885 360.186 176.348 360.049 175.916C359.912 175.485 359.686 175.157 359.371 174.933C359.068 174.711 358.721 174.583 358.328 174.55C357.861 174.511 357.44 174.6 357.064 174.816C356.688 175.032 356.381 175.371 356.145 175.833C355.91 176.283 355.765 176.84 355.71 177.502C355.624 178.545 355.787 179.331 356.2 179.86C356.626 180.389 357.213 180.685 357.961 180.747C358.305 180.776 358.597 180.757 358.837 180.69C359.091 180.613 359.297 180.506 359.457 180.371C359.629 180.237 359.765 180.082 359.866 179.905C359.98 179.729 360.075 179.551 360.151 179.372L362.411 180.06C362.263 180.505 362.063 180.903 361.812 181.252C361.574 181.591 361.265 181.881 360.887 182.121C360.51 182.349 360.064 182.51 359.55 182.603C359.046 182.709 358.464 182.735 357.801 182.68Z" fill="#220D4E"/>
<path d="M363.892 183.005L364.456 178.347L365.059 173.378L367.241 173.642L366.861 176.927L367.21 176.969C367.407 176.162 367.653 175.515 367.947 175.03C368.254 174.546 368.636 174.208 369.093 174.015C369.551 173.823 370.097 173.765 370.733 173.842C370.843 173.855 370.958 173.876 371.079 173.903C371.214 173.919 371.364 173.956 371.531 174.013L371.081 176.805C370.908 176.698 370.714 176.612 370.498 176.549C370.283 176.485 370.089 176.443 369.918 176.423C369.441 176.365 369.018 176.425 368.649 176.604C368.28 176.782 367.961 177.066 367.69 177.455C367.434 177.833 367.233 178.311 367.089 178.889L366.551 183.327L363.892 183.005Z" fill="#220D4E"/>
<path d="M376.031 184.675L378.05 172.652L380.728 173.102L378.709 185.125L376.031 184.675Z" fill="#220D4E"/>
<path d="M380.756 185.458L381.924 179.701L382.684 175.954L384.82 176.387L384.225 179.225L384.587 179.299C384.884 178.643 385.223 178.115 385.606 177.715C385.989 177.315 386.42 177.045 386.901 176.903C387.394 176.765 387.943 176.757 388.546 176.879C389.644 177.102 390.399 177.657 390.809 178.544C391.232 179.434 391.276 180.706 390.94 182.359L389.934 187.319L387.309 186.787L388.257 182.116C388.462 181.103 388.461 180.336 388.252 179.816C388.058 179.287 387.677 178.964 387.11 178.849C386.627 178.751 386.192 178.82 385.805 179.056C385.418 179.292 385.09 179.64 384.821 180.1C384.566 180.551 384.371 181.077 384.237 181.678L383.363 185.986L380.756 185.458Z" fill="#220D4E"/>
<path d="M395.549 188.98C394.916 188.822 394.357 188.618 393.874 188.37C393.39 188.122 392.992 187.837 392.678 187.518C392.365 187.198 392.134 186.854 391.985 186.487C391.839 186.107 391.779 185.712 391.806 185.299L393.979 184.988C393.961 185.262 394.031 185.54 394.189 185.821C394.347 186.102 394.588 186.359 394.91 186.592C395.247 186.816 395.673 186.993 396.186 187.122C396.736 187.26 397.179 187.288 397.517 187.208C397.857 187.116 398.065 186.92 398.14 186.622C398.197 186.395 398.158 186.194 398.024 186.021C397.89 185.848 397.673 185.673 397.375 185.497C397.076 185.32 396.71 185.133 396.278 184.936C395.863 184.717 395.437 184.49 395.001 184.254C394.577 184.02 394.195 183.747 393.855 183.433C393.527 183.122 393.281 182.762 393.117 182.353C392.968 181.934 392.962 181.451 393.1 180.901C393.244 180.328 393.525 179.865 393.943 179.513C394.362 179.161 394.9 178.94 395.557 178.851C396.217 178.75 396.977 178.808 397.837 179.023C398.613 179.218 399.267 179.496 399.798 179.858C400.333 180.208 400.736 180.627 401.007 181.114C401.293 181.592 401.435 182.116 401.431 182.686L399.16 182.859C399.184 182.561 399.127 182.28 398.99 182.017C398.865 181.757 398.661 181.534 398.377 181.349C398.105 181.167 397.767 181.024 397.36 180.923C396.847 180.794 396.426 180.777 396.097 180.872C395.781 180.971 395.588 181.157 395.519 181.432C395.462 181.659 395.505 181.866 395.648 182.055C395.803 182.246 396.036 182.431 396.347 182.611C396.66 182.778 397.032 182.967 397.462 183.176C397.915 183.391 398.353 183.622 398.774 183.867C399.198 184.1 399.563 184.363 399.871 184.656C400.19 184.952 400.415 185.294 400.546 185.683C400.677 186.071 400.677 186.528 400.545 187.054C400.389 187.675 400.087 188.17 399.639 188.54C399.194 188.898 398.625 189.117 397.932 189.197C397.239 189.277 396.444 189.205 395.549 188.98Z" fill="#220D4E"/>
<path d="M401.489 190.287L404.142 180.959L406.7 181.687L404.048 191.014L401.489 190.287ZM405.838 179.925C405.341 179.783 404.984 179.573 404.769 179.294C404.569 179.007 404.527 178.662 404.641 178.259C404.759 177.845 404.978 177.568 405.3 177.429C405.633 177.293 406.048 177.296 406.545 177.437C407.055 177.582 407.409 177.798 407.609 178.086C407.821 178.376 407.868 178.729 407.75 179.143C407.639 179.534 407.417 179.798 407.084 179.933C406.763 180.072 406.347 180.069 405.838 179.925Z" fill="#220D4E"/>
<path d="M408.634 195.952C407.626 195.629 406.819 195.281 406.215 194.906C405.619 194.547 405.217 194.166 405.01 193.764C404.803 193.361 404.772 192.931 404.919 192.474C405.092 191.934 405.443 191.562 405.975 191.357C406.517 191.156 407.216 191.154 408.072 191.35L408.184 190.998C407.551 190.795 407.085 190.575 406.786 190.337C406.491 190.088 406.398 189.793 406.507 189.453C406.612 189.124 406.87 188.884 407.281 188.731C407.704 188.582 408.327 188.555 409.15 188.65L409.262 188.298C408.55 188.019 408.056 187.602 407.781 187.048C407.506 186.495 407.475 185.884 407.689 185.215C407.877 184.629 408.208 184.16 408.683 183.807C409.162 183.443 409.767 183.23 410.498 183.167C411.245 183.096 412.094 183.212 413.043 183.516L417.723 185.015L417.103 186.95L414.33 185.616L414.2 186.02C414.917 186.366 415.397 186.727 415.639 187.101C415.892 187.48 415.942 187.91 415.788 188.391C415.634 188.871 415.341 189.243 414.908 189.505C414.475 189.767 413.931 189.91 413.277 189.933C412.639 189.949 411.915 189.827 411.106 189.568C410.953 189.519 410.791 189.46 410.619 189.392C410.447 189.324 410.163 189.201 409.767 189.023C409.492 189.115 409.269 189.206 409.099 189.293C408.944 189.373 408.85 189.466 408.816 189.571C408.789 189.653 408.808 189.737 408.871 189.822C408.946 189.911 409.05 189.989 409.184 190.058C409.329 190.13 409.477 190.19 409.63 190.239L412.268 191.084C412.503 191.159 412.802 191.275 413.166 191.43C413.534 191.574 413.881 191.782 414.208 192.054C414.534 192.327 414.772 192.675 414.921 193.097C415.074 193.508 415.051 194.025 414.852 194.646C414.634 195.326 414.26 195.827 413.73 196.149C413.212 196.475 412.527 196.617 411.673 196.576C410.832 196.54 409.819 196.332 408.634 195.952ZM409.564 194.02C410.279 194.249 410.849 194.386 411.274 194.432C411.695 194.489 412.016 194.456 412.237 194.333C412.465 194.225 412.621 194.042 412.703 193.784C412.779 193.549 412.784 193.351 412.72 193.188C412.667 193.029 412.566 192.899 412.417 192.8C412.284 192.692 412.137 192.607 411.976 192.542C411.831 192.47 411.7 192.415 411.583 192.378L409.366 191.668C408.859 191.557 408.458 191.577 408.164 191.729C407.885 191.872 407.701 192.085 407.61 192.366C407.528 192.624 407.548 192.844 407.671 193.026C407.794 193.207 408.012 193.374 408.325 193.526C408.646 193.694 409.059 193.858 409.564 194.02ZM411.387 188.203C411.95 188.383 412.416 188.384 412.783 188.204C413.155 188.013 413.412 187.694 413.555 187.249C413.705 186.78 413.682 186.346 413.487 185.947C413.303 185.552 412.936 185.266 412.384 185.09C411.845 184.917 411.374 184.934 410.971 185.141C410.573 185.337 410.298 185.669 410.148 186.138C410.054 186.432 410.034 186.716 410.088 186.992C410.157 187.26 410.3 187.5 410.517 187.711C410.734 187.923 411.024 188.087 411.387 188.203Z" fill="#220D4E"/>
<path d="M416.32 194.924L418.445 189.211L420.924 182.546L423.434 183.479L422.378 186.318C422.292 186.549 422.191 186.787 422.073 187.033C421.967 187.282 421.842 187.531 421.697 187.78C421.568 188.021 421.431 188.265 421.286 188.514C421.153 188.766 421.013 189.017 420.869 189.265L421.249 189.407C421.63 188.878 422.021 188.445 422.422 188.108C422.835 187.776 423.28 187.567 423.758 187.482C424.241 187.386 424.782 187.449 425.383 187.672C426.444 188.067 427.101 188.738 427.353 189.686C427.609 190.622 427.452 191.858 426.881 193.393L425.098 198.188L422.587 197.255L424.229 192.84C424.59 191.871 424.712 191.101 424.595 190.532C424.494 189.956 424.161 189.563 423.595 189.353C423.133 189.181 422.701 189.178 422.298 189.343C421.895 189.509 421.53 189.8 421.204 190.217C420.882 190.623 420.603 191.11 420.365 191.679L418.813 195.851L416.32 194.924Z" fill="#220D4E"/>
<path d="M430.06 200.512C429.059 200.096 428.429 199.527 428.169 198.806C427.925 198.078 428.044 197.134 428.526 195.974L430.151 192.068L428.854 191.529L429.69 189.616L430.594 189.992C430.946 190.139 431.229 190.196 431.442 190.165C431.655 190.133 431.836 189.988 431.983 189.73L432.737 188.543L434.135 189.124L433.306 191.12L435.574 192.063L434.744 194.058L432.476 193.115L430.923 196.85C430.752 197.26 430.726 197.595 430.844 197.858C430.961 198.12 431.219 198.334 431.617 198.499C431.833 198.589 432.047 198.652 432.259 198.686C432.483 198.726 432.69 198.725 432.88 198.685L431.93 200.97C431.53 200.937 431.175 200.876 430.866 200.787C430.556 200.699 430.287 200.607 430.06 200.512Z" fill="#220D4E"/>
<path d="M436.686 203.474C436.093 203.203 435.581 202.901 435.15 202.569C434.72 202.237 434.38 201.885 434.13 201.513C433.88 201.142 433.715 200.762 433.635 200.374C433.561 199.974 433.574 199.574 433.676 199.174L435.869 199.262C435.802 199.529 435.82 199.815 435.924 200.12C436.029 200.425 436.218 200.721 436.493 201.009C436.783 201.291 437.17 201.542 437.651 201.762C438.166 201.998 438.597 202.107 438.944 202.089C439.295 202.06 439.535 201.906 439.663 201.626C439.761 201.413 439.759 201.209 439.658 201.014C439.558 200.82 439.377 200.608 439.116 200.38C438.854 200.153 438.529 199.902 438.139 199.629C437.77 199.339 437.393 199.038 437.008 198.727C436.634 198.42 436.308 198.082 436.03 197.711C435.764 197.346 435.587 196.947 435.501 196.515C435.43 196.076 435.513 195.599 435.748 195.084C435.994 194.547 436.355 194.143 436.83 193.873C437.305 193.603 437.874 193.484 438.537 193.515C439.204 193.536 439.941 193.731 440.748 194.099C441.476 194.432 442.068 194.825 442.524 195.277C442.986 195.718 443.306 196.203 443.484 196.731C443.679 197.254 443.723 197.795 443.616 198.355L441.351 198.112C441.429 197.823 441.424 197.536 441.337 197.253C441.261 196.974 441.101 196.718 440.856 196.484C440.622 196.256 440.314 196.054 439.934 195.88C439.452 195.66 439.041 195.567 438.701 195.601C438.371 195.64 438.148 195.788 438.03 196.046C437.933 196.259 437.937 196.471 438.044 196.682C438.162 196.898 438.357 197.123 438.63 197.356C438.907 197.577 439.239 197.83 439.623 198.114C440.03 198.409 440.418 198.715 440.788 199.033C441.162 199.339 441.474 199.664 441.723 200.008C441.983 200.357 442.142 200.735 442.2 201.141C442.259 201.546 442.175 201.996 441.95 202.488C441.684 203.071 441.297 203.503 440.788 203.785C440.285 204.056 439.686 204.168 438.99 204.121C438.294 204.074 437.526 203.858 436.686 203.474Z" fill="#220D4E"/>
<path d="M447.106 208.524C446.591 208.26 446.259 207.95 446.108 207.596C445.968 207.248 446.017 206.844 446.253 206.384C446.494 205.912 446.798 205.632 447.162 205.542C447.537 205.458 447.982 205.548 448.497 205.812C449.023 206.082 449.356 206.391 449.496 206.739C449.646 207.093 449.601 207.506 449.359 207.977C448.898 208.875 448.147 209.058 447.106 208.524Z" fill="#220D4E"/>
<path d="M457.762 214.364C457.068 213.964 456.484 213.535 456.009 213.077C455.539 212.636 455.183 212.168 454.942 211.674C454.717 211.175 454.61 210.658 454.619 210.124C454.646 209.585 454.797 209.039 455.072 208.487L457.467 208.993C457.211 209.485 457.098 209.953 457.127 210.396C457.167 210.845 457.346 211.261 457.666 211.644C457.985 212.027 458.396 212.363 458.897 212.652C459.377 212.929 459.817 213.103 460.215 213.177C460.613 213.25 460.953 213.24 461.235 213.146C461.522 213.042 461.733 212.872 461.869 212.637C462.029 212.36 462.051 212.074 461.936 211.781C461.821 211.487 461.61 211.174 461.305 210.841C461.009 210.515 460.658 210.163 460.25 209.786C459.795 209.367 459.354 208.936 458.928 208.491C458.512 208.053 458.164 207.597 457.883 207.122C457.613 206.654 457.463 206.162 457.433 205.648C457.413 205.139 457.566 204.602 457.892 204.036C458.267 203.385 458.75 202.917 459.34 202.632C459.948 202.343 460.643 202.246 461.426 202.342C462.209 202.438 463.044 202.741 463.929 203.251C464.826 203.767 465.512 204.34 465.988 204.97C466.48 205.595 466.764 206.249 466.84 206.932C466.921 207.604 466.791 208.275 466.448 208.944L464.035 208.322C464.226 207.991 464.338 207.672 464.373 207.365C464.408 207.058 464.375 206.769 464.275 206.499C464.182 206.217 464.015 205.951 463.776 205.7C463.548 205.455 463.253 205.227 462.89 205.018C462.474 204.779 462.08 204.623 461.709 204.551C461.349 204.486 461.037 204.498 460.772 204.587C460.518 204.682 460.321 204.853 460.179 205.098C460.013 205.386 459.992 205.694 460.116 206.021C460.257 206.344 460.491 206.678 460.819 207.023C461.156 207.374 461.535 207.741 461.953 208.124C462.357 208.484 462.75 208.875 463.134 209.294C463.534 209.71 463.869 210.152 464.139 210.62C464.426 211.084 464.579 211.584 464.597 212.12C464.632 212.652 464.48 213.211 464.142 213.798C463.773 214.438 463.28 214.9 462.662 215.183C462.044 215.467 461.316 215.545 460.48 215.418C459.66 215.287 458.754 214.936 457.762 214.364Z" fill="#220D4E"/>
<path d="M463.997 217.666L467.38 212.463L469.282 209.536L471.063 210.694L469.483 213.125L469.777 213.316C470.311 212.812 470.821 212.445 471.306 212.218C471.799 211.98 472.274 211.87 472.732 211.889C473.2 211.914 473.661 212.074 474.116 212.37C474.601 212.685 474.933 213.055 475.112 213.48C475.291 213.905 475.341 214.371 475.262 214.877C475.189 215.373 474.997 215.917 474.686 216.508L474.934 216.669C475.485 216.16 476.017 215.794 476.53 215.569C477.053 215.352 477.556 215.267 478.038 215.316C478.531 215.372 478.999 215.544 479.443 215.833C479.887 216.121 480.217 216.461 480.433 216.851C480.66 217.248 480.773 217.696 480.772 218.195C480.777 218.683 480.666 219.227 480.437 219.828C480.215 220.418 479.882 221.054 479.44 221.735L476.711 225.932L474.481 224.482L477.028 220.564C477.391 220.006 477.646 219.512 477.795 219.08C477.95 218.637 477.99 218.259 477.915 217.946C477.84 217.633 477.647 217.375 477.337 217.174C476.997 216.952 476.625 216.88 476.223 216.956C475.828 217.022 475.427 217.21 475.021 217.518C474.614 217.827 474.238 218.236 473.892 218.746L471.446 222.509L469.262 221.089L471.769 217.233C472.145 216.655 472.402 216.147 472.54 215.708C472.686 215.259 472.724 214.872 472.655 214.549C472.586 214.225 472.402 213.966 472.103 213.771C471.752 213.543 471.375 213.467 470.973 213.543C470.578 213.609 470.179 213.805 469.776 214.131C469.373 214.457 469.002 214.869 468.663 215.368L466.227 219.116L463.997 217.666Z" fill="#220D4E"/>
<path d="M479.628 228.439C479.189 228.122 478.86 227.756 478.644 227.341C478.434 226.916 478.353 226.471 478.401 226.004C478.45 225.538 478.65 225.06 479.004 224.571C479.314 224.142 479.653 223.84 480.022 223.666C480.401 223.499 480.815 223.441 481.264 223.492C481.713 223.543 482.215 223.678 482.771 223.897C483.327 224.116 483.937 224.397 484.601 224.739C484.956 224.92 485.248 225.063 485.477 225.167C485.722 225.268 485.931 225.305 486.103 225.277C486.282 225.24 486.444 225.121 486.588 224.921C486.79 224.642 486.863 224.33 486.808 223.986C486.752 223.642 486.51 223.316 486.08 223.006C485.791 222.797 485.485 222.652 485.164 222.571C484.852 222.498 484.534 222.497 484.21 222.566C483.896 222.644 483.588 222.808 483.284 223.06L481.804 221.102C482.22 220.78 482.645 220.548 483.081 220.407C483.527 220.273 483.982 220.222 484.446 220.253C484.916 220.274 485.393 220.382 485.874 220.578C486.355 220.774 486.836 221.045 487.315 221.391C488.084 221.946 488.617 222.521 488.916 223.117C489.233 223.71 489.323 224.352 489.188 225.044C489.06 225.726 488.704 226.472 488.12 227.281L487.146 228.628C486.894 228.978 486.643 229.336 486.394 229.702C486.154 230.076 485.911 230.455 485.664 230.839C485.435 231.22 485.205 231.601 484.975 231.982L483.074 230.608C483.214 230.33 483.379 230.017 483.57 229.668C483.778 229.317 483.991 228.97 484.209 228.626L483.94 228.431C483.526 228.71 483.077 228.91 482.594 229.032C482.111 229.154 481.612 229.173 481.095 229.089C480.596 229.002 480.107 228.785 479.628 228.439ZM481.666 227.541C481.856 227.678 482.07 227.78 482.311 227.847C482.561 227.922 482.819 227.964 483.085 227.974C483.369 227.981 483.654 227.944 483.94 227.862C484.237 227.788 484.522 227.667 484.795 227.5L485.673 226.22L485.963 226.544C485.69 226.544 485.405 226.497 485.107 226.404C484.817 226.301 484.528 226.175 484.24 226.028C483.961 225.888 483.679 225.752 483.394 225.622C483.108 225.492 482.836 225.394 482.579 225.33C482.332 225.273 482.098 225.271 481.877 225.324C481.673 225.375 481.485 225.52 481.312 225.759C481.089 226.069 481.012 226.386 481.082 226.71C481.152 227.033 481.346 227.311 481.666 227.541Z" fill="#220D4E"/>
<path d="M486.378 233.072L489.245 229.358L492.304 225.396L494.044 226.739L492.038 229.367L492.316 229.582C492.898 228.989 493.44 228.56 493.941 228.293C494.452 228.034 494.953 227.939 495.445 228.008C495.937 228.076 496.436 228.306 496.943 228.697C497.031 228.765 497.119 228.841 497.209 228.926C497.317 229.009 497.427 229.118 497.541 229.252L495.726 231.422C495.633 231.24 495.509 231.068 495.357 230.903C495.204 230.738 495.059 230.603 494.923 230.498C494.542 230.204 494.148 230.04 493.74 230.005C493.331 229.969 492.912 230.05 492.48 230.246C492.066 230.439 491.649 230.748 491.23 231.17L488.498 234.708L486.378 233.072Z" fill="#220D4E"/>
<path d="M495.3 240.402C494.459 239.719 494.016 238.994 493.972 238.228C493.946 237.461 494.328 236.59 495.121 235.615L497.789 232.333L496.699 231.447L498.045 229.851L498.804 230.468C499.101 230.709 499.355 230.845 499.568 230.875C499.782 230.906 499.996 230.818 500.211 230.612L501.271 229.689L502.446 230.644L501.083 232.321L502.99 233.871L501.626 235.548L499.72 233.998L497.169 237.137C496.889 237.481 496.768 237.795 496.806 238.08C496.844 238.365 497.031 238.644 497.365 238.915C497.547 239.063 497.734 239.184 497.928 239.277C498.131 239.379 498.329 239.437 498.524 239.452L496.962 241.373C496.588 241.228 496.266 241.068 495.994 240.895C495.722 240.722 495.491 240.558 495.3 240.402Z" fill="#220D4E"/>
<path d="M501.017 244.854L512.251 238.543L515.144 241.127L510.136 253L507.987 251.08L512.405 241.504L512.199 241.32L503.166 246.774L501.017 244.854ZM504.366 244.626L505.572 243.276L511.481 248.555L510.276 249.905L504.366 244.626Z" fill="#220D4E"/>
<path d="M510.815 253.686L514.884 249.45L517.533 246.693L519.105 248.203L517.083 250.281L517.349 250.537C517.951 250.142 518.52 249.878 519.058 249.745C519.595 249.613 520.104 249.616 520.586 249.754C521.077 249.901 521.544 250.188 521.988 250.614C522.796 251.391 523.136 252.263 523.007 253.233C522.887 254.211 522.243 255.308 521.074 256.524L517.568 260.174L515.637 258.318L518.938 254.882C519.655 254.136 520.064 253.488 520.167 252.937C520.286 252.386 520.137 251.91 519.72 251.509C519.365 251.168 518.961 250.993 518.508 250.984C518.055 250.976 517.591 251.094 517.117 251.339C516.66 251.583 516.214 251.923 515.779 252.358L512.733 255.528L510.815 253.686Z" fill="#220D4E"/>
<path d="M520.12 263.147C519.741 262.759 519.48 262.342 519.337 261.897C519.203 261.442 519.2 260.989 519.327 260.538C519.454 260.087 519.734 259.65 520.165 259.228C520.544 258.858 520.93 258.619 521.323 258.51C521.725 258.411 522.142 258.424 522.576 258.551C523.01 258.678 523.482 258.897 523.993 259.208C524.503 259.518 525.056 259.899 525.651 260.35C525.971 260.589 526.234 260.779 526.441 260.921C526.666 261.063 526.866 261.135 527.04 261.137C527.223 261.13 527.402 261.041 527.578 260.869C527.825 260.628 527.95 260.333 527.954 259.985C527.958 259.637 527.775 259.273 527.405 258.894C527.156 258.639 526.879 258.444 526.576 258.31C526.282 258.185 525.969 258.129 525.638 258.142C525.315 258.165 524.983 258.274 524.641 258.471L523.517 256.289C523.981 256.042 524.44 255.886 524.894 255.822C525.356 255.766 525.813 255.793 526.264 255.903C526.725 256.004 527.175 256.192 527.616 256.467C528.057 256.742 528.484 257.091 528.897 257.514C529.56 258.192 529.988 258.85 530.181 259.488C530.391 260.126 530.37 260.775 530.119 261.434C529.876 262.084 529.398 262.758 528.685 263.455L527.496 264.617C527.188 264.918 526.879 265.228 526.571 265.546C526.271 265.874 525.967 266.205 525.658 266.541C525.367 266.878 525.075 267.214 524.784 267.55L523.145 265.872C523.33 265.622 523.547 265.341 523.794 265.031C524.059 264.72 524.328 264.414 524.602 264.113L524.37 263.875C523.914 264.079 523.438 264.199 522.942 264.237C522.445 264.275 521.949 264.208 521.455 264.037C520.978 263.866 520.533 263.569 520.12 263.147ZM522.281 262.61C522.445 262.777 522.639 262.914 522.864 263.022C523.098 263.137 523.345 263.223 523.606 263.278C523.884 263.334 524.171 263.346 524.467 263.314C524.772 263.292 525.074 263.221 525.371 263.103L526.455 261.992L526.686 262.361C526.417 262.314 526.143 262.219 525.866 262.077C525.598 261.926 525.335 261.753 525.076 261.558C524.825 261.372 524.57 261.191 524.311 261.014C524.052 260.837 523.801 260.694 523.559 260.587C523.325 260.489 523.094 260.447 522.868 260.462C522.659 260.476 522.448 260.587 522.237 260.794C521.964 261.061 521.834 261.36 521.848 261.691C521.861 262.022 522.006 262.328 522.281 262.61Z" fill="#220D4E"/>
<path d="M525.991 268.873L535.635 259.85L537.427 261.765L527.783 270.788L525.991 268.873Z" fill="#220D4E"/>
<path d="M529.089 277.209C528.76 276.842 528.46 276.433 528.188 275.982C527.916 275.549 527.701 275.097 527.544 274.626C527.386 274.172 527.31 273.728 527.316 273.292L529.514 272.341C529.474 272.905 529.578 273.473 529.826 274.045C530.064 274.625 530.376 275.131 530.762 275.562C531.198 276.048 531.66 276.361 532.149 276.502C532.638 276.659 533.158 276.64 533.709 276.444C534.278 276.248 534.882 275.889 535.521 275.366L536.848 274.328L536.576 274.025C535.889 274.475 535.258 274.768 534.684 274.902C534.118 275.045 533.599 275.038 533.128 274.881C532.675 274.725 532.255 274.432 531.869 274.001C531.4 273.478 531.139 272.918 531.085 272.322C531.03 271.726 531.187 271.098 531.555 270.439C531.931 269.788 532.509 269.113 533.288 268.415L536.316 265.704L538.09 267.686L535.544 269.965C534.691 270.729 534.163 271.376 533.959 271.905C533.756 272.435 533.831 272.897 534.184 273.291C534.373 273.502 534.6 273.646 534.866 273.721C535.142 273.789 535.443 273.784 535.77 273.706C536.105 273.637 536.457 273.495 536.827 273.28C537.214 273.066 537.609 272.778 538.012 272.417L540.407 270.272L542.181 272.254L536.87 277.01C536.292 277.528 535.719 277.95 535.152 278.276C534.594 278.594 534.05 278.808 533.52 278.919C532.99 279.046 532.47 279.066 531.961 278.977C531.451 278.887 530.956 278.694 530.475 278.398C530.003 278.11 529.541 277.714 529.089 277.209Z" fill="#220D4E"/>
<path d="M538.526 283.253C537.823 282.429 537.519 281.636 537.614 280.875C537.727 280.115 538.261 279.328 539.217 278.512L542.435 275.768L541.524 274.699L543.136 273.373L543.771 274.118C544.019 274.408 544.245 274.588 544.449 274.656C544.653 274.725 544.88 274.678 545.129 274.514L546.338 273.798L547.321 274.95L545.677 276.352L547.271 278.221L545.627 279.624L544.033 277.755L540.955 280.38C540.618 280.668 540.442 280.955 540.428 281.242C540.414 281.529 540.547 281.837 540.827 282.165C540.978 282.343 541.141 282.495 541.314 282.623C541.496 282.759 541.68 282.853 541.869 282.903L539.985 284.509C539.644 284.298 539.355 284.083 539.119 283.864C538.884 283.644 538.686 283.44 538.526 283.253Z" fill="#220D4E"/>
<path d="M540.745 285.553L548.217 279.372L549.912 281.422L542.44 287.603L540.745 285.553ZM550.2 279.481C549.871 279.082 549.696 278.707 549.677 278.356C549.675 278.006 549.836 277.697 550.158 277.43C550.49 277.156 550.828 277.052 551.171 277.119C551.523 277.196 551.863 277.434 552.193 277.833C552.53 278.241 552.7 278.62 552.702 278.97C552.712 279.329 552.551 279.646 552.219 279.921C551.905 280.18 551.573 280.271 551.222 280.194C550.878 280.127 550.538 279.889 550.2 279.481Z" fill="#220D4E"/>
<path d="M546.455 293.004C545.935 292.348 545.576 291.697 545.378 291.052C545.18 290.407 545.125 289.783 545.212 289.18C545.299 288.576 545.514 288.005 545.856 287.466C546.208 286.919 546.669 286.42 547.238 285.968C547.836 285.493 548.446 285.143 549.068 284.916C549.707 284.692 550.34 284.598 550.967 284.635C551.594 284.672 552.2 284.851 552.785 285.172C553.37 285.494 553.908 285.963 554.398 286.58C554.888 287.198 555.212 287.813 555.369 288.427C555.534 289.051 555.544 289.648 555.4 290.219C555.273 290.792 555.005 291.326 554.597 291.823L552.448 290.392C552.724 290.126 552.915 289.841 553.02 289.538C553.142 289.236 553.168 288.933 553.098 288.627C553.045 288.323 552.912 288.035 552.697 287.765C552.475 287.486 552.226 287.291 551.95 287.18C551.683 287.062 551.386 287.014 551.059 287.038C550.749 287.064 550.414 287.157 550.054 287.317C549.711 287.479 549.356 287.706 548.99 287.997C548.469 288.41 548.079 288.83 547.819 289.256C547.577 289.684 547.467 290.109 547.489 290.532C547.527 290.958 547.708 291.373 548.029 291.778C548.335 292.164 548.653 292.415 548.981 292.531C549.319 292.64 549.646 292.656 549.962 292.578C550.295 292.503 550.598 292.38 550.872 292.21L551.914 294.354C551.499 294.604 551.063 294.778 550.605 294.874C550.155 294.98 549.694 294.984 549.223 294.886C548.752 294.788 548.28 294.589 547.806 294.29C547.35 293.992 546.899 293.563 546.455 293.004Z" fill="#220D4E"/>
<path d="M552.506 300.845C552.114 300.324 551.808 299.814 551.588 299.317C551.368 298.82 551.237 298.349 551.194 297.903C551.151 297.457 551.188 297.045 551.303 296.665C551.428 296.279 551.63 295.933 551.911 295.63L553.796 296.754C553.61 296.956 553.489 297.216 553.436 297.534C553.382 297.852 553.407 298.202 553.511 298.586C553.633 298.973 553.852 299.378 554.171 299.801C554.511 300.253 554.838 300.555 555.151 300.704C555.474 300.847 555.759 300.825 556.005 300.64C556.192 300.499 556.287 300.319 556.292 300.1C556.296 299.881 556.238 299.609 556.117 299.284C555.996 298.959 555.829 298.584 555.616 298.158C555.431 297.727 555.243 297.283 555.053 296.825C554.87 296.378 554.744 295.925 554.677 295.467C554.617 295.018 554.652 294.584 554.782 294.162C554.929 293.743 555.229 293.364 555.682 293.023C556.154 292.668 556.664 292.485 557.21 292.474C557.757 292.463 558.314 292.63 558.881 292.973C559.458 293.31 560.013 293.832 560.546 294.541C561.027 295.18 561.361 295.808 561.546 296.423C561.742 297.031 561.792 297.61 561.697 298.159C561.619 298.711 561.399 299.208 561.038 299.649L559.163 298.355C559.37 298.138 559.502 297.885 559.561 297.594C559.627 297.313 559.608 297.011 559.504 296.689C559.407 296.376 559.233 296.053 558.981 295.718C558.663 295.295 558.346 295.017 558.031 294.885C557.723 294.762 557.455 294.786 557.229 294.956C557.042 295.097 556.945 295.286 556.938 295.522C556.939 295.768 557.003 296.059 557.132 296.394C557.27 296.721 557.441 297.101 557.643 297.534C557.861 297.987 558.056 298.441 558.229 298.896C558.412 299.344 558.531 299.779 558.586 300.2C558.648 300.631 558.608 301.038 558.466 301.423C558.324 301.807 558.036 302.162 557.604 302.488C557.092 302.873 556.545 303.069 555.964 303.075C555.393 303.073 554.813 302.886 554.223 302.512C553.634 302.139 553.062 301.583 552.506 300.845Z" fill="#220D4E"/>
<path d="M559.295 310.116C558.96 309.644 558.807 309.216 558.837 308.833C558.874 308.459 559.103 308.123 559.524 307.823C559.956 307.517 560.354 307.407 560.719 307.496C561.091 307.594 561.445 307.879 561.78 308.351C562.122 308.833 562.275 309.26 562.238 309.634C562.209 310.017 561.978 310.363 561.546 310.669C560.723 311.254 559.973 311.07 559.295 310.116Z" fill="#220D4E"/>
<path d="M563.798 316.139L573.936 309.368L575.424 311.596L565.286 318.366L563.798 316.139ZM564.824 317.675L566.621 316.475L570.817 322.757L569.02 323.957L564.824 317.675ZM569.125 314.803L570.769 313.705L574.451 319.219L572.808 320.317L569.125 314.803ZM573.18 312.094L574.962 310.904L579.137 317.156L577.355 318.346L573.18 312.094Z" fill="#220D4E"/>
<path d="M570.583 326.918C570.293 326.46 570.124 325.998 570.077 325.533C570.04 325.06 570.131 324.617 570.349 324.202C570.567 323.786 570.931 323.417 571.441 323.095C571.888 322.811 572.316 322.657 572.723 322.633C573.136 322.619 573.542 322.719 573.94 322.933C574.338 323.147 574.755 323.459 575.189 323.869C575.624 324.279 576.085 324.766 576.574 325.331C576.837 325.631 577.055 325.872 577.229 326.054C577.419 326.239 577.599 326.351 577.769 326.389C577.95 326.421 578.144 326.371 578.352 326.239C578.643 326.054 578.827 325.792 578.903 325.452C578.979 325.113 578.876 324.719 578.593 324.272C578.402 323.97 578.172 323.722 577.903 323.528C577.641 323.344 577.346 323.224 577.02 323.169C576.7 323.124 576.352 323.162 575.977 323.283L575.33 320.916C575.836 320.77 576.317 320.713 576.774 320.744C577.238 320.786 577.679 320.907 578.098 321.109C578.527 321.303 578.929 321.581 579.303 321.941C579.677 322.302 580.023 322.732 580.339 323.231C580.846 324.032 581.128 324.765 581.184 325.429C581.257 326.097 581.102 326.727 580.72 327.319C580.347 327.905 579.74 328.465 578.897 328.998L577.493 329.888C577.128 330.118 576.762 330.357 576.395 330.605C576.033 330.863 575.667 331.124 575.295 331.389C574.94 331.657 574.585 331.926 574.231 332.194L572.976 330.212C573.209 330.006 573.479 329.777 573.786 329.524C574.109 329.276 574.436 329.032 574.766 328.794L574.589 328.513C574.101 328.618 573.61 328.637 573.116 328.571C572.623 328.505 572.152 328.336 571.704 328.066C571.273 327.8 570.899 327.417 570.583 326.918ZM572.809 326.842C572.934 327.039 573.095 327.214 573.293 327.366C573.498 327.528 573.722 327.663 573.965 327.771C574.226 327.883 574.504 327.954 574.801 327.985C575.104 328.026 575.413 328.02 575.729 327.966L577.02 327.104L577.169 327.513C576.915 327.411 576.668 327.262 576.426 327.065C576.195 326.861 575.973 326.638 575.76 326.393C575.554 326.16 575.343 325.929 575.126 325.702C574.909 325.475 574.693 325.284 574.478 325.128C574.27 324.983 574.053 324.895 573.829 324.862C573.621 324.833 573.392 324.898 573.142 325.056C572.82 325.26 572.631 325.526 572.575 325.852C572.52 326.179 572.598 326.509 572.809 326.842Z" fill="#220D4E"/>
<path d="M575.297 333.966L579.314 331.542L583.6 328.956L584.735 330.837L581.914 332.562L582.096 332.862C582.853 332.52 583.513 332.316 584.077 332.249C584.647 332.192 585.149 332.285 585.582 332.527C586.016 332.769 586.398 333.164 586.729 333.712C586.786 333.807 586.841 333.91 586.895 334.022C586.965 334.138 587.028 334.279 587.086 334.446L584.609 335.811C584.587 335.608 584.535 335.403 584.452 335.194C584.369 334.985 584.283 334.807 584.194 334.659C583.946 334.248 583.638 333.952 583.27 333.771C582.902 333.591 582.482 333.514 582.009 333.54C581.553 333.571 581.052 333.707 580.508 333.95L576.681 336.259L575.297 333.966Z" fill="#220D4E"/>
<path d="M579.069 340.226L584.161 337.298L587.476 335.392L588.562 337.281L586.039 338.711L586.223 339.031C586.911 338.82 587.532 338.726 588.085 338.749C588.638 338.772 589.126 338.917 589.55 339.185C589.98 339.463 590.348 339.869 590.655 340.403C591.214 341.375 591.296 342.308 590.901 343.202C590.513 344.107 589.587 344.98 588.124 345.821L583.737 348.344L582.402 346.022L586.533 343.647C587.43 343.131 588.004 342.623 588.257 342.123C588.526 341.628 588.516 341.129 588.227 340.627C587.982 340.2 587.643 339.919 587.21 339.785C586.778 339.65 586.299 339.634 585.776 339.736C585.269 339.843 584.746 340.044 584.206 340.34L580.395 342.532L579.069 340.226Z" fill="#220D4E"/>
<path d="M587.001 354.301L597.8 348.643L600.097 353.027C600.406 353.616 600.637 354.177 600.79 354.708C600.954 355.234 601.046 355.728 601.066 356.19C601.086 356.652 601.031 357.077 600.9 357.465C600.787 357.859 600.595 358.209 600.325 358.517C600.067 358.82 599.736 359.077 599.332 359.288C598.95 359.488 598.57 359.611 598.191 359.657C597.822 359.697 597.461 359.657 597.106 359.537C596.751 359.417 596.403 359.217 596.062 358.937C595.732 358.651 595.413 358.283 595.107 357.832L594.862 357.96C595.099 358.545 595.199 359.055 595.164 359.491C595.144 359.932 595.014 360.334 594.773 360.697C594.538 361.07 594.207 361.459 593.779 361.864L591.914 363.676L590.55 361.074L592.33 359.495C592.715 359.169 592.979 358.85 593.121 358.539C593.275 358.222 593.327 357.896 593.276 357.561C593.237 357.22 593.111 356.848 592.9 356.444L591.983 354.694L588.236 356.657L587.001 354.301ZM593.75 353.768L594.727 355.633C595.115 356.375 595.557 356.873 596.052 357.128C596.547 357.383 597.095 357.353 597.695 357.039C598.284 356.73 598.615 356.314 598.687 355.789C598.777 355.269 598.624 354.633 598.23 353.881L597.218 351.95L593.75 353.768Z" fill="#220D4E"/>
<path d="M594.312 369.199C593.962 368.48 593.748 367.789 593.673 367.127C593.602 366.477 593.661 365.866 593.848 365.295C594.036 364.725 594.355 364.199 594.806 363.719C595.263 363.25 595.84 362.846 596.537 362.506C597.224 362.172 597.9 361.958 598.568 361.866C599.251 361.779 599.895 361.822 600.499 361.993C601.115 362.159 601.67 362.457 602.167 362.886C602.664 363.315 603.08 363.873 603.414 364.559C603.738 365.224 603.915 365.87 603.947 366.498C603.991 367.121 603.88 367.709 603.615 368.262C603.356 368.827 602.949 369.34 602.393 369.803C601.854 370.271 601.17 370.68 600.34 371.029L596.941 364.22L598.253 363.581L600.964 369.02L599.887 368.497C600.512 368.288 600.974 368.015 601.275 367.677C601.576 367.338 601.742 366.976 601.774 366.591C601.811 366.217 601.743 365.853 601.57 365.499C601.365 365.078 601.074 364.761 600.696 364.548C600.318 364.335 599.87 364.245 599.352 364.278C598.845 364.306 598.293 364.465 597.695 364.757C596.754 365.215 596.162 365.757 595.919 366.382C595.681 367.019 595.727 367.675 596.056 368.35C596.207 368.66 596.372 368.901 596.552 369.074C596.749 369.252 596.946 369.375 597.143 369.443C597.346 369.522 597.55 369.56 597.753 369.557C597.963 369.565 598.164 369.556 598.357 369.53L598.92 371.824C598.461 371.924 598.018 371.955 597.589 371.918C597.176 371.886 596.77 371.769 596.37 371.567C595.981 371.359 595.615 371.058 595.272 370.663C594.923 370.285 594.603 369.797 594.312 369.199Z" fill="#220D4E"/>
<path d="M597.83 375.95L605.747 369.856L606.86 372.394L600.456 376.694L600.597 377.015L608.202 375.456L609.485 378.382L603.208 382.97L603.349 383.291L610.835 381.461L611.926 383.948L602.073 385.626L600.604 382.276L606.898 377.863L606.772 377.575L599.291 379.282L597.83 375.95Z" fill="#220D4E"/>
</svg>
