<svg width="1440" height="125" viewBox="0 0 1440 125" fill="none" xmlns="http://www.w3.org/2000/svg">
<mask id="mask0_2301_10313" style="mask-type:luminance" maskUnits="userSpaceOnUse" x="-12" y="0" width="1472" height="125">
<path d="M1457.3 124.626L1459.83 49.8838L-9.41062 0.117114L-11.9423 74.8591L1457.3 124.626Z" fill="white"/>
</mask>
<g mask="url(#mask0_2301_10313)">
<path d="M1456.26 123.647L1458.73 50.8002L-8.36133 1.10645L-10.8288 73.9537L1456.26 123.647Z" fill="#8C9B57" stroke="#220D4E" stroke-width="1.50225" stroke-miterlimit="10"/>
<path d="M1447.9 116.524L1449.91 57.3313L-0.251953 8.21094L-2.25695 67.4036L1447.9 116.524Z" fill="#F24AC7" stroke="#220D4E" stroke-width="1.33456" stroke-miterlimit="10"/>
<path d="M1447.9 116.524L1449.91 57.3313L-0.251953 8.21094L-2.25695 67.4036L1447.9 116.524Z" fill="#F24AC7" stroke="#220D4E" stroke-width="1.33456" stroke-miterlimit="10"/>
<path d="M1012.35 71.475C1012.16 77.0372 1008.08 78.7788 999.568 81.032C990.772 83.3551 988.49 89.623 987.843 90.1571C987.195 90.6912 986.322 90.485 985.896 89.4205C985.478 88.3561 979.624 83.0569 978.743 82.224C977.862 81.391 976.694 78.951 976.743 77.5054C974.412 75.2996 967.349 74.5397 967.487 70.4583C967.583 67.6464 973.393 65.981 975.229 65.2137C976.336 64.757 977.969 64.0181 979.389 62.5306C983.144 58.607 979.782 61.2554 979.109 61.9298C978.602 62.4422 978.213 62.7996 978.213 62.7996C976.479 57.0046 986.592 53.3847 987.311 52.3854C987.766 51.7653 988.563 50.7421 989.63 52.4639C990.226 53.4283 993.858 60.5585 999.14 61.8935C1004.42 63.2197 1012.59 64.2817 1012.34 71.4835L1012.35 71.475Z" stroke="#FEF6E2" stroke-width="2.96957" stroke-miterlimit="10"/>
<path d="M1012.35 71.4749C1012.16 77.0372 1008.08 78.7788 999.569 81.032C990.772 83.3551 988.49 89.623 987.843 90.1571C987.196 90.6911 986.322 90.485 985.896 89.4204C985.478 88.3561 979.624 83.0569 978.743 82.224C977.863 81.3911 976.694 78.9511 976.743 77.5054C974.413 75.2996 967.349 74.5397 967.488 70.4583C967.583 67.6463 973.393 65.9811 975.23 65.2137C976.882 64.5284 979.827 63.2514 981.139 59.5982C980.306 60.8672 978.213 62.8085 978.213 62.8085C976.479 57.0134 986.592 53.3935 987.311 52.3941C987.766 51.7741 988.563 50.7509 989.63 52.4727C990.226 53.4372 993.858 60.5673 999.14 61.9023C1004.42 63.2285 1012.59 64.2905 1012.34 71.4923L1012.35 71.4749Z" fill="#220D4E"/>
<path d="M1004.22 67.6783C1006.63 68.7663 1006.33 70.9536 1003.26 69.9759C999.999 68.9387 1000.74 66.1135 1004.22 67.6783Z" fill="#FEF6E2"/>
<path d="M1002.94 72.6558C1006.01 71.4803 1006.6 73.6093 1004.29 74.7578C1001.03 76.3769 999.775 73.8723 1002.94 72.6558Z" fill="#FEF6E2"/>
<path d="M1071.48 73.4781C1071.29 79.0404 1067.21 80.7819 1058.69 83.0352C1049.9 85.3582 1047.62 91.6262 1046.97 92.1603C1046.32 92.6943 1045.45 92.4882 1045.02 91.4236C1044.6 90.359 1038.75 85.0601 1037.87 84.2272C1036.99 83.3942 1035.82 80.9542 1035.87 79.5086C1033.53 77.3025 1026.47 76.5426 1026.61 72.4612C1026.7 69.6493 1032.52 67.9842 1034.36 67.2169C1035.46 66.7601 1037.09 66.0212 1038.52 64.5338C1042.27 60.6102 1038.91 63.2586 1038.24 63.933C1037.73 64.4453 1037.33 64.8026 1037.33 64.8026C1035.6 59.0075 1045.71 55.3876 1046.44 54.3885C1046.89 53.7682 1047.68 52.7451 1048.76 54.4671C1049.35 55.4315 1052.98 62.5614 1058.26 63.8964C1063.55 65.2229 1071.71 66.2846 1071.46 73.4865L1071.48 73.4781Z" stroke="#FEF6E2" stroke-width="2.96957" stroke-miterlimit="10"/>
<path d="M1071.48 73.4781C1071.29 79.0404 1067.21 80.782 1058.69 83.0351C1049.9 85.3583 1047.62 91.6262 1046.97 92.1602C1046.32 92.6943 1045.45 92.4882 1045.02 91.4236C1044.6 90.359 1038.75 85.0601 1037.87 84.2271C1036.99 83.3942 1035.82 80.9542 1035.87 79.5086C1033.53 77.3026 1026.47 76.5426 1026.61 72.4613C1026.7 69.6493 1032.52 67.9842 1034.36 67.2169C1036.01 66.5316 1038.95 65.2546 1040.26 61.6013C1039.43 62.8704 1037.33 64.8114 1037.33 64.8114C1035.6 59.0164 1045.71 55.3964 1046.44 54.3973C1046.89 53.777 1047.68 52.7538 1048.76 54.4758C1049.35 55.4403 1052.98 62.5703 1058.26 63.9053C1063.55 65.2317 1071.71 66.2934 1071.46 73.4953L1071.48 73.4781Z" fill="#220D4E"/>
<path d="M1063.35 69.6813C1065.77 70.7692 1065.47 72.9565 1062.4 71.9789C1059.13 70.9416 1059.88 68.1164 1063.35 69.6813Z" fill="#FEF6E2"/>
<path d="M1062.07 74.6589C1065.14 73.4831 1065.73 75.6123 1063.42 76.7608C1060.15 78.3799 1058.9 75.8751 1062.07 74.6589Z" fill="#FEF6E2"/>
<path d="M953.216 69.472C953.027 75.0343 948.955 76.7761 940.441 79.0293C931.637 81.3521 929.355 87.6201 928.708 88.1542C928.061 88.6882 927.187 88.4821 926.768 87.4178C926.343 86.3532 920.489 81.054 919.608 80.2211C918.728 79.3881 917.559 76.9481 917.608 75.5025C915.278 73.2967 908.214 72.5367 908.353 68.4554C908.448 65.6435 914.258 63.9781 916.095 63.2108C917.201 62.754 918.834 62.0151 920.255 60.5277C924.009 56.6041 920.647 59.2525 919.974 59.9269C919.467 60.4392 919.078 60.7967 919.078 60.7967C917.345 55.0017 927.458 51.3817 928.177 50.3824C928.631 49.7624 929.428 48.7392 930.495 50.461C931.092 51.4254 934.723 58.5556 940.005 59.8906C945.288 61.2168 953.452 62.2787 953.209 69.4806L953.216 69.472Z" stroke="#FEF6E2" stroke-width="2.96957" stroke-miterlimit="10"/>
<path d="M953.216 69.472C953.028 75.0343 948.956 76.7761 940.441 79.0293C931.637 81.3522 929.356 87.6201 928.708 88.1541C928.061 88.6882 927.187 88.4821 926.769 87.4177C926.343 86.3531 920.489 81.054 919.609 80.221C918.728 79.3881 917.559 76.9481 917.608 75.5025C915.278 73.2967 908.215 72.5368 908.353 68.4554C908.448 65.6434 914.258 63.9781 916.095 63.2108C917.747 62.5255 920.692 61.2485 922.004 57.5952C921.171 58.8643 919.078 60.8055 919.078 60.8055C917.345 55.0105 927.458 51.3906 928.177 50.3912C928.631 49.7712 929.428 48.748 930.495 50.4697C931.092 51.4342 934.723 58.5644 940.005 59.8994C945.288 61.2256 953.452 62.2876 953.209 69.4894L953.216 69.472Z" fill="#220D4E"/>
<path d="M945.088 65.6752C947.512 66.7634 947.207 68.9505 944.143 67.973C940.879 66.9358 941.624 64.1106 945.088 65.6752Z" fill="#FEF6E2"/>
<path d="M943.806 70.6529C946.88 69.4774 947.465 71.6064 945.161 72.7551C941.89 74.3739 940.64 71.8694 943.806 70.6529Z" fill="#FEF6E2"/>
<path d="M894.09 67.4693C893.902 73.0316 889.823 74.7731 881.308 77.0264C872.511 79.3495 870.222 85.6172 869.575 86.1512C868.928 86.6853 868.054 86.4792 867.635 85.4148C867.21 84.3502 861.356 79.051 860.476 78.2181C859.595 77.3852 858.426 74.9452 858.475 73.4995C856.145 71.2937 849.082 70.5338 849.22 66.4525C849.315 63.6405 855.132 61.9754 856.962 61.2079C858.068 60.7511 859.708 60.0124 861.122 58.5247C864.876 54.6012 861.521 57.2498 860.848 57.9242C860.335 58.4363 859.945 58.7938 859.945 58.7938C858.212 52.9987 868.325 49.3788 869.051 48.3797C869.498 47.7594 870.295 46.7363 871.362 48.458C871.959 49.4225 875.59 56.5526 880.873 57.8876C886.155 59.2138 894.32 60.2758 894.076 67.4777L894.09 67.4693Z" stroke="#FEF6E2" stroke-width="2.96957" stroke-miterlimit="10"/>
<path d="M894.088 67.4683C893.9 73.0306 889.821 74.7722 881.306 77.0254C872.509 79.3485 870.221 85.6162 869.573 86.1502C868.926 86.6843 868.052 86.4782 867.634 85.4138C867.208 84.3492 861.355 79.0501 860.474 78.2171C859.593 77.3842 858.424 74.9442 858.473 73.4986C856.143 71.2928 849.08 70.5328 849.218 66.4515C849.313 63.6395 855.13 61.9745 856.96 61.2069C858.619 60.5218 861.557 59.2446 862.869 55.5913C862.036 56.8604 859.943 58.8016 859.943 58.8016C858.21 53.0066 868.323 49.3867 869.049 48.3875C869.496 47.7673 870.293 46.7441 871.36 48.4658C871.957 49.4303 875.588 56.5605 880.871 57.8955C886.153 59.2217 894.318 60.2837 894.074 67.4855L894.088 67.4683Z" fill="#220D4E"/>
<path d="M885.955 63.6723C888.379 64.7605 888.074 66.9475 885.01 65.9701C881.746 64.9328 882.492 62.1077 885.955 63.6723Z" fill="#FEF6E2"/>
<path d="M884.686 68.651C887.753 67.4753 888.345 69.6045 886.034 70.753C882.77 72.3721 881.513 69.8673 884.686 68.651Z" fill="#FEF6E2"/>
<path d="M834.963 65.4664C834.775 71.0286 830.696 72.7702 822.181 75.0235C813.384 77.3465 811.102 83.6145 810.455 84.1486C809.808 84.6826 808.934 84.4765 808.509 83.4119C808.083 82.3473 802.236 77.0483 801.356 76.2154C800.475 75.3825 799.306 72.9425 799.355 71.4969C797.018 69.2908 789.955 68.5309 790.093 64.4495C790.188 61.6376 796.005 59.9725 797.842 59.2052C798.948 58.7484 800.581 58.0095 802.002 56.522C805.756 52.5985 802.394 55.2469 801.721 55.9213C801.215 56.4336 800.825 56.7911 800.825 56.7911C799.092 50.996 809.198 47.3759 809.924 46.3768C810.378 45.7567 811.168 44.7333 812.242 46.4553C812.839 47.4198 816.463 54.5497 821.753 55.8849C827.035 57.2111 835.2 58.2731 834.956 65.475L834.963 65.4664Z" stroke="#FEF6E2" stroke-width="2.96957" stroke-miterlimit="10"/>
<path d="M834.961 65.4654C834.773 71.0277 830.694 72.7693 822.179 75.0225C813.383 77.3456 811.101 83.6135 810.454 84.1475C809.806 84.6816 808.932 84.4755 808.507 83.4109C808.082 82.3463 802.235 77.0474 801.354 76.2144C800.473 75.3815 799.305 72.9415 799.353 71.4959C797.016 69.2899 789.953 68.5299 790.091 64.4486C790.186 61.6366 796.004 59.9715 797.84 59.2042C799.492 58.5189 802.437 57.2419 803.749 53.5886C802.916 54.8577 800.823 56.7989 800.823 56.7989C799.09 51.0039 809.196 47.3837 809.922 46.3846C810.376 45.7646 811.166 44.7411 812.24 46.4631C812.837 47.4276 816.462 54.5576 821.751 55.8928C827.033 57.219 835.198 58.281 834.954 65.4828L834.961 65.4654Z" fill="#220D4E"/>
<path d="M826.82 61.6693C829.244 62.7575 828.94 64.9446 825.876 63.9672C822.611 62.9299 823.357 60.1047 826.82 61.6693Z" fill="#FEF6E2"/>
<path d="M825.555 66.6481C828.622 65.4724 829.214 67.6016 826.903 68.7501C823.64 70.3692 822.382 67.8644 825.555 66.6481Z" fill="#FEF6E2"/>
<path d="M775.828 63.4635C775.64 69.0257 771.561 70.7673 763.046 73.0205C754.249 75.3436 751.968 81.6116 751.32 82.1456C750.673 82.6797 749.799 82.4735 749.374 81.409C748.962 80.3449 743.102 75.0454 742.221 74.2125C741.34 73.3796 740.172 70.9396 740.22 69.4939C737.883 67.2879 730.82 66.5279 730.958 62.4466C731.053 59.6347 736.871 57.9696 738.707 57.2022C739.813 56.7455 741.446 56.0066 742.867 54.5191C746.621 50.5955 743.26 53.244 742.587 53.9183C742.08 54.4307 741.69 54.7882 741.69 54.7882C739.957 48.9931 750.063 45.3729 750.789 44.3739C751.244 43.7538 752.033 42.7304 753.108 44.4524C753.704 45.4169 757.336 52.547 762.618 53.882C767.9 55.2082 776.065 56.2702 775.821 63.4721L775.828 63.4635Z" stroke="#FEF6E2" stroke-width="2.96957" stroke-miterlimit="10"/>
<path d="M775.829 63.4634C775.64 69.0257 771.561 70.7673 763.047 73.0205C754.25 75.3436 751.968 81.6115 751.321 82.1456C750.673 82.6796 749.8 82.4736 749.374 81.409C748.963 80.3448 743.102 75.0454 742.221 74.2125C741.341 73.3796 740.172 70.9396 740.221 69.4939C737.884 67.2879 730.82 66.528 730.958 62.4466C731.054 59.6346 736.871 57.9696 738.708 57.2023C740.36 56.5169 743.304 55.2399 744.617 51.5867C743.784 52.8557 741.69 54.797 741.69 54.797C739.957 49.002 750.063 45.3818 750.789 44.3826C751.244 43.7626 752.033 42.7392 753.108 44.4612C753.704 45.4257 757.336 52.5558 762.618 53.8908C767.9 55.217 776.065 56.279 775.821 63.4808L775.829 63.4634Z" fill="#220D4E"/>
<path d="M767.701 59.6675C770.125 60.7557 769.82 62.9428 766.749 61.9651C763.491 60.9281 764.23 58.1027 767.701 59.6675Z" fill="#FEF6E2"/>
<path d="M766.421 64.6452C769.488 63.4694 770.08 65.5987 767.769 66.7471C764.505 68.3662 763.247 65.8614 766.421 64.6452Z" fill="#FEF6E2"/>
<path d="M1373.26 83.6998C1373.08 89.262 1369 91.0036 1360.48 93.2569C1351.69 95.5799 1349.4 101.848 1348.76 102.382C1348.11 102.916 1347.23 102.71 1346.81 101.645C1346.4 100.581 1340.54 95.2817 1339.66 94.4488C1338.78 93.6159 1337.61 91.1759 1337.66 89.7302C1335.32 87.5242 1328.26 86.7643 1328.39 82.6829C1328.49 79.871 1334.31 78.2059 1336.14 77.4386C1337.25 76.9818 1338.88 76.2429 1340.3 74.7554C1344.06 70.8319 1340.7 73.4803 1340.02 74.1547C1339.52 74.667 1339.13 75.0245 1339.13 75.0245C1337.39 69.2294 1347.5 65.6093 1348.22 64.6102C1348.68 63.9901 1349.47 62.9667 1350.54 64.6887C1351.14 65.6532 1354.76 72.7831 1360.05 74.1183C1365.34 75.4445 1373.5 76.5065 1373.26 83.7084L1373.26 83.6998Z" stroke="#FEF6E2" stroke-width="2.96957" stroke-miterlimit="10"/>
<path d="M1373.26 83.6998C1373.08 89.2621 1369 91.0036 1360.48 93.2568C1351.69 95.5799 1349.4 101.848 1348.76 102.382C1348.11 102.916 1347.24 102.71 1346.81 101.645C1346.4 100.581 1340.54 95.2818 1339.66 94.4488C1338.78 93.6159 1337.61 91.1759 1337.66 89.7303C1335.32 87.5242 1328.26 86.7643 1328.39 82.683C1328.49 79.871 1334.31 78.2059 1336.14 77.4386C1337.8 76.7533 1340.74 75.4762 1342.05 71.823C1341.22 73.0921 1339.13 75.0333 1339.13 75.0333C1337.39 69.2383 1347.5 65.6181 1348.22 64.619C1348.68 63.999 1349.47 62.9755 1350.54 64.6975C1351.14 65.662 1354.76 72.7919 1360.05 74.1272C1365.34 75.4534 1373.5 76.5153 1373.26 83.7172L1373.26 83.6998Z" fill="#220D4E"/>
<path d="M1365.14 79.9038C1367.56 80.992 1367.26 83.1791 1364.18 82.2014C1360.93 81.1644 1361.67 78.339 1365.14 79.9038Z" fill="#FEF6E2"/>
<path d="M1363.86 84.8815C1366.92 83.7058 1367.52 85.835 1365.2 86.9835C1361.94 88.6026 1360.68 86.0978 1363.86 84.8815Z" fill="#FEF6E2"/>
<path d="M1432.4 85.7027C1432.21 91.265 1428.13 93.0065 1419.62 95.2598C1410.82 97.5828 1408.54 103.851 1407.89 104.385C1407.24 104.919 1406.37 104.713 1405.94 103.648C1405.52 102.584 1399.67 97.2847 1398.79 96.4518C1397.91 95.6188 1396.74 93.1788 1396.79 91.7332C1394.45 89.5271 1387.39 88.7672 1387.53 84.6859C1387.62 81.8739 1393.44 80.2088 1395.28 79.4415C1396.38 78.9848 1398.02 78.2458 1399.44 76.7584C1403.19 72.8348 1399.83 75.4832 1399.16 76.1576C1398.65 76.6699 1398.26 77.0274 1398.26 77.0274C1396.53 71.2324 1406.63 67.6122 1407.36 66.6131C1407.81 65.9931 1408.6 64.9697 1409.68 66.6917C1410.27 67.6561 1413.9 74.786 1419.19 76.1213C1424.47 77.4475 1432.64 78.5094 1432.39 85.7113L1432.4 85.7027Z" stroke="#FEF6E2" stroke-width="2.96957" stroke-miterlimit="10"/>
<path d="M1432.4 85.7027C1432.21 91.265 1428.13 93.0066 1419.61 95.2598C1410.82 97.5829 1408.54 103.851 1407.89 104.385C1407.24 104.919 1406.37 104.713 1405.94 103.648C1405.52 102.584 1399.67 97.2847 1398.79 96.4517C1397.91 95.6188 1396.74 93.1788 1396.79 91.7332C1394.45 89.5272 1387.39 88.7672 1387.53 84.6859C1387.62 81.8739 1393.44 80.2088 1395.28 79.4415C1396.93 78.7562 1399.87 77.4792 1401.18 73.8259C1400.35 75.095 1398.26 77.0362 1398.26 77.0362C1396.53 71.2412 1406.63 67.621 1407.36 66.6219C1407.81 66.0019 1408.6 64.9784 1409.68 66.7004C1410.27 67.6649 1413.9 74.7949 1419.19 76.1301C1424.47 77.4563 1432.63 78.5183 1432.39 85.7201L1432.4 85.7027Z" fill="#220D4E"/>
<path d="M1424.26 81.9066C1426.68 82.9948 1426.38 85.1819 1423.31 84.2045C1420.05 83.1672 1420.79 80.342 1424.26 81.9066Z" fill="#FEF6E2"/>
<path d="M1422.99 86.8844C1426.06 85.7087 1426.65 87.8379 1424.34 88.9864C1421.07 90.6055 1419.82 88.1007 1422.99 86.8844Z" fill="#FEF6E2"/>
<path d="M1314.13 81.6969C1313.94 87.2591 1309.86 89.0007 1301.35 91.2539C1292.55 93.577 1290.27 99.845 1289.62 100.379C1288.97 100.913 1288.1 100.707 1287.67 99.6424C1287.26 98.578 1281.4 93.2788 1280.52 92.4459C1279.64 91.613 1278.47 89.1729 1278.52 87.7273C1276.18 85.5213 1269.12 84.7613 1269.26 80.68C1269.35 77.8681 1275.17 76.203 1277.01 75.4356C1278.11 74.9789 1279.75 74.24 1281.17 72.7525C1284.92 68.8289 1281.56 71.4773 1280.89 72.1517C1280.38 72.6641 1279.99 73.0216 1279.99 73.0216C1278.26 67.2265 1288.37 63.6066 1289.09 62.6073C1289.54 61.9872 1290.33 60.9638 1291.41 62.6858C1292 63.6503 1295.64 70.7804 1300.92 72.1154C1306.2 73.4416 1314.37 74.5036 1314.12 81.7055L1314.13 81.6969Z" stroke="#FEF6E2" stroke-width="2.96957" stroke-miterlimit="10"/>
<path d="M1314.13 81.6968C1313.94 87.2591 1309.86 89.0007 1301.35 91.2539C1292.55 93.577 1290.27 99.8449 1289.62 100.379C1288.98 100.913 1288.1 100.707 1287.68 99.6423C1287.26 98.578 1281.4 93.2788 1280.52 92.4459C1279.64 91.613 1278.47 89.173 1278.52 87.7273C1276.19 85.5213 1269.12 84.7614 1269.26 80.68C1269.36 77.868 1275.17 76.203 1277.01 75.4357C1278.66 74.7503 1281.61 73.4733 1282.92 69.8201C1282.09 71.0891 1279.99 73.0304 1279.99 73.0304C1278.26 67.2353 1288.37 63.6154 1289.09 62.616C1289.55 61.996 1290.34 60.9726 1291.41 62.6946C1292.01 63.6591 1295.64 70.7892 1300.92 72.1242C1306.2 73.4504 1314.37 74.5124 1314.12 81.7142L1314.13 81.6968Z" fill="#220D4E"/>
<path d="M1306 77.9008C1308.43 78.989 1308.12 81.176 1305.06 80.1986C1301.79 79.1614 1302.54 76.3362 1306 77.9008Z" fill="#FEF6E2"/>
<path d="M1304.74 82.8786C1307.8 81.7028 1308.39 83.8318 1306.08 84.9805C1302.82 86.5996 1301.56 84.0948 1304.74 82.8786Z" fill="#FEF6E2"/>
<path d="M1255.01 79.694C1254.82 85.2562 1250.74 86.9977 1242.23 89.251C1233.43 91.5741 1231.15 97.842 1230.5 98.3761C1229.85 98.9102 1228.98 98.704 1228.56 97.6395C1228.14 96.5753 1222.28 91.2759 1221.4 90.443C1220.51 89.6098 1219.35 87.17 1219.4 85.7244C1217.06 83.5183 1210 82.7584 1210.14 78.6771C1210.23 75.8651 1216.05 74.2 1217.89 73.4327C1218.99 72.976 1220.63 72.237 1222.05 70.7496C1225.8 66.8258 1222.44 69.4744 1221.77 70.1488C1221.26 70.6611 1220.86 71.0184 1220.86 71.0184C1219.13 65.2233 1229.24 61.6034 1229.97 60.6043C1230.42 59.984 1231.21 58.9609 1232.29 60.6829C1232.89 61.6473 1236.51 68.7772 1241.79 70.1122C1247.08 71.4387 1255.24 72.5004 1255 79.7023L1255.01 79.694Z" stroke="#FEF6E2" stroke-width="2.96957" stroke-miterlimit="10"/>
<path d="M1255.01 79.6939C1254.82 85.2562 1250.74 86.9978 1242.23 89.251C1233.43 91.5741 1231.15 97.842 1230.5 98.3761C1229.86 98.9101 1228.98 98.704 1228.56 97.6394C1228.14 96.5753 1222.28 91.2759 1221.4 90.4429C1220.52 89.6098 1219.35 87.17 1219.4 85.7244C1217.07 83.5184 1210 82.7584 1210.14 78.6771C1210.24 75.8651 1216.05 74.2001 1217.89 73.4327C1219.54 72.7474 1222.48 71.4702 1223.8 67.8171C1222.97 69.0862 1220.86 71.0272 1220.86 71.0272C1219.13 65.2322 1229.24 61.6122 1229.97 60.6131C1230.42 59.9929 1231.21 58.9696 1232.29 60.6916C1232.89 61.6562 1236.51 68.7861 1241.79 70.1211C1247.08 71.4475 1255.24 72.5092 1255 79.7111L1255.01 79.6939Z" fill="#220D4E"/>
<path d="M1246.87 75.8969C1249.29 76.9851 1248.99 79.1721 1245.92 78.1947C1242.66 77.1575 1243.41 74.3323 1246.87 75.8969Z" fill="#FEF6E2"/>
<path d="M1245.6 80.8757C1248.67 79.6999 1249.26 81.8289 1246.95 82.9776C1243.69 84.5967 1242.43 82.0919 1245.6 80.8757Z" fill="#FEF6E2"/>
<path d="M1195.88 77.691C1195.69 83.2532 1191.61 84.9948 1183.1 87.2481C1174.3 89.5711 1172.02 95.8391 1171.37 96.3732C1170.72 96.9072 1169.85 96.7011 1169.42 95.6365C1169 94.5719 1163.15 89.2729 1162.27 88.4401C1161.38 87.6069 1160.22 85.1671 1160.27 83.7215C1157.93 81.5154 1150.87 80.7555 1151.01 76.6741C1151.1 73.8622 1156.92 72.1971 1158.76 71.4298C1159.86 70.973 1161.5 70.2341 1162.92 68.7466C1166.66 64.8228 1163.31 67.4715 1162.64 68.1459C1162.13 68.6582 1161.73 69.0155 1161.73 69.0155C1160 63.2204 1170.11 59.6005 1170.84 58.6014C1171.29 57.9811 1172.08 56.958 1173.16 58.6799C1173.75 59.6444 1177.38 66.7743 1182.66 68.1093C1187.95 69.4357 1196.11 70.4975 1195.86 77.6994L1195.88 77.691Z" stroke="#FEF6E2" stroke-width="2.96957" stroke-miterlimit="10"/>
<path d="M1195.88 77.691C1195.69 83.2533 1191.61 84.9948 1183.1 87.248C1174.3 89.5712 1172.02 95.8391 1171.37 96.3731C1170.72 96.9072 1169.85 96.7011 1169.42 95.6365C1169 94.5719 1163.15 89.273 1162.27 88.44C1161.38 87.6069 1160.22 85.1671 1160.27 83.7215C1157.93 81.5154 1150.87 80.7555 1151.01 76.6742C1151.1 73.8622 1156.92 72.1971 1158.76 71.4298C1160.41 70.7445 1163.35 69.4675 1164.67 65.8142C1163.83 67.0833 1161.73 69.0243 1161.73 69.0243C1160 63.2293 1170.11 59.6093 1170.84 58.6102C1171.29 57.9899 1172.08 56.9667 1173.16 58.6887C1173.75 59.6532 1177.38 66.7831 1182.66 68.1181C1187.95 69.4446 1196.11 70.5063 1195.86 77.7081L1195.88 77.691Z" fill="#220D4E"/>
<path d="M1187.75 73.8951C1190.16 74.9831 1189.86 77.1702 1186.79 76.1927C1183.53 75.1555 1184.28 72.3303 1187.75 73.8951Z" fill="#FEF6E2"/>
<path d="M1186.47 78.8727C1189.53 77.697 1190.12 79.826 1187.82 80.9747C1184.55 82.5938 1183.29 80.089 1186.47 78.8727Z" fill="#FEF6E2"/>
<path d="M1136.74 75.6881C1136.55 81.2503 1132.47 82.9919 1123.96 85.2451C1115.16 87.5682 1112.88 93.8362 1112.23 94.3702C1111.59 94.9043 1110.71 94.6981 1110.29 93.6336C1109.86 92.569 1104.02 87.27 1103.13 86.4371C1102.25 85.6042 1101.09 83.1642 1101.13 81.7185C1098.8 79.5125 1091.73 78.7526 1091.87 74.6712C1091.97 71.8593 1097.78 70.1942 1099.62 69.4269C1100.73 68.9701 1102.36 68.2312 1103.78 66.7437C1107.54 62.8202 1104.17 65.4686 1103.5 66.1429C1102.99 66.6553 1102.6 67.0128 1102.6 67.0128C1100.87 61.2177 1110.98 57.5976 1111.7 56.5985C1112.15 55.9782 1112.95 54.955 1114.02 56.677C1114.62 57.6415 1118.24 64.7714 1123.53 66.1066C1128.81 67.4328 1136.98 68.4948 1136.74 75.6967L1136.74 75.6881Z" stroke="#FEF6E2" stroke-width="2.96957" stroke-miterlimit="10"/>
<path d="M1136.74 75.6881C1136.55 81.2503 1132.48 82.9919 1123.96 85.2451C1115.16 87.5682 1112.88 93.8361 1112.23 94.3702C1111.59 94.9043 1110.71 94.6982 1110.29 93.6336C1109.86 92.569 1104.02 87.27 1103.14 86.4371C1102.25 85.6042 1101.09 83.1642 1101.13 81.7186C1098.8 79.5125 1091.73 78.7526 1091.87 74.6712C1091.97 71.8592 1097.78 70.1942 1099.62 69.4269C1101.27 68.7415 1104.22 67.4645 1105.53 63.8113C1104.7 65.0803 1102.6 67.0216 1102.6 67.0216C1100.87 61.2266 1110.98 57.6064 1111.7 56.6073C1112.15 55.987 1112.95 54.9638 1114.02 56.6858C1114.62 57.6503 1118.24 64.7802 1123.53 66.1155C1128.81 67.4416 1136.98 68.5036 1136.74 75.7054L1136.74 75.6881Z" fill="#220D4E"/>
<path d="M1128.61 71.8922C1131.04 72.9804 1130.73 75.1675 1127.66 74.1898C1124.4 73.1526 1125.14 70.3274 1128.61 71.8922Z" fill="#FEF6E2"/>
<path d="M1127.34 76.8707C1130.42 75.6952 1131 77.8241 1128.69 78.9726C1125.43 80.5917 1124.18 78.0872 1127.34 76.8707Z" fill="#FEF6E2"/>
<path d="M298.968 47.3111C298.779 52.8733 294.701 54.6149 286.185 56.8681C277.388 59.1912 275.106 65.4592 274.458 65.9932C273.81 66.5272 272.937 66.3211 272.513 65.2566C272.09 64.1921 266.24 58.893 265.358 58.0601C264.477 57.2271 263.309 54.7871 263.358 53.3415C261.023 51.1355 253.96 50.3756 254.099 46.2943C254.194 43.4823 260.009 41.8171 261.845 41.0498C262.95 40.593 264.585 39.8542 266.005 38.3667C269.758 34.4431 266.398 37.0915 265.726 37.7659C265.218 38.2783 264.827 38.6357 264.827 38.6357C263.093 32.8406 273.204 29.2206 273.928 28.2215C274.379 27.6013 275.173 26.578 276.245 28.2999C276.842 29.2644 280.47 36.3944 285.754 37.7295C291.038 39.0558 299.201 40.1177 298.957 47.3196L298.968 47.3111Z" stroke="#FEF6E2" stroke-width="2.97" stroke-miterlimit="10"/>
<path d="M298.97 47.3111C298.781 52.8733 294.703 54.6149 286.188 56.8681C277.39 59.1912 275.108 65.4591 274.46 65.9931C273.812 66.5272 272.939 66.3211 272.515 65.2566C272.092 64.192 266.242 58.893 265.36 58.06C264.479 57.2271 263.312 54.7871 263.36 53.3415C261.025 51.1355 253.963 50.3756 254.101 46.2943C254.196 43.4823 260.011 41.8172 261.847 41.0498C263.5 40.3645 266.443 39.0875 267.756 35.4342C266.924 36.7033 264.829 38.6445 264.829 38.6445C263.095 32.8494 273.206 29.2295 273.93 28.2302C274.381 27.6101 275.175 26.5868 276.247 28.3087C276.844 29.2732 280.472 36.4033 285.756 37.7384C291.04 39.0646 299.203 40.1265 298.959 47.3284L298.97 47.3111Z" fill="#220D4E"/>
<path d="M290.837 43.5142C293.259 44.6023 292.955 46.7894 289.889 45.8119C286.624 44.7746 287.37 41.9495 290.837 43.5142Z" fill="#FEF6E2"/>
<path d="M289.57 48.4928C292.639 47.3171 293.227 49.4462 290.919 50.5948C287.654 52.2139 286.399 49.7091 289.57 48.4928Z" fill="#FEF6E2"/>
<path d="M358.1 49.315C357.912 54.8772 353.834 56.6188 345.318 58.872C336.521 61.1951 334.239 67.4631 333.591 67.9971C332.943 68.5311 332.071 68.325 331.647 67.2605C331.223 66.196 325.373 60.8969 324.491 60.064C323.609 59.231 322.442 56.791 322.491 55.3454C320.157 53.1394 313.093 52.3795 313.231 48.2982C313.327 45.4862 319.143 43.8211 320.978 43.0537C322.083 42.5969 323.718 41.8581 325.138 40.3706C328.891 36.447 325.532 39.0955 324.859 39.7698C324.351 40.2822 323.96 40.6396 323.96 40.6396C322.226 34.8445 332.337 31.2245 333.061 30.2254C333.511 29.6052 334.306 28.582 335.377 30.3038C335.975 31.2683 339.603 38.3984 344.887 39.7334C350.172 41.0597 358.334 42.1216 358.09 49.3235L358.1 49.315Z" stroke="#FEF6E2" stroke-width="2.96957" stroke-miterlimit="10"/>
<path d="M358.101 49.314C357.912 54.8763 353.834 56.6179 345.319 58.871C336.521 61.1941 334.239 67.462 333.591 67.9961C332.943 68.5301 332.071 68.3241 331.647 67.2595C331.223 66.195 325.373 60.8959 324.491 60.0629C323.61 59.23 322.442 56.7901 322.491 55.3444C320.157 53.1385 313.094 52.3786 313.232 48.2972C313.327 45.4852 319.143 43.8201 320.978 43.0528C322.631 42.3675 325.574 41.0904 326.888 37.4372C326.055 38.7062 323.96 40.6474 323.96 40.6474C322.226 34.8524 332.337 31.2324 333.061 30.2332C333.511 29.613 334.306 28.5897 335.377 30.3116C335.975 31.2762 339.603 38.4062 344.887 39.7413C350.172 41.0676 358.334 42.1295 358.09 49.3313L358.101 49.314Z" fill="#220D4E"/>
<path d="M349.971 45.5171C352.394 46.6052 352.09 48.7923 349.024 47.8148C345.759 46.7776 346.505 43.9524 349.971 45.5171Z" fill="#FEF6E2"/>
<path d="M348.693 50.4957C351.762 49.3201 352.35 51.4492 350.041 52.5977C346.777 54.2168 345.522 51.7121 348.693 50.4957Z" fill="#FEF6E2"/>
<path d="M239.844 45.3091C239.656 50.8714 235.578 52.613 227.062 54.8662C218.266 57.1892 215.983 63.4572 215.335 63.9912C214.687 64.5253 213.815 64.3192 213.391 63.2547C212.967 62.1901 207.117 56.891 206.236 56.0581C205.354 55.2251 204.187 52.7852 204.236 51.3396C201.901 49.1336 194.837 48.3736 194.976 44.2923C195.071 41.4804 200.887 39.8152 202.722 39.0479C203.827 38.5911 205.462 37.8522 206.882 36.3647C210.635 32.4411 207.276 35.0896 206.603 35.764C206.095 36.2763 205.704 36.6337 205.704 36.6337C203.97 30.8387 214.081 27.2187 214.805 26.2195C215.256 25.5993 216.051 24.5761 217.122 26.298C217.72 27.2625 221.347 34.3925 226.631 35.7276C231.916 37.0538 240.078 38.1157 239.834 45.3176L239.844 45.3091Z" stroke="#FEF6E2" stroke-width="2.96957" stroke-miterlimit="10"/>
<path d="M239.845 45.3081C239.656 50.8704 235.578 52.612 227.063 54.8652C218.266 57.1883 215.984 63.4562 215.336 63.9902C214.688 64.5243 213.815 64.3182 213.391 63.2537C212.967 62.1891 207.117 56.8901 206.236 56.0571C205.354 55.2242 204.187 52.7842 204.236 51.3386C201.901 49.1326 194.838 48.3727 194.976 44.2913C195.071 41.4794 200.887 39.8143 202.722 39.0469C204.375 38.3616 207.318 37.0845 208.632 33.4313C207.799 34.7004 205.704 36.6416 205.704 36.6416C203.97 30.8465 214.081 27.2265 214.805 26.2273C215.256 25.6072 216.051 24.5839 217.122 26.3058C217.72 27.2703 221.347 34.4003 226.631 35.7354C231.916 37.0617 240.078 38.1236 239.834 45.3254L239.845 45.3081Z" fill="#220D4E"/>
<path d="M231.704 41.5112C234.126 42.5994 233.822 44.7865 230.756 43.809C227.492 42.7717 228.237 39.9465 231.704 41.5112Z" fill="#FEF6E2"/>
<path d="M230.435 46.4899C233.505 45.3142 234.092 47.4433 231.784 48.5918C228.519 50.2109 227.264 47.7062 230.435 46.4899Z" fill="#FEF6E2"/>
<path d="M180.71 43.3052C180.521 48.8675 176.442 50.609 167.928 52.8623C159.13 55.1853 156.848 61.4533 156.2 61.9873C155.552 62.5214 154.679 62.3152 154.255 61.2507C153.831 60.1862 147.982 54.8871 147.1 54.0542C146.219 53.2212 145.051 50.7813 145.1 49.3356C142.765 47.1297 135.703 46.3697 135.841 42.2884C135.936 39.4765 141.751 37.8113 143.587 37.0439C144.693 36.5872 146.327 35.8483 147.747 34.3608C151.5 30.4372 148.14 33.0857 147.468 33.7601C146.961 34.2724 146.568 34.6298 146.568 34.6298C144.835 28.8347 154.946 25.2147 155.67 24.2156C156.121 23.5954 156.915 22.5722 157.987 24.2941C158.584 25.2586 162.212 32.3886 167.496 33.7236C172.78 35.0499 180.943 36.1118 180.699 43.3137L180.71 43.3052Z" stroke="#FEF6E2" stroke-width="2.96957" stroke-miterlimit="10"/>
<path d="M180.71 43.3052C180.522 48.8675 176.443 50.6091 167.928 52.8622C159.13 55.1853 156.849 61.4533 156.201 61.9873C155.553 62.5213 154.68 62.3153 154.256 61.2507C153.832 60.1861 147.983 54.8872 147.1 54.0542C146.219 53.2212 145.052 50.7813 145.101 49.3356C142.766 47.1297 135.703 46.3698 135.841 42.2884C135.936 39.4764 141.751 37.8113 143.587 37.044C145.24 36.3587 148.183 35.0816 149.497 31.4284C148.664 32.6974 146.568 34.6386 146.568 34.6386C144.835 28.8436 154.946 25.2236 155.67 24.2244C156.121 23.6042 156.915 22.581 157.987 24.3029C158.584 25.2674 162.212 32.3974 167.496 33.7325C172.78 35.0587 180.943 36.1206 180.699 43.3225L180.71 43.3052Z" fill="#220D4E"/>
<path d="M172.579 39.5083C175.001 40.5964 174.698 42.7835 171.631 41.806C168.367 40.7688 169.112 37.9436 172.579 39.5083Z" fill="#FEF6E2"/>
<path d="M171.302 44.4869C174.371 43.3113 174.959 45.4403 172.651 46.5889C169.386 48.208 168.132 45.7033 171.302 44.4869Z" fill="#FEF6E2"/>
<path d="M121.587 41.3023C121.398 46.8645 117.32 48.6061 108.805 50.8594C100.008 53.1824 97.7254 59.4504 97.0774 59.9844C96.4294 60.5184 95.5569 60.3123 95.1329 59.2478C94.7089 58.1833 88.8592 52.8842 87.9778 52.0513C87.0958 51.2183 85.9284 48.7783 85.9774 47.3327C83.6429 45.1267 76.5795 44.3668 76.7178 40.2855C76.813 37.4735 82.6288 35.8084 84.4642 35.041C85.5696 34.5842 87.2047 33.8454 88.6246 32.3579C92.3769 28.4343 89.0174 31.0827 88.3451 31.7571C87.8376 32.2695 87.4459 32.6269 87.4459 32.6269C85.7119 26.8318 95.8236 23.2118 96.5468 22.2127C96.9977 21.5925 97.7923 20.5693 98.8638 22.2911C99.461 23.2556 103.089 30.3857 108.373 31.7207C113.657 33.047 121.821 34.1089 121.577 41.3108L121.587 41.3023Z" stroke="#FEF6E2" stroke-width="2.96957" stroke-miterlimit="10"/>
<path d="M121.587 41.3023C121.399 46.8646 117.32 48.6061 108.805 50.8593C100.008 53.1824 97.7257 59.4503 97.0777 59.9844C96.4297 60.5184 95.5572 60.3124 95.1332 59.2478C94.7092 58.1832 88.8595 52.8842 87.9781 52.0512C87.0961 51.2183 85.9287 48.7783 85.9777 47.3327C83.6432 45.1268 76.5798 44.3668 76.7181 40.2855C76.8133 37.4735 82.6291 35.8084 84.4644 35.041C86.1173 34.3557 89.0605 33.0787 90.3742 29.4255C89.5412 30.6945 87.4459 32.6357 87.4459 32.6357C85.7119 26.8406 95.8236 23.2207 96.5468 22.2214C96.9977 21.6013 97.7923 20.578 98.8638 22.2999C99.461 23.2645 103.089 30.3945 108.373 31.7296C113.657 33.0558 121.821 34.1177 121.577 41.3196L121.587 41.3023Z" fill="#220D4E"/>
<path d="M113.448 37.5054C115.871 38.5935 115.567 40.7806 112.5 39.8031C109.236 38.7659 109.981 35.9406 113.448 37.5054Z" fill="#FEF6E2"/>
<path d="M112.177 42.485C115.247 41.3093 115.835 43.4384 113.526 44.5869C110.261 46.206 109.007 43.7013 112.177 42.485Z" fill="#FEF6E2"/>
<path d="M62.4541 39.3004C62.2657 44.8626 58.1871 46.6042 49.672 48.8574C40.8746 51.1804 38.5926 57.4484 37.9446 57.9824C37.2966 58.5165 36.4237 58.3104 35.9998 57.2459C35.5859 56.1816 29.7265 50.8822 28.8448 50.0493C27.9631 49.2163 26.7959 46.7764 26.8449 45.3308C24.51 43.1248 17.4467 42.3649 17.585 38.2835C17.6802 35.4716 23.4957 33.8064 25.3315 33.0391C26.4367 32.5823 28.0716 31.8434 29.4918 30.3559C33.2442 26.4323 29.8849 29.0808 29.2122 29.7552C28.7049 30.2675 28.3129 30.6249 28.3129 30.6249C26.5794 24.8299 36.6906 21.2099 37.4143 20.2107C37.8652 19.5905 38.6599 18.5673 39.7313 20.2892C40.3286 21.2537 43.9565 28.3837 49.2405 29.7188C54.5248 31.045 62.6879 32.107 62.444 39.3088L62.4541 39.3004Z" stroke="#FEF6E2" stroke-width="3.97" stroke-miterlimit="10"/>
<path d="M62.4544 39.2993C62.266 44.8616 58.1874 46.6032 49.6723 48.8564C40.8749 51.1795 38.5929 57.4474 37.9449 57.9814C37.2969 58.5155 36.424 58.3094 36.0001 57.2449C35.5862 56.1806 29.7267 50.8813 28.8451 50.0483C27.9634 49.2154 26.7962 46.7754 26.8451 45.3298C24.5103 43.1238 17.447 42.3639 17.5853 38.2826C17.6805 35.4706 23.496 33.8055 25.3318 33.0381C26.9847 32.3528 29.9277 31.0757 31.2412 27.4225C30.4084 28.6916 28.3129 30.6328 28.3129 30.6328C26.5794 24.8377 36.6906 21.2177 37.4143 20.2185C37.8652 19.5984 38.6599 18.5751 39.7313 20.297C40.3286 21.2615 43.9565 28.3916 49.2405 29.7266C54.5248 31.0529 62.6879 32.1148 62.444 39.3166L62.4544 39.2993Z" fill="#220D4E"/>
<path d="M54.323 35.5034C56.7458 36.5916 56.4417 38.7787 53.3752 37.8011C50.1109 36.7639 50.8565 33.9387 54.323 35.5034Z" fill="#FEF6E2"/>
<path d="M53.0464 40.4821C56.1158 39.3064 56.7035 41.4355 54.3949 42.584C51.1306 44.2031 49.8757 41.6984 53.0464 40.4821Z" fill="#FEF6E2"/>
<path d="M659.89 59.5367C659.702 65.0989 655.623 66.8405 647.108 69.0938C638.311 71.4168 636.029 77.6848 635.381 78.2188C634.733 78.7528 633.86 78.5467 633.436 77.4822C633.012 76.4176 627.163 71.1186 626.281 70.2857C625.399 69.4527 624.232 67.0127 624.281 65.5671C621.946 63.3611 614.882 62.6012 615.021 58.5198C615.116 55.7079 620.932 54.0428 622.768 53.2754C623.873 52.8186 625.507 52.0798 626.927 50.5923C630.68 46.6687 627.321 49.3171 626.648 49.9915C626.141 50.5039 625.749 50.8613 625.749 50.8613C624.015 45.0662 634.126 41.4462 634.85 40.4471C635.301 39.8269 636.096 38.8037 637.167 40.5255C637.764 41.49 641.393 48.6201 646.676 49.9551C651.961 51.2814 660.123 52.3433 659.879 59.5452L659.89 59.5367Z" stroke="#FEF6E2" stroke-width="2.96957" stroke-miterlimit="10"/>
<path d="M659.89 59.5367C659.702 65.099 655.623 66.8405 647.108 69.0937C638.311 71.4168 636.029 77.6847 635.381 78.2188C634.733 78.7528 633.86 78.5467 633.436 77.4822C633.012 76.4176 627.163 71.1186 626.281 70.2856C625.4 69.4527 624.232 67.0127 624.281 65.5671C621.946 63.3611 614.883 62.6012 615.021 58.5199C615.116 55.7079 620.932 54.0428 622.768 53.2754C624.421 52.5901 627.363 51.313 628.677 47.6598C627.844 48.9289 625.749 50.8701 625.749 50.8701C624.015 45.075 634.126 41.455 634.85 40.4558C635.301 39.8357 636.096 38.8124 637.167 40.5343C637.764 41.4989 641.393 48.6289 646.676 49.9639C651.961 51.2902 660.123 52.3521 659.879 59.5539L659.89 59.5367Z" fill="#220D4E"/>
<path d="M651.76 55.7397C654.184 56.8279 653.879 59.015 650.813 58.0375C647.549 57.0002 648.294 54.175 651.76 55.7397Z" fill="#FEF6E2"/>
<path d="M650.482 60.7184C653.551 59.5427 654.139 61.6718 651.831 62.8203C648.566 64.4394 647.311 61.9347 650.482 60.7184Z" fill="#FEF6E2"/>
<path d="M719.014 61.5386C718.825 67.1008 714.746 68.8424 706.232 71.0957C697.435 73.4187 695.153 79.6867 694.506 80.2208C693.858 80.7548 692.985 80.5487 692.559 79.4841C692.134 78.4195 686.287 73.1205 685.405 72.2876C684.524 71.4546 683.356 69.0147 683.405 67.569C681.07 65.3631 674.007 64.6031 674.146 60.5218C674.241 57.7099 680.056 56.0447 681.892 55.2773C682.997 54.8206 684.632 54.0817 686.052 52.5942C689.807 48.6707 686.445 51.3191 685.772 51.9934C685.265 52.5058 684.873 52.8632 684.873 52.8632C683.14 47.0681 693.249 43.4481 693.975 42.449C694.429 41.8289 695.219 40.8055 696.293 42.5275C696.889 43.492 700.514 50.6219 705.803 51.9571C711.086 53.2833 719.25 54.3453 719.006 61.5472L719.014 61.5386Z" stroke="#FEF6E2" stroke-width="2.96957" stroke-miterlimit="10"/>
<path d="M719.014 61.5386C718.826 67.1009 714.747 68.8424 706.232 71.0956C697.435 73.4187 695.153 79.6867 694.506 80.2207C693.859 80.7548 692.985 80.5487 692.56 79.4841C692.134 78.4195 686.287 73.1206 685.405 72.2876C684.524 71.4546 683.356 69.0147 683.405 67.569C681.07 65.3631 674.008 64.6032 674.146 60.5218C674.241 57.7098 680.056 56.0447 681.892 55.2774C683.545 54.5921 686.488 53.315 687.801 49.6618C686.968 50.9308 684.873 52.872 684.873 52.872C683.14 47.077 693.249 43.4569 693.975 42.4578C694.429 41.8378 695.219 40.8143 696.293 42.5363C696.889 43.5008 700.514 50.6307 705.803 51.966C711.086 53.2922 719.25 54.3541 719.006 61.556L719.014 61.5386Z" fill="#220D4E"/>
<path d="M710.885 57.7418C713.309 58.83 713.005 61.0171 709.934 60.0394C706.669 59.0022 707.415 56.177 710.885 57.7418Z" fill="#FEF6E2"/>
<path d="M709.609 62.7212C712.683 61.5457 713.268 63.6747 710.963 64.8234C707.693 66.4423 706.442 63.9377 709.609 62.7212Z" fill="#FEF6E2"/>
<path d="M600.757 57.5337C600.568 63.096 596.49 64.8376 587.975 67.0908C579.178 69.4139 576.895 75.6818 576.247 76.2158C575.599 76.7499 574.727 76.5438 574.303 75.4793C573.879 74.4147 568.029 69.1156 567.148 68.2827C566.266 67.4497 565.099 65.0098 565.148 63.5642C562.813 61.3582 555.749 60.5983 555.888 56.5169C555.983 53.705 561.799 52.0398 563.635 51.2725C564.74 50.8157 566.375 50.0768 567.795 48.5893C571.548 44.6657 568.188 47.3142 567.515 47.9886C567.008 48.5009 566.616 48.8583 566.616 48.8583C564.883 43.0633 574.994 39.4433 575.717 38.4441C576.168 37.8239 576.963 36.8007 578.034 38.5226C578.632 39.4871 582.26 46.6171 587.543 47.9522C592.828 49.2784 600.99 50.3403 600.747 57.5422L600.757 57.5337Z" stroke="#FEF6E2" stroke-width="2.96957" stroke-miterlimit="10"/>
<path d="M600.757 57.5337C600.569 63.096 596.49 64.8376 587.975 67.0908C579.178 69.4139 576.896 75.6818 576.248 76.2158C575.6 76.7498 574.727 76.5438 574.303 75.4792C573.879 74.4147 568.029 69.1157 567.148 68.2827C566.266 67.4498 565.099 65.0098 565.148 63.5642C562.813 61.3582 555.75 60.5983 555.888 56.5169C555.983 53.7049 561.799 52.0399 563.635 51.2725C565.288 50.5872 568.23 49.3101 569.544 45.6569C568.711 46.926 566.616 48.8672 566.616 48.8672C564.883 43.0721 574.994 39.4521 575.717 38.4529C576.168 37.8328 576.963 36.8095 578.034 38.5314C578.632 39.4959 582.26 46.626 587.543 47.961C592.828 49.2873 600.99 50.3492 600.747 57.551L600.757 57.5337Z" fill="#220D4E"/>
<path d="M592.626 53.7378C595.048 54.8259 594.744 57.013 591.678 56.0355C588.413 54.9983 589.159 52.1731 592.626 53.7378Z" fill="#FEF6E2"/>
<path d="M591.347 58.7145C594.416 57.5388 595.004 59.6679 592.696 60.8165C589.432 62.4355 588.176 59.9308 591.347 58.7145Z" fill="#FEF6E2"/>
<path d="M541.633 55.5298C541.444 61.092 537.366 62.8336 528.851 65.0869C520.054 67.4099 517.772 73.6779 517.124 74.2119C516.476 74.746 515.603 74.5398 515.179 73.4753C514.766 72.4111 508.905 67.1117 508.024 66.2788C507.143 65.4458 505.975 63.0059 506.024 61.5602C503.689 59.3543 496.626 58.5943 496.765 54.513C496.86 51.7011 502.675 50.0359 504.511 49.2686C505.616 48.8118 507.251 48.0729 508.671 46.5854C512.424 42.6618 509.064 45.3103 508.391 45.9847C507.885 46.497 507.492 46.8544 507.492 46.8544C505.759 41.0594 515.87 37.4394 516.594 36.4402C517.045 35.82 517.839 34.7968 518.911 36.5187C519.508 37.4832 523.136 44.6132 528.42 45.9482C533.704 47.2745 541.867 48.3364 541.623 55.5383L541.633 55.5298Z" stroke="#FEF6E2" stroke-width="2.96957" stroke-miterlimit="10"/>
<path d="M541.631 55.5308C541.443 61.093 537.365 62.8346 528.85 65.0878C520.052 67.4109 517.77 73.6788 517.122 74.2129C516.474 74.7469 515.601 74.5408 515.177 73.4763C514.764 72.4121 508.904 67.1127 508.022 66.2797C507.141 65.4468 505.974 63.0069 506.023 61.5612C503.687 59.3553 496.625 58.5953 496.763 54.514C496.858 51.702 502.673 50.0369 504.509 49.2696C506.162 48.5842 509.105 47.3072 510.418 43.654C509.585 44.923 507.49 46.8642 507.49 46.8642C505.757 41.0692 515.868 37.4492 516.592 36.45C517.043 35.8298 517.837 34.8065 518.909 36.5284C519.506 37.493 523.134 44.623 528.418 45.9581C533.702 47.2843 541.865 48.3462 541.621 55.5481L541.631 55.5308Z" fill="#220D4E"/>
<path d="M533.493 51.7329C535.916 52.821 535.611 55.0081 532.545 54.0306C529.281 52.9934 530.027 50.1682 533.493 51.7329Z" fill="#FEF6E2"/>
<path d="M532.224 56.7125C535.294 55.5369 535.882 57.666 533.573 58.8145C530.308 60.4336 529.054 57.9289 532.224 56.7125Z" fill="#FEF6E2"/>
<path d="M482.499 53.5279C482.31 59.0901 478.231 60.8317 469.717 63.0849C460.919 65.408 458.638 71.676 457.99 72.21C457.342 72.744 456.468 72.5379 456.044 71.4734C455.62 70.4088 449.771 65.1098 448.889 64.2768C448.008 63.4439 446.841 61.0039 446.889 59.5583C444.554 57.3523 437.492 56.5924 437.63 52.5111C437.725 49.6991 443.54 48.0339 445.376 47.2666C446.482 46.8098 448.116 46.071 449.537 44.5835C453.289 40.6599 449.93 43.3083 449.257 43.9827C448.75 44.4951 448.357 44.8524 448.357 44.8524C446.624 39.0574 456.735 35.4374 457.459 34.4383C457.91 33.8181 458.704 32.7948 459.776 34.5167C460.373 35.4812 464.001 42.6112 469.285 43.9463C474.569 45.2726 482.732 46.3345 482.488 53.5363L482.499 53.5279Z" stroke="#FEF6E2" stroke-width="2.96957" stroke-miterlimit="10"/>
<path d="M482.499 53.5278C482.311 59.0901 478.232 60.8317 469.717 63.0849C460.92 65.408 458.638 71.6759 457.99 72.2099C457.342 72.744 456.469 72.5379 456.045 71.4734C455.621 70.4088 449.772 65.1098 448.89 64.2768C448.008 63.4439 446.841 61.0039 446.89 59.5583C444.555 57.3523 437.492 56.5924 437.63 52.5111C437.725 49.6991 443.541 48.034 445.377 47.2666C447.029 46.5813 449.972 45.3042 451.286 41.651C450.453 42.9201 448.357 44.8613 448.357 44.8613C446.624 39.0662 456.735 35.4462 457.459 34.447C457.91 33.8269 458.704 32.8036 459.776 34.5255C460.373 35.49 464.001 42.6201 469.285 43.9551C474.569 45.2814 482.732 46.3433 482.488 53.5451L482.499 53.5278Z" fill="#220D4E"/>
<path d="M474.37 49.7309C476.793 50.8191 476.488 53.0062 473.422 52.0287C470.158 50.9914 470.903 48.1662 474.37 49.7309Z" fill="#FEF6E2"/>
<path d="M473.091 54.7096C476.161 53.5339 476.749 55.663 474.44 56.8116C471.175 58.4306 469.921 55.926 473.091 54.7096Z" fill="#FEF6E2"/>
<path d="M423.364 51.524C423.176 57.0862 419.097 58.8278 410.583 61.0811C401.785 63.4041 399.503 69.6721 398.855 70.2061C398.207 70.7401 397.334 70.534 396.91 69.4695C396.486 68.405 390.637 63.1059 389.755 62.273C388.874 61.44 387.706 59 387.755 57.5544C385.42 55.3484 378.357 54.5885 378.495 50.5071C378.59 47.6952 384.406 46.0301 386.242 45.2627C387.347 44.8059 388.982 44.0671 390.402 42.5796C394.155 38.656 390.795 41.3045 390.122 41.9788C389.616 42.4912 389.223 42.8486 389.223 42.8486C387.49 37.0535 397.601 33.4335 398.325 32.4344C398.776 31.8142 399.57 30.791 400.642 32.5129C401.239 33.4773 404.867 40.6074 410.151 41.9424C415.435 43.2687 423.598 44.3306 423.354 51.5325L423.364 51.524Z" stroke="#FEF6E2" stroke-width="2.96957" stroke-miterlimit="10"/>
<path d="M423.366 51.5249C423.178 57.0872 419.1 58.8288 410.585 61.082C401.787 63.4051 399.506 69.673 398.858 70.207C398.21 70.7411 397.336 70.535 396.913 69.4705C396.489 68.4059 390.639 63.1069 389.757 62.2739C388.876 61.441 387.709 59.001 387.758 57.5554C385.423 55.3494 378.359 54.5895 378.497 50.5081C378.593 47.6962 384.408 46.0311 386.244 45.2637C387.897 44.5784 390.84 43.3013 392.153 39.6481C391.321 40.9172 389.225 42.8584 389.225 42.8584C387.492 37.0633 397.603 33.4433 398.327 32.4441C398.778 31.824 399.572 30.8007 400.644 32.5226C401.241 33.4871 404.869 40.6172 410.153 41.9522C415.437 43.2785 423.6 44.3404 423.356 51.5422L423.366 51.5249Z" fill="#220D4E"/>
<path d="M415.235 47.728C417.658 48.8162 417.354 51.0033 414.288 50.0257C411.023 48.9885 411.769 46.1633 415.235 47.728Z" fill="#FEF6E2"/>
<path d="M413.968 52.7067C417.038 51.531 417.626 53.6601 415.317 54.8086C412.052 56.4277 410.798 53.923 413.968 52.7067Z" fill="#FEF6E2"/>
</g>
</svg>
