<svg width="1440" height="902" viewBox="0 0 1440 902" fill="none" xmlns="http://www.w3.org/2000/svg">
<g clip-path="url(#clip0_3882_22587)">
<path d="M72.0989 154.988C72.0388 154.426 71.5649 154 71 154C70.4351 154 69.9612 154.426 69.9011 154.988C69.7253 156.628 69.2238 157.738 68.4809 158.481C67.7379 159.224 66.6279 159.725 64.9875 159.901C64.4259 159.961 64 160.435 64 161C64 161.565 64.4259 162.039 64.9875 162.099C66.6279 162.275 67.7379 162.776 68.4809 163.519C69.2238 164.262 69.7253 165.372 69.9011 167.012C69.9612 167.574 70.4351 168 71 168C71.5649 168 72.0388 167.574 72.0989 167.012C72.2747 165.372 72.7762 164.262 73.5191 163.519C74.2621 162.776 75.3721 162.275 77.0125 162.099C77.5741 162.039 78 161.565 78 161C78 160.435 77.5741 159.961 77.0125 159.901C75.3721 159.725 74.2621 159.224 73.5191 158.481C72.7762 157.738 72.2747 156.628 72.0989 154.988Z" fill="white" fill-opacity="0.7"/>
<path d="M753.099 681.988C753.039 681.426 752.565 681 752 681C751.435 681 750.961 681.426 750.901 681.988C750.725 683.628 750.224 684.738 749.481 685.481C748.738 686.224 747.628 686.725 745.988 686.901C745.426 686.961 745 687.435 745 688C745 688.565 745.426 689.039 745.988 689.099C747.628 689.275 748.738 689.776 749.481 690.519C750.224 691.262 750.725 692.372 750.901 694.012C750.961 694.574 751.435 695 752 695C752.565 695 753.039 694.574 753.099 694.012C753.275 692.372 753.776 691.262 754.519 690.519C755.262 689.776 756.372 689.275 758.012 689.099C758.574 689.039 759 688.565 759 688C759 687.435 758.574 686.961 758.012 686.901C756.372 686.725 755.262 686.224 754.519 685.481C753.776 684.738 753.275 683.628 753.099 681.988Z" fill="white" fill-opacity="0.7"/>
<path d="M471.099 185.988C471.039 185.426 470.565 185 470 185C469.435 185 468.961 185.426 468.901 185.988C468.725 187.628 468.224 188.738 467.481 189.481C466.738 190.224 465.628 190.725 463.988 190.901C463.426 190.961 463 191.435 463 192C463 192.565 463.426 193.039 463.988 193.099C465.628 193.275 466.738 193.776 467.481 194.519C468.224 195.262 468.725 196.372 468.901 198.012C468.961 198.574 469.435 199 470 199C470.565 199 471.039 198.574 471.099 198.012C471.275 196.372 471.776 195.262 472.519 194.519C473.262 193.776 474.372 193.275 476.012 193.099C476.574 193.039 477 192.565 477 192C477 191.435 476.574 190.961 476.012 190.901C474.372 190.725 473.262 190.224 472.519 189.481C471.776 188.738 471.275 187.628 471.099 185.988Z" fill="white" fill-opacity="0.7"/>
<path d="M1304.1 684.988C1304.04 684.426 1303.56 684 1303 684C1302.44 684 1301.96 684.426 1301.9 684.988C1301.73 686.628 1301.22 687.738 1300.48 688.481C1299.74 689.224 1298.63 689.725 1296.99 689.901C1296.43 689.961 1296 690.435 1296 691C1296 691.565 1296.43 692.039 1296.99 692.099C1298.63 692.275 1299.74 692.776 1300.48 693.519C1301.22 694.262 1301.73 695.372 1301.9 697.012C1301.96 697.574 1302.44 698 1303 698C1303.56 698 1304.04 697.574 1304.1 697.012C1304.27 695.372 1304.78 694.262 1305.52 693.519C1306.26 692.776 1307.37 692.275 1309.01 692.099C1309.57 692.039 1310 691.565 1310 691C1310 690.435 1309.57 689.961 1309.01 689.901C1307.37 689.725 1306.26 689.224 1305.52 688.481C1304.78 687.738 1304.27 686.628 1304.1 684.988Z" fill="white" fill-opacity="0.7"/>
<path d="M1171.1 815.368C1171.04 814.807 1170.56 814.381 1170 814.381C1169.44 814.381 1168.96 814.807 1168.9 815.368C1168.73 817.009 1168.22 818.119 1167.48 818.862C1166.74 819.605 1165.63 820.106 1163.99 820.282C1163.43 820.342 1163 820.816 1163 821.381C1163 821.946 1163.43 822.42 1163.99 822.48C1165.63 822.656 1166.74 823.157 1167.48 823.9C1168.22 824.643 1168.73 825.753 1168.9 827.393C1168.96 827.955 1169.44 828.381 1170 828.381C1170.56 828.381 1171.04 827.955 1171.1 827.393C1171.27 825.753 1171.78 824.643 1172.52 823.9C1173.26 823.157 1174.37 822.656 1176.01 822.48C1176.57 822.42 1177 821.946 1177 821.381C1177 820.816 1176.57 820.342 1176.01 820.282C1174.37 820.106 1173.26 819.605 1172.52 818.862C1171.78 818.119 1171.27 817.009 1171.1 815.368Z" fill="white" fill-opacity="0.7"/>
<path d="M34.0989 436.988C34.0388 436.426 33.5649 436 33 436C32.4351 436 31.9612 436.426 31.9011 436.988C31.7253 438.628 31.2238 439.738 30.4809 440.481C29.7379 441.224 28.6279 441.725 26.9875 441.901C26.4259 441.961 26 442.435 26 443C26 443.565 26.4259 444.039 26.9875 444.099C28.6279 444.275 29.7379 444.776 30.4809 445.519C31.2238 446.262 31.7253 447.372 31.9011 449.012C31.9612 449.574 32.4351 450 33 450C33.5649 450 34.0388 449.574 34.0989 449.012C34.2747 447.372 34.7762 446.262 35.5191 445.519C36.2621 444.776 37.3721 444.275 39.0125 444.099C39.5741 444.039 40 443.565 40 443C40 442.435 39.5741 441.961 39.0125 441.901C37.3721 441.725 36.2621 441.224 35.5191 440.481C34.7762 439.738 34.2747 438.628 34.0989 436.988Z" fill="white" fill-opacity="0.7"/>
<path d="M66.8925 630.353C66.871 630.152 66.7017 630 66.5 630C66.2983 630 66.129 630.152 66.1075 630.353C66.0447 630.939 65.8656 631.335 65.6003 631.6C65.3349 631.866 64.9385 632.045 64.3527 632.108C64.1521 632.129 64 632.298 64 632.5C64 632.702 64.1521 632.871 64.3527 632.892C64.9385 632.955 65.3349 633.134 65.6003 633.4C65.8656 633.665 66.0447 634.061 66.1075 634.647C66.129 634.848 66.2983 635 66.5 635C66.7017 635 66.871 634.848 66.8925 634.647C66.9553 634.061 67.1344 633.665 67.3997 633.4C67.6651 633.134 68.0615 632.955 68.6473 632.892C68.8479 632.871 69 632.702 69 632.5C69 632.298 68.8479 632.129 68.6473 632.108C68.0615 632.045 67.6651 631.866 67.3997 631.6C67.1344 631.335 66.9553 630.939 66.8925 630.353Z" fill="white" fill-opacity="0.6"/>
<path d="M164.892 206.353C164.871 206.152 164.702 206 164.5 206C164.298 206 164.129 206.152 164.108 206.353C164.045 206.939 163.866 207.335 163.6 207.6C163.335 207.866 162.939 208.045 162.353 208.108C162.152 208.129 162 208.298 162 208.5C162 208.702 162.152 208.871 162.353 208.892C162.939 208.955 163.335 209.134 163.6 209.4C163.866 209.665 164.045 210.061 164.108 210.647C164.129 210.848 164.298 211 164.5 211C164.702 211 164.871 210.848 164.892 210.647C164.955 210.061 165.134 209.665 165.4 209.4C165.665 209.134 166.061 208.955 166.647 208.892C166.848 208.871 167 208.702 167 208.5C167 208.298 166.848 208.129 166.647 208.108C166.061 208.045 165.665 207.866 165.4 207.6C165.134 207.335 164.955 206.939 164.892 206.353Z" fill="white" fill-opacity="0.6"/>
<path d="M35.8925 57.3527C35.871 57.1521 35.7017 57 35.5 57C35.2983 57 35.129 57.1521 35.1075 57.3527C35.0447 57.9385 34.8656 58.3349 34.6003 58.6003C34.3349 58.8656 33.9385 59.0447 33.3527 59.1075C33.1521 59.129 33 59.2983 33 59.5C33 59.7017 33.1521 59.871 33.3527 59.8925C33.9385 59.9553 34.3349 60.1344 34.6003 60.3997C34.8656 60.6651 35.0447 61.0615 35.1075 61.6473C35.129 61.8479 35.2983 62 35.5 62C35.7017 62 35.871 61.8479 35.8925 61.6473C35.9553 61.0615 36.1344 60.6651 36.3997 60.3997C36.6651 60.1344 37.0615 59.9553 37.6473 59.8925C37.8479 59.871 38 59.7017 38 59.5C38 59.2983 37.8479 59.129 37.6473 59.1075C37.0615 59.0447 36.6651 58.8656 36.3997 58.6003C36.1344 58.3349 35.9553 57.9385 35.8925 57.3527Z" fill="white" fill-opacity="0.6"/>
<path d="M140.892 114.353C140.871 114.152 140.702 114 140.5 114C140.298 114 140.129 114.152 140.108 114.353C140.045 114.939 139.866 115.335 139.6 115.6C139.335 115.866 138.939 116.045 138.353 116.108C138.152 116.129 138 116.298 138 116.5C138 116.702 138.152 116.871 138.353 116.892C138.939 116.955 139.335 117.134 139.6 117.4C139.866 117.665 140.045 118.061 140.108 118.647C140.129 118.848 140.298 119 140.5 119C140.702 119 140.871 118.848 140.892 118.647C140.955 118.061 141.134 117.665 141.4 117.4C141.665 117.134 142.061 116.955 142.647 116.892C142.848 116.871 143 116.702 143 116.5C143 116.298 142.848 116.129 142.647 116.108C142.061 116.045 141.665 115.866 141.4 115.6C141.134 115.335 140.955 114.939 140.892 114.353Z" fill="white" fill-opacity="0.6"/>
<path d="M61.8925 717.353C61.871 717.152 61.7017 717 61.5 717C61.2983 717 61.129 717.152 61.1075 717.353C61.0447 717.939 60.8656 718.335 60.6003 718.6C60.3349 718.866 59.9385 719.045 59.3527 719.108C59.1521 719.129 59 719.298 59 719.5C59 719.702 59.1521 719.871 59.3527 719.892C59.9385 719.955 60.3349 720.134 60.6003 720.4C60.8656 720.665 61.0447 721.061 61.1075 721.647C61.129 721.848 61.2983 722 61.5 722C61.7017 722 61.871 721.848 61.8925 721.647C61.9553 721.061 62.1344 720.665 62.3997 720.4C62.6651 720.134 63.0615 719.955 63.6473 719.892C63.8479 719.871 64 719.702 64 719.5C64 719.298 63.8479 719.129 63.6473 719.108C63.0615 719.045 62.6651 718.866 62.3997 718.6C62.1344 718.335 61.9553 717.939 61.8925 717.353Z" fill="white" fill-opacity="0.6"/>
<path d="M1340.89 449.353C1340.87 449.152 1340.7 449 1340.5 449C1340.3 449 1340.13 449.152 1340.11 449.353C1340.04 449.939 1339.87 450.335 1339.6 450.6C1339.33 450.866 1338.94 451.045 1338.35 451.108C1338.15 451.129 1338 451.298 1338 451.5C1338 451.702 1338.15 451.871 1338.35 451.892C1338.94 451.955 1339.33 452.134 1339.6 452.4C1339.87 452.665 1340.04 453.061 1340.11 453.647C1340.13 453.848 1340.3 454 1340.5 454C1340.7 454 1340.87 453.848 1340.89 453.647C1340.96 453.061 1341.13 452.665 1341.4 452.4C1341.67 452.134 1342.06 451.955 1342.65 451.892C1342.85 451.871 1343 451.702 1343 451.5C1343 451.298 1342.85 451.129 1342.65 451.108C1342.06 451.045 1341.67 450.866 1341.4 450.6C1341.13 450.335 1340.96 449.939 1340.89 449.353Z" fill="white" fill-opacity="0.6"/>
<path d="M1103.89 499.353C1103.87 499.152 1103.7 499 1103.5 499C1103.3 499 1103.13 499.152 1103.11 499.353C1103.04 499.939 1102.87 500.335 1102.6 500.6C1102.33 500.866 1101.94 501.045 1101.35 501.108C1101.15 501.129 1101 501.298 1101 501.5C1101 501.702 1101.15 501.871 1101.35 501.892C1101.94 501.955 1102.33 502.134 1102.6 502.4C1102.87 502.665 1103.04 503.061 1103.11 503.647C1103.13 503.848 1103.3 504 1103.5 504C1103.7 504 1103.87 503.848 1103.89 503.647C1103.96 503.061 1104.13 502.665 1104.4 502.4C1104.67 502.134 1105.06 501.955 1105.65 501.892C1105.85 501.871 1106 501.702 1106 501.5C1106 501.298 1105.85 501.129 1105.65 501.108C1105.06 501.045 1104.67 500.866 1104.4 500.6C1104.13 500.335 1103.96 499.939 1103.89 499.353Z" fill="white" fill-opacity="0.6"/>
<path d="M157.892 743.353C157.871 743.152 157.702 743 157.5 743C157.298 743 157.129 743.152 157.108 743.353C157.045 743.939 156.866 744.335 156.6 744.6C156.335 744.866 155.939 745.045 155.353 745.108C155.152 745.129 155 745.298 155 745.5C155 745.702 155.152 745.871 155.353 745.892C155.939 745.955 156.335 746.134 156.6 746.4C156.866 746.665 157.045 747.061 157.108 747.647C157.129 747.848 157.298 748 157.5 748C157.702 748 157.871 747.848 157.892 747.647C157.955 747.061 158.134 746.665 158.4 746.4C158.665 746.134 159.061 745.955 159.647 745.892C159.848 745.871 160 745.702 160 745.5C160 745.298 159.848 745.129 159.647 745.108C159.061 745.045 158.665 744.866 158.4 744.6C158.134 744.335 157.955 743.939 157.892 743.353Z" fill="white" fill-opacity="0.6"/>
<path d="M252.892 690.353C252.871 690.152 252.702 690 252.5 690C252.298 690 252.129 690.152 252.108 690.353C252.045 690.939 251.866 691.335 251.6 691.6C251.335 691.866 250.939 692.045 250.353 692.108C250.152 692.129 250 692.298 250 692.5C250 692.702 250.152 692.871 250.353 692.892C250.939 692.955 251.335 693.134 251.6 693.4C251.866 693.665 252.045 694.061 252.108 694.647C252.129 694.848 252.298 695 252.5 695C252.702 695 252.871 694.848 252.892 694.647C252.955 694.061 253.134 693.665 253.4 693.4C253.665 693.134 254.061 692.955 254.647 692.892C254.848 692.871 255 692.702 255 692.5C255 692.298 254.848 692.129 254.647 692.108C254.061 692.045 253.665 691.866 253.4 691.6C253.134 691.335 252.955 690.939 252.892 690.353Z" fill="white" fill-opacity="0.6"/>
<path d="M435.892 675.353C435.871 675.152 435.702 675 435.5 675C435.298 675 435.129 675.152 435.108 675.353C435.045 675.939 434.866 676.335 434.6 676.6C434.335 676.866 433.939 677.045 433.353 677.108C433.152 677.129 433 677.298 433 677.5C433 677.702 433.152 677.871 433.353 677.892C433.939 677.955 434.335 678.134 434.6 678.4C434.866 678.665 435.045 679.061 435.108 679.647C435.129 679.848 435.298 680 435.5 680C435.702 680 435.871 679.848 435.892 679.647C435.955 679.061 436.134 678.665 436.4 678.4C436.665 678.134 437.061 677.955 437.647 677.892C437.848 677.871 438 677.702 438 677.5C438 677.298 437.848 677.129 437.647 677.108C437.061 677.045 436.665 676.866 436.4 676.6C436.134 676.335 435.955 675.939 435.892 675.353Z" fill="white" fill-opacity="0.6"/>
<path d="M519.892 470.353C519.871 470.152 519.702 470 519.5 470C519.298 470 519.129 470.152 519.108 470.353C519.045 470.939 518.866 471.335 518.6 471.6C518.335 471.866 517.939 472.045 517.353 472.108C517.152 472.129 517 472.298 517 472.5C517 472.702 517.152 472.871 517.353 472.892C517.939 472.955 518.335 473.134 518.6 473.4C518.866 473.665 519.045 474.061 519.108 474.647C519.129 474.848 519.298 475 519.5 475C519.702 475 519.871 474.848 519.892 474.647C519.955 474.061 520.134 473.665 520.4 473.4C520.665 473.134 521.061 472.955 521.647 472.892C521.848 472.871 522 472.702 522 472.5C522 472.298 521.848 472.129 521.647 472.108C521.061 472.045 520.665 471.866 520.4 471.6C520.134 471.335 519.955 470.939 519.892 470.353Z" fill="white" fill-opacity="0.6"/>
<path d="M519.892 434.353C519.871 434.152 519.702 434 519.5 434C519.298 434 519.129 434.152 519.108 434.353C519.045 434.939 518.866 435.335 518.6 435.6C518.335 435.866 517.939 436.045 517.353 436.108C517.152 436.129 517 436.298 517 436.5C517 436.702 517.152 436.871 517.353 436.892C517.939 436.955 518.335 437.134 518.6 437.4C518.866 437.665 519.045 438.061 519.108 438.647C519.129 438.848 519.298 439 519.5 439C519.702 439 519.871 438.848 519.892 438.647C519.955 438.061 520.134 437.665 520.4 437.4C520.665 437.134 521.061 436.955 521.647 436.892C521.848 436.871 522 436.702 522 436.5C522 436.298 521.848 436.129 521.647 436.108C521.061 436.045 520.665 435.866 520.4 435.6C520.134 435.335 519.955 434.939 519.892 434.353Z" fill="white" fill-opacity="0.6"/>
<path d="M362.892 419.353C362.871 419.152 362.702 419 362.5 419C362.298 419 362.129 419.152 362.108 419.353C362.045 419.939 361.866 420.335 361.6 420.6C361.335 420.866 360.939 421.045 360.353 421.108C360.152 421.129 360 421.298 360 421.5C360 421.702 360.152 421.871 360.353 421.892C360.939 421.955 361.335 422.134 361.6 422.4C361.866 422.665 362.045 423.061 362.108 423.647C362.129 423.848 362.298 424 362.5 424C362.702 424 362.871 423.848 362.892 423.647C362.955 423.061 363.134 422.665 363.4 422.4C363.665 422.134 364.061 421.955 364.647 421.892C364.848 421.871 365 421.702 365 421.5C365 421.298 364.848 421.129 364.647 421.108C364.061 421.045 363.665 420.866 363.4 420.6C363.134 420.335 362.955 419.939 362.892 419.353Z" fill="white" fill-opacity="0.6"/>
<path d="M34.0989 234.988C34.0388 234.426 33.5649 234 33 234C32.4351 234 31.9612 234.426 31.9011 234.988C31.7253 236.628 31.2238 237.738 30.4809 238.481C29.7379 239.224 28.6279 239.725 26.9875 239.901C26.4259 239.961 26 240.435 26 241C26 241.565 26.4259 242.039 26.9875 242.099C28.6279 242.275 29.7379 242.776 30.4809 243.519C31.2238 244.262 31.7253 245.372 31.9011 247.012C31.9612 247.574 32.4351 248 33 248C33.5649 248 34.0388 247.574 34.0989 247.012C34.2747 245.372 34.7762 244.262 35.5191 243.519C36.2621 242.776 37.3721 242.275 39.0125 242.099C39.5741 242.039 40 241.565 40 241C40 240.435 39.5741 239.961 39.0125 239.901C37.3721 239.725 36.2621 239.224 35.5191 238.481C34.7762 237.738 34.2747 236.628 34.0989 234.988Z" fill="white" fill-opacity="0.6"/>
<path d="M244.099 156.988C244.039 156.426 243.565 156 243 156C242.435 156 241.961 156.426 241.901 156.988C241.725 158.628 241.224 159.738 240.481 160.481C239.738 161.224 238.628 161.725 236.988 161.901C236.426 161.961 236 162.435 236 163C236 163.565 236.426 164.039 236.988 164.099C238.628 164.275 239.738 164.776 240.481 165.519C241.224 166.262 241.725 167.372 241.901 169.012C241.961 169.574 242.435 170 243 170C243.565 170 244.039 169.574 244.099 169.012C244.275 167.372 244.776 166.262 245.519 165.519C246.262 164.776 247.372 164.275 249.012 164.099C249.574 164.039 250 163.565 250 163C250 162.435 249.574 161.961 249.012 161.901C247.372 161.725 246.262 161.224 245.519 160.481C244.776 159.738 244.275 158.628 244.099 156.988Z" fill="white" fill-opacity="0.6"/>
<path d="M159.892 488.353C159.871 488.152 159.702 488 159.5 488C159.298 488 159.129 488.152 159.108 488.353C159.045 488.939 158.866 489.335 158.6 489.6C158.335 489.866 157.939 490.045 157.353 490.108C157.152 490.129 157 490.298 157 490.5C157 490.702 157.152 490.871 157.353 490.892C157.939 490.955 158.335 491.134 158.6 491.4C158.866 491.665 159.045 492.061 159.108 492.647C159.129 492.848 159.298 493 159.5 493C159.702 493 159.871 492.848 159.892 492.647C159.955 492.061 160.134 491.665 160.4 491.4C160.665 491.134 161.061 490.955 161.647 490.892C161.848 490.871 162 490.702 162 490.5C162 490.298 161.848 490.129 161.647 490.108C161.061 490.045 160.665 489.866 160.4 489.6C160.134 489.335 159.955 488.939 159.892 488.353Z" fill="white" fill-opacity="0.6"/>
<path d="M359.892 213.353C359.871 213.152 359.702 213 359.5 213C359.298 213 359.129 213.152 359.108 213.353C359.045 213.939 358.866 214.335 358.6 214.6C358.335 214.866 357.939 215.045 357.353 215.108C357.152 215.129 357 215.298 357 215.5C357 215.702 357.152 215.871 357.353 215.892C357.939 215.955 358.335 216.134 358.6 216.4C358.866 216.665 359.045 217.061 359.108 217.647C359.129 217.848 359.298 218 359.5 218C359.702 218 359.871 217.848 359.892 217.647C359.955 217.061 360.134 216.665 360.4 216.4C360.665 216.134 361.061 215.955 361.647 215.892C361.848 215.871 362 215.702 362 215.5C362 215.298 361.848 215.129 361.647 215.108C361.061 215.045 360.665 214.866 360.4 214.6C360.134 214.335 359.955 213.939 359.892 213.353Z" fill="white" fill-opacity="0.6"/>
<path d="M455.892 277.353C455.871 277.152 455.702 277 455.5 277C455.298 277 455.129 277.152 455.108 277.353C455.045 277.939 454.866 278.335 454.6 278.6C454.335 278.866 453.939 279.045 453.353 279.108C453.152 279.129 453 279.298 453 279.5C453 279.702 453.152 279.871 453.353 279.892C453.939 279.955 454.335 280.134 454.6 280.4C454.866 280.665 455.045 281.061 455.108 281.647C455.129 281.848 455.298 282 455.5 282C455.702 282 455.871 281.848 455.892 281.647C455.955 281.061 456.134 280.665 456.4 280.4C456.665 280.134 457.061 279.955 457.647 279.892C457.848 279.871 458 279.702 458 279.5C458 279.298 457.848 279.129 457.647 279.108C457.061 279.045 456.665 278.866 456.4 278.6C456.134 278.335 455.955 277.939 455.892 277.353Z" fill="white" fill-opacity="0.6"/>
<path d="M1053.05 738.494C1053.02 738.213 1052.78 738 1052.5 738C1052.22 738 1051.98 738.213 1051.95 738.494C1051.86 739.314 1051.61 739.869 1051.24 740.24C1050.87 740.612 1050.31 740.863 1049.49 740.951C1049.21 740.981 1049 741.218 1049 741.5C1049 741.782 1049.21 742.019 1049.49 742.049C1050.31 742.137 1050.87 742.388 1051.24 742.76C1051.61 743.131 1051.86 743.686 1051.95 744.506C1051.98 744.787 1052.22 745 1052.5 745C1052.78 745 1053.02 744.787 1053.05 744.506C1053.14 743.686 1053.39 743.131 1053.76 742.76C1054.13 742.388 1054.69 742.137 1055.51 742.049C1055.79 742.019 1056 741.782 1056 741.5C1056 741.218 1055.79 740.981 1055.51 740.951C1054.69 740.863 1054.13 740.612 1053.76 740.24C1053.39 739.869 1053.14 739.314 1053.05 738.494Z" fill="white" fill-opacity="0.6"/>
<path d="M1364.05 602.494C1364.02 602.213 1363.78 602 1363.5 602C1363.22 602 1362.98 602.213 1362.95 602.494C1362.86 603.314 1362.61 603.869 1362.24 604.24C1361.87 604.612 1361.31 604.863 1360.49 604.951C1360.21 604.981 1360 605.218 1360 605.5C1360 605.782 1360.21 606.019 1360.49 606.049C1361.31 606.137 1361.87 606.388 1362.24 606.76C1362.61 607.131 1362.86 607.686 1362.95 608.506C1362.98 608.787 1363.22 609 1363.5 609C1363.78 609 1364.02 608.787 1364.05 608.506C1364.14 607.686 1364.39 607.131 1364.76 606.76C1365.13 606.388 1365.69 606.137 1366.51 606.049C1366.79 606.019 1367 605.782 1367 605.5C1367 605.218 1366.79 604.981 1366.51 604.951C1365.69 604.863 1365.13 604.612 1364.76 604.24C1364.39 603.869 1364.14 603.314 1364.05 602.494Z" fill="white" fill-opacity="0.6"/>
<path d="M72.0989 796.988C72.0388 796.426 71.5649 796 71 796C70.4351 796 69.9612 796.426 69.9011 796.988C69.7253 798.628 69.2238 799.738 68.4809 800.481C67.7379 801.224 66.6279 801.725 64.9875 801.901C64.4259 801.961 64 802.435 64 803C64 803.565 64.4259 804.039 64.9875 804.099C66.6279 804.275 67.7379 804.776 68.4809 805.519C69.2238 806.262 69.7253 807.372 69.9011 809.012C69.9612 809.574 70.4351 810 71 810C71.5649 810 72.0388 809.574 72.0989 809.012C72.2747 807.372 72.7762 806.262 73.5191 805.519C74.2621 804.776 75.3721 804.275 77.0125 804.099C77.5741 804.039 78 803.565 78 803C78 802.435 77.5741 801.961 77.0125 801.901C75.3721 801.725 74.2621 801.224 73.5191 800.481C72.7762 799.738 72.2747 798.628 72.0989 796.988Z" fill="white" fill-opacity="0.5"/>
<path d="M1351.1 807.988C1351.04 807.426 1350.56 807 1350 807C1349.44 807 1348.96 807.426 1348.9 807.988C1348.73 809.628 1348.22 810.738 1347.48 811.481C1346.74 812.224 1345.63 812.725 1343.99 812.901C1343.43 812.961 1343 813.435 1343 814C1343 814.565 1343.43 815.039 1343.99 815.099C1345.63 815.275 1346.74 815.776 1347.48 816.519C1348.22 817.262 1348.73 818.372 1348.9 820.012C1348.96 820.574 1349.44 821 1350 821C1350.56 821 1351.04 820.574 1351.1 820.012C1351.27 818.372 1351.78 817.262 1352.52 816.519C1353.26 815.776 1354.37 815.275 1356.01 815.099C1356.57 815.039 1357 814.565 1357 814C1357 813.435 1356.57 812.961 1356.01 812.901C1354.37 812.725 1353.26 812.224 1352.52 811.481C1351.78 810.738 1351.27 809.628 1351.1 807.988Z" fill="white" fill-opacity="0.6"/>
<path d="M1419.1 57.9875C1419.04 57.4259 1418.56 57 1418 57C1417.44 57 1416.96 57.4259 1416.9 57.9875C1416.73 59.6279 1416.22 60.7379 1415.48 61.4809C1414.74 62.2238 1413.63 62.7253 1411.99 62.9011C1411.43 62.9612 1411 63.4351 1411 64C1411 64.5649 1411.43 65.0388 1411.99 65.0989C1413.63 65.2747 1414.74 65.7762 1415.48 66.5191C1416.22 67.2621 1416.73 68.3721 1416.9 70.0125C1416.96 70.5741 1417.44 71 1418 71C1418.56 71 1419.04 70.5741 1419.1 70.0125C1419.27 68.3721 1419.78 67.2621 1420.52 66.5191C1421.26 65.7762 1422.37 65.2747 1424.01 65.0989C1424.57 65.0388 1425 64.5649 1425 64C1425 63.4351 1424.57 62.9612 1424.01 62.9011C1422.37 62.7253 1421.26 62.2238 1420.52 61.4809C1419.78 60.7379 1419.27 59.6279 1419.1 57.9875Z" fill="white" fill-opacity="0.6"/>
<path d="M1109.47 197.423C1109.45 197.183 1109.24 197 1109 197C1108.76 197 1108.55 197.183 1108.53 197.423C1108.45 198.126 1108.24 198.602 1107.92 198.92C1107.6 199.239 1107.13 199.454 1106.42 199.529C1106.18 199.555 1106 199.758 1106 200C1106 200.242 1106.18 200.445 1106.42 200.471C1107.13 200.546 1107.6 200.761 1107.92 201.08C1108.24 201.398 1108.45 201.874 1108.53 202.577C1108.55 202.817 1108.76 203 1109 203C1109.24 203 1109.45 202.817 1109.47 202.577C1109.55 201.874 1109.76 201.398 1110.08 201.08C1110.4 200.761 1110.87 200.546 1111.58 200.471C1111.82 200.445 1112 200.242 1112 200C1112 199.758 1111.82 199.555 1111.58 199.529C1110.87 199.454 1110.4 199.239 1110.08 198.92C1109.76 198.602 1109.55 198.126 1109.47 197.423Z" fill="white" fill-opacity="0.6"/>
<path d="M1360.47 248.423C1360.45 248.183 1360.24 248 1360 248C1359.76 248 1359.55 248.183 1359.53 248.423C1359.45 249.126 1359.24 249.602 1358.92 249.92C1358.6 250.239 1358.13 250.454 1357.42 250.529C1357.18 250.555 1357 250.758 1357 251C1357 251.242 1357.18 251.445 1357.42 251.471C1358.13 251.546 1358.6 251.761 1358.92 252.08C1359.24 252.398 1359.45 252.874 1359.53 253.577C1359.55 253.817 1359.76 254 1360 254C1360.24 254 1360.45 253.817 1360.47 253.577C1360.55 252.874 1360.76 252.398 1361.08 252.08C1361.4 251.761 1361.87 251.546 1362.58 251.471C1362.82 251.445 1363 251.242 1363 251C1363 250.758 1362.82 250.555 1362.58 250.529C1361.87 250.454 1361.4 250.239 1361.08 249.92C1360.76 249.602 1360.55 249.126 1360.47 248.423Z" fill="white" fill-opacity="0.6"/>
<path d="M692.471 143.423C692.445 143.183 692.242 143 692 143C691.758 143 691.555 143.183 691.529 143.423C691.454 144.126 691.239 144.602 690.92 144.92C690.602 145.239 690.126 145.454 689.423 145.529C689.183 145.555 689 145.758 689 146C689 146.242 689.183 146.445 689.423 146.471C690.126 146.546 690.602 146.761 690.92 147.08C691.239 147.398 691.454 147.874 691.529 148.577C691.555 148.817 691.758 149 692 149C692.242 149 692.445 148.817 692.471 148.577C692.546 147.874 692.761 147.398 693.08 147.08C693.398 146.761 693.874 146.546 694.577 146.471C694.817 146.445 695 146.242 695 146C695 145.758 694.817 145.555 694.577 145.529C693.874 145.454 693.398 145.239 693.08 144.92C692.761 144.602 692.546 144.126 692.471 143.423Z" fill="white" fill-opacity="0.6"/>
<path d="M1038.47 436.423C1038.45 436.183 1038.24 436 1038 436C1037.76 436 1037.55 436.183 1037.53 436.423C1037.45 437.126 1037.24 437.602 1036.92 437.92C1036.6 438.239 1036.13 438.454 1035.42 438.529C1035.18 438.555 1035 438.758 1035 439C1035 439.242 1035.18 439.445 1035.42 439.471C1036.13 439.546 1036.6 439.761 1036.92 440.08C1037.24 440.398 1037.45 440.874 1037.53 441.577C1037.55 441.817 1037.76 442 1038 442C1038.24 442 1038.45 441.817 1038.47 441.577C1038.55 440.874 1038.76 440.398 1039.08 440.08C1039.4 439.761 1039.87 439.546 1040.58 439.471C1040.82 439.445 1041 439.242 1041 439C1041 438.758 1040.82 438.555 1040.58 438.529C1039.87 438.454 1039.4 438.239 1039.08 437.92C1038.76 437.602 1038.55 437.126 1038.47 436.423Z" fill="white" fill-opacity="0.6"/>
<path d="M1384.47 340.423C1384.45 340.183 1384.24 340 1384 340C1383.76 340 1383.55 340.183 1383.53 340.423C1383.45 341.126 1383.24 341.602 1382.92 341.92C1382.6 342.239 1382.13 342.454 1381.42 342.529C1381.18 342.555 1381 342.758 1381 343C1381 343.242 1381.18 343.445 1381.42 343.471C1382.13 343.546 1382.6 343.761 1382.92 344.08C1383.24 344.398 1383.45 344.874 1383.53 345.577C1383.55 345.817 1383.76 346 1384 346C1384.24 346 1384.45 345.817 1384.47 345.577C1384.55 344.874 1384.76 344.398 1385.08 344.08C1385.4 343.761 1385.87 343.546 1386.58 343.471C1386.82 343.445 1387 343.242 1387 343C1387 342.758 1386.82 342.555 1386.58 342.529C1385.87 342.454 1385.4 342.239 1385.08 341.92C1384.76 341.602 1384.55 341.126 1384.47 340.423Z" fill="white" fill-opacity="0.6"/>
<path d="M854.471 242.423C854.445 242.183 854.242 242 854 242C853.758 242 853.555 242.183 853.529 242.423C853.454 243.126 853.239 243.602 852.92 243.92C852.602 244.239 852.126 244.454 851.423 244.529C851.183 244.555 851 244.758 851 245C851 245.242 851.183 245.445 851.423 245.471C852.126 245.546 852.602 245.761 852.92 246.08C853.239 246.398 853.454 246.874 853.529 247.577C853.555 247.817 853.758 248 854 248C854.242 248 854.445 247.817 854.471 247.577C854.546 246.874 854.761 246.398 855.08 246.08C855.398 245.761 855.874 245.546 856.577 245.471C856.817 245.445 857 245.242 857 245C857 244.758 856.817 244.555 856.577 244.529C855.874 244.454 855.398 244.239 855.08 243.92C854.761 243.602 854.546 243.126 854.471 242.423Z" fill="white" fill-opacity="0.6"/>
<path d="M414.471 462.423C414.445 462.183 414.242 462 414 462C413.758 462 413.555 462.183 413.529 462.423C413.454 463.126 413.239 463.602 412.92 463.92C412.602 464.239 412.126 464.454 411.423 464.529C411.183 464.555 411 464.758 411 465C411 465.242 411.183 465.445 411.423 465.471C412.126 465.546 412.602 465.761 412.92 466.08C413.239 466.398 413.454 466.874 413.529 467.577C413.555 467.817 413.758 468 414 468C414.242 468 414.445 467.817 414.471 467.577C414.546 466.874 414.761 466.398 415.08 466.08C415.398 465.761 415.874 465.546 416.577 465.471C416.817 465.445 417 465.242 417 465C417 464.758 416.817 464.555 416.577 464.529C415.874 464.454 415.398 464.239 415.08 463.92C414.761 463.602 414.546 463.126 414.471 462.423Z" fill="white" fill-opacity="0.6"/>
<path d="M572.471 187.423C572.445 187.183 572.242 187 572 187C571.758 187 571.555 187.183 571.529 187.423C571.454 188.126 571.239 188.602 570.92 188.92C570.602 189.239 570.126 189.454 569.423 189.529C569.183 189.555 569 189.758 569 190C569 190.242 569.183 190.445 569.423 190.471C570.126 190.546 570.602 190.761 570.92 191.08C571.239 191.398 571.454 191.874 571.529 192.577C571.555 192.817 571.758 193 572 193C572.242 193 572.445 192.817 572.471 192.577C572.546 191.874 572.761 191.398 573.08 191.08C573.398 190.761 573.874 190.546 574.577 190.471C574.817 190.445 575 190.242 575 190C575 189.758 574.817 189.555 574.577 189.529C573.874 189.454 573.398 189.239 573.08 188.92C572.761 188.602 572.546 188.126 572.471 187.423Z" fill="white" fill-opacity="0.6"/>
<path d="M130.471 596.423C130.445 596.183 130.242 596 130 596C129.758 596 129.555 596.183 129.529 596.423C129.454 597.126 129.239 597.602 128.92 597.92C128.602 598.239 128.126 598.454 127.423 598.529C127.183 598.555 127 598.758 127 599C127 599.242 127.183 599.445 127.423 599.471C128.126 599.546 128.602 599.761 128.92 600.08C129.239 600.398 129.454 600.874 129.529 601.577C129.555 601.817 129.758 602 130 602C130.242 602 130.445 601.817 130.471 601.577C130.546 600.874 130.761 600.398 131.08 600.08C131.398 599.761 131.874 599.546 132.577 599.471C132.817 599.445 133 599.242 133 599C133 598.758 132.817 598.555 132.577 598.529C131.874 598.454 131.398 598.239 131.08 597.92C130.761 597.602 130.546 597.126 130.471 596.423Z" fill="white" fill-opacity="0.6"/>
<path d="M1157.1 119.988C1157.04 119.426 1156.56 119 1156 119C1155.44 119 1154.96 119.426 1154.9 119.988C1154.73 121.628 1154.22 122.738 1153.48 123.481C1152.74 124.224 1151.63 124.725 1149.99 124.901C1149.43 124.961 1149 125.435 1149 126C1149 126.565 1149.43 127.039 1149.99 127.099C1151.63 127.275 1152.74 127.776 1153.48 128.519C1154.22 129.262 1154.73 130.372 1154.9 132.012C1154.96 132.574 1155.44 133 1156 133C1156.56 133 1157.04 132.574 1157.1 132.012C1157.27 130.372 1157.78 129.262 1158.52 128.519C1159.26 127.776 1160.37 127.275 1162.01 127.099C1162.57 127.039 1163 126.565 1163 126C1163 125.435 1162.57 124.961 1162.01 124.901C1160.37 124.725 1159.26 124.224 1158.52 123.481C1157.78 122.738 1157.27 121.628 1157.1 119.988Z" fill="white" fill-opacity="0.6"/>
<path d="M1251.47 472.423C1251.45 472.183 1251.24 472 1251 472C1250.76 472 1250.55 472.183 1250.53 472.423C1250.45 473.126 1250.24 473.602 1249.92 473.92C1249.6 474.239 1249.13 474.454 1248.42 474.529C1248.18 474.555 1248 474.758 1248 475C1248 475.242 1248.18 475.445 1248.42 475.471C1249.13 475.546 1249.6 475.761 1249.92 476.08C1250.24 476.398 1250.45 476.874 1250.53 477.577C1250.55 477.817 1250.76 478 1251 478C1251.24 478 1251.45 477.817 1251.47 477.577C1251.55 476.874 1251.76 476.398 1252.08 476.08C1252.4 475.761 1252.87 475.546 1253.58 475.471C1253.82 475.445 1254 475.242 1254 475C1254 474.758 1253.82 474.555 1253.58 474.529C1252.87 474.454 1252.4 474.239 1252.08 473.92C1251.76 473.602 1251.55 473.126 1251.47 472.423Z" fill="white" fill-opacity="0.6"/>
<path d="M895.471 695.423C895.445 695.183 895.242 695 895 695C894.758 695 894.555 695.183 894.529 695.423C894.454 696.126 894.239 696.602 893.92 696.92C893.602 697.239 893.126 697.454 892.423 697.529C892.183 697.555 892 697.758 892 698C892 698.242 892.183 698.445 892.423 698.471C893.126 698.546 893.602 698.761 893.92 699.08C894.239 699.398 894.454 699.874 894.529 700.577C894.555 700.817 894.758 701 895 701C895.242 701 895.445 700.817 895.471 700.577C895.546 699.874 895.761 699.398 896.08 699.08C896.398 698.761 896.874 698.546 897.577 698.471C897.817 698.445 898 698.242 898 698C898 697.758 897.817 697.555 897.577 697.529C896.874 697.454 896.398 697.239 896.08 696.92C895.761 696.602 895.546 696.126 895.471 695.423Z" fill="white" fill-opacity="0.6"/>
<path d="M950.471 877.804C950.445 877.563 950.242 877.381 950 877.381C949.758 877.381 949.555 877.563 949.529 877.804C949.454 878.507 949.239 878.983 948.92 879.301C948.602 879.62 948.126 879.835 947.423 879.91C947.183 879.936 947 880.139 947 880.381C947 880.623 947.183 880.826 947.423 880.852C948.126 880.927 948.602 881.142 948.92 881.46C949.239 881.779 949.454 882.255 949.529 882.958C949.555 883.198 949.758 883.381 950 883.381C950.242 883.381 950.445 883.198 950.471 882.958C950.546 882.255 950.761 881.779 951.08 881.46C951.398 881.142 951.874 880.927 952.577 880.852C952.817 880.826 953 880.623 953 880.381C953 880.139 952.817 879.936 952.577 879.91C951.874 879.835 951.398 879.62 951.08 879.301C950.761 878.983 950.546 878.507 950.471 877.804Z" fill="white" fill-opacity="0.6"/>
<path d="M686.471 891.804C686.445 891.563 686.242 891.381 686 891.381C685.758 891.381 685.555 891.563 685.529 891.804C685.454 892.507 685.239 892.983 684.92 893.301C684.602 893.62 684.126 893.835 683.423 893.91C683.183 893.936 683 894.139 683 894.381C683 894.623 683.183 894.826 683.423 894.852C684.126 894.927 684.602 895.142 684.92 895.46C685.239 895.779 685.454 896.255 685.529 896.958C685.555 897.198 685.758 897.381 686 897.381C686.242 897.381 686.445 897.198 686.471 896.958C686.546 896.255 686.761 895.779 687.08 895.46C687.398 895.142 687.874 894.927 688.577 894.852C688.817 894.826 689 894.623 689 894.381C689 894.139 688.817 893.936 688.577 893.91C687.874 893.835 687.398 893.62 687.08 893.301C686.761 892.983 686.546 892.507 686.471 891.804Z" fill="white" fill-opacity="0.6"/>
<path d="M281.471 777.423C281.445 777.183 281.242 777 281 777C280.758 777 280.555 777.183 280.529 777.423C280.454 778.126 280.239 778.602 279.92 778.92C279.602 779.239 279.126 779.454 278.423 779.529C278.183 779.555 278 779.758 278 780C278 780.242 278.183 780.445 278.423 780.471C279.126 780.546 279.602 780.761 279.92 781.08C280.239 781.398 280.454 781.874 280.529 782.577C280.555 782.817 280.758 783 281 783C281.242 783 281.445 782.817 281.471 782.577C281.546 781.874 281.761 781.398 282.08 781.08C282.398 780.761 282.874 780.546 283.577 780.471C283.817 780.445 284 780.242 284 780C284 779.758 283.817 779.555 283.577 779.529C282.874 779.454 282.398 779.239 282.08 778.92C281.761 778.602 281.546 778.126 281.471 777.423Z" fill="white" fill-opacity="0.6"/>
<path d="M1180.47 711.423C1180.45 711.183 1180.24 711 1180 711C1179.76 711 1179.55 711.183 1179.53 711.423C1179.45 712.126 1179.24 712.602 1178.92 712.92C1178.6 713.239 1178.13 713.454 1177.42 713.529C1177.18 713.555 1177 713.758 1177 714C1177 714.242 1177.18 714.445 1177.42 714.471C1178.13 714.546 1178.6 714.761 1178.92 715.08C1179.24 715.398 1179.45 715.874 1179.53 716.577C1179.55 716.817 1179.76 717 1180 717C1180.24 717 1180.45 716.817 1180.47 716.577C1180.55 715.874 1180.76 715.398 1181.08 715.08C1181.4 714.761 1181.87 714.546 1182.58 714.471C1182.82 714.445 1183 714.242 1183 714C1183 713.758 1182.82 713.555 1182.58 713.529C1181.87 713.454 1181.4 713.239 1181.08 712.92C1180.76 712.602 1180.55 712.126 1180.47 711.423Z" fill="white" fill-opacity="0.6"/>
<path d="M815.471 797.804C815.445 797.563 815.242 797.381 815 797.381C814.758 797.381 814.555 797.563 814.529 797.804C814.454 798.507 814.239 798.983 813.92 799.301C813.602 799.62 813.126 799.835 812.423 799.91C812.183 799.936 812 800.139 812 800.381C812 800.623 812.183 800.826 812.423 800.852C813.126 800.927 813.602 801.142 813.92 801.46C814.239 801.779 814.454 802.255 814.529 802.958C814.555 803.198 814.758 803.381 815 803.381C815.242 803.381 815.445 803.198 815.471 802.958C815.546 802.255 815.761 801.779 816.08 801.46C816.398 801.142 816.874 800.927 817.577 800.852C817.817 800.826 818 800.623 818 800.381C818 800.139 817.817 799.936 817.577 799.91C816.874 799.835 816.398 799.62 816.08 799.301C815.761 798.983 815.546 798.507 815.471 797.804Z" fill="white" fill-opacity="0.6"/>
<path d="M514.471 737.423C514.445 737.183 514.242 737 514 737C513.758 737 513.555 737.183 513.529 737.423C513.454 738.126 513.239 738.602 512.92 738.92C512.602 739.239 512.126 739.454 511.423 739.529C511.183 739.555 511 739.758 511 740C511 740.242 511.183 740.445 511.423 740.471C512.126 740.546 512.602 740.761 512.92 741.08C513.239 741.398 513.454 741.874 513.529 742.577C513.555 742.817 513.758 743 514 743C514.242 743 514.445 742.817 514.471 742.577C514.546 741.874 514.761 741.398 515.08 741.08C515.398 740.761 515.874 740.546 516.577 740.471C516.817 740.445 517 740.242 517 740C517 739.758 516.817 739.555 516.577 739.529C515.874 739.454 515.398 739.239 515.08 738.92C514.761 738.602 514.546 738.126 514.471 737.423Z" fill="white" fill-opacity="0.6"/>
<path d="M272.471 871.423C272.445 871.183 272.242 871 272 871C271.758 871 271.555 871.183 271.529 871.423C271.454 872.126 271.239 872.602 270.92 872.92C270.602 873.239 270.126 873.454 269.423 873.529C269.183 873.555 269 873.758 269 874C269 874.242 269.183 874.445 269.423 874.471C270.126 874.546 270.602 874.761 270.92 875.08C271.239 875.398 271.454 875.874 271.529 876.577C271.555 876.817 271.758 877 272 877C272.242 877 272.445 876.817 272.471 876.577C272.546 875.874 272.761 875.398 273.08 875.08C273.398 874.761 273.874 874.546 274.577 874.471C274.817 874.445 275 874.242 275 874C275 873.758 274.817 873.555 274.577 873.529C273.874 873.454 273.398 873.239 273.08 872.92C272.761 872.602 272.546 872.126 272.471 871.423Z" fill="white" fill-opacity="0.6"/>
<path d="M391.892 792.734C391.871 792.533 391.702 792.381 391.5 792.381C391.298 792.381 391.129 792.533 391.108 792.734C391.045 793.319 390.866 793.716 390.6 793.981C390.335 794.246 389.939 794.426 389.353 794.488C389.152 794.51 389 794.679 389 794.881C389 795.083 389.152 795.252 389.353 795.273C389.939 795.336 390.335 795.515 390.6 795.781C390.866 796.046 391.045 796.442 391.108 797.028C391.129 797.229 391.298 797.381 391.5 797.381C391.702 797.381 391.871 797.229 391.892 797.028C391.955 796.442 392.134 796.046 392.4 795.781C392.665 795.515 393.061 795.336 393.647 795.273C393.848 795.252 394 795.083 394 794.881C394 794.679 393.848 794.51 393.647 794.488C393.061 794.426 392.665 794.246 392.4 793.981C392.134 793.716 391.955 793.319 391.892 792.734Z" fill="white" fill-opacity="0.6"/>
<path d="M655.892 527.353C655.871 527.152 655.702 527 655.5 527C655.298 527 655.129 527.152 655.108 527.353C655.045 527.939 654.866 528.335 654.6 528.6C654.335 528.866 653.939 529.045 653.353 529.108C653.152 529.129 653 529.298 653 529.5C653 529.702 653.152 529.871 653.353 529.892C653.939 529.955 654.335 530.134 654.6 530.4C654.866 530.665 655.045 531.061 655.108 531.647C655.129 531.848 655.298 532 655.5 532C655.702 532 655.871 531.848 655.892 531.647C655.955 531.061 656.134 530.665 656.4 530.4C656.665 530.134 657.061 529.955 657.647 529.892C657.848 529.871 658 529.702 658 529.5C658 529.298 657.848 529.129 657.647 529.108C657.061 529.045 656.665 528.866 656.4 528.6C656.134 528.335 655.955 527.939 655.892 527.353Z" fill="white" fill-opacity="0.6"/>
<path d="M928.892 383.353C928.871 383.152 928.702 383 928.5 383C928.298 383 928.129 383.152 928.108 383.353C928.045 383.939 927.866 384.335 927.6 384.6C927.335 384.866 926.939 385.045 926.353 385.108C926.152 385.129 926 385.298 926 385.5C926 385.702 926.152 385.871 926.353 385.892C926.939 385.955 927.335 386.134 927.6 386.4C927.866 386.665 928.045 387.061 928.108 387.647C928.129 387.848 928.298 388 928.5 388C928.702 388 928.871 387.848 928.892 387.647C928.955 387.061 929.134 386.665 929.4 386.4C929.665 386.134 930.061 385.955 930.647 385.892C930.848 385.871 931 385.702 931 385.5C931 385.298 930.848 385.129 930.647 385.108C930.061 385.045 929.665 384.866 929.4 384.6C929.134 384.335 928.955 383.939 928.892 383.353Z" fill="white" fill-opacity="0.6"/>
<path d="M1224.89 172.353C1224.87 172.152 1224.7 172 1224.5 172C1224.3 172 1224.13 172.152 1224.11 172.353C1224.04 172.939 1223.87 173.335 1223.6 173.6C1223.33 173.866 1222.94 174.045 1222.35 174.108C1222.15 174.129 1222 174.298 1222 174.5C1222 174.702 1222.15 174.871 1222.35 174.892C1222.94 174.955 1223.33 175.134 1223.6 175.4C1223.87 175.665 1224.04 176.061 1224.11 176.647C1224.13 176.848 1224.3 177 1224.5 177C1224.7 177 1224.87 176.848 1224.89 176.647C1224.96 176.061 1225.13 175.665 1225.4 175.4C1225.67 175.134 1226.06 174.955 1226.65 174.892C1226.85 174.871 1227 174.702 1227 174.5C1227 174.298 1226.85 174.129 1226.65 174.108C1226.06 174.045 1225.67 173.866 1225.4 173.6C1225.13 173.335 1224.96 172.939 1224.89 172.353Z" fill="white" fill-opacity="0.6"/>
<path d="M659.892 752.353C659.871 752.152 659.702 752 659.5 752C659.298 752 659.129 752.152 659.108 752.353C659.045 752.939 658.866 753.335 658.6 753.6C658.335 753.866 657.939 754.045 657.353 754.108C657.152 754.129 657 754.298 657 754.5C657 754.702 657.152 754.871 657.353 754.892C657.939 754.955 658.335 755.134 658.6 755.4C658.866 755.665 659.045 756.061 659.108 756.647C659.129 756.848 659.298 757 659.5 757C659.702 757 659.871 756.848 659.892 756.647C659.955 756.061 660.134 755.665 660.4 755.4C660.665 755.134 661.061 754.955 661.647 754.892C661.848 754.871 662 754.702 662 754.5C662 754.298 661.848 754.129 661.647 754.108C661.061 754.045 660.665 753.866 660.4 753.6C660.134 753.335 659.955 752.939 659.892 752.353Z" fill="white" fill-opacity="0.6"/>
<path d="M613.892 821.734C613.871 821.533 613.702 821.381 613.5 821.381C613.298 821.381 613.129 821.533 613.108 821.734C613.045 822.319 612.866 822.716 612.6 822.981C612.335 823.246 611.939 823.426 611.353 823.488C611.152 823.51 611 823.679 611 823.881C611 824.083 611.152 824.252 611.353 824.273C611.939 824.336 612.335 824.515 612.6 824.781C612.866 825.046 613.045 825.442 613.108 826.028C613.129 826.229 613.298 826.381 613.5 826.381C613.702 826.381 613.871 826.229 613.892 826.028C613.955 825.442 614.134 825.046 614.4 824.781C614.665 824.515 615.061 824.336 615.647 824.273C615.848 824.252 616 824.083 616 823.881C616 823.679 615.848 823.51 615.647 823.488C615.061 823.426 614.665 823.246 614.4 822.981C614.134 822.716 613.955 822.319 613.892 821.734Z" fill="white" fill-opacity="0.6"/>
<path d="M955.892 541.353C955.871 541.152 955.702 541 955.5 541C955.298 541 955.129 541.152 955.108 541.353C955.045 541.939 954.866 542.335 954.6 542.6C954.335 542.866 953.939 543.045 953.353 543.108C953.152 543.129 953 543.298 953 543.5C953 543.702 953.152 543.871 953.353 543.892C953.939 543.955 954.335 544.134 954.6 544.4C954.866 544.665 955.045 545.061 955.108 545.647C955.129 545.848 955.298 546 955.5 546C955.702 546 955.871 545.848 955.892 545.647C955.955 545.061 956.134 544.665 956.4 544.4C956.665 544.134 957.061 543.955 957.647 543.892C957.848 543.871 958 543.702 958 543.5C958 543.298 957.848 543.129 957.647 543.108C957.061 543.045 956.665 542.866 956.4 542.6C956.134 542.335 955.955 541.939 955.892 541.353Z" fill="white" fill-opacity="0.6"/>
<path d="M1003.47 158.423C1003.45 158.183 1003.24 158 1003 158C1002.76 158 1002.55 158.183 1002.53 158.423C1002.45 159.126 1002.24 159.602 1001.92 159.92C1001.6 160.239 1001.13 160.454 1000.42 160.529C1000.18 160.555 1000 160.758 1000 161C1000 161.242 1000.18 161.445 1000.42 161.471C1001.13 161.546 1001.6 161.761 1001.92 162.08C1002.24 162.398 1002.45 162.874 1002.53 163.577C1002.55 163.817 1002.76 164 1003 164C1003.24 164 1003.45 163.817 1003.47 163.577C1003.55 162.874 1003.76 162.398 1004.08 162.08C1004.4 161.761 1004.87 161.546 1005.58 161.471C1005.82 161.445 1006 161.242 1006 161C1006 160.758 1005.82 160.555 1005.58 160.529C1004.87 160.454 1004.4 160.239 1004.08 159.92C1003.76 159.602 1003.55 159.126 1003.47 158.423Z" fill="white" fill-opacity="0.6"/>
<path d="M932.471 397.423C932.445 397.183 932.242 397 932 397C931.758 397 931.555 397.183 931.529 397.423C931.454 398.126 931.239 398.602 930.92 398.92C930.602 399.239 930.126 399.454 929.423 399.529C929.183 399.555 929 399.758 929 400C929 400.242 929.183 400.445 929.423 400.471C930.126 400.546 930.602 400.761 930.92 401.08C931.239 401.398 931.454 401.874 931.529 402.577C931.555 402.817 931.758 403 932 403C932.242 403 932.445 402.817 932.471 402.577C932.546 401.874 932.761 401.398 933.08 401.08C933.398 400.761 933.874 400.546 934.577 400.471C934.817 400.445 935 400.242 935 400C935 399.758 934.817 399.555 934.577 399.529C933.874 399.454 933.398 399.239 933.08 398.92C932.761 398.602 932.546 398.126 932.471 397.423Z" fill="white" fill-opacity="0.6"/>
<path d="M1280.47 569.423C1280.45 569.183 1280.24 569 1280 569C1279.76 569 1279.55 569.183 1279.53 569.423C1279.45 570.126 1279.24 570.602 1278.92 570.92C1278.6 571.239 1278.13 571.454 1277.42 571.529C1277.18 571.555 1277 571.758 1277 572C1277 572.242 1277.18 572.445 1277.42 572.471C1278.13 572.546 1278.6 572.761 1278.92 573.08C1279.24 573.398 1279.45 573.874 1279.53 574.577C1279.55 574.817 1279.76 575 1280 575C1280.24 575 1280.45 574.817 1280.47 574.577C1280.55 573.874 1280.76 573.398 1281.08 573.08C1281.4 572.761 1281.87 572.546 1282.58 572.471C1282.82 572.445 1283 572.242 1283 572C1283 571.758 1282.82 571.555 1282.58 571.529C1281.87 571.454 1281.4 571.239 1281.08 570.92C1280.76 570.602 1280.55 570.126 1280.47 569.423Z" fill="white" fill-opacity="0.6"/>
<path d="M56.471 346.423C56.4452 346.183 56.2421 346 56 346C55.7579 346 55.5548 346.183 55.529 346.423C55.4537 347.126 55.2388 347.602 54.9204 347.92C54.6019 348.239 54.1262 348.454 53.4232 348.529C53.1825 348.555 53 348.758 53 349C53 349.242 53.1825 349.445 53.4232 349.471C54.1262 349.546 54.6019 349.761 54.9204 350.08C55.2388 350.398 55.4537 350.874 55.529 351.577C55.5548 351.817 55.7579 352 56 352C56.2421 352 56.4452 351.817 56.471 351.577C56.5463 350.874 56.7612 350.398 57.0796 350.08C57.3981 349.761 57.8738 349.546 58.5768 349.471C58.8175 349.445 59 349.242 59 349C59 348.758 58.8175 348.555 58.5768 348.529C57.8738 348.454 57.3981 348.239 57.0796 347.92C56.7612 347.602 56.5463 347.126 56.471 346.423Z" fill="white" fill-opacity="0.6"/>
<path d="M848.471 497.423C848.445 497.183 848.242 497 848 497C847.758 497 847.555 497.183 847.529 497.423C847.454 498.126 847.239 498.602 846.92 498.92C846.602 499.239 846.126 499.454 845.423 499.529C845.183 499.555 845 499.758 845 500C845 500.242 845.183 500.445 845.423 500.471C846.126 500.546 846.602 500.761 846.92 501.08C847.239 501.398 847.454 501.874 847.529 502.577C847.555 502.817 847.758 503 848 503C848.242 503 848.445 502.817 848.471 502.577C848.546 501.874 848.761 501.398 849.08 501.08C849.398 500.761 849.874 500.546 850.577 500.471C850.817 500.445 851 500.242 851 500C851 499.758 850.817 499.555 850.577 499.529C849.874 499.454 849.398 499.239 849.08 498.92C848.761 498.602 848.546 498.126 848.471 497.423Z" fill="white" fill-opacity="0.6"/>
<path d="M812.471 451.423C812.445 451.183 812.242 451 812 451C811.758 451 811.555 451.183 811.529 451.423C811.454 452.126 811.239 452.602 810.92 452.92C810.602 453.239 810.126 453.454 809.423 453.529C809.183 453.555 809 453.758 809 454C809 454.242 809.183 454.445 809.423 454.471C810.126 454.546 810.602 454.761 810.92 455.08C811.239 455.398 811.454 455.874 811.529 456.577C811.555 456.817 811.758 457 812 457C812.242 457 812.445 456.817 812.471 456.577C812.546 455.874 812.761 455.398 813.08 455.08C813.398 454.761 813.874 454.546 814.577 454.471C814.817 454.445 815 454.242 815 454C815 453.758 814.817 453.555 814.577 453.529C813.874 453.454 813.398 453.239 813.08 452.92C812.761 452.602 812.546 452.126 812.471 451.423Z" fill="white" fill-opacity="0.6"/>
<path d="M935.471 451.423C935.445 451.183 935.242 451 935 451C934.758 451 934.555 451.183 934.529 451.423C934.454 452.126 934.239 452.602 933.92 452.92C933.602 453.239 933.126 453.454 932.423 453.529C932.183 453.555 932 453.758 932 454C932 454.242 932.183 454.445 932.423 454.471C933.126 454.546 933.602 454.761 933.92 455.08C934.239 455.398 934.454 455.874 934.529 456.577C934.555 456.817 934.758 457 935 457C935.242 457 935.445 456.817 935.471 456.577C935.546 455.874 935.761 455.398 936.08 455.08C936.398 454.761 936.874 454.546 937.577 454.471C937.817 454.445 938 454.242 938 454C938 453.758 937.817 453.555 937.577 453.529C936.874 453.454 936.398 453.239 936.08 452.92C935.761 452.602 935.546 452.126 935.471 451.423Z" fill="white" fill-opacity="0.6"/>
<path d="M748.471 203.423C748.445 203.183 748.242 203 748 203C747.758 203 747.555 203.183 747.529 203.423C747.454 204.126 747.239 204.602 746.92 204.92C746.602 205.239 746.126 205.454 745.423 205.529C745.183 205.555 745 205.758 745 206C745 206.242 745.183 206.445 745.423 206.471C746.126 206.546 746.602 206.761 746.92 207.08C747.239 207.398 747.454 207.874 747.529 208.577C747.555 208.817 747.758 209 748 209C748.242 209 748.445 208.817 748.471 208.577C748.546 207.874 748.761 207.398 749.08 207.08C749.398 206.761 749.874 206.546 750.577 206.471C750.817 206.445 751 206.242 751 206C751 205.758 750.817 205.555 750.577 205.529C749.874 205.454 749.398 205.239 749.08 204.92C748.761 204.602 748.546 204.126 748.471 203.423Z" fill="white" fill-opacity="0.6"/>
<path d="M266.471 423.423C266.445 423.183 266.242 423 266 423C265.758 423 265.555 423.183 265.529 423.423C265.454 424.126 265.239 424.602 264.92 424.92C264.602 425.239 264.126 425.454 263.423 425.529C263.183 425.555 263 425.758 263 426C263 426.242 263.183 426.445 263.423 426.471C264.126 426.546 264.602 426.761 264.92 427.08C265.239 427.398 265.454 427.874 265.529 428.577C265.555 428.817 265.758 429 266 429C266.242 429 266.445 428.817 266.471 428.577C266.546 427.874 266.761 427.398 267.08 427.08C267.398 426.761 267.874 426.546 268.577 426.471C268.817 426.445 269 426.242 269 426C269 425.758 268.817 425.555 268.577 425.529C267.874 425.454 267.398 425.239 267.08 424.92C266.761 424.602 266.546 424.126 266.471 423.423Z" fill="white" fill-opacity="0.6"/>
<path d="M24.471 557.423C24.4452 557.183 24.2421 557 24 557C23.7579 557 23.5548 557.183 23.529 557.423C23.4537 558.126 23.2388 558.602 22.9204 558.92C22.6019 559.239 22.1262 559.454 21.4232 559.529C21.1825 559.555 21 559.758 21 560C21 560.242 21.1825 560.445 21.4232 560.471C22.1262 560.546 22.6019 560.761 22.9204 561.08C23.2388 561.398 23.4537 561.874 23.529 562.577C23.5548 562.817 23.7579 563 24 563C24.2421 563 24.4452 562.817 24.471 562.577C24.5463 561.874 24.7612 561.398 25.0796 561.08C25.3981 560.761 25.8738 560.546 26.5768 560.471C26.8175 560.445 27 560.242 27 560C27 559.758 26.8175 559.555 26.5768 559.529C25.8738 559.454 25.3981 559.239 25.0796 558.92C24.7612 558.602 24.5463 558.126 24.471 557.423Z" fill="white" fill-opacity="0.6"/>
<path d="M152.049 869.494C152.019 869.213 151.782 869 151.5 869C151.218 869 150.981 869.213 150.951 869.494C150.863 870.314 150.612 870.869 150.24 871.24C149.869 871.612 149.314 871.863 148.494 871.951C148.213 871.981 148 872.218 148 872.5C148 872.782 148.213 873.019 148.494 873.049C149.314 873.137 149.869 873.388 150.24 873.76C150.612 874.131 150.863 874.686 150.951 875.506C150.981 875.787 151.218 876 151.5 876C151.782 876 152.019 875.787 152.049 875.506C152.137 874.686 152.388 874.131 152.76 873.76C153.131 873.388 153.686 873.137 154.506 873.049C154.787 873.019 155 872.782 155 872.5C155 872.218 154.787 871.981 154.506 871.951C153.686 871.863 153.131 871.612 152.76 871.24C152.388 870.869 152.137 870.314 152.049 869.494Z" fill="white" fill-opacity="0.7"/>
<path d="M456.049 877.875C456.019 877.594 455.782 877.381 455.5 877.381C455.218 877.381 454.981 877.594 454.951 877.875C454.863 878.695 454.612 879.25 454.24 879.621C453.869 879.993 453.314 880.243 452.494 880.331C452.213 880.361 452 880.598 452 880.881C452 881.163 452.213 881.4 452.494 881.43C453.314 881.518 453.869 881.769 454.24 882.14C454.612 882.512 454.863 883.067 454.951 883.887C454.981 884.168 455.218 884.381 455.5 884.381C455.782 884.381 456.019 884.168 456.049 883.887C456.137 883.067 456.388 882.512 456.76 882.14C457.131 881.769 457.686 881.518 458.506 881.43C458.787 881.4 459 881.163 459 880.881C459 880.598 458.787 880.361 458.506 880.331C457.686 880.243 457.131 879.993 456.76 879.621C456.388 879.25 456.137 878.695 456.049 877.875Z" fill="white" fill-opacity="0.7"/>
<path d="M1365.1 149.988C1365.04 149.426 1364.56 149 1364 149C1363.44 149 1362.96 149.426 1362.9 149.988C1362.73 151.628 1362.22 152.738 1361.48 153.481C1360.74 154.224 1359.63 154.725 1357.99 154.901C1357.43 154.961 1357 155.435 1357 156C1357 156.565 1357.43 157.039 1357.99 157.099C1359.63 157.275 1360.74 157.776 1361.48 158.519C1362.22 159.262 1362.73 160.372 1362.9 162.012C1362.96 162.574 1363.44 163 1364 163C1364.56 163 1365.04 162.574 1365.1 162.012C1365.27 160.372 1365.78 159.262 1366.52 158.519C1367.26 157.776 1368.37 157.275 1370.01 157.099C1370.57 157.039 1371 156.565 1371 156C1371 155.435 1370.57 154.961 1370.01 154.901C1368.37 154.725 1367.26 154.224 1366.52 153.481C1365.78 152.738 1365.27 151.628 1365.1 149.988Z" fill="white" fill-opacity="0.7"/>
<path d="M1405.1 483.988C1405.04 483.426 1404.56 483 1404 483C1403.44 483 1402.96 483.426 1402.9 483.988C1402.73 485.628 1402.22 486.738 1401.48 487.481C1400.74 488.224 1399.63 488.725 1397.99 488.901C1397.43 488.961 1397 489.435 1397 490C1397 490.565 1397.43 491.039 1397.99 491.099C1399.63 491.275 1400.74 491.776 1401.48 492.519C1402.22 493.262 1402.73 494.372 1402.9 496.012C1402.96 496.574 1403.44 497 1404 497C1404.56 497 1405.04 496.574 1405.1 496.012C1405.27 494.372 1405.78 493.262 1406.52 492.519C1407.26 491.776 1408.37 491.275 1410.01 491.099C1410.57 491.039 1411 490.565 1411 490C1411 489.435 1410.57 488.961 1410.01 488.901C1408.37 488.725 1407.26 488.224 1406.52 487.481C1405.78 486.738 1405.27 485.628 1405.1 483.988Z" fill="white" fill-opacity="0.7"/>
</g>
<defs>
<clipPath id="clip0_3882_22587">
<rect width="1440" height="901.191" fill="white"/>
</clipPath>
</defs>
</svg>
