<svg width="260" height="247" viewBox="0 0 260 247" fill="none" xmlns="http://www.w3.org/2000/svg">
<g clip-path="url(#clip0_4117_19548)">
<path d="M260 0H0V246.458H260V0Z" fill="#91CDFF"/>
<g filter="url(#filter0_ddddiii_4117_19548)">
<path d="M86.666 41.979C86.666 33.0044 93.9413 25.729 102.916 25.729H222.083C231.057 25.729 238.333 33.0044 238.333 41.979V204.479C238.333 213.454 231.057 220.729 222.083 220.729H162.499H115.607C112.687 220.729 109.891 219.551 107.853 217.461L89.7454 198.905C87.771 196.881 86.666 194.166 86.666 191.339V123.229V41.979Z" fill="white"/>
</g>
<path d="M106.474 46.2261C106.474 46.9096 106.349 47.4973 106.099 47.989C105.849 48.4788 105.506 48.8559 105.071 49.1206C104.637 49.3831 104.145 49.5144 103.592 49.5144C103.038 49.5144 102.543 49.3831 102.107 49.1206C101.674 48.8559 101.332 48.4777 101.082 47.9859C100.832 47.4941 100.707 46.9075 100.707 46.2261C100.707 45.5426 100.832 44.956 101.082 44.4664C101.332 43.9745 101.674 43.5974 102.107 43.3348C102.543 43.0701 103.038 42.9378 103.592 42.9378C104.145 42.9378 104.637 43.0701 105.071 43.3348C105.506 43.5974 105.849 43.9745 106.099 44.4664C106.349 44.956 106.474 45.5426 106.474 46.2261ZM105.518 46.2261C105.518 45.7051 105.433 45.2665 105.264 44.9102C105.098 44.5517 104.868 44.2808 104.577 44.0975C104.287 43.912 103.959 43.8193 103.592 43.8193C103.223 43.8193 102.894 43.912 102.604 44.0975C102.314 44.2808 102.086 44.5517 101.917 44.9102C101.75 45.2665 101.666 45.7051 101.666 46.2261C101.666 46.747 101.75 47.1867 101.917 47.5452C102.086 47.9015 102.314 48.1724 102.604 48.3579C102.894 48.5412 103.223 48.6329 103.592 48.6329C103.959 48.6329 104.287 48.5412 104.577 48.3579C104.868 48.1724 105.098 47.9015 105.264 47.5452C105.433 47.1867 105.518 46.747 105.518 46.2261ZM111.71 44.6257L109.97 49.4269H108.969L107.225 44.6257H108.228L109.444 48.3204H109.494L110.707 44.6257H111.71ZM114.494 49.5238C114.022 49.5238 113.614 49.4227 113.272 49.2206C112.933 49.0164 112.67 48.7298 112.485 48.361C112.301 47.9901 112.21 47.5556 112.21 47.0576C112.21 46.5658 112.301 46.1323 112.485 45.7573C112.67 45.3822 112.928 45.0894 113.26 44.8789C113.593 44.6685 113.983 44.5632 114.429 44.5632C114.7 44.5632 114.962 44.608 115.217 44.6976C115.471 44.7872 115.699 44.9279 115.901 45.1196C116.103 45.3113 116.263 45.5603 116.379 45.8666C116.496 46.1709 116.555 46.5408 116.555 46.9763V47.3076H112.738V46.6074H115.639C115.639 46.3616 115.589 46.1438 115.488 45.9542C115.389 45.7624 115.248 45.6114 115.067 45.5009C114.887 45.3905 114.677 45.3353 114.436 45.3353C114.173 45.3353 113.943 45.3999 113.748 45.5291C113.554 45.6562 113.404 45.8229 113.297 46.0292C113.193 46.2334 113.141 46.4554 113.141 46.695V47.242C113.141 47.5629 113.197 47.8359 113.31 48.0609C113.425 48.286 113.584 48.4579 113.788 48.5767C113.993 48.6934 114.231 48.7517 114.504 48.7517C114.681 48.7517 114.843 48.7267 114.989 48.6767C115.134 48.6246 115.26 48.5475 115.367 48.4454C115.473 48.3433 115.554 48.2172 115.61 48.0672L116.495 48.2266C116.424 48.4871 116.297 48.7153 116.114 48.9111C115.933 49.1049 115.704 49.256 115.43 49.3644C115.156 49.4706 114.845 49.5238 114.494 49.5238ZM117.591 49.4269V44.6257H118.495V45.3884H118.545C118.632 45.13 118.787 44.9268 119.007 44.7789C119.231 44.6289 119.483 44.5538 119.764 44.5538C119.822 44.5538 119.891 44.5559 119.97 44.5601C120.051 44.5643 120.115 44.5695 120.161 44.5757V45.4697C120.123 45.4593 120.057 45.4478 119.961 45.4353C119.865 45.4207 119.769 45.4134 119.673 45.4134C119.452 45.4134 119.256 45.4603 119.082 45.5541C118.912 45.6458 118.776 45.7739 118.676 45.9385C118.576 46.1011 118.526 46.2866 118.526 46.4949V49.4269H117.591ZM125.223 44.6257L123.482 49.4269H122.482L120.738 44.6257H121.741L122.957 48.3204H123.007L124.219 44.6257H125.223ZM126.101 49.4269V44.6257H127.036V49.4269H126.101ZM126.574 43.8849C126.41 43.8849 126.271 43.8308 126.155 43.7224C126.04 43.6119 125.983 43.4807 125.983 43.3286C125.983 43.1743 126.04 43.0431 126.155 42.9347C126.271 42.8243 126.41 42.769 126.574 42.769C126.736 42.769 126.874 42.8243 126.989 42.9347C127.106 43.0431 127.164 43.1743 127.164 43.3286C127.164 43.4807 127.106 43.6119 126.989 43.7224C126.874 43.8308 126.736 43.8849 126.574 43.8849ZM130.363 49.5238C129.889 49.5238 129.482 49.4227 129.14 49.2206C128.801 49.0164 128.538 48.7298 128.352 48.361C128.17 47.9901 128.077 47.5556 128.077 47.0576C128.077 46.5658 128.17 46.1323 128.352 45.7573C128.538 45.3822 128.797 45.0894 129.128 44.8789C129.461 44.6685 129.851 44.5632 130.297 44.5632C130.568 44.5632 130.83 44.608 131.084 44.6976C131.339 44.7872 131.567 44.9279 131.769 45.1196C131.971 45.3113 132.13 45.5603 132.248 45.8666C132.364 46.1709 132.422 46.5408 132.422 46.9763V47.3076H128.606V46.6074H131.506C131.506 46.3616 131.457 46.1438 131.357 45.9542C131.256 45.7624 131.116 45.6114 130.935 45.5009C130.755 45.3905 130.545 45.3353 130.303 45.3353C130.04 45.3353 129.811 45.3999 129.616 45.5291C129.421 45.6562 129.272 45.8229 129.166 46.0292C129.061 46.2334 129.009 46.4554 129.009 46.695V47.242C129.009 47.5629 129.065 47.8359 129.178 48.0609C129.292 48.286 129.452 48.4579 129.656 48.5767C129.86 48.6934 130.099 48.7517 130.372 48.7517C130.549 48.7517 130.711 48.7267 130.856 48.6767C131.002 48.6246 131.128 48.5475 131.235 48.4454C131.341 48.3433 131.422 48.2172 131.478 48.0672L132.363 48.2266C132.292 48.4871 132.165 48.7153 131.982 48.9111C131.8 49.1049 131.572 49.256 131.297 49.3644C131.024 49.4706 130.713 49.5238 130.363 49.5238ZM134.491 49.4269L133.079 44.6257H134.045L134.986 48.1516H135.032L135.976 44.6257H136.943L137.88 48.1359H137.927L138.861 44.6257H139.828L138.418 49.4269H137.464L136.489 45.9604H136.417L135.442 49.4269H134.491Z" fill="#141515"/>
<path d="M220.722 49.4275L220.24 48.9524L222.222 46.9706H217.09V46.283H222.222L220.24 44.3075L220.722 43.8262L223.523 46.6268L220.722 49.4275Z" fill="#8C9292"/>
<g filter="url(#filter1_dddddddii_4117_19548)">
<path d="M216.667 188.23H163.177C157.194 188.23 152.344 193.08 152.344 199.063C152.344 205.046 157.194 209.896 163.177 209.896H216.667C222.65 209.896 227.5 205.046 227.5 199.063C227.5 193.08 222.65 188.23 216.667 188.23Z" fill="url(#paint0_linear_4117_19548)"/>
<path d="M216.667 188.23H163.177C157.194 188.23 152.344 193.08 152.344 199.063C152.344 205.046 157.194 209.896 163.177 209.896H216.667C222.65 209.896 227.5 205.046 227.5 199.063C227.5 193.08 222.65 188.23 216.667 188.23Z" fill="url(#paint1_linear_4117_19548)" fill-opacity="0.08"/>
<path d="M167.791 195.862H168.679V200.051C168.679 200.431 168.604 200.755 168.455 201.024C168.306 201.293 168.098 201.499 167.828 201.641C167.559 201.782 167.244 201.852 166.882 201.852C166.549 201.852 166.25 201.791 165.985 201.67C165.721 201.549 165.513 201.373 165.358 201.142C165.207 200.909 165.131 200.627 165.131 200.294H166.016C166.016 200.458 166.054 200.598 166.129 200.718C166.206 200.837 166.311 200.931 166.444 200.998C166.578 201.064 166.732 201.096 166.905 201.096C167.094 201.096 167.254 201.057 167.384 200.978C167.517 200.897 167.618 200.779 167.687 200.623C167.757 200.467 167.791 200.277 167.791 200.051V195.862ZM171.775 201.861C171.359 201.861 170.996 201.765 170.687 201.575C170.378 201.385 170.137 201.118 169.966 200.776C169.795 200.433 169.709 200.033 169.709 199.575C169.709 199.116 169.795 198.713 169.966 198.369C170.137 198.025 170.378 197.757 170.687 197.567C170.996 197.377 171.359 197.281 171.775 197.281C172.19 197.281 172.553 197.377 172.862 197.567C173.173 197.757 173.413 198.025 173.584 198.369C173.755 198.713 173.841 199.116 173.841 199.575C173.841 200.033 173.755 200.433 173.584 200.776C173.413 201.118 173.173 201.385 172.862 201.575C172.553 201.765 172.19 201.861 171.775 201.861ZM171.778 201.136C172.047 201.136 172.27 201.065 172.447 200.923C172.624 200.781 172.755 200.591 172.839 200.355C172.926 200.118 172.969 199.857 172.969 199.573C172.969 199.29 172.926 199.03 172.839 198.793C172.755 198.555 172.624 198.363 172.447 198.219C172.27 198.075 172.047 198.003 171.778 198.003C171.506 198.003 171.281 198.075 171.103 198.219C170.925 198.363 170.794 198.555 170.707 198.793C170.623 199.03 170.58 199.29 170.58 199.573C170.58 199.857 170.623 200.118 170.707 200.355C170.794 200.591 170.925 200.781 171.103 200.923C171.281 201.065 171.506 201.136 171.778 201.136ZM174.804 201.771V197.34H175.666V201.771H174.804ZM175.239 196.656C175.089 196.656 174.961 196.606 174.852 196.505C174.747 196.403 174.694 196.282 174.694 196.142C174.694 196 174.747 195.878 174.852 195.778C174.961 195.677 175.089 195.625 175.239 195.625C175.389 195.625 175.517 195.677 175.623 195.778C175.731 195.878 175.785 196 175.785 196.142C175.785 196.282 175.731 196.403 175.623 196.505C175.517 196.606 175.389 196.656 175.239 196.656ZM177.689 199.14V201.771H176.827V197.34H177.655V198.061H177.71C177.812 197.826 177.972 197.638 178.189 197.495C178.408 197.353 178.684 197.281 179.017 197.281C179.319 197.281 179.583 197.345 179.811 197.472C180.038 197.597 180.214 197.784 180.338 198.032C180.463 198.28 180.526 198.587 180.526 198.952V201.771H179.663V199.056C179.663 198.735 179.58 198.484 179.412 198.303C179.245 198.12 179.015 198.029 178.723 198.029C178.523 198.029 178.345 198.072 178.189 198.159C178.035 198.246 177.913 198.372 177.822 198.539C177.734 198.705 177.689 198.905 177.689 199.14ZM183.902 195.862H184.984L186.866 200.456H186.935L188.816 195.862H189.898V201.771H189.05V197.495H188.995L187.253 201.762H186.548L184.806 197.492H184.751V201.771H183.902V195.862ZM193.035 201.861C192.599 201.861 192.222 201.767 191.907 201.581C191.593 201.392 191.351 201.128 191.18 200.787C191.01 200.445 190.926 200.044 190.926 199.584C190.926 199.13 191.01 198.73 191.18 198.384C191.351 198.038 191.59 197.768 191.895 197.573C192.203 197.379 192.563 197.281 192.975 197.281C193.224 197.281 193.467 197.323 193.702 197.406C193.936 197.489 194.147 197.618 194.333 197.795C194.52 197.972 194.667 198.202 194.775 198.485C194.883 198.766 194.937 199.107 194.937 199.509V199.815H191.414V199.168H194.091C194.091 198.942 194.045 198.741 193.953 198.566C193.86 198.388 193.73 198.249 193.563 198.147C193.398 198.045 193.203 197.994 192.981 197.994C192.738 197.994 192.526 198.054 192.346 198.173C192.167 198.29 192.028 198.445 191.93 198.635C191.834 198.823 191.786 199.028 191.786 199.25V199.754C191.786 200.051 191.838 200.303 191.941 200.51C192.048 200.718 192.195 200.877 192.383 200.986C192.572 201.094 192.792 201.148 193.044 201.148C193.207 201.148 193.356 201.125 193.491 201.078C193.626 201.03 193.742 200.959 193.84 200.865C193.938 200.771 194.013 200.655 194.065 200.516L194.882 200.663C194.816 200.904 194.699 201.114 194.53 201.295C194.363 201.474 194.152 201.613 193.898 201.714C193.646 201.812 193.358 201.861 193.035 201.861ZM197.804 201.861C197.367 201.861 196.991 201.767 196.675 201.581C196.362 201.392 196.12 201.128 195.948 200.787C195.779 200.445 195.694 200.044 195.694 199.584C195.694 199.13 195.779 198.73 195.948 198.384C196.12 198.038 196.359 197.768 196.664 197.573C196.972 197.379 197.332 197.281 197.743 197.281C197.993 197.281 198.236 197.323 198.47 197.406C198.705 197.489 198.915 197.618 199.102 197.795C199.289 197.972 199.436 198.202 199.544 198.485C199.651 198.766 199.705 199.107 199.705 199.509V199.815H196.183V199.168H198.86C198.86 198.942 198.814 198.741 198.722 198.566C198.629 198.388 198.499 198.249 198.332 198.147C198.166 198.045 197.972 197.994 197.749 197.994C197.507 197.994 197.295 198.054 197.114 198.173C196.936 198.29 196.797 198.445 196.699 198.635C196.602 198.823 196.554 199.028 196.554 199.25V199.754C196.554 200.051 196.606 200.303 196.71 200.51C196.816 200.718 196.963 200.877 197.151 200.986C197.34 201.094 197.56 201.148 197.812 201.148C197.976 201.148 198.125 201.125 198.26 201.078C198.395 201.03 198.51 200.959 198.609 200.865C198.707 200.771 198.782 200.655 198.834 200.516L199.651 200.663C199.585 200.904 199.468 201.114 199.299 201.295C199.131 201.474 198.921 201.613 198.667 201.714C198.414 201.812 198.127 201.861 197.804 201.861ZM202.731 197.34V198.032H200.311V197.34H202.731ZM200.959 196.277H201.822V200.47C201.822 200.637 201.847 200.763 201.897 200.848C201.947 200.931 202.012 200.987 202.091 201.018C202.171 201.047 202.259 201.062 202.354 201.062C202.423 201.062 202.483 201.057 202.535 201.047C202.587 201.037 202.627 201.03 202.656 201.024L202.812 201.737C202.762 201.756 202.691 201.775 202.599 201.794C202.506 201.815 202.391 201.827 202.252 201.829C202.025 201.833 201.814 201.792 201.618 201.708C201.421 201.623 201.263 201.492 201.142 201.315C201.02 201.138 200.959 200.916 200.959 200.649V196.277ZM203.685 201.771V197.34H204.548V201.771H203.685ZM204.121 196.656C203.971 196.656 203.842 196.606 203.735 196.505C203.628 196.403 203.576 196.282 203.576 196.142C203.576 196 203.628 195.878 203.735 195.778C203.842 195.677 203.971 195.625 204.121 195.625C204.271 195.625 204.399 195.677 204.505 195.778C204.613 195.878 204.666 196 204.666 196.142C204.666 196.282 204.613 196.403 204.505 196.505C204.399 196.606 204.271 196.656 204.121 196.656ZM206.572 199.14V201.771H205.709V197.34H206.537V198.061H206.591C206.694 197.826 206.853 197.638 207.071 197.495C207.29 197.353 207.566 197.281 207.899 197.281C208.201 197.281 208.466 197.345 208.692 197.472C208.919 197.597 209.095 197.784 209.221 198.032C209.345 198.28 209.408 198.587 209.408 198.952V201.771H208.545V199.056C208.545 198.735 208.461 198.484 208.294 198.303C208.127 198.12 207.897 198.029 207.604 198.029C207.405 198.029 207.226 198.072 207.071 198.159C206.917 198.246 206.795 198.372 206.704 198.539C206.616 198.705 206.572 198.905 206.572 199.14ZM212.423 203.525C212.071 203.525 211.768 203.479 211.514 203.387C211.262 203.295 211.056 203.173 210.896 203.02C210.737 202.869 210.618 202.702 210.539 202.521L211.28 202.215C211.332 202.3 211.401 202.389 211.488 202.484C211.577 202.58 211.696 202.662 211.846 202.729C211.998 202.796 212.193 202.83 212.431 202.83C212.758 202.83 213.029 202.75 213.242 202.59C213.456 202.433 213.563 202.181 213.563 201.835V200.963H213.508C213.456 201.058 213.381 201.162 213.283 201.278C213.187 201.393 213.054 201.493 212.885 201.578C212.716 201.662 212.495 201.705 212.224 201.705C211.874 201.705 211.558 201.623 211.277 201.46C210.999 201.294 210.777 201.051 210.614 200.73C210.452 200.406 210.372 200.009 210.372 199.538C210.372 199.067 210.451 198.663 210.611 198.326C210.772 197.99 210.994 197.732 211.275 197.553C211.555 197.372 211.874 197.281 212.229 197.281C212.504 197.281 212.727 197.328 212.896 197.42C213.066 197.51 213.197 197.617 213.291 197.738C213.387 197.859 213.462 197.965 213.514 198.058H213.577V197.34H214.423V201.869C214.423 202.25 214.334 202.563 214.157 202.807C213.98 203.052 213.741 203.232 213.439 203.349C213.139 203.467 212.8 203.525 212.423 203.525ZM212.414 200.989C212.662 200.989 212.872 200.932 213.043 200.816C213.217 200.699 213.347 200.531 213.435 200.314C213.526 200.095 213.571 199.832 213.571 199.527C213.571 199.228 213.527 198.966 213.439 198.738C213.35 198.512 213.22 198.335 213.049 198.208C212.878 198.079 212.666 198.015 212.414 198.015C212.154 198.015 211.938 198.082 211.765 198.216C211.592 198.349 211.461 198.53 211.373 198.759C211.286 198.988 211.243 199.244 211.243 199.527C211.243 199.817 211.287 200.072 211.376 200.291C211.464 200.51 211.595 200.682 211.768 200.804C211.943 200.928 212.158 200.989 212.414 200.989Z" fill="url(#paint2_linear_4117_19548)"/>
</g>
<path d="M227.5 61.2764H97.5" stroke="black" stroke-opacity="0.2" stroke-width="0.677083" stroke-dasharray="0.68 2.71"/>
<path d="M99.8924 84.0206V76.6343H100.366V84.0206H99.8924ZM101.373 78.9249C101.341 78.652 101.215 78.4401 100.991 78.2904C100.769 78.1381 100.488 78.0622 100.149 78.0622C99.9066 78.0622 99.6967 78.1008 99.52 78.178C99.3433 78.2525 99.2052 78.3568 99.1077 78.4895C99.0115 78.6202 98.9635 78.7691 98.9635 78.9364C98.9635 79.0772 98.996 79.1984 99.061 79.3C99.1287 79.4022 99.216 79.4875 99.3237 79.5572C99.4334 79.6243 99.5505 79.6812 99.6758 79.7272C99.801 79.7712 99.9209 79.8078 100.037 79.8369L100.614 79.9872C100.802 80.0332 100.995 80.0955 101.194 80.1747C101.391 80.2533 101.575 80.3569 101.744 80.4862C101.914 80.6149 102.05 80.7746 102.155 80.9649C102.26 81.1552 102.313 81.3833 102.313 81.6488C102.313 81.9832 102.226 82.2805 102.053 82.5405C101.882 82.7998 101.633 83.005 101.306 83.1546C100.981 83.3049 100.588 83.3801 100.126 83.3801C99.6832 83.3801 99.3007 83.3096 98.9777 83.1695C98.6547 83.0287 98.4015 82.8296 98.2187 82.5723C98.0359 82.3123 97.935 82.0049 97.916 81.6488H98.8104C98.8274 81.862 98.8971 82.0401 99.0176 82.1823C99.1409 82.3231 99.2979 82.4281 99.4882 82.4971C99.6805 82.5642 99.8911 82.598 100.12 82.598C100.372 82.598 100.596 82.5588 100.792 82.4795C100.991 82.399 101.146 82.2872 101.26 82.1451C101.373 82.0008 101.43 81.8322 101.43 81.64C101.43 81.4653 101.38 81.3217 101.28 81.21C101.182 81.099 101.048 81.0062 100.879 80.9331C100.712 80.86 100.522 80.7956 100.311 80.7401L99.6121 80.5492C99.1388 80.4205 98.7637 80.2309 98.4868 79.9811C98.2119 79.7313 98.0745 79.4002 98.0745 78.9885C98.0745 78.6479 98.1665 78.3507 98.3514 78.0968C98.5362 77.8429 98.7861 77.6458 99.1016 77.5057C99.4171 77.3635 99.7733 77.2917 100.169 77.2917C100.57 77.2917 100.922 77.3621 101.228 77.5023C101.536 77.6431 101.778 77.8361 101.955 78.0826C102.132 78.327 102.224 78.608 102.232 78.9249H101.373ZM103.174 82.1275V81.4064L105.727 77.373H106.296V78.4346H105.935L104.109 81.3258V81.3718H107.608V82.1275H103.174ZM105.975 83.2819V81.9088L105.981 81.5797V77.373H106.826V83.2819H105.975ZM110.611 83.3625C110.197 83.3625 109.831 83.2914 109.514 83.1492C109.198 83.007 108.951 82.8106 108.772 82.5608C108.594 82.3103 108.505 82.0259 108.507 81.7063C108.505 81.4565 108.556 81.2263 108.66 81.017C108.766 80.8051 108.909 80.6291 109.09 80.4889C109.271 80.3467 109.472 80.256 109.696 80.2174V80.1829C109.401 80.1118 109.166 79.954 108.989 79.7096C108.812 79.4658 108.724 79.1849 108.726 78.8673C108.724 78.5653 108.804 78.2958 108.966 78.0595C109.129 77.8212 109.353 77.6337 109.638 77.4969C109.923 77.3601 110.247 77.2917 110.611 77.2917C110.97 77.2917 111.291 77.3615 111.574 77.4996C111.859 77.6364 112.083 77.8239 112.246 78.0622C112.41 78.2992 112.492 78.5674 112.494 78.8673C112.492 79.1849 112.402 79.4658 112.223 79.7096C112.044 79.954 111.812 80.1118 111.525 80.1829V80.2174C111.746 80.256 111.945 80.3467 112.123 80.4889C112.301 80.6291 112.444 80.8051 112.549 81.017C112.657 81.2263 112.712 81.4565 112.714 81.7063C112.712 82.0259 112.622 82.3103 112.443 82.5608C112.263 82.8106 112.016 83.007 111.698 83.1492C111.383 83.2914 111.02 83.3625 110.611 83.3625ZM110.611 82.6326C110.854 82.6326 111.066 82.5926 111.245 82.5114C111.424 82.4288 111.563 82.3143 111.661 82.1681C111.759 82.0198 111.808 81.8471 111.81 81.6488C111.808 81.4429 111.755 81.2615 111.649 81.1037C111.545 80.9459 111.404 80.8214 111.225 80.7313C111.046 80.6406 110.841 80.5959 110.611 80.5959C110.378 80.5959 110.171 80.6406 109.99 80.7313C109.809 80.8214 109.667 80.9459 109.563 81.1037C109.459 81.2615 109.408 81.4429 109.41 81.6488C109.408 81.8471 109.456 82.0198 109.552 82.1681C109.65 82.3143 109.789 82.4288 109.97 82.5114C110.151 82.5926 110.364 82.6326 110.611 82.6326ZM110.611 79.8829C110.806 79.8829 110.98 79.8437 111.133 79.7644C111.284 79.6859 111.404 79.5762 111.49 79.436C111.579 79.2952 111.624 79.1307 111.626 78.9425C111.624 78.7576 111.58 78.5965 111.494 78.4577C111.409 78.3189 111.29 78.2126 111.138 78.1374C110.986 78.0602 110.81 78.0223 110.611 78.0223C110.406 78.0223 110.227 78.0602 110.074 78.1374C109.922 78.2126 109.804 78.3189 109.719 78.4577C109.634 78.5965 109.593 78.7576 109.595 78.9425C109.593 79.1307 109.635 79.2952 109.722 79.436C109.808 79.5762 109.927 79.6859 110.079 79.7644C110.234 79.8437 110.41 79.8829 110.611 79.8829ZM114.152 83.3367C113.995 83.3367 113.859 83.2812 113.746 83.1695C113.632 83.0557 113.576 82.919 113.576 82.7598C113.576 82.6021 113.632 82.4674 113.746 82.3556C113.859 82.2419 113.995 82.1857 114.152 82.1857C114.31 82.1857 114.446 82.2419 114.559 82.3556C114.673 82.4674 114.73 82.6021 114.73 82.7598C114.73 82.8655 114.703 82.9623 114.649 83.051C114.597 83.1377 114.528 83.2067 114.442 83.2589C114.355 83.311 114.259 83.3367 114.152 83.3367ZM117.767 77.2917C118.031 77.2938 118.291 77.3418 118.546 77.4359C118.802 77.5307 119.033 77.6844 119.239 77.8977C119.447 78.1117 119.612 78.4001 119.735 78.7637C119.86 79.1253 119.924 79.5755 119.925 80.1138C119.925 80.6311 119.874 81.0922 119.77 81.4957C119.666 81.8979 119.517 82.2371 119.323 82.5141C119.13 82.7917 118.896 83.0022 118.621 83.1465C118.346 83.2907 118.037 83.3625 117.692 83.3625C117.34 83.3625 117.028 83.2934 116.755 83.1546C116.482 83.0165 116.26 82.8248 116.088 82.5804C115.917 82.3346 115.81 82.0516 115.768 81.7327H116.648C116.706 81.9866 116.823 82.1925 117 82.3502C117.179 82.5059 117.409 82.5838 117.692 82.5838C118.125 82.5838 118.463 82.3949 118.705 82.0184C118.948 81.6393 119.069 81.1105 119.071 80.4314H119.025C118.925 80.5966 118.8 80.7388 118.65 80.8579C118.502 80.9778 118.335 81.0699 118.151 81.1355C117.966 81.2005 117.769 81.233 117.56 81.233C117.219 81.233 116.91 81.1497 116.631 80.9825C116.352 80.8153 116.13 80.5851 115.964 80.2926C115.798 80.0001 115.716 79.6669 115.716 79.2918C115.716 78.9181 115.8 78.5795 115.97 78.2762C116.141 77.9722 116.379 77.7318 116.685 77.5544C116.993 77.3757 117.354 77.2883 117.767 77.2917ZM117.77 78.0419C117.545 78.0419 117.342 78.0981 117.161 78.2099C116.983 78.3189 116.841 78.4685 116.738 78.6567C116.633 78.8436 116.581 79.0508 116.581 79.2796C116.581 79.5092 116.631 79.7164 116.731 79.9032C116.834 80.0881 116.972 80.235 117.147 80.3447C117.324 80.4524 117.526 80.5065 117.753 80.5065C117.922 80.5065 118.08 80.4733 118.226 80.4083C118.372 80.3427 118.5 80.2526 118.61 80.1368C118.719 80.0197 118.805 79.887 118.866 79.7387C118.928 79.5904 118.959 79.4347 118.959 79.2715C118.959 79.0542 118.907 78.8517 118.803 78.6655C118.701 78.4787 118.561 78.329 118.382 78.2153C118.203 78.1002 117.999 78.0419 117.77 78.0419ZM122.918 83.3625C122.556 83.3625 122.231 83.2934 121.943 83.1546C121.657 83.0144 121.428 82.8221 121.256 82.5777C121.085 82.3333 120.994 82.055 120.982 81.7408H121.848C121.869 81.9947 121.982 82.204 122.185 82.3671C122.389 82.531 122.634 82.6122 122.918 82.6122C123.145 82.6122 123.347 82.5608 123.521 82.4565C123.698 82.3509 123.837 82.206 123.937 82.0212C124.039 81.8363 124.09 81.6257 124.09 81.3894C124.09 81.1484 124.038 80.9344 123.934 80.7455C123.83 80.5573 123.686 80.409 123.504 80.3014C123.323 80.1937 123.116 80.1389 122.881 80.1368C122.702 80.1368 122.522 80.168 122.341 80.2289C122.16 80.2905 122.014 80.3718 121.902 80.4713L121.086 80.3501L121.418 77.373H124.667V78.1374H122.16L121.972 79.7908H122.007C122.122 79.6791 122.275 79.5857 122.465 79.5105C122.658 79.436 122.864 79.3981 123.083 79.3981C123.443 79.3981 123.763 79.4841 124.043 79.6547C124.326 79.826 124.548 80.0596 124.71 80.3562C124.873 80.6507 124.955 80.9893 124.953 81.3718C124.955 81.7544 124.868 82.0963 124.693 82.3963C124.52 82.6962 124.279 82.9325 123.972 83.1058C123.665 83.2771 123.315 83.3625 122.918 83.3625Z" fill="#141515"/>
<path d="M184.756 83.8506H192.881V75.7256H184.756V83.8506Z" fill="#200109" fill-opacity="0.72"/>
<path d="M129.027 77.3721V83.281H128.346V77.3721H129.027ZM132.132 83.3731C131.705 83.3731 131.336 83.279 131.027 83.0908C130.719 82.9005 130.482 82.6344 130.314 82.2945C130.149 81.9519 130.066 81.5538 130.066 81.0995C130.066 80.6458 130.149 80.2457 130.314 79.8997C130.482 79.551 130.714 79.2802 131.013 79.0858C131.313 78.8895 131.663 78.7913 132.063 78.7913C132.294 78.7913 132.521 78.8299 132.747 78.9071C132.972 78.9836 133.177 79.1089 133.361 79.2822C133.546 79.4535 133.693 79.6803 133.802 79.9627C133.912 80.2457 133.967 80.5937 133.967 81.0074V81.2958H130.551V80.7075H133.275C133.275 80.4576 133.225 80.2342 133.125 80.0378C133.026 79.8415 132.886 79.6871 132.703 79.5733C132.523 79.4603 132.309 79.4034 132.063 79.4034C131.791 79.4034 131.557 79.4704 131.359 79.6052C131.162 79.7379 131.011 79.9112 130.906 80.1245C130.8 80.3378 130.747 80.5666 130.747 80.811V81.2038C130.747 81.5382 130.805 81.8219 130.92 82.0549C131.038 82.2857 131.2 82.4618 131.408 82.583C131.615 82.7021 131.857 82.7617 132.132 82.7617C132.311 82.7617 132.473 82.7367 132.617 82.6866C132.763 82.6344 132.889 82.5579 132.995 82.4557C133.101 82.3521 133.182 82.2228 133.24 82.0691L133.898 82.2539C133.829 82.4767 133.712 82.673 133.548 82.8423C133.385 83.0095 133.183 83.1409 132.943 83.235C132.702 83.3271 132.432 83.3731 132.132 83.3731ZM136.976 78.8495V79.4264H134.588V78.8495H136.976ZM135.303 83.281V78.2375C135.303 77.9836 135.362 77.7723 135.482 77.603C135.601 77.4338 135.756 77.3065 135.947 77.2218C136.137 77.1372 136.338 77.0952 136.549 77.0952C136.716 77.0952 136.853 77.1088 136.959 77.1352C137.065 77.1622 137.144 77.1873 137.196 77.2103L136.999 77.7987C136.965 77.7872 136.917 77.773 136.855 77.7554C136.796 77.7384 136.716 77.7296 136.619 77.7296C136.394 77.7296 136.231 77.7865 136.131 77.9003C136.033 78.0133 135.984 78.1799 135.984 78.3993V83.281H135.303ZM139.858 78.8495V79.4264H137.561V78.8495H139.858ZM138.231 77.7872H138.912V82.0115C138.912 82.2038 138.939 82.348 138.996 82.4442C139.053 82.5383 139.126 82.6019 139.215 82.6344C139.305 82.6656 139.4 82.6812 139.501 82.6812C139.575 82.6812 139.637 82.6771 139.685 82.6696C139.733 82.6595 139.771 82.652 139.801 82.6459L139.939 83.258C139.893 83.275 139.828 83.2926 139.746 83.3102C139.663 83.3291 139.558 83.3386 139.431 83.3386C139.239 83.3386 139.05 83.2973 138.866 83.2147C138.683 83.1321 138.531 83.0062 138.41 82.8369C138.291 82.6676 138.231 82.4537 138.231 82.1964V77.7872ZM143.168 83.281V78.8495H143.848V83.281H143.168ZM143.514 78.1108C143.381 78.1108 143.267 78.0655 143.17 77.9747C143.076 77.8847 143.029 77.7757 143.029 77.6491C143.029 77.5218 143.076 77.4134 143.17 77.3227C143.267 77.2327 143.381 77.1873 143.514 77.1873C143.646 77.1873 143.76 77.2327 143.854 77.3227C143.95 77.4134 143.999 77.5218 143.999 77.6491C143.999 77.7757 143.95 77.8847 143.854 77.9747C143.76 78.0655 143.646 78.1108 143.514 78.1108ZM145.777 80.6147V83.281H145.095V78.8495H145.754V79.5415H145.811C145.915 79.3167 146.073 79.1359 146.284 78.9992C146.496 78.8611 146.769 78.7913 147.104 78.7913C147.404 78.7913 147.666 78.8529 147.892 78.9762C148.117 79.0974 148.292 79.2822 148.416 79.53C148.542 79.7765 148.604 80.0879 148.604 80.4651V83.281H147.924V80.5111C147.924 80.1631 147.833 79.8916 147.652 79.6972C147.471 79.5016 147.223 79.4034 146.908 79.4034C146.691 79.4034 146.496 79.4501 146.325 79.5449C146.156 79.639 146.022 79.7765 145.923 79.9572C145.826 80.138 145.777 80.3574 145.777 80.6147ZM152.134 83.281V78.8495H152.792V79.5415H152.849C152.941 79.3052 153.09 79.1217 153.296 78.9904C153.502 78.8577 153.749 78.7913 154.038 78.7913C154.33 78.7913 154.574 78.8577 154.768 78.9904C154.964 79.1217 155.117 79.3052 155.227 79.5415H155.273C155.386 79.3127 155.556 79.1312 155.784 78.9965C156.011 78.8597 156.283 78.7913 156.6 78.7913C156.996 78.7913 157.32 78.9159 157.573 79.1637C157.825 79.4102 157.95 79.7934 157.95 80.3147V83.281H157.269V80.3147C157.269 79.9877 157.18 79.7541 157.001 79.614C156.822 79.4731 156.612 79.4034 156.37 79.4034C156.057 79.4034 155.816 79.4975 155.645 79.6857C155.474 79.8726 155.388 80.1089 155.388 80.396V83.281H154.696V80.2457C154.696 79.9938 154.614 79.7907 154.451 79.637C154.287 79.4813 154.076 79.4034 153.819 79.4034C153.642 79.4034 153.476 79.4501 153.323 79.5449C153.17 79.639 153.047 79.7697 152.953 79.9369C152.861 80.1021 152.815 80.2938 152.815 80.5111V83.281H152.134ZM160.996 83.3731C160.596 83.3731 160.244 83.2783 159.942 83.0874C159.643 82.8971 159.408 82.631 159.239 82.2884C159.071 81.9458 158.988 81.5457 158.988 81.088C158.988 80.6269 159.071 80.2233 159.239 79.8794C159.408 79.5347 159.643 79.2673 159.942 79.077C160.244 78.8868 160.596 78.7913 160.996 78.7913C161.396 78.7913 161.746 78.8868 162.046 79.077C162.348 79.2673 162.583 79.5347 162.75 79.8794C162.92 80.2233 163.004 80.6269 163.004 81.088C163.004 81.5457 162.92 81.9458 162.75 82.2884C162.583 82.631 162.348 82.8971 162.046 83.0874C161.746 83.2783 161.396 83.3731 160.996 83.3731ZM160.996 82.7617C161.3 82.7617 161.55 82.6839 161.746 82.5281C161.942 82.3724 162.087 82.1672 162.182 81.9133C162.276 81.6594 162.323 81.3845 162.323 81.088C162.323 80.7921 162.276 80.5158 162.182 80.2599C162.087 80.0046 161.942 79.7975 161.746 79.6397C161.55 79.4819 161.3 79.4034 160.996 79.4034C160.692 79.4034 160.442 79.4819 160.246 79.6397C160.049 79.7975 159.905 80.0046 159.81 80.2599C159.716 80.5158 159.669 80.7921 159.669 81.088C159.669 81.3845 159.716 81.6594 159.81 81.9133C159.905 82.1672 160.049 82.3724 160.246 82.5281C160.442 82.6839 160.692 82.7617 160.996 82.7617ZM164.725 80.6147V83.281H164.044V78.8495H164.701V79.5415H164.759C164.863 79.3167 165.021 79.1359 165.233 78.9992C165.444 78.8611 165.717 78.7913 166.052 78.7913C166.352 78.7913 166.614 78.8529 166.839 78.9762C167.064 79.0974 167.239 79.2822 167.365 79.53C167.489 79.7765 167.552 80.0879 167.552 80.4651V83.281H166.871V80.5111C166.871 80.1631 166.78 79.8916 166.6 79.6972C166.419 79.5016 166.171 79.4034 165.855 79.4034C165.638 79.4034 165.444 79.4501 165.272 79.5449C165.103 79.639 164.97 79.7765 164.872 79.9572C164.773 80.138 164.725 80.3574 164.725 80.6147ZM170.724 78.8495V79.4264H168.427V78.8495H170.724ZM169.097 77.7872H169.777V82.0115C169.777 82.2038 169.805 82.348 169.861 82.4442C169.919 82.5383 169.992 82.6019 170.08 82.6344C170.17 82.6656 170.266 82.6812 170.366 82.6812C170.441 82.6812 170.502 82.6771 170.55 82.6696C170.598 82.6595 170.637 82.652 170.666 82.6459L170.804 83.258C170.758 83.275 170.694 83.2926 170.611 83.3102C170.529 83.3291 170.424 83.3386 170.296 83.3386C170.104 83.3386 169.916 83.2973 169.731 83.2147C169.548 83.1321 169.397 83.0062 169.275 82.8369C169.156 82.6676 169.097 82.4537 169.097 82.1964V77.7872ZM172.524 80.6147V83.281H171.843V77.3721H172.524V79.5415H172.582C172.686 79.3127 172.842 79.1312 173.049 78.9965C173.259 78.8597 173.538 78.7913 173.886 78.7913C174.188 78.7913 174.452 78.8522 174.679 78.9734C174.907 79.0926 175.082 79.2761 175.207 79.5246C175.335 79.7704 175.398 80.0839 175.398 80.4651V83.281H174.717V80.5111C174.717 80.159 174.626 79.8868 174.443 79.6945C174.262 79.5002 174.011 79.4034 173.69 79.4034C173.467 79.4034 173.267 79.4501 173.089 79.5449C172.915 79.639 172.776 79.7765 172.674 79.9572C172.574 80.138 172.524 80.3574 172.524 80.6147ZM177.325 77.3721V83.281H176.643V77.3721H177.325ZM179.01 84.9433C178.895 84.9433 178.792 84.9331 178.702 84.9142C178.611 84.8966 178.549 84.8796 178.514 84.862L178.687 84.2621C178.853 84.3041 178.999 84.3197 179.126 84.3082C179.253 84.2967 179.365 84.2398 179.463 84.1382C179.563 84.038 179.654 83.8755 179.737 83.6501L179.864 83.3041L178.225 78.8495H178.964L180.187 82.3805H180.233L181.457 78.8495H182.195L180.315 83.9277C180.23 84.1565 180.125 84.3454 180 84.4957C179.875 84.6474 179.73 84.7605 179.564 84.8336C179.4 84.9067 179.216 84.9433 179.01 84.9433Z" fill="#646868"/>
<g filter="url(#filter2_dddd_4117_19548)">
<path d="M177.396 93.4374H101.563C99.3188 93.4374 97.5 95.2562 97.5 97.4999C97.5 99.7435 99.3188 101.562 101.563 101.562H177.396C179.64 101.562 181.458 99.7435 181.458 97.4999C181.458 95.2562 179.64 93.4374 177.396 93.4374Z" fill="#D7FF52"/>
</g>
<g filter="url(#filter3_dddd_4117_19548)">
<path d="M223.437 93.438H188.229C185.985 93.438 184.166 95.2568 184.166 97.5005C184.166 99.7441 185.985 101.563 188.229 101.563H223.437C225.681 101.563 227.499 99.7441 227.499 97.5005C227.499 95.2568 225.681 93.438 223.437 93.438Z" fill="#A1A5A5"/>
</g>
<path d="M101.725 128.57C101.725 128.294 101.595 128.115 101.27 128.05C99.1902 127.563 98.0527 126.051 98.0527 123.841H99.824C99.824 125.678 100.848 126.636 102.798 126.636C104.52 126.636 105.3 125.905 105.3 124.833C105.3 123.906 104.699 123.354 103.431 123.11L101.855 122.801C99.4502 122.346 98.394 121.176 98.394 119.568C98.394 117.926 99.4502 116.773 101.238 116.448C101.563 116.399 101.725 116.236 101.725 115.928V115.294H103.399V115.976C103.399 116.253 103.545 116.431 103.838 116.496C105.706 116.919 106.811 118.284 106.811 120.315H105.089C105.056 118.69 104.081 117.926 102.44 117.926C100.978 117.926 100.198 118.511 100.198 119.519C100.198 120.445 100.831 120.949 102.164 121.209L103.691 121.501C106.064 121.973 107.088 123.11 107.088 124.816C107.088 126.636 105.853 127.871 103.87 128.148C103.561 128.196 103.399 128.359 103.399 128.651V129.269H101.725V128.57ZM111.72 121.388C113.052 121.388 113.751 120.608 113.751 119.584C113.751 118.463 112.955 117.845 111.817 117.845C110.533 117.845 109.753 118.625 109.753 120.201H108.015C108.015 117.748 109.591 116.35 111.898 116.35C114.108 116.35 115.538 117.618 115.538 119.34C115.538 120.38 115.018 121.323 113.93 121.843C115.246 122.363 115.945 123.419 115.945 124.768C115.945 126.815 114.287 128.213 111.931 128.213C109.575 128.213 107.787 126.815 107.787 124.28H109.526C109.526 125.938 110.55 126.718 111.898 126.718C113.231 126.718 114.157 125.97 114.157 124.751C114.157 123.533 113.263 122.818 111.72 122.818H110.891V121.388H111.72ZM120.956 128.213C118.86 128.213 116.65 126.864 116.65 122.346C116.65 118.576 118.21 116.35 120.956 116.35C123.085 116.35 124.401 117.699 124.661 119.503H122.923C122.776 118.56 122.094 117.845 120.94 117.845C119.283 117.845 118.405 119.275 118.324 122.07H118.389C118.844 121.128 119.835 120.591 121.103 120.591C123.264 120.591 124.808 122.086 124.808 124.345C124.808 126.636 123.231 128.213 120.956 128.213ZM120.891 126.718C122.143 126.718 123.036 125.791 123.036 124.378C123.036 122.948 122.126 122.021 120.794 122.021C119.494 122.021 118.633 122.948 118.633 124.313C118.633 125.743 119.575 126.718 120.891 126.718ZM126.599 128.213C125.965 128.213 125.494 127.774 125.494 127.173C125.494 126.571 125.965 126.116 126.599 126.116C127.232 126.116 127.704 126.571 127.704 127.173C127.704 127.774 127.232 128.213 126.599 128.213ZM130.103 124.345C130.152 125.938 131.143 126.718 132.443 126.718C133.841 126.718 134.767 125.791 134.767 124.264C134.767 122.655 133.776 121.761 132.378 121.761C131.419 121.761 130.802 122.184 130.444 122.736H128.722L129.404 116.594H135.969V118.089H130.867L130.493 121.29C130.964 120.705 131.712 120.331 132.768 120.331C134.913 120.331 136.571 121.794 136.571 124.215C136.571 126.588 134.994 128.213 132.508 128.213C130.168 128.213 128.429 126.783 128.364 124.345H130.103ZM138.998 124.345C139.047 125.938 140.038 126.718 141.338 126.718C142.735 126.718 143.662 125.791 143.662 124.264C143.662 122.655 142.671 121.761 141.273 121.761C140.314 121.761 139.697 122.184 139.339 122.736H137.617L138.299 116.594H144.864V118.089H139.762L139.388 121.29C139.859 120.705 140.607 120.331 141.663 120.331C143.808 120.331 145.466 121.794 145.466 124.215C145.466 126.588 143.889 128.213 141.403 128.213C139.063 128.213 137.324 126.783 137.259 124.345H138.998Z" fill="#141515"/>
<g filter="url(#filter4_dddd_4117_19548)">
<path d="M100.208 142.865C100.208 142.117 99.6021 141.511 98.8542 141.511C98.1063 141.511 97.5 142.117 97.5 142.865C97.5 143.613 98.1063 144.219 98.8542 144.219C99.6021 144.219 100.208 143.613 100.208 142.865Z" fill="#A1A5A5"/>
</g>
<path d="M109.274 141.51C109.211 141.316 109.127 141.142 109.023 140.988C108.921 140.832 108.799 140.7 108.656 140.59C108.516 140.48 108.356 140.396 108.177 140.339C107.999 140.281 107.802 140.252 107.589 140.252C107.239 140.252 106.921 140.343 106.634 140.524C106.347 140.704 106.119 140.971 105.95 141.323C105.781 141.675 105.696 142.107 105.696 142.618C105.696 143.13 105.782 143.562 105.953 143.914C106.124 144.266 106.356 144.532 106.649 144.713C106.94 144.894 107.269 144.984 107.635 144.984C107.974 144.984 108.272 144.912 108.529 144.768C108.789 144.621 108.991 144.416 109.135 144.15C109.282 143.883 109.355 143.569 109.355 143.207L109.574 143.253H107.797V142.618H110.047V143.253C110.047 143.74 109.943 144.163 109.735 144.523C109.53 144.882 109.245 145.161 108.882 145.359C108.52 145.555 108.104 145.653 107.635 145.653C107.112 145.653 106.652 145.531 106.256 145.284C105.862 145.038 105.554 144.688 105.332 144.234C105.114 143.78 105.004 143.241 105.004 142.618C105.004 142.151 105.066 141.73 105.191 141.357C105.318 140.982 105.497 140.663 105.728 140.399C105.959 140.136 106.232 139.934 106.547 139.793C106.863 139.653 107.21 139.583 107.589 139.583C107.9 139.583 108.191 139.63 108.46 139.724C108.731 139.817 108.973 139.948 109.184 140.119C109.398 140.289 109.576 140.492 109.718 140.728C109.861 140.963 109.959 141.224 110.012 141.51H109.274ZM111.18 145.573V141.141H111.838V141.81H111.884C111.965 141.591 112.111 141.413 112.323 141.277C112.534 141.14 112.773 141.071 113.038 141.071C113.088 141.071 113.151 141.073 113.226 141.075C113.301 141.076 113.358 141.08 113.396 141.083V141.776C113.373 141.77 113.321 141.761 113.237 141.75C113.157 141.736 113.071 141.73 112.981 141.73C112.765 141.73 112.573 141.775 112.404 141.865C112.237 141.954 112.104 142.077 112.006 142.235C111.909 142.39 111.861 142.568 111.861 142.768V145.573H111.18ZM115.869 145.665C115.469 145.665 115.117 145.57 114.816 145.379C114.516 145.189 114.281 144.923 114.112 144.58C113.944 144.237 113.861 143.837 113.861 143.38C113.861 142.919 113.944 142.515 114.112 142.171C114.281 141.826 114.516 141.559 114.816 141.369C115.117 141.178 115.469 141.083 115.869 141.083C116.269 141.083 116.619 141.178 116.919 141.369C117.221 141.559 117.456 141.826 117.623 142.171C117.793 142.515 117.877 142.919 117.877 143.38C117.877 143.837 117.793 144.237 117.623 144.58C117.456 144.923 117.221 145.189 116.919 145.379C116.619 145.57 116.269 145.665 115.869 145.665ZM115.869 145.053C116.173 145.053 116.423 144.975 116.619 144.82C116.816 144.664 116.961 144.459 117.055 144.205C117.149 143.951 117.196 143.676 117.196 143.38C117.196 143.084 117.149 142.807 117.055 142.552C116.961 142.296 116.816 142.089 116.619 141.931C116.423 141.774 116.173 141.695 115.869 141.695C115.565 141.695 115.315 141.774 115.119 141.931C114.922 142.089 114.778 142.296 114.683 142.552C114.589 142.807 114.542 143.084 114.542 143.38C114.542 143.676 114.589 143.951 114.683 144.205C114.778 144.459 114.922 144.664 115.119 144.82C115.315 144.975 115.565 145.053 115.869 145.053ZM122.056 142.133L121.444 142.306C121.406 142.205 121.349 142.105 121.274 142.009C121.2 141.911 121.101 141.83 120.974 141.767C120.847 141.704 120.684 141.672 120.486 141.672C120.215 141.672 119.989 141.734 119.808 141.86C119.629 141.982 119.54 142.139 119.54 142.329C119.54 142.499 119.601 142.633 119.724 142.731C119.848 142.828 120.04 142.91 120.301 142.976L120.959 143.137C121.355 143.233 121.651 143.381 121.845 143.579C122.039 143.775 122.137 144.028 122.137 144.338C122.137 144.592 122.064 144.818 121.917 145.019C121.773 145.219 121.571 145.376 121.311 145.492C121.051 145.607 120.749 145.665 120.406 145.665C119.953 145.665 119.579 145.567 119.283 145.371C118.987 145.175 118.799 144.888 118.72 144.511L119.367 144.349C119.428 144.588 119.544 144.767 119.716 144.886C119.889 145.005 120.115 145.065 120.394 145.065C120.711 145.065 120.963 144.998 121.15 144.863C121.339 144.726 121.433 144.563 121.433 144.372C121.433 144.219 121.378 144.09 121.271 143.986C121.163 143.88 120.998 143.801 120.775 143.749L120.036 143.576C119.63 143.48 119.332 143.331 119.141 143.129C118.953 142.925 118.859 142.67 118.859 142.364C118.859 142.114 118.929 141.893 119.07 141.7C119.212 141.508 119.405 141.357 119.649 141.247C119.896 141.138 120.175 141.083 120.486 141.083C120.925 141.083 121.269 141.179 121.519 141.371C121.771 141.564 121.95 141.818 122.056 142.133ZM126.301 142.133L125.689 142.306C125.651 142.205 125.594 142.105 125.519 142.009C125.446 141.911 125.346 141.83 125.219 141.767C125.092 141.704 124.929 141.672 124.731 141.672C124.46 141.672 124.234 141.734 124.053 141.86C123.874 141.982 123.785 142.139 123.785 142.329C123.785 142.499 123.846 142.633 123.97 142.731C124.092 142.828 124.285 142.91 124.547 142.976L125.204 143.137C125.601 143.233 125.896 143.381 126.09 143.579C126.285 143.775 126.381 144.028 126.381 144.338C126.381 144.592 126.308 144.818 126.162 145.019C126.018 145.219 125.816 145.376 125.556 145.492C125.297 145.607 124.995 145.665 124.65 145.665C124.199 145.665 123.824 145.567 123.528 145.371C123.232 145.175 123.044 144.888 122.966 144.511L123.612 144.349C123.673 144.588 123.79 144.767 123.961 144.886C124.134 145.005 124.36 145.065 124.639 145.065C124.956 145.065 125.208 144.998 125.395 144.863C125.583 144.726 125.677 144.563 125.677 144.372C125.677 144.219 125.624 144.09 125.516 143.986C125.408 143.88 125.243 143.801 125.02 143.749L124.281 143.576C123.875 143.48 123.577 143.331 123.387 143.129C123.198 142.925 123.104 142.67 123.104 142.364C123.104 142.114 123.174 141.893 123.314 141.7C123.456 141.508 123.65 141.357 123.895 141.247C124.14 141.138 124.419 141.083 124.731 141.083C125.169 141.083 125.514 141.179 125.764 141.371C126.016 141.564 126.195 141.818 126.301 142.133ZM129.784 145.573V139.664H131.781C132.242 139.664 132.621 139.742 132.917 139.9C133.214 140.056 133.433 140.27 133.575 140.543C133.718 140.817 133.789 141.128 133.789 141.476C133.789 141.824 133.718 142.132 133.575 142.402C133.433 142.671 133.215 142.883 132.92 143.036C132.626 143.189 132.25 143.265 131.792 143.265H130.177V142.618H131.769C132.085 142.618 132.338 142.572 132.531 142.48C132.725 142.387 132.865 142.256 132.952 142.087C133.041 141.916 133.085 141.712 133.085 141.476C133.085 141.239 133.041 141.032 132.952 140.855C132.864 140.678 132.722 140.542 132.528 140.446C132.334 140.348 132.077 140.298 131.757 140.298H130.499V145.573H129.784ZM132.565 142.919L134.02 145.573H133.189L131.757 142.919H132.565ZM136.7 145.665C136.272 145.665 135.904 145.571 135.595 145.382C135.286 145.192 135.049 144.926 134.882 144.586C134.716 144.244 134.634 143.845 134.634 143.391C134.634 142.937 134.716 142.537 134.882 142.191C135.049 141.843 135.282 141.572 135.58 141.377C135.88 141.181 136.23 141.083 136.63 141.083C136.861 141.083 137.089 141.122 137.314 141.199C137.539 141.275 137.744 141.4 137.928 141.574C138.113 141.745 138.26 141.972 138.37 142.254C138.48 142.537 138.534 142.885 138.534 143.299V143.587H135.119V142.999H137.842C137.842 142.749 137.792 142.526 137.692 142.329C137.594 142.133 137.453 141.979 137.27 141.865C137.09 141.752 136.876 141.695 136.63 141.695C136.359 141.695 136.124 141.762 135.926 141.897C135.73 142.029 135.579 142.203 135.473 142.416C135.367 142.629 135.314 142.858 135.314 143.103V143.495C135.314 143.83 135.372 144.114 135.488 144.346C135.605 144.577 135.767 144.753 135.975 144.875C136.183 144.994 136.424 145.053 136.7 145.053C136.878 145.053 137.04 145.028 137.184 144.978C137.331 144.926 137.457 144.85 137.562 144.747C137.668 144.644 137.75 144.514 137.807 144.361L138.465 144.546C138.396 144.768 138.28 144.965 138.116 145.134C137.953 145.301 137.75 145.433 137.51 145.527C137.27 145.619 136.999 145.665 136.7 145.665ZM143.059 141.141L141.42 145.573H140.728L139.089 141.141H139.828L141.051 144.672H141.097L142.321 141.141H143.059ZM145.657 145.665C145.231 145.665 144.862 145.571 144.552 145.382C144.245 145.192 144.007 144.926 143.84 144.586C143.674 144.244 143.592 143.845 143.592 143.391C143.592 142.937 143.674 142.537 143.84 142.191C144.007 141.843 144.24 141.572 144.538 141.377C144.838 141.181 145.188 141.083 145.588 141.083C145.819 141.083 146.047 141.122 146.272 141.199C146.497 141.275 146.702 141.4 146.887 141.574C147.071 141.745 147.219 141.972 147.328 142.254C147.437 142.537 147.492 142.885 147.492 143.299V143.587H144.076V142.999H146.8C146.8 142.749 146.75 142.526 146.65 142.329C146.552 142.133 146.412 141.979 146.229 141.865C146.048 141.752 145.835 141.695 145.588 141.695C145.317 141.695 145.082 141.762 144.884 141.897C144.688 142.029 144.537 142.203 144.431 142.416C144.326 142.629 144.273 142.858 144.273 143.103V143.495C144.273 143.83 144.33 144.114 144.445 144.346C144.563 144.577 144.726 144.753 144.934 144.875C145.141 144.994 145.382 145.053 145.657 145.053C145.836 145.053 145.998 145.028 146.142 144.978C146.288 144.926 146.414 144.85 146.52 144.747C146.626 144.644 146.707 144.514 146.766 144.361L147.423 144.546C147.354 144.768 147.238 144.965 147.074 145.134C146.911 145.301 146.709 145.433 146.468 145.527C146.228 145.619 145.957 145.665 145.657 145.665ZM149.209 142.906V145.573H148.528V141.141H149.186V141.833H149.244C149.347 141.608 149.505 141.428 149.717 141.291C149.928 141.153 150.202 141.083 150.536 141.083C150.836 141.083 151.099 141.145 151.325 141.268C151.549 141.389 151.724 141.574 151.849 141.822C151.975 142.068 152.037 142.38 152.037 142.757V145.573H151.356V142.803C151.356 142.455 151.266 142.183 151.085 141.989C150.904 141.793 150.656 141.695 150.34 141.695C150.123 141.695 149.928 141.742 149.758 141.837C149.588 141.931 149.454 142.068 149.356 142.249C149.258 142.43 149.209 142.649 149.209 142.906ZM156.074 143.761V141.141H156.755V145.573H156.074V144.822H156.028C155.924 145.047 155.763 145.239 155.543 145.397C155.324 145.552 155.047 145.63 154.712 145.63C154.435 145.63 154.189 145.57 153.974 145.449C153.758 145.326 153.589 145.141 153.466 144.895C153.343 144.646 153.281 144.334 153.281 143.957V141.141H153.962V143.91C153.962 144.234 154.053 144.491 154.233 144.684C154.416 144.877 154.649 144.973 154.931 144.973C155.101 144.973 155.273 144.929 155.448 144.843C155.625 144.756 155.773 144.623 155.892 144.445C156.013 144.266 156.074 144.038 156.074 143.761ZM159.861 145.665C159.433 145.665 159.065 145.571 158.756 145.382C158.447 145.192 158.21 144.926 158.043 144.586C157.877 144.244 157.795 143.845 157.795 143.391C157.795 142.937 157.877 142.537 158.043 142.191C158.21 141.843 158.443 141.572 158.741 141.377C159.041 141.181 159.391 141.083 159.791 141.083C160.022 141.083 160.25 141.122 160.475 141.199C160.7 141.275 160.905 141.4 161.089 141.574C161.274 141.745 161.421 141.972 161.531 142.254C161.641 142.537 161.695 142.885 161.695 143.299V143.587H158.28V142.999H161.003C161.003 142.749 160.953 142.526 160.853 142.329C160.755 142.133 160.614 141.979 160.432 141.865C160.251 141.752 160.037 141.695 159.791 141.695C159.52 141.695 159.285 141.762 159.087 141.897C158.891 142.029 158.74 142.203 158.634 142.416C158.528 142.629 158.475 142.858 158.475 143.103V143.495C158.475 143.83 158.533 144.114 158.649 144.346C158.766 144.577 158.928 144.753 159.136 144.875C159.344 144.994 159.586 145.053 159.861 145.053C160.039 145.053 160.201 145.028 160.345 144.978C160.492 144.926 160.617 144.85 160.723 144.747C160.829 144.644 160.911 144.514 160.968 144.361L161.626 144.546C161.557 144.768 161.441 144.965 161.277 145.134C161.114 145.301 160.911 145.433 160.671 145.527C160.431 145.619 160.16 145.665 159.861 145.665Z" fill="#646868"/>
<path d="M222.085 112.396H189.585C186.593 112.396 184.168 114.821 184.168 117.813V143.542C184.168 146.534 186.593 148.959 189.585 148.959H222.085C225.076 148.959 227.501 146.534 227.501 143.542V117.813C227.501 114.821 225.076 112.396 222.085 112.396Z" fill="#F5F5F5"/>
<path d="M159.792 159.115H101.562C99.3188 159.115 97.5 160.934 97.5 163.177C97.5 165.421 99.3188 167.24 101.562 167.24H159.792C162.035 167.24 163.854 165.421 163.854 163.177C163.854 160.934 162.035 159.115 159.792 159.115Z" fill="#F5F5F5"/>
<path d="M180.104 171.979H101.562C99.3188 171.979 97.5 173.798 97.5 176.042C97.5 178.285 99.3188 180.104 101.562 180.104H180.104C182.348 180.104 184.167 178.285 184.167 176.042C184.167 173.798 182.348 171.979 180.104 171.979Z" fill="#F5F5F5"/>
<path d="M238.335 166.562H86.668V180.104H238.335V166.562Z" fill="url(#paint3_linear_4117_19548)"/>
<g filter="url(#filter5_ddddiii_4117_19548)">
<path d="M81.2513 169.271C81.2513 164.784 77.6133 161.146 73.1263 161.146H29.793C25.3057 161.146 21.668 164.784 21.668 169.271V212.604C21.668 217.091 25.3057 220.729 29.793 220.729H44.7239C46.4603 220.729 48.151 220.173 49.5482 219.142L77.9505 198.184C80.0265 196.652 81.2513 194.226 81.2513 191.646V169.271Z" fill="white"/>
</g>
<g opacity="0.4" filter="url(#filter6_ddddiii_4117_19548)">
<path d="M21.668 147.604C21.668 152.091 25.3057 155.729 29.793 155.729H73.1263C77.6133 155.729 81.2513 152.091 81.2513 147.604V104.27C81.2513 99.7833 77.6133 96.1454 73.1263 96.1454H58.1953C56.459 96.1454 54.7683 96.7019 53.3711 97.7324L24.9687 118.69C22.893 120.222 21.668 122.648 21.668 125.228V147.604Z" fill="white"/>
</g>
<g filter="url(#filter7_d_4117_19548)">
<rect x="43.1914" y="56.0289" width="76.1184" height="17.1053" fill="white" shape-rendering="crispEdges"/>
<rect x="43.4052" y="56.2427" width="75.6908" height="16.6776" stroke="black" stroke-width="0.427632" shape-rendering="crispEdges"/>
<path d="M48.3093 66.0816V61.7961H48.8764V66.0816H48.3093ZM50.2154 66.0816V61.7961H50.7971L53.048 65.1607V61.7961H53.5917V66.0816H53.01L50.7591 62.714V66.0816H50.2154ZM54.6179 64.7953V64.2662H56.2345V64.7953H54.6179ZM59.2309 64.4007V63.8979L61.0462 63.895V65.4852C60.7675 65.7074 60.4801 65.875 60.1839 65.988C59.8876 66.0991 59.5836 66.1547 59.2718 66.1547C58.8509 66.1547 58.4679 66.065 58.123 65.8857C57.78 65.7045 57.5208 65.4433 57.3454 65.1023C57.17 64.7612 57.0823 64.3802 57.0823 63.9593C57.0823 63.5422 57.169 63.1534 57.3425 62.7929C57.5178 62.4304 57.7692 62.1615 58.0967 61.9861C58.4241 61.8107 58.8012 61.723 59.228 61.723C59.5378 61.723 59.8175 61.7737 60.0669 61.875C60.3183 61.9744 60.5152 62.1137 60.6574 62.293C60.7997 62.4723 60.9079 62.7062 60.9819 62.9946L60.4703 63.1349C60.406 62.9167 60.3261 62.7452 60.2306 62.6204C60.1351 62.4957 59.9987 62.3963 59.8214 62.3223C59.644 62.2463 59.4472 62.2083 59.2309 62.2083C58.9717 62.2083 58.7476 62.2482 58.5585 62.3281C58.3695 62.4061 58.2165 62.5093 58.0996 62.638C57.9846 62.7666 57.8949 62.9079 57.8306 63.0618C57.7215 63.3269 57.6669 63.6143 57.6669 63.9242C57.6669 64.3062 57.7322 64.6258 57.8628 64.883C57.9953 65.1403 58.1873 65.3313 58.4387 65.456C58.6901 65.5807 58.9571 65.6431 59.2397 65.6431C59.4852 65.6431 59.7249 65.5963 59.9588 65.5028C60.1926 65.4073 60.37 65.3059 60.4908 65.1987V64.4007H59.2309ZM61.7567 66.0816L63.4025 61.7961H64.0134L65.7674 66.0816H65.1213L64.6215 64.7836H62.8295L62.3589 66.0816H61.7567ZM62.9932 64.3218H64.4461L63.9988 63.1349C63.8624 62.7744 63.761 62.4782 63.6948 62.2463C63.6402 62.521 63.5632 62.7939 63.4638 63.0648L62.9932 64.3218ZM66.5451 66.0816V61.7961H67.3986L68.413 64.8304C68.5066 65.113 68.5748 65.3244 68.6176 65.4648C68.6664 65.3089 68.7424 65.0799 68.8457 64.7778L69.8717 61.7961H70.6347V66.0816H70.088V62.4947L68.8427 66.0816H68.3312L67.0917 62.4333V66.0816H66.5451ZM71.9035 66.0816V61.7961H75.0021V62.3018H72.4706V63.6143H74.8414V64.1171H72.4706V65.5758H75.1015V66.0816H71.9035ZM81.2932 64.579L81.8603 64.7223C81.7414 65.188 81.527 65.5437 81.2172 65.7892C80.9092 66.0329 80.5321 66.1547 80.0859 66.1547C79.624 66.1547 79.2479 66.0611 78.9575 65.874C78.669 65.685 78.4488 65.4121 78.2968 65.0555C78.1468 64.6989 78.0717 64.3159 78.0717 63.9067C78.0717 63.4604 78.1565 63.0716 78.3261 62.7403C78.4976 62.407 78.7402 62.1547 79.0539 61.9832C79.3697 61.8097 79.7166 61.723 80.0946 61.723C80.5234 61.723 80.8839 61.8321 81.1762 62.0504C81.4686 62.2687 81.6722 62.5756 81.7872 62.9712L81.2289 63.1028C81.1295 62.791 80.9852 62.5639 80.7962 62.4216C80.6072 62.2794 80.3694 62.2083 80.0829 62.2083C79.7536 62.2083 79.4778 62.2872 79.2557 62.445C79.0354 62.6029 78.8805 62.8153 78.7909 63.0823C78.7012 63.3473 78.6564 63.6212 78.6564 63.9037C78.6564 64.2682 78.709 64.5868 78.8142 64.8596C78.9214 65.1305 79.0871 65.3332 79.3112 65.4677C79.5353 65.6022 79.7779 65.6694 80.0391 65.6694C80.3567 65.6694 80.6257 65.5778 80.8459 65.3946C81.0661 65.2114 81.2152 64.9396 81.2932 64.579ZM85.7161 61.7961H86.2833V64.2721C86.2833 64.7028 86.2345 65.0448 86.1371 65.2981C86.0397 65.5515 85.8633 65.7581 85.608 65.9179C85.3546 66.0757 85.0214 66.1547 84.6082 66.1547C84.2068 66.1547 83.8784 66.0855 83.6231 65.9471C83.3678 65.8087 83.1856 65.609 83.0764 65.3478C82.9673 65.0847 82.9127 64.7262 82.9127 64.2721V61.7961H83.4798V64.2692C83.4798 64.6414 83.514 64.9162 83.5822 65.0935C83.6523 65.2689 83.7712 65.4044 83.9388 65.4998C84.1083 65.5953 84.3149 65.6431 84.5585 65.6431C84.9756 65.6431 85.2728 65.5486 85.4501 65.3595C85.6275 65.1705 85.7161 64.807 85.7161 64.2692V61.7961ZM87.5813 66.0816V61.7961H89.4814C89.8634 61.7961 90.1537 61.835 90.3525 61.913C90.5513 61.989 90.7101 62.1244 90.829 62.3193C90.9479 62.5142 91.0073 62.7296 91.0073 62.9654C91.0073 63.2694 90.9089 63.5257 90.7121 63.7342C90.5153 63.9427 90.2112 64.0752 89.8 64.1318C89.9501 64.2039 90.0641 64.275 90.142 64.3452C90.3077 64.4972 90.4646 64.6872 90.6127 64.9152L91.3581 66.0816H90.6449L90.0777 65.19C89.9121 64.9327 89.7757 64.7359 89.6685 64.5995C89.5613 64.4631 89.4648 64.3676 89.3791 64.313C89.2953 64.2584 89.2095 64.2204 89.1218 64.199C89.0575 64.1854 88.9523 64.1785 88.8061 64.1785H88.1484V66.0816H87.5813ZM88.1484 63.6874H89.3674C89.6266 63.6874 89.8293 63.6611 89.9754 63.6085C90.1216 63.5539 90.2327 63.4682 90.3087 63.3512C90.3847 63.2324 90.4227 63.1037 90.4227 62.9654C90.4227 62.7627 90.3486 62.5961 90.2005 62.4655C90.0544 62.3349 89.8224 62.2696 89.5048 62.2696H88.1484V63.6874ZM92.2498 66.0816V61.7961H94.1499C94.5319 61.7961 94.8223 61.835 95.0211 61.913C95.2198 61.989 95.3787 62.1244 95.4976 62.3193C95.6164 62.5142 95.6759 62.7296 95.6759 62.9654C95.6759 63.2694 95.5775 63.5257 95.3806 63.7342C95.1838 63.9427 94.8798 64.0752 94.4686 64.1318C94.6186 64.2039 94.7326 64.275 94.8106 64.3452C94.9762 64.4972 95.1331 64.6872 95.2812 64.9152L96.0267 66.0816H95.3134L94.7463 65.19C94.5806 64.9327 94.4442 64.7359 94.337 64.5995C94.2298 64.4631 94.1334 64.3676 94.0476 64.313C93.9638 64.2584 93.8781 64.2204 93.7904 64.199C93.7261 64.1854 93.6208 64.1785 93.4747 64.1785H92.8169V66.0816H92.2498ZM92.8169 63.6874H94.0359C94.2951 63.6874 94.4978 63.6611 94.644 63.6085C94.7901 63.5539 94.9012 63.4682 94.9772 63.3512C95.0532 63.2324 95.0912 63.1037 95.0912 62.9654C95.0912 62.7627 95.0172 62.5961 94.869 62.4655C94.7229 62.3349 94.491 62.2696 94.1733 62.2696H92.8169V63.6874ZM96.9213 66.0816V61.7961H100.02V62.3018H97.4884V63.6143H99.8591V64.1171H97.4884V65.5758H100.119V66.0816H96.9213ZM101.239 66.0816V61.7961H101.821L104.072 65.1607V61.7961H104.615V66.0816H104.034L101.783 62.714V66.0816H101.239ZM108.971 64.579L109.538 64.7223C109.419 65.188 109.205 65.5437 108.895 65.7892C108.587 66.0329 108.21 66.1547 107.764 66.1547C107.302 66.1547 106.926 66.0611 106.635 65.874C106.347 65.685 106.127 65.4121 105.975 65.0555C105.825 64.6989 105.75 64.3159 105.75 63.9067C105.75 63.4604 105.834 63.0716 106.004 62.7403C106.176 62.407 106.418 62.1547 106.732 61.9832C107.048 61.8097 107.395 61.723 107.773 61.723C108.201 61.723 108.562 61.8321 108.854 62.0504C109.147 62.2687 109.35 62.5756 109.465 62.9712L108.907 63.1028C108.807 62.791 108.663 62.5639 108.474 62.4216C108.285 62.2794 108.047 62.2083 107.761 62.2083C107.432 62.2083 107.156 62.2872 106.934 62.445C106.713 62.6029 106.558 62.8153 106.469 63.0823C106.379 63.3473 106.334 63.6212 106.334 63.9037C106.334 64.2682 106.387 64.5868 106.492 64.8596C106.599 65.1305 106.765 65.3332 106.989 65.4677C107.213 65.6022 107.456 65.6694 107.717 65.6694C108.035 65.6694 108.304 65.5778 108.524 65.3946C108.744 65.2114 108.893 64.9396 108.971 64.579ZM111.789 66.0816V64.2662L110.138 61.7961H110.827L111.672 63.0882C111.828 63.3298 111.973 63.5715 112.108 63.8131C112.236 63.589 112.392 63.3366 112.576 63.056L113.406 61.7961H114.066L112.356 64.2662V66.0816H111.789Z" fill="#0F0F19"/>
</g>
<g filter="url(#filter8_d_4117_19548)">
<rect x="180.033" y="159.943" width="74.8612" height="16.8908" fill="white" shape-rendering="crispEdges"/>
<rect x="180.247" y="160.157" width="74.4336" height="16.4632" stroke="black" stroke-width="0.427632" shape-rendering="crispEdges"/>
<path d="M185.638 170.075V165.789H188.736V166.295H186.205V167.607H188.576V168.11H186.205V169.569H188.836V170.075H185.638ZM189.491 170.075L191.136 165.789H191.747L193.501 170.075H192.855L192.355 168.777H190.563L190.093 170.075H189.491ZM190.727 168.315H192.18L191.733 167.128C191.596 166.768 191.495 166.471 191.429 166.239C191.374 166.514 191.297 166.787 191.198 167.058L190.727 168.315ZM194.305 170.075V165.789H196.205C196.587 165.789 196.878 165.828 197.077 165.906C197.275 165.982 197.434 166.118 197.553 166.312C197.672 166.507 197.731 166.723 197.731 166.959C197.731 167.263 197.633 167.519 197.436 167.727C197.239 167.936 196.935 168.068 196.524 168.125C196.674 168.197 196.788 168.268 196.866 168.338C197.032 168.49 197.189 168.68 197.337 168.908L198.082 170.075H197.369L196.802 169.183C196.636 168.926 196.5 168.729 196.392 168.593C196.285 168.456 196.189 168.361 196.103 168.306C196.019 168.252 195.934 168.214 195.846 168.192C195.782 168.178 195.676 168.172 195.53 168.172H194.872V170.075H194.305ZM194.872 167.681H196.091C196.351 167.681 196.553 167.654 196.699 167.602C196.846 167.547 196.957 167.461 197.033 167.344C197.109 167.226 197.147 167.097 197.147 166.959C197.147 166.756 197.073 166.589 196.925 166.459C196.778 166.328 196.546 166.263 196.229 166.263H194.872V167.681ZM198.959 170.075V165.789H199.541L201.792 169.154V165.789H202.336V170.075H201.754L199.503 166.707V170.075H198.959ZM205.642 170.075V165.789H207.259C207.543 165.789 207.76 165.803 207.91 165.83C208.121 165.865 208.297 165.932 208.439 166.032C208.582 166.129 208.696 166.267 208.782 166.444C208.869 166.621 208.913 166.816 208.913 167.029C208.913 167.393 208.797 167.702 208.565 167.955C208.333 168.207 207.914 168.332 207.308 168.332H206.209V170.075H205.642ZM206.209 167.827H207.317C207.683 167.827 207.944 167.759 208.097 167.622C208.251 167.486 208.328 167.294 208.328 167.046C208.328 166.867 208.283 166.714 208.191 166.587C208.101 166.459 207.982 166.374 207.834 166.333C207.739 166.308 207.563 166.295 207.305 166.295H206.209V167.827ZM209.805 167.987C209.805 167.276 209.996 166.72 210.378 166.318C210.76 165.915 211.253 165.713 211.857 165.713C212.252 165.713 212.609 165.808 212.927 165.997C213.244 166.186 213.486 166.45 213.652 166.789C213.819 167.126 213.903 167.509 213.903 167.938C213.903 168.372 213.815 168.761 213.64 169.104C213.465 169.447 213.216 169.707 212.895 169.885C212.573 170.06 212.226 170.148 211.854 170.148C211.451 170.148 211.09 170.05 210.772 169.855C210.455 169.661 210.214 169.395 210.05 169.057C209.887 168.72 209.805 168.364 209.805 167.987ZM210.389 167.996C210.389 168.513 210.528 168.92 210.805 169.218C211.083 169.514 211.432 169.663 211.851 169.663C212.278 169.663 212.629 169.512 212.903 169.212C213.18 168.912 213.319 168.486 213.319 167.935C213.319 167.586 213.259 167.282 213.14 167.023C213.023 166.762 212.851 166.56 212.623 166.418C212.397 166.273 212.142 166.201 211.86 166.201C211.458 166.201 211.112 166.34 210.822 166.616C210.534 166.891 210.389 167.351 210.389 167.996ZM215.075 170.075V165.789H215.643V170.075H215.075ZM216.982 170.075V165.789H217.563L219.814 169.154V165.789H220.358V170.075H219.776L217.525 166.707V170.075H216.982ZM222.746 170.075V166.295H221.334V165.789H224.731V166.295H223.313V170.075H222.746ZM225.465 168.698L226 168.651C226.025 168.865 226.084 169.042 226.175 169.18C226.269 169.317 226.413 169.428 226.608 169.513C226.803 169.597 227.022 169.639 227.266 169.639C227.482 169.639 227.673 169.607 227.839 169.543C228.004 169.478 228.127 169.391 228.207 169.28C228.289 169.167 228.33 169.044 228.33 168.911C228.33 168.777 228.291 168.66 228.213 168.56C228.135 168.459 228.006 168.374 227.827 168.306C227.712 168.261 227.458 168.192 227.064 168.099C226.67 168.003 226.395 167.913 226.237 167.83C226.032 167.722 225.879 167.59 225.778 167.432C225.678 167.272 225.629 167.094 225.629 166.897C225.629 166.681 225.69 166.479 225.813 166.292C225.936 166.103 226.115 165.96 226.351 165.862C226.587 165.765 226.849 165.716 227.137 165.716C227.455 165.716 227.734 165.768 227.976 165.871C228.22 165.972 228.407 166.122 228.537 166.321C228.668 166.52 228.738 166.745 228.748 166.997L228.204 167.037C228.175 166.767 228.075 166.562 227.906 166.424C227.738 166.285 227.49 166.216 227.16 166.216C226.817 166.216 226.567 166.279 226.409 166.406C226.253 166.531 226.175 166.682 226.175 166.859C226.175 167.013 226.231 167.14 226.342 167.239C226.451 167.339 226.736 167.441 227.196 167.546C227.657 167.649 227.974 167.74 228.146 167.818C228.395 167.933 228.579 168.079 228.698 168.256C228.817 168.432 228.876 168.635 228.876 168.864C228.876 169.092 228.811 169.308 228.681 169.511C228.55 169.711 228.362 169.868 228.116 169.981C227.873 170.092 227.598 170.148 227.292 170.148C226.904 170.148 226.579 170.091 226.316 169.978C226.055 169.865 225.849 169.696 225.699 169.47C225.551 169.242 225.473 168.984 225.465 168.698Z" fill="#0F0F19"/>
</g>
</g>
<defs>
<filter id="filter0_ddddiii_4117_19548" x="81.2493" y="25.3904" width="162.5" height="206.172" filterUnits="userSpaceOnUse" color-interpolation-filters="sRGB">
<feFlood flood-opacity="0" result="BackgroundImageFix"/>
<feColorMatrix in="SourceAlpha" type="matrix" values="0 0 0 0 0 0 0 0 0 0 0 0 0 0 0 0 0 0 127 0" result="hardAlpha"/>
<feOffset dy="1.35417"/>
<feGaussianBlur stdDeviation="0.677083"/>
<feComposite in2="hardAlpha" operator="out"/>
<feColorMatrix type="matrix" values="0 0 0 0 0 0 0 0 0 0 0 0 0 0 0 0 0 0 0.04 0"/>
<feBlend mode="normal" in2="BackgroundImageFix" result="effect1_dropShadow_4117_19548"/>
<feColorMatrix in="SourceAlpha" type="matrix" values="0 0 0 0 0 0 0 0 0 0 0 0 0 0 0 0 0 0 127 0" result="hardAlpha"/>
<feOffset dy="2.03125"/>
<feGaussianBlur stdDeviation="1.01562"/>
<feComposite in2="hardAlpha" operator="out"/>
<feColorMatrix type="matrix" values="0 0 0 0 0.105882 0 0 0 0 0.105882 0 0 0 0 0.105882 0 0 0 0.03 0"/>
<feBlend mode="normal" in2="effect1_dropShadow_4117_19548" result="effect2_dropShadow_4117_19548"/>
<feColorMatrix in="SourceAlpha" type="matrix" values="0 0 0 0 0 0 0 0 0 0 0 0 0 0 0 0 0 0 127 0" result="hardAlpha"/>
<feOffset dy="2.70833"/>
<feGaussianBlur stdDeviation="1.35417"/>
<feComposite in2="hardAlpha" operator="out"/>
<feColorMatrix type="matrix" values="0 0 0 0 0 0 0 0 0 0 0 0 0 0 0 0 0 0 0.03 0"/>
<feBlend mode="normal" in2="effect2_dropShadow_4117_19548" result="effect3_dropShadow_4117_19548"/>
<feColorMatrix in="SourceAlpha" type="matrix" values="0 0 0 0 0 0 0 0 0 0 0 0 0 0 0 0 0 0 127 0" result="hardAlpha"/>
<feOffset dy="5.41667"/>
<feGaussianBlur stdDeviation="2.70833"/>
<feComposite in2="hardAlpha" operator="out"/>
<feColorMatrix type="matrix" values="0 0 0 0 0 0 0 0 0 0 0 0 0 0 0 0 0 0 0.02 0"/>
<feBlend mode="normal" in2="effect3_dropShadow_4117_19548" result="effect4_dropShadow_4117_19548"/>
<feBlend mode="normal" in="SourceGraphic" in2="effect4_dropShadow_4117_19548" result="shape"/>
<feColorMatrix in="SourceAlpha" type="matrix" values="0 0 0 0 0 0 0 0 0 0 0 0 0 0 0 0 0 0 127 0" result="hardAlpha"/>
<feOffset/>
<feGaussianBlur stdDeviation="1.35417"/>
<feComposite in2="hardAlpha" operator="arithmetic" k2="-1" k3="1"/>
<feColorMatrix type="matrix" values="0 0 0 0 0 0 0 0 0 0 0 0 0 0 0 0 0 0 0.04 0"/>
<feBlend mode="normal" in2="shape" result="effect5_innerShadow_4117_19548"/>
<feColorMatrix in="SourceAlpha" type="matrix" values="0 0 0 0 0 0 0 0 0 0 0 0 0 0 0 0 0 0 127 0" result="hardAlpha"/>
<feOffset dy="0.338542"/>
<feGaussianBlur stdDeviation="0.338542"/>
<feComposite in2="hardAlpha" operator="arithmetic" k2="-1" k3="1"/>
<feColorMatrix type="matrix" values="0 0 0 0 0 0 0 0 0 0 0 0 0 0 0 0 0 0 0.06 0"/>
<feBlend mode="normal" in2="effect5_innerShadow_4117_19548" result="effect6_innerShadow_4117_19548"/>
<feColorMatrix in="SourceAlpha" type="matrix" values="0 0 0 0 0 0 0 0 0 0 0 0 0 0 0 0 0 0 127 0" result="hardAlpha"/>
<feOffset dy="-0.677083"/>
<feGaussianBlur stdDeviation="0.169271"/>
<feComposite in2="hardAlpha" operator="arithmetic" k2="-1" k3="1"/>
<feColorMatrix type="matrix" values="0 0 0 0 0 0 0 0 0 0 0 0 0 0 0 0 0 0 0.04 0"/>
<feBlend mode="normal" in2="effect6_innerShadow_4117_19548" result="effect7_innerShadow_4117_19548"/>
</filter>
<filter id="filter1_dddddddii_4117_19548" x="130.677" y="188.23" width="118.49" height="65" filterUnits="userSpaceOnUse" color-interpolation-filters="sRGB">
<feFlood flood-opacity="0" result="BackgroundImageFix"/>
<feColorMatrix in="SourceAlpha" type="matrix" values="0 0 0 0 0 0 0 0 0 0 0 0 0 0 0 0 0 0 127 0" result="hardAlpha"/>
<feOffset dy="0.677083"/>
<feGaussianBlur stdDeviation="0.338542"/>
<feComposite in2="hardAlpha" operator="out"/>
<feColorMatrix type="matrix" values="0 0 0 0 0.105882 0 0 0 0 0.105882 0 0 0 0 0.105882 0 0 0 0.12 0"/>
<feBlend mode="normal" in2="BackgroundImageFix" result="effect1_dropShadow_4117_19548"/>
<feColorMatrix in="SourceAlpha" type="matrix" values="0 0 0 0 0 0 0 0 0 0 0 0 0 0 0 0 0 0 127 0" result="hardAlpha"/>
<feOffset dy="1.35417"/>
<feGaussianBlur stdDeviation="0.677083"/>
<feComposite in2="hardAlpha" operator="out"/>
<feColorMatrix type="matrix" values="0 0 0 0 0.105882 0 0 0 0 0.105882 0 0 0 0 0.105882 0 0 0 0.12 0"/>
<feBlend mode="normal" in2="effect1_dropShadow_4117_19548" result="effect2_dropShadow_4117_19548"/>
<feColorMatrix in="SourceAlpha" type="matrix" values="0 0 0 0 0 0 0 0 0 0 0 0 0 0 0 0 0 0 127 0" result="hardAlpha"/>
<feOffset dy="2.03125"/>
<feGaussianBlur stdDeviation="1.01562"/>
<feComposite in2="hardAlpha" operator="out"/>
<feColorMatrix type="matrix" values="0 0 0 0 0.105882 0 0 0 0 0.105882 0 0 0 0 0.105882 0 0 0 0.12 0"/>
<feBlend mode="normal" in2="effect2_dropShadow_4117_19548" result="effect3_dropShadow_4117_19548"/>
<feColorMatrix in="SourceAlpha" type="matrix" values="0 0 0 0 0 0 0 0 0 0 0 0 0 0 0 0 0 0 127 0" result="hardAlpha"/>
<feOffset dy="2.70833"/>
<feGaussianBlur stdDeviation="1.35417"/>
<feComposite in2="hardAlpha" operator="out"/>
<feColorMatrix type="matrix" values="0 0 0 0 0.105882 0 0 0 0 0.105882 0 0 0 0 0.105882 0 0 0 0.12 0"/>
<feBlend mode="normal" in2="effect3_dropShadow_4117_19548" result="effect4_dropShadow_4117_19548"/>
<feColorMatrix in="SourceAlpha" type="matrix" values="0 0 0 0 0 0 0 0 0 0 0 0 0 0 0 0 0 0 127 0" result="hardAlpha"/>
<feOffset dy="5.41667"/>
<feGaussianBlur stdDeviation="2.70833"/>
<feComposite in2="hardAlpha" operator="out"/>
<feColorMatrix type="matrix" values="0 0 0 0 0.105882 0 0 0 0 0.105882 0 0 0 0 0.105882 0 0 0 0.12 0"/>
<feBlend mode="normal" in2="effect4_dropShadow_4117_19548" result="effect5_dropShadow_4117_19548"/>
<feColorMatrix in="SourceAlpha" type="matrix" values="0 0 0 0 0 0 0 0 0 0 0 0 0 0 0 0 0 0 127 0" result="hardAlpha"/>
<feOffset dy="10.8333"/>
<feGaussianBlur stdDeviation="5.41667"/>
<feComposite in2="hardAlpha" operator="out"/>
<feColorMatrix type="matrix" values="0 0 0 0 0.105882 0 0 0 0 0.105882 0 0 0 0 0.105882 0 0 0 0.12 0"/>
<feBlend mode="normal" in2="effect5_dropShadow_4117_19548" result="effect6_dropShadow_4117_19548"/>
<feColorMatrix in="SourceAlpha" type="matrix" values="0 0 0 0 0 0 0 0 0 0 0 0 0 0 0 0 0 0 127 0" result="hardAlpha"/>
<feOffset dy="21.6667"/>
<feGaussianBlur stdDeviation="10.8333"/>
<feComposite in2="hardAlpha" operator="out"/>
<feColorMatrix type="matrix" values="0 0 0 0 0.105882 0 0 0 0 0.105882 0 0 0 0 0.105882 0 0 0 0.12 0"/>
<feBlend mode="normal" in2="effect6_dropShadow_4117_19548" result="effect7_dropShadow_4117_19548"/>
<feBlend mode="normal" in="SourceGraphic" in2="effect7_dropShadow_4117_19548" result="shape"/>
<feColorMatrix in="SourceAlpha" type="matrix" values="0 0 0 0 0 0 0 0 0 0 0 0 0 0 0 0 0 0 127 0" result="hardAlpha"/>
<feOffset dy="0.338542"/>
<feGaussianBlur stdDeviation="0.169271"/>
<feComposite in2="hardAlpha" operator="arithmetic" k2="-1" k3="1"/>
<feColorMatrix type="matrix" values="0 0 0 0 1 0 0 0 0 1 0 0 0 0 1 0 0 0 0.1 0"/>
<feBlend mode="normal" in2="shape" result="effect8_innerShadow_4117_19548"/>
<feColorMatrix in="SourceAlpha" type="matrix" values="0 0 0 0 0 0 0 0 0 0 0 0 0 0 0 0 0 0 127 0" result="hardAlpha"/>
<feOffset dy="0.677083"/>
<feGaussianBlur stdDeviation="0.677083"/>
<feComposite in2="hardAlpha" operator="arithmetic" k2="-1" k3="1"/>
<feColorMatrix type="matrix" values="0 0 0 0 1 0 0 0 0 1 0 0 0 0 1 0 0 0 0.04 0"/>
<feBlend mode="normal" in2="effect8_innerShadow_4117_19548" result="effect9_innerShadow_4117_19548"/>
</filter>
<filter id="filter2_dddd_4117_19548" x="92.0833" y="92.0832" width="94.7913" height="29.1146" filterUnits="userSpaceOnUse" color-interpolation-filters="sRGB">
<feFlood flood-opacity="0" result="BackgroundImageFix"/>
<feColorMatrix in="SourceAlpha" type="matrix" values="0 0 0 0 0 0 0 0 0 0 0 0 0 0 0 0 0 0 127 0" result="hardAlpha"/>
<feOffset dy="0.677083"/>
<feGaussianBlur stdDeviation="1.01562"/>
<feColorMatrix type="matrix" values="0 0 0 0 0.843137 0 0 0 0 1 0 0 0 0 0.321569 0 0 0 0.12 0"/>
<feBlend mode="normal" in2="BackgroundImageFix" result="effect1_dropShadow_4117_19548"/>
<feColorMatrix in="SourceAlpha" type="matrix" values="0 0 0 0 0 0 0 0 0 0 0 0 0 0 0 0 0 0 127 0" result="hardAlpha"/>
<feOffset dy="3.38542"/>
<feGaussianBlur stdDeviation="1.69271"/>
<feColorMatrix type="matrix" values="0 0 0 0 0.843137 0 0 0 0 1 0 0 0 0 0.321569 0 0 0 0.1 0"/>
<feBlend mode="normal" in2="effect1_dropShadow_4117_19548" result="effect2_dropShadow_4117_19548"/>
<feColorMatrix in="SourceAlpha" type="matrix" values="0 0 0 0 0 0 0 0 0 0 0 0 0 0 0 0 0 0 127 0" result="hardAlpha"/>
<feOffset dy="8.125"/>
<feGaussianBlur stdDeviation="2.36979"/>
<feColorMatrix type="matrix" values="0 0 0 0 0.843137 0 0 0 0 1 0 0 0 0 0.321569 0 0 0 0.06 0"/>
<feBlend mode="normal" in2="effect2_dropShadow_4117_19548" result="effect3_dropShadow_4117_19548"/>
<feColorMatrix in="SourceAlpha" type="matrix" values="0 0 0 0 0 0 0 0 0 0 0 0 0 0 0 0 0 0 127 0" result="hardAlpha"/>
<feOffset dy="14.2188"/>
<feGaussianBlur stdDeviation="2.70833"/>
<feColorMatrix type="matrix" values="0 0 0 0 0.843137 0 0 0 0 1 0 0 0 0 0.321569 0 0 0 0.02 0"/>
<feBlend mode="normal" in2="effect3_dropShadow_4117_19548" result="effect4_dropShadow_4117_19548"/>
<feBlend mode="normal" in="SourceGraphic" in2="effect4_dropShadow_4117_19548" result="shape"/>
</filter>
<filter id="filter3_dddd_4117_19548" x="178.749" y="92.0838" width="54.1663" height="29.1146" filterUnits="userSpaceOnUse" color-interpolation-filters="sRGB">
<feFlood flood-opacity="0" result="BackgroundImageFix"/>
<feColorMatrix in="SourceAlpha" type="matrix" values="0 0 0 0 0 0 0 0 0 0 0 0 0 0 0 0 0 0 127 0" result="hardAlpha"/>
<feOffset dy="0.677083"/>
<feGaussianBlur stdDeviation="1.01562"/>
<feColorMatrix type="matrix" values="0 0 0 0 0.631373 0 0 0 0 0.647059 0 0 0 0 0.647059 0 0 0 0.12 0"/>
<feBlend mode="normal" in2="BackgroundImageFix" result="effect1_dropShadow_4117_19548"/>
<feColorMatrix in="SourceAlpha" type="matrix" values="0 0 0 0 0 0 0 0 0 0 0 0 0 0 0 0 0 0 127 0" result="hardAlpha"/>
<feOffset dy="3.38542"/>
<feGaussianBlur stdDeviation="1.69271"/>
<feColorMatrix type="matrix" values="0 0 0 0 0.631373 0 0 0 0 0.647059 0 0 0 0 0.647059 0 0 0 0.1 0"/>
<feBlend mode="normal" in2="effect1_dropShadow_4117_19548" result="effect2_dropShadow_4117_19548"/>
<feColorMatrix in="SourceAlpha" type="matrix" values="0 0 0 0 0 0 0 0 0 0 0 0 0 0 0 0 0 0 127 0" result="hardAlpha"/>
<feOffset dy="8.125"/>
<feGaussianBlur stdDeviation="2.36979"/>
<feColorMatrix type="matrix" values="0 0 0 0 0.631373 0 0 0 0 0.647059 0 0 0 0 0.647059 0 0 0 0.06 0"/>
<feBlend mode="normal" in2="effect2_dropShadow_4117_19548" result="effect3_dropShadow_4117_19548"/>
<feColorMatrix in="SourceAlpha" type="matrix" values="0 0 0 0 0 0 0 0 0 0 0 0 0 0 0 0 0 0 127 0" result="hardAlpha"/>
<feOffset dy="14.2188"/>
<feGaussianBlur stdDeviation="2.70833"/>
<feColorMatrix type="matrix" values="0 0 0 0 0.631373 0 0 0 0 0.647059 0 0 0 0 0.647059 0 0 0 0.02 0"/>
<feBlend mode="normal" in2="effect3_dropShadow_4117_19548" result="effect4_dropShadow_4117_19548"/>
<feBlend mode="normal" in="SourceGraphic" in2="effect4_dropShadow_4117_19548" result="shape"/>
</filter>
<filter id="filter4_dddd_4117_19548" x="92.0833" y="140.157" width="13.5413" height="23.6979" filterUnits="userSpaceOnUse" color-interpolation-filters="sRGB">
<feFlood flood-opacity="0" result="BackgroundImageFix"/>
<feColorMatrix in="SourceAlpha" type="matrix" values="0 0 0 0 0 0 0 0 0 0 0 0 0 0 0 0 0 0 127 0" result="hardAlpha"/>
<feOffset dy="0.677083"/>
<feGaussianBlur stdDeviation="1.01562"/>
<feColorMatrix type="matrix" values="0 0 0 0 0.631373 0 0 0 0 0.647059 0 0 0 0 0.647059 0 0 0 0.12 0"/>
<feBlend mode="normal" in2="BackgroundImageFix" result="effect1_dropShadow_4117_19548"/>
<feColorMatrix in="SourceAlpha" type="matrix" values="0 0 0 0 0 0 0 0 0 0 0 0 0 0 0 0 0 0 127 0" result="hardAlpha"/>
<feOffset dy="3.38542"/>
<feGaussianBlur stdDeviation="1.69271"/>
<feColorMatrix type="matrix" values="0 0 0 0 0.631373 0 0 0 0 0.647059 0 0 0 0 0.647059 0 0 0 0.1 0"/>
<feBlend mode="normal" in2="effect1_dropShadow_4117_19548" result="effect2_dropShadow_4117_19548"/>
<feColorMatrix in="SourceAlpha" type="matrix" values="0 0 0 0 0 0 0 0 0 0 0 0 0 0 0 0 0 0 127 0" result="hardAlpha"/>
<feOffset dy="8.125"/>
<feGaussianBlur stdDeviation="2.36979"/>
<feColorMatrix type="matrix" values="0 0 0 0 0.631373 0 0 0 0 0.647059 0 0 0 0 0.647059 0 0 0 0.06 0"/>
<feBlend mode="normal" in2="effect2_dropShadow_4117_19548" result="effect3_dropShadow_4117_19548"/>
<feColorMatrix in="SourceAlpha" type="matrix" values="0 0 0 0 0 0 0 0 0 0 0 0 0 0 0 0 0 0 127 0" result="hardAlpha"/>
<feOffset dy="14.2188"/>
<feGaussianBlur stdDeviation="2.70833"/>
<feColorMatrix type="matrix" values="0 0 0 0 0.631373 0 0 0 0 0.647059 0 0 0 0 0.647059 0 0 0 0.02 0"/>
<feBlend mode="normal" in2="effect3_dropShadow_4117_19548" result="effect4_dropShadow_4117_19548"/>
<feBlend mode="normal" in="SourceGraphic" in2="effect4_dropShadow_4117_19548" result="shape"/>
</filter>
<filter id="filter5_ddddiii_4117_19548" x="16.2513" y="160.807" width="70.4163" height="70.7552" filterUnits="userSpaceOnUse" color-interpolation-filters="sRGB">
<feFlood flood-opacity="0" result="BackgroundImageFix"/>
<feColorMatrix in="SourceAlpha" type="matrix" values="0 0 0 0 0 0 0 0 0 0 0 0 0 0 0 0 0 0 127 0" result="hardAlpha"/>
<feOffset dy="1.35417"/>
<feGaussianBlur stdDeviation="0.677083"/>
<feComposite in2="hardAlpha" operator="out"/>
<feColorMatrix type="matrix" values="0 0 0 0 0 0 0 0 0 0 0 0 0 0 0 0 0 0 0.04 0"/>
<feBlend mode="normal" in2="BackgroundImageFix" result="effect1_dropShadow_4117_19548"/>
<feColorMatrix in="SourceAlpha" type="matrix" values="0 0 0 0 0 0 0 0 0 0 0 0 0 0 0 0 0 0 127 0" result="hardAlpha"/>
<feOffset dy="2.03125"/>
<feGaussianBlur stdDeviation="1.01562"/>
<feComposite in2="hardAlpha" operator="out"/>
<feColorMatrix type="matrix" values="0 0 0 0 0.105882 0 0 0 0 0.105882 0 0 0 0 0.105882 0 0 0 0.03 0"/>
<feBlend mode="normal" in2="effect1_dropShadow_4117_19548" result="effect2_dropShadow_4117_19548"/>
<feColorMatrix in="SourceAlpha" type="matrix" values="0 0 0 0 0 0 0 0 0 0 0 0 0 0 0 0 0 0 127 0" result="hardAlpha"/>
<feOffset dy="2.70833"/>
<feGaussianBlur stdDeviation="1.35417"/>
<feComposite in2="hardAlpha" operator="out"/>
<feColorMatrix type="matrix" values="0 0 0 0 0 0 0 0 0 0 0 0 0 0 0 0 0 0 0.03 0"/>
<feBlend mode="normal" in2="effect2_dropShadow_4117_19548" result="effect3_dropShadow_4117_19548"/>
<feColorMatrix in="SourceAlpha" type="matrix" values="0 0 0 0 0 0 0 0 0 0 0 0 0 0 0 0 0 0 127 0" result="hardAlpha"/>
<feOffset dy="5.41667"/>
<feGaussianBlur stdDeviation="2.70833"/>
<feComposite in2="hardAlpha" operator="out"/>
<feColorMatrix type="matrix" values="0 0 0 0 0 0 0 0 0 0 0 0 0 0 0 0 0 0 0.02 0"/>
<feBlend mode="normal" in2="effect3_dropShadow_4117_19548" result="effect4_dropShadow_4117_19548"/>
<feBlend mode="normal" in="SourceGraphic" in2="effect4_dropShadow_4117_19548" result="shape"/>
<feColorMatrix in="SourceAlpha" type="matrix" values="0 0 0 0 0 0 0 0 0 0 0 0 0 0 0 0 0 0 127 0" result="hardAlpha"/>
<feOffset/>
<feGaussianBlur stdDeviation="1.35417"/>
<feComposite in2="hardAlpha" operator="arithmetic" k2="-1" k3="1"/>
<feColorMatrix type="matrix" values="0 0 0 0 0 0 0 0 0 0 0 0 0 0 0 0 0 0 0.04 0"/>
<feBlend mode="normal" in2="shape" result="effect5_innerShadow_4117_19548"/>
<feColorMatrix in="SourceAlpha" type="matrix" values="0 0 0 0 0 0 0 0 0 0 0 0 0 0 0 0 0 0 127 0" result="hardAlpha"/>
<feOffset dy="0.338542"/>
<feGaussianBlur stdDeviation="0.338542"/>
<feComposite in2="hardAlpha" operator="arithmetic" k2="-1" k3="1"/>
<feColorMatrix type="matrix" values="0 0 0 0 0 0 0 0 0 0 0 0 0 0 0 0 0 0 0.06 0"/>
<feBlend mode="normal" in2="effect5_innerShadow_4117_19548" result="effect6_innerShadow_4117_19548"/>
<feColorMatrix in="SourceAlpha" type="matrix" values="0 0 0 0 0 0 0 0 0 0 0 0 0 0 0 0 0 0 127 0" result="hardAlpha"/>
<feOffset dy="-0.677083"/>
<feGaussianBlur stdDeviation="0.169271"/>
<feComposite in2="hardAlpha" operator="arithmetic" k2="-1" k3="1"/>
<feColorMatrix type="matrix" values="0 0 0 0 0 0 0 0 0 0 0 0 0 0 0 0 0 0 0.04 0"/>
<feBlend mode="normal" in2="effect6_innerShadow_4117_19548" result="effect7_innerShadow_4117_19548"/>
</filter>
<filter id="filter6_ddddiii_4117_19548" x="16.2513" y="95.8068" width="70.4163" height="70.7552" filterUnits="userSpaceOnUse" color-interpolation-filters="sRGB">
<feFlood flood-opacity="0" result="BackgroundImageFix"/>
<feColorMatrix in="SourceAlpha" type="matrix" values="0 0 0 0 0 0 0 0 0 0 0 0 0 0 0 0 0 0 127 0" result="hardAlpha"/>
<feOffset dy="1.35417"/>
<feGaussianBlur stdDeviation="0.677083"/>
<feComposite in2="hardAlpha" operator="out"/>
<feColorMatrix type="matrix" values="0 0 0 0 0 0 0 0 0 0 0 0 0 0 0 0 0 0 0.04 0"/>
<feBlend mode="normal" in2="BackgroundImageFix" result="effect1_dropShadow_4117_19548"/>
<feColorMatrix in="SourceAlpha" type="matrix" values="0 0 0 0 0 0 0 0 0 0 0 0 0 0 0 0 0 0 127 0" result="hardAlpha"/>
<feOffset dy="2.03125"/>
<feGaussianBlur stdDeviation="1.01562"/>
<feComposite in2="hardAlpha" operator="out"/>
<feColorMatrix type="matrix" values="0 0 0 0 0.105882 0 0 0 0 0.105882 0 0 0 0 0.105882 0 0 0 0.03 0"/>
<feBlend mode="normal" in2="effect1_dropShadow_4117_19548" result="effect2_dropShadow_4117_19548"/>
<feColorMatrix in="SourceAlpha" type="matrix" values="0 0 0 0 0 0 0 0 0 0 0 0 0 0 0 0 0 0 127 0" result="hardAlpha"/>
<feOffset dy="2.70833"/>
<feGaussianBlur stdDeviation="1.35417"/>
<feComposite in2="hardAlpha" operator="out"/>
<feColorMatrix type="matrix" values="0 0 0 0 0 0 0 0 0 0 0 0 0 0 0 0 0 0 0.03 0"/>
<feBlend mode="normal" in2="effect2_dropShadow_4117_19548" result="effect3_dropShadow_4117_19548"/>
<feColorMatrix in="SourceAlpha" type="matrix" values="0 0 0 0 0 0 0 0 0 0 0 0 0 0 0 0 0 0 127 0" result="hardAlpha"/>
<feOffset dy="5.41667"/>
<feGaussianBlur stdDeviation="2.70833"/>
<feComposite in2="hardAlpha" operator="out"/>
<feColorMatrix type="matrix" values="0 0 0 0 0 0 0 0 0 0 0 0 0 0 0 0 0 0 0.02 0"/>
<feBlend mode="normal" in2="effect3_dropShadow_4117_19548" result="effect4_dropShadow_4117_19548"/>
<feBlend mode="normal" in="SourceGraphic" in2="effect4_dropShadow_4117_19548" result="shape"/>
<feColorMatrix in="SourceAlpha" type="matrix" values="0 0 0 0 0 0 0 0 0 0 0 0 0 0 0 0 0 0 127 0" result="hardAlpha"/>
<feOffset/>
<feGaussianBlur stdDeviation="1.35417"/>
<feComposite in2="hardAlpha" operator="arithmetic" k2="-1" k3="1"/>
<feColorMatrix type="matrix" values="0 0 0 0 0 0 0 0 0 0 0 0 0 0 0 0 0 0 0.04 0"/>
<feBlend mode="normal" in2="shape" result="effect5_innerShadow_4117_19548"/>
<feColorMatrix in="SourceAlpha" type="matrix" values="0 0 0 0 0 0 0 0 0 0 0 0 0 0 0 0 0 0 127 0" result="hardAlpha"/>
<feOffset dy="0.338542"/>
<feGaussianBlur stdDeviation="0.338542"/>
<feComposite in2="hardAlpha" operator="arithmetic" k2="-1" k3="1"/>
<feColorMatrix type="matrix" values="0 0 0 0 0 0 0 0 0 0 0 0 0 0 0 0 0 0 0.06 0"/>
<feBlend mode="normal" in2="effect5_innerShadow_4117_19548" result="effect6_innerShadow_4117_19548"/>
<feColorMatrix in="SourceAlpha" type="matrix" values="0 0 0 0 0 0 0 0 0 0 0 0 0 0 0 0 0 0 127 0" result="hardAlpha"/>
<feOffset dy="-0.677083"/>
<feGaussianBlur stdDeviation="0.169271"/>
<feComposite in2="hardAlpha" operator="arithmetic" k2="-1" k3="1"/>
<feColorMatrix type="matrix" values="0 0 0 0 0 0 0 0 0 0 0 0 0 0 0 0 0 0 0.04 0"/>
<feBlend mode="normal" in2="effect6_innerShadow_4117_19548" result="effect7_innerShadow_4117_19548"/>
</filter>
<filter id="filter7_d_4117_19548" x="21.8098" y="34.6474" width="118.881" height="59.8684" filterUnits="userSpaceOnUse" color-interpolation-filters="sRGB">
<feFlood flood-opacity="0" result="BackgroundImageFix"/>
<feColorMatrix in="SourceAlpha" type="matrix" values="0 0 0 0 0 0 0 0 0 0 0 0 0 0 0 0 0 0 127 0" result="hardAlpha"/>
<feOffset dy="1.71053"/>
<feGaussianBlur stdDeviation="0.855263"/>
<feComposite in2="hardAlpha" operator="out"/>
<feColorMatrix type="matrix" values="0 0 0 0 0 0 0 0 0 0 0 0 0 0 0 0 0 0 0.15 0"/>
<feBlend mode="normal" in2="BackgroundImageFix" result="effect1_dropShadow_4117_19548"/>
<feBlend mode="normal" in="SourceGraphic" in2="effect1_dropShadow_4117_19548" result="shape"/>
</filter>
<filter id="filter8_d_4117_19548" x="178.323" y="159.943" width="78.2824" height="20.3119" filterUnits="userSpaceOnUse" color-interpolation-filters="sRGB">
<feFlood flood-opacity="0" result="BackgroundImageFix"/>
<feColorMatrix in="SourceAlpha" type="matrix" values="0 0 0 0 0 0 0 0 0 0 0 0 0 0 0 0 0 0 127 0" result="hardAlpha"/>
<feOffset dy="1.71053"/>
<feGaussianBlur stdDeviation="0.855263"/>
<feComposite in2="hardAlpha" operator="out"/>
<feColorMatrix type="matrix" values="0 0 0 0 0 0 0 0 0 0 0 0 0 0 0 0 0 0 0.15 0"/>
<feBlend mode="normal" in2="BackgroundImageFix" result="effect1_dropShadow_4117_19548"/>
<feBlend mode="normal" in="SourceGraphic" in2="effect1_dropShadow_4117_19548" result="shape"/>
</filter>
<linearGradient id="paint0_linear_4117_19548" x1="152.344" y1="188.23" x2="152.344" y2="209.896" gradientUnits="userSpaceOnUse">
<stop stop-color="#091315"/>
<stop offset="1" stop-color="#091315"/>
</linearGradient>
<linearGradient id="paint1_linear_4117_19548" x1="189.922" y1="188.23" x2="189.922" y2="209.896" gradientUnits="userSpaceOnUse">
<stop stop-color="white" stop-opacity="0"/>
<stop offset="1" stop-color="#555555"/>
</linearGradient>
<linearGradient id="paint2_linear_4117_19548" x1="189.922" y1="194.188" x2="189.922" y2="204.547" gradientUnits="userSpaceOnUse">
<stop stop-color="white" stop-opacity="0.96"/>
<stop offset="1" stop-color="white" stop-opacity="0.88"/>
</linearGradient>
<linearGradient id="paint3_linear_4117_19548" x1="162.501" y1="166.562" x2="162.501" y2="180.104" gradientUnits="userSpaceOnUse">
<stop stop-color="white" stop-opacity="0"/>
<stop offset="1" stop-color="white"/>
</linearGradient>
<clipPath id="clip0_4117_19548">
<rect width="260" height="246.458" rx="8.55263" fill="white"/>
</clipPath>
</defs>
</svg>
