<svg xmlns="http://www.w3.org/2000/svg" width="260" height="247" fill="none"><g clip-path="url(#a)"><path fill="#91CDFF" d="M260 0H0v246.458h260z"/><g filter="url(#b)"><path fill="#fff" d="M86.666 41.979c0-8.975 7.275-16.25 16.25-16.25h119.167c8.974 0 16.25 7.275 16.25 16.25v162.5c0 8.975-7.276 16.25-16.25 16.25H115.607a10.83 10.83 0 0 1-7.754-3.268l-18.108-18.556a10.84 10.84 0 0 1-3.079-7.566V41.979"/></g><path fill="#141515" d="M106.474 46.226q0 1.026-.375 1.763-.375.735-1.028 1.132a2.8 2.8 0 0 1-1.479.393 2.8 2.8 0 0 1-1.485-.393 2.76 2.76 0 0 1-1.025-1.135q-.375-.737-.375-1.76 0-1.025.375-1.76.375-.738 1.025-1.131a2.8 2.8 0 0 1 1.485-.397 2.8 2.8 0 0 1 1.479.397q.653.394 1.028 1.131.375.735.375 1.76m-.956 0q0-.781-.254-1.316a1.85 1.85 0 0 0-.687-.812 1.8 1.8 0 0 0-.985-.279q-.553 0-.988.278-.434.276-.687.813-.25.535-.251 1.316 0 .78.251 1.32.253.533.687.812.435.275.988.275.55 0 .985-.275.437-.278.687-.813.254-.537.254-1.319m6.192-1.6-1.74 4.8h-1.001l-1.744-4.8h1.003l1.216 3.694h.05l1.213-3.694zm2.784 4.898q-.708 0-1.222-.303a2.06 2.06 0 0 1-.787-.86q-.275-.555-.275-1.303 0-.739.275-1.3.277-.564.775-.88.5-.315 1.169-.315.406 0 .788.135.381.135.684.422t.478.747q.176.456.176 1.11v.33h-3.817v-.7h2.901q0-.368-.151-.653a1.13 1.13 0 0 0-.421-.453q-.27-.165-.631-.166-.395 0-.688.194a1.3 1.3 0 0 0-.451.5 1.45 1.45 0 0 0-.156.666v.547q0 .48.169.819.172.337.478.516.307.174.716.175.266 0 .485-.075a1.003 1.003 0 0 0 .621-.61l.885.16q-.106.39-.381.684-.272.291-.684.453-.41.16-.936.16m3.097-.097v-4.801h.904v.762h.05q.131-.387.462-.61a1.33 1.33 0 0 1 .757-.224 4 4 0 0 1 .397.022v.894a2 2 0 0 0-.2-.035 2 2 0 0 0-.288-.022q-.33 0-.591.141a1.05 1.05 0 0 0-.556.94v2.933zm7.632-4.801-1.741 4.8h-1l-1.744-4.8h1.003l1.216 3.694h.05l1.212-3.694zm.878 4.8v-4.8h.935v4.8zm.473-5.541a.6.6 0 0 1-.419-.163.53.53 0 0 1-.172-.393.52.52 0 0 1 .172-.394.59.59 0 0 1 .419-.166q.243 0 .415.166.175.163.175.394a.52.52 0 0 1-.175.393.58.58 0 0 1-.415.163m3.789 5.639q-.71 0-1.223-.303a2.07 2.07 0 0 1-.788-.86q-.274-.555-.275-1.303.001-.739.275-1.3.28-.564.776-.88.5-.315 1.169-.315.406 0 .787.135.382.135.685.422.302.287.479.747.174.456.174 1.11v.33h-3.816v-.7h2.9a1.4 1.4 0 0 0-.149-.653 1.14 1.14 0 0 0-.422-.453q-.27-.165-.632-.166-.394 0-.687.194a1.3 1.3 0 0 0-.45.5 1.43 1.43 0 0 0-.157.666v.547q0 .48.169.819.171.337.478.516.306.174.716.175.266 0 .484-.075.219-.078.379-.232.159-.153.243-.378l.885.16q-.106.39-.381.684-.273.291-.685.453a2.6 2.6 0 0 1-.934.16m4.128-.097-1.412-4.801h.966l.941 3.526h.046l.944-3.526h.967l.937 3.51h.047l.934-3.51h.967l-1.41 4.8h-.954l-.975-3.466h-.072l-.975 3.467z"/><path fill="#8C9292" d="m220.722 49.428-.482-.476 1.982-1.981h-5.132v-.688h5.132l-1.982-1.976.482-.48 2.801 2.8z"/><g filter="url(#c)"><path fill="url(#d)" d="M216.667 188.23h-53.49c-5.983 0-10.833 4.85-10.833 10.833s4.85 10.833 10.833 10.833h53.49c5.983 0 10.833-4.85 10.833-10.833s-4.85-10.833-10.833-10.833"/><path fill="url(#e)" fill-opacity=".08" d="M216.667 188.23h-53.49c-5.983 0-10.833 4.85-10.833 10.833s4.85 10.833 10.833 10.833h53.49c5.983 0 10.833-4.85 10.833-10.833s-4.85-10.833-10.833-10.833"/><path fill="url(#f)" d="M167.791 195.862h.888v4.189q0 .57-.224.973a1.5 1.5 0 0 1-.627.617 2 2 0 0 1-.946.211q-.5 0-.897-.182a1.5 1.5 0 0 1-.627-.528q-.227-.349-.227-.848h.885a.8.8 0 0 0 .113.424.8.8 0 0 0 .315.28q.201.099.461.098a.9.9 0 0 0 .479-.118.76.76 0 0 0 .303-.355q.104-.234.104-.572zm3.984 5.999q-.624 0-1.088-.286a1.93 1.93 0 0 1-.721-.799q-.257-.514-.257-1.201 0-.69.257-1.206.257-.517.721-.802t1.088-.286q.623 0 1.087.286.466.285.722.802.257.517.257 1.206 0 .687-.257 1.201a1.9 1.9 0 0 1-.722.799q-.464.286-1.087.286m.003-.725q.403 0 .669-.213t.392-.568q.13-.356.13-.782 0-.424-.13-.78a1.26 1.26 0 0 0-.392-.574 1.03 1.03 0 0 0-.669-.216q-.408 0-.675.216a1.3 1.3 0 0 0-.396.574 2.3 2.3 0 0 0-.127.78q0 .426.127.782.13.354.396.568.267.213.675.213m3.026.635v-4.431h.862v4.431zm.435-5.115a.55.55 0 0 1-.387-.151.5.5 0 0 1-.158-.363q0-.214.158-.364a.55.55 0 0 1 .387-.153q.225 0 .384.153.162.15.162.364 0 .21-.162.363a.54.54 0 0 1-.384.151m2.45 2.484v2.631h-.862v-4.431h.828v.721h.055q.153-.352.479-.566.328-.214.828-.214.452 0 .794.191.34.188.527.56.188.372.188.92v2.819h-.863v-2.715q0-.482-.251-.753-.25-.274-.689-.274-.3 0-.534.13a.94.94 0 0 0-.367.38 1.3 1.3 0 0 0-.133.601m6.213-3.278h1.082l1.882 4.594h.069l1.881-4.594h1.082v5.909h-.848v-4.276h-.055l-1.742 4.267h-.705l-1.742-4.27h-.055v4.279h-.849zm9.133 5.999q-.655 0-1.128-.28a1.9 1.9 0 0 1-.727-.794q-.255-.513-.254-1.203 0-.681.254-1.2.257-.519.715-.811a2 2 0 0 1 1.08-.292q.374 0 .727.125.352.124.631.389.28.266.442.69.162.421.162 1.024v.306h-3.523v-.647h2.677q0-.34-.138-.602a1.05 1.05 0 0 0-.972-.572q-.365 0-.635.179a1.2 1.2 0 0 0-.416.462 1.3 1.3 0 0 0-.144.615v.504q0 .446.155.756.16.312.442.476.283.162.661.162.245 0 .447-.07a.923.923 0 0 0 .574-.562l.817.147a1.5 1.5 0 0 1-.352.632 1.7 1.7 0 0 1-.632.419 2.4 2.4 0 0 1-.863.147m4.769 0q-.655 0-1.129-.28a1.9 1.9 0 0 1-.727-.794q-.254-.513-.254-1.203 0-.681.254-1.2.258-.519.716-.811a2 2 0 0 1 1.079-.292q.375 0 .727.125.352.124.632.389.28.266.442.69.16.421.161 1.024v.306h-3.522v-.647h2.677q0-.34-.138-.602a1.05 1.05 0 0 0-.973-.572q-.363 0-.635.179a1.2 1.2 0 0 0-.415.462 1.3 1.3 0 0 0-.145.615v.504q0 .446.156.756.159.312.441.476.283.162.661.162.246 0 .448-.07a.923.923 0 0 0 .574-.562l.817.147a1.5 1.5 0 0 1-.352.632 1.7 1.7 0 0 1-.632.419q-.379.147-.863.147m4.927-4.521v.692h-2.42v-.692zm-1.772-1.063h.863v4.193q0 .25.075.378.075.124.194.17.12.044.263.044a1 1 0 0 0 .181-.015l.121-.023.156.713q-.075.029-.213.057a1.7 1.7 0 0 1-.347.035 1.5 1.5 0 0 1-.634-.121 1.1 1.1 0 0 1-.476-.393q-.183-.265-.183-.666zm2.726 5.494v-4.431h.863v4.431zm.436-5.115a.54.54 0 0 1-.386-.151.48.48 0 0 1-.159-.363.48.48 0 0 1 .159-.364.54.54 0 0 1 .386-.153q.225 0 .384.153.161.15.161.364 0 .21-.161.363a.54.54 0 0 1-.384.151m2.451 2.484v2.631h-.863v-4.431h.828v.721h.054q.154-.352.48-.566.328-.214.828-.214.453 0 .793.191.34.188.529.56.186.372.187.92v2.819h-.863v-2.715q0-.482-.251-.753-.25-.274-.69-.274-.3 0-.533.13a.94.94 0 0 0-.367.38 1.3 1.3 0 0 0-.132.601m5.851 4.385q-.528 0-.909-.138a1.75 1.75 0 0 1-.618-.367 1.5 1.5 0 0 1-.357-.499l.741-.306q.078.127.208.269.133.144.358.245.228.1.585.101.491 0 .811-.24.321-.236.321-.755v-.872h-.055a2 2 0 0 1-.225.315 1.2 1.2 0 0 1-.398.3q-.254.126-.661.127-.525 0-.947-.245a1.75 1.75 0 0 1-.663-.73q-.243-.486-.242-1.192 0-.707.239-1.212.242-.504.664-.773.42-.272.954-.272.413 0 .667.139.254.136.395.318.144.181.223.32h.063v-.718h.846v4.529q0 .572-.266.938a1.55 1.55 0 0 1-.718.542q-.45.176-1.016.176m-.009-2.536q.372 0 .629-.173.26-.176.392-.502a2.1 2.1 0 0 0 .136-.787q0-.448-.132-.789a1.2 1.2 0 0 0-.39-.53 1.02 1.02 0 0 0-.635-.193q-.39 0-.649.201a1.2 1.2 0 0 0-.392.543q-.13.343-.13.768 0 .435.133.764.132.33.392.513.262.185.646.185"/></g><path stroke="#000" stroke-dasharray="0.68 2.71" stroke-opacity=".2" stroke-width=".677" d="M227.5 61.276h-130"/><path fill="#141515" d="M99.892 84.02v-7.386h.474v7.387zm1.481-5.095a.85.85 0 0 0-.382-.635q-.333-.228-.842-.228-.363 0-.629.116a.96.96 0 0 0-.412.312.73.73 0 0 0-.145.446q0 .211.098.364a.9.9 0 0 0 .263.257q.165.1.352.17.187.066.361.11l.577.15q.282.07.58.188.296.117.55.311a1.5 1.5 0 0 1 .411.479q.158.285.158.684 0 .502-.26.891-.257.39-.747.615-.487.225-1.18.225-.664 0-1.148-.21a1.8 1.8 0 0 1-.76-.598 1.73 1.73 0 0 1-.302-.923h.894a.9.9 0 0 0 .208.533q.185.212.47.315.288.1.632.101.378 0 .672-.118.298-.122.468-.335a.8.8 0 0 0 .17-.505.62.62 0 0 0-.15-.43 1.1 1.1 0 0 0-.401-.277 4 4 0 0 0-.568-.193l-.699-.19q-.71-.195-1.125-.569-.412-.374-.412-.992 0-.511.276-.892.277-.381.75-.591a2.6 2.6 0 0 1 1.068-.214q.6 0 1.059.21.462.211.727.58.265.367.277.843zm1.801 3.203v-.722l2.553-4.033h.569v1.062h-.361l-1.826 2.89v.047h3.499v.755zm2.801 1.154v-1.373l.006-.33v-4.206h.845v5.909zm4.636.08q-.621 0-1.097-.213a1.8 1.8 0 0 1-.742-.588 1.42 1.42 0 0 1-.265-.855 1.5 1.5 0 0 1 .583-1.217q.27-.213.606-.272v-.034a1.2 1.2 0 0 1-.707-.473 1.4 1.4 0 0 1-.263-.843 1.38 1.38 0 0 1 .24-.808q.244-.357.672-.562a2.2 2.2 0 0 1 .973-.205q.538 0 .963.208.428.204.672.562.246.355.248.805a1.4 1.4 0 0 1-.271.843 1.2 1.2 0 0 1-.698.473v.034q.331.059.598.272.268.21.426.528.162.315.165.69-.003.478-.271.854-.269.375-.745.588a2.6 2.6 0 0 1-1.087.213m0-.73q.365 0 .634-.12a1 1 0 0 0 .416-.344.94.94 0 0 0 .149-.52.97.97 0 0 0-.161-.544 1.1 1.1 0 0 0-.424-.373 1.34 1.34 0 0 0-.614-.135q-.35 0-.621.135-.271.136-.427.373a.95.95 0 0 0-.153.545.9.9 0 0 0 .142.52q.147.218.418.342.271.123.641.122m0-2.75q.293.001.522-.118a.9.9 0 0 0 .357-.328.9.9 0 0 0 .136-.494.9.9 0 0 0-.132-.484.85.85 0 0 0-.356-.32 1.15 1.15 0 0 0-.527-.116q-.307 0-.537.115a.85.85 0 0 0-.479.805.9.9 0 0 0 .127.494q.129.21.357.328.232.12.532.119m3.541 3.455a.56.56 0 0 1-.406-.168.56.56 0 0 1-.17-.41q0-.236.17-.403a.55.55 0 0 1 .406-.17q.237 0 .407.17a.55.55 0 0 1 .171.404.55.55 0 0 1-.081.291.6.6 0 0 1-.207.208.55.55 0 0 1-.29.078m3.615-6.045q.396.003.779.144.384.142.693.462.312.32.496.866.188.542.19 1.35 0 .776-.155 1.382a3.1 3.1 0 0 1-.447 1.018 1.96 1.96 0 0 1-.702.633 2 2 0 0 1-.929.215q-.528 0-.937-.207a1.8 1.8 0 0 1-.667-.575 1.9 1.9 0 0 1-.32-.847h.88q.087.381.352.617.268.234.692.234.65-.001 1.013-.566.364-.568.366-1.587h-.046q-.15.249-.375.427-.222.18-.499.277a1.8 1.8 0 0 1-.591.098 1.77 1.77 0 0 1-.929-.25 1.86 1.86 0 0 1-.667-.69 2 2 0 0 1-.248-1.001q0-.561.254-1.016.256-.456.715-.722.462-.267 1.082-.262m.003.75q-.337 0-.609.168-.268.164-.423.447a1.25 1.25 0 0 0-.157.623q0 .344.15.623a1.2 1.2 0 0 0 .416.442q.266.161.606.162.254 0 .473-.099.219-.097.384-.271.164-.176.256-.398a1.2 1.2 0 0 0 .093-.468q0-.326-.156-.606a1.2 1.2 0 0 0-.421-.45 1.1 1.1 0 0 0-.612-.173m5.148 5.32q-.543 0-.975-.207a1.8 1.8 0 0 1-.687-.577 1.53 1.53 0 0 1-.274-.837h.866a.87.87 0 0 0 .337.626q.306.246.733.245.341 0 .603-.155.266-.159.416-.436.153-.277.153-.632 0-.36-.156-.643a1.16 1.16 0 0 0-.43-.445 1.2 1.2 0 0 0-.623-.164q-.268 0-.54.092a1.3 1.3 0 0 0-.439.242l-.816-.12.332-2.978h3.249v.764h-2.507l-.188 1.654h.035q.173-.168.458-.28.29-.113.618-.113a1.81 1.81 0 0 1 1.627.958q.245.442.243 1.016.003.573-.26 1.024-.26.45-.721.71a2.1 2.1 0 0 1-1.054.257"/><path fill="#200109" fill-opacity=".72" d="M184.756 83.85h8.125v-8.124h-8.125z"/><path fill="#646868" d="M129.027 77.372v5.909h-.681v-5.909zm3.105 6.001q-.641 0-1.105-.282a1.9 1.9 0 0 1-.713-.796q-.248-.514-.248-1.195t.248-1.2q.251-.523.699-.814.45-.295 1.05-.295.346 0 .684.116.338.115.614.375.277.257.441.68.165.426.165 1.045v.289h-3.416v-.589h2.724q0-.375-.15-.67a1.14 1.14 0 0 0-.422-.464 1.2 1.2 0 0 0-.64-.17q-.407 0-.704.202a1.3 1.3 0 0 0-.453.52 1.5 1.5 0 0 0-.159.686v.393q0 .501.173.85.177.348.488.529.311.18.724.179.269 0 .485-.075.219-.08.378-.231.159-.156.245-.387l.658.185q-.104.335-.35.588a1.7 1.7 0 0 1-.605.393 2.3 2.3 0 0 1-.811.138m4.844-4.523v.576h-2.388v-.576zm-1.673 4.431v-5.044q0-.38.179-.634t.465-.381q.285-.127.602-.127.25 0 .41.04t.237.075l-.197.589-.144-.044a1 1 0 0 0-.236-.025q-.338 0-.488.17-.147.17-.147.5v4.881zm4.555-4.431v.576h-2.297v-.576zm-1.627-1.063h.681v4.224q0 .29.084.433.085.142.219.19.135.047.286.047.112 0 .184-.011l.116-.024.138.612a1.5 1.5 0 0 1-1.073-.043 1.1 1.1 0 0 1-.456-.378 1.1 1.1 0 0 1-.179-.64zm4.937 5.494V78.85h.68v4.431zm.346-5.17a.49.49 0 0 1-.344-.136.44.44 0 0 1-.141-.326q0-.19.141-.326a.5.5 0 0 1 .344-.136q.199 0 .34.136.144.135.145.326a.43.43 0 0 1-.145.326.47.47 0 0 1-.34.136m2.263 2.504v2.666h-.682V78.85h.659v.692h.057q.156-.337.473-.543.318-.208.82-.208.45 0 .788.185.338.182.524.554.188.37.188.935v2.816h-.68v-2.77q0-.523-.272-.814-.272-.293-.744-.294-.326 0-.583.142a1 1 0 0 0-.402.412q-.146.271-.146.658m6.357 2.666V78.85h.658v.692h.057q.138-.355.447-.552.309-.199.742-.199.439 0 .73.2.294.195.459.55h.046q.17-.343.511-.544.34-.206.816-.206.594 0 .973.373.377.37.377 1.15v2.967h-.681v-2.966q0-.49-.268-.701a1 1 0 0 0-.631-.21q-.469 0-.725.282a1 1 0 0 0-.257.71v2.885h-.692v-3.035a.8.8 0 0 0-.245-.609.88.88 0 0 0-.632-.234.93.93 0 0 0-.496.142 1.06 1.06 0 0 0-.37.392 1.16 1.16 0 0 0-.138.574v2.77zm8.862.092q-.6 0-1.054-.286a1.94 1.94 0 0 1-.703-.799q-.252-.513-.251-1.2 0-.692.251-1.209.254-.516.703-.802.453-.285 1.054-.286.6 0 1.05.286.453.285.704.802.254.517.254 1.209 0 .687-.254 1.2a1.9 1.9 0 0 1-.704.8q-.45.285-1.05.285m0-.611q.456 0 .75-.234.294-.233.436-.615.141-.38.141-.825t-.141-.828a1.4 1.4 0 0 0-.436-.62q-.294-.237-.75-.237t-.75.237a1.4 1.4 0 0 0-.436.62 2.4 2.4 0 0 0-.141.828q0 .445.141.825.142.382.436.615.294.234.75.234m3.729-2.147v2.666h-.681V78.85h.657v.692h.058q.156-.337.474-.543.317-.208.819-.208.45 0 .787.185.337.182.526.554.186.37.187.935v2.816h-.681v-2.77q0-.523-.271-.814-.271-.293-.745-.294-.325 0-.583.142a1 1 0 0 0-.4.412q-.148.271-.147.658m5.999-1.765v.576h-2.297v-.576zm-1.627-1.063h.68v4.224q0 .29.084.433a.44.44 0 0 0 .219.19.9.9 0 0 0 .286.047q.112 0 .184-.011l.116-.024.138.612a1.4 1.4 0 0 1-.508.08q-.288 0-.565-.123a1.1 1.1 0 0 1-.456-.378q-.178-.255-.178-.64zm3.427 2.828v2.666h-.681v-5.909h.681v2.17h.058q.156-.344.467-.546.315-.204.837-.205.453 0 .793.182.341.18.528.552.191.368.191.94v2.816h-.681v-2.77q0-.528-.274-.816-.271-.292-.753-.292-.334 0-.601.142a1.04 1.04 0 0 0-.415.412q-.15.271-.15.658m4.801-3.243v5.909h-.682v-5.909zm1.685 7.571a1.5 1.5 0 0 1-.496-.081l.173-.6q.249.064.439.046a.53.53 0 0 0 .337-.17q.15-.15.274-.488l.127-.346-1.639-4.454h.739l1.223 3.53h.046l1.224-3.53h.738l-1.88 5.078q-.127.342-.315.568-.187.227-.436.338-.245.11-.554.11"/><g filter="url(#g)"><path fill="#D7FF52" d="M177.396 93.437h-75.833a4.063 4.063 0 1 0 0 8.125h75.833a4.062 4.062 0 1 0 0-8.125"/></g><g filter="url(#h)"><path fill="#A1A5A5" d="M223.437 93.438h-35.208a4.063 4.063 0 1 0 0 8.125h35.208a4.062 4.062 0 1 0 0-8.125"/></g><path fill="#141515" d="M101.725 128.57c0-.276-.13-.455-.455-.52-2.08-.487-3.217-1.999-3.217-4.209h1.771c0 1.837 1.024 2.795 2.974 2.795 1.722 0 2.502-.731 2.502-1.803 0-.927-.601-1.479-1.869-1.723l-1.576-.309c-2.405-.455-3.461-1.625-3.461-3.233 0-1.642 1.056-2.795 2.844-3.12.325-.049.487-.212.487-.52v-.634h1.674v.682c0 .277.146.455.439.52 1.868.423 2.973 1.788 2.973 3.819h-1.722c-.033-1.625-1.008-2.389-2.649-2.389-1.462 0-2.242.585-2.242 1.593 0 .926.633 1.43 1.966 1.69l1.527.292c2.373.472 3.397 1.609 3.397 3.315 0 1.82-1.235 3.055-3.218 3.332-.309.048-.471.211-.471.503v.618h-1.674zm9.995-7.182c1.332 0 2.031-.78 2.031-1.804 0-1.121-.796-1.739-1.934-1.739-1.284 0-2.064.78-2.064 2.356h-1.738c0-2.453 1.576-3.851 3.883-3.851 2.21 0 3.64 1.268 3.64 2.99 0 1.04-.52 1.983-1.608 2.503 1.316.52 2.015 1.576 2.015 2.925 0 2.047-1.658 3.445-4.014 3.445s-4.144-1.398-4.144-3.933h1.739c0 1.658 1.024 2.438 2.372 2.438 1.333 0 2.259-.748 2.259-1.967 0-1.218-.894-1.933-2.437-1.933h-.829v-1.43zm9.236 6.825c-2.096 0-4.306-1.349-4.306-5.867 0-3.77 1.56-5.996 4.306-5.996 2.129 0 3.445 1.349 3.705 3.153h-1.738c-.147-.943-.829-1.658-1.983-1.658-1.657 0-2.535 1.43-2.616 4.225h.065c.455-.942 1.446-1.479 2.714-1.479 2.161 0 3.705 1.495 3.705 3.754 0 2.291-1.577 3.868-3.852 3.868m-.065-1.495c1.252 0 2.145-.927 2.145-2.34 0-1.43-.91-2.357-2.242-2.357-1.3 0-2.161.927-2.161 2.292 0 1.43.942 2.405 2.258 2.405m5.708 1.495c-.634 0-1.105-.439-1.105-1.04 0-.602.471-1.057 1.105-1.057.633 0 1.105.455 1.105 1.057s-.472 1.04-1.105 1.04m3.504-3.868c.049 1.593 1.04 2.373 2.34 2.373 1.398 0 2.324-.927 2.324-2.454 0-1.609-.991-2.503-2.389-2.503-.959 0-1.576.423-1.934.975h-1.722l.682-6.142h6.565v1.495h-5.102l-.374 3.201c.471-.585 1.219-.959 2.275-.959 2.145 0 3.803 1.463 3.803 3.884 0 2.373-1.577 3.998-4.063 3.998-2.34 0-4.079-1.43-4.144-3.868zm8.895 0c.049 1.593 1.04 2.373 2.34 2.373 1.397 0 2.324-.927 2.324-2.454 0-1.609-.991-2.503-2.389-2.503-.959 0-1.576.423-1.934.975h-1.722l.682-6.142h6.565v1.495h-5.102l-.374 3.201c.471-.585 1.219-.959 2.275-.959 2.145 0 3.803 1.463 3.803 3.884 0 2.373-1.577 3.998-4.063 3.998-2.34 0-4.079-1.43-4.144-3.868z"/><g filter="url(#i)"><path fill="#A1A5A5" d="M100.208 142.865a1.354 1.354 0 1 0-2.707 0 1.354 1.354 0 0 0 2.707 0"/></g><path fill="#646868" d="M109.274 141.51a2 2 0 0 0-.251-.522 1.6 1.6 0 0 0-.846-.649 1.9 1.9 0 0 0-.588-.087q-.525 0-.955.272-.43.27-.684.799-.254.528-.254 1.295 0 .768.257 1.296t.696.799q.437.271.986.271.509 0 .894-.216.39-.22.606-.618.22-.4.22-.943l.219.046h-1.777v-.635h2.25v.635q0 .73-.312 1.27a2.15 2.15 0 0 1-.853.836 2.6 2.6 0 0 1-1.247.294q-.785 0-1.379-.369a2.5 2.5 0 0 1-.924-1.05q-.328-.681-.328-1.616 0-.701.187-1.261.19-.562.537-.958.347-.394.819-.606.474-.21 1.042-.21.467 0 .871.141a2.35 2.35 0 0 1 1.258 1.004q.215.353.294.782zm1.906 4.063v-4.432h.658v.669h.046q.121-.329.439-.533.317-.206.715-.206.075 0 .188.004.113.002.17.008v.693a2 2 0 0 0-.159-.026 1.5 1.5 0 0 0-.256-.02q-.324 0-.577.135-.25.133-.398.37a1 1 0 0 0-.145.533v2.805zm4.689.092q-.6 0-1.053-.286-.45-.285-.704-.799-.251-.514-.251-1.2 0-.692.251-1.209.254-.517.704-.802a1.93 1.93 0 0 1 1.053-.286q.6 0 1.05.286.453.285.704.802.255.517.254 1.209 0 .685-.254 1.2a1.9 1.9 0 0 1-.704.799q-.45.286-1.05.286m0-.612q.456 0 .75-.233.295-.234.436-.615t.141-.825a2.4 2.4 0 0 0-.141-.828 1.4 1.4 0 0 0-.436-.621q-.294-.236-.75-.236t-.75.236a1.4 1.4 0 0 0-.436.621 2.4 2.4 0 0 0-.141.828q0 .444.141.825t.436.615.75.233m6.187-2.92-.612.173a1.1 1.1 0 0 0-.17-.297.8.8 0 0 0-.3-.242 1.1 1.1 0 0 0-.488-.095q-.407 0-.678.188-.268.184-.268.469 0 .255.184.402.186.146.577.245l.658.161q.594.144.886.442.292.294.292.759 0 .38-.22.681-.216.3-.606.473a2.2 2.2 0 0 1-.905.173q-.68 0-1.123-.294-.444-.294-.563-.86l.647-.162a.9.9 0 0 0 .349.537q.26.179.678.179.475 0 .756-.202.283-.205.283-.491a.52.52 0 0 0-.162-.386q-.162-.159-.496-.237l-.739-.173q-.609-.144-.895-.447a1.09 1.09 0 0 1-.282-.765q0-.375.211-.664.213-.288.579-.453.37-.164.837-.164.658 0 1.033.288.378.29.537.762m4.245 0-.612.173a1.1 1.1 0 0 0-.17-.297.8.8 0 0 0-.3-.242 1.1 1.1 0 0 0-.488-.095q-.406 0-.678.188-.268.184-.268.469 0 .255.185.402.184.146.577.245l.657.161q.595.144.886.442.292.294.291.759 0 .38-.219.681-.216.3-.606.473a2.2 2.2 0 0 1-.906.173q-.677 0-1.122-.294-.444-.294-.562-.86l.646-.162a.9.9 0 0 0 .349.537q.26.179.678.179.475 0 .756-.202.282-.205.282-.491a.51.51 0 0 0-.161-.386q-.162-.159-.496-.237l-.739-.173q-.609-.144-.894-.447a1.08 1.08 0 0 1-.283-.765q0-.375.21-.664.213-.288.581-.453.368-.164.836-.164.657 0 1.033.288.378.29.537.762m3.483 3.44v-5.909h1.997q.692 0 1.136.236.445.234.658.643.214.411.214.933t-.214.926q-.213.404-.655.634-.441.23-1.128.229h-1.615v-.647h1.592q.473 0 .762-.138a.9.9 0 0 0 .421-.393q.133-.257.133-.611 0-.356-.133-.621a.9.9 0 0 0-.424-.409q-.291-.148-.771-.148h-1.258v5.275zm2.781-2.654 1.455 2.654h-.831l-1.432-2.654zm4.135 2.746q-.642 0-1.105-.283a1.9 1.9 0 0 1-.713-.796q-.248-.514-.248-1.195t.248-1.2q.25-.522.698-.814.45-.294 1.05-.294a2.1 2.1 0 0 1 .684.116q.338.114.614.375.277.257.442.68t.164 1.045v.288h-3.415v-.588h2.723q0-.375-.15-.67a1.13 1.13 0 0 0-.422-.464 1.2 1.2 0 0 0-.64-.17 1.2 1.2 0 0 0-.704.202 1.33 1.33 0 0 0-.453.519 1.5 1.5 0 0 0-.159.687v.392q0 .503.174.851.175.346.487.529.311.178.725.178.268 0 .484-.075.22-.077.378-.231.16-.156.245-.386l.658.185a1.45 1.45 0 0 1-.349.588 1.7 1.7 0 0 1-.606.393q-.36.138-.81.138m6.359-4.524-1.639 4.432h-.692l-1.639-4.432h.739l1.223 3.531h.046l1.224-3.531zm2.598 4.524q-.64 0-1.105-.283a1.9 1.9 0 0 1-.712-.796q-.248-.514-.248-1.195t.248-1.2q.25-.522.698-.814.45-.294 1.05-.294a2.1 2.1 0 0 1 .684.116q.338.114.615.375.277.257.441.68t.164 1.045v.288h-3.416v-.588h2.724q0-.375-.15-.67a1.13 1.13 0 0 0-1.062-.634 1.2 1.2 0 0 0-.704.202 1.33 1.33 0 0 0-.453.519 1.5 1.5 0 0 0-.158.687v.392q0 .503.172.851.177.346.489.529.31.178.723.178.269 0 .485-.075.219-.077.378-.231.158-.156.246-.386l.657.185a1.45 1.45 0 0 1-.349.588 1.7 1.7 0 0 1-.606.393q-.36.138-.811.138m3.552-2.759v2.667h-.681v-4.432h.658v.692h.058q.155-.337.473-.542.317-.207.819-.208.45 0 .789.185.336.182.524.554.188.37.188.935v2.816h-.681v-2.77q0-.523-.271-.814-.271-.294-.745-.294-.326 0-.582.142-.255.14-.402.412t-.147.657m6.865.855v-2.62h.681v4.432h-.681v-.751h-.046a1.45 1.45 0 0 1-.485.575q-.329.233-.831.233-.415 0-.738-.181a1.27 1.27 0 0 1-.508-.554q-.185-.373-.185-.938v-2.816h.681v2.769q0 .485.271.774a.92.92 0 0 0 .698.289q.255 0 .517-.13.266-.13.444-.398.182-.269.182-.684m3.787 1.904q-.642 0-1.105-.283a1.9 1.9 0 0 1-.713-.796q-.248-.514-.248-1.195t.248-1.2q.25-.522.698-.814.45-.294 1.05-.294a2.1 2.1 0 0 1 .684.116q.338.114.614.375.277.257.442.68t.164 1.045v.288h-3.415v-.588h2.723q0-.375-.15-.67a1.14 1.14 0 0 0-.421-.464 1.2 1.2 0 0 0-.641-.17 1.2 1.2 0 0 0-.704.202 1.33 1.33 0 0 0-.453.519 1.5 1.5 0 0 0-.159.687v.392q0 .503.174.851.175.346.487.529.312.178.725.178.267 0 .484-.075a1 1 0 0 0 .378-.231q.16-.156.245-.386l.658.185a1.45 1.45 0 0 1-.349.588 1.7 1.7 0 0 1-.606.393q-.36.138-.81.138"/><path fill="#F5F5F5" d="M222.085 112.396h-32.5a5.417 5.417 0 0 0-5.417 5.417v25.729a5.417 5.417 0 0 0 5.417 5.417h32.5a5.416 5.416 0 0 0 5.416-5.417v-25.729a5.416 5.416 0 0 0-5.416-5.417M159.792 159.115h-58.23a4.062 4.062 0 0 0 0 8.125h58.23a4.063 4.063 0 0 0 0-8.125M180.104 171.979h-78.542a4.063 4.063 0 0 0 0 8.125h78.542a4.063 4.063 0 1 0 0-8.125"/><path fill="url(#j)" d="M238.335 166.562H86.668v13.542h151.667z"/><g filter="url(#k)"><path fill="#fff" d="M81.251 169.271a8.125 8.125 0 0 0-8.125-8.125H29.793a8.125 8.125 0 0 0-8.125 8.125v43.333a8.125 8.125 0 0 0 8.125 8.125h14.93a8.13 8.13 0 0 0 4.825-1.587l28.403-20.958a8.13 8.13 0 0 0 3.3-6.538z"/></g><g filter="url(#l)" opacity=".4"><path fill="#fff" d="M21.668 147.604a8.125 8.125 0 0 0 8.125 8.125h43.333a8.125 8.125 0 0 0 8.125-8.125V104.27a8.125 8.125 0 0 0-8.125-8.125h-14.93a8.13 8.13 0 0 0-4.825 1.587L24.97 118.69a8.13 8.13 0 0 0-3.301 6.538z"/></g><g filter="url(#m)"><path fill="#fff" d="M43.191 56.029h76.118v17.105H43.191z" shape-rendering="crispEdges"/><path stroke="#000" stroke-width=".428" d="M43.405 56.243h75.691v16.678H43.405z" shape-rendering="crispEdges"/><path fill="#0F0F19" d="M48.31 66.082v-4.286h.566v4.286zm1.905 0v-4.286h.582l2.251 3.365v-3.365h.544v4.286h-.582l-2.25-3.368v3.368zm4.403-1.287v-.529h1.616v.53zm4.613-.394v-.503l1.815-.003v1.59q-.418.333-.862.503-.444.167-.912.167-.632 0-1.149-.27a1.8 1.8 0 0 1-.778-.783 2.46 2.46 0 0 1-.263-1.143q0-.626.26-1.166.264-.544.755-.807a2.36 2.36 0 0 1 1.131-.263q.465 0 .839.152.377.15.59.418.214.27.325.702l-.512.14a1.6 1.6 0 0 0-.24-.515 1 1 0 0 0-.409-.298 1.5 1.5 0 0 0-.59-.114q-.39 0-.672.12a1.25 1.25 0 0 0-.46.31 1.5 1.5 0 0 0-.268.424q-.164.397-.164.862 0 .573.196.959.198.386.576.573t.8.187q.369 0 .72-.14.35-.144.532-.304V64.4zm2.526 1.68 1.646-4.285h.61l1.754 4.286h-.646l-.5-1.298H62.83l-.471 1.298zm1.236-1.76h1.453L64 63.136q-.205-.54-.304-.889a5.5 5.5 0 0 1-.231.819zm3.552 1.76v-4.285h.854l1.014 3.034q.14.424.205.635.072-.234.228-.687l1.026-2.982h.763v4.286h-.547v-3.587l-1.245 3.587h-.512l-1.24-3.649v3.649zm5.358 0v-4.285h3.1v.506H72.47v1.312h2.37v.503h-2.37v1.459h2.63v.506zm9.39-1.502.567.143q-.178.7-.643 1.067-.462.366-1.131.366-.693 0-1.129-.281a1.8 1.8 0 0 1-.66-.819 2.9 2.9 0 0 1-.225-1.148q0-.67.254-1.167.257-.5.728-.757.474-.26 1.04-.26.645 0 1.082.327.439.328.611.921l-.558.132q-.15-.469-.433-.681-.284-.214-.713-.214-.495 0-.827.237-.33.237-.465.637-.135.398-.135.822 0 .546.158.956.16.405.497.608.336.201.728.201.477 0 .807-.274.33-.275.447-.816m4.423-2.783h.567v2.476q0 .646-.146 1.026t-.529.62q-.38.237-1 .237-.602 0-.985-.208a1.2 1.2 0 0 1-.547-.6q-.163-.393-.163-1.075v-2.476h.567v2.473q0 .558.102.825.106.262.357.406.255.143.62.143.626 0 .891-.284.266-.282.266-1.09zm1.865 4.286v-4.286h1.9q.573 0 .872.117a.95.95 0 0 1 .476.406q.178.292.178.646 0 .456-.295.77-.295.312-.912.397.225.108.342.213.25.228.47.57l.746 1.167h-.713l-.567-.892a8 8 0 0 0-.41-.59 1.3 1.3 0 0 0-.289-.287.8.8 0 0 0-.257-.114 1.7 1.7 0 0 0-.316-.02h-.658v1.903zm.567-2.395h1.22q.388 0 .607-.078a.66.66 0 0 0 .334-.258.7.7 0 0 0 .114-.386.64.64 0 0 0-.222-.5q-.22-.195-.696-.195h-1.357zm4.102 2.395v-4.286h1.9q.573 0 .871.117a.95.95 0 0 1 .477.406q.177.292.178.646 0 .456-.295.77-.296.312-.912.397.225.108.342.213.248.228.47.57l.746 1.167h-.714l-.567-.892a8 8 0 0 0-.409-.59 1.3 1.3 0 0 0-.29-.287.8.8 0 0 0-.257-.114 1.7 1.7 0 0 0-.315-.02h-.658v1.903zm.567-2.395h1.219q.39 0 .608-.078a.66.66 0 0 0 .333-.258.7.7 0 0 0 .114-.386.64.64 0 0 0-.222-.5q-.219-.195-.696-.195h-1.356zm4.104 2.395v-4.286h3.099v.506h-2.532v1.312h2.371v.503h-2.37v1.459h2.63v.506zm4.318 0v-4.286h.582l2.251 3.365v-3.365h.543v4.286h-.581l-2.251-3.368v3.368zm7.732-1.503.567.143q-.178.7-.643 1.067-.462.366-1.131.366-.693 0-1.129-.281a1.8 1.8 0 0 1-.66-.819 2.9 2.9 0 0 1-.225-1.148q0-.67.254-1.167.258-.5.728-.757.474-.26 1.041-.26.642 0 1.081.327.439.328.611.921l-.558.132q-.15-.469-.433-.681-.284-.214-.713-.214-.494 0-.827.237t-.465.637q-.135.398-.135.822 0 .546.158.956.16.405.497.608.336.201.728.201.477 0 .807-.274.33-.275.447-.816m2.818 1.503v-1.816l-1.651-2.47h.689l.845 1.292q.234.362.436.725.192-.336.468-.757l.83-1.26h.66l-1.71 2.47v1.816z"/></g><g filter="url(#n)"><path fill="#fff" d="M180.033 159.943h74.861v16.891h-74.861z" shape-rendering="crispEdges"/><path stroke="#000" stroke-width=".428" d="M180.247 160.157h74.434v16.463h-74.434z" shape-rendering="crispEdges"/><path fill="#0F0F19" d="M185.638 170.075v-4.286h3.098v.506h-2.531v1.312h2.371v.503h-2.371v1.459h2.631v.506zm3.853 0 1.645-4.286h.611l1.754 4.286h-.646l-.5-1.298h-1.792l-.47 1.298zm1.236-1.76h1.453l-.447-1.187q-.205-.54-.304-.889a5.6 5.6 0 0 1-.231.819zm3.578 1.76v-4.286h1.9q.573 0 .872.117a.95.95 0 0 1 .476.406q.178.293.178.647 0 .456-.295.768-.296.313-.912.398.225.108.342.213.249.228.471.57l.745 1.167h-.713l-.567-.892a8 8 0 0 0-.41-.59 1.3 1.3 0 0 0-.289-.287.9.9 0 0 0-.257-.114 1.7 1.7 0 0 0-.316-.02h-.658v1.903zm.567-2.394h1.219q.39 0 .608-.079a.66.66 0 0 0 .334-.258.7.7 0 0 0 .114-.385.64.64 0 0 0-.222-.5q-.22-.196-.696-.196h-1.357zm4.087 2.394v-4.286h.582l2.251 3.365v-3.365h.544v4.286h-.582l-2.251-3.368v3.368zm6.683 0v-4.286h1.617q.426 0 .651.041.316.052.529.202.214.146.343.412t.131.585q0 .546-.348.926-.348.378-1.257.377h-1.099v1.743zm.567-2.248h1.108q.55 0 .78-.205.231-.204.231-.576a.76.76 0 0 0-.137-.459.63.63 0 0 0-.357-.254q-.142-.038-.529-.038h-1.096zm3.596.16q0-1.066.573-1.669.573-.605 1.479-.605.593 0 1.07.284.476.284.725.792.25.505.251 1.149 0 .651-.263 1.166a1.8 1.8 0 0 1-.745.781 2.15 2.15 0 0 1-1.041.263q-.605 0-1.082-.293a1.9 1.9 0 0 1-.722-.798 2.4 2.4 0 0 1-.245-1.07m.584.009q0 .775.416 1.222.417.444 1.046.445.64 0 1.052-.451.416-.45.416-1.277 0-.524-.179-.912a1.34 1.34 0 0 0-.517-.605 1.4 1.4 0 0 0-.763-.217q-.603 0-1.038.415-.433.413-.433 1.38m4.686 2.079v-4.286h.568v4.286zm1.907 0v-4.286h.581l2.251 3.365v-3.365h.544v4.286h-.582l-2.251-3.368v3.368zm5.764 0v-3.78h-1.412v-.506h3.397v.506h-1.418v3.78zm2.719-1.377.535-.047q.038.321.175.529a1 1 0 0 0 .433.333q.292.126.658.126.324 0 .573-.096a.8.8 0 0 0 .368-.263.6.6 0 0 0 .123-.369.55.55 0 0 0-.117-.351q-.117-.152-.386-.254a7 7 0 0 0-.763-.207q-.59-.144-.827-.269a1.2 1.2 0 0 1-.459-.398 1 1 0 0 1-.149-.535q0-.324.184-.605.184-.283.538-.43a2.1 2.1 0 0 1 .786-.146q.476 0 .839.155.366.152.561.45t.211.676l-.544.04q-.044-.405-.298-.613-.252-.208-.746-.208-.514 0-.751.19a.56.56 0 0 0-.234.453q0 .231.167.38.164.15.854.307.692.155.95.272.374.173.552.438.178.264.178.608 0 .342-.195.647-.196.3-.565.47a2 2 0 0 1-.824.167q-.582 0-.976-.17a1.4 1.4 0 0 1-.617-.508 1.47 1.47 0 0 1-.234-.772"/></g></g><defs><filter id="b" width="162.5" height="206.172" x="81.249" y="25.39" color-interpolation-filters="sRGB" filterUnits="userSpaceOnUse"><feFlood flood-opacity="0" result="BackgroundImageFix"/><feColorMatrix in="SourceAlpha" result="hardAlpha" values="0 0 0 0 0 0 0 0 0 0 0 0 0 0 0 0 0 0 127 0"/><feOffset dy="1.354"/><feGaussianBlur stdDeviation=".677"/><feComposite in2="hardAlpha" operator="out"/><feColorMatrix values="0 0 0 0 0 0 0 0 0 0 0 0 0 0 0 0 0 0 0.04 0"/><feBlend in2="BackgroundImageFix" result="effect1_dropShadow_4117_19548"/><feColorMatrix in="SourceAlpha" result="hardAlpha" values="0 0 0 0 0 0 0 0 0 0 0 0 0 0 0 0 0 0 127 0"/><feOffset dy="2.031"/><feGaussianBlur stdDeviation="1.016"/><feComposite in2="hardAlpha" operator="out"/><feColorMatrix values="0 0 0 0 0.105882 0 0 0 0 0.105882 0 0 0 0 0.105882 0 0 0 0.03 0"/><feBlend in2="effect1_dropShadow_4117_19548" result="effect2_dropShadow_4117_19548"/><feColorMatrix in="SourceAlpha" result="hardAlpha" values="0 0 0 0 0 0 0 0 0 0 0 0 0 0 0 0 0 0 127 0"/><feOffset dy="2.708"/><feGaussianBlur stdDeviation="1.354"/><feComposite in2="hardAlpha" operator="out"/><feColorMatrix values="0 0 0 0 0 0 0 0 0 0 0 0 0 0 0 0 0 0 0.03 0"/><feBlend in2="effect2_dropShadow_4117_19548" result="effect3_dropShadow_4117_19548"/><feColorMatrix in="SourceAlpha" result="hardAlpha" values="0 0 0 0 0 0 0 0 0 0 0 0 0 0 0 0 0 0 127 0"/><feOffset dy="5.417"/><feGaussianBlur stdDeviation="2.708"/><feComposite in2="hardAlpha" operator="out"/><feColorMatrix values="0 0 0 0 0 0 0 0 0 0 0 0 0 0 0 0 0 0 0.02 0"/><feBlend in2="effect3_dropShadow_4117_19548" result="effect4_dropShadow_4117_19548"/><feBlend in="SourceGraphic" in2="effect4_dropShadow_4117_19548" result="shape"/><feColorMatrix in="SourceAlpha" result="hardAlpha" values="0 0 0 0 0 0 0 0 0 0 0 0 0 0 0 0 0 0 127 0"/><feOffset/><feGaussianBlur stdDeviation="1.354"/><feComposite in2="hardAlpha" k2="-1" k3="1" operator="arithmetic"/><feColorMatrix values="0 0 0 0 0 0 0 0 0 0 0 0 0 0 0 0 0 0 0.04 0"/><feBlend in2="shape" result="effect5_innerShadow_4117_19548"/><feColorMatrix in="SourceAlpha" result="hardAlpha" values="0 0 0 0 0 0 0 0 0 0 0 0 0 0 0 0 0 0 127 0"/><feOffset dy=".339"/><feGaussianBlur stdDeviation=".339"/><feComposite in2="hardAlpha" k2="-1" k3="1" operator="arithmetic"/><feColorMatrix values="0 0 0 0 0 0 0 0 0 0 0 0 0 0 0 0 0 0 0.06 0"/><feBlend in2="effect5_innerShadow_4117_19548" result="effect6_innerShadow_4117_19548"/><feColorMatrix in="SourceAlpha" result="hardAlpha" values="0 0 0 0 0 0 0 0 0 0 0 0 0 0 0 0 0 0 127 0"/><feOffset dy="-.677"/><feGaussianBlur stdDeviation=".169"/><feComposite in2="hardAlpha" k2="-1" k3="1" operator="arithmetic"/><feColorMatrix values="0 0 0 0 0 0 0 0 0 0 0 0 0 0 0 0 0 0 0.04 0"/><feBlend in2="effect6_innerShadow_4117_19548" result="effect7_innerShadow_4117_19548"/></filter><filter id="c" width="118.49" height="65" x="130.677" y="188.23" color-interpolation-filters="sRGB" filterUnits="userSpaceOnUse"><feFlood flood-opacity="0" result="BackgroundImageFix"/><feColorMatrix in="SourceAlpha" result="hardAlpha" values="0 0 0 0 0 0 0 0 0 0 0 0 0 0 0 0 0 0 127 0"/><feOffset dy=".677"/><feGaussianBlur stdDeviation=".339"/><feComposite in2="hardAlpha" operator="out"/><feColorMatrix values="0 0 0 0 0.105882 0 0 0 0 0.105882 0 0 0 0 0.105882 0 0 0 0.12 0"/><feBlend in2="BackgroundImageFix" result="effect1_dropShadow_4117_19548"/><feColorMatrix in="SourceAlpha" result="hardAlpha" values="0 0 0 0 0 0 0 0 0 0 0 0 0 0 0 0 0 0 127 0"/><feOffset dy="1.354"/><feGaussianBlur stdDeviation=".677"/><feComposite in2="hardAlpha" operator="out"/><feColorMatrix values="0 0 0 0 0.105882 0 0 0 0 0.105882 0 0 0 0 0.105882 0 0 0 0.12 0"/><feBlend in2="effect1_dropShadow_4117_19548" result="effect2_dropShadow_4117_19548"/><feColorMatrix in="SourceAlpha" result="hardAlpha" values="0 0 0 0 0 0 0 0 0 0 0 0 0 0 0 0 0 0 127 0"/><feOffset dy="2.031"/><feGaussianBlur stdDeviation="1.016"/><feComposite in2="hardAlpha" operator="out"/><feColorMatrix values="0 0 0 0 0.105882 0 0 0 0 0.105882 0 0 0 0 0.105882 0 0 0 0.12 0"/><feBlend in2="effect2_dropShadow_4117_19548" result="effect3_dropShadow_4117_19548"/><feColorMatrix in="SourceAlpha" result="hardAlpha" values="0 0 0 0 0 0 0 0 0 0 0 0 0 0 0 0 0 0 127 0"/><feOffset dy="2.708"/><feGaussianBlur stdDeviation="1.354"/><feComposite in2="hardAlpha" operator="out"/><feColorMatrix values="0 0 0 0 0.105882 0 0 0 0 0.105882 0 0 0 0 0.105882 0 0 0 0.12 0"/><feBlend in2="effect3_dropShadow_4117_19548" result="effect4_dropShadow_4117_19548"/><feColorMatrix in="SourceAlpha" result="hardAlpha" values="0 0 0 0 0 0 0 0 0 0 0 0 0 0 0 0 0 0 127 0"/><feOffset dy="5.417"/><feGaussianBlur stdDeviation="2.708"/><feComposite in2="hardAlpha" operator="out"/><feColorMatrix values="0 0 0 0 0.105882 0 0 0 0 0.105882 0 0 0 0 0.105882 0 0 0 0.12 0"/><feBlend in2="effect4_dropShadow_4117_19548" result="effect5_dropShadow_4117_19548"/><feColorMatrix in="SourceAlpha" result="hardAlpha" values="0 0 0 0 0 0 0 0 0 0 0 0 0 0 0 0 0 0 127 0"/><feOffset dy="10.833"/><feGaussianBlur stdDeviation="5.417"/><feComposite in2="hardAlpha" operator="out"/><feColorMatrix values="0 0 0 0 0.105882 0 0 0 0 0.105882 0 0 0 0 0.105882 0 0 0 0.12 0"/><feBlend in2="effect5_dropShadow_4117_19548" result="effect6_dropShadow_4117_19548"/><feColorMatrix in="SourceAlpha" result="hardAlpha" values="0 0 0 0 0 0 0 0 0 0 0 0 0 0 0 0 0 0 127 0"/><feOffset dy="21.667"/><feGaussianBlur stdDeviation="10.833"/><feComposite in2="hardAlpha" operator="out"/><feColorMatrix values="0 0 0 0 0.105882 0 0 0 0 0.105882 0 0 0 0 0.105882 0 0 0 0.12 0"/><feBlend in2="effect6_dropShadow_4117_19548" result="effect7_dropShadow_4117_19548"/><feBlend in="SourceGraphic" in2="effect7_dropShadow_4117_19548" result="shape"/><feColorMatrix in="SourceAlpha" result="hardAlpha" values="0 0 0 0 0 0 0 0 0 0 0 0 0 0 0 0 0 0 127 0"/><feOffset dy=".339"/><feGaussianBlur stdDeviation=".169"/><feComposite in2="hardAlpha" k2="-1" k3="1" operator="arithmetic"/><feColorMatrix values="0 0 0 0 1 0 0 0 0 1 0 0 0 0 1 0 0 0 0.1 0"/><feBlend in2="shape" result="effect8_innerShadow_4117_19548"/><feColorMatrix in="SourceAlpha" result="hardAlpha" values="0 0 0 0 0 0 0 0 0 0 0 0 0 0 0 0 0 0 127 0"/><feOffset dy=".677"/><feGaussianBlur stdDeviation=".677"/><feComposite in2="hardAlpha" k2="-1" k3="1" operator="arithmetic"/><feColorMatrix values="0 0 0 0 1 0 0 0 0 1 0 0 0 0 1 0 0 0 0.04 0"/><feBlend in2="effect8_innerShadow_4117_19548" result="effect9_innerShadow_4117_19548"/></filter><filter id="g" width="94.791" height="29.115" x="92.083" y="92.083" color-interpolation-filters="sRGB" filterUnits="userSpaceOnUse"><feFlood flood-opacity="0" result="BackgroundImageFix"/><feColorMatrix in="SourceAlpha" result="hardAlpha" values="0 0 0 0 0 0 0 0 0 0 0 0 0 0 0 0 0 0 127 0"/><feOffset dy=".677"/><feGaussianBlur stdDeviation="1.016"/><feColorMatrix values="0 0 0 0 0.843137 0 0 0 0 1 0 0 0 0 0.321569 0 0 0 0.12 0"/><feBlend in2="BackgroundImageFix" result="effect1_dropShadow_4117_19548"/><feColorMatrix in="SourceAlpha" result="hardAlpha" values="0 0 0 0 0 0 0 0 0 0 0 0 0 0 0 0 0 0 127 0"/><feOffset dy="3.385"/><feGaussianBlur stdDeviation="1.693"/><feColorMatrix values="0 0 0 0 0.843137 0 0 0 0 1 0 0 0 0 0.321569 0 0 0 0.1 0"/><feBlend in2="effect1_dropShadow_4117_19548" result="effect2_dropShadow_4117_19548"/><feColorMatrix in="SourceAlpha" result="hardAlpha" values="0 0 0 0 0 0 0 0 0 0 0 0 0 0 0 0 0 0 127 0"/><feOffset dy="8.125"/><feGaussianBlur stdDeviation="2.37"/><feColorMatrix values="0 0 0 0 0.843137 0 0 0 0 1 0 0 0 0 0.321569 0 0 0 0.06 0"/><feBlend in2="effect2_dropShadow_4117_19548" result="effect3_dropShadow_4117_19548"/><feColorMatrix in="SourceAlpha" result="hardAlpha" values="0 0 0 0 0 0 0 0 0 0 0 0 0 0 0 0 0 0 127 0"/><feOffset dy="14.219"/><feGaussianBlur stdDeviation="2.708"/><feColorMatrix values="0 0 0 0 0.843137 0 0 0 0 1 0 0 0 0 0.321569 0 0 0 0.02 0"/><feBlend in2="effect3_dropShadow_4117_19548" result="effect4_dropShadow_4117_19548"/><feBlend in="SourceGraphic" in2="effect4_dropShadow_4117_19548" result="shape"/></filter><filter id="h" width="54.166" height="29.115" x="178.749" y="92.084" color-interpolation-filters="sRGB" filterUnits="userSpaceOnUse"><feFlood flood-opacity="0" result="BackgroundImageFix"/><feColorMatrix in="SourceAlpha" result="hardAlpha" values="0 0 0 0 0 0 0 0 0 0 0 0 0 0 0 0 0 0 127 0"/><feOffset dy=".677"/><feGaussianBlur stdDeviation="1.016"/><feColorMatrix values="0 0 0 0 0.631373 0 0 0 0 0.647059 0 0 0 0 0.647059 0 0 0 0.12 0"/><feBlend in2="BackgroundImageFix" result="effect1_dropShadow_4117_19548"/><feColorMatrix in="SourceAlpha" result="hardAlpha" values="0 0 0 0 0 0 0 0 0 0 0 0 0 0 0 0 0 0 127 0"/><feOffset dy="3.385"/><feGaussianBlur stdDeviation="1.693"/><feColorMatrix values="0 0 0 0 0.631373 0 0 0 0 0.647059 0 0 0 0 0.647059 0 0 0 0.1 0"/><feBlend in2="effect1_dropShadow_4117_19548" result="effect2_dropShadow_4117_19548"/><feColorMatrix in="SourceAlpha" result="hardAlpha" values="0 0 0 0 0 0 0 0 0 0 0 0 0 0 0 0 0 0 127 0"/><feOffset dy="8.125"/><feGaussianBlur stdDeviation="2.37"/><feColorMatrix values="0 0 0 0 0.631373 0 0 0 0 0.647059 0 0 0 0 0.647059 0 0 0 0.06 0"/><feBlend in2="effect2_dropShadow_4117_19548" result="effect3_dropShadow_4117_19548"/><feColorMatrix in="SourceAlpha" result="hardAlpha" values="0 0 0 0 0 0 0 0 0 0 0 0 0 0 0 0 0 0 127 0"/><feOffset dy="14.219"/><feGaussianBlur stdDeviation="2.708"/><feColorMatrix values="0 0 0 0 0.631373 0 0 0 0 0.647059 0 0 0 0 0.647059 0 0 0 0.02 0"/><feBlend in2="effect3_dropShadow_4117_19548" result="effect4_dropShadow_4117_19548"/><feBlend in="SourceGraphic" in2="effect4_dropShadow_4117_19548" result="shape"/></filter><filter id="i" width="13.541" height="23.698" x="92.083" y="140.157" color-interpolation-filters="sRGB" filterUnits="userSpaceOnUse"><feFlood flood-opacity="0" result="BackgroundImageFix"/><feColorMatrix in="SourceAlpha" result="hardAlpha" values="0 0 0 0 0 0 0 0 0 0 0 0 0 0 0 0 0 0 127 0"/><feOffset dy=".677"/><feGaussianBlur stdDeviation="1.016"/><feColorMatrix values="0 0 0 0 0.631373 0 0 0 0 0.647059 0 0 0 0 0.647059 0 0 0 0.12 0"/><feBlend in2="BackgroundImageFix" result="effect1_dropShadow_4117_19548"/><feColorMatrix in="SourceAlpha" result="hardAlpha" values="0 0 0 0 0 0 0 0 0 0 0 0 0 0 0 0 0 0 127 0"/><feOffset dy="3.385"/><feGaussianBlur stdDeviation="1.693"/><feColorMatrix values="0 0 0 0 0.631373 0 0 0 0 0.647059 0 0 0 0 0.647059 0 0 0 0.1 0"/><feBlend in2="effect1_dropShadow_4117_19548" result="effect2_dropShadow_4117_19548"/><feColorMatrix in="SourceAlpha" result="hardAlpha" values="0 0 0 0 0 0 0 0 0 0 0 0 0 0 0 0 0 0 127 0"/><feOffset dy="8.125"/><feGaussianBlur stdDeviation="2.37"/><feColorMatrix values="0 0 0 0 0.631373 0 0 0 0 0.647059 0 0 0 0 0.647059 0 0 0 0.06 0"/><feBlend in2="effect2_dropShadow_4117_19548" result="effect3_dropShadow_4117_19548"/><feColorMatrix in="SourceAlpha" result="hardAlpha" values="0 0 0 0 0 0 0 0 0 0 0 0 0 0 0 0 0 0 127 0"/><feOffset dy="14.219"/><feGaussianBlur stdDeviation="2.708"/><feColorMatrix values="0 0 0 0 0.631373 0 0 0 0 0.647059 0 0 0 0 0.647059 0 0 0 0.02 0"/><feBlend in2="effect3_dropShadow_4117_19548" result="effect4_dropShadow_4117_19548"/><feBlend in="SourceGraphic" in2="effect4_dropShadow_4117_19548" result="shape"/></filter><filter id="k" width="70.416" height="70.755" x="16.251" y="160.807" color-interpolation-filters="sRGB" filterUnits="userSpaceOnUse"><feFlood flood-opacity="0" result="BackgroundImageFix"/><feColorMatrix in="SourceAlpha" result="hardAlpha" values="0 0 0 0 0 0 0 0 0 0 0 0 0 0 0 0 0 0 127 0"/><feOffset dy="1.354"/><feGaussianBlur stdDeviation=".677"/><feComposite in2="hardAlpha" operator="out"/><feColorMatrix values="0 0 0 0 0 0 0 0 0 0 0 0 0 0 0 0 0 0 0.04 0"/><feBlend in2="BackgroundImageFix" result="effect1_dropShadow_4117_19548"/><feColorMatrix in="SourceAlpha" result="hardAlpha" values="0 0 0 0 0 0 0 0 0 0 0 0 0 0 0 0 0 0 127 0"/><feOffset dy="2.031"/><feGaussianBlur stdDeviation="1.016"/><feComposite in2="hardAlpha" operator="out"/><feColorMatrix values="0 0 0 0 0.105882 0 0 0 0 0.105882 0 0 0 0 0.105882 0 0 0 0.03 0"/><feBlend in2="effect1_dropShadow_4117_19548" result="effect2_dropShadow_4117_19548"/><feColorMatrix in="SourceAlpha" result="hardAlpha" values="0 0 0 0 0 0 0 0 0 0 0 0 0 0 0 0 0 0 127 0"/><feOffset dy="2.708"/><feGaussianBlur stdDeviation="1.354"/><feComposite in2="hardAlpha" operator="out"/><feColorMatrix values="0 0 0 0 0 0 0 0 0 0 0 0 0 0 0 0 0 0 0.03 0"/><feBlend in2="effect2_dropShadow_4117_19548" result="effect3_dropShadow_4117_19548"/><feColorMatrix in="SourceAlpha" result="hardAlpha" values="0 0 0 0 0 0 0 0 0 0 0 0 0 0 0 0 0 0 127 0"/><feOffset dy="5.417"/><feGaussianBlur stdDeviation="2.708"/><feComposite in2="hardAlpha" operator="out"/><feColorMatrix values="0 0 0 0 0 0 0 0 0 0 0 0 0 0 0 0 0 0 0.02 0"/><feBlend in2="effect3_dropShadow_4117_19548" result="effect4_dropShadow_4117_19548"/><feBlend in="SourceGraphic" in2="effect4_dropShadow_4117_19548" result="shape"/><feColorMatrix in="SourceAlpha" result="hardAlpha" values="0 0 0 0 0 0 0 0 0 0 0 0 0 0 0 0 0 0 127 0"/><feOffset/><feGaussianBlur stdDeviation="1.354"/><feComposite in2="hardAlpha" k2="-1" k3="1" operator="arithmetic"/><feColorMatrix values="0 0 0 0 0 0 0 0 0 0 0 0 0 0 0 0 0 0 0.04 0"/><feBlend in2="shape" result="effect5_innerShadow_4117_19548"/><feColorMatrix in="SourceAlpha" result="hardAlpha" values="0 0 0 0 0 0 0 0 0 0 0 0 0 0 0 0 0 0 127 0"/><feOffset dy=".339"/><feGaussianBlur stdDeviation=".339"/><feComposite in2="hardAlpha" k2="-1" k3="1" operator="arithmetic"/><feColorMatrix values="0 0 0 0 0 0 0 0 0 0 0 0 0 0 0 0 0 0 0.06 0"/><feBlend in2="effect5_innerShadow_4117_19548" result="effect6_innerShadow_4117_19548"/><feColorMatrix in="SourceAlpha" result="hardAlpha" values="0 0 0 0 0 0 0 0 0 0 0 0 0 0 0 0 0 0 127 0"/><feOffset dy="-.677"/><feGaussianBlur stdDeviation=".169"/><feComposite in2="hardAlpha" k2="-1" k3="1" operator="arithmetic"/><feColorMatrix values="0 0 0 0 0 0 0 0 0 0 0 0 0 0 0 0 0 0 0.04 0"/><feBlend in2="effect6_innerShadow_4117_19548" result="effect7_innerShadow_4117_19548"/></filter><filter id="l" width="70.416" height="70.755" x="16.251" y="95.807" color-interpolation-filters="sRGB" filterUnits="userSpaceOnUse"><feFlood flood-opacity="0" result="BackgroundImageFix"/><feColorMatrix in="SourceAlpha" result="hardAlpha" values="0 0 0 0 0 0 0 0 0 0 0 0 0 0 0 0 0 0 127 0"/><feOffset dy="1.354"/><feGaussianBlur stdDeviation=".677"/><feComposite in2="hardAlpha" operator="out"/><feColorMatrix values="0 0 0 0 0 0 0 0 0 0 0 0 0 0 0 0 0 0 0.04 0"/><feBlend in2="BackgroundImageFix" result="effect1_dropShadow_4117_19548"/><feColorMatrix in="SourceAlpha" result="hardAlpha" values="0 0 0 0 0 0 0 0 0 0 0 0 0 0 0 0 0 0 127 0"/><feOffset dy="2.031"/><feGaussianBlur stdDeviation="1.016"/><feComposite in2="hardAlpha" operator="out"/><feColorMatrix values="0 0 0 0 0.105882 0 0 0 0 0.105882 0 0 0 0 0.105882 0 0 0 0.03 0"/><feBlend in2="effect1_dropShadow_4117_19548" result="effect2_dropShadow_4117_19548"/><feColorMatrix in="SourceAlpha" result="hardAlpha" values="0 0 0 0 0 0 0 0 0 0 0 0 0 0 0 0 0 0 127 0"/><feOffset dy="2.708"/><feGaussianBlur stdDeviation="1.354"/><feComposite in2="hardAlpha" operator="out"/><feColorMatrix values="0 0 0 0 0 0 0 0 0 0 0 0 0 0 0 0 0 0 0.03 0"/><feBlend in2="effect2_dropShadow_4117_19548" result="effect3_dropShadow_4117_19548"/><feColorMatrix in="SourceAlpha" result="hardAlpha" values="0 0 0 0 0 0 0 0 0 0 0 0 0 0 0 0 0 0 127 0"/><feOffset dy="5.417"/><feGaussianBlur stdDeviation="2.708"/><feComposite in2="hardAlpha" operator="out"/><feColorMatrix values="0 0 0 0 0 0 0 0 0 0 0 0 0 0 0 0 0 0 0.02 0"/><feBlend in2="effect3_dropShadow_4117_19548" result="effect4_dropShadow_4117_19548"/><feBlend in="SourceGraphic" in2="effect4_dropShadow_4117_19548" result="shape"/><feColorMatrix in="SourceAlpha" result="hardAlpha" values="0 0 0 0 0 0 0 0 0 0 0 0 0 0 0 0 0 0 127 0"/><feOffset/><feGaussianBlur stdDeviation="1.354"/><feComposite in2="hardAlpha" k2="-1" k3="1" operator="arithmetic"/><feColorMatrix values="0 0 0 0 0 0 0 0 0 0 0 0 0 0 0 0 0 0 0.04 0"/><feBlend in2="shape" result="effect5_innerShadow_4117_19548"/><feColorMatrix in="SourceAlpha" result="hardAlpha" values="0 0 0 0 0 0 0 0 0 0 0 0 0 0 0 0 0 0 127 0"/><feOffset dy=".339"/><feGaussianBlur stdDeviation=".339"/><feComposite in2="hardAlpha" k2="-1" k3="1" operator="arithmetic"/><feColorMatrix values="0 0 0 0 0 0 0 0 0 0 0 0 0 0 0 0 0 0 0.06 0"/><feBlend in2="effect5_innerShadow_4117_19548" result="effect6_innerShadow_4117_19548"/><feColorMatrix in="SourceAlpha" result="hardAlpha" values="0 0 0 0 0 0 0 0 0 0 0 0 0 0 0 0 0 0 127 0"/><feOffset dy="-.677"/><feGaussianBlur stdDeviation=".169"/><feComposite in2="hardAlpha" k2="-1" k3="1" operator="arithmetic"/><feColorMatrix values="0 0 0 0 0 0 0 0 0 0 0 0 0 0 0 0 0 0 0.04 0"/><feBlend in2="effect6_innerShadow_4117_19548" result="effect7_innerShadow_4117_19548"/></filter><filter id="m" width="118.881" height="59.868" x="21.81" y="34.647" color-interpolation-filters="sRGB" filterUnits="userSpaceOnUse"><feFlood flood-opacity="0" result="BackgroundImageFix"/><feColorMatrix in="SourceAlpha" result="hardAlpha" values="0 0 0 0 0 0 0 0 0 0 0 0 0 0 0 0 0 0 127 0"/><feOffset dy="1.711"/><feGaussianBlur stdDeviation=".855"/><feComposite in2="hardAlpha" operator="out"/><feColorMatrix values="0 0 0 0 0 0 0 0 0 0 0 0 0 0 0 0 0 0 0.15 0"/><feBlend in2="BackgroundImageFix" result="effect1_dropShadow_4117_19548"/><feBlend in="SourceGraphic" in2="effect1_dropShadow_4117_19548" result="shape"/></filter><filter id="n" width="78.282" height="20.312" x="178.323" y="159.943" color-interpolation-filters="sRGB" filterUnits="userSpaceOnUse"><feFlood flood-opacity="0" result="BackgroundImageFix"/><feColorMatrix in="SourceAlpha" result="hardAlpha" values="0 0 0 0 0 0 0 0 0 0 0 0 0 0 0 0 0 0 127 0"/><feOffset dy="1.711"/><feGaussianBlur stdDeviation=".855"/><feComposite in2="hardAlpha" operator="out"/><feColorMatrix values="0 0 0 0 0 0 0 0 0 0 0 0 0 0 0 0 0 0 0.15 0"/><feBlend in2="BackgroundImageFix" result="effect1_dropShadow_4117_19548"/><feBlend in="SourceGraphic" in2="effect1_dropShadow_4117_19548" result="shape"/></filter><linearGradient id="d" x1="152.344" x2="152.344" y1="188.23" y2="209.896" gradientUnits="userSpaceOnUse"><stop stop-color="#091315"/><stop offset="1" stop-color="#091315"/></linearGradient><linearGradient id="e" x1="189.922" x2="189.922" y1="188.23" y2="209.896" gradientUnits="userSpaceOnUse"><stop stop-color="#fff" stop-opacity="0"/><stop offset="1" stop-color="#555"/></linearGradient><linearGradient id="f" x1="189.922" x2="189.922" y1="194.188" y2="204.547" gradientUnits="userSpaceOnUse"><stop stop-color="#fff" stop-opacity=".96"/><stop offset="1" stop-color="#fff" stop-opacity=".88"/></linearGradient><linearGradient id="j" x1="162.501" x2="162.501" y1="166.562" y2="180.104" gradientUnits="userSpaceOnUse"><stop stop-color="#fff" stop-opacity="0"/><stop offset="1" stop-color="#fff"/></linearGradient><clipPath id="a"><rect width="260" height="246.458" fill="#fff" rx="8.553"/></clipPath></defs></svg>