<svg xmlns="http://www.w3.org/2000/svg" width="274" height="246" fill="none"><rect width="259.516" height="246" x="14" fill="#000" rx="8.622"/><path fill="#C6F15C" d="M264.895 0H22.622A8.62 8.62 0 0 0 14 8.622v228.756A8.62 8.62 0 0 0 22.622 246h242.273a8.62 8.62 0 0 0 8.621-8.622V8.622A8.62 8.62 0 0 0 264.895 0"/><g filter="url(#a)"><path fill="#fff" d="M192.418 168.956a8.11 8.11 0 0 1 8.11-8.11h43.253a8.11 8.11 0 0 1 8.109 8.11v43.253a8.11 8.11 0 0 1-8.109 8.11h-14.904a8.12 8.12 0 0 1-4.815-1.584l-28.349-20.919a8.11 8.11 0 0 1-3.295-6.526z"/></g><g filter="url(#b)" opacity=".4"><path fill="#fff" d="M251.89 147.329a8.11 8.11 0 0 1-8.109 8.11h-43.253a8.11 8.11 0 0 1-8.11-8.11v-43.252a8.11 8.11 0 0 1 8.11-8.11h14.903c1.733 0 3.42.555 4.815 1.584l28.35 20.919a8.11 8.11 0 0 1 3.294 6.525z"/></g><g filter="url(#c)"><path fill="#fff" d="M35.627 41.901c0-8.958 7.262-16.22 16.22-16.22h118.945c8.958 0 16.22 7.262 16.22 16.22v148.843c0 2.879-1.149 5.64-3.191 7.669l-18.877 18.762a10.81 10.81 0 0 1-7.623 3.144H51.847c-8.958 0-16.22-7.262-16.22-16.22V41.901"/></g><path fill="#F5F5F5" d="M78.879 54.065c0-8.211-6.657-14.868-14.868-14.868s-14.868 6.657-14.868 14.868 6.656 14.868 14.868 14.868 14.868-6.656 14.868-14.868"/><path fill="#292929" d="M89.93 44.113h.887v4.181q0 .568-.224.97a1.5 1.5 0 0 1-.625.617q-.402.21-.944.21-.5 0-.896-.181a1.47 1.47 0 0 1-.625-.527q-.228-.349-.228-.847h.884q0 .244.113.423.115.18.314.28.201.098.46.098.283 0 .478-.118a.76.76 0 0 0 .303-.355q.104-.232.104-.57zm3.977 5.987q-.622 0-1.086-.285a1.92 1.92 0 0 1-.72-.798q-.256-.513-.256-1.198 0-.688.257-1.204.255-.515.72-.8.463-.285 1.085-.285t1.086.285q.465.285.72.8t.256 1.204q0 .685-.256 1.198-.255.513-.72.798a2.03 2.03 0 0 1-1.086.285m.003-.723q.403 0 .668-.213a1.25 1.25 0 0 0 .392-.567q.13-.355.13-.78 0-.424-.13-.778a1.27 1.27 0 0 0-.392-.574 1.02 1.02 0 0 0-.668-.215q-.406 0-.674.215a1.3 1.3 0 0 0-.395.574 2.3 2.3 0 0 0-.126.777q0 .426.126.78.13.355.395.568.268.213.674.213m3.881-1.993v2.627h-.86v-5.898h.849v2.194h.055q.156-.357.475-.567.32-.21.835-.21.454 0 .795.187.342.187.53.558.19.369.19.922v2.814h-.862V47.3q0-.487-.25-.755-.25-.27-.697-.27-.306 0-.547.13a.93.93 0 0 0-.377.38q-.136.246-.136.598m4.879 0v2.627h-.861v-4.424h.827v.72h.054q.153-.351.478-.564.329-.214.827-.214.452 0 .792.19.34.188.527.56.187.37.187.918v2.814h-.861V47.3q0-.482-.251-.752-.25-.274-.688-.274-.3 0-.533.13a.94.94 0 0 0-.366.38 1.26 1.26 0 0 0-.132.6m9.418-1.722a.84.84 0 0 0-.38-.634q-.334-.227-.841-.227-.363 0-.628.115a.96.96 0 0 0-.411.311.74.74 0 0 0-.145.447q0 .21.098.362a.9.9 0 0 0 .262.257 2 2 0 0 0 .352.17q.187.066.36.11l.576.149q.282.069.579.187.296.118.549.311t.41.478q.158.285.158.683 0 .5-.26.89-.255.388-.745.613-.486.225-1.178.225-.663 0-1.146-.21a1.77 1.77 0 0 1-.758-.597 1.73 1.73 0 0 1-.302-.921h.893a.9.9 0 0 0 .207.532q.185.21.469.314.288.102.631.101.377 0 .671-.118.297-.12.467-.334a.8.8 0 0 0 .17-.504.62.62 0 0 0-.15-.43 1.1 1.1 0 0 0-.4-.276 4 4 0 0 0-.567-.192l-.698-.19q-.709-.194-1.123-.568-.411-.375-.412-.99 0-.51.277-.89.276-.38.749-.59.472-.214 1.065-.214.6 0 1.057.21.46.21.726.58.265.365.277.84zm1.933 4.349v-4.424h.827v.72h.054a1.15 1.15 0 0 1 .453-.57q.314-.207.751-.208.444 0 .743.208.303.207.447.57h.046q.158-.354.504-.564.345-.214.823-.214.603 0 .982.378.384.376.384 1.137v2.967h-.861v-2.886q0-.45-.245-.65a.9.9 0 0 0-.585-.202q-.42 0-.654.259-.233.255-.233.66v2.819h-.858v-2.94a.77.77 0 0 0-.225-.58.8.8 0 0 0-.584-.218.83.83 0 0 0-.452.13.95.95 0 0 0-.332.353 1.1 1.1 0 0 0-.124.527v2.728zm7.168 0v-4.424h.861v4.424zm.434-5.106a.55.55 0 0 1-.385-.15.49.49 0 0 1-.159-.363.48.48 0 0 1 .159-.363.54.54 0 0 1 .385-.153q.226 0 .384.153.16.15.161.363 0 .21-.161.363a.54.54 0 0 1-.384.15m3.65.682v.691h-2.416v-.69zm-1.768-1.06h.861v4.185q0 .25.075.377a.4.4 0 0 0 .193.17.8.8 0 0 0 .262.043q.104 0 .182-.014l.121-.023.155.711q-.075.03-.214.058a1.7 1.7 0 0 1-.345.034 1.5 1.5 0 0 1-.634-.12 1.1 1.1 0 0 1-.475-.392q-.181-.266-.181-.666zm3.677 2.857v2.627h-.862v-5.898h.85v2.194h.055q.156-.357.475-.567.32-.21.835-.21.456 0 .796.187.342.187.529.558.19.369.19.922v2.814h-.861V47.3q0-.487-.25-.755-.251-.27-.697-.27-.306 0-.548.13a.93.93 0 0 0-.377.38q-.135.246-.135.598"/><path fill="#8C9292" d="M136.753 43.295a1.02 1.02 0 0 0-1.219.505l-.273.535a.34.34 0 0 1-.148.147l-.535.273a1.02 1.02 0 0 0-.505 1.22l.185.571a.34.34 0 0 1 0 .209l-.185.571c-.154.475.06.992.505 1.22l.535.273a.34.34 0 0 1 .148.147l.273.535c.227.445.744.659 1.219.505l.572-.185a.34.34 0 0 1 .208 0l.571.185c.476.154.993-.06 1.22-.505l.273-.535a.34.34 0 0 1 .148-.148l.534-.273c.446-.227.659-.744.506-1.219l-.185-.571a.33.33 0 0 1 0-.209l.185-.571a1.02 1.02 0 0 0-.506-1.22l-.534-.273a.34.34 0 0 1-.148-.148l-.273-.534a1.02 1.02 0 0 0-1.22-.505l-.571.185a.34.34 0 0 1-.208 0zm-1.101 3.273.48-.48.959.96 1.918-1.919.48.48-2.398 2.398z"/><path fill="#646868" d="M91.574 57.63h.714v3.904q0 .606-.285 1.08a2 2 0 0 1-.798.746q-.515.27-1.21.27-.693 0-1.21-.27a2 2 0 0 1-.8-.746 2.1 2.1 0 0 1-.282-1.08V57.63h.715v3.848q-.001.432.19.769.189.333.54.527.356.19.848.19t.846-.19q.354-.194.542-.527.19-.337.19-.77zm2.854 0v5.897h-.714V57.63zm5.533 5.897h-1.82V57.63h1.901q.858 0 1.469.354.61.352.936 1.011.325.657.325 1.573 0 .921-.328 1.587a2.34 2.34 0 0 1-.956 1.019q-.627.354-1.527.354m-1.105-.633h1.06q.73 0 1.212-.283a1.74 1.74 0 0 0 .717-.803q.236-.522.236-1.241 0-.715-.233-1.23a1.72 1.72 0 0 0-.697-.795q-.463-.28-1.155-.28h-1.14zm6.877.725q-.64 0-1.103-.282a1.9 1.9 0 0 1-.712-.795q-.247-.513-.247-1.192 0-.68.247-1.198.252-.522.698-.812a1.87 1.87 0 0 1 1.048-.294q.345 0 .682.115.338.116.613.375.278.255.441.68.165.423.164 1.042v.288h-3.409v-.588h2.719q0-.374-.15-.668a1.13 1.13 0 0 0-.421-.463 1.2 1.2 0 0 0-.639-.17 1.2 1.2 0 0 0-.703.201 1.3 1.3 0 0 0-.452.519 1.5 1.5 0 0 0-.158.685v.392q0 .5.172.85.177.345.487.526.31.18.723.179.268 0 .484-.075.219-.078.377-.23.158-.156.244-.386l.657.184a1.46 1.46 0 0 1-.348.587 1.7 1.7 0 0 1-.605.392q-.36.138-.809.138m5.999-3.525-.611.173a1.1 1.1 0 0 0-.17-.297.8.8 0 0 0-.3-.241 1.1 1.1 0 0 0-.486-.096q-.406 0-.677.188-.267.185-.267.47 0 .252.184.4.184.146.576.244l.656.162q.593.144.884.44.291.294.291.758 0 .38-.218.68-.216.298-.605.472a2.2 2.2 0 0 1-.905.172q-.676 0-1.12-.293-.443-.294-.562-.859l.646-.16a.9.9 0 0 0 .348.535q.259.178.677.178.475 0 .754-.201.283-.205.283-.49a.51.51 0 0 0-.162-.386q-.16-.158-.495-.236l-.737-.173q-.608-.144-.893-.446a1.08 1.08 0 0 1-.282-.763q0-.374.21-.663a1.43 1.43 0 0 1 .579-.452 2 2 0 0 1 .835-.164q.657 0 1.031.288.378.288.536.76m1.104 3.433v-4.423h.679v4.423zm.345-5.16a.49.49 0 0 1-.343-.136.44.44 0 0 1-.141-.325q0-.19.141-.326a.49.49 0 0 1 .343-.135q.198 0 .34.135a.43.43 0 0 1 .144.326.43.43 0 0 1-.144.325.47.47 0 0 1-.34.135m3.364 6.911q-.492 0-.846-.127a1.8 1.8 0 0 1-.591-.328 1.8 1.8 0 0 1-.371-.432l.541-.38q.092.12.234.276.14.159.386.274.247.118.647.118.536 0 .885-.259.348-.26.348-.812v-.899h-.057q-.075.12-.213.3a1.2 1.2 0 0 1-.392.314q-.254.135-.686.135-.534 0-.961-.253a1.77 1.77 0 0 1-.671-.738q-.246-.483-.245-1.175 0-.68.239-1.183.239-.508.665-.784.426-.279.985-.279.432 0 .685.144.257.141.392.323.138.179.213.293h.069v-.702h.657v4.55q0 .57-.26.927-.255.36-.69.527a2.6 2.6 0 0 1-.963.17m-.023-2.43q.41 0 .692-.188.282-.187.429-.538t.146-.841q0-.478-.143-.844a1.27 1.27 0 0 0-.426-.573 1.15 1.15 0 0 0-.698-.207q-.432 0-.719.219-.285.218-.43.587a2.3 2.3 0 0 0-.141.818q0 .46.144.815.147.351.432.553.289.198.714.199m3.86-1.982v2.661h-.68v-4.423h.656v.69h.058q.155-.336.473-.54.316-.208.818-.208.449 0 .786.184.336.182.524.553.186.369.187.933v2.811h-.68v-2.764q0-.522-.271-.813-.27-.293-.742-.293-.326 0-.582.14a1 1 0 0 0-.4.413q-.147.27-.147.656m5.919 2.753q-.64 0-1.103-.282a1.9 1.9 0 0 1-.712-.795q-.247-.513-.247-1.192 0-.68.247-1.198.251-.522.697-.812a1.87 1.87 0 0 1 1.048-.294q.346 0 .683.115.337.116.613.375.278.255.441.68.164.423.164 1.042v.288h-3.41v-.588h2.719q0-.374-.149-.668a1.13 1.13 0 0 0-1.061-.633q-.406 0-.702.201a1.3 1.3 0 0 0-.452.519 1.5 1.5 0 0 0-.159.685v.392q0 .5.173.85.175.345.487.526.31.18.723.179.267 0 .484-.075.218-.078.377-.23.158-.156.244-.386l.657.184a1.5 1.5 0 0 1-.348.587 1.7 1.7 0 0 1-.605.392q-.36.138-.809.138m2.865-.092v-4.423h.657v.668h.046q.122-.33.437-.533.318-.204.715-.204a8 8 0 0 1 .357.011v.691a2 2 0 0 0-.159-.026 1.6 1.6 0 0 0-.256-.02q-.323 0-.575.136a.993.993 0 0 0-.543.901v2.8z"/><path stroke="#E5E6E6" stroke-width=".676" d="M51.846 80.085h118.945c5.785 0 10.476 4.69 10.476 10.475v97.338a7.77 7.77 0 0 1-2.276 5.496l-18.904 18.904a7.77 7.77 0 0 1-5.496 2.276H51.846c-5.785 0-10.475-4.69-10.475-10.475V90.56c0-5.785 4.69-10.475 10.475-10.475Z"/><path fill="#F5F5F5" d="M44.412 91.236a8.11 8.11 0 0 1 8.11-8.11h117.593a8.11 8.11 0 0 1 8.11 8.11V103.4H44.412z"/><path fill="#646868" fill-rule="evenodd" d="M54.55 89.322a3.096 3.096 0 0 0-3.07 2.686l-.356 2.676a1.183 1.183 0 0 0 1.172 1.34h.422c.356.689 1.028 1.182 1.831 1.182.804 0 1.476-.493 1.832-1.183h.422c.715 0 1.267-.63 1.172-1.339l-.357-2.676a3.095 3.095 0 0 0-3.068-2.686m.875 6.701h-1.751c.24.252.55.395.876.395.324 0 .635-.143.875-.395M51.631 89.314c.167.141.189.39.048.556a3.7 3.7 0 0 0-.79 1.606.394.394 0 0 1-.77-.169c.159-.73.494-1.393.957-1.944a.394.394 0 0 1 .555-.049m5.834 0a.394.394 0 0 1 .555.05c.463.55.798 1.213.957 1.943a.394.394 0 1 1-.77.169 3.7 3.7 0 0 0-.79-1.606.394.394 0 0 1 .047-.556" clip-rule="evenodd"/><path fill="#292929" d="M68.758 90.56h.819v3.557q0 .567-.267 1.005-.267.436-.75.687-.483.248-1.133.248-.645 0-1.13-.248a1.87 1.87 0 0 1-.75-.687 1.9 1.9 0 0 1-.266-1.005V90.56h.816v3.49q0 .367.161.652.164.286.462.448.299.161.707.161.413 0 .71-.16.301-.165.46-.45t.161-.651zm1.941 6.928v-5.576h.77v.658h.067a2 2 0 0 1 .198-.293q.13-.166.359-.291.23-.127.607-.127.492 0 .877.249.385.248.604.715.222.467.222 1.125t-.22 1.127a1.7 1.7 0 0 1-.601.72q-.383.25-.874.251-.37 0-.605-.124a1.15 1.15 0 0 1-.364-.29 2 2 0 0 1-.203-.296h-.048v2.152zm.773-3.548q0 .427.125.75.123.321.359.503.234.18.575.18a.93.93 0 0 0 .591-.187q.239-.19.36-.515.123-.324.124-.731 0-.402-.122-.72a1.1 1.1 0 0 0-.359-.505.94.94 0 0 0-.594-.185.94.94 0 0 0-.58.177 1.1 1.1 0 0 0-.357.493 2.1 2.1 0 0 0-.121.74m5.515 3.632q-.483 0-.831-.126a1.6 1.6 0 0 1-.565-.336 1.4 1.4 0 0 1-.328-.456l.679-.28q.071.116.19.245.122.132.327.225.21.092.536.092.45 0 .742-.22.293-.215.293-.69v-.798h-.05a2 2 0 0 1-.206.288q-.132.158-.364.274-.233.117-.605.116-.48 0-.866-.224a1.6 1.6 0 0 1-.607-.668q-.222-.444-.222-1.09t.22-1.109a1.67 1.67 0 0 1 .607-.707q.385-.249.874-.249.376 0 .61.127.231.125.361.29.132.167.203.294h.058v-.658h.774v4.145q0 .523-.243.858a1.43 1.43 0 0 1-.657.496q-.412.161-.93.161m-.007-2.32q.34 0 .575-.159a1 1 0 0 0 .359-.46q.124-.3.124-.72 0-.41-.121-.72a1.07 1.07 0 0 0-.357-.486.94.94 0 0 0-.58-.177.94.94 0 0 0-.595.185 1.1 1.1 0 0 0-.359.496q-.118.315-.118.702 0 .4.121.7.12.3.36.47a1 1 0 0 0 .59.168m2.895.715v-4.055h.763v.644h.043a.98.98 0 0 1 .39-.515 1.1 1.1 0 0 1 .639-.19 4 4 0 0 1 .336.019v.755a1 1 0 0 0-.17-.029 1.6 1.6 0 0 0-.242-.019q-.28 0-.5.12a.88.88 0 0 0-.47.794v2.476zm3.998.09q-.386 0-.698-.143a1.17 1.17 0 0 1-.493-.42 1.2 1.2 0 0 1-.18-.672q0-.345.133-.565a1 1 0 0 1 .356-.352q.224-.129.501-.195t.565-.1l.591-.07a.9.9 0 0 0 .33-.092q.104-.063.104-.205v-.019q0-.345-.196-.536-.192-.19-.575-.19-.4 0-.629.177a.94.94 0 0 0-.314.388l-.742-.169q.132-.369.386-.597.256-.228.588-.332.333-.105.7-.106.243 0 .515.059.275.055.512.205.24.15.393.43.153.279.154.722v2.692h-.771v-.554h-.032q-.076.153-.23.3a1.2 1.2 0 0 1-.393.246q-.24.099-.575.098m.171-.634q.328 0 .56-.129a.9.9 0 0 0 .356-.338.9.9 0 0 0 .124-.451v-.523a.4.4 0 0 1-.164.08q-.119.033-.272.06l-.298.045-.243.031a2 2 0 0 0-.42.098.7.7 0 0 0-.3.198.5.5 0 0 0-.111.338q0 .293.216.444a.96.96 0 0 0 .552.147m4.398.623q-.49 0-.875-.25a1.7 1.7 0 0 1-.602-.721q-.217-.471-.217-1.127 0-.658.22-1.125.221-.467.606-.715.385-.249.874-.249.377 0 .608.127.231.125.358.29.129.167.201.294h.047v-2.01h.79v5.407h-.771v-.631h-.066a2 2 0 0 1-.206.296q-.132.165-.364.29-.233.124-.603.124m.175-.673q.34 0 .576-.18a1.1 1.1 0 0 0 .359-.504 2.1 2.1 0 0 0 .124-.75q0-.421-.122-.739a1.1 1.1 0 0 0-.356-.493.94.94 0 0 0-.581-.177.94.94 0 0 0-.594.185q-.237.184-.36.504a2 2 0 0 0-.118.72q0 .408.122.732.12.324.358.515.24.187.592.187m4.709.676q-.6 0-1.032-.256a1.74 1.74 0 0 1-.666-.726q-.231-.47-.231-1.101 0-.623.231-1.098.235-.475.655-.742a1.8 1.8 0 0 1 .988-.267q.342 0 .665.114.321.114.578.356.256.244.404.631.147.386.148.937v.28h-3.223v-.59h2.45q0-.313-.128-.553a.96.96 0 0 0-.889-.522 1.03 1.03 0 0 0-.581.163q-.246.161-.38.423-.132.258-.132.562v.462q0 .407.143.692.144.285.403.435.26.147.605.148.225 0 .409-.064a.85.85 0 0 0 .526-.514l.747.134q-.09.33-.323.578a1.55 1.55 0 0 1-.578.383q-.346.135-.789.135m6.291 0q-.588 0-1.014-.266a1.77 1.77 0 0 1-.649-.742 2.5 2.5 0 0 1-.227-1.083q0-.618.232-1.09.232-.475.655-.742.422-.267.995-.267.462 0 .824.172.361.168.583.475.225.306.266.715h-.767a.92.92 0 0 0-.291-.49q-.224-.206-.602-.206a1 1 0 0 0-.578.174 1.1 1.1 0 0 0-.382.491q-.138.316-.138.75 0 .443.135.765.134.323.38.5.248.176.583.176a1 1 0 0 0 .407-.082.84.84 0 0 0 .309-.24.9.9 0 0 0 .177-.375h.767a1.5 1.5 0 0 1-.255.703 1.5 1.5 0 0 1-.573.485 1.86 1.86 0 0 1-.837.177m3.299-5.489v5.407h-.789v-5.406zm2.77 5.489q-.57 0-.995-.262a1.76 1.76 0 0 1-.66-.73q-.235-.47-.235-1.1t.235-1.102a1.75 1.75 0 0 1 .66-.734q.425-.261.995-.261t.996.261q.424.26.659.734.235.472.235 1.103 0 .629-.235 1.098a1.76 1.76 0 0 1-.659.731 1.86 1.86 0 0 1-.996.262m.003-.662a.94.94 0 0 0 .612-.196q.243-.195.359-.52.12-.324.119-.716a2 2 0 0 0-.119-.712 1.16 1.16 0 0 0-.359-.526.94.94 0 0 0-.612-.198.96.96 0 0 0-.618.198 1.2 1.2 0 0 0-.361.526 2.1 2.1 0 0 0-.117.712q0 .392.117.716.118.325.361.52.246.195.618.196m5.337-1.101v-2.374h.792v4.055h-.776v-.702h-.043a1.26 1.26 0 0 1-.448.541q-.306.214-.763.214-.39 0-.692-.172a1.2 1.2 0 0 1-.469-.515q-.17-.34-.169-.842v-2.579h.789v2.484q0 .416.229.66a.78.78 0 0 0 .597.246.97.97 0 0 0 .808-.447q.148-.224.145-.57m3.371 1.76q-.492 0-.877-.25a1.7 1.7 0 0 1-.602-.721q-.216-.471-.216-1.127 0-.658.219-1.125.222-.467.607-.715a1.6 1.6 0 0 1 .874-.249q.378 0 .607.127.233.125.359.29.13.167.201.294h.047v-2.01h.789v5.407h-.77v-.631h-.066a2 2 0 0 1-.206.296 1.1 1.1 0 0 1-.365.29q-.231.124-.601.124m.174-.673q.34 0 .575-.18.238-.18.359-.504.125-.321.125-.75a2.1 2.1 0 0 0-.122-.739 1.1 1.1 0 0 0-.356-.493.94.94 0 0 0-.581-.177.93.93 0 0 0-.594.185 1.1 1.1 0 0 0-.359.504 2 2 0 0 0-.119.72q0 .408.121.732t.36.515a.93.93 0 0 0 .591.187m7.967-2.47-.715.126a.9.9 0 0 0-.143-.261.7.7 0 0 0-.259-.204.9.9 0 0 0-.409-.079q-.335 0-.559.15-.225.149-.224.383 0 .204.15.328.15.123.485.203l.645.148q.56.13.834.398.275.27.275.7 0 .365-.212.65a1.4 1.4 0 0 1-.583.443q-.372.161-.863.16-.681 0-1.112-.29a1.23 1.23 0 0 1-.528-.831l.763-.116q.072.298.293.451.221.15.578.151.389 0 .621-.162.232-.163.232-.398a.42.42 0 0 0-.142-.32q-.141-.128-.431-.195l-.686-.15q-.569-.13-.84-.412a1 1 0 0 1-.269-.716q0-.358.201-.627.2-.27.554-.42.354-.154.81-.154.658 0 1.035.286.378.282.499.757m2.84-.99v.632h-2.215v-.633zm-1.621-.973h.789v3.836q0 .23.069.346a.36.36 0 0 0 .177.156q.111.04.24.04a1 1 0 0 0 .167-.013l.11-.022.143.652a1.508 1.508 0 0 1-.512.085 1.4 1.4 0 0 1-.581-.111 1 1 0 0 1-.436-.359 1.06 1.06 0 0 1-.166-.61zm4.159 5.109a1.86 1.86 0 0 1-.995-.262 1.76 1.76 0 0 1-.661-.73q-.234-.47-.234-1.1t.234-1.102.661-.734a1.86 1.86 0 0 1 .995-.261q.57 0 .995.261.425.26.66.734.235.472.235 1.103 0 .629-.235 1.098a1.76 1.76 0 0 1-.66.731 1.86 1.86 0 0 1-.995.262m.003-.662q.369 0 .612-.196.243-.195.359-.52.119-.324.119-.716 0-.387-.119-.712a1.17 1.17 0 0 0-.359-.526.94.94 0 0 0-.612-.198.96.96 0 0 0-.619.198 1.2 1.2 0 0 0-.361.526 2.1 2.1 0 0 0-.116.712q0 .392.116.716.119.325.361.52.246.195.619.196m2.768.58v-4.055h.763v.644h.042a1 1 0 0 1 .391-.515 1.1 1.1 0 0 1 .639-.19 4 4 0 0 1 .335.019v.755a1 1 0 0 0-.169-.029 1.6 1.6 0 0 0-.243-.019q-.279 0-.499.12a.89.89 0 0 0-.47.794v2.476zm3.997.09a1.65 1.65 0 0 1-.697-.143 1.17 1.17 0 0 1-.493-.42 1.2 1.2 0 0 1-.18-.672q0-.345.132-.565a.96.96 0 0 1 .356-.352q.225-.129.502-.195.276-.066.565-.1l.591-.07a.9.9 0 0 0 .33-.092q.103-.063.103-.205v-.019q0-.345-.196-.536-.192-.19-.575-.19-.399 0-.628.177a.94.94 0 0 0-.314.388l-.742-.169a1.4 1.4 0 0 1 .385-.597q.256-.228.589-.332t.7-.106q.243 0 .515.059.274.055.512.205.24.15.393.43.153.279.153.722v2.692h-.771v-.554h-.031a1.2 1.2 0 0 1-.23.3q-.153.15-.393.246a1.5 1.5 0 0 1-.576.098m.171-.634q.328 0 .56-.129a.882.882 0 0 0 .48-.79v-.522a.4.4 0 0 1-.163.08q-.119.033-.272.06l-.298.045-.243.031a2 2 0 0 0-.42.098.73.73 0 0 0-.301.198.5.5 0 0 0-.111.338q0 .293.217.444a.96.96 0 0 0 .551.147m4.581 2.15q-.483 0-.831-.127a1.6 1.6 0 0 1-.565-.336 1.4 1.4 0 0 1-.327-.456l.678-.28q.072.116.19.245.121.132.327.225.21.092.536.092.45 0 .742-.22.293-.215.293-.69v-.798h-.05a1.7 1.7 0 0 1-.206.288 1.1 1.1 0 0 1-.364.274q-.233.117-.605.116-.48 0-.865-.224a1.6 1.6 0 0 1-.608-.668q-.221-.444-.222-1.09 0-.646.219-1.109.222-.462.608-.707.385-.249.874-.249.377 0 .609.127.233.125.362.29.132.167.203.294h.058v-.658h.774v4.145q0 .523-.243.858t-.658.496a2.5 2.5 0 0 1-.929.161m-.007-2.322q.34 0 .575-.158a1 1 0 0 0 .359-.46q.124-.3.124-.72 0-.41-.122-.72a1.06 1.06 0 0 0-.356-.486.94.94 0 0 0-.58-.177.93.93 0 0 0-.594.185q-.239.182-.359.496-.12.315-.119.702 0 .4.121.7.122.3.359.47.24.168.592.168m4.643.798q-.599 0-1.032-.256a1.73 1.73 0 0 1-.665-.726 2.46 2.46 0 0 1-.233-1.101q0-.623.233-1.098.235-.475.654-.742.423-.267.988-.267.343 0 .665.114t.578.356q.257.244.404.631.148.386.148.937v.28h-3.223v-.59h2.45a1.2 1.2 0 0 0-.127-.553.97.97 0 0 0-.356-.383 1 1 0 0 0-.534-.14q-.332 0-.581.164-.245.161-.38.423-.132.258-.132.562v.462q0 .407.142.692.146.285.405.435.258.147.604.148.225 0 .409-.064a.835.835 0 0 0 .525-.514l.748.134q-.09.33-.323.578a1.55 1.55 0 0 1-.577.383q-.346.135-.79.135"/><mask id="d" width="135" height="41" x="44" y="103" maskUnits="userSpaceOnUse" style="mask-type:luminance"><path fill="#fff" d="M44.414 103.401h133.813v32.44a8.11 8.11 0 0 1-8.11 8.11H52.524a8.11 8.11 0 0 1-8.11-8.11z"/></mask><g mask="url(#d)"><path fill="#F5F5F5" d="M178.903 135.841a8.785 8.785 0 0 1-8.786 8.785H52.524a8.785 8.785 0 0 1-8.786-8.785h1.352a7.435 7.435 0 0 0 7.434 7.434h117.593a7.434 7.434 0 0 0 7.434-7.434zm-126.379 8.785a8.785 8.785 0 0 1-8.786-8.785v-32.44h1.352v32.44a7.435 7.435 0 0 0 7.434 7.434zm126.379-41.225v32.44a8.785 8.785 0 0 1-8.786 8.785v-1.351a7.434 7.434 0 0 0 7.434-7.434v-32.44z"/></g><path fill="#777D7D" d="M69.887 113.443v-.58h4.055v.58h-1.7v4.826h-.655v-4.826zm5.622 4.922q-.385 0-.7-.146a1.2 1.2 0 0 1-.498-.425 1.2 1.2 0 0 1-.185-.676q0-.349.137-.565a1 1 0 0 1 .367-.343q.23-.123.507-.184.28-.064.562-.101.37-.048.6-.071a1 1 0 0 0 .337-.087q.11-.061.109-.212v-.021q0-.39-.214-.607-.212-.217-.642-.217-.445 0-.7.196-.252.195-.356.417l-.591-.211a1.4 1.4 0 0 1 .422-.575q.267-.209.581-.291.317-.084.623-.084.195 0 .449.047.255.045.494.188a1.1 1.1 0 0 1 .398.43q.159.287.159.771v2.671h-.623v-.549h-.032a1.1 1.1 0 0 1-.211.282 1.2 1.2 0 0 1-.394.257 1.5 1.5 0 0 1-.599.106m.095-.561q.37 0 .623-.144.256-.146.386-.375a.96.96 0 0 0 .132-.484v-.57q-.04.048-.175.087-.132.037-.306.067a17 17 0 0 1-.596.079 2.4 2.4 0 0 0-.455.102.8.8 0 0 0-.337.209.53.53 0 0 0-.127.375q0 .324.24.491.243.163.615.163m5.773-2.681-.56.158a1 1 0 0 0-.155-.272.75.75 0 0 0-.275-.221 1 1 0 0 0-.446-.088q-.372 0-.62.172-.246.168-.246.43 0 .233.169.367.17.135.528.224l.602.148q.544.132.81.404a.94.94 0 0 1 .267.694q0 .349-.2.624a1.33 1.33 0 0 1-.555.433 2 2 0 0 1-.829.158q-.62 0-1.027-.269a1.2 1.2 0 0 1-.515-.787l.592-.148a.82.82 0 0 0 .32.491q.236.163.62.163.435 0 .691-.184.26-.187.259-.449a.47.47 0 0 0-.148-.353q-.148-.146-.454-.217l-.676-.158q-.557-.132-.818-.41a1 1 0 0 1-.259-.699 1 1 0 0 1 .193-.607q.195-.265.53-.415.338-.15.766-.15.601 0 .945.263.345.265.491.698m1.593 1.668-.011-.771h.127l1.774-1.806h.77l-1.89 1.912h-.052zm-.581 1.478v-5.406h.623v5.406zm2.577 0-1.585-2.006.444-.433 1.933 2.439z"/><path fill="#141515" d="M65.654 133.137v-.86l2.661-2.757q.427-.449.703-.787.28-.342.418-.649.14-.307.139-.653a1.2 1.2 0 0 0-.185-.675 1.2 1.2 0 0 0-.503-.442 1.6 1.6 0 0 0-.718-.158 1.5 1.5 0 0 0-.737.173q-.315.174-.484.488-.168.315-.169.737h-1.132q0-.718.33-1.255a2.24 2.24 0 0 1 .906-.834q.576-.3 1.31-.299.74 0 1.305.295.568.292.887.799.319.503.319 1.137 0 .438-.165.856-.162.418-.565.933-.403.51-1.121 1.241l-1.563 1.635v.058h3.54v1.017zm6.298-1.536v-.959l3.398-5.369h.756v1.414h-.48l-2.43 3.847v.062h4.658v1.005zm3.728 1.536v-1.828l.008-.437v-5.599h1.125v7.864z"/><path fill="#777D7D" d="m80.916 127.477-1.742 6.473h-.57l1.742-6.473zm2.524 5.734a2 2 0 0 1-.666-.127 1.6 1.6 0 0 1-.607-.409q-.274-.29-.441-.784-.166-.496-.166-1.246 0-.719.134-1.272.135-.558.391-.938.256-.382.618-.58a1.7 1.7 0 0 1 .821-.198q.454 0 .808.182.355.18.58.501.225.322.29.742h-.643a1.2 1.2 0 0 0-.349-.605q-.258-.24-.686-.24-.63 0-.99.547-.36.546-.362 1.534h.042a1.57 1.57 0 0 1 .805-.631q.248-.087.526-.087.465 0 .85.232.386.23.618.636.232.404.232.927a1.9 1.9 0 0 1-.225.918q-.224.415-.63.661-.404.242-.95.237m0-.581q.332 0 .596-.166.266-.167.42-.446a1.26 1.26 0 0 0 .156-.623q0-.336-.151-.61a1.15 1.15 0 0 0-.41-.441 1.1 1.1 0 0 0-.59-.164q-.251 0-.468.1a1.23 1.23 0 0 0-.633.663q-.093.219-.093.462a1.25 1.25 0 0 0 .568 1.054q.266.171.605.171m2.716-.602v-.539l2.377-3.759h.39v.834h-.264l-1.795 2.841v.043h3.2v.58zm2.545 1.109v-5.407h.624v5.407z"/><path fill="#F5F5F5" d="M111.656 115.904a.338.338 0 1 0-.676 0v15.544a.338.338 0 0 0 .676 0z"/><path fill="#777D7D" d="M134.73 114.214a.83.83 0 0 0-.386-.623q-.337-.222-.828-.221-.359 0-.629.116a1 1 0 0 0-.417.32.77.77 0 0 0-.148.461q0 .217.103.372.106.154.27.257.163.1.343.166.18.063.33.103l.549.148q.212.055.47.153.262.097.499.266.24.167.396.428t.156.641q0 .439-.23.792a1.56 1.56 0 0 1-.666.563q-.435.209-1.058.209a2.5 2.5 0 0 1-1.006-.188 1.6 1.6 0 0 1-.665-.523 1.5 1.5 0 0 1-.272-.778h.676a.84.84 0 0 0 .206.506q.182.198.459.296.28.095.602.095.375 0 .673-.121.298-.125.473-.344a.8.8 0 0 0 .174-.517.63.63 0 0 0-.151-.438 1.1 1.1 0 0 0-.396-.275 4 4 0 0 0-.53-.185l-.665-.19q-.634-.181-1.004-.519-.369-.339-.369-.885 0-.454.245-.792.25-.34.665-.528.42-.19.938-.19.522 0 .929.187a1.6 1.6 0 0 1 .644.507q.24.322.253.731zm3.463 0v.528h-2.102v-.528zm-1.489-.971h.623v3.865q0 .264.077.396a.4.4 0 0 0 .201.174.8.8 0 0 0 .26.042q.103 0 .169-.01l.106-.021.127.559a1.345 1.345 0 0 1-.982-.04 1 1 0 0 1-.417-.346 1 1 0 0 1-.164-.585zm4.03 5.111q-.55 0-.963-.262a1.76 1.76 0 0 1-.645-.731q-.23-.47-.229-1.098 0-.634.229-1.106.232-.473.645-.734t.963-.261q.549 0 .961.261.414.261.644.734.232.472.232 1.106 0 .629-.232 1.098a1.75 1.75 0 0 1-.644.731 1.75 1.75 0 0 1-.961.262m0-.56q.417 0 .686-.214.27-.213.399-.562.129-.348.129-.755 0-.406-.129-.758a1.3 1.3 0 0 0-.399-.567q-.27-.216-.686-.217-.417 0-.686.217-.27.216-.399.567a2.2 2.2 0 0 0-.129.758q0 .407.129.755t.399.562q.269.214.686.214m2.788.475v-4.055h.602v.613h.043a.96.96 0 0 1 .401-.488 1.2 1.2 0 0 1 .654-.188 6 6 0 0 1 .327.011v.633a2 2 0 0 0-.379-.042q-.296 0-.528.124a.93.93 0 0 0-.364.338.9.9 0 0 0-.133.488v2.566zm3.96.096q-.385 0-.7-.146a1.2 1.2 0 0 1-.499-.425 1.2 1.2 0 0 1-.185-.676q0-.349.137-.565a1 1 0 0 1 .367-.343 2 2 0 0 1 .507-.184q.28-.064.563-.101.37-.048.599-.071a.9.9 0 0 0 .338-.087q.108-.061.108-.212v-.021q0-.39-.213-.607-.212-.217-.643-.217-.445 0-.699.196-.254.195-.356.417l-.591-.211q.158-.37.422-.575.267-.209.58-.291.317-.084.624-.084.195 0 .448.047.257.045.494.188.24.142.398.43.159.287.159.771v2.671h-.623v-.549h-.032a1.19 1.19 0 0 1-.604.538 1.5 1.5 0 0 1-.599.107m.094-.561q.37 0 .623-.144a1 1 0 0 0 .386-.375.96.96 0 0 0 .132-.484v-.57q-.039.048-.174.087-.132.037-.306.066a12 12 0 0 1-.597.08q-.243.03-.454.102a.8.8 0 0 0-.338.209.53.53 0 0 0-.127.375q0 .324.24.491.243.163.615.163m4.538 2.07q-.452 0-.776-.116a1.621 1.621 0 0 1-.882-.697l.497-.348q.084.11.213.253.13.146.354.251.226.108.594.108.491 0 .811-.237t.319-.745v-.823h-.053a4 4 0 0 1-.195.274 1.1 1.1 0 0 1-.359.288q-.232.124-.629.124-.49 0-.882-.232a1.64 1.64 0 0 1-.615-.677q-.224-.443-.224-1.076 0-.624.219-1.085.22-.465.61-.718.39-.256.903-.256.396 0 .628.131.235.13.36.296.126.164.195.269h.063v-.644h.602v4.172q0 .522-.238.85-.235.329-.633.483a2.4 2.4 0 0 1-.882.155m-.021-2.228q.375 0 .634-.171.258-.173.393-.494a2 2 0 0 0 .135-.771q0-.438-.133-.773a1.16 1.16 0 0 0-.391-.526 1.05 1.05 0 0 0-.638-.19q-.396 0-.66.201a1.23 1.23 0 0 0-.394.539 2.1 2.1 0 0 0-.129.749q0 .423.132.748.135.321.396.506.264.182.655.182m4.614.708q-.586 0-1.011-.259a1.74 1.74 0 0 1-.652-.729 2.5 2.5 0 0 1-.227-1.092q0-.624.227-1.099.23-.478.639-.744.412-.269.961-.269.317 0 .626.105t.562.343q.253.235.404.624.15.388.151.955v.264h-3.126v-.538h2.492q0-.343-.137-.613a1.04 1.04 0 0 0-.972-.581q-.371 0-.644.185-.269.182-.415.476a1.4 1.4 0 0 0-.145.627v.36q0 .46.159.778.16.317.446.484.285.162.662.163.246 0 .444-.069a.9.9 0 0 0 .346-.211 1 1 0 0 0 .224-.354l.602.169a1.34 1.34 0 0 1-.319.539q-.225.23-.555.359-.33.127-.742.127"/><path fill="#141515" d="M133.477 133.245q-.79 0-1.413-.273a2.4 2.4 0 0 1-.979-.756 2 2 0 0 1-.384-1.129h1.206q.023.35.234.607a1.4 1.4 0 0 0 .561.391q.345.14.768.139.464 0 .822-.162.36-.16.564-.449.204-.293.204-.672 0-.396-.204-.695a1.3 1.3 0 0 0-.587-.476q-.384-.173-.929-.173h-.665v-.967h.665q.437 0 .767-.158.334-.157.523-.438.188-.284.188-.664a1.2 1.2 0 0 0-.165-.634 1.1 1.1 0 0 0-.461-.426 1.5 1.5 0 0 0-.699-.154q-.384 0-.718.143-.33.138-.538.399a1.02 1.02 0 0 0-.223.618h-1.148q.02-.637.377-1.121a2.4 2.4 0 0 1 .952-.757 3.1 3.1 0 0 1 1.314-.272q.756 0 1.305.295.553.292.852.78.304.488.3 1.067.005.662-.369 1.122a1.8 1.8 0 0 1-.983.618v.061q.784.12 1.213.622.435.503.431 1.248.004.65-.361 1.164-.361.514-.987.81-.626.292-1.433.292m4.232-.108v-.86l2.661-2.757q.427-.449.703-.787.28-.342.418-.649.139-.307.139-.653a1.2 1.2 0 0 0-.185-.675 1.2 1.2 0 0 0-.502-.442 1.6 1.6 0 0 0-.719-.158q-.423 0-.737.173-.315.174-.484.488-.168.315-.169.737h-1.133q0-.718.331-1.255.33-.538.906-.834.576-.3 1.309-.299.74 0 1.306.295.568.292.887.799.318.503.319 1.137 0 .438-.165.856-.162.418-.565.933-.403.51-1.122 1.241l-1.562 1.635v.058h3.541v1.017z"/><path fill="#777D7D" d="m146.067 127.477-1.743 6.473h-.57l1.742-6.473zm.727 5.66v-.475l1.785-1.954q.313-.343.517-.596.203-.256.301-.481.1-.227.101-.475a.88.88 0 0 0-.507-.816 1.2 1.2 0 0 0-.529-.113q-.31 0-.543.129a.9.9 0 0 0-.357.357 1.1 1.1 0 0 0-.124.538h-.623q0-.475.219-.834.22-.36.597-.56.38-.2.853-.2.474 0 .842.2a1.5 1.5 0 0 1 .575.541q.209.34.209.758 0 .298-.108.584-.105.282-.37.63a11 11 0 0 1-.726.845l-1.214 1.299v.043h2.513v.58zm6.191.074q-.465 0-.837-.185a1.55 1.55 0 0 1-.596-.507 1.37 1.37 0 0 1-.246-.733h.633a.87.87 0 0 0 .333.606q.299.238.713.238.333 0 .591-.155.262-.156.409-.428.151-.275.151-.62a1.27 1.27 0 0 0-.156-.632 1.14 1.14 0 0 0-.423-.44 1.2 1.2 0 0 0-.615-.164 1.7 1.7 0 0 0-.509.077q-.262.076-.43.198l-.613-.075.328-2.66h2.809v.58h-2.26l-.19 1.595h.031q.167-.132.417-.219.252-.087.524-.087a1.66 1.66 0 0 1 1.496.881q.224.41.224.935 0 .517-.232.924a1.7 1.7 0 0 1-.634.639 1.8 1.8 0 0 1-.918.232m4.628 0a2 2 0 0 1-.665-.127 1.6 1.6 0 0 1-.607-.409q-.274-.29-.441-.784-.166-.496-.166-1.246 0-.718.134-1.272.135-.558.391-.938.257-.382.618-.58a1.7 1.7 0 0 1 .821-.198q.454 0 .808.182.356.18.58.501.225.322.291.742h-.644a1.2 1.2 0 0 0-.349-.605q-.258-.24-.686-.24-.629 0-.99.547-.36.546-.362 1.534h.042a1.605 1.605 0 0 1 .805-.631q.249-.087.526-.087.465 0 .85.232.386.23.618.636.232.404.232.927a1.9 1.9 0 0 1-.225.918 1.7 1.7 0 0 1-.63.661 1.8 1.8 0 0 1-.951.237m0-.581q.333 0 .597-.166.266-.166.419-.446.157-.28.157-.623a1.24 1.24 0 0 0-.56-1.051 1.1 1.1 0 0 0-.591-.164q-.251 0-.468.1a1.23 1.23 0 0 0-.633.663 1.242 1.242 0 0 0 .475 1.516q.267.171.604.171"/><path fill="#505454" d="M54.359 160.17q0 .856-.309 1.478a2.3 2.3 0 0 1-.847.961 2.26 2.26 0 0 1-1.23.338 2.26 2.26 0 0 1-1.23-.338 2.3 2.3 0 0 1-.848-.961q-.31-.622-.31-1.478 0-.855.31-1.478.309-.623.847-.961.54-.338 1.23-.338.693 0 1.23.338.54.338.848.961.309.623.309 1.478m-.634 0q0-.702-.235-1.185a1.7 1.7 0 0 0-.63-.731 1.63 1.63 0 0 0-.888-.248q-.49 0-.89.248a1.7 1.7 0 0 0-.63.731q-.233.483-.233 1.185t.233 1.186q.235.482.63.731.4.248.89.248.492 0 .887-.248a1.7 1.7 0 0 0 .631-.731q.235-.484.235-1.186m4.966-1.351-1.5 4.055h-.633l-1.5-4.055h.676l1.12 3.231h.042l1.12-3.231zm2.377 4.139q-.585 0-1.01-.259a1.74 1.74 0 0 1-.653-.728 2.5 2.5 0 0 1-.227-1.093q0-.623.227-1.098.23-.478.639-.745a1.7 1.7 0 0 1 .96-.269q.317 0 .627.105.309.107.562.344.253.235.404.623.15.388.15.955v.264h-3.125v-.538h2.492q0-.343-.138-.613a1.04 1.04 0 0 0-.385-.425 1.1 1.1 0 0 0-.586-.155 1.1 1.1 0 0 0-.644.184q-.27.183-.415.476a1.4 1.4 0 0 0-.145.628v.359q0 .46.159.779.16.317.446.483.285.164.662.164.246 0 .444-.069a1 1 0 0 0 .346-.211 1 1 0 0 0 .224-.354l.602.169q-.095.306-.32.538-.224.23-.554.359-.33.127-.742.127m2.627-.084v-4.055h.602v.612h.042a.97.97 0 0 1 .401-.488 1.2 1.2 0 0 1 .655-.188l.172.003q.102.003.156.008v.633a2 2 0 0 0-.146-.023 1.4 1.4 0 0 0-.235-.019q-.296 0-.528.124a.912.912 0 0 0-.496.827v2.566zm3.96.095a1.7 1.7 0 0 1-.7-.145 1.2 1.2 0 0 1-.5-.425 1.2 1.2 0 0 1-.184-.676q0-.35.137-.565a1 1 0 0 1 .367-.344q.23-.123.507-.184.28-.064.562-.101.37-.048.6-.071a.9.9 0 0 0 .338-.087q.108-.06.108-.211v-.021q0-.391-.214-.607-.21-.217-.642-.217-.445 0-.7.195-.252.196-.356.418l-.59-.212a1.4 1.4 0 0 1 .421-.575q.267-.208.581-.291.318-.084.623-.084.195 0 .45.047.255.045.493.188a1.1 1.1 0 0 1 .398.43q.159.288.159.771v2.672h-.623v-.55h-.032a1.1 1.1 0 0 1-.211.283q-.148.15-.393.256a1.5 1.5 0 0 1-.6.106m.094-.56q.37 0 .623-.145a.99.99 0 0 0 .518-.858v-.571q-.04.048-.174.088-.132.037-.307.066a17 17 0 0 1-.596.079 2.3 2.3 0 0 0-.454.103.8.8 0 0 0-.338.208.53.53 0 0 0-.127.375q0 .325.24.491.243.165.615.164m3.524-4.942v5.407h-.623v-5.407zm1.764 0v5.407h-.623v-5.407zm3.538 5.407h-.686l1.985-5.407h.676l1.985 5.407h-.686l-1.616-4.551h-.042zm.254-2.112h2.766v.58H76.83zm6.111 2.196q-.57 0-.982-.269a1.76 1.76 0 0 1-.633-.742 2.5 2.5 0 0 1-.222-1.08q0-.617.227-1.09.23-.475.639-.742.412-.269.96-.269.429 0 .772.158.343.16.562.443.219.287.272.666h-.623a.96.96 0 0 0-.317-.491q-.243-.216-.655-.216a1.1 1.1 0 0 0-.639.189 1.25 1.25 0 0 0-.424.531q-.151.34-.151.8 0 .47.148.819.15.349.422.541.275.192.644.193.244 0 .441-.085a.9.9 0 0 0 .53-.623h.624a1.44 1.44 0 0 1-.808 1.101 1.76 1.76 0 0 1-.787.166m4.269-4.139v.528h-2.101v-.528zm-1.489-.972h.623v3.865q0 .264.076.396.08.13.201.174.124.043.262.042a1.1 1.1 0 0 0 .274-.031l.127.56a1.5 1.5 0 0 1-.465.073 1.25 1.25 0 0 1-.517-.113 1.03 1.03 0 0 1-.417-.346 1 1 0 0 1-.164-.586zm2.426 5.027v-4.055h.623v4.055zm.317-4.731a.44.44 0 0 1-.314-.124.4.4 0 0 1-.13-.299q0-.174.13-.298a.44.44 0 0 1 .314-.124q.181 0 .312.124a.4.4 0 0 1 .131.298.4.4 0 0 1-.131.299.43.43 0 0 1-.312.124m4.763.676-1.5 4.055h-.633l-1.5-4.055h.676l1.12 3.231h.042l1.119-3.231zm.822 4.055v-4.055h.623v4.055zm.317-4.731a.44.44 0 0 1-.314-.124.4.4 0 0 1-.13-.299.4.4 0 0 1 .13-.298.44.44 0 0 1 .314-.124q.182 0 .312.124a.4.4 0 0 1 .131.298.4.4 0 0 1-.131.299.43.43 0 0 1-.312.124m3.211.676v.528h-2.101v-.528zm-1.489-.972h.623v3.865q0 .264.077.396.079.13.2.174.124.043.262.042a1.1 1.1 0 0 0 .274-.031l.127.56a1.4 1.4 0 0 1-.465.073q-.264 0-.517-.113a1.03 1.03 0 0 1-.417-.346 1 1 0 0 1-.164-.586zm2.827 6.547a1.4 1.4 0 0 1-.453-.073l.158-.55q.227.058.401.043a.49.49 0 0 0 .31-.156q.136-.138.25-.446l.116-.317-1.5-4.076h.676l1.12 3.231h.042l1.119-3.231h.676l-1.721 4.646a1.7 1.7 0 0 1-.288.52 1.1 1.1 0 0 1-.399.309q-.224.1-.507.1m4.192-1.478a.46.46 0 0 1-.336-.14.46.46 0 0 1-.139-.336.46.46 0 0 1 .139-.335.46.46 0 0 1 .336-.14.46.46 0 0 1 .335.14.46.46 0 0 1 .073.573.454.454 0 0 1-.408.238m0-3.01a.46.46 0 0 1-.336-.14.46.46 0 0 1-.139-.335q0-.195.139-.335a.46.46 0 0 1 .336-.14.46.46 0 0 1 .335.14q.14.14.14.335a.45.45 0 0 1-.067.238.5.5 0 0 1-.171.174.45.45 0 0 1-.237.063"/><path fill="url(#e)" fill-opacity=".08" d="m163.151 176.707 4.77 5.136a7.6 7.6 0 0 0 5.573 2.429v10.355c0 .719-.286 1.407-.795 1.915l-9.51 9.472a2.7 2.7 0 0 1-1.908.788H49.143v-33.115c4.675 0 9.234 1.46 13.039 4.178l7.537 5.384a6.78 6.78 0 0 0 9.087-1.104l4.306-5.021a9.845 9.845 0 0 1 15.508.714l.894 1.261a12.84 12.84 0 0 0 10.472 5.412h.297c3.526 0 6.912 1.389 9.422 3.866l2.01 1.985a6.575 6.575 0 0 0 9.271-.033l3.633-3.638a7.43 7.43 0 0 1 5.259-2.18 7.43 7.43 0 0 0 6.106-3.194l2.479-3.57a9.454 9.454 0 0 1 14.688-1.04"/><g filter="url(#f)"><path stroke="#141515" stroke-width="1.352" d="M173.494 184.5a7.5 7.5 0 0 1-5.547-2.453l-4.816-5.297a9.36 9.36 0 0 0-14.637.995l-2.527 3.678a7.39 7.39 0 0 1-6.086 3.203c-1.974 0-3.865.79-5.252 2.194l-3.654 3.696a6.525 6.525 0 0 1-9.25.033l-2.038-2.032a13.32 13.32 0 0 0-9.409-3.891h-.244a12.85 12.85 0 0 1-10.52-5.47l-.916-1.305a9.785 9.785 0 0 0-15.47-.711l-4.336 5.111a6.73 6.73 0 0 1-9.068 1.102l-7.563-5.458a22.24 22.24 0 0 0-13.018-4.208"/></g><g filter="url(#g)"><path fill="#fff" d="M170.918 182.783h75.467v17.027h-75.467z" shape-rendering="crispEdges"/><path stroke="#000" stroke-width=".431" d="M171.134 182.998h75.036v16.596h-75.036z" shape-rendering="crispEdges"/><path fill="#0F0F19" d="M176.567 193.956v-4.321h3.124v.51h-2.552v1.323h2.39v.507h-2.39v1.471h2.652v.51zm3.884 0 1.659-4.321h.616l1.769 4.321h-.652l-.504-1.309h-1.806l-.475 1.309zm1.247-1.774h1.465l-.451-1.197q-.207-.545-.307-.896a5.4 5.4 0 0 1-.233.825zm3.607 1.774v-4.321h1.915q.578 0 .879.118.3.115.48.41.18.294.18.651 0 .46-.298.775t-.919.401q.227.109.344.215.251.23.475.575l.751 1.176h-.719l-.571-.899a8 8 0 0 0-.413-.596 1.3 1.3 0 0 0-.292-.288.8.8 0 0 0-.259-.115 1.7 1.7 0 0 0-.318-.021h-.663v1.919zm.572-2.414h1.229q.391 0 .613-.08a.66.66 0 0 0 .335-.259.7.7 0 0 0 .115-.389.64.64 0 0 0-.224-.504q-.22-.197-.701-.197h-1.367zm4.12 2.414v-4.321h.586l2.269 3.392v-3.392h.548v4.321h-.586l-2.269-3.395v3.395zm6.736 0v-4.321h1.63q.43 0 .657.042.318.053.534.203.215.147.344.416a1.3 1.3 0 0 1 .133.589q0 .551-.351.934-.35.38-1.267.38h-1.108v1.757zm.572-2.267h1.117q.554 0 .787-.206t.233-.58a.77.77 0 0 0-.139-.463.63.63 0 0 0-.359-.256q-.145-.039-.534-.039h-1.105zm3.625.162q0-1.076.577-1.682.578-.61 1.492-.61.597 0 1.078.286.48.285.731.798.253.51.253 1.158 0 .657-.265 1.176a1.82 1.82 0 0 1-.751.787 2.15 2.15 0 0 1-1.049.265q-.61 0-1.091-.294a1.9 1.9 0 0 1-.728-.805 2.44 2.44 0 0 1-.247-1.079m.589.009q0 .782.419 1.232.421.448 1.055.448.645 0 1.061-.454.418-.453.418-1.288 0-.527-.18-.919a1.35 1.35 0 0 0-.521-.61 1.4 1.4 0 0 0-.769-.218q-.608 0-1.047.418-.435.416-.436 1.391m4.724 2.096v-4.321h.572v4.321zm1.922 0v-4.321h.586l2.269 3.392v-3.392h.548v4.321h-.586l-2.269-3.395v3.395zm5.811 0v-3.811h-1.423v-.51h3.424v.51h-1.429v3.811zm2.741-1.388.539-.048q.039.325.177.534.141.206.436.336.294.126.663.126.327 0 .578-.097a.8.8 0 0 0 .371-.265.62.62 0 0 0 .124-.371.56.56 0 0 0-.118-.354q-.118-.153-.389-.256a8 8 0 0 0-.769-.21q-.596-.144-.834-.271a1.2 1.2 0 0 1-.463-.4q-.15-.242-.15-.54 0-.327.185-.61a1.15 1.15 0 0 1 .543-.433q.356-.147.792-.147.482 0 .846.156.368.153.566.454.198.3.212.68l-.548.042q-.044-.41-.301-.619-.253-.21-.751-.209-.519 0-.757.191a.57.57 0 0 0-.236.457q0 .233.168.383.165.15.86.309.699.157.958.275.378.173.557.442.18.264.18.613 0 .344-.198.651-.197.303-.568.474a2 2 0 0 1-.831.168q-.586 0-.985-.171a1.39 1.39 0 0 1-.857-1.29"/></g><g filter="url(#h)"><mask id="i" fill="#fff"><path d="M170.918 165.97h75.467v16.734h-75.467z"/></mask><path fill="#fff" d="M170.918 165.97h75.467v16.734h-75.467z" shape-rendering="crispEdges"/><path fill="#000" d="M170.918 165.97v-.431h-.431v.431zm75.467 0h.431v-.431h-.431zm-75.467 0v.431h75.467v-.862h-75.467zm75.467 0h-.431v16.734h.862V165.97zm-75.467 16.734h.431V165.97h-.862v16.734z" mask="url(#i)"/><path fill="#0F0F19" d="M176.653 176.712v-4.32h.571v4.32zm1.921 0v-4.32h.587l2.269 3.392v-3.392h.548v4.32h-.587l-2.269-3.395v3.395zm4.518-1.388.539-.047q.039.324.177.533.141.207.436.336.295.127.663.127.327 0 .578-.097a.8.8 0 0 0 .371-.266.6.6 0 0 0 .124-.371.56.56 0 0 0-.118-.354q-.118-.153-.389-.256a8 8 0 0 0-.769-.209q-.596-.145-.834-.271a1.2 1.2 0 0 1-.463-.401q-.15-.242-.15-.539 0-.327.186-.61.185-.286.542-.434.356-.147.792-.147.482 0 .846.156.368.154.566.454t.212.681l-.548.041q-.044-.41-.3-.619-.254-.209-.752-.209-.519 0-.757.192a.57.57 0 0 0-.236.456.49.49 0 0 0 .168.383q.165.151.86.31.699.156.958.274.378.174.557.442.18.265.18.613 0 .345-.198.651a1.3 1.3 0 0 1-.568.475 2 2 0 0 1-.831.168q-.586 0-.985-.171a1.4 1.4 0 0 1-.621-.513 1.47 1.47 0 0 1-.236-.778m5.664 1.388v-3.81h-1.423v-.51h3.424v.51h-1.429v3.81zm2.013 0 1.659-4.32h.616l1.768 4.32h-.651l-.504-1.309h-1.807l-.474 1.309zm1.246-1.774h1.465l-.451-1.197a11 11 0 0 1-.306-.895 5.5 5.5 0 0 1-.233.825zm3.593 1.774v-4.32h.586l2.269 3.392v-3.392h.548v4.32h-.586l-2.269-3.395v3.395zm5.811 0v-3.81h-1.423v-.51h3.424v.51h-1.429v3.81zm4.857 0v-4.32h1.915q.578 0 .878.118a.95.95 0 0 1 .481.409q.18.295.179.652 0 .459-.297.775-.298.315-.92.4.228.11.345.215.25.23.475.575l.751 1.176h-.719l-.572-.899a8 8 0 0 0-.412-.595 1.3 1.3 0 0 0-.292-.289.9.9 0 0 0-.259-.115 1.7 1.7 0 0 0-.319-.021h-.663v1.919zm.571-2.414h1.229q.393 0 .613-.079a.66.66 0 0 0 .336-.259.7.7 0 0 0 .115-.389.64.64 0 0 0-.224-.504q-.22-.198-.701-.198h-1.368zm4.138 2.414v-4.32h3.124v.51h-2.552v1.323h2.39v.507h-2.39v1.47h2.652v.51zm5.113 0-1.146-4.32h.586l.657 2.832q.107.444.183.884.165-.693.194-.799l.823-2.917h.689l.619 2.186q.233.814.336 1.53.083-.41.215-.94l.678-2.776h.574l-1.184 4.32h-.551l-.911-3.292a13 13 0 0 1-.135-.507q-.069.298-.127.507l-.917 3.292zm4.591 0 1.659-4.32h.616l1.768 4.32h-.651l-.504-1.309h-1.806l-.475 1.309zm1.247-1.774h1.464l-.45-1.197q-.207-.545-.307-.895a5.5 5.5 0 0 1-.233.825zm3.607 1.774v-4.32h1.915q.578 0 .879.118.3.114.48.409t.18.652q0 .459-.298.775-.297.315-.919.4.227.11.344.215.251.23.475.575l.751 1.176h-.719l-.571-.899a8 8 0 0 0-.413-.595 1.3 1.3 0 0 0-.292-.289.9.9 0 0 0-.259-.115 1.7 1.7 0 0 0-.318-.021h-.663v1.919zm.572-2.414h1.228q.393 0 .613-.079a.66.66 0 0 0 .336-.259.7.7 0 0 0 .115-.389.64.64 0 0 0-.224-.504q-.22-.198-.701-.198h-1.367zm4.125 2.414v-4.32h1.489q.503 0 .769.062.37.085.633.309.342.289.51.74.171.447.171 1.025 0 .492-.115.873a2.1 2.1 0 0 1-.295.63 1.6 1.6 0 0 1-.394.392 1.6 1.6 0 0 1-.516.215 3 3 0 0 1-.693.074zm.572-.51h.922q.428 0 .669-.079a1 1 0 0 0 .389-.224q.204-.204.316-.546.115-.344.115-.834 0-.677-.224-1.04-.221-.365-.54-.489-.23-.088-.739-.088h-.908zm3.94-.878.539-.047q.039.324.177.533.142.207.436.336.296.127.663.127.328 0 .578-.097a.8.8 0 0 0 .371-.266.6.6 0 0 0 .124-.371.56.56 0 0 0-.118-.354q-.117-.153-.389-.256a8 8 0 0 0-.769-.209q-.595-.145-.834-.271a1.2 1.2 0 0 1-.463-.401q-.15-.242-.15-.539 0-.327.186-.61.185-.286.542-.434.357-.147.793-.147.48 0 .846.156.368.154.565.454.198.3.213.681l-.549.041q-.043-.41-.3-.619-.254-.209-.752-.209-.518 0-.757.192a.57.57 0 0 0-.236.456.49.49 0 0 0 .168.383q.165.151.861.31.698.156.957.274.378.174.557.442.18.265.18.613 0 .345-.197.651a1.3 1.3 0 0 1-.569.475 2 2 0 0 1-.831.168q-.587 0-.984-.171a1.4 1.4 0 0 1-.622-.513 1.5 1.5 0 0 1-.236-.778"/></g><g filter="url(#j)"><path fill="#fff" d="M1.93 30.607h76.734v17.244H1.93z" shape-rendering="crispEdges"/><path stroke="#000" stroke-width=".431" d="M2.145 30.823h76.303v16.813H2.145z" shape-rendering="crispEdges"/><path fill="#0F0F19" d="M7.36 41.73v-4.321h.571v4.32zm1.921 0v-4.321h.587l2.269 3.392v-3.392h.548v4.32h-.587L9.83 38.334v3.395zm4.438-1.297v-.534h1.63v.533zm4.65-.398v-.507l1.83-.003v1.603q-.42.336-.869.507a2.6 2.6 0 0 1-.92.168q-.636 0-1.157-.271a1.8 1.8 0 0 1-.784-.79 2.5 2.5 0 0 1-.265-1.152q0-.63.262-1.176a1.76 1.76 0 0 1 .76-.814q.495-.264 1.14-.265.47 0 .846.154.38.15.596.42.215.272.327.708l-.516.142a1.6 1.6 0 0 0-.241-.519 1 1 0 0 0-.413-.3 1.5 1.5 0 0 0-.595-.115q-.393 0-.678.12-.285.118-.463.313-.174.195-.27.427a2.3 2.3 0 0 0-.166.87q0 .577.198.966.2.39.58.578t.807.188q.372 0 .725-.141.354-.145.537-.307v-.804zm2.547 1.694 1.659-4.32h.616l1.768 4.32h-.651l-.504-1.308h-1.807l-.474 1.308zm1.246-1.774h1.465l-.45-1.196q-.207-.545-.307-.896a5.5 5.5 0 0 1-.233.825zm3.581 1.774v-4.32h.86l1.023 3.059q.141.427.206.64.074-.237.23-.693l1.034-3.006h.77v4.32h-.551v-3.616l-1.256 3.616h-.515l-1.25-3.678v3.678zm5.402 0v-4.32h3.124v.51h-2.553v1.323h2.39v.507h-2.39v1.47h2.653v.51zm9.465-1.515.572.145q-.18.705-.648 1.075-.465.369-1.14.369-.7 0-1.138-.283a1.8 1.8 0 0 1-.666-.825 3 3 0 0 1-.227-1.158q0-.675.256-1.176.26-.504.734-.763a2.14 2.14 0 0 1 1.05-.263q.647 0 1.09.33.442.33.615.929l-.562.132q-.15-.471-.437-.686-.285-.216-.719-.215-.498 0-.834.238-.333.239-.468.643-.136.4-.136.828 0 .55.16.963.16.41.5.613.338.204.734.204.48 0 .814-.277.333-.278.45-.823m4.46-2.805h.57v2.496q0 .651-.147 1.034a1.27 1.27 0 0 1-.533.625q-.383.24-1.008.239-.606 0-.993-.21a1.2 1.2 0 0 1-.55-.604q-.166-.397-.166-1.084v-2.496h.572v2.493q0 .563.103.831.105.265.36.41.256.144.624.144.63 0 .899-.286.268-.285.268-1.099zm1.88 4.32v-4.32h1.915q.578 0 .878.118.3.114.48.41.18.294.18.65 0 .46-.297.776-.298.316-.92.4.227.11.345.216.25.23.474.574l.752 1.176h-.72l-.571-.899a8 8 0 0 0-.413-.595 1.3 1.3 0 0 0-.291-.289.8.8 0 0 0-.26-.115 1.7 1.7 0 0 0-.318-.02h-.663v1.918zm.571-2.413h1.229q.391 0 .613-.08a.66.66 0 0 0 .336-.26.7.7 0 0 0 .115-.388.64.64 0 0 0-.224-.504q-.221-.198-.702-.198h-1.367zm4.135 2.413v-4.32h1.915q.578 0 .878.118.3.114.48.41.18.294.18.65 0 .46-.297.776-.298.316-.92.4.227.11.345.216.25.23.475.574l.751 1.176h-.719l-.572-.899a8 8 0 0 0-.412-.595 1.3 1.3 0 0 0-.292-.289.8.8 0 0 0-.26-.115 1.7 1.7 0 0 0-.318-.02h-.663v1.918zm.571-2.413h1.23q.39 0 .612-.08a.66.66 0 0 0 .336-.26.7.7 0 0 0 .115-.388.64.64 0 0 0-.224-.504q-.22-.198-.701-.198h-1.368zm4.138 2.413v-4.32h3.124v.51h-2.552v1.323h2.39v.507h-2.39v1.47h2.652v.51zm4.352 0v-4.32h.587l2.27 3.392v-3.392h.547v4.32h-.586l-2.27-3.395v3.395zm7.795-1.515.572.145q-.18.705-.648 1.075-.466.369-1.14.369-.7 0-1.138-.283a1.8 1.8 0 0 1-.666-.825 3 3 0 0 1-.227-1.158q0-.675.256-1.176.26-.504.734-.763a2.14 2.14 0 0 1 1.049-.263q.649 0 1.09.33t.616.929l-.563.132q-.15-.471-.436-.686-.285-.216-.719-.215-.498 0-.834.238-.333.239-.468.643a2.6 2.6 0 0 0-.136.828q0 .55.16.963.16.41.5.613.338.204.734.204.48 0 .813-.277.334-.278.451-.823m2.841 1.515V39.9l-1.665-2.49h.696l.851 1.303q.236.365.44.73.194-.339.47-.763l.838-1.27h.666l-1.724 2.49v1.83z"/></g><defs><filter id="a" width="70.286" height="70.624" x="187.011" y="160.508" color-interpolation-filters="sRGB" filterUnits="userSpaceOnUse"><feFlood flood-opacity="0" result="BackgroundImageFix"/><feColorMatrix in="SourceAlpha" result="hardAlpha" values="0 0 0 0 0 0 0 0 0 0 0 0 0 0 0 0 0 0 127 0"/><feOffset dy="1.352"/><feGaussianBlur stdDeviation=".676"/><feComposite in2="hardAlpha" operator="out"/><feColorMatrix values="0 0 0 0 0 0 0 0 0 0 0 0 0 0 0 0 0 0 0.04 0"/><feBlend in2="BackgroundImageFix" result="effect1_dropShadow_4117_19473"/><feColorMatrix in="SourceAlpha" result="hardAlpha" values="0 0 0 0 0 0 0 0 0 0 0 0 0 0 0 0 0 0 127 0"/><feOffset dy="2.027"/><feGaussianBlur stdDeviation="1.014"/><feComposite in2="hardAlpha" operator="out"/><feColorMatrix values="0 0 0 0 0.105882 0 0 0 0 0.105882 0 0 0 0 0.105882 0 0 0 0.03 0"/><feBlend in2="effect1_dropShadow_4117_19473" result="effect2_dropShadow_4117_19473"/><feColorMatrix in="SourceAlpha" result="hardAlpha" values="0 0 0 0 0 0 0 0 0 0 0 0 0 0 0 0 0 0 127 0"/><feOffset dy="2.703"/><feGaussianBlur stdDeviation="1.352"/><feComposite in2="hardAlpha" operator="out"/><feColorMatrix values="0 0 0 0 0 0 0 0 0 0 0 0 0 0 0 0 0 0 0.03 0"/><feBlend in2="effect2_dropShadow_4117_19473" result="effect3_dropShadow_4117_19473"/><feColorMatrix in="SourceAlpha" result="hardAlpha" values="0 0 0 0 0 0 0 0 0 0 0 0 0 0 0 0 0 0 127 0"/><feOffset dy="5.407"/><feGaussianBlur stdDeviation="2.703"/><feComposite in2="hardAlpha" operator="out"/><feColorMatrix values="0 0 0 0 0 0 0 0 0 0 0 0 0 0 0 0 0 0 0.02 0"/><feBlend in2="effect3_dropShadow_4117_19473" result="effect4_dropShadow_4117_19473"/><feBlend in="SourceGraphic" in2="effect4_dropShadow_4117_19473" result="shape"/><feColorMatrix in="SourceAlpha" result="hardAlpha" values="0 0 0 0 0 0 0 0 0 0 0 0 0 0 0 0 0 0 127 0"/><feOffset/><feGaussianBlur stdDeviation="1.352"/><feComposite in2="hardAlpha" k2="-1" k3="1" operator="arithmetic"/><feColorMatrix values="0 0 0 0 0 0 0 0 0 0 0 0 0 0 0 0 0 0 0.04 0"/><feBlend in2="shape" result="effect5_innerShadow_4117_19473"/><feColorMatrix in="SourceAlpha" result="hardAlpha" values="0 0 0 0 0 0 0 0 0 0 0 0 0 0 0 0 0 0 127 0"/><feOffset dy=".338"/><feGaussianBlur stdDeviation=".338"/><feComposite in2="hardAlpha" k2="-1" k3="1" operator="arithmetic"/><feColorMatrix values="0 0 0 0 0 0 0 0 0 0 0 0 0 0 0 0 0 0 0.06 0"/><feBlend in2="effect5_innerShadow_4117_19473" result="effect6_innerShadow_4117_19473"/><feColorMatrix in="SourceAlpha" result="hardAlpha" values="0 0 0 0 0 0 0 0 0 0 0 0 0 0 0 0 0 0 127 0"/><feOffset dy="-.676"/><feGaussianBlur stdDeviation=".169"/><feComposite in2="hardAlpha" k2="-1" k3="1" operator="arithmetic"/><feColorMatrix values="0 0 0 0 0 0 0 0 0 0 0 0 0 0 0 0 0 0 0.04 0"/><feBlend in2="effect6_innerShadow_4117_19473" result="effect7_innerShadow_4117_19473"/></filter><filter id="b" width="70.286" height="70.624" x="187.011" y="95.629" color-interpolation-filters="sRGB" filterUnits="userSpaceOnUse"><feFlood flood-opacity="0" result="BackgroundImageFix"/><feColorMatrix in="SourceAlpha" result="hardAlpha" values="0 0 0 0 0 0 0 0 0 0 0 0 0 0 0 0 0 0 127 0"/><feOffset dy="1.352"/><feGaussianBlur stdDeviation=".676"/><feComposite in2="hardAlpha" operator="out"/><feColorMatrix values="0 0 0 0 0 0 0 0 0 0 0 0 0 0 0 0 0 0 0.04 0"/><feBlend in2="BackgroundImageFix" result="effect1_dropShadow_4117_19473"/><feColorMatrix in="SourceAlpha" result="hardAlpha" values="0 0 0 0 0 0 0 0 0 0 0 0 0 0 0 0 0 0 127 0"/><feOffset dy="2.027"/><feGaussianBlur stdDeviation="1.014"/><feComposite in2="hardAlpha" operator="out"/><feColorMatrix values="0 0 0 0 0.105882 0 0 0 0 0.105882 0 0 0 0 0.105882 0 0 0 0.03 0"/><feBlend in2="effect1_dropShadow_4117_19473" result="effect2_dropShadow_4117_19473"/><feColorMatrix in="SourceAlpha" result="hardAlpha" values="0 0 0 0 0 0 0 0 0 0 0 0 0 0 0 0 0 0 127 0"/><feOffset dy="2.703"/><feGaussianBlur stdDeviation="1.352"/><feComposite in2="hardAlpha" operator="out"/><feColorMatrix values="0 0 0 0 0 0 0 0 0 0 0 0 0 0 0 0 0 0 0.03 0"/><feBlend in2="effect2_dropShadow_4117_19473" result="effect3_dropShadow_4117_19473"/><feColorMatrix in="SourceAlpha" result="hardAlpha" values="0 0 0 0 0 0 0 0 0 0 0 0 0 0 0 0 0 0 127 0"/><feOffset dy="5.407"/><feGaussianBlur stdDeviation="2.703"/><feComposite in2="hardAlpha" operator="out"/><feColorMatrix values="0 0 0 0 0 0 0 0 0 0 0 0 0 0 0 0 0 0 0.02 0"/><feBlend in2="effect3_dropShadow_4117_19473" result="effect4_dropShadow_4117_19473"/><feBlend in="SourceGraphic" in2="effect4_dropShadow_4117_19473" result="shape"/><feColorMatrix in="SourceAlpha" result="hardAlpha" values="0 0 0 0 0 0 0 0 0 0 0 0 0 0 0 0 0 0 127 0"/><feOffset/><feGaussianBlur stdDeviation="1.352"/><feComposite in2="hardAlpha" k2="-1" k3="1" operator="arithmetic"/><feColorMatrix values="0 0 0 0 0 0 0 0 0 0 0 0 0 0 0 0 0 0 0.04 0"/><feBlend in2="shape" result="effect5_innerShadow_4117_19473"/><feColorMatrix in="SourceAlpha" result="hardAlpha" values="0 0 0 0 0 0 0 0 0 0 0 0 0 0 0 0 0 0 127 0"/><feOffset dy=".338"/><feGaussianBlur stdDeviation=".338"/><feComposite in2="hardAlpha" k2="-1" k3="1" operator="arithmetic"/><feColorMatrix values="0 0 0 0 0 0 0 0 0 0 0 0 0 0 0 0 0 0 0.06 0"/><feBlend in2="effect5_innerShadow_4117_19473" result="effect6_innerShadow_4117_19473"/><feColorMatrix in="SourceAlpha" result="hardAlpha" values="0 0 0 0 0 0 0 0 0 0 0 0 0 0 0 0 0 0 127 0"/><feOffset dy="-.676"/><feGaussianBlur stdDeviation=".169"/><feComposite in2="hardAlpha" k2="-1" k3="1" operator="arithmetic"/><feColorMatrix values="0 0 0 0 0 0 0 0 0 0 0 0 0 0 0 0 0 0 0.04 0"/><feBlend in2="effect6_innerShadow_4117_19473" result="effect7_innerShadow_4117_19473"/></filter><filter id="c" width="162.198" height="205.788" x="30.22" y="25.344" color-interpolation-filters="sRGB" filterUnits="userSpaceOnUse"><feFlood flood-opacity="0" result="BackgroundImageFix"/><feColorMatrix in="SourceAlpha" result="hardAlpha" values="0 0 0 0 0 0 0 0 0 0 0 0 0 0 0 0 0 0 127 0"/><feOffset dy="1.352"/><feGaussianBlur stdDeviation=".676"/><feComposite in2="hardAlpha" operator="out"/><feColorMatrix values="0 0 0 0 0 0 0 0 0 0 0 0 0 0 0 0 0 0 0.04 0"/><feBlend in2="BackgroundImageFix" result="effect1_dropShadow_4117_19473"/><feColorMatrix in="SourceAlpha" result="hardAlpha" values="0 0 0 0 0 0 0 0 0 0 0 0 0 0 0 0 0 0 127 0"/><feOffset dy="2.027"/><feGaussianBlur stdDeviation="1.014"/><feComposite in2="hardAlpha" operator="out"/><feColorMatrix values="0 0 0 0 0.105882 0 0 0 0 0.105882 0 0 0 0 0.105882 0 0 0 0.03 0"/><feBlend in2="effect1_dropShadow_4117_19473" result="effect2_dropShadow_4117_19473"/><feColorMatrix in="SourceAlpha" result="hardAlpha" values="0 0 0 0 0 0 0 0 0 0 0 0 0 0 0 0 0 0 127 0"/><feOffset dy="2.703"/><feGaussianBlur stdDeviation="1.352"/><feComposite in2="hardAlpha" operator="out"/><feColorMatrix values="0 0 0 0 0 0 0 0 0 0 0 0 0 0 0 0 0 0 0.03 0"/><feBlend in2="effect2_dropShadow_4117_19473" result="effect3_dropShadow_4117_19473"/><feColorMatrix in="SourceAlpha" result="hardAlpha" values="0 0 0 0 0 0 0 0 0 0 0 0 0 0 0 0 0 0 127 0"/><feOffset dy="5.407"/><feGaussianBlur stdDeviation="2.703"/><feComposite in2="hardAlpha" operator="out"/><feColorMatrix values="0 0 0 0 0 0 0 0 0 0 0 0 0 0 0 0 0 0 0.02 0"/><feBlend in2="effect3_dropShadow_4117_19473" result="effect4_dropShadow_4117_19473"/><feBlend in="SourceGraphic" in2="effect4_dropShadow_4117_19473" result="shape"/><feColorMatrix in="SourceAlpha" result="hardAlpha" values="0 0 0 0 0 0 0 0 0 0 0 0 0 0 0 0 0 0 127 0"/><feOffset/><feGaussianBlur stdDeviation="1.352"/><feComposite in2="hardAlpha" k2="-1" k3="1" operator="arithmetic"/><feColorMatrix values="0 0 0 0 0 0 0 0 0 0 0 0 0 0 0 0 0 0 0.04 0"/><feBlend in2="shape" result="effect5_innerShadow_4117_19473"/><feColorMatrix in="SourceAlpha" result="hardAlpha" values="0 0 0 0 0 0 0 0 0 0 0 0 0 0 0 0 0 0 127 0"/><feOffset dy=".338"/><feGaussianBlur stdDeviation=".338"/><feComposite in2="hardAlpha" k2="-1" k3="1" operator="arithmetic"/><feColorMatrix values="0 0 0 0 0 0 0 0 0 0 0 0 0 0 0 0 0 0 0.06 0"/><feBlend in2="effect5_innerShadow_4117_19473" result="effect6_innerShadow_4117_19473"/><feColorMatrix in="SourceAlpha" result="hardAlpha" values="0 0 0 0 0 0 0 0 0 0 0 0 0 0 0 0 0 0 127 0"/><feOffset dy="-.676"/><feGaussianBlur stdDeviation=".169"/><feComposite in2="hardAlpha" k2="-1" k3="1" operator="arithmetic"/><feColorMatrix values="0 0 0 0 0 0 0 0 0 0 0 0 0 0 0 0 0 0 0.04 0"/><feBlend in2="effect6_innerShadow_4117_19473" result="effect7_innerShadow_4117_19473"/></filter><filter id="f" width="135.165" height="41.07" x="43.736" y="171.66" color-interpolation-filters="sRGB" filterUnits="userSpaceOnUse"><feFlood flood-opacity="0" result="BackgroundImageFix"/><feColorMatrix in="SourceAlpha" result="hardAlpha" values="0 0 0 0 0 0 0 0 0 0 0 0 0 0 0 0 0 0 127 0"/><feOffset dy=".676"/><feGaussianBlur stdDeviation="1.014"/><feColorMatrix values="0 0 0 0 0.160784 0 0 0 0 0.160784 0 0 0 0 0.160784 0 0 0 0.12 0"/><feBlend in2="BackgroundImageFix" result="effect1_dropShadow_4117_19473"/><feColorMatrix in="SourceAlpha" result="hardAlpha" values="0 0 0 0 0 0 0 0 0 0 0 0 0 0 0 0 0 0 127 0"/><feOffset dy="3.379"/><feGaussianBlur stdDeviation="1.69"/><feColorMatrix values="0 0 0 0 0.160784 0 0 0 0 0.160784 0 0 0 0 0.160784 0 0 0 0.1 0"/><feBlend in2="effect1_dropShadow_4117_19473" result="effect2_dropShadow_4117_19473"/><feColorMatrix in="SourceAlpha" result="hardAlpha" values="0 0 0 0 0 0 0 0 0 0 0 0 0 0 0 0 0 0 127 0"/><feOffset dy="8.11"/><feGaussianBlur stdDeviation="2.365"/><feColorMatrix values="0 0 0 0 0.160784 0 0 0 0 0.160784 0 0 0 0 0.160784 0 0 0 0.06 0"/><feBlend in2="effect2_dropShadow_4117_19473" result="effect3_dropShadow_4117_19473"/><feColorMatrix in="SourceAlpha" result="hardAlpha" values="0 0 0 0 0 0 0 0 0 0 0 0 0 0 0 0 0 0 127 0"/><feOffset dy="14.192"/><feGaussianBlur stdDeviation="2.703"/><feColorMatrix values="0 0 0 0 0.160784 0 0 0 0 0.160784 0 0 0 0 0.160784 0 0 0 0.02 0"/><feBlend in2="effect3_dropShadow_4117_19473" result="effect4_dropShadow_4117_19473"/><feBlend in="SourceGraphic" in2="effect4_dropShadow_4117_19473" result="shape"/></filter><filter id="g" width="78.915" height="20.476" x="169.194" y="182.783" color-interpolation-filters="sRGB" filterUnits="userSpaceOnUse"><feFlood flood-opacity="0" result="BackgroundImageFix"/><feColorMatrix in="SourceAlpha" result="hardAlpha" values="0 0 0 0 0 0 0 0 0 0 0 0 0 0 0 0 0 0 127 0"/><feOffset dy="1.724"/><feGaussianBlur stdDeviation=".862"/><feComposite in2="hardAlpha" operator="out"/><feColorMatrix values="0 0 0 0 0 0 0 0 0 0 0 0 0 0 0 0 0 0 0.15 0"/><feBlend in2="BackgroundImageFix" result="effect1_dropShadow_4117_19473"/><feBlend in="SourceGraphic" in2="effect1_dropShadow_4117_19473" result="shape"/></filter><filter id="h" width="78.915" height="20.183" x="169.194" y="165.97" color-interpolation-filters="sRGB" filterUnits="userSpaceOnUse"><feFlood flood-opacity="0" result="BackgroundImageFix"/><feColorMatrix in="SourceAlpha" result="hardAlpha" values="0 0 0 0 0 0 0 0 0 0 0 0 0 0 0 0 0 0 127 0"/><feOffset dy="1.724"/><feGaussianBlur stdDeviation=".862"/><feComposite in2="hardAlpha" operator="out"/><feColorMatrix values="0 0 0 0 0 0 0 0 0 0 0 0 0 0 0 0 0 0 0.15 0"/><feBlend in2="BackgroundImageFix" result="effect1_dropShadow_4117_19473"/><feBlend in="SourceGraphic" in2="effect1_dropShadow_4117_19473" result="shape"/></filter><filter id="j" width="119.843" height="60.353" x="-19.625" y="9.053" color-interpolation-filters="sRGB" filterUnits="userSpaceOnUse"><feFlood flood-opacity="0" result="BackgroundImageFix"/><feColorMatrix in="SourceAlpha" result="hardAlpha" values="0 0 0 0 0 0 0 0 0 0 0 0 0 0 0 0 0 0 127 0"/><feOffset dy="1.724"/><feGaussianBlur stdDeviation=".862"/><feComposite in2="hardAlpha" operator="out"/><feColorMatrix values="0 0 0 0 0 0 0 0 0 0 0 0 0 0 0 0 0 0 0.15 0"/><feBlend in2="BackgroundImageFix" result="effect1_dropShadow_4117_19473"/><feBlend in="SourceGraphic" in2="effect1_dropShadow_4117_19473" result="shape"/></filter><linearGradient id="e" x1="111.318" x2="111.318" y1="181.854" y2="206.802" gradientUnits="userSpaceOnUse"><stop stop-color="#292929"/><stop offset="1" stop-color="#292929" stop-opacity="0"/></linearGradient></defs></svg>