<svg width="278" height="254" viewBox="0 0 278 254" fill="none" xmlns="http://www.w3.org/2000/svg">
<path d="M251.447 0H8.55263C3.82914 0 0 3.82914 0 8.55263V237.906C0 242.629 3.82914 246.458 8.55263 246.458H251.447C256.171 246.458 260 242.629 260 237.906V8.55263C260 3.82914 256.171 0 251.447 0Z" fill="#FF91FA"/>
<g filter="url(#filter0_ddddiii_4117_19513)">
<path d="M86.666 41.979C86.666 33.0044 93.9413 25.729 102.916 25.729H222.083C231.057 25.729 238.333 33.0044 238.333 41.979V204.479C238.333 213.454 231.057 220.729 222.083 220.729H162.499H115.607C112.687 220.729 109.891 219.551 107.853 217.461L89.7454 198.905C87.771 196.881 86.666 194.166 86.666 191.339V123.229V41.979Z" fill="white"/>
</g>
<path d="M106.472 46.2261C106.472 46.9096 106.347 47.4973 106.097 47.989C105.847 48.4788 105.504 48.8559 105.069 49.1206C104.635 49.3831 104.143 49.5144 103.59 49.5144C103.036 49.5144 102.541 49.3831 102.105 49.1206C101.672 48.8559 101.33 48.4777 101.08 47.9859C100.83 47.4941 100.705 46.9075 100.705 46.2261C100.705 45.5426 100.83 44.956 101.08 44.4664C101.33 43.9745 101.672 43.5974 102.105 43.3348C102.541 43.0701 103.036 42.9378 103.59 42.9378C104.143 42.9378 104.635 43.0701 105.069 43.3348C105.504 43.5974 105.847 43.9745 106.097 44.4664C106.347 44.956 106.472 45.5426 106.472 46.2261ZM105.516 46.2261C105.516 45.7051 105.431 45.2665 105.263 44.9102C105.096 44.5517 104.866 44.2808 104.575 44.0975C104.285 43.912 103.957 43.8193 103.59 43.8193C103.221 43.8193 102.892 43.912 102.602 44.0975C102.312 44.2808 102.084 44.5517 101.915 44.9102C101.748 45.2665 101.665 45.7051 101.665 46.2261C101.665 46.747 101.748 47.1867 101.915 47.5452C102.084 47.9015 102.312 48.1724 102.602 48.3579C102.892 48.5412 103.221 48.6329 103.59 48.6329C103.957 48.6329 104.285 48.5412 104.575 48.3579C104.866 48.1724 105.096 47.9015 105.263 47.5452C105.431 47.1867 105.516 46.747 105.516 46.2261ZM111.708 44.6257L109.968 49.4269H108.968L107.223 44.6257H108.226L109.442 48.3204H109.492L110.705 44.6257H111.708ZM114.493 49.5238C114.02 49.5238 113.612 49.4227 113.27 49.2206C112.931 49.0164 112.668 48.7298 112.483 48.361C112.299 47.9901 112.208 47.5556 112.208 47.0576C112.208 46.5658 112.299 46.1323 112.483 45.7573C112.668 45.3822 112.926 45.0894 113.258 44.8789C113.591 44.6685 113.981 44.5632 114.427 44.5632C114.698 44.5632 114.96 44.608 115.215 44.6976C115.469 44.7872 115.697 44.9279 115.9 45.1196C116.101 45.3113 116.261 45.5603 116.378 45.8666C116.494 46.1709 116.553 46.5408 116.553 46.9763V47.3076H112.736V46.6074H115.637C115.637 46.3616 115.587 46.1438 115.486 45.9542C115.387 45.7624 115.246 45.6114 115.065 45.5009C114.885 45.3905 114.675 45.3353 114.434 45.3353C114.171 45.3353 113.941 45.3999 113.746 45.5291C113.552 45.6562 113.402 45.8229 113.295 46.0292C113.191 46.2334 113.139 46.4554 113.139 46.695V47.242C113.139 47.5629 113.195 47.8359 113.308 48.0609C113.423 48.286 113.582 48.4579 113.786 48.5767C113.991 48.6934 114.229 48.7517 114.502 48.7517C114.679 48.7517 114.841 48.7267 114.987 48.6767C115.132 48.6246 115.258 48.5475 115.365 48.4454C115.471 48.3433 115.552 48.2172 115.608 48.0672L116.493 48.2266C116.422 48.4871 116.295 48.7153 116.112 48.9111C115.931 49.1049 115.702 49.256 115.428 49.3644C115.154 49.4706 114.843 49.5238 114.493 49.5238ZM117.59 49.4269V44.6257H118.493V45.3884H118.543C118.63 45.13 118.785 44.9268 119.005 44.7789C119.229 44.6289 119.481 44.5538 119.762 44.5538C119.821 44.5538 119.889 44.5559 119.968 44.5601C120.049 44.5643 120.113 44.5695 120.159 44.5757V45.4697C120.121 45.4593 120.055 45.4478 119.959 45.4353C119.863 45.4207 119.767 45.4134 119.672 45.4134C119.45 45.4134 119.254 45.4603 119.08 45.5541C118.91 45.6458 118.774 45.7739 118.674 45.9385C118.574 46.1011 118.524 46.2866 118.524 46.4949V49.4269H117.59ZM125.221 44.6257L123.48 49.4269H122.48L120.736 44.6257H121.739L122.955 48.3204H123.005L124.217 44.6257H125.221ZM126.099 49.4269V44.6257H127.034V49.4269H126.099ZM126.572 43.8849C126.409 43.8849 126.269 43.8308 126.153 43.7224C126.038 43.6119 125.981 43.4807 125.981 43.3286C125.981 43.1743 126.038 43.0431 126.153 42.9347C126.269 42.8243 126.409 42.769 126.572 42.769C126.734 42.769 126.872 42.8243 126.987 42.9347C127.104 43.0431 127.162 43.1743 127.162 43.3286C127.162 43.4807 127.104 43.6119 126.987 43.7224C126.872 43.8308 126.734 43.8849 126.572 43.8849ZM130.361 49.5238C129.887 49.5238 129.48 49.4227 129.139 49.2206C128.799 49.0164 128.536 48.7298 128.35 48.361C128.168 47.9901 128.076 47.5556 128.076 47.0576C128.076 46.5658 128.168 46.1323 128.35 45.7573C128.536 45.3822 128.795 45.0894 129.126 44.8789C129.459 44.6685 129.849 44.5632 130.295 44.5632C130.566 44.5632 130.829 44.608 131.082 44.6976C131.337 44.7872 131.565 44.9279 131.767 45.1196C131.969 45.3113 132.129 45.5603 132.246 45.8666C132.362 46.1709 132.42 46.5408 132.42 46.9763V47.3076H128.604V46.6074H131.504C131.504 46.3616 131.455 46.1438 131.355 45.9542C131.254 45.7624 131.114 45.6114 130.933 45.5009C130.753 45.3905 130.543 45.3353 130.301 45.3353C130.038 45.3353 129.81 45.3999 129.614 45.5291C129.42 45.6562 129.27 45.8229 129.164 46.0292C129.059 46.2334 129.007 46.4554 129.007 46.695V47.242C129.007 47.5629 129.063 47.8359 129.176 48.0609C129.29 48.286 129.45 48.4579 129.654 48.5767C129.858 48.6934 130.097 48.7517 130.37 48.7517C130.547 48.7517 130.709 48.7267 130.854 48.6767C131 48.6246 131.126 48.5475 131.233 48.4454C131.339 48.3433 131.42 48.2172 131.476 48.0672L132.361 48.2266C132.29 48.4871 132.163 48.7153 131.98 48.9111C131.798 49.1049 131.57 49.256 131.295 49.3644C131.022 49.4706 130.711 49.5238 130.361 49.5238ZM134.49 49.4269L133.077 44.6257H134.043L134.984 48.1516H135.03L135.974 44.6257H136.941L137.878 48.1359H137.925L138.859 44.6257H139.826L138.416 49.4269H137.462L136.487 45.9604H136.415L135.44 49.4269H134.49Z" fill="#141515"/>
<path d="M220.72 49.4275L220.238 48.9524L222.22 46.9706H217.088V46.283H222.22L220.238 44.3075L220.72 43.8262L223.521 46.6268L220.72 49.4275Z" fill="#8C9292"/>
<g filter="url(#filter1_dddddddii_4117_19513)">
<path d="M216.667 188.229H163.177C157.194 188.229 152.344 193.08 152.344 199.063C152.344 205.046 157.194 209.896 163.177 209.896H216.667C222.65 209.896 227.5 205.046 227.5 199.063C227.5 193.08 222.65 188.229 216.667 188.229Z" fill="url(#paint0_linear_4117_19513)"/>
<path d="M216.667 188.229H163.177C157.194 188.229 152.344 193.08 152.344 199.063C152.344 205.046 157.194 209.896 163.177 209.896H216.667C222.65 209.896 227.5 205.046 227.5 199.063C227.5 193.08 222.65 188.229 216.667 188.229Z" fill="url(#paint1_linear_4117_19513)" fill-opacity="0.08"/>
<path d="M167.789 195.862H168.678V200.051C168.678 200.43 168.602 200.754 168.453 201.023C168.304 201.293 168.096 201.499 167.826 201.641C167.557 201.782 167.242 201.851 166.88 201.851C166.547 201.851 166.248 201.791 165.983 201.67C165.719 201.549 165.511 201.373 165.356 201.142C165.205 200.909 165.129 200.626 165.129 200.293H166.015C166.015 200.457 166.052 200.598 166.127 200.718C166.204 200.837 166.309 200.931 166.442 200.998C166.577 201.063 166.73 201.096 166.904 201.096C167.092 201.096 167.252 201.056 167.382 200.977C167.515 200.897 167.616 200.778 167.685 200.622C167.755 200.467 167.789 200.276 167.789 200.051V195.862ZM171.773 201.86C171.357 201.86 170.994 201.765 170.685 201.574C170.376 201.384 170.135 201.118 169.964 200.775C169.793 200.433 169.707 200.033 169.707 199.575C169.707 199.115 169.793 198.713 169.964 198.369C170.135 198.024 170.376 197.757 170.685 197.567C170.994 197.376 171.357 197.281 171.773 197.281C172.188 197.281 172.551 197.376 172.861 197.567C173.171 197.757 173.411 198.024 173.582 198.369C173.753 198.713 173.839 199.115 173.839 199.575C173.839 200.033 173.753 200.433 173.582 200.775C173.411 201.118 173.171 201.384 172.861 201.574C172.551 201.765 172.188 201.86 171.773 201.86ZM171.776 201.136C172.045 201.136 172.268 201.065 172.445 200.922C172.622 200.78 172.753 200.591 172.838 200.354C172.924 200.117 172.968 199.857 172.968 199.572C172.968 199.289 172.924 199.03 172.838 198.793C172.753 198.555 172.622 198.363 172.445 198.219C172.268 198.075 172.045 198.003 171.776 198.003C171.504 198.003 171.28 198.075 171.101 198.219C170.923 198.363 170.792 198.555 170.705 198.793C170.621 199.03 170.578 199.289 170.578 199.572C170.578 199.857 170.621 200.117 170.705 200.354C170.792 200.591 170.923 200.78 171.101 200.922C171.28 201.065 171.504 201.136 171.776 201.136ZM174.802 201.771V197.339H175.664V201.771H174.802ZM175.237 196.655C175.087 196.655 174.959 196.605 174.85 196.505C174.745 196.403 174.692 196.282 174.692 196.141C174.692 195.999 174.745 195.878 174.85 195.778C174.959 195.676 175.087 195.625 175.237 195.625C175.387 195.625 175.515 195.676 175.621 195.778C175.729 195.878 175.783 195.999 175.783 196.141C175.783 196.282 175.729 196.403 175.621 196.505C175.515 196.605 175.387 196.655 175.237 196.655ZM177.687 199.14V201.771H176.825V197.339H177.653V198.06H177.708C177.81 197.825 177.97 197.637 178.187 197.495C178.406 197.352 178.682 197.281 179.015 197.281C179.317 197.281 179.581 197.345 179.809 197.472C180.036 197.597 180.212 197.783 180.336 198.031C180.461 198.28 180.524 198.586 180.524 198.952V201.771H179.661V199.056C179.661 198.735 179.578 198.484 179.41 198.303C179.243 198.12 179.013 198.029 178.721 198.029C178.521 198.029 178.343 198.072 178.187 198.159C178.033 198.245 177.911 198.372 177.82 198.539C177.732 198.705 177.687 198.905 177.687 199.14ZM183.9 195.862H184.982L186.864 200.455H186.933L188.814 195.862H189.896V201.771H189.048V197.495H188.993L187.251 201.762H186.546L184.804 197.492H184.749V201.771H183.9V195.862ZM193.033 201.86C192.597 201.86 192.22 201.767 191.905 201.58C191.591 201.392 191.349 201.128 191.178 200.787C191.008 200.444 190.924 200.044 190.924 199.584C190.924 199.129 191.008 198.73 191.178 198.383C191.349 198.037 191.588 197.767 191.893 197.573C192.201 197.379 192.561 197.281 192.973 197.281C193.222 197.281 193.465 197.322 193.7 197.406C193.934 197.488 194.145 197.618 194.332 197.795C194.518 197.972 194.665 198.202 194.773 198.484C194.881 198.765 194.935 199.106 194.935 199.509V199.815H191.412V199.168H194.089C194.089 198.941 194.043 198.74 193.951 198.565C193.858 198.388 193.728 198.249 193.561 198.147C193.396 198.045 193.201 197.994 192.979 197.994C192.736 197.994 192.524 198.054 192.344 198.173C192.165 198.29 192.026 198.444 191.928 198.635C191.832 198.823 191.784 199.028 191.784 199.249V199.754C191.784 200.05 191.836 200.302 191.939 200.51C192.046 200.718 192.193 200.876 192.381 200.986C192.57 201.094 192.79 201.148 193.042 201.148C193.206 201.148 193.354 201.124 193.489 201.078C193.624 201.03 193.74 200.959 193.838 200.865C193.936 200.771 194.011 200.654 194.063 200.515L194.88 200.663C194.814 200.903 194.697 201.114 194.528 201.295C194.361 201.474 194.15 201.613 193.896 201.713C193.644 201.811 193.357 201.86 193.033 201.86ZM197.802 201.86C197.366 201.86 196.989 201.767 196.674 201.58C196.36 201.392 196.118 201.128 195.946 200.787C195.777 200.444 195.692 200.044 195.692 199.584C195.692 199.129 195.777 198.73 195.946 198.383C196.118 198.037 196.357 197.767 196.662 197.573C196.97 197.379 197.33 197.281 197.741 197.281C197.991 197.281 198.234 197.322 198.468 197.406C198.703 197.488 198.913 197.618 199.1 197.795C199.287 197.972 199.434 198.202 199.542 198.484C199.649 198.765 199.703 199.106 199.703 199.509V199.815H196.181V199.168H198.858C198.858 198.941 198.812 198.74 198.72 198.565C198.627 198.388 198.497 198.249 198.33 198.147C198.164 198.045 197.97 197.994 197.747 197.994C197.505 197.994 197.293 198.054 197.112 198.173C196.934 198.29 196.795 198.444 196.697 198.635C196.6 198.823 196.552 199.028 196.552 199.249V199.754C196.552 200.05 196.604 200.302 196.708 200.51C196.814 200.718 196.961 200.876 197.15 200.986C197.338 201.094 197.559 201.148 197.81 201.148C197.974 201.148 198.123 201.124 198.258 201.078C198.393 201.03 198.508 200.959 198.607 200.865C198.705 200.771 198.78 200.654 198.832 200.515L199.649 200.663C199.583 200.903 199.466 201.114 199.297 201.295C199.129 201.474 198.919 201.613 198.665 201.713C198.412 201.811 198.125 201.86 197.802 201.86ZM202.729 197.339V198.031H200.309V197.339H202.729ZM200.957 196.277H201.82V200.469C201.82 200.637 201.845 200.763 201.895 200.847C201.945 200.93 202.01 200.987 202.089 201.018C202.169 201.046 202.257 201.061 202.352 201.061C202.421 201.061 202.481 201.056 202.533 201.046C202.585 201.037 202.625 201.029 202.654 201.023L202.81 201.736C202.76 201.755 202.689 201.775 202.597 201.794C202.504 201.815 202.389 201.826 202.25 201.828C202.023 201.832 201.812 201.792 201.616 201.707C201.419 201.622 201.261 201.492 201.14 201.315C201.018 201.138 200.957 200.916 200.957 200.648V196.277ZM203.683 201.771V197.339H204.546V201.771H203.683ZM204.119 196.655C203.969 196.655 203.84 196.605 203.733 196.505C203.627 196.403 203.574 196.282 203.574 196.141C203.574 195.999 203.627 195.878 203.733 195.778C203.84 195.676 203.969 195.625 204.119 195.625C204.269 195.625 204.397 195.676 204.503 195.778C204.611 195.878 204.664 195.999 204.664 196.141C204.664 196.282 204.611 196.403 204.503 196.505C204.397 196.605 204.269 196.655 204.119 196.655ZM206.57 199.14V201.771H205.707V197.339H206.535V198.06H206.589C206.692 197.825 206.851 197.637 207.069 197.495C207.288 197.352 207.564 197.281 207.897 197.281C208.199 197.281 208.464 197.345 208.69 197.472C208.917 197.597 209.093 197.783 209.219 198.031C209.343 198.28 209.406 198.586 209.406 198.952V201.771H208.543V199.056C208.543 198.735 208.46 198.484 208.292 198.303C208.125 198.12 207.895 198.029 207.602 198.029C207.403 198.029 207.225 198.072 207.069 198.159C206.915 198.245 206.793 198.372 206.703 198.539C206.614 198.705 206.57 198.905 206.57 199.14ZM212.421 203.525C212.069 203.525 211.766 203.479 211.512 203.386C211.26 203.294 211.054 203.172 210.894 203.02C210.735 202.868 210.616 202.702 210.537 202.521L211.278 202.215C211.33 202.3 211.399 202.389 211.486 202.484C211.575 202.58 211.694 202.661 211.844 202.729C211.996 202.796 212.191 202.83 212.429 202.83C212.756 202.83 213.027 202.75 213.24 202.59C213.454 202.432 213.561 202.18 213.561 201.834V200.963H213.506C213.454 201.057 213.379 201.162 213.281 201.277C213.185 201.393 213.052 201.492 212.883 201.577C212.714 201.662 212.493 201.704 212.222 201.704C211.872 201.704 211.557 201.622 211.276 201.459C210.997 201.293 210.775 201.05 210.612 200.729C210.45 200.406 210.37 200.009 210.37 199.538C210.37 199.066 210.449 198.662 210.609 198.326C210.77 197.989 210.992 197.731 211.273 197.553C211.553 197.372 211.872 197.281 212.228 197.281C212.502 197.281 212.725 197.328 212.894 197.42C213.064 197.51 213.195 197.616 213.289 197.737C213.385 197.859 213.46 197.965 213.512 198.058H213.575V197.339H214.421V201.869C214.421 202.249 214.332 202.562 214.155 202.807C213.978 203.051 213.739 203.232 213.437 203.349C213.137 203.466 212.798 203.525 212.421 203.525ZM212.412 200.989C212.66 200.989 212.87 200.931 213.041 200.815C213.215 200.698 213.345 200.531 213.433 200.314C213.524 200.094 213.569 199.832 213.569 199.526C213.569 199.228 213.525 198.966 213.437 198.738C213.348 198.511 213.218 198.335 213.047 198.207C212.876 198.079 212.664 198.014 212.412 198.014C212.152 198.014 211.936 198.081 211.763 198.216C211.59 198.349 211.459 198.53 211.371 198.758C211.284 198.987 211.241 199.243 211.241 199.526C211.241 199.817 211.285 200.071 211.374 200.291C211.462 200.51 211.593 200.681 211.766 200.804C211.941 200.927 212.156 200.989 212.412 200.989Z" fill="url(#paint2_linear_4117_19513)"/>
</g>
<path d="M227.5 61.2762H97.5" stroke="black" stroke-opacity="0.2" stroke-width="0.677083" stroke-dasharray="0.68 2.71"/>
<path d="M99.8905 84.0201V76.6338H100.364V84.0201H99.8905ZM101.371 78.9244C101.339 78.6515 101.213 78.4396 100.989 78.2899C100.767 78.1376 100.486 78.0618 100.147 78.0618C99.9047 78.0618 99.6948 78.1004 99.5181 78.1775C99.3414 78.252 99.2032 78.3563 99.1057 78.489C99.0096 78.6197 98.9615 78.7686 98.9615 78.9359C98.9615 79.0767 98.994 79.1979 99.059 79.2995C99.1267 79.4017 99.2141 79.487 99.3217 79.5568C99.4314 79.6238 99.5485 79.6807 99.6738 79.7267C99.7991 79.7707 99.9189 79.8073 100.035 79.8364L100.612 79.9867C100.8 80.0327 100.993 80.095 101.192 80.1743C101.39 80.2528 101.573 80.3564 101.742 80.4857C101.912 80.6144 102.048 80.7742 102.153 80.9644C102.258 81.1547 102.311 81.3829 102.311 81.6483C102.311 81.9827 102.224 82.28 102.051 82.54C101.88 82.7993 101.631 83.0045 101.304 83.1541C100.979 83.3044 100.586 83.3796 100.124 83.3796C99.6813 83.3796 99.2987 83.3092 98.9757 83.169C98.6528 83.0282 98.3995 82.8291 98.2167 82.5718C98.0339 82.3118 97.933 82.0044 97.9141 81.6483H98.8085C98.8254 81.8615 98.8952 82.0396 99.0157 82.1818C99.1389 82.3226 99.296 82.4276 99.4863 82.4967C99.6785 82.5637 99.8891 82.5975 100.118 82.5975C100.37 82.5975 100.594 82.5583 100.79 82.4791C100.989 82.3985 101.144 82.2868 101.258 82.1446C101.371 82.0004 101.428 81.8318 101.428 81.6395C101.428 81.4648 101.378 81.3212 101.278 81.2095C101.18 81.0985 101.046 81.0057 100.877 80.9326C100.71 80.8595 100.52 80.7951 100.309 80.7396L99.6102 80.5487C99.1369 80.42 98.7618 80.2305 98.4848 79.9806C98.2099 79.7308 98.0725 79.3997 98.0725 78.988C98.0725 78.6474 98.1646 78.3502 98.3494 78.0963C98.5343 77.8424 98.7841 77.6454 99.0996 77.5052C99.4152 77.363 99.7713 77.2912 100.167 77.2912C100.568 77.2912 100.92 77.3617 101.226 77.5018C101.534 77.6426 101.776 77.8356 101.954 78.0821C102.13 78.3265 102.222 78.6075 102.23 78.9244H101.371ZM103.172 82.127V81.4059L105.725 77.3725H106.294V78.4342H105.933L104.107 81.3253V81.3713H107.607V82.127H103.172ZM105.973 83.2814V81.9083L105.979 81.5792V77.3725H106.824V83.2814H105.973ZM110.609 83.362C110.195 83.362 109.829 83.2909 109.512 83.1487C109.196 83.0065 108.949 82.8101 108.77 82.5603C108.592 82.3098 108.503 82.0254 108.505 81.7058C108.503 81.456 108.554 81.2258 108.658 81.0165C108.764 80.8046 108.907 80.6286 109.088 80.4884C109.269 80.3462 109.471 80.2555 109.694 80.2169V80.1824C109.399 80.1113 109.164 79.9535 108.987 79.7091C108.81 79.4654 108.722 79.1844 108.724 78.8668C108.722 78.5648 108.802 78.2954 108.964 78.0591C109.127 77.8207 109.351 77.6332 109.636 77.4964C109.921 77.3596 110.245 77.2912 110.609 77.2912C110.968 77.2912 111.289 77.361 111.572 77.4991C111.857 77.6359 112.081 77.8234 112.245 78.0618C112.408 78.2987 112.49 78.5669 112.492 78.8668C112.49 79.1844 112.4 79.4654 112.222 79.7091C112.042 79.9535 111.81 80.1113 111.523 80.1824V80.2169C111.744 80.2555 111.943 80.3462 112.121 80.4884C112.299 80.6286 112.442 80.8046 112.547 81.0165C112.655 81.2258 112.71 81.456 112.712 81.7058C112.71 82.0254 112.62 82.3098 112.441 82.5603C112.261 82.8101 112.014 83.0065 111.696 83.1487C111.381 83.2909 111.018 83.362 110.609 83.362ZM110.609 82.6321C110.852 82.6321 111.064 82.5921 111.243 82.5109C111.422 82.4283 111.561 82.3138 111.659 82.1676C111.757 82.0193 111.806 81.8467 111.808 81.6483C111.806 81.4424 111.753 81.261 111.647 81.1032C111.543 80.9455 111.402 80.8209 111.223 80.7308C111.044 80.6401 110.839 80.5954 110.609 80.5954C110.376 80.5954 110.169 80.6401 109.988 80.7308C109.807 80.8209 109.665 80.9455 109.561 81.1032C109.457 81.261 109.406 81.4424 109.408 81.6483C109.406 81.8467 109.454 82.0193 109.55 82.1676C109.648 82.3138 109.787 82.4283 109.968 82.5109C110.149 82.5921 110.362 82.6321 110.609 82.6321ZM110.609 79.8824C110.804 79.8824 110.978 79.8432 111.131 79.7639C111.282 79.6854 111.402 79.5757 111.488 79.4356C111.577 79.2947 111.622 79.1302 111.624 78.942C111.622 78.7571 111.578 78.596 111.492 78.4572C111.407 78.3184 111.288 78.2121 111.136 78.1369C110.984 78.0597 110.808 78.0218 110.609 78.0218C110.404 78.0218 110.225 78.0597 110.072 78.1369C109.92 78.2121 109.802 78.3184 109.717 78.4572C109.632 78.596 109.591 78.7571 109.593 78.942C109.591 79.1302 109.633 79.2947 109.72 79.4356C109.806 79.5757 109.926 79.6854 110.077 79.7639C110.232 79.8432 110.408 79.8824 110.609 79.8824ZM114.151 83.3362C113.993 83.3362 113.857 83.2807 113.744 83.169C113.631 83.0552 113.574 82.9185 113.574 82.7594C113.574 82.6016 113.631 82.4669 113.744 82.3551C113.857 82.2414 113.993 82.1852 114.151 82.1852C114.308 82.1852 114.444 82.2414 114.557 82.3551C114.671 82.4669 114.728 82.6016 114.728 82.7594C114.728 82.865 114.701 82.9618 114.647 83.0505C114.595 83.1372 114.526 83.2062 114.44 83.2584C114.353 83.3105 114.257 83.3362 114.151 83.3362ZM117.765 77.2912C118.029 77.2933 118.289 77.3413 118.544 77.4355C118.8 77.5302 119.031 77.6839 119.237 77.8972C119.445 78.1112 119.61 78.3996 119.733 78.7632C119.858 79.1248 119.922 79.575 119.923 80.1133C119.923 80.6306 119.872 81.0917 119.768 81.4952C119.664 81.8974 119.515 82.2367 119.321 82.5136C119.128 82.7912 118.894 83.0018 118.619 83.146C118.344 83.2902 118.035 83.362 117.69 83.362C117.338 83.362 117.026 83.2929 116.753 83.1541C116.48 83.016 116.258 82.8244 116.086 82.5799C115.915 82.3342 115.808 82.0511 115.766 81.7322H116.646C116.704 81.9861 116.821 82.192 116.998 82.3497C117.177 82.5055 117.407 82.5833 117.69 82.5833C118.123 82.5833 118.461 82.3944 118.703 82.018C118.946 81.6388 119.067 81.11 119.07 80.4309H119.023C118.923 80.5961 118.798 80.7383 118.648 80.8574C118.5 80.9773 118.334 81.0694 118.149 81.135C117.965 81.2 117.768 81.2325 117.558 81.2325C117.217 81.2325 116.908 81.1493 116.629 80.982C116.35 80.8148 116.128 80.5846 115.962 80.2921C115.797 79.9996 115.714 79.6664 115.714 79.2913C115.714 78.9176 115.799 78.5791 115.968 78.2757C116.139 77.9717 116.377 77.7313 116.683 77.5539C116.991 77.3752 117.352 77.2879 117.765 77.2912ZM117.768 78.0414C117.543 78.0414 117.34 78.0976 117.159 78.2094C116.981 78.3184 116.839 78.468 116.736 78.6562C116.631 78.8431 116.579 79.0503 116.579 79.2792C116.579 79.5087 116.629 79.7159 116.73 79.9027C116.832 80.0876 116.97 80.2345 117.145 80.3442C117.322 80.4519 117.524 80.506 117.751 80.506C117.921 80.506 118.078 80.4729 118.224 80.4079C118.37 80.3422 118.498 80.2521 118.608 80.1363C118.717 80.0192 118.803 79.8865 118.864 79.7382C118.926 79.5899 118.957 79.4342 118.957 79.271C118.957 79.0537 118.905 78.8512 118.801 78.665C118.699 78.4782 118.559 78.3285 118.38 78.2148C118.201 78.0997 117.997 78.0414 117.768 78.0414ZM122.916 83.362C122.554 83.362 122.229 83.2929 121.941 83.1541C121.655 83.0139 121.426 82.8217 121.254 82.5772C121.083 82.3328 120.992 82.0545 120.98 81.7404H121.846C121.867 81.9943 121.98 82.2035 122.183 82.3667C122.387 82.5305 122.632 82.6118 122.916 82.6118C123.144 82.6118 123.345 82.5603 123.519 82.456C123.696 82.3504 123.835 82.2055 123.935 82.0207C124.037 81.8358 124.088 81.6252 124.088 81.3889C124.088 81.1479 124.036 80.9339 123.932 80.745C123.828 80.5568 123.685 80.4085 123.502 80.3009C123.321 80.1932 123.114 80.1384 122.879 80.1363C122.7 80.1363 122.52 80.1675 122.339 80.2284C122.158 80.29 122.012 80.3713 121.9 80.4708L121.085 80.3496L121.416 77.3725H124.665V78.1369H122.158L121.97 79.7904H122.005C122.12 79.6786 122.273 79.5852 122.463 79.51C122.656 79.4356 122.862 79.3976 123.081 79.3976C123.441 79.3976 123.761 79.4836 124.041 79.6543C124.324 79.8256 124.546 80.0592 124.708 80.3557C124.871 80.6502 124.953 80.9888 124.951 81.3713C124.953 81.7539 124.866 82.0958 124.691 82.3958C124.518 82.6957 124.277 82.932 123.97 83.1054C123.664 83.2767 123.313 83.362 122.916 83.362Z" fill="#141515"/>
<path d="M184.758 83.8501H192.883V75.7251H184.758V83.8501Z" fill="#200109" fill-opacity="0.72"/>
<path d="M129.029 77.3721V83.281H128.348V77.3721H129.029ZM132.134 83.3731C131.707 83.3731 131.338 83.279 131.029 83.0908C130.721 82.9005 130.484 82.6344 130.316 82.2945C130.151 81.9519 130.068 81.5538 130.068 81.0995C130.068 80.6458 130.151 80.2457 130.316 79.8997C130.484 79.551 130.716 79.2802 131.015 79.0858C131.315 78.8895 131.665 78.7913 132.065 78.7913C132.296 78.7913 132.523 78.8299 132.749 78.9071C132.973 78.9836 133.179 79.1089 133.363 79.2822C133.548 79.4535 133.695 79.6803 133.804 79.9627C133.914 80.2457 133.969 80.5937 133.969 81.0074V81.2958H130.553V80.7075H133.277C133.277 80.4576 133.227 80.2342 133.127 80.0378C133.028 79.8415 132.888 79.6871 132.705 79.5733C132.525 79.4603 132.311 79.4034 132.065 79.4034C131.793 79.4034 131.559 79.4704 131.361 79.6052C131.164 79.7379 131.013 79.9112 130.908 80.1245C130.802 80.3378 130.749 80.5666 130.749 80.811V81.2038C130.749 81.5382 130.807 81.8219 130.922 82.0549C131.04 82.2857 131.202 82.4618 131.41 82.583C131.617 82.7021 131.859 82.7617 132.134 82.7617C132.313 82.7617 132.474 82.7367 132.619 82.6866C132.765 82.6344 132.891 82.5579 132.997 82.4557C133.103 82.3521 133.184 82.2228 133.242 82.0691L133.9 82.2539C133.831 82.4767 133.714 82.673 133.55 82.8423C133.387 83.0095 133.185 83.1409 132.945 83.235C132.704 83.3271 132.434 83.3731 132.134 83.3731ZM136.978 78.8495V79.4264H134.59V78.8495H136.978ZM135.305 83.281V78.2375C135.305 77.9836 135.364 77.7723 135.484 77.603C135.603 77.4338 135.758 77.3065 135.949 77.2218C136.139 77.1372 136.34 77.0952 136.551 77.0952C136.718 77.0952 136.855 77.1088 136.961 77.1352C137.067 77.1622 137.146 77.1873 137.198 77.2103L137.001 77.7987C136.967 77.7872 136.919 77.773 136.857 77.7554C136.798 77.7384 136.718 77.7296 136.621 77.7296C136.395 77.7296 136.233 77.7865 136.133 77.9003C136.035 78.0133 135.986 78.1799 135.986 78.3993V83.281H135.305ZM139.86 78.8495V79.4264H137.563V78.8495H139.86ZM138.233 77.7872H138.914V82.0115C138.914 82.2038 138.941 82.348 138.997 82.4442C139.055 82.5383 139.128 82.6019 139.217 82.6344C139.307 82.6656 139.402 82.6812 139.503 82.6812C139.577 82.6812 139.639 82.6771 139.687 82.6696C139.735 82.6595 139.773 82.652 139.803 82.6459L139.941 83.258C139.895 83.275 139.83 83.2926 139.748 83.3102C139.665 83.3291 139.56 83.3386 139.433 83.3386C139.241 83.3386 139.052 83.2973 138.867 83.2147C138.685 83.1321 138.533 83.0062 138.412 82.8369C138.293 82.6676 138.233 82.4537 138.233 82.1964V77.7872ZM143.17 83.281V78.8495H143.85V83.281H143.17ZM143.516 78.1108C143.383 78.1108 143.269 78.0655 143.172 77.9747C143.078 77.8847 143.031 77.7757 143.031 77.6491C143.031 77.5218 143.078 77.4134 143.172 77.3227C143.269 77.2327 143.383 77.1873 143.516 77.1873C143.648 77.1873 143.762 77.2327 143.856 77.3227C143.952 77.4134 144 77.5218 144 77.6491C144 77.7757 143.952 77.8847 143.856 77.9747C143.762 78.0655 143.648 78.1108 143.516 78.1108ZM145.778 80.6147V83.281H145.097V78.8495H145.755V79.5415H145.813C145.917 79.3167 146.075 79.1359 146.286 78.9992C146.498 78.8611 146.771 78.7913 147.106 78.7913C147.406 78.7913 147.668 78.8529 147.894 78.9762C148.118 79.0974 148.294 79.2822 148.418 79.53C148.544 79.7765 148.606 80.0879 148.606 80.4651V83.281H147.926V80.5111C147.926 80.1631 147.835 79.8916 147.654 79.6972C147.473 79.5016 147.225 79.4034 146.91 79.4034C146.693 79.4034 146.498 79.4501 146.327 79.5449C146.158 79.639 146.024 79.7765 145.925 79.9572C145.828 80.138 145.778 80.3574 145.778 80.6147ZM152.136 83.281V78.8495H152.794V79.5415H152.851C152.943 79.3052 153.092 79.1217 153.298 78.9904C153.504 78.8577 153.751 78.7913 154.04 78.7913C154.332 78.7913 154.576 78.8577 154.77 78.9904C154.966 79.1217 155.119 79.3052 155.229 79.5415H155.275C155.388 79.3127 155.558 79.1312 155.786 78.9965C156.013 78.8597 156.285 78.7913 156.602 78.7913C156.998 78.7913 157.322 78.9159 157.575 79.1637C157.827 79.4102 157.952 79.7934 157.952 80.3147V83.281H157.271V80.3147C157.271 79.9877 157.182 79.7541 157.003 79.614C156.824 79.4731 156.614 79.4034 156.371 79.4034C156.059 79.4034 155.818 79.4975 155.647 79.6857C155.476 79.8726 155.39 80.1089 155.39 80.396V83.281H154.698V80.2457C154.698 79.9938 154.616 79.7907 154.453 79.637C154.289 79.4813 154.078 79.4034 153.821 79.4034C153.643 79.4034 153.478 79.4501 153.325 79.5449C153.172 79.639 153.049 79.7697 152.955 79.9369C152.863 80.1021 152.817 80.2938 152.817 80.5111V83.281H152.136ZM160.998 83.3731C160.598 83.3731 160.246 83.2783 159.944 83.0874C159.644 82.8971 159.41 82.631 159.241 82.2884C159.073 81.9458 158.99 81.5457 158.99 81.088C158.99 80.6269 159.073 80.2233 159.241 79.8794C159.41 79.5347 159.644 79.2673 159.944 79.077C160.246 78.8868 160.598 78.7913 160.998 78.7913C161.398 78.7913 161.748 78.8868 162.048 79.077C162.35 79.2673 162.585 79.5347 162.752 79.8794C162.922 80.2233 163.006 80.6269 163.006 81.088C163.006 81.5457 162.922 81.9458 162.752 82.2884C162.585 82.631 162.35 82.8971 162.048 83.0874C161.748 83.2783 161.398 83.3731 160.998 83.3731ZM160.998 82.7617C161.302 82.7617 161.552 82.6839 161.748 82.5281C161.944 82.3724 162.089 82.1672 162.184 81.9133C162.278 81.6594 162.325 81.3845 162.325 81.088C162.325 80.7921 162.278 80.5158 162.184 80.2599C162.089 80.0046 161.944 79.7975 161.748 79.6397C161.552 79.4819 161.302 79.4034 160.998 79.4034C160.694 79.4034 160.444 79.4819 160.248 79.6397C160.051 79.7975 159.907 80.0046 159.812 80.2599C159.718 80.5158 159.671 80.7921 159.671 81.088C159.671 81.3845 159.718 81.6594 159.812 81.9133C159.907 82.1672 160.051 82.3724 160.248 82.5281C160.444 82.6839 160.694 82.7617 160.998 82.7617ZM164.727 80.6147V83.281H164.046V78.8495H164.703V79.5415H164.761C164.865 79.3167 165.023 79.1359 165.234 78.9992C165.446 78.8611 165.719 78.7913 166.054 78.7913C166.354 78.7913 166.616 78.8529 166.841 78.9762C167.066 79.0974 167.241 79.2822 167.367 79.53C167.491 79.7765 167.554 80.0879 167.554 80.4651V83.281H166.873V80.5111C166.873 80.1631 166.782 79.8916 166.602 79.6972C166.421 79.5016 166.173 79.4034 165.857 79.4034C165.64 79.4034 165.446 79.4501 165.274 79.5449C165.105 79.639 164.972 79.7765 164.874 79.9572C164.775 80.138 164.727 80.3574 164.727 80.6147ZM170.726 78.8495V79.4264H168.429V78.8495H170.726ZM169.099 77.7872H169.779V82.0115C169.779 82.2038 169.807 82.348 169.863 82.4442C169.921 82.5383 169.994 82.6019 170.082 82.6344C170.172 82.6656 170.268 82.6812 170.368 82.6812C170.443 82.6812 170.504 82.6771 170.552 82.6696C170.6 82.6595 170.639 82.652 170.668 82.6459L170.806 83.258C170.76 83.275 170.696 83.2926 170.613 83.3102C170.531 83.3291 170.426 83.3386 170.298 83.3386C170.106 83.3386 169.918 83.2973 169.733 83.2147C169.55 83.1321 169.399 83.0062 169.277 82.8369C169.158 82.6676 169.099 82.4537 169.099 82.1964V77.7872ZM172.526 80.6147V83.281H171.845V77.3721H172.526V79.5415H172.584C172.688 79.3127 172.844 79.1312 173.051 78.9965C173.261 78.8597 173.54 78.7913 173.888 78.7913C174.19 78.7913 174.454 78.8522 174.681 78.9734C174.909 79.0926 175.084 79.2761 175.209 79.5246C175.337 79.7704 175.4 80.0839 175.4 80.4651V83.281H174.719V80.5111C174.719 80.159 174.628 79.8868 174.445 79.6945C174.264 79.5002 174.013 79.4034 173.692 79.4034C173.468 79.4034 173.269 79.4501 173.091 79.5449C172.917 79.639 172.778 79.7765 172.676 79.9572C172.576 80.138 172.526 80.3574 172.526 80.6147ZM177.327 77.3721V83.281H176.645V77.3721H177.327ZM179.012 84.9433C178.897 84.9433 178.794 84.9331 178.704 84.9142C178.613 84.8966 178.551 84.8796 178.516 84.862L178.689 84.2621C178.855 84.3041 179.001 84.3197 179.128 84.3082C179.255 84.2967 179.367 84.2398 179.465 84.1382C179.565 84.038 179.656 83.8755 179.739 83.6501L179.866 83.3041L178.227 78.8495H178.966L180.189 82.3805H180.235L181.459 78.8495H182.197L180.317 83.9277C180.232 84.1565 180.127 84.3454 180.002 84.4957C179.877 84.6474 179.732 84.7605 179.566 84.8336C179.402 84.9067 179.218 84.9433 179.012 84.9433Z" fill="#646868"/>
<g filter="url(#filter2_dddd_4117_19513)">
<path d="M177.396 93.4375H101.562C99.3188 93.4375 97.5 95.2563 97.5 97.5C97.5 99.7437 99.3188 101.562 101.562 101.562H177.396C179.639 101.562 181.458 99.7437 181.458 97.5C181.458 95.2563 179.639 93.4375 177.396 93.4375Z" fill="#D7FF52"/>
</g>
<g filter="url(#filter3_dddd_4117_19513)">
<path d="M223.437 93.4375H188.229C185.985 93.4375 184.166 95.2563 184.166 97.5C184.166 99.7437 185.985 101.562 188.229 101.562H223.437C225.681 101.562 227.499 99.7437 227.499 97.5C227.499 95.2563 225.681 93.4375 223.437 93.4375Z" fill="#A1A5A5"/>
</g>
<path d="M101.725 128.57C101.725 128.293 101.595 128.115 101.27 128.05C99.1902 127.562 98.0527 126.051 98.0527 123.841H99.824C99.824 125.677 100.848 126.636 102.798 126.636C104.52 126.636 105.3 125.905 105.3 124.832C105.3 123.906 104.699 123.353 103.431 123.11L101.855 122.801C99.4502 122.346 98.394 121.176 98.394 119.567C98.394 117.926 99.4502 116.772 101.238 116.447C101.563 116.398 101.725 116.236 101.725 115.927V115.293H103.399V115.976C103.399 116.252 103.545 116.431 103.838 116.496C105.706 116.918 106.811 118.283 106.811 120.315H105.089C105.056 118.69 104.081 117.926 102.44 117.926C100.978 117.926 100.198 118.511 100.198 119.518C100.198 120.445 100.831 120.948 102.164 121.208L103.691 121.501C106.064 121.972 107.088 123.11 107.088 124.816C107.088 126.636 105.853 127.871 103.87 128.147C103.561 128.196 103.399 128.358 103.399 128.651V129.268H101.725V128.57ZM111.72 121.387C113.052 121.387 113.751 120.607 113.751 119.583C113.751 118.462 112.955 117.845 111.817 117.845C110.533 117.845 109.753 118.625 109.753 120.201H108.015C108.015 117.747 109.591 116.35 111.898 116.35C114.108 116.35 115.538 117.617 115.538 119.34C115.538 120.38 115.018 121.322 113.93 121.842C115.246 122.362 115.945 123.418 115.945 124.767C115.945 126.815 114.287 128.212 111.931 128.212C109.575 128.212 107.787 126.815 107.787 124.28H109.526C109.526 125.937 110.55 126.717 111.898 126.717C113.231 126.717 114.157 125.97 114.157 124.751C114.157 123.532 113.263 122.817 111.72 122.817H110.891V121.387H111.72ZM120.956 128.212C118.86 128.212 116.65 126.863 116.65 122.346C116.65 118.576 118.21 116.35 120.956 116.35C123.085 116.35 124.401 117.698 124.661 119.502H122.923C122.776 118.56 122.094 117.845 120.94 117.845C119.283 117.845 118.405 119.275 118.324 122.07H118.389C118.844 121.127 119.835 120.591 121.103 120.591C123.264 120.591 124.808 122.086 124.808 124.345C124.808 126.636 123.231 128.212 120.956 128.212ZM120.891 126.717C122.143 126.717 123.036 125.791 123.036 124.377C123.036 122.947 122.126 122.021 120.794 122.021C119.494 122.021 118.633 122.947 118.633 124.312C118.633 125.742 119.575 126.717 120.891 126.717ZM126.599 128.212C125.965 128.212 125.494 127.773 125.494 127.172C125.494 126.571 125.965 126.116 126.599 126.116C127.232 126.116 127.704 126.571 127.704 127.172C127.704 127.773 127.232 128.212 126.599 128.212ZM130.103 124.345C130.152 125.937 131.143 126.717 132.443 126.717C133.841 126.717 134.767 125.791 134.767 124.263C134.767 122.655 133.776 121.761 132.378 121.761C131.419 121.761 130.802 122.183 130.444 122.736H128.722L129.404 116.593H135.969V118.088H130.867L130.493 121.29C130.964 120.705 131.712 120.331 132.768 120.331C134.913 120.331 136.571 121.793 136.571 124.215C136.571 126.587 134.994 128.212 132.508 128.212C130.168 128.212 128.429 126.782 128.364 124.345H130.103ZM138.998 124.345C139.047 125.937 140.038 126.717 141.338 126.717C142.735 126.717 143.662 125.791 143.662 124.263C143.662 122.655 142.671 121.761 141.273 121.761C140.314 121.761 139.697 122.183 139.339 122.736H137.617L138.299 116.593H144.864V118.088H139.762L139.388 121.29C139.859 120.705 140.607 120.331 141.663 120.331C143.808 120.331 145.466 121.793 145.466 124.215C145.466 126.587 143.889 128.212 141.403 128.212C139.063 128.212 137.324 126.782 137.259 124.345H138.998Z" fill="#141515"/>
<g filter="url(#filter4_dddd_4117_19513)">
<path d="M100.208 142.865C100.208 142.117 99.6021 141.511 98.8542 141.511C98.1063 141.511 97.5 142.117 97.5 142.865C97.5 143.613 98.1063 144.219 98.8542 144.219C99.6021 144.219 100.208 143.613 100.208 142.865Z" fill="#A1A5A5"/>
</g>
<path d="M109.274 141.511C109.211 141.316 109.127 141.142 109.023 140.989C108.921 140.833 108.799 140.7 108.656 140.591C108.516 140.481 108.356 140.397 108.177 140.339C107.999 140.282 107.802 140.253 107.589 140.253C107.239 140.253 106.921 140.343 106.634 140.524C106.347 140.705 106.119 140.971 105.95 141.323C105.781 141.675 105.696 142.107 105.696 142.618C105.696 143.13 105.782 143.562 105.953 143.914C106.124 144.266 106.356 144.532 106.649 144.713C106.94 144.894 107.269 144.985 107.635 144.985C107.974 144.985 108.272 144.912 108.529 144.768C108.789 144.622 108.991 144.416 109.135 144.151C109.282 143.883 109.355 143.569 109.355 143.207L109.574 143.253H107.797V142.618H110.047V143.253C110.047 143.74 109.943 144.163 109.735 144.523C109.53 144.883 109.245 145.161 108.882 145.36C108.52 145.556 108.104 145.654 107.635 145.654C107.112 145.654 106.652 145.531 106.256 145.285C105.862 145.038 105.554 144.688 105.332 144.235C105.114 143.78 105.004 143.242 105.004 142.618C105.004 142.151 105.066 141.731 105.191 141.358C105.318 140.983 105.497 140.664 105.728 140.4C105.959 140.136 106.232 139.934 106.547 139.794C106.863 139.653 107.21 139.583 107.589 139.583C107.9 139.583 108.191 139.63 108.46 139.725C108.731 139.817 108.973 139.949 109.184 140.12C109.398 140.289 109.576 140.492 109.718 140.729C109.861 140.964 109.959 141.224 110.012 141.511H109.274ZM111.18 145.573V141.142H111.838V141.811H111.884C111.965 141.591 112.111 141.414 112.323 141.277C112.534 141.14 112.773 141.072 113.038 141.072C113.088 141.072 113.151 141.073 113.226 141.075C113.301 141.077 113.358 141.08 113.396 141.083V141.776C113.373 141.771 113.321 141.762 113.237 141.75C113.157 141.737 113.071 141.73 112.981 141.73C112.765 141.73 112.573 141.775 112.404 141.865C112.237 141.954 112.104 142.077 112.006 142.235C111.909 142.391 111.861 142.568 111.861 142.769V145.573H111.18ZM115.869 145.665C115.469 145.665 115.117 145.57 114.816 145.38C114.516 145.189 114.281 144.923 114.112 144.581C113.944 144.238 113.861 143.838 113.861 143.38C113.861 142.919 113.944 142.515 114.112 142.171C114.281 141.827 114.516 141.559 114.816 141.369C115.117 141.179 115.469 141.083 115.869 141.083C116.269 141.083 116.619 141.179 116.919 141.369C117.221 141.559 117.456 141.827 117.623 142.171C117.793 142.515 117.877 142.919 117.877 143.38C117.877 143.838 117.793 144.238 117.623 144.581C117.456 144.923 117.221 145.189 116.919 145.38C116.619 145.57 116.269 145.665 115.869 145.665ZM115.869 145.054C116.173 145.054 116.423 144.976 116.619 144.82C116.816 144.665 116.961 144.459 117.055 144.205C117.149 143.952 117.196 143.677 117.196 143.38C117.196 143.084 117.149 142.808 117.055 142.552C116.961 142.297 116.816 142.09 116.619 141.932C116.423 141.774 116.173 141.696 115.869 141.696C115.565 141.696 115.315 141.774 115.119 141.932C114.922 142.09 114.778 142.297 114.683 142.552C114.589 142.808 114.542 143.084 114.542 143.38C114.542 143.677 114.589 143.952 114.683 144.205C114.778 144.459 114.922 144.665 115.119 144.82C115.315 144.976 115.565 145.054 115.869 145.054ZM122.056 142.134L121.444 142.307C121.406 142.205 121.349 142.106 121.274 142.01C121.2 141.911 121.101 141.831 120.974 141.767C120.847 141.704 120.684 141.672 120.486 141.672C120.215 141.672 119.989 141.735 119.808 141.86C119.629 141.983 119.54 142.14 119.54 142.33C119.54 142.499 119.601 142.633 119.724 142.731C119.848 142.829 120.04 142.911 120.301 142.977L120.959 143.138C121.355 143.234 121.651 143.381 121.845 143.579C122.039 143.776 122.137 144.029 122.137 144.338C122.137 144.592 122.064 144.819 121.917 145.019C121.773 145.219 121.571 145.377 121.311 145.493C121.051 145.608 120.749 145.665 120.406 145.665C119.953 145.665 119.579 145.567 119.283 145.371C118.987 145.175 118.799 144.889 118.72 144.512L119.367 144.35C119.428 144.588 119.544 144.767 119.716 144.887C119.889 145.006 120.115 145.065 120.394 145.065C120.711 145.065 120.963 144.998 121.15 144.864C121.339 144.727 121.433 144.564 121.433 144.373C121.433 144.219 121.378 144.09 121.271 143.986C121.163 143.88 120.998 143.802 120.775 143.75L120.036 143.576C119.63 143.48 119.332 143.331 119.141 143.13C118.953 142.925 118.859 142.671 118.859 142.364C118.859 142.115 118.929 141.893 119.07 141.701C119.212 141.509 119.405 141.358 119.649 141.248C119.896 141.138 120.175 141.083 120.486 141.083C120.925 141.083 121.269 141.18 121.519 141.372C121.771 141.565 121.95 141.819 122.056 142.134ZM126.301 142.134L125.689 142.307C125.651 142.205 125.594 142.106 125.519 142.01C125.446 141.911 125.346 141.831 125.219 141.767C125.092 141.704 124.929 141.672 124.731 141.672C124.46 141.672 124.234 141.735 124.053 141.86C123.874 141.983 123.785 142.14 123.785 142.33C123.785 142.499 123.846 142.633 123.97 142.731C124.092 142.829 124.285 142.911 124.547 142.977L125.204 143.138C125.601 143.234 125.896 143.381 126.09 143.579C126.285 143.776 126.381 144.029 126.381 144.338C126.381 144.592 126.308 144.819 126.162 145.019C126.018 145.219 125.816 145.377 125.556 145.493C125.297 145.608 124.995 145.665 124.65 145.665C124.199 145.665 123.824 145.567 123.528 145.371C123.232 145.175 123.044 144.889 122.966 144.512L123.612 144.35C123.673 144.588 123.79 144.767 123.961 144.887C124.134 145.006 124.36 145.065 124.639 145.065C124.956 145.065 125.208 144.998 125.395 144.864C125.583 144.727 125.677 144.564 125.677 144.373C125.677 144.219 125.624 144.09 125.516 143.986C125.408 143.88 125.243 143.802 125.02 143.75L124.281 143.576C123.875 143.48 123.577 143.331 123.387 143.13C123.198 142.925 123.104 142.671 123.104 142.364C123.104 142.115 123.174 141.893 123.314 141.701C123.456 141.509 123.65 141.358 123.895 141.248C124.14 141.138 124.419 141.083 124.731 141.083C125.169 141.083 125.514 141.18 125.764 141.372C126.016 141.565 126.195 141.819 126.301 142.134ZM129.784 145.573V139.664H131.781C132.242 139.664 132.621 139.743 132.917 139.901C133.214 140.056 133.433 140.271 133.575 140.544C133.718 140.817 133.789 141.128 133.789 141.476C133.789 141.824 133.718 142.133 133.575 142.402C133.433 142.671 133.215 142.883 132.92 143.037C132.626 143.189 132.25 143.265 131.792 143.265H130.177V142.618H131.769C132.085 142.618 132.338 142.572 132.531 142.48C132.725 142.387 132.865 142.257 132.952 142.088C133.041 141.916 133.085 141.712 133.085 141.476C133.085 141.239 133.041 141.033 132.952 140.856C132.864 140.679 132.722 140.542 132.528 140.446C132.334 140.348 132.077 140.299 131.757 140.299H130.499V145.573H129.784ZM132.565 142.919L134.02 145.573H133.189L131.757 142.919H132.565ZM136.7 145.665C136.272 145.665 135.904 145.571 135.595 145.383C135.286 145.193 135.049 144.927 134.882 144.587C134.716 144.244 134.634 143.846 134.634 143.392C134.634 142.938 134.716 142.538 134.882 142.192C135.049 141.843 135.282 141.572 135.58 141.378C135.88 141.182 136.23 141.083 136.63 141.083C136.861 141.083 137.089 141.122 137.314 141.199C137.539 141.276 137.744 141.401 137.928 141.574C138.113 141.746 138.26 141.972 138.37 142.255C138.48 142.538 138.534 142.886 138.534 143.3V143.588H135.119V143H137.842C137.842 142.75 137.792 142.526 137.692 142.33C137.594 142.134 137.453 141.979 137.27 141.865C137.09 141.752 136.876 141.696 136.63 141.696C136.359 141.696 136.124 141.763 135.926 141.897C135.73 142.03 135.579 142.203 135.473 142.417C135.367 142.63 135.314 142.859 135.314 143.103V143.496C135.314 143.83 135.372 144.114 135.488 144.347C135.605 144.578 135.767 144.754 135.975 144.875C136.183 144.994 136.424 145.054 136.7 145.054C136.878 145.054 137.04 145.029 137.184 144.979C137.331 144.927 137.457 144.85 137.562 144.748C137.668 144.644 137.75 144.515 137.807 144.361L138.465 144.546C138.396 144.769 138.28 144.965 138.116 145.134C137.953 145.302 137.75 145.433 137.51 145.527C137.27 145.619 136.999 145.665 136.7 145.665ZM143.059 141.142L141.42 145.573H140.728L139.089 141.142H139.828L141.051 144.673H141.097L142.321 141.142H143.059ZM145.657 145.665C145.231 145.665 144.862 145.571 144.552 145.383C144.245 145.193 144.007 144.927 143.84 144.587C143.674 144.244 143.592 143.846 143.592 143.392C143.592 142.938 143.674 142.538 143.84 142.192C144.007 141.843 144.24 141.572 144.538 141.378C144.838 141.182 145.188 141.083 145.588 141.083C145.819 141.083 146.047 141.122 146.272 141.199C146.497 141.276 146.702 141.401 146.887 141.574C147.071 141.746 147.219 141.972 147.328 142.255C147.437 142.538 147.492 142.886 147.492 143.3V143.588H144.076V143H146.8C146.8 142.75 146.75 142.526 146.65 142.33C146.552 142.134 146.412 141.979 146.229 141.865C146.048 141.752 145.835 141.696 145.588 141.696C145.317 141.696 145.082 141.763 144.884 141.897C144.688 142.03 144.537 142.203 144.431 142.417C144.326 142.63 144.273 142.859 144.273 143.103V143.496C144.273 143.83 144.33 144.114 144.445 144.347C144.563 144.578 144.726 144.754 144.934 144.875C145.141 144.994 145.382 145.054 145.657 145.054C145.836 145.054 145.998 145.029 146.142 144.979C146.288 144.927 146.414 144.85 146.52 144.748C146.626 144.644 146.707 144.515 146.766 144.361L147.423 144.546C147.354 144.769 147.238 144.965 147.074 145.134C146.911 145.302 146.709 145.433 146.468 145.527C146.228 145.619 145.957 145.665 145.657 145.665ZM149.209 142.907V145.573H148.528V141.142H149.186V141.834H149.244C149.347 141.609 149.505 141.428 149.717 141.291C149.928 141.153 150.202 141.083 150.536 141.083C150.836 141.083 151.099 141.145 151.325 141.268C151.549 141.389 151.724 141.574 151.849 141.822C151.975 142.069 152.037 142.38 152.037 142.757V145.573H151.356V142.803C151.356 142.455 151.266 142.184 151.085 141.989C150.904 141.794 150.656 141.696 150.34 141.696C150.123 141.696 149.928 141.742 149.758 141.837C149.588 141.931 149.454 142.069 149.356 142.249C149.258 142.43 149.209 142.65 149.209 142.907ZM156.074 143.761V141.142H156.755V145.573H156.074V144.823H156.028C155.924 145.048 155.763 145.239 155.543 145.397C155.324 145.553 155.047 145.631 154.712 145.631C154.435 145.631 154.189 145.57 153.974 145.449C153.758 145.326 153.589 145.141 153.466 144.895C153.343 144.647 153.281 144.334 153.281 143.958V141.142H153.962V143.911C153.962 144.235 154.053 144.492 154.233 144.685C154.416 144.877 154.649 144.973 154.931 144.973C155.101 144.973 155.273 144.93 155.448 144.843C155.625 144.757 155.773 144.624 155.892 144.445C156.013 144.266 156.074 144.038 156.074 143.761ZM159.861 145.665C159.433 145.665 159.065 145.571 158.756 145.383C158.447 145.193 158.21 144.927 158.043 144.587C157.877 144.244 157.795 143.846 157.795 143.392C157.795 142.938 157.877 142.538 158.043 142.192C158.21 141.843 158.443 141.572 158.741 141.378C159.041 141.182 159.391 141.083 159.791 141.083C160.022 141.083 160.25 141.122 160.475 141.199C160.7 141.276 160.905 141.401 161.089 141.574C161.274 141.746 161.421 141.972 161.531 142.255C161.641 142.538 161.695 142.886 161.695 143.3V143.588H158.28V143H161.003C161.003 142.75 160.953 142.526 160.853 142.33C160.755 142.134 160.614 141.979 160.432 141.865C160.251 141.752 160.037 141.696 159.791 141.696C159.52 141.696 159.285 141.763 159.087 141.897C158.891 142.03 158.74 142.203 158.634 142.417C158.528 142.63 158.475 142.859 158.475 143.103V143.496C158.475 143.83 158.533 144.114 158.649 144.347C158.766 144.578 158.928 144.754 159.136 144.875C159.344 144.994 159.586 145.054 159.861 145.054C160.039 145.054 160.201 145.029 160.345 144.979C160.492 144.927 160.617 144.85 160.723 144.748C160.829 144.644 160.911 144.515 160.968 144.361L161.626 144.546C161.557 144.769 161.441 144.965 161.277 145.134C161.114 145.302 160.911 145.433 160.671 145.527C160.431 145.619 160.16 145.665 159.861 145.665Z" fill="#646868"/>
<path d="M222.085 112.396H189.585C186.593 112.396 184.168 114.821 184.168 117.813V143.542C184.168 146.533 186.593 148.958 189.585 148.958H222.085C225.076 148.958 227.501 146.533 227.501 143.542V117.813C227.501 114.821 225.076 112.396 222.085 112.396Z" fill="#F5F5F5"/>
<path d="M159.792 159.115H101.562C99.3188 159.115 97.5 160.934 97.5 163.177C97.5 165.421 99.3188 167.24 101.562 167.24H159.792C162.035 167.24 163.854 165.421 163.854 163.177C163.854 160.934 162.035 159.115 159.792 159.115Z" fill="#F5F5F5"/>
<path d="M180.104 171.979H101.562C99.3188 171.979 97.5 173.798 97.5 176.042C97.5 178.286 99.3188 180.104 101.562 180.104H180.104C182.348 180.104 184.167 178.286 184.167 176.042C184.167 173.798 182.348 171.979 180.104 171.979Z" fill="#F5F5F5"/>
<path d="M238.335 166.562H86.668V180.104H238.335V166.562Z" fill="url(#paint3_linear_4117_19513)"/>
<g filter="url(#filter5_ddddiii_4117_19513)">
<path d="M81.2493 169.271C81.2493 164.784 77.6114 161.146 73.1243 161.146H29.791C25.3037 161.146 21.666 164.784 21.666 169.271V212.605C21.666 217.092 25.3037 220.73 29.791 220.73H44.722C46.4583 220.73 48.149 220.173 49.5462 219.143L77.9486 198.185C80.0245 196.653 81.2493 194.227 81.2493 191.647V169.271Z" fill="white"/>
</g>
<g opacity="0.4" filter="url(#filter6_ddddiii_4117_19513)">
<path d="M21.666 147.604C21.666 152.091 25.3037 155.729 29.791 155.729H73.1243C77.6114 155.729 81.2493 152.091 81.2493 147.604V104.271C81.2493 99.784 77.6114 96.146 73.1243 96.146H58.1934C56.4571 96.146 54.7663 96.7026 53.3692 97.7331L24.9668 118.691C22.8911 120.223 21.666 122.649 21.666 125.229V147.604Z" fill="white"/>
</g>
<g filter="url(#filter7_d_4117_19513)">
<rect x="42.7617" y="176.764" width="74.8612" height="16.8908" fill="white" shape-rendering="crispEdges"/>
<rect x="42.9755" y="176.977" width="74.4335" height="16.4632" stroke="black" stroke-width="0.427632" shape-rendering="crispEdges"/>
<path d="M48.3681 186.895V182.61H51.4668V183.115H48.9352V184.428H51.306V184.931H48.9352V186.389H51.5661V186.895H48.3681ZM52.221 186.895L53.8668 182.61H54.4778L56.2318 186.895H55.5857L55.0858 185.597H53.2939L52.8232 186.895H52.221ZM53.4576 185.135H54.9104L54.4632 183.948C54.3268 183.588 54.2254 183.292 54.1592 183.06C54.1046 183.334 54.0276 183.607 53.9282 183.878L53.4576 185.135ZM57.0357 186.895V182.61H58.9359C59.3178 182.61 59.6082 182.648 59.807 182.726C60.0058 182.802 60.1646 182.938 60.2835 183.133C60.4024 183.328 60.4618 183.543 60.4618 183.779C60.4618 184.083 60.3634 184.339 60.1666 184.548C59.9697 184.756 59.6657 184.889 59.2545 184.945C59.4046 185.017 59.5186 185.088 59.5965 185.159C59.7622 185.311 59.9191 185.501 60.0672 185.729L60.8126 186.895H60.0993L59.5322 186.003C59.3666 185.746 59.2301 185.549 59.123 185.413C59.0158 185.277 58.9193 185.181 58.8335 185.126C58.7497 185.072 58.664 185.034 58.5763 185.012C58.512 184.999 58.4068 184.992 58.2606 184.992H57.6029V186.895H57.0357ZM57.6029 184.501H58.8219C59.0811 184.501 59.2837 184.475 59.4299 184.422C59.5761 184.367 59.6871 184.282 59.7631 184.165C59.8392 184.046 59.8772 183.917 59.8772 183.779C59.8772 183.576 59.8031 183.41 59.655 183.279C59.5088 183.148 59.2769 183.083 58.9592 183.083H57.6029V184.501ZM61.6897 186.895V182.61H62.2714L64.5223 185.974V182.61H65.066V186.895H64.4843L62.2334 183.527V186.895H61.6897ZM68.3724 186.895V182.61H69.989C70.2735 182.61 70.4908 182.623 70.6409 182.65C70.8513 182.686 71.0277 182.753 71.17 182.852C71.3122 182.95 71.4262 183.087 71.512 183.264C71.5997 183.442 71.6435 183.637 71.6435 183.849C71.6435 184.213 71.5276 184.522 71.2957 184.776C71.0638 185.027 70.6448 185.153 70.0387 185.153H68.9395V186.895H68.3724ZM68.9395 184.647H70.0474C70.4138 184.647 70.674 184.579 70.8279 184.442C70.9819 184.306 71.0589 184.114 71.0589 183.867C71.0589 183.687 71.0131 183.534 70.9215 183.408C70.8318 183.279 70.713 183.194 70.5649 183.153C70.4694 183.128 70.293 183.115 70.0357 183.115H68.9395V184.647ZM72.5352 184.808C72.5352 184.096 72.7262 183.54 73.1082 183.139C73.4901 182.735 73.9832 182.534 74.5873 182.534C74.983 182.534 75.3396 182.628 75.6573 182.817C75.9749 183.006 76.2166 183.27 76.3822 183.609C76.5498 183.946 76.6336 184.329 76.6336 184.758C76.6336 185.193 76.5459 185.582 76.3705 185.924C76.1951 186.267 75.9467 186.528 75.6251 186.705C75.3035 186.88 74.9567 186.968 74.5844 186.968C74.181 186.968 73.8205 186.871 73.5028 186.676C73.1852 186.481 72.9445 186.215 72.7808 185.878C72.6171 185.541 72.5352 185.184 72.5352 184.808ZM73.1199 184.817C73.1199 185.333 73.2582 185.74 73.535 186.039C73.8137 186.335 74.1625 186.483 74.5815 186.483C75.0083 186.483 75.3591 186.333 75.6339 186.033C75.9106 185.733 76.049 185.307 76.049 184.755C76.049 184.406 75.9895 184.102 75.8707 183.843C75.7537 183.582 75.5813 183.38 75.3532 183.238C75.1272 183.094 74.8729 183.022 74.5903 183.022C74.1888 183.022 73.8429 183.16 73.5525 183.437C73.2641 183.712 73.1199 184.172 73.1199 184.817ZM77.8059 186.895V182.61H78.3731V186.895H77.8059ZM79.712 186.895V182.61H80.2937L82.5446 185.974V182.61H83.0884V186.895H82.5066L80.2557 183.527V186.895H79.712ZM85.4767 186.895V183.115H84.0648V182.61H87.4616V183.115H86.0439V186.895H85.4767ZM88.1955 185.518L88.7304 185.471C88.7558 185.686 88.8142 185.862 88.9058 186.001C88.9994 186.137 89.1436 186.248 89.3385 186.334C89.5333 186.418 89.7526 186.459 89.9962 186.459C90.2125 186.459 90.4035 186.427 90.5692 186.363C90.7348 186.299 90.8576 186.211 90.9375 186.1C91.0193 185.987 91.0603 185.864 91.0603 185.732C91.0603 185.597 91.0213 185.48 90.9433 185.381C90.8654 185.279 90.7368 185.195 90.5575 185.126C90.4425 185.082 90.1882 185.012 89.7945 184.919C89.4008 184.823 89.1251 184.734 88.9672 184.65C88.7626 184.543 88.6096 184.41 88.5083 184.252C88.4089 184.093 88.3592 183.914 88.3592 183.717C88.3592 183.501 88.4206 183.299 88.5433 183.112C88.6661 182.923 88.8454 182.78 89.0812 182.683C89.317 182.585 89.5791 182.536 89.8676 182.536C90.1852 182.536 90.4649 182.588 90.7065 182.691C90.9502 182.793 91.1372 182.943 91.2678 183.142C91.3984 183.34 91.4685 183.565 91.4783 183.817L90.9346 183.858C90.9053 183.587 90.8059 183.382 90.6364 183.244C90.4688 183.105 90.2203 183.036 89.891 183.036C89.548 183.036 89.2975 183.1 89.1397 183.226C88.9838 183.351 88.9058 183.502 88.9058 183.679C88.9058 183.833 88.9614 183.96 89.0724 184.059C89.1816 184.159 89.4661 184.261 89.926 184.366C90.3879 184.47 90.7046 184.56 90.8761 184.638C91.1255 184.753 91.3097 184.899 91.4286 185.077C91.5475 185.252 91.6069 185.455 91.6069 185.685C91.6069 185.913 91.5416 186.128 91.4111 186.331C91.2805 186.532 91.0924 186.688 90.8469 186.801C90.6033 186.913 90.3285 186.968 90.0225 186.968C89.6347 186.968 89.3092 186.912 89.0461 186.799C88.785 186.686 88.5794 186.516 88.4293 186.29C88.2812 186.062 88.2033 185.805 88.1955 185.518Z" fill="#0F0F19"/>
</g>
<g filter="url(#filter8_d_4117_19513)">
<rect x="199.705" y="55.3159" width="76.1184" height="17.1053" fill="white" shape-rendering="crispEdges"/>
<rect x="199.919" y="55.5297" width="75.6908" height="16.6776" stroke="black" stroke-width="0.427632" shape-rendering="crispEdges"/>
<path d="M204.823 65.3686V61.0831H205.39V65.3686H204.823ZM206.729 65.3686V61.0831H207.311L209.562 64.4477V61.0831H210.105V65.3686H209.524L207.273 62.001V65.3686H206.729ZM211.132 64.0823V63.5532H212.748V64.0823H211.132ZM215.745 63.6877V63.1849L217.56 63.182V64.7722C217.281 64.9944 216.994 65.162 216.698 65.275C216.401 65.3861 216.097 65.4416 215.785 65.4416C215.365 65.4416 214.982 65.352 214.637 65.1727C214.294 64.9915 214.034 64.7303 213.859 64.3893C213.684 64.0482 213.596 63.6672 213.596 63.2463C213.596 62.8292 213.683 62.4404 213.856 62.0799C214.032 61.7174 214.283 61.4485 214.61 61.2731C214.938 61.0977 215.315 61.01 215.742 61.01C216.051 61.01 216.331 61.0606 216.581 61.162C216.832 61.2614 217.029 61.4007 217.171 61.58C217.313 61.7593 217.422 61.9932 217.496 62.2816L216.984 62.4219C216.92 62.2036 216.84 62.0321 216.744 61.9074C216.649 61.7827 216.512 61.6833 216.335 61.6092C216.158 61.5332 215.961 61.4952 215.745 61.4952C215.485 61.4952 215.261 61.5352 215.072 61.6151C214.883 61.693 214.73 61.7963 214.613 61.925C214.498 62.0536 214.409 62.1949 214.344 62.3488C214.235 62.6139 214.181 62.9013 214.181 63.2112C214.181 63.5932 214.246 63.9128 214.376 64.17C214.509 64.4273 214.701 64.6183 214.952 64.743C215.204 64.8677 215.471 64.9301 215.753 64.9301C215.999 64.9301 216.239 64.8833 216.472 64.7898C216.706 64.6943 216.884 64.5929 217.004 64.4857V63.6877H215.745ZM218.27 65.3686L219.916 61.0831H220.527L222.281 65.3686H221.635L221.135 64.0706H219.343L218.873 65.3686H218.27ZM219.507 63.6088H220.96L220.512 62.4219C220.376 62.0614 220.275 61.7652 220.208 61.5332C220.154 61.808 220.077 62.0809 219.978 62.3518L219.507 63.6088ZM223.059 65.3686V61.0831H223.912L224.927 64.1174C225.02 64.4 225.088 64.6114 225.131 64.7518C225.18 64.5958 225.256 64.3669 225.359 64.0648L226.385 61.0831H227.148V65.3686H226.602V61.7817L225.356 65.3686H224.845L223.605 61.7203V65.3686H223.059ZM228.417 65.3686V61.0831H231.516V61.5888H228.984V62.9013H231.355V63.4041H228.984V64.8628H231.615V65.3686H228.417ZM237.807 63.866L238.374 64.0092C238.255 64.475 238.041 64.8307 237.731 65.0762C237.423 65.3198 237.046 65.4416 236.6 65.4416C236.138 65.4416 235.762 65.3481 235.471 65.161C235.183 64.972 234.962 64.6991 234.81 64.3425C234.66 63.9859 234.585 63.6029 234.585 63.1937C234.585 62.7474 234.67 62.3586 234.84 62.0273C235.011 61.694 235.254 61.4416 235.568 61.2701C235.883 61.0967 236.23 61.01 236.608 61.01C237.037 61.01 237.398 61.1191 237.69 61.3374C237.982 61.5557 238.186 61.8626 238.301 62.2582L237.743 62.3898C237.643 62.0779 237.499 61.8509 237.31 61.7086C237.121 61.5664 236.883 61.4952 236.597 61.4952C236.267 61.4952 235.991 61.5742 235.769 61.732C235.549 61.8899 235.394 62.1023 235.305 62.3693C235.215 62.6343 235.17 62.9081 235.17 63.1907C235.17 63.5552 235.223 63.8738 235.328 64.1466C235.435 64.4175 235.601 64.6202 235.825 64.7547C236.049 64.8891 236.292 64.9564 236.553 64.9564C236.87 64.9564 237.139 64.8648 237.36 64.6816C237.58 64.4984 237.729 64.2265 237.807 63.866ZM242.23 61.0831H242.797V63.5591C242.797 63.9898 242.748 64.3318 242.651 64.5851C242.553 64.8385 242.377 65.0451 242.122 65.2049C241.868 65.3627 241.535 65.4416 241.122 65.4416C240.72 65.4416 240.392 65.3725 240.137 65.2341C239.881 65.0957 239.699 64.896 239.59 64.6348C239.481 64.3717 239.426 64.0131 239.426 63.5591V61.0831H239.994V63.5561C239.994 63.9284 240.028 64.2032 240.096 64.3805C240.166 64.5559 240.285 64.6913 240.452 64.7868C240.622 64.8823 240.829 64.9301 241.072 64.9301C241.489 64.9301 241.786 64.8356 241.964 64.6465C242.141 64.4575 242.23 64.094 242.23 63.5561V61.0831ZM244.095 65.3686V61.0831H245.995C246.377 61.0831 246.667 61.122 246.866 61.2C247.065 61.276 247.224 61.4114 247.343 61.6063C247.462 61.8012 247.521 62.0166 247.521 62.2524C247.521 62.5564 247.423 62.8127 247.226 63.0212C247.029 63.2297 246.725 63.3622 246.314 63.4187C246.464 63.4909 246.578 63.562 246.656 63.6321C246.821 63.7842 246.978 63.9742 247.126 64.2022L247.872 65.3686H247.159L246.591 64.477C246.426 64.2197 246.289 64.0229 246.182 63.8865C246.075 63.75 245.978 63.6546 245.893 63.6C245.809 63.5454 245.723 63.5074 245.635 63.486C245.571 63.4723 245.466 63.4655 245.32 63.4655H244.662V65.3686H244.095ZM244.662 62.9744H245.881C246.14 62.9744 246.343 62.9481 246.489 62.8955C246.635 62.8409 246.746 62.7552 246.822 62.6382C246.898 62.5194 246.936 62.3907 246.936 62.2524C246.936 62.0497 246.862 61.8831 246.714 61.7525C246.568 61.6219 246.336 61.5566 246.018 61.5566H244.662V62.9744ZM248.763 65.3686V61.0831H250.664C251.046 61.0831 251.336 61.122 251.535 61.2C251.734 61.276 251.892 61.4114 252.011 61.6063C252.13 61.8012 252.19 62.0166 252.19 62.2524C252.19 62.5564 252.091 62.8127 251.894 63.0212C251.697 63.2297 251.393 63.3622 250.982 63.4187C251.132 63.4909 251.246 63.562 251.324 63.6321C251.49 63.7842 251.647 63.9742 251.795 64.2022L252.54 65.3686H251.827L251.26 64.477C251.094 64.2197 250.958 64.0229 250.851 63.8865C250.743 63.75 250.647 63.6546 250.561 63.6C250.477 63.5454 250.392 63.5074 250.304 63.486C250.24 63.4723 250.134 63.4655 249.988 63.4655H249.331V65.3686H248.763ZM249.331 62.9744H250.55C250.809 62.9744 251.011 62.9481 251.158 62.8955C251.304 62.8409 251.415 62.7552 251.491 62.6382C251.567 62.5194 251.605 62.3907 251.605 62.2524C251.605 62.0497 251.531 61.8831 251.383 61.7525C251.237 61.6219 251.005 61.5566 250.687 61.5566H249.331V62.9744ZM253.435 65.3686V61.0831H256.534V61.5888H254.002V62.9013H256.373V63.4041H254.002V64.8628H256.633V65.3686H253.435ZM257.753 65.3686V61.0831H258.334L260.585 64.4477V61.0831H261.129V65.3686H260.547L258.296 62.001V65.3686H257.753ZM265.485 63.866L266.052 64.0092C265.933 64.475 265.719 64.8307 265.409 65.0762C265.101 65.3198 264.724 65.4416 264.277 65.4416C263.816 65.4416 263.439 65.3481 263.149 65.161C262.861 64.972 262.64 64.6991 262.488 64.3425C262.338 63.9859 262.263 63.6029 262.263 63.1937C262.263 62.7474 262.348 62.3586 262.518 62.0273C262.689 61.694 262.932 61.4416 263.246 61.2701C263.561 61.0967 263.908 61.01 264.286 61.01C264.715 61.01 265.076 61.1191 265.368 61.3374C265.66 61.5557 265.864 61.8626 265.979 62.2582L265.42 62.3898C265.321 62.0779 265.177 61.8509 264.988 61.7086C264.799 61.5664 264.561 61.4952 264.275 61.4952C263.945 61.4952 263.669 61.5742 263.447 61.732C263.227 61.8899 263.072 62.1023 262.982 62.3693C262.893 62.6343 262.848 62.9081 262.848 63.1907C262.848 63.5552 262.901 63.8738 263.006 64.1466C263.113 64.4175 263.279 64.6202 263.503 64.7547C263.727 64.8891 263.97 64.9564 264.231 64.9564C264.548 64.9564 264.817 64.8648 265.038 64.6816C265.258 64.4984 265.407 64.2265 265.485 63.866ZM268.303 65.3686V63.5532L266.651 61.0831H267.341L268.186 62.3751C268.342 62.6168 268.487 62.8585 268.622 63.1001C268.75 62.876 268.906 62.6236 269.089 62.343L269.919 61.0831H270.58L268.87 63.5532V65.3686H268.303Z" fill="#0F0F19"/>
</g>
<defs>
<filter id="filter0_ddddiii_4117_19513" x="81.2493" y="25.3905" width="162.5" height="206.172" filterUnits="userSpaceOnUse" color-interpolation-filters="sRGB">
<feFlood flood-opacity="0" result="BackgroundImageFix"/>
<feColorMatrix in="SourceAlpha" type="matrix" values="0 0 0 0 0 0 0 0 0 0 0 0 0 0 0 0 0 0 127 0" result="hardAlpha"/>
<feOffset dy="1.35417"/>
<feGaussianBlur stdDeviation="0.677083"/>
<feComposite in2="hardAlpha" operator="out"/>
<feColorMatrix type="matrix" values="0 0 0 0 0 0 0 0 0 0 0 0 0 0 0 0 0 0 0.04 0"/>
<feBlend mode="normal" in2="BackgroundImageFix" result="effect1_dropShadow_4117_19513"/>
<feColorMatrix in="SourceAlpha" type="matrix" values="0 0 0 0 0 0 0 0 0 0 0 0 0 0 0 0 0 0 127 0" result="hardAlpha"/>
<feOffset dy="2.03125"/>
<feGaussianBlur stdDeviation="1.01562"/>
<feComposite in2="hardAlpha" operator="out"/>
<feColorMatrix type="matrix" values="0 0 0 0 0.105882 0 0 0 0 0.105882 0 0 0 0 0.105882 0 0 0 0.03 0"/>
<feBlend mode="normal" in2="effect1_dropShadow_4117_19513" result="effect2_dropShadow_4117_19513"/>
<feColorMatrix in="SourceAlpha" type="matrix" values="0 0 0 0 0 0 0 0 0 0 0 0 0 0 0 0 0 0 127 0" result="hardAlpha"/>
<feOffset dy="2.70833"/>
<feGaussianBlur stdDeviation="1.35417"/>
<feComposite in2="hardAlpha" operator="out"/>
<feColorMatrix type="matrix" values="0 0 0 0 0 0 0 0 0 0 0 0 0 0 0 0 0 0 0.03 0"/>
<feBlend mode="normal" in2="effect2_dropShadow_4117_19513" result="effect3_dropShadow_4117_19513"/>
<feColorMatrix in="SourceAlpha" type="matrix" values="0 0 0 0 0 0 0 0 0 0 0 0 0 0 0 0 0 0 127 0" result="hardAlpha"/>
<feOffset dy="5.41667"/>
<feGaussianBlur stdDeviation="2.70833"/>
<feComposite in2="hardAlpha" operator="out"/>
<feColorMatrix type="matrix" values="0 0 0 0 0 0 0 0 0 0 0 0 0 0 0 0 0 0 0.02 0"/>
<feBlend mode="normal" in2="effect3_dropShadow_4117_19513" result="effect4_dropShadow_4117_19513"/>
<feBlend mode="normal" in="SourceGraphic" in2="effect4_dropShadow_4117_19513" result="shape"/>
<feColorMatrix in="SourceAlpha" type="matrix" values="0 0 0 0 0 0 0 0 0 0 0 0 0 0 0 0 0 0 127 0" result="hardAlpha"/>
<feOffset/>
<feGaussianBlur stdDeviation="1.35417"/>
<feComposite in2="hardAlpha" operator="arithmetic" k2="-1" k3="1"/>
<feColorMatrix type="matrix" values="0 0 0 0 0 0 0 0 0 0 0 0 0 0 0 0 0 0 0.04 0"/>
<feBlend mode="normal" in2="shape" result="effect5_innerShadow_4117_19513"/>
<feColorMatrix in="SourceAlpha" type="matrix" values="0 0 0 0 0 0 0 0 0 0 0 0 0 0 0 0 0 0 127 0" result="hardAlpha"/>
<feOffset dy="0.338542"/>
<feGaussianBlur stdDeviation="0.338542"/>
<feComposite in2="hardAlpha" operator="arithmetic" k2="-1" k3="1"/>
<feColorMatrix type="matrix" values="0 0 0 0 0 0 0 0 0 0 0 0 0 0 0 0 0 0 0.06 0"/>
<feBlend mode="normal" in2="effect5_innerShadow_4117_19513" result="effect6_innerShadow_4117_19513"/>
<feColorMatrix in="SourceAlpha" type="matrix" values="0 0 0 0 0 0 0 0 0 0 0 0 0 0 0 0 0 0 127 0" result="hardAlpha"/>
<feOffset dy="-0.677083"/>
<feGaussianBlur stdDeviation="0.169271"/>
<feComposite in2="hardAlpha" operator="arithmetic" k2="-1" k3="1"/>
<feColorMatrix type="matrix" values="0 0 0 0 0 0 0 0 0 0 0 0 0 0 0 0 0 0 0.04 0"/>
<feBlend mode="normal" in2="effect6_innerShadow_4117_19513" result="effect7_innerShadow_4117_19513"/>
</filter>
<filter id="filter1_dddddddii_4117_19513" x="130.677" y="188.229" width="118.49" height="65" filterUnits="userSpaceOnUse" color-interpolation-filters="sRGB">
<feFlood flood-opacity="0" result="BackgroundImageFix"/>
<feColorMatrix in="SourceAlpha" type="matrix" values="0 0 0 0 0 0 0 0 0 0 0 0 0 0 0 0 0 0 127 0" result="hardAlpha"/>
<feOffset dy="0.677083"/>
<feGaussianBlur stdDeviation="0.338542"/>
<feComposite in2="hardAlpha" operator="out"/>
<feColorMatrix type="matrix" values="0 0 0 0 0.105882 0 0 0 0 0.105882 0 0 0 0 0.105882 0 0 0 0.12 0"/>
<feBlend mode="normal" in2="BackgroundImageFix" result="effect1_dropShadow_4117_19513"/>
<feColorMatrix in="SourceAlpha" type="matrix" values="0 0 0 0 0 0 0 0 0 0 0 0 0 0 0 0 0 0 127 0" result="hardAlpha"/>
<feOffset dy="1.35417"/>
<feGaussianBlur stdDeviation="0.677083"/>
<feComposite in2="hardAlpha" operator="out"/>
<feColorMatrix type="matrix" values="0 0 0 0 0.105882 0 0 0 0 0.105882 0 0 0 0 0.105882 0 0 0 0.12 0"/>
<feBlend mode="normal" in2="effect1_dropShadow_4117_19513" result="effect2_dropShadow_4117_19513"/>
<feColorMatrix in="SourceAlpha" type="matrix" values="0 0 0 0 0 0 0 0 0 0 0 0 0 0 0 0 0 0 127 0" result="hardAlpha"/>
<feOffset dy="2.03125"/>
<feGaussianBlur stdDeviation="1.01562"/>
<feComposite in2="hardAlpha" operator="out"/>
<feColorMatrix type="matrix" values="0 0 0 0 0.105882 0 0 0 0 0.105882 0 0 0 0 0.105882 0 0 0 0.12 0"/>
<feBlend mode="normal" in2="effect2_dropShadow_4117_19513" result="effect3_dropShadow_4117_19513"/>
<feColorMatrix in="SourceAlpha" type="matrix" values="0 0 0 0 0 0 0 0 0 0 0 0 0 0 0 0 0 0 127 0" result="hardAlpha"/>
<feOffset dy="2.70833"/>
<feGaussianBlur stdDeviation="1.35417"/>
<feComposite in2="hardAlpha" operator="out"/>
<feColorMatrix type="matrix" values="0 0 0 0 0.105882 0 0 0 0 0.105882 0 0 0 0 0.105882 0 0 0 0.12 0"/>
<feBlend mode="normal" in2="effect3_dropShadow_4117_19513" result="effect4_dropShadow_4117_19513"/>
<feColorMatrix in="SourceAlpha" type="matrix" values="0 0 0 0 0 0 0 0 0 0 0 0 0 0 0 0 0 0 127 0" result="hardAlpha"/>
<feOffset dy="5.41667"/>
<feGaussianBlur stdDeviation="2.70833"/>
<feComposite in2="hardAlpha" operator="out"/>
<feColorMatrix type="matrix" values="0 0 0 0 0.105882 0 0 0 0 0.105882 0 0 0 0 0.105882 0 0 0 0.12 0"/>
<feBlend mode="normal" in2="effect4_dropShadow_4117_19513" result="effect5_dropShadow_4117_19513"/>
<feColorMatrix in="SourceAlpha" type="matrix" values="0 0 0 0 0 0 0 0 0 0 0 0 0 0 0 0 0 0 127 0" result="hardAlpha"/>
<feOffset dy="10.8333"/>
<feGaussianBlur stdDeviation="5.41667"/>
<feComposite in2="hardAlpha" operator="out"/>
<feColorMatrix type="matrix" values="0 0 0 0 0.105882 0 0 0 0 0.105882 0 0 0 0 0.105882 0 0 0 0.12 0"/>
<feBlend mode="normal" in2="effect5_dropShadow_4117_19513" result="effect6_dropShadow_4117_19513"/>
<feColorMatrix in="SourceAlpha" type="matrix" values="0 0 0 0 0 0 0 0 0 0 0 0 0 0 0 0 0 0 127 0" result="hardAlpha"/>
<feOffset dy="21.6667"/>
<feGaussianBlur stdDeviation="10.8333"/>
<feComposite in2="hardAlpha" operator="out"/>
<feColorMatrix type="matrix" values="0 0 0 0 0.105882 0 0 0 0 0.105882 0 0 0 0 0.105882 0 0 0 0.12 0"/>
<feBlend mode="normal" in2="effect6_dropShadow_4117_19513" result="effect7_dropShadow_4117_19513"/>
<feBlend mode="normal" in="SourceGraphic" in2="effect7_dropShadow_4117_19513" result="shape"/>
<feColorMatrix in="SourceAlpha" type="matrix" values="0 0 0 0 0 0 0 0 0 0 0 0 0 0 0 0 0 0 127 0" result="hardAlpha"/>
<feOffset dy="0.338542"/>
<feGaussianBlur stdDeviation="0.169271"/>
<feComposite in2="hardAlpha" operator="arithmetic" k2="-1" k3="1"/>
<feColorMatrix type="matrix" values="0 0 0 0 1 0 0 0 0 1 0 0 0 0 1 0 0 0 0.1 0"/>
<feBlend mode="normal" in2="shape" result="effect8_innerShadow_4117_19513"/>
<feColorMatrix in="SourceAlpha" type="matrix" values="0 0 0 0 0 0 0 0 0 0 0 0 0 0 0 0 0 0 127 0" result="hardAlpha"/>
<feOffset dy="0.677083"/>
<feGaussianBlur stdDeviation="0.677083"/>
<feComposite in2="hardAlpha" operator="arithmetic" k2="-1" k3="1"/>
<feColorMatrix type="matrix" values="0 0 0 0 1 0 0 0 0 1 0 0 0 0 1 0 0 0 0.04 0"/>
<feBlend mode="normal" in2="effect8_innerShadow_4117_19513" result="effect9_innerShadow_4117_19513"/>
</filter>
<filter id="filter2_dddd_4117_19513" x="92.0833" y="92.0833" width="94.7913" height="29.1146" filterUnits="userSpaceOnUse" color-interpolation-filters="sRGB">
<feFlood flood-opacity="0" result="BackgroundImageFix"/>
<feColorMatrix in="SourceAlpha" type="matrix" values="0 0 0 0 0 0 0 0 0 0 0 0 0 0 0 0 0 0 127 0" result="hardAlpha"/>
<feOffset dy="0.677083"/>
<feGaussianBlur stdDeviation="1.01562"/>
<feColorMatrix type="matrix" values="0 0 0 0 0.843137 0 0 0 0 1 0 0 0 0 0.321569 0 0 0 0.12 0"/>
<feBlend mode="normal" in2="BackgroundImageFix" result="effect1_dropShadow_4117_19513"/>
<feColorMatrix in="SourceAlpha" type="matrix" values="0 0 0 0 0 0 0 0 0 0 0 0 0 0 0 0 0 0 127 0" result="hardAlpha"/>
<feOffset dy="3.38542"/>
<feGaussianBlur stdDeviation="1.69271"/>
<feColorMatrix type="matrix" values="0 0 0 0 0.843137 0 0 0 0 1 0 0 0 0 0.321569 0 0 0 0.1 0"/>
<feBlend mode="normal" in2="effect1_dropShadow_4117_19513" result="effect2_dropShadow_4117_19513"/>
<feColorMatrix in="SourceAlpha" type="matrix" values="0 0 0 0 0 0 0 0 0 0 0 0 0 0 0 0 0 0 127 0" result="hardAlpha"/>
<feOffset dy="8.125"/>
<feGaussianBlur stdDeviation="2.36979"/>
<feColorMatrix type="matrix" values="0 0 0 0 0.843137 0 0 0 0 1 0 0 0 0 0.321569 0 0 0 0.06 0"/>
<feBlend mode="normal" in2="effect2_dropShadow_4117_19513" result="effect3_dropShadow_4117_19513"/>
<feColorMatrix in="SourceAlpha" type="matrix" values="0 0 0 0 0 0 0 0 0 0 0 0 0 0 0 0 0 0 127 0" result="hardAlpha"/>
<feOffset dy="14.2188"/>
<feGaussianBlur stdDeviation="2.70833"/>
<feColorMatrix type="matrix" values="0 0 0 0 0.843137 0 0 0 0 1 0 0 0 0 0.321569 0 0 0 0.02 0"/>
<feBlend mode="normal" in2="effect3_dropShadow_4117_19513" result="effect4_dropShadow_4117_19513"/>
<feBlend mode="normal" in="SourceGraphic" in2="effect4_dropShadow_4117_19513" result="shape"/>
</filter>
<filter id="filter3_dddd_4117_19513" x="178.749" y="92.0833" width="54.1663" height="29.1146" filterUnits="userSpaceOnUse" color-interpolation-filters="sRGB">
<feFlood flood-opacity="0" result="BackgroundImageFix"/>
<feColorMatrix in="SourceAlpha" type="matrix" values="0 0 0 0 0 0 0 0 0 0 0 0 0 0 0 0 0 0 127 0" result="hardAlpha"/>
<feOffset dy="0.677083"/>
<feGaussianBlur stdDeviation="1.01562"/>
<feColorMatrix type="matrix" values="0 0 0 0 0.631373 0 0 0 0 0.647059 0 0 0 0 0.647059 0 0 0 0.12 0"/>
<feBlend mode="normal" in2="BackgroundImageFix" result="effect1_dropShadow_4117_19513"/>
<feColorMatrix in="SourceAlpha" type="matrix" values="0 0 0 0 0 0 0 0 0 0 0 0 0 0 0 0 0 0 127 0" result="hardAlpha"/>
<feOffset dy="3.38542"/>
<feGaussianBlur stdDeviation="1.69271"/>
<feColorMatrix type="matrix" values="0 0 0 0 0.631373 0 0 0 0 0.647059 0 0 0 0 0.647059 0 0 0 0.1 0"/>
<feBlend mode="normal" in2="effect1_dropShadow_4117_19513" result="effect2_dropShadow_4117_19513"/>
<feColorMatrix in="SourceAlpha" type="matrix" values="0 0 0 0 0 0 0 0 0 0 0 0 0 0 0 0 0 0 127 0" result="hardAlpha"/>
<feOffset dy="8.125"/>
<feGaussianBlur stdDeviation="2.36979"/>
<feColorMatrix type="matrix" values="0 0 0 0 0.631373 0 0 0 0 0.647059 0 0 0 0 0.647059 0 0 0 0.06 0"/>
<feBlend mode="normal" in2="effect2_dropShadow_4117_19513" result="effect3_dropShadow_4117_19513"/>
<feColorMatrix in="SourceAlpha" type="matrix" values="0 0 0 0 0 0 0 0 0 0 0 0 0 0 0 0 0 0 127 0" result="hardAlpha"/>
<feOffset dy="14.2188"/>
<feGaussianBlur stdDeviation="2.70833"/>
<feColorMatrix type="matrix" values="0 0 0 0 0.631373 0 0 0 0 0.647059 0 0 0 0 0.647059 0 0 0 0.02 0"/>
<feBlend mode="normal" in2="effect3_dropShadow_4117_19513" result="effect4_dropShadow_4117_19513"/>
<feBlend mode="normal" in="SourceGraphic" in2="effect4_dropShadow_4117_19513" result="shape"/>
</filter>
<filter id="filter4_dddd_4117_19513" x="92.0833" y="140.156" width="13.5413" height="23.6979" filterUnits="userSpaceOnUse" color-interpolation-filters="sRGB">
<feFlood flood-opacity="0" result="BackgroundImageFix"/>
<feColorMatrix in="SourceAlpha" type="matrix" values="0 0 0 0 0 0 0 0 0 0 0 0 0 0 0 0 0 0 127 0" result="hardAlpha"/>
<feOffset dy="0.677083"/>
<feGaussianBlur stdDeviation="1.01562"/>
<feColorMatrix type="matrix" values="0 0 0 0 0.631373 0 0 0 0 0.647059 0 0 0 0 0.647059 0 0 0 0.12 0"/>
<feBlend mode="normal" in2="BackgroundImageFix" result="effect1_dropShadow_4117_19513"/>
<feColorMatrix in="SourceAlpha" type="matrix" values="0 0 0 0 0 0 0 0 0 0 0 0 0 0 0 0 0 0 127 0" result="hardAlpha"/>
<feOffset dy="3.38542"/>
<feGaussianBlur stdDeviation="1.69271"/>
<feColorMatrix type="matrix" values="0 0 0 0 0.631373 0 0 0 0 0.647059 0 0 0 0 0.647059 0 0 0 0.1 0"/>
<feBlend mode="normal" in2="effect1_dropShadow_4117_19513" result="effect2_dropShadow_4117_19513"/>
<feColorMatrix in="SourceAlpha" type="matrix" values="0 0 0 0 0 0 0 0 0 0 0 0 0 0 0 0 0 0 127 0" result="hardAlpha"/>
<feOffset dy="8.125"/>
<feGaussianBlur stdDeviation="2.36979"/>
<feColorMatrix type="matrix" values="0 0 0 0 0.631373 0 0 0 0 0.647059 0 0 0 0 0.647059 0 0 0 0.06 0"/>
<feBlend mode="normal" in2="effect2_dropShadow_4117_19513" result="effect3_dropShadow_4117_19513"/>
<feColorMatrix in="SourceAlpha" type="matrix" values="0 0 0 0 0 0 0 0 0 0 0 0 0 0 0 0 0 0 127 0" result="hardAlpha"/>
<feOffset dy="14.2188"/>
<feGaussianBlur stdDeviation="2.70833"/>
<feColorMatrix type="matrix" values="0 0 0 0 0.631373 0 0 0 0 0.647059 0 0 0 0 0.647059 0 0 0 0.02 0"/>
<feBlend mode="normal" in2="effect3_dropShadow_4117_19513" result="effect4_dropShadow_4117_19513"/>
<feBlend mode="normal" in="SourceGraphic" in2="effect4_dropShadow_4117_19513" result="shape"/>
</filter>
<filter id="filter5_ddddiii_4117_19513" x="16.2493" y="160.808" width="70.4163" height="70.7552" filterUnits="userSpaceOnUse" color-interpolation-filters="sRGB">
<feFlood flood-opacity="0" result="BackgroundImageFix"/>
<feColorMatrix in="SourceAlpha" type="matrix" values="0 0 0 0 0 0 0 0 0 0 0 0 0 0 0 0 0 0 127 0" result="hardAlpha"/>
<feOffset dy="1.35417"/>
<feGaussianBlur stdDeviation="0.677083"/>
<feComposite in2="hardAlpha" operator="out"/>
<feColorMatrix type="matrix" values="0 0 0 0 0 0 0 0 0 0 0 0 0 0 0 0 0 0 0.04 0"/>
<feBlend mode="normal" in2="BackgroundImageFix" result="effect1_dropShadow_4117_19513"/>
<feColorMatrix in="SourceAlpha" type="matrix" values="0 0 0 0 0 0 0 0 0 0 0 0 0 0 0 0 0 0 127 0" result="hardAlpha"/>
<feOffset dy="2.03125"/>
<feGaussianBlur stdDeviation="1.01562"/>
<feComposite in2="hardAlpha" operator="out"/>
<feColorMatrix type="matrix" values="0 0 0 0 0.105882 0 0 0 0 0.105882 0 0 0 0 0.105882 0 0 0 0.03 0"/>
<feBlend mode="normal" in2="effect1_dropShadow_4117_19513" result="effect2_dropShadow_4117_19513"/>
<feColorMatrix in="SourceAlpha" type="matrix" values="0 0 0 0 0 0 0 0 0 0 0 0 0 0 0 0 0 0 127 0" result="hardAlpha"/>
<feOffset dy="2.70833"/>
<feGaussianBlur stdDeviation="1.35417"/>
<feComposite in2="hardAlpha" operator="out"/>
<feColorMatrix type="matrix" values="0 0 0 0 0 0 0 0 0 0 0 0 0 0 0 0 0 0 0.03 0"/>
<feBlend mode="normal" in2="effect2_dropShadow_4117_19513" result="effect3_dropShadow_4117_19513"/>
<feColorMatrix in="SourceAlpha" type="matrix" values="0 0 0 0 0 0 0 0 0 0 0 0 0 0 0 0 0 0 127 0" result="hardAlpha"/>
<feOffset dy="5.41667"/>
<feGaussianBlur stdDeviation="2.70833"/>
<feComposite in2="hardAlpha" operator="out"/>
<feColorMatrix type="matrix" values="0 0 0 0 0 0 0 0 0 0 0 0 0 0 0 0 0 0 0.02 0"/>
<feBlend mode="normal" in2="effect3_dropShadow_4117_19513" result="effect4_dropShadow_4117_19513"/>
<feBlend mode="normal" in="SourceGraphic" in2="effect4_dropShadow_4117_19513" result="shape"/>
<feColorMatrix in="SourceAlpha" type="matrix" values="0 0 0 0 0 0 0 0 0 0 0 0 0 0 0 0 0 0 127 0" result="hardAlpha"/>
<feOffset/>
<feGaussianBlur stdDeviation="1.35417"/>
<feComposite in2="hardAlpha" operator="arithmetic" k2="-1" k3="1"/>
<feColorMatrix type="matrix" values="0 0 0 0 0 0 0 0 0 0 0 0 0 0 0 0 0 0 0.04 0"/>
<feBlend mode="normal" in2="shape" result="effect5_innerShadow_4117_19513"/>
<feColorMatrix in="SourceAlpha" type="matrix" values="0 0 0 0 0 0 0 0 0 0 0 0 0 0 0 0 0 0 127 0" result="hardAlpha"/>
<feOffset dy="0.338542"/>
<feGaussianBlur stdDeviation="0.338542"/>
<feComposite in2="hardAlpha" operator="arithmetic" k2="-1" k3="1"/>
<feColorMatrix type="matrix" values="0 0 0 0 0 0 0 0 0 0 0 0 0 0 0 0 0 0 0.06 0"/>
<feBlend mode="normal" in2="effect5_innerShadow_4117_19513" result="effect6_innerShadow_4117_19513"/>
<feColorMatrix in="SourceAlpha" type="matrix" values="0 0 0 0 0 0 0 0 0 0 0 0 0 0 0 0 0 0 127 0" result="hardAlpha"/>
<feOffset dy="-0.677083"/>
<feGaussianBlur stdDeviation="0.169271"/>
<feComposite in2="hardAlpha" operator="arithmetic" k2="-1" k3="1"/>
<feColorMatrix type="matrix" values="0 0 0 0 0 0 0 0 0 0 0 0 0 0 0 0 0 0 0.04 0"/>
<feBlend mode="normal" in2="effect6_innerShadow_4117_19513" result="effect7_innerShadow_4117_19513"/>
</filter>
<filter id="filter6_ddddiii_4117_19513" x="16.2493" y="95.8075" width="70.4163" height="70.7552" filterUnits="userSpaceOnUse" color-interpolation-filters="sRGB">
<feFlood flood-opacity="0" result="BackgroundImageFix"/>
<feColorMatrix in="SourceAlpha" type="matrix" values="0 0 0 0 0 0 0 0 0 0 0 0 0 0 0 0 0 0 127 0" result="hardAlpha"/>
<feOffset dy="1.35417"/>
<feGaussianBlur stdDeviation="0.677083"/>
<feComposite in2="hardAlpha" operator="out"/>
<feColorMatrix type="matrix" values="0 0 0 0 0 0 0 0 0 0 0 0 0 0 0 0 0 0 0.04 0"/>
<feBlend mode="normal" in2="BackgroundImageFix" result="effect1_dropShadow_4117_19513"/>
<feColorMatrix in="SourceAlpha" type="matrix" values="0 0 0 0 0 0 0 0 0 0 0 0 0 0 0 0 0 0 127 0" result="hardAlpha"/>
<feOffset dy="2.03125"/>
<feGaussianBlur stdDeviation="1.01562"/>
<feComposite in2="hardAlpha" operator="out"/>
<feColorMatrix type="matrix" values="0 0 0 0 0.105882 0 0 0 0 0.105882 0 0 0 0 0.105882 0 0 0 0.03 0"/>
<feBlend mode="normal" in2="effect1_dropShadow_4117_19513" result="effect2_dropShadow_4117_19513"/>
<feColorMatrix in="SourceAlpha" type="matrix" values="0 0 0 0 0 0 0 0 0 0 0 0 0 0 0 0 0 0 127 0" result="hardAlpha"/>
<feOffset dy="2.70833"/>
<feGaussianBlur stdDeviation="1.35417"/>
<feComposite in2="hardAlpha" operator="out"/>
<feColorMatrix type="matrix" values="0 0 0 0 0 0 0 0 0 0 0 0 0 0 0 0 0 0 0.03 0"/>
<feBlend mode="normal" in2="effect2_dropShadow_4117_19513" result="effect3_dropShadow_4117_19513"/>
<feColorMatrix in="SourceAlpha" type="matrix" values="0 0 0 0 0 0 0 0 0 0 0 0 0 0 0 0 0 0 127 0" result="hardAlpha"/>
<feOffset dy="5.41667"/>
<feGaussianBlur stdDeviation="2.70833"/>
<feComposite in2="hardAlpha" operator="out"/>
<feColorMatrix type="matrix" values="0 0 0 0 0 0 0 0 0 0 0 0 0 0 0 0 0 0 0.02 0"/>
<feBlend mode="normal" in2="effect3_dropShadow_4117_19513" result="effect4_dropShadow_4117_19513"/>
<feBlend mode="normal" in="SourceGraphic" in2="effect4_dropShadow_4117_19513" result="shape"/>
<feColorMatrix in="SourceAlpha" type="matrix" values="0 0 0 0 0 0 0 0 0 0 0 0 0 0 0 0 0 0 127 0" result="hardAlpha"/>
<feOffset/>
<feGaussianBlur stdDeviation="1.35417"/>
<feComposite in2="hardAlpha" operator="arithmetic" k2="-1" k3="1"/>
<feColorMatrix type="matrix" values="0 0 0 0 0 0 0 0 0 0 0 0 0 0 0 0 0 0 0.04 0"/>
<feBlend mode="normal" in2="shape" result="effect5_innerShadow_4117_19513"/>
<feColorMatrix in="SourceAlpha" type="matrix" values="0 0 0 0 0 0 0 0 0 0 0 0 0 0 0 0 0 0 127 0" result="hardAlpha"/>
<feOffset dy="0.338542"/>
<feGaussianBlur stdDeviation="0.338542"/>
<feComposite in2="hardAlpha" operator="arithmetic" k2="-1" k3="1"/>
<feColorMatrix type="matrix" values="0 0 0 0 0 0 0 0 0 0 0 0 0 0 0 0 0 0 0.06 0"/>
<feBlend mode="normal" in2="effect5_innerShadow_4117_19513" result="effect6_innerShadow_4117_19513"/>
<feColorMatrix in="SourceAlpha" type="matrix" values="0 0 0 0 0 0 0 0 0 0 0 0 0 0 0 0 0 0 127 0" result="hardAlpha"/>
<feOffset dy="-0.677083"/>
<feGaussianBlur stdDeviation="0.169271"/>
<feComposite in2="hardAlpha" operator="arithmetic" k2="-1" k3="1"/>
<feColorMatrix type="matrix" values="0 0 0 0 0 0 0 0 0 0 0 0 0 0 0 0 0 0 0.04 0"/>
<feBlend mode="normal" in2="effect6_innerShadow_4117_19513" result="effect7_innerShadow_4117_19513"/>
</filter>
<filter id="filter7_d_4117_19513" x="41.0512" y="176.764" width="78.2824" height="20.3119" filterUnits="userSpaceOnUse" color-interpolation-filters="sRGB">
<feFlood flood-opacity="0" result="BackgroundImageFix"/>
<feColorMatrix in="SourceAlpha" type="matrix" values="0 0 0 0 0 0 0 0 0 0 0 0 0 0 0 0 0 0 127 0" result="hardAlpha"/>
<feOffset dy="1.71053"/>
<feGaussianBlur stdDeviation="0.855263"/>
<feComposite in2="hardAlpha" operator="out"/>
<feColorMatrix type="matrix" values="0 0 0 0 0 0 0 0 0 0 0 0 0 0 0 0 0 0 0.15 0"/>
<feBlend mode="normal" in2="BackgroundImageFix" result="effect1_dropShadow_4117_19513"/>
<feBlend mode="normal" in="SourceGraphic" in2="effect1_dropShadow_4117_19513" result="shape"/>
</filter>
<filter id="filter8_d_4117_19513" x="178.323" y="33.9343" width="118.881" height="59.8684" filterUnits="userSpaceOnUse" color-interpolation-filters="sRGB">
<feFlood flood-opacity="0" result="BackgroundImageFix"/>
<feColorMatrix in="SourceAlpha" type="matrix" values="0 0 0 0 0 0 0 0 0 0 0 0 0 0 0 0 0 0 127 0" result="hardAlpha"/>
<feOffset dy="1.71053"/>
<feGaussianBlur stdDeviation="0.855263"/>
<feComposite in2="hardAlpha" operator="out"/>
<feColorMatrix type="matrix" values="0 0 0 0 0 0 0 0 0 0 0 0 0 0 0 0 0 0 0.15 0"/>
<feBlend mode="normal" in2="BackgroundImageFix" result="effect1_dropShadow_4117_19513"/>
<feBlend mode="normal" in="SourceGraphic" in2="effect1_dropShadow_4117_19513" result="shape"/>
</filter>
<linearGradient id="paint0_linear_4117_19513" x1="152.344" y1="188.229" x2="152.344" y2="209.896" gradientUnits="userSpaceOnUse">
<stop stop-color="#091315"/>
<stop offset="1" stop-color="#091315"/>
</linearGradient>
<linearGradient id="paint1_linear_4117_19513" x1="189.922" y1="188.229" x2="189.922" y2="209.896" gradientUnits="userSpaceOnUse">
<stop stop-color="white" stop-opacity="0"/>
<stop offset="1" stop-color="#555555"/>
</linearGradient>
<linearGradient id="paint2_linear_4117_19513" x1="189.92" y1="194.187" x2="189.92" y2="204.547" gradientUnits="userSpaceOnUse">
<stop stop-color="white" stop-opacity="0.96"/>
<stop offset="1" stop-color="white" stop-opacity="0.88"/>
</linearGradient>
<linearGradient id="paint3_linear_4117_19513" x1="162.501" y1="166.562" x2="162.501" y2="180.104" gradientUnits="userSpaceOnUse">
<stop stop-color="white" stop-opacity="0"/>
<stop offset="1" stop-color="white"/>
</linearGradient>
</defs>
</svg>
