<svg xmlns="http://www.w3.org/2000/svg" width="278" height="254" fill="none"><path fill="#FF91FA" d="M251.447 0H8.553A8.553 8.553 0 0 0 0 8.553v229.353a8.55 8.55 0 0 0 8.553 8.552h242.894a8.55 8.55 0 0 0 8.553-8.552V8.553A8.553 8.553 0 0 0 251.447 0"/><g filter="url(#a)"><path fill="#fff" d="M86.666 41.979c0-8.975 7.275-16.25 16.25-16.25h119.167c8.974 0 16.25 7.275 16.25 16.25v162.5c0 8.975-7.276 16.25-16.25 16.25H115.607a10.83 10.83 0 0 1-7.754-3.268l-18.108-18.556a10.84 10.84 0 0 1-3.079-7.566V41.979"/></g><path fill="#141515" d="M106.472 46.226q0 1.026-.375 1.763-.375.735-1.028 1.132a2.8 2.8 0 0 1-1.479.393 2.8 2.8 0 0 1-1.485-.393 2.76 2.76 0 0 1-1.025-1.135q-.375-.737-.375-1.76 0-1.025.375-1.76.375-.738 1.025-1.131a2.8 2.8 0 0 1 1.485-.397 2.8 2.8 0 0 1 1.479.397q.653.394 1.028 1.131.375.735.375 1.76m-.956 0q0-.781-.253-1.316a1.86 1.86 0 0 0-.688-.812 1.8 1.8 0 0 0-.985-.279q-.553 0-.988.278-.434.276-.687.813-.25.535-.25 1.316 0 .78.25 1.32.253.533.687.812.435.275.988.275.55 0 .985-.275a1.9 1.9 0 0 0 .688-.813q.252-.537.253-1.319m6.192-1.6-1.74 4.8h-1l-1.745-4.8h1.003l1.216 3.694h.05l1.213-3.694zm2.785 4.898q-.71 0-1.223-.303a2.06 2.06 0 0 1-.787-.86q-.275-.555-.275-1.303 0-.739.275-1.3.277-.564.775-.88.5-.315 1.169-.315.406 0 .788.135.38.135.685.422a2 2 0 0 1 .478.747q.174.456.175 1.11v.33h-3.817v-.7h2.901q0-.368-.151-.653a1.13 1.13 0 0 0-.421-.453q-.27-.165-.631-.166-.395 0-.688.194a1.3 1.3 0 0 0-.451.5 1.45 1.45 0 0 0-.156.666v.547q0 .48.169.819.172.337.478.516.307.174.716.175.266 0 .485-.075a1.003 1.003 0 0 0 .621-.61l.885.16q-.107.39-.381.684-.272.291-.684.453a2.6 2.6 0 0 1-.935.16m3.097-.097v-4.801h.903v.762h.05q.131-.387.462-.61a1.33 1.33 0 0 1 .757-.224 4 4 0 0 1 .397.022v.894a2 2 0 0 0-.2-.035 2 2 0 0 0-.287-.022q-.332 0-.592.141a1.05 1.05 0 0 0-.556.94v2.933zm7.631-4.801-1.741 4.8h-1l-1.744-4.8h1.003l1.216 3.694h.05l1.212-3.694zm.878 4.8v-4.8h.935v4.8zm.473-5.541a.6.6 0 0 1-.419-.163.53.53 0 0 1-.172-.393.52.52 0 0 1 .172-.394.59.59 0 0 1 .419-.166q.243 0 .415.166.175.163.175.394a.52.52 0 0 1-.175.393.58.58 0 0 1-.415.163m3.789 5.639q-.71 0-1.222-.303a2.06 2.06 0 0 1-.789-.86q-.274-.555-.274-1.303 0-.739.274-1.3.28-.564.776-.88.5-.315 1.169-.315.407 0 .787.135.382.135.685.422t.479.747q.174.456.174 1.11v.33h-3.816v-.7h2.9a1.4 1.4 0 0 0-.149-.653 1.14 1.14 0 0 0-.422-.453q-.27-.165-.632-.166-.394 0-.687.194a1.3 1.3 0 0 0-.45.5 1.43 1.43 0 0 0-.157.666v.547q0 .48.169.819.172.337.478.516.306.174.716.175.266 0 .484-.075.219-.078.379-.232.159-.153.243-.378l.885.16q-.107.39-.381.684-.273.291-.685.453a2.6 2.6 0 0 1-.934.16m4.129-.097-1.413-4.801h.966l.941 3.526h.046l.944-3.526h.967l.937 3.51h.047l.934-3.51h.967l-1.41 4.8h-.954l-.975-3.466h-.072l-.975 3.467z"/><path fill="#8C9292" d="m220.72 49.428-.482-.476 1.982-1.981h-5.132v-.688h5.132l-1.982-1.976.482-.48 2.801 2.8z"/><g filter="url(#b)"><path fill="url(#c)" d="M216.667 188.229h-53.49c-5.983 0-10.833 4.851-10.833 10.834s4.85 10.833 10.833 10.833h53.49c5.983 0 10.833-4.85 10.833-10.833s-4.85-10.834-10.833-10.834"/><path fill="url(#d)" fill-opacity=".08" d="M216.667 188.229h-53.49c-5.983 0-10.833 4.851-10.833 10.834s4.85 10.833 10.833 10.833h53.49c5.983 0 10.833-4.85 10.833-10.833s-4.85-10.834-10.833-10.834"/><path fill="url(#e)" d="M167.789 195.862h.889v4.189q0 .568-.225.972a1.5 1.5 0 0 1-.627.618q-.403.21-.946.21-.5 0-.897-.181a1.5 1.5 0 0 1-.627-.528q-.227-.35-.227-.849h.886q0 .245.112.425a.8.8 0 0 0 .315.28q.202.098.462.098.282 0 .478-.119a.76.76 0 0 0 .303-.355q.105-.233.104-.571zm3.984 5.998q-.624 0-1.088-.286a1.9 1.9 0 0 1-.721-.799q-.257-.513-.257-1.2 0-.69.257-1.206.257-.517.721-.802t1.088-.286q.623 0 1.088.286.465.285.721.802.257.516.257 1.206 0 .687-.257 1.2a1.9 1.9 0 0 1-.721.799q-.465.286-1.088.286m.003-.724q.403 0 .669-.214a1.25 1.25 0 0 0 .393-.568q.13-.355.13-.782 0-.424-.13-.779a1.27 1.27 0 0 0-.393-.574 1.03 1.03 0 0 0-.669-.216 1.04 1.04 0 0 0-.675.216 1.3 1.3 0 0 0-.396.574 2.3 2.3 0 0 0-.127.779q0 .427.127.782.13.355.396.568.268.214.675.214m3.026.635v-4.432h.862v4.432zm.435-5.116a.55.55 0 0 1-.387-.15.5.5 0 0 1-.158-.364q0-.213.158-.363a.55.55 0 0 1 .387-.153q.225 0 .384.153.162.15.162.363a.48.48 0 0 1-.162.364.54.54 0 0 1-.384.15m2.45 2.485v2.631h-.862v-4.432h.828v.721h.055q.153-.352.479-.565.329-.214.828-.214.452 0 .794.191.34.187.527.559.188.373.188.921v2.819h-.863v-2.715q0-.482-.251-.753-.25-.274-.689-.274-.3 0-.534.13a.93.93 0 0 0-.367.38 1.3 1.3 0 0 0-.133.601m6.213-3.278h1.082l1.882 4.593h.069l1.881-4.593h1.082v5.909h-.848v-4.276h-.055l-1.742 4.267h-.705l-1.742-4.27h-.055v4.279h-.849zm9.133 5.998q-.655 0-1.128-.28a1.9 1.9 0 0 1-.727-.793q-.254-.514-.254-1.203 0-.682.254-1.201.257-.519.715-.81a2 2 0 0 1 1.08-.292q.374 0 .727.125.351.123.632.389.279.266.441.689.162.421.162 1.025v.306h-3.523v-.647h2.677q0-.34-.138-.603a1.06 1.06 0 0 0-.972-.571q-.365 0-.635.179a1.2 1.2 0 0 0-.416.462 1.3 1.3 0 0 0-.144.614v.505q0 .444.155.756.16.312.442.476.283.162.661.162.245 0 .447-.07a.927.927 0 0 0 .574-.563l.817.148q-.099.36-.352.632a1.7 1.7 0 0 1-.632.418 2.4 2.4 0 0 1-.863.147m4.769 0q-.655 0-1.128-.28a1.9 1.9 0 0 1-.728-.793q-.254-.514-.254-1.203 0-.682.254-1.201.258-.519.716-.81a2 2 0 0 1 1.079-.292q.376 0 .727.125.352.123.632.389t.442.689q.16.421.161 1.025v.306h-3.522v-.647h2.677q0-.34-.138-.603a1.06 1.06 0 0 0-.973-.571q-.363 0-.635.179a1.2 1.2 0 0 0-.415.462 1.3 1.3 0 0 0-.145.614v.505q0 .444.156.756.159.312.442.476.283.162.66.162.246 0 .448-.07a.927.927 0 0 0 .574-.563l.817.148q-.099.36-.352.632a1.7 1.7 0 0 1-.632.418q-.379.147-.863.147m4.927-4.521v.692h-2.42v-.692zm-1.772-1.062h.863v4.192q0 .252.075.378.075.124.194.171.12.042.263.043a1 1 0 0 0 .181-.015l.121-.023.156.713q-.075.029-.213.058a1.7 1.7 0 0 1-.347.034 1.5 1.5 0 0 1-.634-.121 1.1 1.1 0 0 1-.476-.392q-.183-.265-.183-.667zm2.726 5.494v-4.432h.863v4.432zm.436-5.116a.55.55 0 0 1-.386-.15.49.49 0 0 1-.159-.364.48.48 0 0 1 .159-.363.54.54 0 0 1 .386-.153q.225 0 .384.153.161.15.161.363a.48.48 0 0 1-.161.364.54.54 0 0 1-.384.15m2.451 2.485v2.631h-.863v-4.432h.828v.721h.054q.154-.352.48-.565.328-.214.828-.214.454 0 .793.191.34.187.529.559.187.373.187.921v2.819h-.863v-2.715q0-.482-.251-.753-.25-.274-.69-.274-.299 0-.533.13a.93.93 0 0 0-.366.38 1.26 1.26 0 0 0-.133.601m5.851 4.385q-.528 0-.909-.139a1.8 1.8 0 0 1-.618-.366 1.55 1.55 0 0 1-.357-.499l.741-.306q.078.127.208.269.133.143.358.245.228.1.585.101.491 0 .811-.24.321-.237.321-.756v-.871h-.055a2 2 0 0 1-.225.314 1.2 1.2 0 0 1-.398.3q-.254.127-.661.127a1.85 1.85 0 0 1-.946-.245 1.74 1.74 0 0 1-.664-.73q-.243-.484-.242-1.191 0-.708.239-1.212.242-.506.664-.773.42-.272.955-.272.412 0 .666.139.255.135.395.317.144.182.223.321h.063v-.719h.846v4.53q0 .57-.266.938a1.56 1.56 0 0 1-.718.542 2.8 2.8 0 0 1-1.016.176m-.009-2.536q.372 0 .629-.174.26-.175.392-.501.136-.33.136-.788 0-.447-.132-.788a1.2 1.2 0 0 0-.39-.531 1.03 1.03 0 0 0-.635-.193q-.39 0-.649.202a1.2 1.2 0 0 0-.392.542q-.13.343-.13.768 0 .436.133.765.132.328.392.513.262.185.646.185"/></g><path stroke="#000" stroke-dasharray="0.68 2.71" stroke-opacity=".2" stroke-width=".677" d="M227.5 61.276h-130"/><path fill="#141515" d="M99.89 84.02v-7.386h.474v7.386zm1.481-5.096a.85.85 0 0 0-.382-.634q-.333-.228-.842-.228-.363 0-.629.115a.96.96 0 0 0-.412.312.74.74 0 0 0-.144.447q0 .21.097.363a.9.9 0 0 0 .263.258q.165.1.352.17a4 4 0 0 0 .361.11l.577.15q.282.069.58.187.297.118.55.312.254.192.411.478.158.286.158.684 0 .502-.26.892-.257.39-.747.614-.487.226-1.18.226-.664 0-1.148-.211a1.8 1.8 0 0 1-.76-.597 1.73 1.73 0 0 1-.302-.924h.894a.9.9 0 0 0 .208.534q.185.21.47.315.288.1.632.1.378 0 .672-.118.298-.12.468-.334a.8.8 0 0 0 .17-.505.62.62 0 0 0-.15-.43 1.1 1.1 0 0 0-.401-.277 4 4 0 0 0-.568-.193l-.699-.191q-.71-.194-1.125-.568-.412-.375-.412-.993 0-.51.276-.892.278-.38.75-.59a2.6 2.6 0 0 1 1.068-.215q.6 0 1.059.21.462.212.728.581.264.368.276.842zm1.801 3.203v-.721l2.553-4.034h.569v1.062h-.361l-1.826 2.891v.046h3.5v.756zm2.801 1.154v-1.373l.006-.329v-4.206h.845v5.908zm4.636.081q-.621 0-1.097-.213a1.8 1.8 0 0 1-.742-.589 1.42 1.42 0 0 1-.265-.854 1.5 1.5 0 0 1 .583-1.218q.271-.214.606-.271v-.035a1.2 1.2 0 0 1-.707-.473 1.38 1.38 0 0 1-.263-.842 1.38 1.38 0 0 1 .24-.808q.244-.357.672-.563a2.2 2.2 0 0 1 .973-.205q.539 0 .963.208.427.205.673.563.244.355.247.805a1.4 1.4 0 0 1-.27.842q-.27.367-.699.473v.035q.331.058.598.271.268.21.426.528.162.315.165.69-.003.48-.271.854-.269.376-.745.589a2.6 2.6 0 0 1-1.087.213m0-.73q.365 0 .634-.121a1 1 0 0 0 .416-.343.94.94 0 0 0 .149-.52.97.97 0 0 0-.161-.545 1.1 1.1 0 0 0-.424-.372 1.34 1.34 0 0 0-.614-.136q-.35 0-.621.136t-.427.372a.95.95 0 0 0-.153.545.9.9 0 0 0 .142.52q.147.219.418.343.271.121.641.121m0-2.75q.293 0 .522-.118a.9.9 0 0 0 .357-.328.9.9 0 0 0 .136-.494.9.9 0 0 0-.132-.485.85.85 0 0 0-.356-.32 1.15 1.15 0 0 0-.527-.115q-.308 0-.537.115a.85.85 0 0 0-.479.805.9.9 0 0 0 .127.494q.13.21.357.328.232.119.532.118m3.542 3.454a.56.56 0 0 1-.407-.167.56.56 0 0 1-.17-.41q0-.236.17-.404a.55.55 0 0 1 .407-.17q.236 0 .406.17a.55.55 0 0 1 .171.404.55.55 0 0 1-.081.291.6.6 0 0 1-.207.208.55.55 0 0 1-.289.078m3.614-6.045q.396.003.779.145.384.141.693.461.312.321.496.866.188.543.19 1.35 0 .777-.155 1.382a3.1 3.1 0 0 1-.447 1.019 1.96 1.96 0 0 1-.702.632 2 2 0 0 1-.929.216q-.528 0-.937-.208a1.8 1.8 0 0 1-.667-.574 1.9 1.9 0 0 1-.32-.848h.88q.087.381.352.618.268.234.692.233.65 0 1.013-.565.363-.57.367-1.587h-.047q-.15.248-.375.426-.222.18-.499.278a1.8 1.8 0 0 1-.591.097 1.77 1.77 0 0 1-.929-.25 1.86 1.86 0 0 1-.667-.69 2 2 0 0 1-.248-1q0-.561.254-1.016.256-.456.715-.722.462-.268 1.082-.263m.003.75q-.338 0-.609.168-.268.165-.423.447a1.25 1.25 0 0 0-.157.623q0 .344.151.624.153.277.415.441.266.162.606.162.255 0 .473-.098.219-.099.384-.272.164-.176.256-.398a1.2 1.2 0 0 0 .093-.467q0-.326-.156-.606a1.2 1.2 0 0 0-.421-.45 1.1 1.1 0 0 0-.612-.174m5.148 5.321q-.543 0-.975-.208a1.8 1.8 0 0 1-.687-.577 1.53 1.53 0 0 1-.274-.837h.866a.87.87 0 0 0 .337.627q.306.245.733.245.342 0 .603-.156.266-.158.416-.435.153-.278.153-.632 0-.361-.156-.644a1.15 1.15 0 0 0-.43-.444 1.2 1.2 0 0 0-.623-.165q-.268.001-.54.092a1.3 1.3 0 0 0-.439.243l-.815-.121.331-2.977h3.249v.764h-2.507l-.188 1.653h.035q.173-.167.458-.28.29-.112.618-.112a1.81 1.81 0 0 1 1.627.958q.245.441.243 1.015.003.575-.26 1.025-.26.45-.721.71a2.1 2.1 0 0 1-1.054.256"/><path fill="#200109" fill-opacity=".72" d="M184.758 83.85h8.125v-8.125h-8.125z"/><path fill="#646868" d="M129.029 77.372v5.909h-.681v-5.909zm3.105 6.001q-.641 0-1.105-.282a1.9 1.9 0 0 1-.713-.796q-.248-.514-.248-1.195t.248-1.2q.251-.523.699-.814.45-.295 1.05-.295.346 0 .684.116.337.115.614.375.277.257.441.68.165.426.165 1.045v.289h-3.416v-.589h2.724q0-.375-.15-.67a1.14 1.14 0 0 0-.422-.464 1.2 1.2 0 0 0-.64-.17q-.407 0-.704.202a1.3 1.3 0 0 0-.453.52 1.5 1.5 0 0 0-.159.686v.393q0 .501.173.85.177.348.488.529.311.18.724.179.268 0 .485-.075.219-.08.378-.231.159-.156.245-.387l.658.185q-.104.335-.35.588a1.7 1.7 0 0 1-.605.393 2.3 2.3 0 0 1-.811.138m4.844-4.523v.576h-2.388v-.576zm-1.673 4.431v-5.044q0-.38.179-.634t.465-.381q.285-.127.602-.127.25 0 .41.04t.237.075l-.197.589-.144-.044a1 1 0 0 0-.236-.025q-.338 0-.488.17-.147.17-.147.5v4.881zm4.555-4.431v.576h-2.297v-.576zm-1.627-1.063h.681v4.224q0 .29.083.433a.43.43 0 0 0 .22.19q.135.047.286.047.111 0 .184-.011l.116-.024.138.612a1.5 1.5 0 0 1-1.074-.043 1.1 1.1 0 0 1-.455-.378 1.1 1.1 0 0 1-.179-.64zm4.937 5.494V78.85h.68v4.431zm.346-5.17a.49.49 0 0 1-.344-.136.44.44 0 0 1-.141-.326q0-.19.141-.326a.5.5 0 0 1 .344-.136q.198 0 .34.136.144.135.144.326a.43.43 0 0 1-.144.326.47.47 0 0 1-.34.136m2.262 2.504v2.666h-.681V78.85h.658v.692h.058q.156-.337.473-.543.318-.208.82-.208.45 0 .788.185.337.182.524.554.189.37.188.935v2.816h-.68v-2.77q0-.523-.272-.814-.272-.293-.744-.294-.326 0-.583.142a1 1 0 0 0-.402.412q-.146.271-.147.658m6.358 2.666V78.85h.658v.692h.057q.138-.355.447-.552.309-.199.742-.199.439 0 .73.2.294.195.459.55h.046q.17-.343.511-.544.34-.206.816-.206.594 0 .973.373.377.37.377 1.15v2.967h-.681v-2.966q0-.49-.268-.701a1 1 0 0 0-.632-.21q-.468 0-.724.282a1 1 0 0 0-.257.71v2.885h-.692v-3.035a.8.8 0 0 0-.245-.609.88.88 0 0 0-.632-.234.9.9 0 0 0-.496.142 1.06 1.06 0 0 0-.37.392 1.16 1.16 0 0 0-.138.574v2.77zm8.862.092q-.6 0-1.054-.286-.45-.285-.703-.799-.251-.513-.251-1.2 0-.692.251-1.209a1.93 1.93 0 0 1 .703-.802q.453-.285 1.054-.286.6 0 1.05.286.453.285.704.802.255.517.254 1.209 0 .687-.254 1.2a1.9 1.9 0 0 1-.704.8q-.45.285-1.05.285m0-.611q.456 0 .75-.234.294-.233.436-.615.141-.38.141-.825t-.141-.828a1.4 1.4 0 0 0-.436-.62q-.294-.237-.75-.237t-.75.237a1.4 1.4 0 0 0-.436.62 2.4 2.4 0 0 0-.141.828q0 .445.141.825.141.382.436.615.294.234.75.234m3.729-2.147v2.666h-.681V78.85h.657v.692h.058q.156-.337.473-.543.318-.208.82-.208.45 0 .787.185.337.182.526.554.187.37.187.935v2.816h-.681v-2.77q0-.523-.271-.814-.271-.293-.745-.294-.325 0-.583.142a1 1 0 0 0-.4.412q-.148.271-.147.658m5.999-1.765v.576h-2.297v-.576zm-1.627-1.063h.68v4.224q0 .29.084.433a.44.44 0 0 0 .219.19.9.9 0 0 0 .286.047q.112 0 .184-.011l.116-.024.138.612a1.4 1.4 0 0 1-.508.08q-.288 0-.565-.123a1.1 1.1 0 0 1-.456-.378q-.178-.255-.178-.64zm3.427 2.828v2.666h-.681v-5.909h.681v2.17h.058q.156-.344.467-.546.315-.204.837-.205.453 0 .793.182.341.18.528.552.192.368.191.94v2.816h-.681v-2.77q0-.528-.274-.816-.272-.292-.753-.292-.335 0-.601.142a1.04 1.04 0 0 0-.415.412q-.15.271-.15.658m4.801-3.243v5.909h-.682v-5.909zm1.685 7.571a1.5 1.5 0 0 1-.496-.081l.173-.6q.249.064.439.046a.53.53 0 0 0 .337-.17q.15-.15.274-.488l.127-.346-1.639-4.454h.739l1.223 3.53h.046l1.224-3.53h.738l-1.88 5.078q-.127.342-.315.568-.187.227-.436.338-.246.11-.554.11"/><g filter="url(#f)"><path fill="#D7FF52" d="M177.396 93.438h-75.834a4.062 4.062 0 0 0 0 8.124h75.834a4.062 4.062 0 0 0 0-8.124"/></g><g filter="url(#g)"><path fill="#A1A5A5" d="M223.437 93.438h-35.208a4.063 4.063 0 1 0 0 8.124h35.208a4.062 4.062 0 1 0 0-8.124"/></g><path fill="#141515" d="M101.725 128.57c0-.277-.13-.455-.455-.52-2.08-.488-3.217-1.999-3.217-4.209h1.771c0 1.836 1.024 2.795 2.974 2.795 1.722 0 2.502-.731 2.502-1.804 0-.926-.601-1.479-1.869-1.722l-1.576-.309c-2.405-.455-3.461-1.625-3.461-3.234 0-1.641 1.056-2.795 2.844-3.12.325-.049.487-.211.487-.52v-.634h1.674v.683c0 .276.146.455.439.52 1.868.422 2.973 1.787 2.973 3.819h-1.722c-.033-1.625-1.008-2.389-2.649-2.389-1.462 0-2.242.585-2.242 1.592 0 .927.633 1.43 1.966 1.69l1.527.293c2.373.471 3.397 1.609 3.397 3.315 0 1.82-1.235 3.055-3.218 3.331-.309.049-.471.211-.471.504v.617h-1.674zm9.995-7.183c1.332 0 2.031-.78 2.031-1.804 0-1.121-.796-1.738-1.934-1.738-1.284 0-2.064.78-2.064 2.356h-1.738c0-2.454 1.576-3.851 3.883-3.851 2.21 0 3.64 1.267 3.64 2.99 0 1.04-.52 1.982-1.608 2.502 1.316.52 2.015 1.576 2.015 2.925 0 2.048-1.658 3.445-4.014 3.445s-4.144-1.397-4.144-3.932h1.739c0 1.657 1.024 2.437 2.372 2.437 1.333 0 2.259-.747 2.259-1.966s-.894-1.934-2.437-1.934h-.829v-1.43zm9.236 6.825c-2.096 0-4.306-1.349-4.306-5.866 0-3.77 1.56-5.996 4.306-5.996 2.129 0 3.445 1.348 3.705 3.152h-1.738c-.147-.942-.829-1.657-1.983-1.657-1.657 0-2.535 1.43-2.616 4.225h.065c.455-.943 1.446-1.479 2.714-1.479 2.161 0 3.705 1.495 3.705 3.754 0 2.291-1.577 3.867-3.852 3.867m-.065-1.495c1.252 0 2.145-.926 2.145-2.34 0-1.43-.91-2.356-2.242-2.356-1.3 0-2.161.926-2.161 2.291 0 1.43.942 2.405 2.258 2.405m5.708 1.495c-.634 0-1.105-.439-1.105-1.04s.471-1.056 1.105-1.056c.633 0 1.105.455 1.105 1.056s-.472 1.04-1.105 1.04m3.504-3.867c.049 1.592 1.04 2.372 2.34 2.372 1.398 0 2.324-.926 2.324-2.454 0-1.608-.991-2.502-2.389-2.502-.959 0-1.576.422-1.934.975h-1.722l.682-6.143h6.565v1.495h-5.102l-.374 3.202c.471-.585 1.219-.959 2.275-.959 2.145 0 3.803 1.462 3.803 3.884 0 2.372-1.577 3.997-4.063 3.997-2.34 0-4.079-1.43-4.144-3.867zm8.895 0c.049 1.592 1.04 2.372 2.34 2.372 1.397 0 2.324-.926 2.324-2.454 0-1.608-.991-2.502-2.389-2.502-.959 0-1.576.422-1.934.975h-1.722l.682-6.143h6.565v1.495h-5.102l-.374 3.202c.471-.585 1.219-.959 2.275-.959 2.145 0 3.803 1.462 3.803 3.884 0 2.372-1.577 3.997-4.063 3.997-2.34 0-4.079-1.43-4.144-3.867z"/><g filter="url(#h)"><path fill="#A1A5A5" d="M100.208 142.865a1.354 1.354 0 1 0-2.707 0 1.354 1.354 0 0 0 2.707 0"/></g><path fill="#646868" d="M109.274 141.511a2 2 0 0 0-.251-.522 1.6 1.6 0 0 0-.846-.65 2 2 0 0 0-.588-.086q-.525 0-.955.271a1.87 1.87 0 0 0-.684.799q-.254.528-.254 1.295 0 .768.257 1.296t.696.799q.437.272.986.272.509 0 .894-.217.39-.22.606-.617a1.93 1.93 0 0 0 .22-.944l.219.046h-1.777v-.635h2.25v.635q0 .73-.312 1.27-.308.54-.853.837a2.6 2.6 0 0 1-1.247.294q-.785 0-1.379-.369a2.5 2.5 0 0 1-.924-1.05q-.328-.682-.328-1.617 0-.7.187-1.26.19-.562.537-.958a2.34 2.34 0 0 1 .819-.606 2.5 2.5 0 0 1 1.042-.211 2.6 2.6 0 0 1 .871.142 2.33 2.33 0 0 1 1.552 1.786zm1.906 4.062v-4.431h.658v.669h.046q.121-.33.439-.534.317-.205.715-.205a7 7 0 0 1 .358.011v.693a3 3 0 0 0-.415-.046q-.324 0-.577.135-.25.133-.398.37a1 1 0 0 0-.145.534v2.804zm4.689.092q-.6 0-1.053-.285a1.95 1.95 0 0 1-.704-.799q-.251-.514-.251-1.201 0-.692.251-1.209.254-.517.704-.802.452-.285 1.053-.286.6 0 1.05.286.453.285.704.802.255.517.254 1.209 0 .687-.254 1.201a1.9 1.9 0 0 1-.704.799q-.45.285-1.05.285m0-.611q.456 0 .75-.234.295-.233.436-.615a2.4 2.4 0 0 0 .141-.825q0-.444-.141-.828a1.4 1.4 0 0 0-.436-.62q-.294-.237-.75-.236-.456 0-.75.236a1.4 1.4 0 0 0-.436.62 2.4 2.4 0 0 0-.141.828q0 .445.141.825.141.382.436.615.294.234.75.234m6.187-2.92-.612.173a1.1 1.1 0 0 0-.17-.297.8.8 0 0 0-.3-.243 1.1 1.1 0 0 0-.488-.095q-.407 0-.678.188-.268.185-.268.47 0 .254.184.401.186.147.577.246l.658.161q.594.144.886.441.292.296.292.759 0 .381-.22.681-.216.3-.606.474a2.2 2.2 0 0 1-.905.172q-.68 0-1.123-.294-.444-.294-.563-.859l.647-.162a.9.9 0 0 0 .349.537q.26.178.678.178.475 0 .756-.201.283-.205.283-.491a.52.52 0 0 0-.162-.387q-.162-.159-.496-.236l-.739-.174q-.609-.144-.895-.446a1.1 1.1 0 0 1-.282-.766q0-.374.211-.663.213-.288.579-.453.37-.165.837-.165.658 0 1.033.289.378.29.537.762m4.245 0-.612.173a1.1 1.1 0 0 0-.17-.297.8.8 0 0 0-.3-.243 1.1 1.1 0 0 0-.488-.095q-.406 0-.678.188-.268.185-.268.47 0 .254.185.401.184.147.577.246l.657.161q.595.144.886.441.292.296.291.759 0 .381-.219.681-.216.3-.606.474a2.2 2.2 0 0 1-.906.172q-.677 0-1.122-.294a1.3 1.3 0 0 1-.562-.859l.646-.162a.9.9 0 0 0 .349.537q.26.178.678.178.475 0 .756-.201.282-.205.282-.491a.52.52 0 0 0-.161-.387q-.162-.159-.496-.236l-.739-.174q-.609-.144-.894-.446a1.08 1.08 0 0 1-.283-.766q0-.374.21-.663.213-.288.581-.453t.836-.165q.657 0 1.033.289.378.29.537.762m3.483 3.439v-5.909h1.997q.692 0 1.136.237a1.5 1.5 0 0 1 .658.643q.214.41.214.932t-.214.926q-.213.404-.655.635-.441.228-1.128.228h-1.615v-.647h1.592q.473 0 .762-.138a.88.88 0 0 0 .421-.392q.133-.258.133-.612 0-.355-.133-.62a.9.9 0 0 0-.424-.41q-.291-.147-.771-.147h-1.258v5.274zm2.781-2.654 1.455 2.654h-.831l-1.432-2.654zm4.135 2.746q-.642 0-1.105-.282a1.9 1.9 0 0 1-.713-.796q-.248-.514-.248-1.195t.248-1.2q.25-.523.698-.814.45-.294 1.05-.295a2.1 2.1 0 0 1 .684.116q.338.115.614.375a1.8 1.8 0 0 1 .442.681q.165.424.164 1.045v.288h-3.415V143h2.723q0-.375-.15-.67a1.14 1.14 0 0 0-.422-.465 1.2 1.2 0 0 0-.64-.169q-.407 0-.704.201a1.33 1.33 0 0 0-.453.52 1.5 1.5 0 0 0-.159.686v.393q0 .501.174.851.175.347.487.528.311.179.725.179.268 0 .484-.075.22-.078.378-.231.16-.156.245-.387l.658.185a1.45 1.45 0 0 1-.349.588 1.7 1.7 0 0 1-.606.393q-.36.138-.81.138m6.359-4.523-1.639 4.431h-.692l-1.639-4.431h.739l1.223 3.531h.046l1.224-3.531zm2.598 4.523q-.64 0-1.105-.282a1.9 1.9 0 0 1-.712-.796q-.248-.514-.248-1.195t.248-1.2q.25-.523.698-.814.45-.294 1.05-.295a2.1 2.1 0 0 1 .684.116q.338.115.615.375.277.257.441.681t.164 1.045v.288h-3.416V143h2.724q0-.375-.15-.67a1.13 1.13 0 0 0-.421-.465 1.2 1.2 0 0 0-.641-.169q-.407 0-.704.201a1.33 1.33 0 0 0-.453.52 1.5 1.5 0 0 0-.158.686v.393q0 .501.172.851.177.347.489.528.31.179.723.179.269 0 .485-.075.219-.078.378-.231.158-.156.246-.387l.657.185a1.45 1.45 0 0 1-.349.588 1.7 1.7 0 0 1-.606.393q-.36.138-.811.138m3.552-2.758v2.666h-.681v-4.431h.658v.692h.058q.155-.338.473-.543.317-.207.819-.208.45 0 .789.185.336.182.524.554.188.37.188.935v2.816h-.681v-2.77q0-.522-.271-.814-.271-.293-.745-.293-.326 0-.582.141a1 1 0 0 0-.402.412 1.37 1.37 0 0 0-.147.658m6.865.854v-2.619h.681v4.431h-.681v-.75h-.046a1.45 1.45 0 0 1-.485.574q-.329.234-.831.234-.415 0-.738-.182a1.27 1.27 0 0 1-.508-.554q-.185-.373-.185-.937v-2.816h.681v2.769q0 .485.271.774a.92.92 0 0 0 .698.288q.255 0 .517-.13.266-.13.444-.398.182-.269.182-.684m3.787 1.904q-.642 0-1.105-.282a1.9 1.9 0 0 1-.713-.796q-.248-.514-.248-1.195t.248-1.2q.25-.523.698-.814.45-.294 1.05-.295a2.1 2.1 0 0 1 .684.116q.338.115.614.375a1.8 1.8 0 0 1 .442.681q.165.424.164 1.045v.288h-3.415V143h2.723q0-.375-.15-.67a1.14 1.14 0 0 0-.421-.465 1.2 1.2 0 0 0-.641-.169q-.407 0-.704.201a1.33 1.33 0 0 0-.453.52 1.5 1.5 0 0 0-.159.686v.393q0 .501.174.851.175.347.487.528.312.179.725.179.267 0 .484-.075.22-.078.378-.231.16-.156.245-.387l.658.185a1.45 1.45 0 0 1-.349.588 1.7 1.7 0 0 1-.606.393q-.36.138-.81.138"/><path fill="#F5F5F5" d="M222.085 112.396h-32.5a5.417 5.417 0 0 0-5.417 5.417v25.729a5.416 5.416 0 0 0 5.417 5.416h32.5a5.416 5.416 0 0 0 5.416-5.416v-25.729a5.416 5.416 0 0 0-5.416-5.417M159.792 159.115h-58.23a4.062 4.062 0 0 0 0 8.125h58.23a4.063 4.063 0 0 0 0-8.125M180.104 171.979h-78.542a4.063 4.063 0 0 0 0 8.125h78.542a4.062 4.062 0 1 0 0-8.125"/><path fill="url(#i)" d="M238.335 166.562H86.668v13.542h151.667z"/><g filter="url(#j)"><path fill="#fff" d="M81.25 169.271a8.125 8.125 0 0 0-8.126-8.125H29.791a8.125 8.125 0 0 0-8.125 8.125v43.334a8.125 8.125 0 0 0 8.125 8.125h14.931a8.13 8.13 0 0 0 4.824-1.587l28.403-20.958a8.13 8.13 0 0 0 3.3-6.538z"/></g><g filter="url(#k)" opacity=".4"><path fill="#fff" d="M21.666 147.604a8.125 8.125 0 0 0 8.125 8.125h43.333a8.125 8.125 0 0 0 8.125-8.125v-43.333a8.125 8.125 0 0 0-8.125-8.125h-14.93a8.13 8.13 0 0 0-4.825 1.587l-28.402 20.958a8.13 8.13 0 0 0-3.301 6.538z"/></g><g filter="url(#l)"><path fill="#fff" d="M42.762 176.764h74.861v16.891H42.762z" shape-rendering="crispEdges"/><path stroke="#000" stroke-width=".428" d="M42.975 176.977h74.433v16.463H42.975z" shape-rendering="crispEdges"/><path fill="#0F0F19" d="M48.368 186.895v-4.285h3.099v.505h-2.532v1.313h2.371v.503h-2.37v1.458h2.63v.506zm3.853 0 1.646-4.285h.61l1.755 4.285h-.646l-.5-1.298h-1.792l-.47 1.298zm1.237-1.76h1.452l-.447-1.187q-.205-.54-.304-.888a5.5 5.5 0 0 1-.23.818zm3.578 1.76v-4.285h1.9q.573 0 .871.116a.95.95 0 0 1 .476.407q.18.292.179.646 0 .456-.295.769t-.913.397q.226.108.343.214.248.228.47.57l.746 1.166h-.714l-.567-.892a8 8 0 0 0-.409-.59 1.3 1.3 0 0 0-.29-.287.9.9 0 0 0-.257-.114 2 2 0 0 0-.315-.02h-.658v1.903zm.567-2.394h1.219q.39 0 .608-.079a.66.66 0 0 0 .333-.257.7.7 0 0 0 .114-.386.64.64 0 0 0-.222-.5q-.219-.196-.696-.196h-1.356zm4.087 2.394v-4.285h.581l2.251 3.364v-3.364h.544v4.285h-.582l-2.25-3.368v3.368zm6.682 0v-4.285h1.617q.427 0 .652.04.316.054.529.202.213.147.342.412.132.267.132.585 0 .546-.348.927-.348.377-1.257.377h-1.1v1.742zm.567-2.248h1.108q.55 0 .78-.205.232-.204.232-.575a.76.76 0 0 0-.138-.459.63.63 0 0 0-.356-.255q-.144-.038-.53-.038H68.94zm3.596.161q0-1.068.573-1.669.573-.605 1.48-.605.593 0 1.07.283.476.284.724.792.252.505.252 1.149 0 .653-.263 1.166a1.8 1.8 0 0 1-.746.781 2.14 2.14 0 0 1-1.04.263q-.606 0-1.082-.292a1.9 1.9 0 0 1-.722-.798 2.4 2.4 0 0 1-.246-1.07m.585.009q0 .774.415 1.222.418.444 1.047.444.64 0 1.052-.45.415-.45.415-1.278 0-.523-.178-.912a1.34 1.34 0 0 0-.518-.605 1.4 1.4 0 0 0-.763-.216q-.602 0-1.038.415-.432.413-.432 1.38m4.686 2.078v-4.285h.567v4.285zm1.906 0v-4.285h.582l2.25 3.364v-3.364h.544v4.285h-.581l-2.251-3.368v3.368zm5.765 0v-3.78h-1.412v-.505h3.397v.505h-1.418v3.78zm2.718-1.377.535-.047q.038.322.176.53a1 1 0 0 0 .432.333q.293.125.658.125.325 0 .573-.096a.8.8 0 0 0 .368-.263.6.6 0 0 0 .123-.368.55.55 0 0 0-.117-.351q-.117-.152-.385-.255a8 8 0 0 0-.764-.207q-.59-.143-.827-.269a1.2 1.2 0 0 1-.459-.398 1 1 0 0 1-.149-.535q0-.324.184-.605.184-.283.538-.429a2 2 0 0 1 .787-.147q.476 0 .839.155.365.153.56.451.197.297.211.675l-.543.041q-.045-.407-.299-.614-.251-.208-.745-.208-.515 0-.751.19a.56.56 0 0 0-.234.453q0 .231.166.38.164.15.854.307.693.156.95.272.375.172.553.439.177.263.178.608 0 .342-.196.646-.196.301-.564.47a1.95 1.95 0 0 1-.825.167q-.581 0-.976-.169a1.4 1.4 0 0 1-.617-.509 1.46 1.46 0 0 1-.234-.772"/></g><g filter="url(#m)"><path fill="#fff" d="M199.705 55.316h76.118v17.105h-76.118z" shape-rendering="crispEdges"/><path stroke="#000" stroke-width=".428" d="M199.919 55.53h75.691v16.678h-75.691z" shape-rendering="crispEdges"/><path fill="#0F0F19" d="M204.823 65.369v-4.286h.567v4.286zm1.906 0v-4.286h.582l2.251 3.365v-3.365h.543v4.286h-.581L207.273 62v3.368zm4.403-1.287v-.529h1.616v.53zm4.613-.394v-.503l1.815-.003v1.59q-.418.333-.862.503a2.6 2.6 0 0 1-.913.167q-.63 0-1.148-.27a1.8 1.8 0 0 1-.778-.783 2.5 2.5 0 0 1-.263-1.143q0-.626.26-1.166.264-.544.754-.807a2.36 2.36 0 0 1 1.132-.263q.464 0 .839.152.377.15.59.418.214.27.325.702l-.512.14a1.6 1.6 0 0 0-.24-.515.97.97 0 0 0-.409-.298 1.5 1.5 0 0 0-.59-.114q-.39 0-.673.12a1.25 1.25 0 0 0-.459.31q-.172.193-.269.424a2.25 2.25 0 0 0-.163.862q0 .573.195.959.2.385.576.573.378.187.801.187.37 0 .719-.14.352-.144.532-.304v-.798zm2.525 1.68 1.646-4.285h.611l1.754 4.286h-.646l-.5-1.298h-1.792l-.47 1.298zm1.237-1.76h1.453l-.448-1.186a12 12 0 0 1-.304-.889 5.4 5.4 0 0 1-.23.819zm3.552 1.76v-4.285h.853l1.015 3.034q.14.424.204.635.073-.234.228-.687l1.026-2.982h.763v4.286h-.546v-3.587l-1.246 3.587h-.511l-1.24-3.649v3.649zm5.358 0v-4.285h3.099v.506h-2.532V62.9h2.371v.503h-2.371v1.459h2.631v.506zm9.39-1.502.567.143q-.178.7-.643 1.067-.462.366-1.131.366-.693 0-1.129-.281a1.8 1.8 0 0 1-.661-.819 2.9 2.9 0 0 1-.225-1.148q0-.67.255-1.167.257-.5.728-.757.473-.26 1.04-.26.644 0 1.082.327.438.329.611.921l-.558.132q-.15-.469-.433-.681-.284-.214-.713-.214-.495 0-.828.237a1.25 1.25 0 0 0-.464.637q-.135.398-.135.822 0 .546.158.956.16.405.497.608.336.201.728.201.476 0 .807-.274.33-.276.447-.816m4.423-2.783h.567v2.476q0 .646-.146 1.026-.147.38-.529.62-.38.237-1 .237-.603 0-.985-.208a1.18 1.18 0 0 1-.547-.6q-.164-.393-.164-1.075v-2.476h.568v2.473q0 .558.102.825.105.262.356.406.255.143.62.143.625 0 .892-.284.266-.283.266-1.09zm1.865 4.286v-4.286h1.9q.573 0 .871.117a.95.95 0 0 1 .477.406q.178.292.178.646 0 .456-.295.77-.296.312-.912.397.225.108.342.213.248.228.47.57l.746 1.167h-.713l-.568-.892a8 8 0 0 0-.409-.59 1.3 1.3 0 0 0-.289-.287.8.8 0 0 0-.258-.114 1.7 1.7 0 0 0-.315-.02h-.658v1.903zm.567-2.395h1.219q.389 0 .608-.078a.66.66 0 0 0 .333-.258.7.7 0 0 0 .114-.386.64.64 0 0 0-.222-.5q-.219-.195-.696-.195h-1.356zm4.101 2.395v-4.286h1.901q.573 0 .871.117a.94.94 0 0 1 .476.406q.179.292.179.646 0 .456-.296.77-.296.312-.912.397.225.108.342.213.249.228.471.57l.745 1.167h-.713l-.567-.892a8 8 0 0 0-.409-.59 1.3 1.3 0 0 0-.29-.287.8.8 0 0 0-.257-.114 1.7 1.7 0 0 0-.316-.02h-.657v1.903zm.568-2.395h1.219q.388 0 .608-.078a.66.66 0 0 0 .333-.258.7.7 0 0 0 .114-.386.64.64 0 0 0-.222-.5q-.219-.195-.696-.195h-1.356zm4.104 2.395v-4.286h3.099v.506h-2.532V62.9h2.371v.503h-2.371v1.459h2.631v.506zm4.318 0v-4.286h.581l2.251 3.365v-3.365h.544v4.286h-.582L258.296 62v3.368zm7.732-1.503.567.143q-.178.7-.643 1.067-.462.366-1.132.366-.692 0-1.128-.281a1.8 1.8 0 0 1-.661-.819 2.9 2.9 0 0 1-.225-1.148q0-.67.255-1.167.257-.5.728-.757.473-.26 1.04-.26.644 0 1.082.327.438.329.611.921l-.559.132q-.148-.469-.432-.681-.284-.214-.713-.214-.495 0-.828.237-.33.237-.465.637a2.6 2.6 0 0 0-.134.822q0 .546.158.956.16.405.497.608.336.201.728.201.476 0 .807-.274.33-.276.447-.816m2.818 1.503v-1.816l-1.652-2.47h.69l.845 1.292q.234.362.436.725.192-.336.467-.757l.83-1.26h.661l-1.71 2.47v1.816z"/></g><defs><filter id="a" width="162.5" height="206.172" x="81.249" y="25.39" color-interpolation-filters="sRGB" filterUnits="userSpaceOnUse"><feFlood flood-opacity="0" result="BackgroundImageFix"/><feColorMatrix in="SourceAlpha" result="hardAlpha" values="0 0 0 0 0 0 0 0 0 0 0 0 0 0 0 0 0 0 127 0"/><feOffset dy="1.354"/><feGaussianBlur stdDeviation=".677"/><feComposite in2="hardAlpha" operator="out"/><feColorMatrix values="0 0 0 0 0 0 0 0 0 0 0 0 0 0 0 0 0 0 0.04 0"/><feBlend in2="BackgroundImageFix" result="effect1_dropShadow_4117_19513"/><feColorMatrix in="SourceAlpha" result="hardAlpha" values="0 0 0 0 0 0 0 0 0 0 0 0 0 0 0 0 0 0 127 0"/><feOffset dy="2.031"/><feGaussianBlur stdDeviation="1.016"/><feComposite in2="hardAlpha" operator="out"/><feColorMatrix values="0 0 0 0 0.105882 0 0 0 0 0.105882 0 0 0 0 0.105882 0 0 0 0.03 0"/><feBlend in2="effect1_dropShadow_4117_19513" result="effect2_dropShadow_4117_19513"/><feColorMatrix in="SourceAlpha" result="hardAlpha" values="0 0 0 0 0 0 0 0 0 0 0 0 0 0 0 0 0 0 127 0"/><feOffset dy="2.708"/><feGaussianBlur stdDeviation="1.354"/><feComposite in2="hardAlpha" operator="out"/><feColorMatrix values="0 0 0 0 0 0 0 0 0 0 0 0 0 0 0 0 0 0 0.03 0"/><feBlend in2="effect2_dropShadow_4117_19513" result="effect3_dropShadow_4117_19513"/><feColorMatrix in="SourceAlpha" result="hardAlpha" values="0 0 0 0 0 0 0 0 0 0 0 0 0 0 0 0 0 0 127 0"/><feOffset dy="5.417"/><feGaussianBlur stdDeviation="2.708"/><feComposite in2="hardAlpha" operator="out"/><feColorMatrix values="0 0 0 0 0 0 0 0 0 0 0 0 0 0 0 0 0 0 0.02 0"/><feBlend in2="effect3_dropShadow_4117_19513" result="effect4_dropShadow_4117_19513"/><feBlend in="SourceGraphic" in2="effect4_dropShadow_4117_19513" result="shape"/><feColorMatrix in="SourceAlpha" result="hardAlpha" values="0 0 0 0 0 0 0 0 0 0 0 0 0 0 0 0 0 0 127 0"/><feOffset/><feGaussianBlur stdDeviation="1.354"/><feComposite in2="hardAlpha" k2="-1" k3="1" operator="arithmetic"/><feColorMatrix values="0 0 0 0 0 0 0 0 0 0 0 0 0 0 0 0 0 0 0.04 0"/><feBlend in2="shape" result="effect5_innerShadow_4117_19513"/><feColorMatrix in="SourceAlpha" result="hardAlpha" values="0 0 0 0 0 0 0 0 0 0 0 0 0 0 0 0 0 0 127 0"/><feOffset dy=".339"/><feGaussianBlur stdDeviation=".339"/><feComposite in2="hardAlpha" k2="-1" k3="1" operator="arithmetic"/><feColorMatrix values="0 0 0 0 0 0 0 0 0 0 0 0 0 0 0 0 0 0 0.06 0"/><feBlend in2="effect5_innerShadow_4117_19513" result="effect6_innerShadow_4117_19513"/><feColorMatrix in="SourceAlpha" result="hardAlpha" values="0 0 0 0 0 0 0 0 0 0 0 0 0 0 0 0 0 0 127 0"/><feOffset dy="-.677"/><feGaussianBlur stdDeviation=".169"/><feComposite in2="hardAlpha" k2="-1" k3="1" operator="arithmetic"/><feColorMatrix values="0 0 0 0 0 0 0 0 0 0 0 0 0 0 0 0 0 0 0.04 0"/><feBlend in2="effect6_innerShadow_4117_19513" result="effect7_innerShadow_4117_19513"/></filter><filter id="b" width="118.49" height="65" x="130.677" y="188.229" color-interpolation-filters="sRGB" filterUnits="userSpaceOnUse"><feFlood flood-opacity="0" result="BackgroundImageFix"/><feColorMatrix in="SourceAlpha" result="hardAlpha" values="0 0 0 0 0 0 0 0 0 0 0 0 0 0 0 0 0 0 127 0"/><feOffset dy=".677"/><feGaussianBlur stdDeviation=".339"/><feComposite in2="hardAlpha" operator="out"/><feColorMatrix values="0 0 0 0 0.105882 0 0 0 0 0.105882 0 0 0 0 0.105882 0 0 0 0.12 0"/><feBlend in2="BackgroundImageFix" result="effect1_dropShadow_4117_19513"/><feColorMatrix in="SourceAlpha" result="hardAlpha" values="0 0 0 0 0 0 0 0 0 0 0 0 0 0 0 0 0 0 127 0"/><feOffset dy="1.354"/><feGaussianBlur stdDeviation=".677"/><feComposite in2="hardAlpha" operator="out"/><feColorMatrix values="0 0 0 0 0.105882 0 0 0 0 0.105882 0 0 0 0 0.105882 0 0 0 0.12 0"/><feBlend in2="effect1_dropShadow_4117_19513" result="effect2_dropShadow_4117_19513"/><feColorMatrix in="SourceAlpha" result="hardAlpha" values="0 0 0 0 0 0 0 0 0 0 0 0 0 0 0 0 0 0 127 0"/><feOffset dy="2.031"/><feGaussianBlur stdDeviation="1.016"/><feComposite in2="hardAlpha" operator="out"/><feColorMatrix values="0 0 0 0 0.105882 0 0 0 0 0.105882 0 0 0 0 0.105882 0 0 0 0.12 0"/><feBlend in2="effect2_dropShadow_4117_19513" result="effect3_dropShadow_4117_19513"/><feColorMatrix in="SourceAlpha" result="hardAlpha" values="0 0 0 0 0 0 0 0 0 0 0 0 0 0 0 0 0 0 127 0"/><feOffset dy="2.708"/><feGaussianBlur stdDeviation="1.354"/><feComposite in2="hardAlpha" operator="out"/><feColorMatrix values="0 0 0 0 0.105882 0 0 0 0 0.105882 0 0 0 0 0.105882 0 0 0 0.12 0"/><feBlend in2="effect3_dropShadow_4117_19513" result="effect4_dropShadow_4117_19513"/><feColorMatrix in="SourceAlpha" result="hardAlpha" values="0 0 0 0 0 0 0 0 0 0 0 0 0 0 0 0 0 0 127 0"/><feOffset dy="5.417"/><feGaussianBlur stdDeviation="2.708"/><feComposite in2="hardAlpha" operator="out"/><feColorMatrix values="0 0 0 0 0.105882 0 0 0 0 0.105882 0 0 0 0 0.105882 0 0 0 0.12 0"/><feBlend in2="effect4_dropShadow_4117_19513" result="effect5_dropShadow_4117_19513"/><feColorMatrix in="SourceAlpha" result="hardAlpha" values="0 0 0 0 0 0 0 0 0 0 0 0 0 0 0 0 0 0 127 0"/><feOffset dy="10.833"/><feGaussianBlur stdDeviation="5.417"/><feComposite in2="hardAlpha" operator="out"/><feColorMatrix values="0 0 0 0 0.105882 0 0 0 0 0.105882 0 0 0 0 0.105882 0 0 0 0.12 0"/><feBlend in2="effect5_dropShadow_4117_19513" result="effect6_dropShadow_4117_19513"/><feColorMatrix in="SourceAlpha" result="hardAlpha" values="0 0 0 0 0 0 0 0 0 0 0 0 0 0 0 0 0 0 127 0"/><feOffset dy="21.667"/><feGaussianBlur stdDeviation="10.833"/><feComposite in2="hardAlpha" operator="out"/><feColorMatrix values="0 0 0 0 0.105882 0 0 0 0 0.105882 0 0 0 0 0.105882 0 0 0 0.12 0"/><feBlend in2="effect6_dropShadow_4117_19513" result="effect7_dropShadow_4117_19513"/><feBlend in="SourceGraphic" in2="effect7_dropShadow_4117_19513" result="shape"/><feColorMatrix in="SourceAlpha" result="hardAlpha" values="0 0 0 0 0 0 0 0 0 0 0 0 0 0 0 0 0 0 127 0"/><feOffset dy=".339"/><feGaussianBlur stdDeviation=".169"/><feComposite in2="hardAlpha" k2="-1" k3="1" operator="arithmetic"/><feColorMatrix values="0 0 0 0 1 0 0 0 0 1 0 0 0 0 1 0 0 0 0.1 0"/><feBlend in2="shape" result="effect8_innerShadow_4117_19513"/><feColorMatrix in="SourceAlpha" result="hardAlpha" values="0 0 0 0 0 0 0 0 0 0 0 0 0 0 0 0 0 0 127 0"/><feOffset dy=".677"/><feGaussianBlur stdDeviation=".677"/><feComposite in2="hardAlpha" k2="-1" k3="1" operator="arithmetic"/><feColorMatrix values="0 0 0 0 1 0 0 0 0 1 0 0 0 0 1 0 0 0 0.04 0"/><feBlend in2="effect8_innerShadow_4117_19513" result="effect9_innerShadow_4117_19513"/></filter><filter id="f" width="94.791" height="29.115" x="92.083" y="92.083" color-interpolation-filters="sRGB" filterUnits="userSpaceOnUse"><feFlood flood-opacity="0" result="BackgroundImageFix"/><feColorMatrix in="SourceAlpha" result="hardAlpha" values="0 0 0 0 0 0 0 0 0 0 0 0 0 0 0 0 0 0 127 0"/><feOffset dy=".677"/><feGaussianBlur stdDeviation="1.016"/><feColorMatrix values="0 0 0 0 0.843137 0 0 0 0 1 0 0 0 0 0.321569 0 0 0 0.12 0"/><feBlend in2="BackgroundImageFix" result="effect1_dropShadow_4117_19513"/><feColorMatrix in="SourceAlpha" result="hardAlpha" values="0 0 0 0 0 0 0 0 0 0 0 0 0 0 0 0 0 0 127 0"/><feOffset dy="3.385"/><feGaussianBlur stdDeviation="1.693"/><feColorMatrix values="0 0 0 0 0.843137 0 0 0 0 1 0 0 0 0 0.321569 0 0 0 0.1 0"/><feBlend in2="effect1_dropShadow_4117_19513" result="effect2_dropShadow_4117_19513"/><feColorMatrix in="SourceAlpha" result="hardAlpha" values="0 0 0 0 0 0 0 0 0 0 0 0 0 0 0 0 0 0 127 0"/><feOffset dy="8.125"/><feGaussianBlur stdDeviation="2.37"/><feColorMatrix values="0 0 0 0 0.843137 0 0 0 0 1 0 0 0 0 0.321569 0 0 0 0.06 0"/><feBlend in2="effect2_dropShadow_4117_19513" result="effect3_dropShadow_4117_19513"/><feColorMatrix in="SourceAlpha" result="hardAlpha" values="0 0 0 0 0 0 0 0 0 0 0 0 0 0 0 0 0 0 127 0"/><feOffset dy="14.219"/><feGaussianBlur stdDeviation="2.708"/><feColorMatrix values="0 0 0 0 0.843137 0 0 0 0 1 0 0 0 0 0.321569 0 0 0 0.02 0"/><feBlend in2="effect3_dropShadow_4117_19513" result="effect4_dropShadow_4117_19513"/><feBlend in="SourceGraphic" in2="effect4_dropShadow_4117_19513" result="shape"/></filter><filter id="g" width="54.166" height="29.115" x="178.749" y="92.083" color-interpolation-filters="sRGB" filterUnits="userSpaceOnUse"><feFlood flood-opacity="0" result="BackgroundImageFix"/><feColorMatrix in="SourceAlpha" result="hardAlpha" values="0 0 0 0 0 0 0 0 0 0 0 0 0 0 0 0 0 0 127 0"/><feOffset dy=".677"/><feGaussianBlur stdDeviation="1.016"/><feColorMatrix values="0 0 0 0 0.631373 0 0 0 0 0.647059 0 0 0 0 0.647059 0 0 0 0.12 0"/><feBlend in2="BackgroundImageFix" result="effect1_dropShadow_4117_19513"/><feColorMatrix in="SourceAlpha" result="hardAlpha" values="0 0 0 0 0 0 0 0 0 0 0 0 0 0 0 0 0 0 127 0"/><feOffset dy="3.385"/><feGaussianBlur stdDeviation="1.693"/><feColorMatrix values="0 0 0 0 0.631373 0 0 0 0 0.647059 0 0 0 0 0.647059 0 0 0 0.1 0"/><feBlend in2="effect1_dropShadow_4117_19513" result="effect2_dropShadow_4117_19513"/><feColorMatrix in="SourceAlpha" result="hardAlpha" values="0 0 0 0 0 0 0 0 0 0 0 0 0 0 0 0 0 0 127 0"/><feOffset dy="8.125"/><feGaussianBlur stdDeviation="2.37"/><feColorMatrix values="0 0 0 0 0.631373 0 0 0 0 0.647059 0 0 0 0 0.647059 0 0 0 0.06 0"/><feBlend in2="effect2_dropShadow_4117_19513" result="effect3_dropShadow_4117_19513"/><feColorMatrix in="SourceAlpha" result="hardAlpha" values="0 0 0 0 0 0 0 0 0 0 0 0 0 0 0 0 0 0 127 0"/><feOffset dy="14.219"/><feGaussianBlur stdDeviation="2.708"/><feColorMatrix values="0 0 0 0 0.631373 0 0 0 0 0.647059 0 0 0 0 0.647059 0 0 0 0.02 0"/><feBlend in2="effect3_dropShadow_4117_19513" result="effect4_dropShadow_4117_19513"/><feBlend in="SourceGraphic" in2="effect4_dropShadow_4117_19513" result="shape"/></filter><filter id="h" width="13.541" height="23.698" x="92.083" y="140.156" color-interpolation-filters="sRGB" filterUnits="userSpaceOnUse"><feFlood flood-opacity="0" result="BackgroundImageFix"/><feColorMatrix in="SourceAlpha" result="hardAlpha" values="0 0 0 0 0 0 0 0 0 0 0 0 0 0 0 0 0 0 127 0"/><feOffset dy=".677"/><feGaussianBlur stdDeviation="1.016"/><feColorMatrix values="0 0 0 0 0.631373 0 0 0 0 0.647059 0 0 0 0 0.647059 0 0 0 0.12 0"/><feBlend in2="BackgroundImageFix" result="effect1_dropShadow_4117_19513"/><feColorMatrix in="SourceAlpha" result="hardAlpha" values="0 0 0 0 0 0 0 0 0 0 0 0 0 0 0 0 0 0 127 0"/><feOffset dy="3.385"/><feGaussianBlur stdDeviation="1.693"/><feColorMatrix values="0 0 0 0 0.631373 0 0 0 0 0.647059 0 0 0 0 0.647059 0 0 0 0.1 0"/><feBlend in2="effect1_dropShadow_4117_19513" result="effect2_dropShadow_4117_19513"/><feColorMatrix in="SourceAlpha" result="hardAlpha" values="0 0 0 0 0 0 0 0 0 0 0 0 0 0 0 0 0 0 127 0"/><feOffset dy="8.125"/><feGaussianBlur stdDeviation="2.37"/><feColorMatrix values="0 0 0 0 0.631373 0 0 0 0 0.647059 0 0 0 0 0.647059 0 0 0 0.06 0"/><feBlend in2="effect2_dropShadow_4117_19513" result="effect3_dropShadow_4117_19513"/><feColorMatrix in="SourceAlpha" result="hardAlpha" values="0 0 0 0 0 0 0 0 0 0 0 0 0 0 0 0 0 0 127 0"/><feOffset dy="14.219"/><feGaussianBlur stdDeviation="2.708"/><feColorMatrix values="0 0 0 0 0.631373 0 0 0 0 0.647059 0 0 0 0 0.647059 0 0 0 0.02 0"/><feBlend in2="effect3_dropShadow_4117_19513" result="effect4_dropShadow_4117_19513"/><feBlend in="SourceGraphic" in2="effect4_dropShadow_4117_19513" result="shape"/></filter><filter id="j" width="70.416" height="70.755" x="16.249" y="160.808" color-interpolation-filters="sRGB" filterUnits="userSpaceOnUse"><feFlood flood-opacity="0" result="BackgroundImageFix"/><feColorMatrix in="SourceAlpha" result="hardAlpha" values="0 0 0 0 0 0 0 0 0 0 0 0 0 0 0 0 0 0 127 0"/><feOffset dy="1.354"/><feGaussianBlur stdDeviation=".677"/><feComposite in2="hardAlpha" operator="out"/><feColorMatrix values="0 0 0 0 0 0 0 0 0 0 0 0 0 0 0 0 0 0 0.04 0"/><feBlend in2="BackgroundImageFix" result="effect1_dropShadow_4117_19513"/><feColorMatrix in="SourceAlpha" result="hardAlpha" values="0 0 0 0 0 0 0 0 0 0 0 0 0 0 0 0 0 0 127 0"/><feOffset dy="2.031"/><feGaussianBlur stdDeviation="1.016"/><feComposite in2="hardAlpha" operator="out"/><feColorMatrix values="0 0 0 0 0.105882 0 0 0 0 0.105882 0 0 0 0 0.105882 0 0 0 0.03 0"/><feBlend in2="effect1_dropShadow_4117_19513" result="effect2_dropShadow_4117_19513"/><feColorMatrix in="SourceAlpha" result="hardAlpha" values="0 0 0 0 0 0 0 0 0 0 0 0 0 0 0 0 0 0 127 0"/><feOffset dy="2.708"/><feGaussianBlur stdDeviation="1.354"/><feComposite in2="hardAlpha" operator="out"/><feColorMatrix values="0 0 0 0 0 0 0 0 0 0 0 0 0 0 0 0 0 0 0.03 0"/><feBlend in2="effect2_dropShadow_4117_19513" result="effect3_dropShadow_4117_19513"/><feColorMatrix in="SourceAlpha" result="hardAlpha" values="0 0 0 0 0 0 0 0 0 0 0 0 0 0 0 0 0 0 127 0"/><feOffset dy="5.417"/><feGaussianBlur stdDeviation="2.708"/><feComposite in2="hardAlpha" operator="out"/><feColorMatrix values="0 0 0 0 0 0 0 0 0 0 0 0 0 0 0 0 0 0 0.02 0"/><feBlend in2="effect3_dropShadow_4117_19513" result="effect4_dropShadow_4117_19513"/><feBlend in="SourceGraphic" in2="effect4_dropShadow_4117_19513" result="shape"/><feColorMatrix in="SourceAlpha" result="hardAlpha" values="0 0 0 0 0 0 0 0 0 0 0 0 0 0 0 0 0 0 127 0"/><feOffset/><feGaussianBlur stdDeviation="1.354"/><feComposite in2="hardAlpha" k2="-1" k3="1" operator="arithmetic"/><feColorMatrix values="0 0 0 0 0 0 0 0 0 0 0 0 0 0 0 0 0 0 0.04 0"/><feBlend in2="shape" result="effect5_innerShadow_4117_19513"/><feColorMatrix in="SourceAlpha" result="hardAlpha" values="0 0 0 0 0 0 0 0 0 0 0 0 0 0 0 0 0 0 127 0"/><feOffset dy=".339"/><feGaussianBlur stdDeviation=".339"/><feComposite in2="hardAlpha" k2="-1" k3="1" operator="arithmetic"/><feColorMatrix values="0 0 0 0 0 0 0 0 0 0 0 0 0 0 0 0 0 0 0.06 0"/><feBlend in2="effect5_innerShadow_4117_19513" result="effect6_innerShadow_4117_19513"/><feColorMatrix in="SourceAlpha" result="hardAlpha" values="0 0 0 0 0 0 0 0 0 0 0 0 0 0 0 0 0 0 127 0"/><feOffset dy="-.677"/><feGaussianBlur stdDeviation=".169"/><feComposite in2="hardAlpha" k2="-1" k3="1" operator="arithmetic"/><feColorMatrix values="0 0 0 0 0 0 0 0 0 0 0 0 0 0 0 0 0 0 0.04 0"/><feBlend in2="effect6_innerShadow_4117_19513" result="effect7_innerShadow_4117_19513"/></filter><filter id="k" width="70.416" height="70.755" x="16.249" y="95.808" color-interpolation-filters="sRGB" filterUnits="userSpaceOnUse"><feFlood flood-opacity="0" result="BackgroundImageFix"/><feColorMatrix in="SourceAlpha" result="hardAlpha" values="0 0 0 0 0 0 0 0 0 0 0 0 0 0 0 0 0 0 127 0"/><feOffset dy="1.354"/><feGaussianBlur stdDeviation=".677"/><feComposite in2="hardAlpha" operator="out"/><feColorMatrix values="0 0 0 0 0 0 0 0 0 0 0 0 0 0 0 0 0 0 0.04 0"/><feBlend in2="BackgroundImageFix" result="effect1_dropShadow_4117_19513"/><feColorMatrix in="SourceAlpha" result="hardAlpha" values="0 0 0 0 0 0 0 0 0 0 0 0 0 0 0 0 0 0 127 0"/><feOffset dy="2.031"/><feGaussianBlur stdDeviation="1.016"/><feComposite in2="hardAlpha" operator="out"/><feColorMatrix values="0 0 0 0 0.105882 0 0 0 0 0.105882 0 0 0 0 0.105882 0 0 0 0.03 0"/><feBlend in2="effect1_dropShadow_4117_19513" result="effect2_dropShadow_4117_19513"/><feColorMatrix in="SourceAlpha" result="hardAlpha" values="0 0 0 0 0 0 0 0 0 0 0 0 0 0 0 0 0 0 127 0"/><feOffset dy="2.708"/><feGaussianBlur stdDeviation="1.354"/><feComposite in2="hardAlpha" operator="out"/><feColorMatrix values="0 0 0 0 0 0 0 0 0 0 0 0 0 0 0 0 0 0 0.03 0"/><feBlend in2="effect2_dropShadow_4117_19513" result="effect3_dropShadow_4117_19513"/><feColorMatrix in="SourceAlpha" result="hardAlpha" values="0 0 0 0 0 0 0 0 0 0 0 0 0 0 0 0 0 0 127 0"/><feOffset dy="5.417"/><feGaussianBlur stdDeviation="2.708"/><feComposite in2="hardAlpha" operator="out"/><feColorMatrix values="0 0 0 0 0 0 0 0 0 0 0 0 0 0 0 0 0 0 0.02 0"/><feBlend in2="effect3_dropShadow_4117_19513" result="effect4_dropShadow_4117_19513"/><feBlend in="SourceGraphic" in2="effect4_dropShadow_4117_19513" result="shape"/><feColorMatrix in="SourceAlpha" result="hardAlpha" values="0 0 0 0 0 0 0 0 0 0 0 0 0 0 0 0 0 0 127 0"/><feOffset/><feGaussianBlur stdDeviation="1.354"/><feComposite in2="hardAlpha" k2="-1" k3="1" operator="arithmetic"/><feColorMatrix values="0 0 0 0 0 0 0 0 0 0 0 0 0 0 0 0 0 0 0.04 0"/><feBlend in2="shape" result="effect5_innerShadow_4117_19513"/><feColorMatrix in="SourceAlpha" result="hardAlpha" values="0 0 0 0 0 0 0 0 0 0 0 0 0 0 0 0 0 0 127 0"/><feOffset dy=".339"/><feGaussianBlur stdDeviation=".339"/><feComposite in2="hardAlpha" k2="-1" k3="1" operator="arithmetic"/><feColorMatrix values="0 0 0 0 0 0 0 0 0 0 0 0 0 0 0 0 0 0 0.06 0"/><feBlend in2="effect5_innerShadow_4117_19513" result="effect6_innerShadow_4117_19513"/><feColorMatrix in="SourceAlpha" result="hardAlpha" values="0 0 0 0 0 0 0 0 0 0 0 0 0 0 0 0 0 0 127 0"/><feOffset dy="-.677"/><feGaussianBlur stdDeviation=".169"/><feComposite in2="hardAlpha" k2="-1" k3="1" operator="arithmetic"/><feColorMatrix values="0 0 0 0 0 0 0 0 0 0 0 0 0 0 0 0 0 0 0.04 0"/><feBlend in2="effect6_innerShadow_4117_19513" result="effect7_innerShadow_4117_19513"/></filter><filter id="l" width="78.282" height="20.312" x="41.051" y="176.764" color-interpolation-filters="sRGB" filterUnits="userSpaceOnUse"><feFlood flood-opacity="0" result="BackgroundImageFix"/><feColorMatrix in="SourceAlpha" result="hardAlpha" values="0 0 0 0 0 0 0 0 0 0 0 0 0 0 0 0 0 0 127 0"/><feOffset dy="1.711"/><feGaussianBlur stdDeviation=".855"/><feComposite in2="hardAlpha" operator="out"/><feColorMatrix values="0 0 0 0 0 0 0 0 0 0 0 0 0 0 0 0 0 0 0.15 0"/><feBlend in2="BackgroundImageFix" result="effect1_dropShadow_4117_19513"/><feBlend in="SourceGraphic" in2="effect1_dropShadow_4117_19513" result="shape"/></filter><filter id="m" width="118.881" height="59.868" x="178.323" y="33.934" color-interpolation-filters="sRGB" filterUnits="userSpaceOnUse"><feFlood flood-opacity="0" result="BackgroundImageFix"/><feColorMatrix in="SourceAlpha" result="hardAlpha" values="0 0 0 0 0 0 0 0 0 0 0 0 0 0 0 0 0 0 127 0"/><feOffset dy="1.711"/><feGaussianBlur stdDeviation=".855"/><feComposite in2="hardAlpha" operator="out"/><feColorMatrix values="0 0 0 0 0 0 0 0 0 0 0 0 0 0 0 0 0 0 0.15 0"/><feBlend in2="BackgroundImageFix" result="effect1_dropShadow_4117_19513"/><feBlend in="SourceGraphic" in2="effect1_dropShadow_4117_19513" result="shape"/></filter><linearGradient id="c" x1="152.344" x2="152.344" y1="188.229" y2="209.896" gradientUnits="userSpaceOnUse"><stop stop-color="#091315"/><stop offset="1" stop-color="#091315"/></linearGradient><linearGradient id="d" x1="189.922" x2="189.922" y1="188.229" y2="209.896" gradientUnits="userSpaceOnUse"><stop stop-color="#fff" stop-opacity="0"/><stop offset="1" stop-color="#555"/></linearGradient><linearGradient id="e" x1="189.92" x2="189.92" y1="194.187" y2="204.547" gradientUnits="userSpaceOnUse"><stop stop-color="#fff" stop-opacity=".96"/><stop offset="1" stop-color="#fff" stop-opacity=".88"/></linearGradient><linearGradient id="i" x1="162.501" x2="162.501" y1="166.562" y2="180.104" gradientUnits="userSpaceOnUse"><stop stop-color="#fff" stop-opacity="0"/><stop offset="1" stop-color="#fff"/></linearGradient></defs></svg>