<svg width="289" height="289" viewBox="0 0 289 289" fill="none" xmlns="http://www.w3.org/2000/svg">
<g clip-path="url(#clip0_4135_19786)">
<mask id="mask0_4135_19786" style="mask-type:luminance" maskUnits="userSpaceOnUse" x="0" y="0" width="289" height="289">
<path d="M289 289L289 0L0 -1.26326e-05L-1.26326e-05 289L289 289Z" fill="white"/>
</mask>
<g mask="url(#mask0_4135_19786)">
<path fill-rule="evenodd" clip-rule="evenodd" d="M279 -4.37113e-07C284.523 -1.95702e-07 289 4.47715 289 10L289 86.3334C289 91.8562 284.523 96.3334 279 96.3334L192.667 96.3334L192.667 9.99999C192.667 4.47714 197.144 -4.01516e-06 202.667 -3.77375e-06L279 -4.37113e-07ZM192.667 192.666L192.667 96.3334L96.3338 96.3334L96.3338 9.99998C96.3338 4.47713 91.8567 -8.61741e-06 86.3338 -8.85882e-06L10 -1.21955e-05C4.47717 -1.24369e-05 8.41634e-06 4.47714 8.17493e-06 9.99999L4.83829e-06 86.3334C4.59688e-06 91.8562 4.47716 96.3334 10 96.3334L96.3338 96.3334L96.3338 192.666L10 192.666C4.47716 192.666 -5.36244e-09 197.143 -2.46774e-07 202.666L-3.58343e-06 279C-3.82484e-06 284.523 4.47715 289 10 289L86.3338 289C91.8567 289 96.3338 284.523 96.3338 279L96.3338 192.666L192.667 192.666ZM192.667 192.666L192.667 279C192.667 284.523 197.144 289 202.667 289L279 289C284.523 289 289 284.523 289 279L289 202.666C289 197.143 284.523 192.666 279 192.666L192.667 192.666Z" fill="url(#paint0_linear_4135_19786)"/>
</g>
</g>
<defs>
<linearGradient id="paint0_linear_4135_19786" x1="261.545" y1="39.7375" x2="36.8475" y2="215.305" gradientUnits="userSpaceOnUse">
<stop stop-color="#FFD9A0"/>
<stop offset="1" stop-color="#FFF5F1"/>
</linearGradient>
<clipPath id="clip0_4135_19786">
<rect width="289" height="289" fill="white" transform="translate(289) rotate(90)"/>
</clipPath>
</defs>
</svg>
