<svg width="455" height="263" viewBox="0 0 455 263" fill="none" xmlns="http://www.w3.org/2000/svg">
<path d="M57 77L56.5189 76.1233L56.5189 76.1233L57 77ZM213 257L213.375 256.073L213 257ZM249 45L249.743 45.669L249.743 45.669L249 45ZM353 153L352.797 152.021L353 153ZM449.894 0.552265C449.647 0.0584309 449.046 -0.141443 448.552 0.105833L440.505 4.13544C440.011 4.38272 439.811 4.98351 440.058 5.47735C440.306 5.97118 440.906 6.17105 441.4 5.92378L448.554 2.3419L452.135 9.49523C452.383 9.98907 452.984 10.1889 453.477 9.94167C453.971 9.69439 454.171 9.0936 453.924 8.59976L449.894 0.552265ZM1 185C1.98609 185.166 1.98609 185.166 1.98609 185.166C1.98609 185.166 1.98609 185.166 1.98609 185.166C1.98609 185.166 1.98609 185.166 1.98609 185.166C1.98609 185.166 1.98611 185.166 1.98613 185.166C1.98616 185.166 1.98623 185.165 1.98632 185.165C1.98651 185.164 1.9868 185.162 1.98721 185.16C1.98802 185.155 1.98926 185.148 1.99095 185.138C1.99433 185.118 1.99947 185.088 2.00639 185.048C2.02023 184.968 2.04119 184.849 2.0694 184.691C2.12584 184.375 2.21132 183.906 2.32693 183.297L1.34447 183.11L0.361997 182.924C0.245002 183.541 0.158242 184.017 0.100601 184.339C0.0717802 184.5 0.0502385 184.623 0.0358362 184.706C0.028635 184.748 0.0232186 184.779 0.0195695 184.801C0.017745 184.811 0.0163623 184.819 0.0154192 184.825C0.0149477 184.828 0.014586 184.83 0.0143341 184.831C0.0142081 184.832 0.0141095 184.833 0.0140383 184.833C0.0140027 184.833 0.0139739 184.833 0.013952 184.834C0.013941 184.834 0.0139318 184.834 0.0139242 184.834C0.0139205 184.834 0.0139161 184.834 0.0139142 184.834C0.0139102 184.834 0.0139067 184.834 1 185ZM2.115 179.256L3.09387 179.461C3.32709 178.345 3.59869 177.083 3.91014 175.694L2.93434 175.475L1.95854 175.256C1.64489 176.656 1.37125 177.927 1.13614 179.052L2.115 179.256ZM3.82012 171.644L4.7929 171.876C5.0787 170.676 5.38771 169.412 5.72052 168.091L4.75081 167.847L3.7811 167.602C3.44611 168.932 3.13507 170.205 2.84735 171.412L3.82012 171.644ZM5.72704 164.072L6.69358 164.328C7.01639 163.112 7.35707 161.858 7.71603 160.571L6.75281 160.303L5.7896 160.034C5.4283 161.329 5.08539 162.591 4.76049 163.815L5.72704 164.072ZM7.82776 156.543L8.78743 156.825C9.14532 155.603 9.51857 154.358 9.90749 153.092L8.95163 152.799L7.99576 152.505C7.60417 153.779 7.22838 155.033 6.8681 156.262L7.82776 156.543ZM10.1214 149.082L11.0732 149.389C11.4651 148.173 11.871 146.942 12.291 145.699L11.3436 145.379L10.3962 145.059C9.9731 146.311 9.5643 147.551 9.16958 148.776L10.1214 149.082ZM12.6204 141.689L13.563 142.023C13.9924 140.811 14.435 139.59 14.8911 138.363L13.9538 138.015L13.0165 137.667C12.5567 138.903 12.1106 140.134 11.6778 141.355L12.6204 141.689ZM15.3459 134.36L16.2774 134.724C16.7462 133.523 17.2278 132.319 17.7224 131.113L16.7972 130.733L15.8719 130.354C15.3729 131.57 14.8871 132.786 14.4143 133.997L15.3459 134.36ZM18.31 127.137L19.2282 127.533C19.7399 126.347 20.2644 125.161 20.8017 123.979L19.8914 123.565L18.981 123.151C18.4381 124.346 17.9084 125.543 17.3918 126.74L18.31 127.137ZM21.5441 120.025L22.4458 120.457C23.0053 119.29 23.5777 118.129 24.1632 116.974L23.2713 116.522L22.3794 116.069C21.787 117.238 21.2081 118.413 20.6424 119.592L21.5441 120.025ZM25.0781 113.059L25.959 113.533C26.5724 112.391 27.199 111.258 27.8391 110.137L26.9706 109.641L26.1022 109.146C25.4533 110.282 24.8183 111.43 24.1972 112.586L25.0781 113.059ZM28.9534 106.276L29.8078 106.796C30.4812 105.689 31.1685 104.595 31.8698 103.518L31.0316 102.972L30.1934 102.427C29.4807 103.522 28.7827 104.633 28.0991 105.756L28.9534 106.276ZM33.2138 99.7353L34.0334 100.308C34.7771 99.2441 35.5355 98.1986 36.3086 97.174L35.5103 96.5716L34.7121 95.9693C33.9237 97.0142 33.1511 98.0793 32.3941 99.1625L33.2138 99.7353ZM37.9245 93.4997L38.6981 94.1334C39.5193 93.1311 40.3561 92.153 41.2086 91.2015L40.4638 90.5342L39.719 89.8669C38.846 90.8413 37.9901 91.8418 37.151 92.8659L37.9245 93.4997ZM43.1358 87.6918L43.8472 88.3945C44.7553 87.4752 45.6801 86.5865 46.6217 85.7308L45.9492 84.9908L45.2767 84.2507C44.3073 85.1315 43.3566 86.0452 42.4243 86.989L43.1358 87.6918ZM48.9184 82.4478L49.5455 83.2267C50.5502 82.4178 51.5727 81.6468 52.6134 80.9161L52.0388 80.0977L51.4642 79.2792C50.3862 80.0361 49.3286 80.8336 48.2913 81.6689L48.9184 82.4478ZM55.3114 77.9693L55.8256 78.827C56.3727 78.499 56.9245 78.1821 57.4811 77.8767L57 77L56.5189 76.1233C55.9396 76.4412 55.3657 76.7708 54.7972 77.1117L55.3114 77.9693ZM57 77L57.4811 77.8767C58.1022 77.5358 58.7179 77.2113 59.328 76.903L58.877 76.0105L58.426 75.1179C57.795 75.4368 57.1594 75.7719 56.5189 76.1233L57 77ZM62.5403 74.3209L62.9244 75.2442C64.1965 74.715 65.4439 74.2586 66.6675 73.8722L66.3664 72.9186L66.0652 71.965C64.7826 72.3701 63.4798 72.847 62.1561 73.3977L62.5403 74.3209ZM70.2077 71.9112L70.4108 72.8904C71.7554 72.6115 73.0706 72.4205 74.3579 72.3131L74.2748 71.3165L74.1917 70.32C72.8208 70.4344 71.4255 70.6374 70.0047 70.932L70.2077 71.9112ZM78.3093 71.2449L78.2597 72.2436C79.5746 72.3089 80.8615 72.4647 82.1224 72.707L82.311 71.725L82.4997 70.7429C81.1469 70.483 79.7671 70.316 78.3589 70.2461L78.3093 71.2449ZM86.2303 72.7689L85.9064 73.715C87.1297 74.1338 88.3305 74.6372 89.5105 75.2216L89.9543 74.3255L90.3981 73.4294C89.1437 72.8082 87.863 72.2709 86.5542 71.8228L86.2303 72.7689ZM93.4738 76.3359L92.9296 77.1749C94.0186 77.8812 95.0903 78.6583 96.1463 79.5029L96.7709 78.722L97.3955 77.9411C96.2914 77.0579 95.1661 76.2417 94.018 75.497L93.4738 76.3359ZM99.8018 81.3645L99.115 82.0914C100.064 82.9876 101 83.9386 101.924 84.9418L102.659 84.2642L103.395 83.5867C102.441 82.552 101.473 81.5678 100.488 80.6376L99.8018 81.3645ZM105.317 87.327L104.544 87.9611C105.371 88.9694 106.188 90.0189 106.998 91.1076L107.8 90.5111L108.603 89.9146C107.776 88.8022 106.939 87.7274 106.09 86.6928L105.317 87.327ZM110.175 93.8509L109.349 94.4143C110.084 95.4915 110.812 96.6002 111.533 97.7387L112.378 97.2033L113.223 96.6679C112.49 95.5118 111.75 94.3844 111.002 93.2874L110.175 93.8509ZM114.524 100.703L113.664 101.214C114.333 102.34 114.997 103.491 115.657 104.665L116.529 104.175L117.401 103.685C116.734 102.498 116.062 101.333 115.384 100.192L114.524 100.703ZM118.499 107.77L117.617 108.242C118.238 109.403 118.855 110.585 119.47 111.784L120.36 111.328L121.25 110.872C120.63 109.663 120.007 108.471 119.381 107.299L118.499 107.77ZM122.202 114.993L121.305 115.435C121.89 116.62 122.472 117.821 123.052 119.035L123.955 118.604L124.857 118.173C124.273 116.951 123.687 115.743 123.099 114.55L122.202 114.993ZM125.695 122.301L124.788 122.722C125.349 123.929 125.908 125.148 126.466 126.379L127.377 125.966L128.288 125.552C127.727 124.317 127.166 123.092 126.602 121.879L125.695 122.301ZM129.044 129.677L128.13 130.084C128.674 131.308 129.218 132.543 129.762 133.786L130.678 133.385L131.594 132.984C131.049 131.738 130.504 130.5 129.957 129.271L129.044 129.677ZM132.294 137.104L131.376 137.5C131.911 138.738 132.445 139.983 132.98 141.234L133.9 140.841L134.819 140.448C134.283 139.194 133.748 137.947 133.212 136.707L132.294 137.104ZM135.485 144.562L134.565 144.953C135.094 146.198 135.624 147.449 136.155 148.704L137.076 148.314L137.997 147.925C137.465 146.669 136.935 145.417 136.406 144.171L135.485 144.562ZM138.65 152.036L137.729 152.426C138.254 153.67 138.782 154.917 139.311 156.167L140.232 155.777L141.153 155.387C140.624 154.138 140.097 152.891 139.571 151.647L138.65 152.036ZM141.816 159.511L140.896 159.903C141.425 161.145 141.955 162.39 142.488 163.635L143.408 163.241L144.327 162.847C143.794 161.604 143.264 160.361 142.737 159.12L141.816 159.511ZM145.012 166.972L144.094 167.369C144.631 168.61 145.17 169.851 145.712 171.091L146.628 170.69L147.545 170.289C147.004 169.052 146.466 167.814 145.93 166.575L145.012 166.972ZM148.263 174.402L147.349 174.808C147.899 176.047 148.452 177.284 149.009 178.519L149.921 178.108L150.832 177.697C150.277 176.466 149.726 175.232 149.177 173.997L148.263 174.402ZM151.601 181.799L150.692 182.216C151.259 183.449 151.83 184.678 152.405 185.903L153.31 185.478L154.215 185.052C153.642 183.833 153.074 182.609 152.51 181.381L151.601 181.799ZM155.053 189.145L154.152 189.579C154.739 190.799 155.331 192.014 155.928 193.224L156.825 192.781L157.722 192.338C157.128 191.135 156.539 189.926 155.954 188.712L155.053 189.145ZM158.648 196.421L157.757 196.874C158.372 198.084 158.993 199.287 159.62 200.482L160.505 200.018L161.391 199.553C160.768 198.366 160.151 197.17 159.54 195.967L158.648 196.421ZM162.418 203.602L161.539 204.079C162.189 205.277 162.845 206.465 163.509 207.644L164.38 207.153L165.252 206.662C164.593 205.493 163.942 204.314 163.297 203.125L162.418 203.602ZM166.396 210.663L165.534 211.169C166.226 212.35 166.925 213.52 167.633 214.677L168.486 214.155L169.339 213.633C168.638 212.487 167.945 211.329 167.259 210.158L166.396 210.663ZM170.624 217.572L169.782 218.111C170.524 219.27 171.275 220.415 172.035 221.544L172.865 220.986L173.694 220.427C172.943 219.311 172.2 218.179 171.466 217.033L170.624 217.572ZM175.16 224.307L174.344 224.886C175.14 226.007 175.946 227.111 176.762 228.198L177.562 227.597L178.361 226.996C177.556 225.925 176.761 224.835 175.975 223.729L175.16 224.307ZM180.04 230.794L179.259 231.419C180.116 232.492 180.986 233.544 181.867 234.576L182.628 233.926L183.388 233.276C182.521 232.262 181.665 231.226 180.821 230.17L180.04 230.794ZM185.314 236.96L184.578 237.636C185.507 238.647 186.449 239.635 187.405 240.597L188.115 239.893L188.824 239.188C187.887 238.245 186.963 237.276 186.051 236.283L185.314 236.96ZM191.033 242.71L190.354 243.444C191.363 244.376 192.386 245.281 193.425 246.156L194.069 245.391L194.714 244.627C193.699 243.772 192.698 242.888 191.712 241.976L191.033 242.71ZM197.236 247.928L196.631 248.724C197.724 249.555 198.834 250.355 199.961 251.12L200.523 250.293L201.085 249.466C199.988 248.721 198.907 247.942 197.841 247.132L197.236 247.928ZM203.941 252.477L203.428 253.334C204.604 254.039 205.8 254.708 207.014 255.339L207.475 254.452L207.936 253.565C206.759 252.952 205.598 252.303 204.455 251.619L203.941 252.477ZM211.13 256.209L210.725 257.123C211.354 257.401 211.987 257.669 212.625 257.927L213 257L213.375 256.073C212.757 255.823 212.143 255.564 211.534 255.294L211.13 256.209ZM213 257L212.625 257.927C213.288 258.195 213.947 258.451 214.603 258.696L214.952 257.759L215.301 256.822C214.663 256.584 214.021 256.334 213.375 256.073L213 257ZM218.785 259.065L218.49 260.021C219.771 260.416 221.037 260.765 222.289 261.068L222.525 260.097L222.761 259.125C221.55 258.831 220.323 258.493 219.08 258.109L218.785 259.065ZM226.457 260.909L226.289 261.895C227.652 262.127 228.996 262.303 230.322 262.426L230.414 261.43L230.506 260.434C229.232 260.316 227.938 260.147 226.624 259.923L226.457 260.909ZM234.303 261.634L234.292 262.634C235.688 262.651 237.063 262.606 238.415 262.501L238.338 261.504L238.261 260.507C236.968 260.607 235.653 260.65 234.315 260.634L234.303 261.634ZM242.24 261.023L242.408 262.009C243.761 261.779 245.09 261.487 246.396 261.136L246.136 260.17L245.876 259.204C244.631 259.539 243.363 259.818 242.072 260.037L242.24 261.023ZM249.919 258.958L250.268 259.895C251.535 259.423 252.778 258.892 253.996 258.306L253.562 257.405L253.128 256.504C251.964 257.064 250.778 257.571 249.569 258.021L249.919 258.958ZM257.066 255.523L257.577 256.382C258.735 255.694 259.868 254.954 260.978 254.164L260.398 253.35L259.818 252.535C258.752 253.294 257.664 254.004 256.555 254.663L257.066 255.523ZM263.532 250.933L264.172 251.701C265.212 250.835 266.229 249.924 267.224 248.97L266.532 248.248L265.84 247.527C264.877 248.45 263.895 249.329 262.892 250.164L263.532 250.933ZM269.275 245.446L270.011 246.124C270.919 245.137 271.808 244.112 272.676 243.053L271.903 242.419L271.129 241.785C270.284 242.816 269.421 243.811 268.539 244.769L269.275 245.446ZM274.334 239.288L275.139 239.882C275.924 238.816 276.691 237.721 277.441 236.596L276.609 236.041L275.777 235.486C275.044 236.586 274.294 237.656 273.529 238.695L274.334 239.288ZM278.778 232.63L279.633 233.148C280.309 232.032 280.971 230.892 281.617 229.728L280.742 229.243L279.868 228.757C279.234 229.9 278.585 231.018 277.922 232.112L278.778 232.63ZM282.618 225.715L283.509 226.169C284.115 224.981 284.705 223.772 285.282 222.543L284.376 222.118L283.471 221.694C282.903 222.904 282.322 224.093 281.727 225.261L282.618 225.715ZM285.995 218.525L286.913 218.923C287.443 217.698 287.96 216.456 288.464 215.197L287.536 214.826L286.607 214.454C286.11 215.696 285.6 216.921 285.077 218.128L285.995 218.525ZM288.968 211.107L289.905 211.455C290.363 210.22 290.808 208.971 291.242 207.709L290.296 207.384L289.35 207.059C288.922 208.307 288.482 209.541 288.03 210.76L288.968 211.107ZM291.554 203.58L292.507 203.884C292.91 202.619 293.301 201.343 293.681 200.055L292.721 199.772L291.762 199.489C291.386 200.764 290.999 202.026 290.601 203.277L291.554 203.58ZM293.803 195.965L294.767 196.229C295.119 194.943 295.46 193.648 295.79 192.343L294.82 192.098L293.851 191.853C293.524 193.145 293.186 194.428 292.838 195.701L293.803 195.965ZM295.763 188.221L296.737 188.449C297.037 187.163 297.328 185.869 297.608 184.568L296.63 184.357L295.653 184.146C295.375 185.436 295.087 186.719 294.789 187.994L295.763 188.221ZM297.438 180.45L298.419 180.645C298.679 179.337 298.928 178.022 299.168 176.702L298.184 176.524L297.2 176.345C296.962 177.655 296.715 178.959 296.457 180.256L297.438 180.45ZM298.862 172.618L299.848 172.782C300.066 171.47 300.274 170.154 300.472 168.834L299.483 168.685L298.494 168.536C298.297 169.847 298.091 171.153 297.875 172.455L298.862 172.618ZM300.049 164.729L301.04 164.863C301.218 163.548 301.387 162.23 301.547 160.91L300.554 160.79L299.561 160.67C299.402 161.981 299.235 163.289 299.058 164.595L300.049 164.729ZM301.005 156.836L301.999 156.943C302.141 155.619 302.274 154.293 302.398 152.966L301.402 152.873L300.406 152.78C300.283 154.098 300.152 155.415 300.011 156.73L301.005 156.836ZM301.746 148.903L302.742 148.983C302.848 147.655 302.945 146.326 303.034 144.998L302.036 144.932L301.038 144.866C300.95 146.185 300.854 147.504 300.749 148.824L301.746 148.903ZM302.273 140.963L303.272 141.017C303.343 139.684 303.405 138.353 303.458 137.023L302.459 136.983L301.46 136.943C301.407 138.264 301.345 139.587 301.275 140.91L302.273 140.963ZM302.592 132.995L303.592 133.022C303.628 131.691 303.655 130.362 303.673 129.037L302.673 129.023L301.673 129.009C301.655 130.326 301.628 131.646 301.593 132.969L302.592 132.995ZM302.701 125.051L303.701 125.052C303.702 123.708 303.694 122.369 303.676 121.034L302.676 121.047L301.676 121.06C301.694 122.386 301.702 123.716 301.701 125.051L302.701 125.051ZM302.598 117.073L303.597 117.047C303.562 115.72 303.518 114.399 303.465 113.084L302.465 113.124L301.466 113.165C301.519 114.47 301.563 115.782 301.598 117.1L302.598 117.073ZM302.274 109.107L303.272 109.053C303.199 107.716 303.116 106.388 303.024 105.068L302.027 105.137L301.029 105.207C301.12 106.517 301.203 107.836 301.275 109.162L302.274 109.107ZM301.724 101.218L302.721 101.134C302.606 99.7769 302.481 98.4305 302.346 97.0953L301.351 97.1958L300.356 97.2964C300.49 98.6208 300.614 99.9565 300.728 101.303L301.724 101.218ZM300.918 93.2409L301.911 93.1238C301.756 91.8085 301.591 90.5053 301.417 89.2151L300.426 89.3493L299.435 89.4836C299.608 90.7621 299.771 92.0539 299.925 93.358L300.918 93.2409ZM299.844 85.3402L300.832 85.1872C300.627 83.8597 300.411 82.5479 300.184 81.2527L299.199 81.4253L298.214 81.5979C298.438 82.8797 298.653 84.1785 298.856 85.4931L299.844 85.3402ZM298.477 77.548L299.458 77.3544C299.192 76.0066 298.914 74.6792 298.624 73.3734L297.648 73.5904L296.672 73.8073C296.958 75.097 297.233 76.4089 297.496 77.7415L298.477 77.548ZM296.747 69.7644L297.717 69.5226C297.386 68.1939 297.042 66.8907 296.684 65.6147L295.722 65.8845L294.759 66.1544C295.111 67.411 295.45 68.6955 295.777 70.0061L296.747 69.7644ZM294.583 62.0575L295.537 61.7564C295.131 60.4727 294.711 59.2206 294.277 58.0024L293.335 58.3383L292.393 58.6742C292.819 59.8682 293.231 61.097 293.629 62.3586L294.583 62.0575ZM291.891 54.5486L292.817 54.1713C292.311 52.9312 291.789 51.7327 291.25 50.5786L290.344 51.002L289.438 51.4253C289.962 52.5472 290.471 53.7148 290.965 54.9259L291.891 54.5486ZM288.495 47.3484L289.371 46.8671C288.716 45.6737 288.039 44.54 287.339 43.4701L286.502 44.0175L285.665 44.5649C286.334 45.5883 286.986 46.6776 287.618 47.8297L288.495 47.3484ZM284.11 40.7301L284.886 40.0986C283.994 39.0034 283.069 38.0027 282.11 37.1045L281.427 37.8341L280.743 38.5637C281.629 39.3945 282.493 40.3284 283.335 41.3616L284.11 40.7301ZM278.336 35.3954L278.879 34.556C277.664 33.7696 276.402 33.1371 275.094 32.673L274.76 33.6155L274.426 34.5579C275.575 34.9658 276.698 35.5263 277.792 36.2349L278.336 35.3954ZM270.927 32.7957L271.005 31.7988C269.627 31.6908 268.217 31.7616 266.777 32.0181L266.952 33.0026L267.128 33.9871C268.407 33.7593 269.647 33.6984 270.848 33.7927L270.927 32.7957ZM263.172 34.102L262.8 33.1737C261.603 33.6531 260.39 34.2552 259.161 34.9823L259.67 35.8429L260.18 36.7035C261.328 36.0237 262.45 35.4684 263.544 35.0303L263.172 34.102ZM256.301 38.1312L255.693 37.3369C254.698 38.0976 253.693 38.9389 252.677 39.8624L253.35 40.6024L254.022 41.3423C255 40.4538 255.962 39.6492 256.908 38.9255L256.301 38.1312ZM250.467 43.4184L249.745 42.7268C249.252 43.2423 248.755 43.7769 248.257 44.331L249 45L249.743 45.669C250.229 45.1296 250.711 44.6101 251.19 44.1101L250.467 43.4184ZM249 45L248.257 44.331C247.79 44.8492 247.341 45.3722 246.909 45.8999L247.682 46.5337L248.456 47.1676C248.868 46.6641 249.297 46.1645 249.743 45.669L249 45ZM245.328 49.7029L244.497 49.1467C243.729 50.2941 243.034 51.4601 242.41 52.6426L243.294 53.1094L244.179 53.5761C244.77 52.4558 245.429 51.3496 246.159 50.2592L245.328 49.7029ZM241.633 56.7211L240.703 56.3538C240.199 57.6284 239.772 58.9186 239.418 60.2219L240.383 60.484L241.348 60.7462C241.683 59.5138 242.087 58.2939 242.563 57.0885L241.633 56.7211ZM239.556 64.3599L238.568 64.2048C238.357 65.5453 238.219 66.8962 238.15 68.2552L239.149 68.3059L240.147 68.3566C240.213 67.0658 240.344 65.7846 240.544 64.5151L239.556 64.3599ZM239.146 72.2801L238.147 72.328C238.211 73.6692 238.339 75.0158 238.527 76.3655L239.518 76.2274L240.508 76.0893C240.328 74.7972 240.206 73.5109 240.145 72.2321L239.146 72.2801ZM240.229 80.1256L239.253 80.3448C239.546 81.6468 239.892 82.95 240.289 84.2525L241.245 83.961L242.202 83.6695C241.819 82.4128 241.486 81.1578 241.204 79.9063L240.229 80.1256ZM242.535 87.7232L241.6 88.0787C242.074 89.324 242.592 90.5672 243.153 91.807L244.064 91.3948L244.975 90.9826C244.431 89.7787 243.928 88.5732 243.469 87.3676L242.535 87.7232ZM245.796 94.9531L244.91 95.4152C245.523 96.5924 246.173 97.7651 246.859 98.932L247.721 98.4254L248.583 97.9188C247.914 96.7801 247.28 95.6371 246.683 94.491L245.796 94.9531ZM249.821 101.811L248.983 102.357C249.707 103.466 250.462 104.569 251.246 105.663L252.059 105.081L252.872 104.499C252.104 103.427 251.365 102.348 250.658 101.264L249.821 101.811ZM254.434 108.258L253.645 108.873C254.463 109.922 255.307 110.963 256.176 111.995L256.941 111.351L257.705 110.707C256.852 109.694 256.024 108.673 255.223 107.644L254.434 108.258ZM259.55 114.338L258.809 115.009C259.699 115.992 260.612 116.966 261.546 117.929L262.264 117.233L262.982 116.537C262.064 115.59 261.166 114.633 260.291 113.666L259.55 114.338ZM265.082 120.044L264.388 120.763C265.342 121.684 266.316 122.594 267.307 123.492L267.978 122.751L268.649 122.01C267.674 121.126 266.716 120.231 265.777 119.324L265.082 120.044ZM270.963 125.372L270.314 126.133C271.329 126.996 272.359 127.847 273.404 128.683L274.029 127.903L274.654 127.122C273.624 126.298 272.609 125.46 271.611 124.61L270.963 125.372ZM277.163 130.335L276.561 131.134C277.626 131.935 278.704 132.722 279.794 133.494L280.372 132.678L280.95 131.861C279.875 131.101 278.813 130.326 277.764 129.536L277.163 130.335ZM283.647 134.923L283.094 135.756C284.204 136.494 285.327 137.216 286.459 137.921L286.987 137.072L287.516 136.223C286.4 135.528 285.295 134.817 284.2 134.09L283.647 134.923ZM290.389 139.12L289.886 139.984C291.04 140.656 292.204 141.31 293.375 141.945L293.852 141.066L294.329 140.187C293.175 139.561 292.029 138.917 290.892 138.256L290.389 139.12ZM297.373 142.905L296.923 143.799C298.117 144.399 299.317 144.979 300.524 145.539L300.944 144.632L301.365 143.724C300.178 143.174 298.997 142.603 297.822 142.012L297.373 142.905ZM304.579 146.246L304.188 147.166C305.42 147.69 306.657 148.191 307.898 148.668L308.258 147.735L308.617 146.802C307.398 146.332 306.181 145.84 304.97 145.325L304.579 146.246ZM311.986 149.096L311.66 150.041C312.931 150.479 314.204 150.893 315.479 151.28L315.769 150.323L316.06 149.366C314.81 148.986 313.56 148.581 312.312 148.151L311.986 149.096ZM319.585 151.401L319.332 152.368C320.634 152.709 321.935 153.021 323.236 153.303L323.448 152.326L323.661 151.349C322.388 151.072 321.113 150.767 319.838 150.433L319.585 151.401ZM327.351 153.085L327.182 154.071C328.507 154.298 329.83 154.494 331.15 154.656L331.272 153.664L331.394 152.671C330.107 152.513 328.815 152.322 327.52 152.1L327.351 153.085ZM335.225 154.051L335.153 155.049C336.501 155.146 337.844 155.207 339.179 155.231L339.197 154.231L339.215 153.231C337.916 153.208 336.61 153.149 335.297 153.054L335.225 154.051ZM343.162 154.188L343.202 155.187C344.551 155.133 345.891 155.038 347.22 154.901L347.118 153.906L347.015 152.911C345.729 153.044 344.43 153.136 343.122 153.189L343.162 154.188ZM351.057 153.368L351.226 154.353C351.888 154.24 352.547 154.115 353.203 153.979L353 153L352.797 152.021C352.164 152.152 351.528 152.272 350.888 152.382L351.057 153.368ZM353 153L353.203 153.979C353.869 153.841 354.533 153.679 355.196 153.495L354.928 152.532L354.661 151.568C354.039 151.741 353.418 151.892 352.797 152.021L353 153ZM358.721 151.221L359.102 152.146C360.352 151.631 361.596 151.04 362.835 150.377L362.363 149.495L361.891 148.613C360.707 149.247 359.523 149.809 358.34 150.297L358.721 151.221ZM365.804 147.459L366.347 148.299C367.463 147.577 368.574 146.799 369.68 145.969L369.079 145.17L368.479 144.37C367.408 145.174 366.335 145.925 365.261 146.62L365.804 147.459ZM372.224 142.659L372.87 143.422C373.89 142.559 374.906 141.653 375.917 140.707L375.234 139.977L374.551 139.247C373.562 140.171 372.571 141.055 371.578 141.895L372.224 142.659ZM378.086 137.192L378.799 137.893C379.735 136.94 380.666 135.955 381.593 134.94L380.854 134.266L380.116 133.592C379.205 134.59 378.29 135.557 377.372 136.491L378.086 137.192ZM383.512 131.257L384.272 131.907C385.135 130.898 385.994 129.864 386.848 128.807L386.07 128.178L385.292 127.55C384.449 128.593 383.602 129.613 382.752 130.607L383.512 131.257ZM388.571 125L389.365 125.608C390.17 124.558 390.971 123.488 391.767 122.401L390.96 121.81L390.153 121.219C389.365 122.296 388.573 123.354 387.777 124.391L388.571 125ZM393.306 118.533L394.125 119.107C394.889 118.018 395.648 116.913 396.403 115.793L395.573 115.234L394.744 114.675C393.996 115.785 393.244 116.88 392.487 117.959L393.306 118.533ZM397.791 111.881L398.63 112.426C399.357 111.307 400.08 110.174 400.798 109.031L399.951 108.5L399.104 107.968C398.392 109.102 397.674 110.226 396.953 111.337L397.791 111.881ZM402.061 105.084L402.916 105.604C403.611 104.461 404.302 103.308 404.987 102.147L404.126 101.639L403.265 101.13C402.584 102.284 401.898 103.429 401.207 104.565L402.061 105.084ZM406.144 98.1707L407.012 98.6684C407.679 97.5064 408.34 96.3374 408.997 95.1628L408.124 94.675L407.251 94.1872C406.598 95.3554 405.94 96.5177 405.277 97.6729L406.144 98.1707ZM410.062 91.1611L410.94 91.6395C411.582 90.4621 412.218 89.2802 412.848 88.095L411.965 87.6255L411.082 87.1559C410.455 88.3353 409.822 89.5113 409.184 90.6826L410.062 91.1611ZM413.834 84.0708L414.721 84.532C415.34 83.3419 415.952 82.1496 416.559 80.9564L415.667 80.5032L414.776 80.0501C414.172 81.2381 413.562 82.425 412.947 83.6097L413.834 84.0708ZM417.474 76.9117L418.369 77.3573C418.967 76.1566 419.558 74.9561 420.142 73.757L419.244 73.3187L418.345 72.8805C417.762 74.0749 417.174 75.2705 416.579 76.4662L417.474 76.9117ZM420.994 69.6929L421.896 70.1242C422.475 68.9134 423.047 67.7053 423.612 66.501L422.706 66.0764L421.801 65.6517C421.238 66.8517 420.668 68.0554 420.092 69.2616L420.994 69.6929ZM424.404 62.422L425.313 62.8401C425.875 61.6183 426.43 60.4017 426.977 59.1918L426.066 58.7798L425.155 58.3678C424.61 59.5737 424.057 60.7861 423.496 62.0038L424.404 62.422ZM427.713 55.1059L428.626 55.5119C429.175 54.2774 429.715 53.0513 430.246 51.8352L429.329 51.4351L428.413 51.0349C427.883 52.2472 427.345 53.4694 426.799 54.7L427.713 55.1059ZM430.923 47.753L431.842 48.1475C432.379 46.8976 432.906 45.6602 433.422 44.437L432.501 44.048L431.579 43.6591C431.065 44.8787 430.539 46.1124 430.004 47.3585L430.923 47.753ZM434.039 40.3751L434.962 40.7587C435.489 39.4898 436.005 38.2388 436.508 37.0078L435.582 36.6296L434.656 36.2513C434.155 37.4789 433.641 38.7262 433.115 39.9915L434.039 40.3751ZM437.086 32.9184L438.014 33.2914C438.523 32.0258 439.017 30.7852 439.497 29.572L438.567 29.2041L437.637 28.8363C437.159 30.0462 436.666 31.2834 436.158 32.5454L437.086 32.9184ZM440.045 25.4367L440.977 25.7993C441.478 24.5111 441.961 23.2603 442.424 22.0503L441.49 21.6929L440.556 21.3356C440.094 22.5422 439.613 23.7895 439.113 25.0741L440.045 25.4367ZM442.904 17.9662L443.84 18.3182C444.332 17.0078 444.798 15.7583 445.235 14.575L444.297 14.2284L443.359 13.8818C442.923 15.0616 442.459 16.3075 441.968 17.6141L442.904 17.9662ZM445.678 10.4559L446.618 10.7966C447.131 9.38021 447.588 8.10193 447.987 6.97602L447.045 6.642L446.102 6.30797C445.705 7.42961 445.249 8.70345 444.737 10.1152L445.678 10.4559ZM448.37 2.85184L449.316 3.17733C449.524 2.5723 449.682 2.10765 449.788 1.79388C449.841 1.637 449.881 1.51783 449.908 1.43769C449.921 1.39762 449.932 1.36731 449.938 1.34692C449.942 1.33672 449.944 1.32901 449.946 1.32379C449.947 1.32119 449.948 1.31921 449.948 1.31785C449.948 1.31717 449.949 1.31665 449.949 1.31629C449.949 1.31611 449.949 1.31597 449.949 1.31587C449.949 1.31581 449.949 1.31577 449.949 1.31574C449.949 1.31572 449.949 1.31571 449.949 1.3157C449.949 1.31569 449.949 1.31568 449 1C448.051 0.684325 448.051 0.684318 448.051 0.684314C448.051 0.684316 448.051 0.684315 448.051 0.684318C448.051 0.684326 448.051 0.684344 448.051 0.684371C448.051 0.684426 448.051 0.68452 448.051 0.684653C448.051 0.68492 448.051 0.685343 448.051 0.685924C448.05 0.687085 448.05 0.688874 448.049 0.691287C448.047 0.696114 448.045 0.703441 448.041 0.713246C448.035 0.732856 448.025 0.762381 448.012 0.801658C447.986 0.880211 447.946 0.997769 447.893 1.15302C447.788 1.46353 447.632 1.9248 447.424 2.52635L448.37 2.85184Z" fill="white"/>
</svg>
