<svg width="456" height="306" viewBox="0 0 456 306" fill="none" xmlns="http://www.w3.org/2000/svg">
<path d="M90.9997 3.00009L90.7729 2.02615L90.9997 3.00009ZM42.9997 279L43.2519 278.032L42.9997 279ZM219 143L218.719 143.96L219 143ZM315 303L315.137 302.01L315 303ZM455.997 255.077C456.039 254.526 455.627 254.045 455.077 254.003L446.103 253.31C445.553 253.268 445.072 253.68 445.029 254.23C444.987 254.781 445.399 255.262 445.949 255.304L453.926 255.92L453.31 263.896C453.267 264.447 453.679 264.928 454.23 264.97C454.781 265.013 455.262 264.601 455.304 264.05L455.997 255.077ZM1.5 43.5C2.01248 44.3587 2.01247 44.3587 2.01247 44.3587C2.01247 44.3587 2.01247 44.3587 2.01248 44.3587C2.01248 44.3587 2.0125 44.3587 2.01253 44.3587C2.01258 44.3586 2.01267 44.3586 2.0128 44.3585C2.01305 44.3584 2.01346 44.3581 2.01401 44.3578C2.01511 44.3571 2.0168 44.3561 2.01908 44.3548C2.02364 44.352 2.03055 44.3479 2.0398 44.3424C2.05829 44.3314 2.08611 44.3149 2.12309 44.2929C2.19704 44.249 2.30763 44.1835 2.45351 44.0974C2.74525 43.9252 3.17811 43.6707 3.74126 43.3423L3.23751 42.4785L2.73375 41.6146C2.16745 41.9449 1.73155 42.2011 1.43691 42.375C1.28959 42.462 1.17757 42.5284 1.10222 42.5731C1.06455 42.5955 1.03604 42.6124 1.01687 42.6238C1.00728 42.6295 1.00003 42.6338 0.995129 42.6368C0.99268 42.6382 0.990819 42.6393 0.98955 42.6401C0.988916 42.6405 0.988429 42.6408 0.98809 42.641C0.987921 42.6411 0.987789 42.6411 0.987694 42.6412C0.987646 42.6412 0.987608 42.6412 0.987579 42.6413C0.987564 42.6413 0.98755 42.6413 0.987542 42.6413C0.98753 42.6413 0.98752 42.6413 1.5 43.5ZM6.81972 40.4129L7.31549 41.2813C8.36926 40.6798 9.5637 40.0028 10.8838 39.262L10.3944 38.3899L9.90508 37.5178C8.58047 38.2611 7.38176 38.9405 6.32394 39.5444L6.81972 40.4129ZM13.9634 36.4032L14.4469 37.2785C15.5897 36.6474 16.7964 35.9856 18.0608 35.2982L17.5832 34.4197L17.1055 33.5411C15.8371 34.2307 14.6265 34.8946 13.4799 35.5278L13.9634 36.4032ZM21.1864 32.476L21.6583 33.3577C22.8276 32.7319 24.0348 32.0906 25.2761 31.4369L24.8101 30.5521L24.3442 29.6673C23.0988 30.3232 21.8876 30.9665 20.7146 31.5943L21.1864 32.476ZM28.452 28.65L28.9119 29.538C30.1042 28.9204 31.3219 28.295 32.5617 27.664L32.1081 26.7728L31.6546 25.8816C30.4103 26.5148 29.1885 27.1424 27.9921 27.762L28.452 28.65ZM35.7772 24.9226L36.2241 25.8171C37.4329 25.2132 38.6588 24.6065 39.8992 23.9989L39.4593 23.1009L39.0194 22.2028C37.7741 22.8128 36.5436 23.4219 35.3303 24.028L35.7772 24.9226ZM43.1551 21.3093L43.5875 22.211C44.8112 21.6241 46.0461 21.0383 47.2898 20.4553L46.8654 19.5499L46.441 18.6444C45.1917 19.23 43.9515 19.8183 42.7226 20.4077L43.1551 21.3093ZM50.5914 17.8247L51.0072 18.7342C52.2461 18.1678 53.4913 17.6059 54.7405 17.0503L54.3341 16.1366L53.9277 15.2229C52.672 15.7814 51.4205 16.3461 50.1756 16.9153L50.5914 17.8247ZM58.0948 14.4888L58.4909 15.407C59.746 14.8656 61.0028 14.3321 62.2592 13.8084L61.8745 12.8854L61.4897 11.9624C60.2254 12.4894 58.9609 13.0261 57.6987 13.5706L58.0948 14.4888ZM65.6745 11.3311L66.0466 12.2593C67.3195 11.7489 68.5894 11.2504 69.8542 10.7656L69.4962 9.83183L69.1382 8.89809C67.8635 9.38678 66.5841 9.889 65.3024 10.4029L65.6745 11.3311ZM73.3419 8.39449L73.6838 9.33425C74.9778 8.86349 76.2637 8.4093 77.5388 7.97365L77.2154 7.02736L76.8921 6.08107C75.6039 6.52121 74.3057 6.97978 73.0001 7.45474L73.3419 8.39449ZM81.1183 5.74205L81.42 6.69546C82.7392 6.27805 84.0431 5.88362 85.3288 5.51444L85.0528 4.55328L84.7769 3.59212C83.4727 3.96657 82.1516 4.36622 80.8167 4.78864L81.1183 5.74205ZM89.0204 3.48078L89.2652 4.45034C89.9253 4.28366 90.5792 4.12478 91.2265 3.97404L90.9997 3.00009L90.7729 2.02615C90.113 2.17982 89.4471 2.34163 88.7756 2.51122L89.0204 3.48078ZM90.9997 3.00009L91.2265 3.97404C91.9486 3.80588 92.653 3.65172 93.34 3.51136L93.1398 2.5316L92.9396 1.55185C92.234 1.69602 91.5119 1.85408 90.7729 2.02615L90.9997 3.00009ZM97.1151 1.84258L97.2531 2.83302C98.5727 2.6492 99.8134 2.52648 100.978 2.46232L100.923 1.46384L100.868 0.46535C99.6419 0.532898 98.3456 0.661535 96.9772 0.852141L97.1151 1.84258ZM104.99 1.48796L104.914 2.48503C106.285 2.59013 107.508 2.8028 108.592 3.11282L108.867 2.15137L109.142 1.18992C107.909 0.837387 106.551 0.604651 105.067 0.49088L104.99 1.48796ZM112.383 3.7398L111.826 4.57023C112.852 5.25894 113.677 6.10609 114.322 7.10675L115.162 6.56534L116.003 6.02393C115.211 4.79376 114.193 3.74996 112.94 2.90938L112.383 3.7398ZM116.67 10.1892L115.698 10.4245C115.965 11.5254 116.114 12.7438 116.148 14.0788L117.147 14.0536L118.147 14.0285C118.11 12.5771 117.947 11.2151 117.642 9.95398L116.67 10.1892ZM116.952 18.0748L115.958 17.963C115.822 19.1705 115.617 20.4424 115.345 21.7762L116.325 21.9759L117.305 22.1755C117.587 20.7917 117.802 19.4608 117.946 18.1866L116.952 18.0748ZM115.403 25.839L114.438 25.578C114.109 26.7948 113.735 28.0522 113.319 29.3485L114.271 29.6543L115.223 29.96C115.648 28.6372 116.031 27.3499 116.369 26.1L115.403 25.839ZM112.977 33.4402L112.036 33.1003C111.607 34.2889 111.147 35.505 110.658 36.7476L111.589 37.1136L112.519 37.4797C113.014 36.2212 113.481 34.9876 113.917 33.78L112.977 33.4402ZM110.04 40.9144L109.118 40.5265C108.632 41.6814 108.124 42.8561 107.596 44.05L108.51 44.4546L109.425 44.8593C109.958 43.6551 110.47 42.4692 110.961 41.3023L110.04 40.9144ZM106.859 48.1066L105.951 47.6875C105.401 48.8787 104.833 50.0869 104.248 51.3112L105.15 51.7424L106.052 52.1736C106.641 50.9418 107.213 49.7256 107.766 48.5257L106.859 48.1066ZM103.445 55.259L102.547 54.8179C101.966 56.0007 101.37 57.1972 100.761 58.4068L101.654 58.8567L102.547 59.3065C103.159 58.0916 103.758 56.8892 104.342 55.7002L103.445 55.259ZM99.8387 62.422L98.9494 61.9647C98.3593 63.1122 97.7584 64.2704 97.1472 65.4388L98.0333 65.9023L98.9194 66.3658C99.5326 65.1935 100.136 64.0312 100.728 62.8792L99.8387 62.422ZM96.1671 69.4429L95.2838 68.974C94.6616 70.1459 94.0301 71.3273 93.39 72.5175L94.2707 72.9911L95.1515 73.4648C95.7931 72.2716 96.4263 71.0872 97.0503 69.9119L96.1671 69.4429ZM92.4068 76.4382L91.5282 75.9607C90.9001 77.1163 90.2648 78.2796 89.6228 79.4501L90.4996 79.931L91.3763 80.4119C92.0195 79.2393 92.6561 78.0738 93.2854 76.9158L92.4068 76.4382ZM88.5525 83.4667L87.6773 82.9829C87.0472 84.1229 86.4114 85.2692 85.7705 86.4214L86.6444 86.9075L87.5183 87.3936C88.16 86.24 88.7966 85.0921 89.4277 83.9504L88.5525 83.4667ZM84.7156 90.366L83.8428 89.878C83.1955 91.0358 82.5437 92.199 81.8879 93.3673L82.7599 93.8568L83.6319 94.3463C84.2882 93.1771 84.9406 92.0129 85.5885 90.854L84.7156 90.366ZM80.8032 97.3368L79.9318 96.8462C79.2888 97.9881 78.6425 99.1345 77.9934 100.285L78.8643 100.776L79.7353 101.268C80.3846 100.117 81.0312 98.97 81.6745 97.8275L80.8032 97.3368ZM76.9088 104.24L76.0381 103.748C75.3838 104.906 74.7272 106.068 74.0687 107.233L74.9393 107.725L75.8099 108.217C76.4684 107.052 77.1251 105.89 77.7794 104.732L76.9088 104.24ZM72.9882 111.178L72.1175 110.686C71.4687 111.835 70.8186 112.986 70.1675 114.14L71.0385 114.632L71.9094 115.123C72.5603 113.969 73.2102 112.818 73.8589 111.67L72.9882 111.178ZM69.0835 118.1L68.2121 117.61C67.5601 118.768 66.9076 119.928 66.255 121.09L67.127 121.58L67.999 122.069C68.6511 120.908 69.3032 119.748 69.9549 118.591L69.0835 118.1ZM65.1872 125.041L64.3145 124.553C63.6679 125.708 63.0218 126.866 62.3764 128.024L63.2501 128.511L64.1237 128.998C64.7683 127.84 65.4139 126.684 66.0599 125.529L65.1872 125.041ZM61.3181 131.988L60.4434 131.503C59.8 132.664 59.1578 133.826 58.5174 134.989L59.3933 135.472L60.2691 135.954C60.9087 134.793 61.5501 133.632 62.1928 132.473L61.3181 131.988ZM57.4774 138.961L56.6001 138.481C55.9631 139.645 55.3281 140.81 54.6958 141.974L55.5746 142.452L56.4534 142.929C57.0847 141.766 57.7186 140.603 58.3547 139.441L57.4774 138.961ZM53.6875 145.942L52.807 145.468C52.1758 146.64 51.5477 147.812 50.9231 148.983L51.8055 149.454L52.6879 149.924C53.3112 148.755 53.938 147.586 54.568 146.416L53.6875 145.942ZM49.9368 152.976L49.0523 152.509C48.4326 153.684 47.8168 154.857 47.2054 156.03L48.0921 156.492L48.9787 156.954C49.5885 155.785 50.2028 154.615 50.8212 153.443L49.9368 152.976ZM46.2741 159.999L45.3851 159.541C44.7707 160.734 44.1614 161.926 43.5577 163.115L44.4493 163.568L45.341 164.02C45.9429 162.835 46.5505 161.647 47.1632 160.457L46.2741 159.999ZM42.6557 167.127L41.7613 166.68C41.1683 167.866 40.5815 169.05 40.0012 170.23L40.8986 170.671L41.7961 171.113C42.3743 169.936 42.9592 168.756 43.5502 167.574L42.6557 167.127ZM39.162 174.237L38.2613 173.803C37.6762 175.016 37.0985 176.226 36.5288 177.432L37.4329 177.859L38.3371 178.286C38.9044 177.085 39.4798 175.88 40.0627 174.672L39.162 174.237ZM35.7521 181.457L34.8442 181.038C34.291 182.236 33.7464 183.43 33.2108 184.619L34.1226 185.029L35.0345 185.44C35.5673 184.257 36.1094 183.069 36.66 181.876L35.7521 181.457ZM32.4895 188.707L31.5734 188.306C31.0343 189.538 30.5058 190.764 29.9883 191.985L30.9089 192.375L31.8296 192.765C32.344 191.552 32.8695 190.333 33.4056 189.108L32.4895 188.707ZM29.3951 196.007L28.4696 195.628C27.9605 196.872 27.4638 198.109 26.9801 199.338L27.9107 199.704L28.8413 200.07C29.3215 198.85 29.8148 197.621 30.3205 196.386L29.3951 196.007ZM26.4682 203.455L25.5321 203.104C25.0636 204.351 24.6096 205.59 24.1707 206.821L25.1126 207.157L26.0545 207.493C26.4895 206.273 26.9397 205.044 27.4044 203.807L26.4682 203.455ZM23.8183 210.895L22.8703 210.577C22.4349 211.874 22.0176 213.161 21.6194 214.437L22.5741 214.735L23.5287 215.033C23.9224 213.771 24.3352 212.497 24.7663 211.213L23.8183 210.895ZM21.4443 218.508L20.483 218.232C20.1119 219.527 19.7622 220.81 19.4347 222.08L20.403 222.33L21.3713 222.58C21.6942 221.328 22.0392 220.062 22.4056 218.783L21.4443 218.508ZM19.4548 226.25L18.4792 226.031C18.1859 227.333 17.9182 228.62 17.6772 229.891L18.6598 230.077L19.6423 230.264C19.8788 229.016 20.1418 227.751 20.4303 226.47L19.4548 226.25ZM17.9899 234.039L17.0006 233.893C16.8005 235.248 16.6339 236.583 16.5024 237.897L17.4974 237.996L18.4924 238.096C18.6206 236.815 18.7833 235.511 18.9791 234.186L17.9899 234.039ZM17.2104 241.89L16.2115 241.844C16.1471 243.244 16.1273 244.617 16.1542 245.963L17.154 245.943L18.1538 245.923C18.1278 244.624 18.1469 243.294 18.2094 241.936L17.2104 241.89ZM17.3729 249.822L16.3774 249.916C16.5106 251.317 16.7018 252.684 16.9538 254.014L17.9364 253.828L18.9189 253.642C18.679 252.376 18.4962 251.07 18.3684 249.727L17.3729 249.822ZM18.8618 257.636L17.9043 257.924C18.3055 259.257 18.7787 260.547 19.3276 261.79L20.2424 261.386L21.1573 260.982C20.6432 259.818 20.1981 258.606 19.8194 257.348L18.8618 257.636ZM22.0754 264.886L21.2234 265.409C21.9364 266.569 22.7295 267.678 23.6059 268.732L24.3748 268.093L25.1438 267.454C24.3291 266.473 23.5912 265.442 22.9273 264.362L22.0754 264.886ZM27.1558 270.985L26.4863 271.727C27.4605 272.606 28.5083 273.433 29.6316 274.208L30.1995 273.385L30.7674 272.562C29.7135 271.835 28.7338 271.061 27.8254 270.242L27.1558 270.985ZM33.6828 275.482L33.2186 276.368C34.3496 276.961 35.541 277.511 36.7943 278.017L37.1688 277.09L37.5433 276.162C36.3484 275.68 35.217 275.157 34.147 274.596L33.6828 275.482ZM40.9631 278.425L40.6717 279.382C41.3483 279.588 42.0402 279.783 42.7475 279.968L42.9997 279L43.2519 278.032C42.5701 277.855 41.9044 277.667 41.2544 277.469L40.9631 278.425ZM42.9997 279L42.7475 279.968C43.4368 280.147 44.1213 280.314 44.8012 280.467L45.0207 279.491L45.2402 278.515C44.5825 278.367 43.9198 278.206 43.2519 278.032L42.9997 279ZM48.976 280.238L48.8255 281.227C50.2049 281.437 51.5645 281.591 52.9052 281.691L52.9797 280.694L53.0542 279.697C51.7655 279.601 50.4565 279.452 49.1266 279.25L48.976 280.238ZM56.9858 280.831L56.993 281.831C58.3892 281.821 59.7639 281.751 61.1177 281.623L61.0239 280.627L60.93 279.632C59.6341 279.754 58.3173 279.821 56.9786 279.831L56.9858 280.831ZM64.9881 280.077L65.1693 281.06C66.5333 280.809 67.875 280.498 69.1955 280.131L68.9274 279.167L68.6593 278.204C67.3954 278.556 66.1116 278.853 64.8069 279.093L64.9881 280.077ZM72.7501 277.922L73.1002 278.859C74.3845 278.379 75.6478 277.845 76.8911 277.259L76.4652 276.355L76.0393 275.45C74.844 276.013 73.6313 276.525 72.3999 276.986L72.7501 277.922ZM80.0332 274.504L80.5267 275.373C81.7136 274.7 82.882 273.98 84.0329 273.216L83.4798 272.383L82.9268 271.549C81.8131 272.289 80.6843 272.984 79.5397 273.634L80.0332 274.504ZM86.749 270.06L87.3529 270.857C88.4321 270.039 89.4958 269.183 90.5451 268.291L89.8975 267.529L89.25 266.767C88.2277 267.636 87.193 268.469 86.1451 269.263L86.749 270.06ZM92.8994 264.845L93.5838 265.574C94.5647 264.653 95.5332 263.702 96.49 262.722L95.7745 262.023L95.0589 261.324C94.1213 262.285 93.1735 263.216 92.215 264.116L92.8994 264.845ZM98.5404 259.076L99.2823 259.747C100.181 258.753 101.069 257.734 101.948 256.693L101.184 256.048L100.421 255.403C99.5548 256.428 98.6811 257.429 97.7986 258.406L98.5404 259.076ZM103.75 252.916L104.533 253.538C105.365 252.492 106.19 251.426 107.007 250.342L106.208 249.74L105.41 249.138C104.603 250.209 103.789 251.261 102.968 252.293L103.75 252.916ZM108.61 246.478L109.422 247.062C110.202 245.977 110.977 244.877 111.746 243.763L110.923 243.195L110.1 242.627C109.338 243.731 108.571 244.82 107.798 245.894L108.61 246.478ZM113.194 239.844L114.026 240.398C114.768 239.284 115.505 238.159 116.237 237.023L115.397 236.481L114.557 235.939C113.829 237.067 113.097 238.185 112.361 239.29L113.194 239.844ZM117.567 233.071L118.414 233.602C119.127 232.467 119.836 231.323 120.543 230.172L119.69 229.649L118.838 229.126C118.135 230.272 117.429 231.41 116.72 232.539L117.567 233.071ZM121.787 226.2L122.644 226.715C123.337 225.565 124.027 224.409 124.716 223.249L123.856 222.738L122.996 222.228C122.309 223.385 121.621 224.537 120.93 225.684L121.787 226.2ZM125.905 219.265L126.768 219.771C127.448 218.611 128.127 217.449 128.805 216.284L127.941 215.781L127.077 215.278C126.4 216.441 125.722 217.601 125.043 218.759L125.905 219.265ZM129.967 212.295L130.832 212.797C131.507 211.634 132.182 210.469 132.857 209.307L131.992 208.805L131.127 208.303C130.452 209.467 129.777 210.63 129.102 211.793L129.967 212.295ZM134.018 205.317L134.882 205.82C135.558 204.658 136.235 203.498 136.913 202.342L136.05 201.836L135.188 201.33C134.508 202.489 133.831 203.65 133.153 204.814L134.018 205.317ZM138.1 198.357L138.96 198.866C139.645 197.711 140.331 196.56 141.019 195.416L140.161 194.901L139.304 194.385C138.614 195.534 137.926 196.688 137.24 197.847L138.1 198.357ZM142.259 191.442L143.112 191.964C143.812 190.821 144.514 189.685 145.22 188.558L144.372 188.028L143.525 187.497C142.815 188.63 142.109 189.771 141.406 190.92L142.259 191.442ZM146.543 184.605L147.384 185.146C148.109 184.019 148.837 182.903 149.57 181.799L148.737 181.246L147.903 180.693C147.165 181.806 146.432 182.93 145.702 184.064L146.543 184.605ZM151.007 177.885L151.831 178.452C152.59 177.349 153.354 176.26 154.123 175.188L153.31 174.605L152.497 174.022C151.72 175.106 150.949 176.205 150.183 177.318L151.007 177.885ZM155.712 171.332L156.511 171.933C157.315 170.865 158.124 169.815 158.941 168.786L158.157 168.165L157.374 167.543C156.546 168.587 155.726 169.65 154.913 170.731L155.712 171.332ZM160.729 165.018L161.494 165.662C162.356 164.64 163.226 163.641 164.105 162.668L163.363 161.998L162.621 161.328C161.726 162.318 160.841 163.334 159.965 164.373L160.729 165.018ZM166.139 159.04L166.854 159.739C167.79 158.782 168.736 157.854 169.692 156.959L169.009 156.229L168.326 155.499C167.346 156.415 166.379 157.364 165.424 158.342L166.139 159.04ZM172.026 153.543L172.671 154.307C173.694 153.443 174.729 152.616 175.778 151.829L175.177 151.03L174.577 150.23C173.497 151.041 172.431 151.891 171.38 152.779L172.026 153.543ZM178.466 148.721L179.014 149.558C180.131 148.828 181.263 148.143 182.411 147.507L181.926 146.632L181.441 145.758C180.249 146.419 179.075 147.129 177.919 147.884L178.466 148.721ZM185.513 144.822L185.928 145.732C187.129 145.185 188.348 144.691 189.586 144.251L189.252 143.308L188.917 142.366C187.623 142.826 186.351 143.342 185.099 143.912L185.513 144.822ZM193.096 142.133L193.345 143.102C194.613 142.776 195.902 142.506 197.212 142.296L197.053 141.308L196.895 140.321C195.523 140.541 194.174 140.823 192.847 141.165L193.096 142.133ZM201.029 140.855L201.097 141.853C202.394 141.764 203.712 141.733 205.053 141.76L205.073 140.761L205.094 139.761C203.695 139.732 202.317 139.765 200.96 139.858L201.029 140.855ZM209.071 141.011L208.967 142.006C210.251 142.139 211.555 142.326 212.881 142.568L213.06 141.585L213.24 140.601C211.866 140.35 210.511 140.155 209.174 140.017L209.071 141.011ZM216.991 142.449L216.743 143.418C217.397 143.585 218.055 143.766 218.719 143.96L219 143L219.28 142.04C218.595 141.84 217.915 141.653 217.24 141.48L216.991 142.449ZM219 143L218.719 143.96C219.369 144.15 220.009 144.35 220.638 144.558L220.953 143.609L221.268 142.66C220.616 142.444 219.953 142.237 219.28 142.04L219 143ZM224.678 144.999L224.293 145.922C225.528 146.436 226.72 146.989 227.871 147.58L228.327 146.69L228.784 145.801C227.585 145.185 226.345 144.61 225.062 144.076L224.678 144.999ZM231.792 148.651L231.265 149.5C232.385 150.197 233.462 150.932 234.5 151.705L235.097 150.903L235.695 150.101C234.612 149.295 233.488 148.528 232.32 147.802L231.792 148.651ZM238.204 153.426L237.542 154.175C238.522 155.041 239.463 155.944 240.367 156.883L241.087 156.189L241.807 155.496C240.867 154.519 239.887 153.579 238.866 152.676L238.204 153.426ZM243.75 159.177L242.978 159.814C243.808 160.819 244.603 161.857 245.366 162.927L246.18 162.347L246.994 161.767C246.206 160.66 245.382 159.584 244.521 158.54L243.75 159.177ZM248.394 165.68L247.544 166.207C248.233 167.318 248.892 168.457 249.523 169.624L250.402 169.147L251.282 168.671C250.633 167.473 249.954 166.299 249.244 165.153L248.394 165.68ZM252.209 172.705L251.307 173.135C251.87 174.318 252.41 175.524 252.927 176.751L253.848 176.362L254.77 175.974C254.241 174.72 253.69 173.487 253.112 172.275L252.209 172.705ZM255.327 180.083L254.391 180.434C254.85 181.66 255.291 182.905 255.714 184.165L256.662 183.847L257.61 183.529C257.18 182.248 256.732 180.981 256.263 179.732L255.327 180.083ZM257.879 187.673L256.921 187.962C257.301 189.219 257.665 190.491 258.017 191.775L258.981 191.511L259.946 191.247C259.59 189.948 259.221 188.659 258.836 187.384L257.879 187.673ZM259.993 195.385L259.022 195.627C259.342 196.91 259.651 198.204 259.95 199.507L260.924 199.284L261.899 199.06C261.598 197.746 261.286 196.44 260.963 195.143L259.993 195.385ZM261.786 203.186L260.808 203.394C261.084 204.692 261.352 205.998 261.613 207.309L262.593 207.114L263.574 206.918C263.312 205.599 263.042 204.285 262.764 202.978L261.786 203.186ZM263.353 211.039L262.371 211.224C262.617 212.531 262.858 213.841 263.096 215.155L264.08 214.977L265.064 214.8C264.826 213.482 264.584 212.166 264.336 210.853L263.353 211.039ZM264.78 218.918L263.795 219.091C264.026 220.404 264.254 221.719 264.48 223.033L265.466 222.863L266.451 222.693C266.224 221.378 265.996 220.061 265.765 218.745L264.78 218.918ZM266.145 226.806L265.159 226.975C265.387 228.294 265.614 229.611 265.844 230.926L266.829 230.754L267.814 230.582C267.585 229.27 267.357 227.954 267.13 226.636L266.145 226.806ZM267.525 234.694L266.54 234.87C266.777 236.19 267.017 237.506 267.262 238.817L268.245 238.633L269.228 238.449C268.984 237.145 268.745 235.833 268.509 234.517L267.525 234.694ZM268.999 242.567L268.018 242.761C268.278 244.077 268.544 245.386 268.817 246.686L269.796 246.48L270.775 246.274C270.503 244.983 270.238 243.682 269.98 242.374L268.999 242.567ZM270.654 250.403L269.679 250.625C269.978 251.937 270.287 253.24 270.608 254.53L271.578 254.289L272.549 254.048C272.232 252.771 271.926 251.482 271.629 250.181L270.654 250.403ZM272.589 258.165L271.625 258.429C271.983 259.737 272.356 261.031 272.745 262.308L273.702 262.016L274.658 261.725C274.275 260.468 273.908 259.192 273.554 257.901L272.589 258.165ZM274.924 265.809L273.978 266.132C274.418 267.423 274.879 268.695 275.361 269.945L276.294 269.585L277.227 269.225C276.755 268.001 276.303 266.754 275.87 265.486L274.924 265.809ZM277.818 273.288L276.902 273.69C277.448 274.934 278.02 276.152 278.62 277.344L279.514 276.894L280.407 276.444C279.823 275.286 279.266 274.099 278.733 272.886L277.818 273.288ZM281.426 280.422L280.562 280.926C281.251 282.108 281.974 283.257 282.732 284.372L283.559 283.809L284.385 283.246C283.654 282.172 282.957 281.062 282.289 279.918L281.426 280.422ZM285.931 287.02L285.151 287.646C286.006 288.712 286.903 289.738 287.842 290.721L288.565 290.03L289.288 289.339C288.39 288.4 287.532 287.417 286.711 286.394L285.931 287.02ZM291.457 292.789L290.802 293.545C291.826 294.434 292.897 295.278 294.016 296.072L294.595 295.257L295.174 294.442C294.109 293.685 293.089 292.882 292.113 292.034L291.457 292.789ZM297.974 297.416L297.478 298.284C298.644 298.95 299.856 299.569 301.116 300.137L301.527 299.225L301.938 298.314C300.736 297.772 299.581 297.182 298.471 296.548L297.974 297.416ZM305.226 300.694L304.898 301.639C306.168 302.079 307.482 302.473 308.841 302.819L309.088 301.85L309.335 300.881C308.028 300.548 306.768 300.171 305.553 299.75L305.226 300.694ZM312.966 302.68L312.793 303.665C313.472 303.785 314.162 303.893 314.862 303.991L315 303L315.137 302.01C314.461 301.915 313.795 301.811 313.139 301.695L312.966 302.68ZM315 303L314.862 303.991C315.531 304.084 316.2 304.171 316.869 304.253L316.99 303.26L317.111 302.267C316.454 302.187 315.796 302.101 315.137 302.01L315 303ZM320.962 303.678L320.874 304.675C322.217 304.794 323.559 304.891 324.898 304.966L324.954 303.968L325.01 302.969C323.693 302.895 322.373 302.8 321.051 302.682L320.962 303.678ZM328.943 304.129L328.918 305.129C330.266 305.162 331.61 305.175 332.951 305.166L332.945 304.166L332.939 303.166C331.619 303.174 330.295 303.162 328.968 303.13L328.943 304.129ZM336.942 304.082L336.978 305.081C338.322 305.032 339.662 304.964 340.998 304.877L340.932 303.879L340.867 302.881C339.551 302.967 338.23 303.034 336.905 303.082L336.942 304.082ZM344.921 303.561L345.015 304.556C346.353 304.431 347.686 304.286 349.013 304.125L348.892 303.132L348.771 302.139C347.462 302.299 346.147 302.441 344.828 302.565L344.921 303.561ZM352.857 302.595L353.005 303.584C354.335 303.386 355.659 303.171 356.977 302.939L356.804 301.954L356.632 300.969C355.33 301.198 354.023 301.41 352.71 301.606L352.857 302.595ZM360.729 301.214L360.926 302.195C362.247 301.929 363.56 301.647 364.865 301.351L364.644 300.376L364.423 299.401C363.133 299.693 361.836 299.972 360.532 300.234L360.729 301.214ZM368.531 299.447L368.774 300.417C370.079 300.089 371.375 299.747 372.662 299.392L372.396 298.428L372.131 297.464C370.858 297.815 369.576 298.153 368.287 298.477L368.531 299.447ZM376.243 297.321L376.53 298.279C377.817 297.894 379.095 297.496 380.362 297.087L380.055 296.135L379.748 295.184C378.494 295.589 377.229 295.982 375.956 296.363L376.243 297.321ZM383.852 294.867L384.178 295.812C385.452 295.372 386.715 294.921 387.966 294.461L387.621 293.522L387.275 292.584C386.036 293.04 384.786 293.486 383.525 293.922L383.852 294.867ZM391.35 292.108L391.714 293.04C392.972 292.549 394.218 292.05 395.45 291.542L395.069 290.617L394.689 289.693C393.467 290.196 392.233 290.691 390.987 291.177L391.35 292.108ZM398.756 289.06L399.153 289.977C400.388 289.442 401.609 288.9 402.815 288.352L402.401 287.442L401.987 286.531C400.792 287.075 399.582 287.612 398.358 288.142L398.756 289.06ZM406.033 285.754L406.462 286.657C407.685 286.075 408.892 285.489 410.08 284.899L409.636 284.003L409.191 283.107C408.013 283.692 406.816 284.274 405.603 284.85L406.033 285.754ZM413.198 282.199L413.657 283.087C414.857 282.467 416.037 281.844 417.196 281.221L416.723 280.341L416.25 279.46C415.1 280.078 413.929 280.695 412.739 281.31L413.198 282.199ZM420.244 278.412L420.732 279.285C421.922 278.621 423.088 277.958 424.228 277.298L423.727 276.432L423.226 275.567C422.095 276.222 420.938 276.88 419.757 277.539L420.244 278.412ZM427.172 274.403L427.686 275.261C428.858 274.558 429.998 273.862 431.107 273.174L430.58 272.324L430.053 271.475C428.952 272.157 427.82 272.848 426.658 273.545L427.172 274.403ZM433.954 270.195L434.494 271.036C435.655 270.291 436.774 269.56 437.851 268.845L437.298 268.012L436.745 267.179C435.677 267.888 434.566 268.614 433.414 269.353L433.954 270.195ZM440.615 265.772L441.181 266.596C442.346 265.796 443.448 265.024 444.485 264.287L443.905 263.472L443.326 262.657C442.298 263.388 441.205 264.154 440.049 264.947L440.615 265.772ZM447.157 261.118L447.75 261.922C448.935 261.049 449.996 260.248 450.927 259.533L450.318 258.74L449.709 257.947C448.788 258.654 447.737 259.447 446.563 260.313L447.157 261.118ZM453.486 256.248L454.115 257.026C454.616 256.621 454.998 256.306 455.256 256.091C455.385 255.984 455.483 255.902 455.549 255.846C455.582 255.818 455.607 255.797 455.624 255.782C455.632 255.775 455.638 255.77 455.643 255.766C455.645 255.764 455.647 255.762 455.648 255.761C455.649 255.761 455.649 255.76 455.65 255.76C455.65 255.76 455.65 255.76 455.65 255.76C455.65 255.76 455.65 255.76 455.65 255.76C455.65 255.76 455.65 255.759 455.65 255.759C455.65 255.759 455.65 255.759 455 255C454.349 254.241 454.349 254.241 454.349 254.241C454.349 254.241 454.349 254.241 454.349 254.241C454.349 254.241 454.349 254.241 454.349 254.241C454.349 254.241 454.349 254.241 454.349 254.241C454.349 254.241 454.349 254.241 454.348 254.241C454.347 254.242 454.346 254.243 454.344 254.245C454.341 254.248 454.335 254.253 454.327 254.259C454.312 254.272 454.289 254.292 454.258 254.318C454.195 254.371 454.101 254.45 453.976 254.554C453.726 254.763 453.351 255.072 452.858 255.471L453.486 256.248Z" fill="white"/>
</svg>
